<svg id="Слой_1" data-name="Слой 1" xmlns="http://www.w3.org/2000/svg" xmlns:xlink="http://www.w3.org/1999/xlink" viewBox="0 0 2660 2000"><defs><style>.cls-1{fill:url(#Безымянный_градиент_6);}.cls-2,.cls-7{fill:#fff;}.cls-3{fill:#937b00;}.cls-16,.cls-17,.cls-18,.cls-19,.cls-20,.cls-21,.cls-22,.cls-25,.cls-27,.cls-29,.cls-30,.cls-32,.cls-34,.cls-4,.cls-5,.cls-6{fill:none;}.cls-4,.cls-5,.cls-6,.cls-7{stroke:#f78f00;stroke-width:4.5px;}.cls-16,.cls-17,.cls-18,.cls-19,.cls-20,.cls-21,.cls-22,.cls-25,.cls-27,.cls-29,.cls-30,.cls-32,.cls-34,.cls-4,.cls-5,.cls-7{stroke-miterlimit:10;}.cls-27,.cls-30,.cls-34,.cls-5{stroke-linecap:round;}.cls-6{stroke-linejoin:round;}.cls-8{fill:#f78f00;}.cls-9{fill:#ea7700;}.cls-10{fill:#ffb100;}.cls-11{fill:#00aaa3;}.cls-12{fill:#008187;}.cls-13{fill:#ff6500;}.cls-14{fill:#f30;}.cls-15{fill:#b12e18;}.cls-16,.cls-17,.cls-25{stroke:#ff6500;}.cls-16{stroke-width:1.5px;}.cls-18,.cls-22,.cls-34{stroke:#fff;}.cls-18,.cls-25,.cls-32,.cls-34{stroke-width:3px;}.cls-19,.cls-20{stroke:#f30;}.cls-19{stroke-width:2px;}.cls-21{stroke:#008187;}.cls-21,.cls-22{stroke-width:4px;}.cls-23{fill:#875e00;}.cls-24{fill:url(#Безымянный_градиент_30);}.cls-26{fill:#f7c5ac;}.cls-27{stroke:#00bbb4;}.cls-27,.cls-29,.cls-30{stroke-width:5px;}.cls-28{fill:#9c7f00;}.cls-29,.cls-30{stroke:#9c7f00;}.cls-31{fill:#fc8a7b;}.cls-32{stroke:#ffb100;}.cls-33{fill:#d16f00;}</style><linearGradient id="Безымянный_градиент_6" x1="1337.71" y1="1521.42" x2="1320.64" y2="366.74" gradientUnits="userSpaceOnUse"><stop offset="0.06" stop-color="#ffc1ad"/><stop offset="0.32" stop-color="#ffd1be"/><stop offset="0.73" stop-color="#ffe4d2"/><stop offset="1" stop-color="#ffebd9"/></linearGradient><linearGradient id="Безымянный_градиент_30" x1="1330.41" y1="1331.07" x2="1330.41" y2="1670.85" gradientUnits="userSpaceOnUse"><stop offset="0.16" stop-color="#008187"/><stop offset="0.36" stop-color="#008f90"/><stop offset="0.74" stop-color="#00a39e"/><stop offset="1" stop-color="#00aaa3"/></linearGradient></defs><rect id="Background" class="cls-1" x="400" y="302.14" width="1860" height="1395.73"/><g id="Clouds"><path class="cls-2" d="M1436.41,635.07H400l.41-332.93h.48c77.05,0,143.78,52.71,162.5,127.45,29.82,119,95.28,164.54,164.88,115.69C809,488.6,860.88,438.74,933.14,553.83,965.06,604.68,1015.07,637,1131.3,588,1233.2,544.94,1436.41,635.07,1436.41,635.07Z"/><path class="cls-2" d="M967.4,1082.2H400V981.49c25.72-27.13,93.8-51.62,154-13.72,37.45,22.86,48.33,74.57,89.37,74.57,52.7,0,53.19-29.69,98.4-29.21,30.73.32,41.56,25,68.5,44.66,32.4,23.6,75.53,26.38,111.14,8a32.28,32.28,0,0,1,14.88-3.68C948.63,1062.1,960.57,1069.36,967.4,1082.2Z"/><path class="cls-2" d="M2260.41,894.78v144H1614.86s73.36-104.12,189.56-52.84c44.43,19.61,55.21-69,134.2-69,81.43,0,68.45,82,138,82C2157.27,998.9,2158.52,895.45,2260.41,894.78Z"/></g><path id="Bush" class="cls-3" d="M1759.35,1214.28v145.55H1422l45.79-78.95c27.14-47.55,68.12-66.6,112.08-66.6Z"/><g id="Tower"><path class="cls-4" d="M1324.26,388.74c.55,90.07,10.92,207.85,35.25,329.26m75.71,286.47c37.08,104,80.23,193,122.94,266.09M1369,766.28A1775.3,1775.3,0,0,0,1416.19,948M1293.66,718c23.38-119.33,29.79-236.36,30.6-329.21m-93.89,559.89c21.18-62.35,39.37-124.56,52.88-182.35m-191.48,504.28c41.53-75.22,83.32-169.48,119-266.48M1412.45,718c-31.73-137.53-41.63-367.32-45.27-536.79h-85.43c-.61,156.72-15.94,388.59-49.52,536.79m248.58,230c-21.64-61.19-40.25-122.62-56-181.69m-277.14,237.59c-48.44,125.79-111.1,233.75-211.51,362h771.16c-85.65-96.35-154.51-226.5-206.86-361.78m-280-237.67c-16.86,66.87-33.88,126.69-52.84,182.36"/><line class="cls-4" x1="1568.35" y1="1155.12" x2="1497.97" y2="1155.12"/><line class="cls-5" x1="1563.37" y1="1152.97" x2="1472.84" y2="1093.64"/><line class="cls-5" x1="1536.78" y1="1094.44" x2="1498.94" y2="1152.97"/><line class="cls-4" x1="1602.3" y1="1216.65" x2="1529.33" y2="1216.65"/><line class="cls-5" x1="1598.34" y1="1213.68" x2="1500.85" y2="1156.32"/><line class="cls-5" x1="1565.81" y1="1158.76" x2="1529.33" y2="1212.31"/><line class="cls-4" x1="1641.16" y1="1280.08" x2="1563.86" y2="1280.08"/><line class="cls-5" x1="1637.37" y1="1277.51" x2="1530.95" y2="1217.91"/><line class="cls-5" x1="1600.94" y1="1217.91" x2="1565.81" y2="1275.74"/><line class="cls-4" x1="1077.5" y1="1155.12" x2="1147.88" y2="1155.12"/><line class="cls-5" x1="1082.35" y1="1152.98" x2="1173.33" y2="1094.69"/><line class="cls-5" x1="1111.64" y1="1093.64" x2="1146.91" y2="1150.78"/><line class="cls-4" x1="1043.55" y1="1216.65" x2="1119.99" y2="1216.65"/><line class="cls-5" x1="1043.55" y1="1216.65" x2="1147.88" y2="1155.12"/><line class="cls-5" x1="1080.04" y1="1158.76" x2="1119.99" y2="1216.65"/><line class="cls-4" x1="999.74" y1="1280.08" x2="1086.46" y2="1280.08"/><line class="cls-5" x1="1004.74" y1="1277.66" x2="1117.31" y2="1219.82"/><line class="cls-5" x1="1044.24" y1="1220.27" x2="1085.38" y2="1277.66"/><path class="cls-4" d="M1325,1123.79c128.34,0,236.77,102.49,271.94,243.2H1053C1088.19,1226.28,1196.63,1123.79,1325,1123.79Z"/><path class="cls-4" d="M1145.57,1163c49.85-43.5,112-69.31,179.39-69.31,65,0,125.08,24,174,64.7"/><line class="cls-5" x1="1324.96" y1="1093.64" x2="1324.96" y2="1123.79"/><line class="cls-5" x1="1358.13" y1="1093.64" x2="1354.5" y2="1125.64"/><line class="cls-5" x1="1389.38" y1="1101.69" x2="1382.44" y2="1130.8"/><line class="cls-5" x1="1420.69" y1="1111.77" x2="1410.31" y2="1139.5"/><line class="cls-5" x1="1449.12" y1="1124.82" x2="1435.73" y2="1150.78"/><line class="cls-5" x1="1474.15" y1="1139.79" x2="1458.24" y2="1163.71"/><line class="cls-5" x1="1497.97" y1="1157.52" x2="1479.84" y2="1179.07"/><line class="cls-5" x1="1291.79" y1="1093.64" x2="1295.42" y2="1125.62"/><line class="cls-5" x1="1260.54" y1="1101.69" x2="1267.47" y2="1130.8"/><line class="cls-5" x1="1229.22" y1="1111.77" x2="1239.6" y2="1139.5"/><line class="cls-5" x1="1200.8" y1="1124.83" x2="1213.56" y2="1149.56"/><line class="cls-5" x1="1173.33" y1="1141.44" x2="1189.48" y2="1165.14"/><line class="cls-5" x1="1146.73" y1="1161.95" x2="1165.31" y2="1182.9"/><line class="cls-5" x1="1324.96" y1="1090.03" x2="1324.96" y2="1004.08"/><line class="cls-5" x1="1360.76" y1="1090.03" x2="1360.76" y2="1004.08"/><line class="cls-5" x1="1396.24" y1="1090.03" x2="1396.24" y2="1006.01"/><line class="cls-5" x1="1433.54" y1="1090.03" x2="1433.54" y2="1004.08"/><line class="cls-5" x1="1217.38" y1="1091.8" x2="1217.38" y2="1006.01"/><line class="cls-5" x1="1254.61" y1="1091.56" x2="1254.61" y2="1007.68"/><line class="cls-5" x1="1289.75" y1="1095.16" x2="1289.75" y2="1009.21"/><line class="cls-5" x1="1219.19" y1="1045.36" x2="1254.61" y2="1007.68"/><line class="cls-5" x1="1254.61" y1="1045.36" x2="1218.86" y2="1007.68"/><line class="cls-5" x1="1217.38" y1="1088.38" x2="1254.61" y2="1048.98"/><line class="cls-5" x1="1254.62" y1="1088.38" x2="1219.19" y2="1048.98"/><line class="cls-5" x1="1179.81" y1="1088.38" x2="1216.31" y2="1048.94"/><line class="cls-5" x1="1217.38" y1="1088.38" x2="1190.77" y2="1056.52"/><line class="cls-5" x1="1254.62" y1="1045.36" x2="1289.75" y2="1007.68"/><line class="cls-5" x1="1290.04" y1="1045.36" x2="1254.61" y2="1007.68"/><line class="cls-5" x1="1254.62" y1="1088.38" x2="1290.04" y2="1048.98"/><line class="cls-5" x1="1289.75" y1="1088.38" x2="1254.62" y2="1048.98"/><line class="cls-5" x1="1289.75" y1="1045.31" x2="1324.96" y2="1007.68"/><line class="cls-5" x1="1325.17" y1="1045.31" x2="1289.75" y2="1007.68"/><line class="cls-5" x1="1289.75" y1="1088.38" x2="1325.17" y2="1048.94"/><line class="cls-5" x1="1324.96" y1="1088.38" x2="1289.75" y2="1048.94"/><line class="cls-5" x1="1325.47" y1="1045.31" x2="1361.79" y2="1006.01"/><line class="cls-5" x1="1360.9" y1="1045.31" x2="1324.96" y2="1007.68"/><line class="cls-5" x1="1324.96" y1="1088.38" x2="1360.9" y2="1048.94"/><line class="cls-5" x1="1360.13" y1="1088.38" x2="1325.47" y2="1048.94"/><line class="cls-5" x1="1360.92" y1="1045.31" x2="1396.24" y2="1007.68"/><line class="cls-5" x1="1396.34" y1="1045.31" x2="1361.79" y2="1007.68"/><line class="cls-5" x1="1361.79" y1="1087.68" x2="1396.34" y2="1048.94"/><line class="cls-5" x1="1396.24" y1="1088.38" x2="1360.92" y2="1048.94"/><line class="cls-5" x1="1396.35" y1="1045.31" x2="1433.27" y2="1007.68"/><line class="cls-5" x1="1431.78" y1="1045.31" x2="1396.24" y2="1007.68"/><line class="cls-5" x1="1396.24" y1="1088.38" x2="1431.78" y2="1048.94"/><line class="cls-5" x1="1433.54" y1="1088.38" x2="1396.35" y2="1048.94"/><polyline class="cls-5" points="1435.07 1088.38 1455.77 1067.8 1433.54 1047.05"/><line class="cls-5" x1="1482.33" y1="1004.08" x2="1518.09" y2="1091.8"/><line class="cls-5" x1="1467.79" y1="1004.08" x2="1503.55" y2="1091.8"/><line class="cls-5" x1="1453.26" y1="1004.47" x2="1488.46" y2="1090.82"/><line class="cls-5" x1="1165.47" y1="1004.08" x2="1129.72" y2="1091.8"/><line class="cls-5" x1="1180.01" y1="1004.08" x2="1144.25" y2="1091.8"/><line class="cls-5" x1="1194.55" y1="1004.47" x2="1159.67" y2="1090.03"/><line class="cls-4" x1="1109.14" y1="1091.8" x2="1538.19" y2="1091.8"/><polygon class="cls-6" points="1516.81 978.01 1131.44 978.89 1131.44 948.85 1516.81 947.98 1516.81 978.01"/><path class="cls-6" d="M1147.83,1004.08a29.33,29.33,0,0,0-16.39-26h385.38a29.32,29.32,0,0,0-16.4,26Z"/><line class="cls-5" x1="1415.15" y1="1004.08" x2="1415.15" y2="978.13"/><line class="cls-5" x1="1431.59" y1="1004.08" x2="1431.59" y2="978.13"/><line class="cls-5" x1="1448.03" y1="1004.08" x2="1448.03" y2="978.13"/><line class="cls-5" x1="1464.47" y1="1004.08" x2="1464.47" y2="978.13"/><line class="cls-5" x1="1480.91" y1="1004.08" x2="1480.91" y2="978.13"/><line class="cls-5" x1="1168.52" y1="1004.08" x2="1168.52" y2="978.13"/><line class="cls-5" x1="1184.97" y1="1004.08" x2="1184.97" y2="978.13"/><line class="cls-5" x1="1201.41" y1="1004.08" x2="1201.41" y2="978.13"/><line class="cls-5" x1="1217.85" y1="1004.08" x2="1217.85" y2="978.13"/><line class="cls-5" x1="1234.29" y1="1004.08" x2="1234.29" y2="978.13"/><line class="cls-5" x1="1250.73" y1="1004.08" x2="1250.73" y2="978.13"/><line class="cls-5" x1="1267.17" y1="1004.08" x2="1267.17" y2="978.13"/><line class="cls-5" x1="1283.62" y1="1004.08" x2="1283.62" y2="978.13"/><line class="cls-5" x1="1300.06" y1="1004.08" x2="1300.06" y2="978.13"/><line class="cls-5" x1="1316.5" y1="1004.08" x2="1316.5" y2="978.13"/><line class="cls-5" x1="1332.94" y1="1004.08" x2="1332.94" y2="978.13"/><line class="cls-5" x1="1349.38" y1="1004.08" x2="1349.38" y2="978.13"/><line class="cls-5" x1="1365.82" y1="1004.08" x2="1365.82" y2="978.13"/><line class="cls-5" x1="1382.26" y1="1004.08" x2="1382.26" y2="978.13"/><line class="cls-5" x1="1398.71" y1="1004.08" x2="1398.71" y2="978.13"/><line class="cls-4" x1="1276.49" y1="794.06" x2="1213.34" y2="794.06"/><line class="cls-4" x1="1430.24" y1="794.06" x2="1374.89" y2="794.06"/><line class="cls-4" x1="1260.65" y1="857.38" x2="1195.65" y2="857.38"/><line class="cls-4" x1="1451.58" y1="857.38" x2="1389.06" y2="857.38"/><line class="cls-5" x1="1215.69" y1="790.89" x2="1250.71" y2="767.39"/><line class="cls-5" x1="1250.71" y1="767.39" x2="1276.49" y2="794.06"/><line class="cls-5" x1="1196.91" y1="854.74" x2="1273.93" y2="795.97"/><line class="cls-5" x1="1215.69" y1="795.97" x2="1257.87" y2="854.74"/><line class="cls-4" x1="1240.83" y1="917.09" x2="1178.03" y2="917.09"/><line class="cls-5" x1="1180.7" y1="915.09" x2="1256.13" y2="858.97"/><line class="cls-5" x1="1197.77" y1="858.8" x2="1239.95" y2="915.09"/><polyline class="cls-5" points="1375.88 792.67 1398.77 767.39 1432.35 794.05"/><line class="cls-5" x1="1448.01" y1="855.44" x2="1374.89" y2="794.06"/><line class="cls-5" x1="1431.07" y1="795.97" x2="1390.83" y2="854.74"/><line class="cls-4" x1="1470.02" y1="917.09" x2="1407.5" y2="917.09"/><line class="cls-5" x1="1467.3" y1="914.74" x2="1392.79" y2="859.48"/><line class="cls-5" x1="1449.6" y1="859.48" x2="1407.5" y2="914.74"/><polyline class="cls-5" points="1409.86 919.92 1448.49 944.96 1467.3 921.33"/><polyline class="cls-5" points="1238.14 919.92 1198.59 944.96 1178.93 918.99"/><line class="cls-5" x1="1325.8" y1="767.39" x2="1325.8" y2="811.73"/><line class="cls-5" x1="1339.54" y1="766.28" x2="1341.68" y2="813.02"/><line class="cls-5" x1="1353.26" y1="767.39" x2="1359.02" y2="811.73"/><line class="cls-5" x1="1313.03" y1="767.39" x2="1308.95" y2="811.73"/><line class="cls-5" x1="1299.58" y1="768.12" x2="1293.66" y2="812.69"/><line class="cls-4" x1="1273.07" y1="813" x2="1378.02" y2="813"/><rect class="cls-6" x="1203.56" y="718" width="237.63" height="22.33"/><path class="cls-6" d="M1220,766.28a29.33,29.33,0,0,0-16.39-25.94h237.63a29.32,29.32,0,0,0-16.4,25.94Z"/><line class="cls-5" x1="1240.32" y1="766.29" x2="1240.32" y2="740.34"/><line class="cls-5" x1="1256.76" y1="766.29" x2="1256.76" y2="740.34"/><line class="cls-5" x1="1273.2" y1="766.29" x2="1273.2" y2="740.34"/><line class="cls-5" x1="1289.65" y1="766.29" x2="1289.65" y2="740.34"/><line class="cls-5" x1="1306.09" y1="766.29" x2="1306.09" y2="740.34"/><line class="cls-5" x1="1322.53" y1="766.29" x2="1322.53" y2="740.34"/><line class="cls-5" x1="1338.97" y1="766.29" x2="1338.97" y2="740.34"/><line class="cls-5" x1="1355.41" y1="766.29" x2="1355.41" y2="740.34"/><line class="cls-5" x1="1371.85" y1="766.29" x2="1371.85" y2="740.34"/><line class="cls-5" x1="1388.3" y1="766.29" x2="1388.3" y2="740.34"/><line class="cls-5" x1="1404.74" y1="766.29" x2="1404.74" y2="740.34"/><line class="cls-4" x1="1281.73" y1="219.6" x2="1368.09" y2="219.6"/><line class="cls-4" x1="1280.29" y1="258.15" x2="1369.13" y2="258.15"/><line class="cls-4" x1="1278.83" y1="302.14" x2="1370.73" y2="302.14"/><line class="cls-4" x1="1277.6" y1="344.74" x2="1372.7" y2="344.74"/><line class="cls-4" x1="1274.08" y1="386.5" x2="1376.22" y2="386.5"/><line class="cls-4" x1="1271.17" y1="430.38" x2="1377.17" y2="430.38"/><line class="cls-4" x1="1266.98" y1="479.62" x2="1380.63" y2="479.62"/><line class="cls-4" x1="1262.54" y1="529.91" x2="1384.91" y2="529.91"/><polyline class="cls-5" points="1363.26 216.42 1346.4 199.56 1363.26 182.69"/><polyline class="cls-5" points="1329.53 182.69 1346.4 199.56 1329.53 216.42"/><polyline class="cls-5" points="1319.85 216.42 1302.99 199.56 1319.85 182.69"/><polyline class="cls-5" points="1286.12 182.69 1302.99 199.56 1286.12 216.42"/><polyline class="cls-5" points="1363.17 257.01 1346.3 240.15 1363.17 223.28"/><polyline class="cls-5" points="1329.44 223.28 1346.3 240.15 1329.44 257.01"/><polyline class="cls-5" points="1319.85 257.01 1302.99 240.15 1319.85 223.28"/><polyline class="cls-5" points="1286.12 223.28 1302.99 240.15 1286.12 257.01"/><polyline class="cls-5" points="1365.82 299.07 1347.37 280.62 1365.82 262.17"/><polyline class="cls-5" points="1328.92 262.17 1347.37 280.62 1328.92 299.07"/><polyline class="cls-5" points="1319.95 299.07 1301.5 280.62 1319.95 262.17"/><polyline class="cls-5" points="1283.05 262.17 1301.5 280.62 1283.05 299.07"/><polyline class="cls-5" points="1367.09 343.21 1348.26 324.38 1367.09 305.56"/><polyline class="cls-5" points="1329.44 305.56 1348.26 324.38 1329.44 343.21"/><polyline class="cls-5" points="1319.67 343.21 1300.85 324.38 1319.67 305.56"/><polyline class="cls-5" points="1282.03 305.56 1300.85 324.38 1282.03 343.21"/><polyline class="cls-5" points="1367.54 385.56 1348.24 366.26 1367.54 346.97"/><polyline class="cls-5" points="1328.95 346.97 1348.24 366.26 1328.95 385.56"/><polyline class="cls-5" points="1319.07 385.68 1300.24 366.85 1319.07 348.03"/><polyline class="cls-5" points="1280.71 348.03 1299.54 366.85 1280.71 385.68"/><polyline class="cls-5" points="1370.18 428.56 1349.8 408.18 1370.18 387.79"/><polyline class="cls-5" points="1329.42 387.79 1349.8 408.18 1329.42 428.56"/><polyline class="cls-5" points="1319.18 428.26 1299.18 408.26 1319.18 388.26"/><polyline class="cls-5" points="1279.18 388.26 1299.18 408.26 1279.18 428.26"/><polyline class="cls-5" points="1375.24 478.91 1351.38 455.04 1373.33 433.08"/><polyline class="cls-5" points="1329.42 433.08 1351.38 455.04 1329.42 477"/><polyline class="cls-5" points="1319.11 476.39 1297.6 454.88 1319.44 433.03"/><polyline class="cls-5" points="1276.09 433.36 1297.6 454.88 1272.6 478.5"/><polyline class="cls-5" points="1382.02 530.91 1355.39 506.32 1378.49 483.21"/><polyline class="cls-5" points="1332.28 483.21 1355.39 506.32 1332.28 529.42"/><polyline class="cls-5" points="1316.45 527.29 1293.95 504.8 1316.45 482.3"/><polyline class="cls-5" points="1271.46 482.3 1293.95 504.8 1266.48 528.62"/><line class="cls-4" x1="1256.5" y1="575.14" x2="1389.56" y2="575.14"/><line class="cls-4" x1="1250.38" y1="619.21" x2="1396.72" y2="619.21"/><line class="cls-4" x1="1241.95" y1="670.68" x2="1404.14" y2="670.68"/><line class="cls-5" x1="1339.18" y1="573.68" x2="1382.02" y2="532.72"/><line class="cls-5" x1="1334.13" y1="530.91" x2="1386.44" y2="572.11"/><line class="cls-5" x1="1259.84" y1="572.96" x2="1316.45" y2="530.91"/><line class="cls-5" x1="1264.82" y1="532.72" x2="1312.24" y2="573.68"/><line class="cls-5" x1="1343.83" y1="617.76" x2="1387.07" y2="579.65"/><line class="cls-5" x1="1339.18" y1="576.27" x2="1392.95" y2="616.8"/><line class="cls-5" x1="1351.77" y1="669.21" x2="1392.95" y2="623.68"/><line class="cls-5" x1="1346.13" y1="621.28" x2="1399.3" y2="665.79"/><line class="cls-5" x1="1359.51" y1="718" x2="1402.89" y2="673.04"/><line class="cls-5" x1="1352.95" y1="671.31" x2="1412.45" y2="718"/><line class="cls-5" x1="1232.23" y1="718" x2="1300.48" y2="673.04"/><line class="cls-5" x1="1241.95" y1="670.68" x2="1292.24" y2="716.27"/><line class="cls-5" x1="1241.95" y1="670.68" x2="1306.09" y2="621.28"/><line class="cls-5" x1="1251.69" y1="621.28" x2="1300.48" y2="669.21"/><line class="cls-5" x1="1252.46" y1="617.76" x2="1312.24" y2="577.46"/><line class="cls-5" x1="1259.48" y1="577.46" x2="1307.3" y2="617.76"/><line class="cls-4" x1="1324.71" y1="181.2" x2="1324.16" y2="438.73"/><polygon class="cls-7" points="1384.61 138.23 1264.37 138.23 1264.24 155.76 1384.48 155.76 1384.61 138.23"/><line class="cls-6" x1="1288.19" y1="154.12" x2="1288.19" y2="181.2"/><line class="cls-6" x1="1306.22" y1="154.12" x2="1306.22" y2="181.2"/><line class="cls-6" x1="1324.26" y1="154.12" x2="1324.26" y2="180.38"/><line class="cls-6" x1="1342.29" y1="154.12" x2="1342.29" y2="180.38"/><line class="cls-6" x1="1360.33" y1="154.12" x2="1360.33" y2="180.38"/><path class="cls-6" d="M1387.17,159.76c-10.43,0-20.09,8.46-20.09,18.89v2.56"/><path class="cls-6" d="M1261.58,159.76c10.43,0,20.15,8.46,20.15,18.89v2.56"/><line class="cls-5" x1="1325.6" y1="123.2" x2="1325.6" y2="76.63"/><line class="cls-6" x1="1293.95" y1="123.2" x2="1360.26" y2="123.2"/><circle class="cls-5" cx="1325.6" cy="63.2" r="3.18"/></g><g id="Buildings"><rect class="cls-8" x="400" y="1133.8" width="290.24" height="226.03"/><rect class="cls-9" x="400" y="1133.8" width="290.24" height="13.58"/><rect class="cls-10" x="690.24" y="1133.8" width="111.41" height="226.03"/><rect class="cls-8" x="690.24" y="1133.8" width="111.41" height="13.58"/><rect class="cls-11" x="533.98" y="1281.54" width="14.72" height="36.17" transform="translate(1082.68 2599.26) rotate(-180)"/><rect class="cls-12" x="546.04" y="1281.54" width="5.32" height="38.04"/><rect class="cls-10" x="531.15" y="1315.47" width="21.99" height="4.12"/><rect class="cls-11" x="584.96" y="1281.54" width="14.72" height="36.17" transform="translate(1184.63 2599.26) rotate(-180)"/><rect class="cls-12" x="597.02" y="1281.54" width="5.32" height="38.04"/><rect class="cls-10" x="582.13" y="1315.47" width="21.99" height="4.12"/><rect class="cls-11" x="636.15" y="1281.54" width="14.72" height="36.17" transform="translate(1287.01 2599.26) rotate(-180)"/><rect class="cls-12" x="648.2" y="1281.54" width="5.32" height="38.04"/><rect class="cls-10" x="633.32" y="1315.47" width="21.99" height="4.12"/><rect class="cls-11" x="483" y="1281.54" width="14.72" height="36.17" transform="translate(980.72 2599.26) rotate(-180)"/><rect class="cls-12" x="495.06" y="1281.54" width="5.32" height="38.04"/><rect class="cls-10" x="480.17" y="1315.47" width="21.99" height="4.12"/><rect class="cls-11" x="432.02" y="1281.54" width="14.72" height="36.17" transform="translate(878.76 2599.26) rotate(-180)"/><rect class="cls-12" x="444.08" y="1281.54" width="5.32" height="38.04"/><rect class="cls-10" x="429.2" y="1315.47" width="21.99" height="4.12"/><rect class="cls-11" x="584.96" y="1156.27" width="14.72" height="36.17" transform="translate(1184.63 2348.71) rotate(-180)"/><rect class="cls-12" x="597.01" y="1156.27" width="5.32" height="38.04"/><rect class="cls-10" x="582.13" y="1190.19" width="21.99" height="4.12"/><rect class="cls-11" x="636.06" y="1156.27" width="14.72" height="36.17" transform="translate(1286.84 2348.71) rotate(-180)"/><rect class="cls-12" x="648.88" y="1156.27" width="5.32" height="38.04"/><rect class="cls-10" x="632.9" y="1190.19" width="22.41" height="4.12"/><rect class="cls-11" x="533.98" y="1156.27" width="14.72" height="36.17" transform="translate(1082.68 2348.71) rotate(-180)"/><rect class="cls-12" x="546.04" y="1156.27" width="5.32" height="38.04"/><rect class="cls-10" x="531.15" y="1190.19" width="21.99" height="4.12"/><rect class="cls-11" x="483" y="1156.27" width="14.72" height="36.17" transform="translate(980.72 2348.71) rotate(-180)"/><rect class="cls-12" x="495.06" y="1156.27" width="5.32" height="38.04"/><rect class="cls-10" x="480.17" y="1190.19" width="21.99" height="4.12"/><rect class="cls-11" x="432.02" y="1156.27" width="14.72" height="36.17" transform="translate(878.76 2348.71) rotate(-180)"/><rect class="cls-12" x="444.08" y="1156.27" width="5.32" height="38.04"/><rect class="cls-10" x="429.2" y="1190.19" width="21.99" height="4.12"/><rect class="cls-11" x="584.96" y="1220.54" width="14.72" height="36.17" transform="translate(1184.63 2477.26) rotate(-180)"/><rect class="cls-12" x="597.01" y="1220.54" width="5.32" height="38.04"/><rect class="cls-10" x="582.13" y="1254.47" width="21.99" height="4.12"/><rect class="cls-11" x="636.06" y="1220.54" width="14.72" height="36.17" transform="translate(1286.84 2477.26) rotate(-180)"/><rect class="cls-12" x="648.88" y="1220.54" width="5.32" height="38.04"/><rect class="cls-10" x="632.9" y="1254.47" width="22.41" height="4.12"/><rect class="cls-11" x="533.98" y="1220.54" width="14.72" height="36.17" transform="translate(1082.68 2477.26) rotate(-180)"/><rect class="cls-12" x="546.04" y="1220.54" width="5.32" height="38.04"/><rect class="cls-10" x="531.15" y="1254.47" width="21.99" height="4.12"/><rect class="cls-11" x="483" y="1220.54" width="14.72" height="36.17" transform="translate(980.72 2477.26) rotate(-180)"/><rect class="cls-12" x="495.06" y="1220.54" width="5.32" height="38.04"/><rect class="cls-10" x="480.17" y="1254.47" width="21.99" height="4.12"/><rect class="cls-11" x="432.02" y="1220.54" width="14.72" height="36.17" transform="translate(878.76 2477.26) rotate(-180)"/><rect class="cls-12" x="444.08" y="1220.54" width="5.32" height="38.04"/><rect class="cls-10" x="429.2" y="1254.47" width="21.99" height="4.12"/><rect class="cls-11" x="726.83" y="1156.27" width="11.7" height="36.17" transform="translate(1465.37 2348.71) rotate(-180)"/><rect class="cls-12" x="735.88" y="1156.27" width="5.32" height="38.04"/><rect class="cls-8" x="724.01" y="1190.19" width="18.97" height="4.12"/><rect class="cls-11" x="762.58" y="1156.27" width="11.7" height="36.17" transform="translate(1536.86 2348.71) rotate(-180)"/><rect class="cls-12" x="771.71" y="1156.27" width="5.32" height="38.04"/><rect class="cls-8" x="759.42" y="1190.19" width="19.39" height="4.12"/><rect class="cls-11" x="726.83" y="1222.41" width="11.7" height="36.17" transform="translate(1465.37 2480.99) rotate(-180)"/><rect class="cls-12" x="735.88" y="1222.4" width="5.32" height="36.19"/><rect class="cls-8" x="724.01" y="1254.47" width="18.97" height="4.12"/><rect class="cls-11" x="762.58" y="1222.41" width="11.7" height="36.17" transform="translate(1536.86 2480.99) rotate(-180)"/><rect class="cls-12" x="771.71" y="1222.4" width="5.32" height="36.19"/><rect class="cls-8" x="759.42" y="1254.47" width="19.39" height="4.12"/><rect class="cls-11" x="726.83" y="1283.41" width="11.7" height="36.17" transform="translate(1465.37 2602.99) rotate(-180)"/><rect class="cls-12" x="735.88" y="1283.4" width="5.32" height="36.19"/><rect class="cls-8" x="724.01" y="1315.47" width="18.97" height="4.12"/><rect class="cls-11" x="762.58" y="1283.41" width="11.7" height="36.17" transform="translate(1536.86 2602.99) rotate(-180)"/><rect class="cls-12" x="771.71" y="1283.4" width="5.32" height="36.19"/><rect class="cls-8" x="759.42" y="1315.47" width="19.39" height="4.12"/><path class="cls-13" d="M817.7,1133.8H712.32l-12-36.15a53.35,53.35,0,0,0-50.64-36.56H755.06a53.34,53.34,0,0,1,50.64,36.56Z"/><path class="cls-14" d="M712.32,1133.8H400v-72.71H649.68a53.35,53.35,0,0,1,50.64,36.56Z"/><rect class="cls-13" x="1759.35" y="1121.8" width="217.14" height="209.88"/><rect class="cls-14" x="1759.35" y="1121.8" width="217.39" height="11.65"/><rect class="cls-14" x="1976.49" y="1121.8" width="235.97" height="209.88"/><rect class="cls-15" x="1976.73" y="1121.8" width="235.72" height="11.65"/><path class="cls-14" d="M1791.68,1139.19h12.2a4,4,0,0,1,4,4v37a0,0,0,0,1,0,0h-16.2a0,0,0,0,1,0,0v-41A0,0,0,0,1,1791.68,1139.19Z"/><path class="cls-15" d="M1796.83,1139.19a4.54,4.54,0,0,0-4.78,4.26v36.77h-4.79v-36.77a4.55,4.55,0,0,1,4.79-4.26Z"/><line class="cls-16" x1="1787.26" y1="1171.28" x2="1807.88" y2="1171.28"/><line class="cls-17" x1="1792.08" y1="1171.28" x2="1792.08" y2="1180.22"/><line class="cls-17" x1="1798.11" y1="1171.28" x2="1798.11" y2="1180.22"/><line class="cls-17" x1="1804.14" y1="1171.28" x2="1804.14" y2="1180.22"/><line class="cls-18" x1="1787.26" y1="1180.22" x2="1807.88" y2="1180.22"/><path class="cls-14" d="M1836.91,1139.19h12.2a4,4,0,0,1,4,4v37a0,0,0,0,1,0,0h-16.2a0,0,0,0,1,0,0v-41A0,0,0,0,1,1836.91,1139.19Z"/><path class="cls-15" d="M1842.06,1139.19a4.54,4.54,0,0,0-4.78,4.26v36.77h-4.79v-36.77a4.55,4.55,0,0,1,4.79-4.26Z"/><line class="cls-16" x1="1832.49" y1="1171.28" x2="1853.11" y2="1171.28"/><line class="cls-17" x1="1837.31" y1="1171.28" x2="1837.31" y2="1180.22"/><line class="cls-17" x1="1843.34" y1="1171.28" x2="1843.34" y2="1180.22"/><line class="cls-17" x1="1849.37" y1="1171.28" x2="1849.37" y2="1180.22"/><line class="cls-18" x1="1832.49" y1="1180.22" x2="1853.11" y2="1180.22"/><path class="cls-14" d="M1882.14,1139.19h12.2a4,4,0,0,1,4,4v37a0,0,0,0,1,0,0h-16.2a0,0,0,0,1,0,0v-41A0,0,0,0,1,1882.14,1139.19Z"/><path class="cls-15" d="M1887.29,1139.19a4.54,4.54,0,0,0-4.78,4.26v36.77h-4.79v-36.77a4.55,4.55,0,0,1,4.79-4.26Z"/><line class="cls-16" x1="1877.72" y1="1171.28" x2="1898.34" y2="1171.28"/><line class="cls-17" x1="1882.54" y1="1171.28" x2="1882.54" y2="1180.22"/><line class="cls-17" x1="1888.57" y1="1171.28" x2="1888.57" y2="1180.22"/><line class="cls-17" x1="1894.6" y1="1171.28" x2="1894.6" y2="1180.22"/><line class="cls-18" x1="1877.72" y1="1180.22" x2="1898.34" y2="1180.22"/><path class="cls-14" d="M1927.37,1139.19h12.2a4,4,0,0,1,4,4v37a0,0,0,0,1,0,0h-16.2a0,0,0,0,1,0,0v-41A0,0,0,0,1,1927.37,1139.19Z"/><path class="cls-15" d="M1932.52,1139.19a4.55,4.55,0,0,0-4.79,4.26v36.77H1923v-36.77a4.54,4.54,0,0,1,4.78-4.26Z"/><line class="cls-16" x1="1922.95" y1="1171.28" x2="1943.57" y2="1171.28"/><line class="cls-17" x1="1927.77" y1="1171.28" x2="1927.77" y2="1180.22"/><line class="cls-17" x1="1933.8" y1="1171.28" x2="1933.8" y2="1180.22"/><line class="cls-17" x1="1939.83" y1="1171.28" x2="1939.83" y2="1180.22"/><line class="cls-18" x1="1922.95" y1="1180.22" x2="1943.57" y2="1180.22"/><path class="cls-14" d="M1791.68,1199.5h12.2a4,4,0,0,1,4,4v37a0,0,0,0,1,0,0h-16.2a0,0,0,0,1,0,0v-41A0,0,0,0,1,1791.68,1199.5Z"/><path class="cls-15" d="M1796.83,1199.5a4.54,4.54,0,0,0-4.78,4.25v36.77h-4.79v-36.77a4.54,4.54,0,0,1,4.79-4.25Z"/><line class="cls-16" x1="1787.26" y1="1231.59" x2="1807.88" y2="1231.59"/><line class="cls-17" x1="1792.08" y1="1231.59" x2="1792.08" y2="1240.52"/><line class="cls-17" x1="1798.11" y1="1231.59" x2="1798.11" y2="1240.52"/><line class="cls-17" x1="1804.14" y1="1231.59" x2="1804.14" y2="1240.52"/><line class="cls-18" x1="1787.26" y1="1240.52" x2="1807.88" y2="1240.52"/><path class="cls-14" d="M1836.91,1199.5h12.2a4,4,0,0,1,4,4v37a0,0,0,0,1,0,0h-16.2a0,0,0,0,1,0,0v-41A0,0,0,0,1,1836.91,1199.5Z"/><path class="cls-15" d="M1842.06,1199.5a4.54,4.54,0,0,0-4.78,4.25v36.77h-4.79v-36.77a4.54,4.54,0,0,1,4.79-4.25Z"/><line class="cls-16" x1="1832.49" y1="1231.59" x2="1853.11" y2="1231.59"/><line class="cls-17" x1="1837.31" y1="1231.59" x2="1837.31" y2="1240.52"/><line class="cls-17" x1="1843.34" y1="1231.59" x2="1843.34" y2="1240.52"/><line class="cls-17" x1="1849.37" y1="1231.59" x2="1849.37" y2="1240.52"/><line class="cls-18" x1="1832.49" y1="1240.52" x2="1853.11" y2="1240.52"/><path class="cls-14" d="M1882.14,1199.5h12.2a4,4,0,0,1,4,4v37a0,0,0,0,1,0,0h-16.2a0,0,0,0,1,0,0v-41A0,0,0,0,1,1882.14,1199.5Z"/><path class="cls-15" d="M1887.29,1199.5a4.54,4.54,0,0,0-4.78,4.25v36.77h-4.79v-36.77a4.54,4.54,0,0,1,4.79-4.25Z"/><line class="cls-16" x1="1877.72" y1="1231.59" x2="1898.34" y2="1231.59"/><line class="cls-17" x1="1882.54" y1="1231.59" x2="1882.54" y2="1240.52"/><line class="cls-17" x1="1888.57" y1="1231.59" x2="1888.57" y2="1240.52"/><line class="cls-17" x1="1894.6" y1="1231.59" x2="1894.6" y2="1240.52"/><line class="cls-18" x1="1877.72" y1="1240.52" x2="1898.34" y2="1240.52"/><path class="cls-14" d="M1927.37,1199.5h12.2a4,4,0,0,1,4,4v37a0,0,0,0,1,0,0h-16.2a0,0,0,0,1,0,0v-41A0,0,0,0,1,1927.37,1199.5Z"/><path class="cls-15" d="M1932.52,1199.5a4.55,4.55,0,0,0-4.79,4.25v36.77H1923v-36.77a4.54,4.54,0,0,1,4.78-4.25Z"/><line class="cls-16" x1="1922.95" y1="1231.59" x2="1943.57" y2="1231.59"/><line class="cls-17" x1="1927.77" y1="1231.59" x2="1927.77" y2="1240.52"/><line class="cls-17" x1="1933.8" y1="1231.59" x2="1933.8" y2="1240.52"/><line class="cls-17" x1="1939.83" y1="1231.59" x2="1939.83" y2="1240.52"/><line class="cls-18" x1="1922.95" y1="1240.52" x2="1943.57" y2="1240.52"/><path class="cls-14" d="M1791.68,1261.4h12.2a4,4,0,0,1,4,4v37a0,0,0,0,1,0,0h-16.2a0,0,0,0,1,0,0v-41A0,0,0,0,1,1791.68,1261.4Z"/><path class="cls-15" d="M1796.83,1261.4a4.54,4.54,0,0,0-4.78,4.25v36.77h-4.79v-36.77a4.54,4.54,0,0,1,4.79-4.25Z"/><line class="cls-16" x1="1787.26" y1="1293.49" x2="1807.88" y2="1293.49"/><line class="cls-17" x1="1792.08" y1="1293.49" x2="1792.08" y2="1302.42"/><line class="cls-17" x1="1798.11" y1="1293.49" x2="1798.11" y2="1302.42"/><line class="cls-17" x1="1804.14" y1="1293.49" x2="1804.14" y2="1302.42"/><line class="cls-18" x1="1787.26" y1="1302.42" x2="1807.88" y2="1302.42"/><path class="cls-14" d="M1836.91,1261.4h12.2a4,4,0,0,1,4,4v37a0,0,0,0,1,0,0h-16.2a0,0,0,0,1,0,0v-41A0,0,0,0,1,1836.91,1261.4Z"/><path class="cls-15" d="M1842.06,1261.4a4.54,4.54,0,0,0-4.78,4.25v36.77h-4.79v-36.77a4.54,4.54,0,0,1,4.79-4.25Z"/><line class="cls-16" x1="1832.49" y1="1293.49" x2="1853.11" y2="1293.49"/><line class="cls-17" x1="1837.31" y1="1293.49" x2="1837.31" y2="1302.42"/><line class="cls-17" x1="1843.34" y1="1293.49" x2="1843.34" y2="1302.42"/><line class="cls-17" x1="1849.37" y1="1293.49" x2="1849.37" y2="1302.42"/><line class="cls-18" x1="1832.49" y1="1302.42" x2="1853.11" y2="1302.42"/><path class="cls-14" d="M1882.14,1261.4h12.2a4,4,0,0,1,4,4v37a0,0,0,0,1,0,0h-16.2a0,0,0,0,1,0,0v-41A0,0,0,0,1,1882.14,1261.4Z"/><path class="cls-15" d="M1887.29,1261.4a4.54,4.54,0,0,0-4.78,4.25v36.77h-4.79v-36.77a4.54,4.54,0,0,1,4.79-4.25Z"/><line class="cls-16" x1="1877.72" y1="1293.49" x2="1898.34" y2="1293.49"/><line class="cls-17" x1="1882.54" y1="1293.49" x2="1882.54" y2="1302.42"/><line class="cls-17" x1="1888.57" y1="1293.49" x2="1888.57" y2="1302.42"/><line class="cls-17" x1="1894.6" y1="1293.49" x2="1894.6" y2="1302.42"/><line class="cls-18" x1="1877.72" y1="1302.42" x2="1898.34" y2="1302.42"/><path class="cls-14" d="M1927.37,1261.4h12.2a4,4,0,0,1,4,4v37a0,0,0,0,1,0,0h-16.2a0,0,0,0,1,0,0v-41A0,0,0,0,1,1927.37,1261.4Z"/><path class="cls-15" d="M1932.52,1261.4a4.55,4.55,0,0,0-4.79,4.25v36.77H1923v-36.77a4.54,4.54,0,0,1,4.78-4.25Z"/><line class="cls-16" x1="1922.95" y1="1293.49" x2="1943.57" y2="1293.49"/><line class="cls-17" x1="1927.77" y1="1293.49" x2="1927.77" y2="1302.42"/><line class="cls-17" x1="1933.8" y1="1293.49" x2="1933.8" y2="1302.42"/><line class="cls-17" x1="1939.83" y1="1293.49" x2="1939.83" y2="1302.42"/><line class="cls-18" x1="1922.95" y1="1302.42" x2="1943.57" y2="1302.42"/><path class="cls-15" d="M2062.15,1139.19h16.2a0,0,0,0,1,0,0v37a4,4,0,0,1-4,4h-12.2a0,0,0,0,1,0,0v-41A0,0,0,0,1,2062.15,1139.19Z" transform="translate(4140.5 2319.41) rotate(-180)"/><path class="cls-13" d="M2073.2,1139.19a4.55,4.55,0,0,1,4.79,4.26v36.77h4.79v-36.77a4.55,4.55,0,0,0-4.79-4.26Z"/><line class="cls-19" x1="2082.78" y1="1171.28" x2="2062.15" y2="1171.28"/><line class="cls-20" x1="2077.95" y1="1171.28" x2="2077.95" y2="1180.22"/><line class="cls-20" x1="2071.92" y1="1171.28" x2="2071.92" y2="1180.22"/><line class="cls-20" x1="2065.89" y1="1171.28" x2="2065.89" y2="1180.22"/><rect class="cls-13" x="2062.15" y="1178.62" width="20.63" height="3.19"/><path class="cls-15" d="M2013.41,1139.19h16.2a0,0,0,0,1,0,0v37a4,4,0,0,1-4,4h-12.2a0,0,0,0,1,0,0v-41A0,0,0,0,1,2013.41,1139.19Z" transform="translate(4043.02 2319.41) rotate(-180)"/><path class="cls-13" d="M2024.46,1139.19a4.55,4.55,0,0,1,4.79,4.26v36.77H2034v-36.77a4.54,4.54,0,0,0-4.78-4.26Z"/><line class="cls-19" x1="2034.03" y1="1171.28" x2="2013.41" y2="1171.28"/><line class="cls-20" x1="2029.21" y1="1171.28" x2="2029.21" y2="1180.22"/><line class="cls-20" x1="2023.18" y1="1171.28" x2="2023.18" y2="1180.22"/><line class="cls-20" x1="2017.15" y1="1171.28" x2="2017.15" y2="1180.22"/><rect class="cls-13" x="2013.41" y="1178.62" width="20.63" height="3.19"/><path class="cls-15" d="M2062.15,1199.5h16.2a0,0,0,0,1,0,0v37a4,4,0,0,1-4,4h-12.2a0,0,0,0,1,0,0v-41A0,0,0,0,1,2062.15,1199.5Z" transform="translate(4140.5 2440.02) rotate(-180)"/><path class="cls-13" d="M2073.2,1199.5a4.54,4.54,0,0,1,4.79,4.25v36.77h4.79v-36.77a4.55,4.55,0,0,0-4.79-4.25Z"/><line class="cls-19" x1="2082.78" y1="1231.59" x2="2062.15" y2="1231.59"/><line class="cls-20" x1="2077.95" y1="1231.59" x2="2077.95" y2="1240.52"/><line class="cls-20" x1="2071.92" y1="1231.59" x2="2071.92" y2="1240.52"/><line class="cls-20" x1="2065.89" y1="1231.59" x2="2065.89" y2="1240.52"/><rect class="cls-13" x="2062.15" y="1238.93" width="20.63" height="3.19"/><path class="cls-15" d="M2013.41,1199.5h16.2a0,0,0,0,1,0,0v37a4,4,0,0,1-4,4h-12.2a0,0,0,0,1,0,0v-41A0,0,0,0,1,2013.41,1199.5Z" transform="translate(4043.02 2440.02) rotate(-180)"/><path class="cls-13" d="M2024.46,1199.5a4.55,4.55,0,0,1,4.79,4.25v36.77H2034v-36.77a4.54,4.54,0,0,0-4.78-4.25Z"/><line class="cls-19" x1="2034.03" y1="1231.59" x2="2013.41" y2="1231.59"/><line class="cls-20" x1="2029.21" y1="1231.59" x2="2029.21" y2="1240.52"/><line class="cls-20" x1="2023.18" y1="1231.59" x2="2023.18" y2="1240.52"/><line class="cls-20" x1="2017.15" y1="1231.59" x2="2017.15" y2="1240.52"/><rect class="cls-13" x="2013.41" y="1238.93" width="20.63" height="3.19"/><path class="cls-15" d="M2062.15,1259.81h16.2a0,0,0,0,1,0,0v37a4,4,0,0,1-4,4h-12.2a0,0,0,0,1,0,0v-41A0,0,0,0,1,2062.15,1259.81Z" transform="translate(4140.5 2560.63) rotate(-180)"/><path class="cls-13" d="M2073.2,1259.8a4.55,4.55,0,0,1,4.79,4.26v36.77h4.79v-36.77a4.55,4.55,0,0,0-4.79-4.26Z"/><line class="cls-19" x1="2082.78" y1="1291.89" x2="2062.15" y2="1291.89"/><line class="cls-20" x1="2077.95" y1="1291.89" x2="2077.95" y2="1300.83"/><line class="cls-20" x1="2071.92" y1="1291.89" x2="2071.92" y2="1300.83"/><line class="cls-20" x1="2065.89" y1="1291.89" x2="2065.89" y2="1300.83"/><rect class="cls-13" x="2062.15" y="1299.23" width="20.63" height="3.19"/><path class="cls-15" d="M2013.41,1259.81h16.2a0,0,0,0,1,0,0v37a4,4,0,0,1-4,4h-12.2a0,0,0,0,1,0,0v-41A0,0,0,0,1,2013.41,1259.81Z" transform="translate(4043.02 2560.63) rotate(-180)"/><path class="cls-13" d="M2024.46,1259.8a4.55,4.55,0,0,1,4.79,4.26v36.77H2034v-36.77a4.54,4.54,0,0,0-4.78-4.26Z"/><line class="cls-19" x1="2034.03" y1="1291.89" x2="2013.41" y2="1291.89"/><line class="cls-20" x1="2029.21" y1="1291.89" x2="2029.21" y2="1300.83"/><line class="cls-20" x1="2023.18" y1="1291.89" x2="2023.18" y2="1300.83"/><line class="cls-20" x1="2017.15" y1="1291.89" x2="2017.15" y2="1300.83"/><rect class="cls-13" x="2013.41" y="1299.23" width="20.63" height="3.19"/><path class="cls-15" d="M2159.64,1139.19h16.2a0,0,0,0,1,0,0v37a4,4,0,0,1-4,4h-12.2a0,0,0,0,1,0,0v-41A0,0,0,0,1,2159.64,1139.19Z" transform="translate(4335.48 2319.41) rotate(-180)"/><path class="cls-13" d="M2170.69,1139.19a4.54,4.54,0,0,1,4.78,4.26v36.77h4.79v-36.77a4.55,4.55,0,0,0-4.79-4.26Z"/><line class="cls-19" x1="2180.26" y1="1171.28" x2="2159.64" y2="1171.28"/><line class="cls-20" x1="2175.44" y1="1171.28" x2="2175.44" y2="1180.22"/><line class="cls-20" x1="2169.41" y1="1171.28" x2="2169.41" y2="1180.22"/><line class="cls-20" x1="2163.38" y1="1171.28" x2="2163.38" y2="1180.22"/><rect class="cls-13" x="2159.64" y="1178.62" width="20.63" height="3.19"/><path class="cls-15" d="M2110.89,1139.19h16.2a0,0,0,0,1,0,0v37a4,4,0,0,1-4,4h-12.2a0,0,0,0,1,0,0v-41A0,0,0,0,1,2110.89,1139.19Z" transform="translate(4237.99 2319.41) rotate(-180)"/><path class="cls-13" d="M2121.94,1139.19a4.55,4.55,0,0,1,4.79,4.26v36.77h4.79v-36.77a4.55,4.55,0,0,0-4.79-4.26Z"/><line class="cls-19" x1="2131.52" y1="1171.28" x2="2110.89" y2="1171.28"/><line class="cls-20" x1="2126.7" y1="1171.28" x2="2126.7" y2="1180.22"/><line class="cls-20" x1="2120.67" y1="1171.28" x2="2120.67" y2="1180.22"/><line class="cls-20" x1="2114.64" y1="1171.28" x2="2114.64" y2="1180.22"/><rect class="cls-13" x="2110.89" y="1178.62" width="20.63" height="3.19"/><path class="cls-15" d="M2159.64,1199.5h16.2a0,0,0,0,1,0,0v37a4,4,0,0,1-4,4h-12.2a0,0,0,0,1,0,0v-41A0,0,0,0,1,2159.64,1199.5Z" transform="translate(4335.48 2440.02) rotate(-180)"/><path class="cls-13" d="M2170.69,1199.5a4.54,4.54,0,0,1,4.78,4.25v36.77h4.79v-36.77a4.54,4.54,0,0,0-4.79-4.25Z"/><line class="cls-19" x1="2180.26" y1="1231.59" x2="2159.64" y2="1231.59"/><line class="cls-20" x1="2175.44" y1="1231.59" x2="2175.44" y2="1240.52"/><line class="cls-20" x1="2169.41" y1="1231.59" x2="2169.41" y2="1240.52"/><line class="cls-20" x1="2163.38" y1="1231.59" x2="2163.38" y2="1240.52"/><rect class="cls-13" x="2159.64" y="1238.93" width="20.63" height="3.19"/><path class="cls-15" d="M2110.89,1199.5h16.2a0,0,0,0,1,0,0v37a4,4,0,0,1-4,4h-12.2a0,0,0,0,1,0,0v-41A0,0,0,0,1,2110.89,1199.5Z" transform="translate(4237.99 2440.02) rotate(-180)"/><path class="cls-13" d="M2121.94,1199.5a4.54,4.54,0,0,1,4.79,4.25v36.77h4.79v-36.77a4.54,4.54,0,0,0-4.79-4.25Z"/><line class="cls-19" x1="2131.52" y1="1231.59" x2="2110.89" y2="1231.59"/><line class="cls-20" x1="2126.7" y1="1231.59" x2="2126.7" y2="1240.52"/><line class="cls-20" x1="2120.67" y1="1231.59" x2="2120.67" y2="1240.52"/><line class="cls-20" x1="2114.64" y1="1231.59" x2="2114.64" y2="1240.52"/><rect class="cls-13" x="2110.89" y="1238.93" width="20.63" height="3.19"/><path class="cls-15" d="M2159.64,1259.81h16.2a0,0,0,0,1,0,0v37a4,4,0,0,1-4,4h-12.2a0,0,0,0,1,0,0v-41A0,0,0,0,1,2159.64,1259.81Z" transform="translate(4335.48 2560.63) rotate(-180)"/><path class="cls-13" d="M2170.69,1259.8a4.54,4.54,0,0,1,4.78,4.26v36.77h4.79v-36.77a4.55,4.55,0,0,0-4.79-4.26Z"/><line class="cls-19" x1="2180.26" y1="1291.89" x2="2159.64" y2="1291.89"/><line class="cls-20" x1="2175.44" y1="1291.89" x2="2175.44" y2="1300.83"/><line class="cls-20" x1="2169.41" y1="1291.89" x2="2169.41" y2="1300.83"/><line class="cls-20" x1="2163.38" y1="1291.89" x2="2163.38" y2="1300.83"/><rect class="cls-13" x="2159.64" y="1299.23" width="20.63" height="3.19"/><path class="cls-15" d="M2110.89,1259.81h16.2a0,0,0,0,1,0,0v37a4,4,0,0,1-4,4h-12.2a0,0,0,0,1,0,0v-41A0,0,0,0,1,2110.89,1259.81Z" transform="translate(4237.99 2560.63) rotate(-180)"/><path class="cls-13" d="M2121.94,1259.8a4.55,4.55,0,0,1,4.79,4.26v36.77h4.79v-36.77a4.55,4.55,0,0,0-4.79-4.26Z"/><line class="cls-19" x1="2131.52" y1="1291.89" x2="2110.89" y2="1291.89"/><line class="cls-20" x1="2126.7" y1="1291.89" x2="2126.7" y2="1300.83"/><line class="cls-20" x1="2120.67" y1="1291.89" x2="2120.67" y2="1300.83"/><line class="cls-20" x1="2114.64" y1="1291.89" x2="2114.64" y2="1300.83"/><rect class="cls-13" x="2110.89" y="1299.23" width="20.63" height="3.19"/><path class="cls-11" d="M2063.61,1037.09a63.89,63.89,0,0,0-54.66,30.8l-32.61,53.91H1738.12l32.63-53.91a63.86,63.86,0,0,1,54.64-30.8Z"/><path class="cls-21" d="M1916.78,1121.8l32.62-53.91a63.88,63.88,0,0,1,54.65-30.8"/><path class="cls-21" d="M1857.23,1121.8l32.61-53.91a63.91,63.91,0,0,1,54.66-30.8"/><path class="cls-21" d="M1797.68,1121.8l32.61-53.91a63.91,63.91,0,0,1,54.66-30.8"/><path class="cls-12" d="M2225.82,1121.8H1969.34l32.61-53.91a63.91,63.91,0,0,1,54.66-30.79h81.95a63.89,63.89,0,0,1,54.65,30.79Z"/><path class="cls-22" d="M1738.12,1121.8l32.63-53.91a63.86,63.86,0,0,1,54.64-30.8h330.44"/></g><g id="Trees_Bushes" data-name="Trees &amp; Bushes"><path class="cls-23" d="M734.63,1332.47h-26.1a18,18,0,0,1-18-18h3a15,15,0,0,0,15,15h26.1Z"/><path class="cls-3" d="M737.23,1266.6h18.59A33.21,33.21,0,0,1,789,1299.81v32.73a0,0,0,0,1,0,0h-51.8a26.87,26.87,0,0,1-26.87-26.87v-12.19A26.87,26.87,0,0,1,737.23,1266.6Z"/><rect class="cls-23" x="748.01" y="1332.58" width="3" height="27.25"/><path class="cls-23" d="M852.7,1254.86H969.92a79.6,79.6,0,0,1,79.6,79.6v25.38a0,0,0,0,1,0,0H773.1a0,0,0,0,1,0,0v-25.38A79.6,79.6,0,0,1,852.7,1254.86Z"/><path class="cls-23" d="M531.92,1359.55H400V1226.88h13.37a51.24,51.24,0,0,1,51.24,51.24v18.45A79.64,79.64,0,0,1,531.92,1359.55Z"/><path class="cls-23" d="M1218.83,1360.38H1091.77a58.46,58.46,0,0,1,57.43-47.52h12.09a58.46,58.46,0,0,1,56.67,44.08Z"/><path class="cls-3" d="M1028.87,1359.83H901.81a58.46,58.46,0,0,1,57.43-47.53h12.09a58.46,58.46,0,0,1,56.66,44.08Z"/><path class="cls-23" d="M1275.39,1261.33h-30.3a47.44,47.44,0,0,0-47.44,47.43v3.44a6.54,6.54,0,0,0,6.54,6.54h21.06a16.81,16.81,0,0,0,15.29,9.85H1250a11.27,11.27,0,0,1,10.36,6.85,24,24,0,0,1,1.2,7.53v16.86h3V1344l9.29-3.43a23.37,23.37,0,0,0,15.24-21.85h27.2a6.53,6.53,0,0,0,6.53-6.54v-3.44A47.44,47.44,0,0,0,1275.39,1261.33ZM1250,1325.59h-9.47a13.81,13.81,0,0,1-11.92-6.85h11.21a24.31,24.31,0,0,1,15.37,7.82A14.33,14.33,0,0,0,1250,1325.59Zm11.56,4.94a27.51,27.51,0,0,0-11.65-11.79h11.65Zm11.26,7.25-8.26,3v-22.08h21.53A20.38,20.38,0,0,1,1272.83,1337.78Z"/><path class="cls-23" d="M742.32,1285.74A71.36,71.36,0,0,0,671,1214.38H622.35A71.36,71.36,0,0,0,551,1285.74v29.59h31a32,32,0,0,0,25.79,12.94h25.64a30.21,30.21,0,0,1,5.28,17.1v14.18h3v-7.22a39.37,39.37,0,0,1,25.19-36.88l0-.12h75.44Zm-134.5,39.53a29,29,0,0,1-21.93-9.94h27.87l0,.21a30.19,30.19,0,0,1,17.4,9.73Zm30.92,6.28a33.2,33.2,0,0,0-15.92-16.22h15.92Zm3,5v-21.19h18.49A42.21,42.21,0,0,0,641.74,1336.52Z"/><path class="cls-3" d="M742.31,1285.56v29.76H630c4.82-22.95,24.45-40.12,47.94-40.12a47.62,47.62,0,0,1,30,10.63c.81-1.59,1.24-3.7,1.24-7a64.49,64.49,0,0,0-64.5-64.49h26.49A71.18,71.18,0,0,1,742.31,1285.56Z"/><path class="cls-23" d="M2260.41,1205.82v153.73H1984.93c11.67-45.91,61.81-83.81,121.89-83.81h68C2181.13,1238.57,2212.54,1207.32,2260.41,1205.82Z"/><path class="cls-23" d="M1634.82,1359.84h377.23v-28.45c0-46.89-43.16-84.91-96.4-84.91h-126c-44,0-85,19.5-109.06,51.87Z"/><path class="cls-3" d="M1550.4,1359.84h238.79l-6.49-17.48a85.51,85.51,0,0,0-80.17-55.74h-50a100.11,100.11,0,0,0-83.7,45.19Z"/><path class="cls-23" d="M1568.78,1332.31a2.46,2.46,0,0,1-1.37-.41,2.5,2.5,0,0,1-.72-3.46,102.32,102.32,0,0,1,85.79-46.32h70a2.5,2.5,0,0,1,0,5h-70a97.32,97.32,0,0,0-81.61,44.06A2.5,2.5,0,0,1,1568.78,1332.31Z"/><path class="cls-3" d="M2175.83,1270.74h42.77v5h-88.19c13.39-44.2,62.42-80,120.85-80h9.15v10.13C2214.71,1207.25,2184,1235.8,2175.83,1270.74Z"/></g><g id="River"><rect class="cls-24" x="400.41" y="1485.35" width="1860" height="210.74"/><polygon class="cls-14" points="991.88 1617.68 909.18 1617.68 885.06 1579.75 1016 1579.75 991.88 1617.68"/><polygon class="cls-13" points="1266.27 1617.68 991.88 1617.68 1016 1579.75 1320.55 1579.75 1266.27 1617.68"/><line class="cls-25" x1="901.24" y1="1579.75" x2="901.24" y2="1546.74"/><line class="cls-25" x1="998" y1="1546.74" x2="998" y2="1579.75"/><line class="cls-25" x1="1223.79" y1="1546.74" x2="1223.79" y2="1579.75"/><line class="cls-25" x1="1030.26" y1="1546.74" x2="1030.26" y2="1579.75"/><line class="cls-25" x1="1127.02" y1="1546.74" x2="1127.02" y2="1579.75"/><rect class="cls-14" x="885.06" y="1534.39" width="130.94" height="12.35"/><rect class="cls-13" x="1015.53" y="1534.39" width="209.83" height="12.35"/><line class="cls-18" x1="884.88" y1="1566.26" x2="1320.55" y2="1566.26"/><line class="cls-18" x1="1288.29" y1="1566.26" x2="1288.29" y2="1579.75"/><line class="cls-18" x1="1256.04" y1="1566.26" x2="1256.04" y2="1579.75"/><line class="cls-18" x1="1223.79" y1="1566.26" x2="1223.79" y2="1579.75"/><line class="cls-18" x1="1191.53" y1="1566.26" x2="1191.53" y2="1579.75"/><line class="cls-18" x1="1159.28" y1="1566.26" x2="1159.28" y2="1579.75"/><line class="cls-18" x1="1127.02" y1="1566.26" x2="1127.02" y2="1579.75"/><line class="cls-18" x1="1094.77" y1="1566.26" x2="1094.77" y2="1579.75"/><line class="cls-18" x1="1062.51" y1="1566.26" x2="1062.51" y2="1579.75"/><line class="cls-18" x1="1030.26" y1="1566.26" x2="1030.26" y2="1579.75"/><line class="cls-18" x1="1030.26" y1="1566.26" x2="1030.26" y2="1579.75"/><line class="cls-18" x1="998" y1="1566.26" x2="998" y2="1579.75"/><line class="cls-18" x1="965.75" y1="1566.26" x2="965.75" y2="1579.75"/><line class="cls-18" x1="933.49" y1="1566.26" x2="933.49" y2="1579.75"/><line class="cls-18" x1="901.24" y1="1566.26" x2="901.24" y2="1579.75"/><rect class="cls-26" x="885.06" y="1579.75" width="136.24" height="6.51"/><rect class="cls-2" x="1021.3" y="1579.75" width="299.25" height="6.51"/><line class="cls-27" x1="1966.14" y1="1512.04" x2="1723.78" y2="1512.04"/><line class="cls-27" x1="2029.83" y1="1526.3" x2="1834.55" y2="1526.3"/><line class="cls-27" x1="1817.21" y1="1526.3" x2="1808.38" y2="1526.3"/><line class="cls-27" x1="841.27" y1="1630.94" x2="775.19" y2="1630.94"/><line class="cls-27" x1="1064.4" y1="1630.94" x2="928.97" y2="1630.94"/><line class="cls-27" x1="764.68" y1="1630.94" x2="760.42" y2="1630.94"/><line class="cls-27" x1="809.76" y1="1617.34" x2="707.46" y2="1617.34"/><line class="cls-27" x1="879.11" y1="1617.34" x2="831.08" y2="1617.34"/><line class="cls-27" x1="1282.52" y1="1617.34" x2="897.29" y2="1617.34"/></g><g id="Trees"><path class="cls-23" d="M2260,302.14V509.65H2091.72A184.52,184.52,0,0,1,1915,378.16h-231.2a71.47,71.47,0,0,1-71.47-71.47v-4.55Z"/><path class="cls-28" d="M2156.43,509.65H2093.1a185.91,185.91,0,0,1-177.75-131.49h60.94C1996.72,456.61,2069.63,509.65,2156.43,509.65Z"/><ellipse class="cls-28" cx="2063.08" cy="730.54" rx="19.17" ry="7.56" transform="translate(-111.86 486.35) rotate(-13.09)"/><ellipse class="cls-28" cx="1946.48" cy="649.33" rx="9.86" ry="21.19" transform="translate(338.88 1924.5) rotate(-56.87)"/><ellipse class="cls-28" cx="1946.21" cy="614.91" rx="20.4" ry="9.49" transform="translate(-16.17 1176.08) rotate(-33.49)"/><ellipse class="cls-28" cx="1904.38" cy="626.32" rx="9.25" ry="19.88" transform="translate(339.06 1878.8) rotate(-56.87)"/><ellipse class="cls-28" cx="1842.49" cy="711.66" rx="10.56" ry="22.69" transform="translate(371.98 2030.3) rotate(-63)"/><ellipse class="cls-28" cx="2138.12" cy="862.6" rx="9.66" ry="20.75" transform="translate(615.96 2594.26) rotate(-70.66)"/><ellipse class="cls-28" cx="2144.82" cy="893.05" rx="18.89" ry="8.79" transform="translate(-86.79 1539.36) rotate(-38.76)"/><ellipse class="cls-28" cx="1951.72" cy="784.99" rx="16.79" ry="7.81" transform="translate(-127.09 462.54) rotate(-13.09)"/><ellipse class="cls-28" cx="1956.37" cy="813.26" rx="17.79" ry="8.28" transform="translate(273.88 2100.9) rotate(-60)"/><ellipse class="cls-28" cx="1982.78" cy="802.49" rx="8.09" ry="17.37" transform="translate(-130.25 470.03) rotate(-13.09)"/><ellipse class="cls-28" cx="1885.19" cy="692.69" rx="9.93" ry="21.33"/><ellipse class="cls-28" cx="1845.03" cy="662.72" rx="11.23" ry="24.12" transform="translate(-84.17 1011.3) rotate(-30)"/><ellipse class="cls-28" cx="1845.03" cy="744.43" rx="22.69" ry="10.56" transform="translate(-125.03 1022.25) rotate(-30)"/><ellipse class="cls-28" cx="1884.39" cy="749.76" rx="9.59" ry="20.61"/><ellipse class="cls-28" cx="1842.17" cy="801.58" rx="24.12" ry="11.23" transform="translate(475.62 2274.21) rotate(-70.66)"/><ellipse class="cls-28" cx="1788.68" cy="734.91" rx="20.57" ry="9.57"/><ellipse class="cls-28" cx="1932.39" cy="606.02" rx="10.15" ry="21.81"/><ellipse class="cls-28" cx="2110.67" cy="723.07" rx="19.43" ry="9.04"/><ellipse class="cls-28" cx="2101.27" cy="694.25" rx="20.32" ry="9.46" transform="translate(528.79 2251.37) rotate(-63)"/><ellipse class="cls-28" cx="2074.08" cy="742.15" rx="18.95" ry="7.73" transform="translate(764.38 2513.39) rotate(-73.21)"/><ellipse class="cls-28" cx="2070.95" cy="694.97" rx="9.39" ry="20.18" transform="translate(-39.64 1258.2) rotate(-33.49)"/><ellipse class="cls-28" cx="2136.61" cy="427.29" rx="16.77" ry="7.81" transform="translate(-41.82 473.41) rotate(-12.52)"/><ellipse class="cls-28" cx="2141.42" cy="399.42" rx="7.81" ry="16.77" transform="translate(258.12 1494.13) rotate(-40.73)"/><ellipse class="cls-28" cx="1587.34" cy="354.53" rx="19.44" ry="9.05" transform="translate(582.62 1633.54) rotate(-64.44)"/><ellipse class="cls-28" cx="1573.41" cy="322.42" rx="16.77" ry="7.81" transform="translate(-13.23 73.11) rotate(-2.65)"/><ellipse class="cls-28" cx="1821.91" cy="477.21" rx="19.44" ry="9.05" transform="translate(605.29 1914.9) rotate(-64.44)"/><ellipse class="cls-28" cx="1805.15" cy="449.77" rx="16.77" ry="7.81" transform="translate(-18.87 83.96) rotate(-2.65)"/><ellipse class="cls-28" cx="1645.81" cy="318.14" rx="16.77" ry="7.81" transform="translate(-12.95 76.45) rotate(-2.65)"/><line class="cls-29" x1="2218.22" y1="856.63" x2="1884.39" y2="731.68"/><line class="cls-29" x1="1930.17" y1="639.87" x2="1930.17" y2="748.94"/><line class="cls-29" x1="2094.07" y1="723.07" x2="2094.07" y2="810.72"/><path class="cls-29" d="M2260,682.44,1914.54,560.09a91.8,91.8,0,0,1-59.42-85.9v-96"/><path class="cls-29" d="M1739.05,378.16v.8a44.75,44.75,0,0,0,44.75,44.75h161.78"/><line class="cls-29" x1="1961.6" y1="409.22" x2="1961.6" y2="577.83"/><path class="cls-29" d="M2178.52,509.65V936.36a57,57,0,0,0,29.25,49.79l8.64,4.81"/><path class="cls-30" d="M2218.52,510.65v525.71a57,57,0,0,0,29.25,49.79l8.64,4.81"/><path class="cls-29" d="M2178.52,584.21H2170A25.22,25.22,0,0,1,2144.73,559v-7.43"/><ellipse class="cls-28" cx="770.46" cy="763.8" rx="20.57" ry="9.57"/><ellipse class="cls-28" cx="875.35" cy="610.74" rx="24.12" ry="11.23"/><ellipse class="cls-28" cx="823.7" cy="445.81" rx="24.12" ry="11.23"/><ellipse class="cls-28" cx="833.05" cy="345.27" rx="24.12" ry="11.23" transform="translate(-61.03 462.78) rotate(-30)"/><ellipse class="cls-28" cx="786.35" cy="338.37" rx="11.23" ry="24.12"/><ellipse class="cls-28" cx="634.16" cy="377.38" rx="11.23" ry="24.12"/><ellipse class="cls-28" cx="453.41" cy="521.61" rx="11.23" ry="24.12"/><ellipse class="cls-28" cx="668.58" cy="415.41" rx="24.12" ry="11.23" transform="translate(-97.92 594.43) rotate(-45)"/><ellipse class="cls-28" cx="513.57" cy="535.91" rx="24.12" ry="11.23" transform="translate(-228.53 520.11) rotate(-45)"/><ellipse class="cls-28" cx="509.33" cy="353.26" rx="24.12" ry="11.23" transform="translate(-100.62 463.62) rotate(-45)"/><ellipse class="cls-28" cx="738.15" cy="367.05" rx="11.23" ry="24.12"/><ellipse class="cls-28" cx="688.38" cy="317.98" rx="24.12" ry="11.23"/><ellipse class="cls-28" cx="895.7" cy="314.25" rx="24.12" ry="11.23"/><ellipse class="cls-28" cx="880.77" cy="362.49" rx="11.23" ry="24.12" transform="translate(-63.24 488.95) rotate(-30)"/><ellipse class="cls-28" cx="934.84" cy="353.96" rx="11.23" ry="24.12" transform="translate(190.84 1021.56) rotate(-62.64)"/><ellipse class="cls-28" cx="601.74" cy="420.73" rx="11.23" ry="24.12" transform="translate(-121.25 548.72) rotate(-45)"/><ellipse class="cls-28" cx="442.18" cy="353.26" rx="11.23" ry="24.12" transform="translate(-120.28 416.14) rotate(-45)"/><ellipse class="cls-28" cx="786.35" cy="417" rx="24.12" ry="11.23" transform="translate(-96.54 529.88) rotate(-35.22)"/><ellipse class="cls-28" cx="776.48" cy="476.2" rx="11.23" ry="24.12" transform="matrix(0.87, -0.5, 0.5, 0.87, -134.07, 452.04)"/><ellipse class="cls-28" cx="843.04" cy="577.47" rx="24.12" ry="11.23" transform="translate(-57.27 1060.82) rotate(-62.64)"/><ellipse class="cls-28" cx="836.62" cy="641.11" rx="11.23" ry="24.12" transform="translate(-213.34 733.55) rotate(-42.49)"/><ellipse class="cls-28" cx="790.62" cy="640.59" rx="24.12" ry="11.23" transform="translate(-221.4 746.68) rotate(-45)"/><ellipse class="cls-28" cx="830.56" cy="512.39" rx="24.12" ry="11.23" transform="translate(-138.58 626.98) rotate(-38.41)"/><ellipse class="cls-28" cx="688.38" cy="569.85" rx="11.23" ry="24.12"/><ellipse class="cls-28" cx="432.47" cy="561.26" rx="20.94" ry="11.23"/><ellipse class="cls-28" cx="752" cy="731.05" rx="23.79" ry="11.07" transform="translate(-290.39 615.42) rotate(-37.86)"/><ellipse class="cls-28" cx="700" cy="782.33" rx="24.19" ry="11.26" transform="translate(-347.89 845.27) rotate(-51.62)"/><ellipse class="cls-28" cx="733.35" cy="799.14" rx="10.4" ry="22.34"/><ellipse class="cls-28" cx="770.46" cy="799.14" rx="9.62" ry="20.68" transform="translate(-334.36 906.88) rotate(-51.62)"/><line class="cls-30" x1="554" y1="713.79" x2="801.65" y2="535.91"/><line class="cls-30" x1="481.95" y1="596.69" x2="801.65" y2="367.05"/><line class="cls-30" x1="825.42" y1="610.74" x2="697.48" y2="610.74"/><line class="cls-29" x1="481.17" y1="391.17" x2="400.41" y2="391.17"/><line class="cls-30" x1="620.18" y1="666.26" x2="735.07" y2="765.44"/><line class="cls-30" x1="634.16" y1="487.36" x2="634.16" y2="420.95"/><line class="cls-30" x1="692.01" y1="445.81" x2="780.95" y2="445.81"/><path class="cls-29" d="M554,302.07V750.78a60.94,60.94,0,0,1-60.94,61H482"/><path class="cls-29" d="M482,302.07v691H470.37a68,68,0,0,0-68,68"/></g><g id="Embankment"><rect class="cls-26" x="400.41" y="1359.84" width="1102.33" height="125.51"/><polygon class="cls-31" points="1460.52 1363.91 1460.52 1485.35 1182.95 1485.35 1263.07 1403.56 1350.52 1403.56 1392.73 1363.91 1460.52 1363.91"/><polygon class="cls-26" points="2260.41 1363.92 2260.41 1485.35 1223.95 1485.35 1304.07 1403.56 1391.52 1403.56 1433.73 1363.92 2260.41 1363.92"/><rect class="cls-31" x="400.41" y="1469.98" width="1859.59" height="15.37"/><line class="cls-22" x1="1338.39" y1="1401.85" x2="400.41" y2="1402.05"/><line class="cls-22" x1="1227.5" y1="1426.17" x2="400.41" y2="1426.17"/><line class="cls-22" x1="1204.22" y1="1450.29" x2="400.41" y2="1450.29"/><line class="cls-22" x1="1336.83" y1="1402.89" x2="1379.98" y2="1361.27"/><line class="cls-22" x1="1183.89" y1="1469.98" x2="1250.65" y2="1401.95"/><line class="cls-22" x1="400.41" y1="1469.98" x2="2260" y2="1469.98"/><polyline class="cls-22" points="2260.41 1361.83 1437.14 1361.83 1391.97 1402.89 1304.54 1402.89 1240.26 1469.98"/><line class="cls-22" x1="657.58" y1="1402.05" x2="657.58" y2="1426.17"/><line class="cls-22" x1="870.26" y1="1424.63" x2="870.26" y2="1451.25"/><line class="cls-22" x1="1083.65" y1="1401.85" x2="1083.65" y2="1424.63"/><polygon class="cls-31" points="1363.22 1374.8 1352.32 1384.55 400 1384.55 400 1374.8 1363.22 1374.8"/><polygon class="cls-2" points="1385.27 1359.55 1368.04 1375.5 400 1375.5 400 1359.55 1385.27 1359.55"/><line class="cls-22" x1="400" y1="1345.75" x2="1388.8" y2="1345.75"/><line class="cls-22" x1="564.8" y1="1345.75" x2="564.8" y2="1359.83"/><line class="cls-22" x1="729.6" y1="1345.75" x2="729.6" y2="1359.83"/><line class="cls-22" x1="894.4" y1="1345.75" x2="894.4" y2="1359.83"/><line class="cls-22" x1="1068.2" y1="1345.75" x2="1068.2" y2="1359.83"/><line class="cls-22" x1="1234" y1="1345.75" x2="1234" y2="1359.83"/></g><g id="Bridge"><path class="cls-8" d="M2260.41,1359.83v21.6a142.45,142.45,0,0,0-21.6-1.63c-66.14,0-121.63,44.91-137,105.55h-15.07a139.4,139.4,0,0,0-50.18-76.1,141.71,141.71,0,0,0-86.79-29.45c-66.14,0-121.64,44.91-137,105.55h-15.66a139.47,139.47,0,0,0-50.19-76.1,141.68,141.68,0,0,0-86.78-29.45c-66.14,0-121.65,44.91-137,105.55h-20.52V1359.83Z"/><line class="cls-32" x1="1502.74" y1="1367.52" x2="2260.41" y2="1367.52"/><rect class="cls-33" x="1805.28" y="1328.62" width="15.08" height="31.21"/><rect class="cls-8" x="1777.13" y="1328.62" width="28.15" height="31.22"/><line class="cls-18" x1="1793.34" y1="1328.62" x2="1793.34" y2="1298.07"/><circle class="cls-13" cx="1793.45" cy="1291.24" r="7.98"/><rect class="cls-33" x="1530.95" y="1328.62" width="15.02" height="31.21"/><rect class="cls-8" x="1502.74" y="1328.62" width="28.15" height="31.21"/><line class="cls-18" x1="1520.83" y1="1328.62" x2="1520.83" y2="1299.22"/><circle class="cls-13" cx="1520.83" cy="1291.24" r="7.98"/><rect class="cls-33" x="2106.89" y="1328.62" width="15.08" height="31.21"/><rect class="cls-8" x="2078.74" y="1328.62" width="28.15" height="31.21"/><line class="cls-18" x1="2096.83" y1="1328.62" x2="2096.83" y2="1299.22"/><circle class="cls-13" cx="2096.83" cy="1291.24" r="7.98"/><line class="cls-18" x1="1834.23" y1="1334.69" x2="1834.23" y2="1359.83"/><line class="cls-18" x1="1852.01" y1="1334.69" x2="1852.01" y2="1359.83"/><line class="cls-18" x1="1869.79" y1="1334.69" x2="1869.79" y2="1359.83"/><line class="cls-18" x1="1887.58" y1="1334.69" x2="1887.58" y2="1359.83"/><line class="cls-18" x1="1905.36" y1="1334.69" x2="1905.36" y2="1359.83"/><line class="cls-18" x1="1923.14" y1="1334.69" x2="1923.14" y2="1359.83"/><line class="cls-18" x1="1940.92" y1="1334.69" x2="1940.92" y2="1359.83"/><line class="cls-18" x1="2065.4" y1="1334.69" x2="2065.4" y2="1359.83"/><line class="cls-18" x1="2047.61" y1="1334.69" x2="2047.61" y2="1359.83"/><line class="cls-18" x1="2029.83" y1="1334.69" x2="2029.83" y2="1359.83"/><line class="cls-18" x1="2012.05" y1="1334.69" x2="2012.05" y2="1359.83"/><line class="cls-18" x1="1994.27" y1="1334.69" x2="1994.27" y2="1359.83"/><line class="cls-18" x1="1976.49" y1="1334.69" x2="1976.49" y2="1359.83"/><line class="cls-18" x1="1958.7" y1="1334.69" x2="1958.7" y2="1359.83"/><line class="cls-18" x1="1814.36" y1="1334.69" x2="2078.67" y2="1334.69"/><line class="cls-18" x1="1538.54" y1="1334.69" x2="1777.13" y2="1334.69"/><line class="cls-18" x1="1545.97" y1="1334.69" x2="1545.97" y2="1359.83"/><line class="cls-18" x1="1563.75" y1="1334.69" x2="1563.75" y2="1359.83"/><line class="cls-18" x1="1581.53" y1="1334.69" x2="1581.53" y2="1359.83"/><line class="cls-18" x1="1599.31" y1="1334.69" x2="1599.31" y2="1359.83"/><line class="cls-18" x1="1617.09" y1="1334.69" x2="1617.09" y2="1359.83"/><line class="cls-18" x1="1634.88" y1="1334.69" x2="1634.88" y2="1359.83"/><line class="cls-18" x1="1652.66" y1="1334.69" x2="1652.66" y2="1359.83"/><line class="cls-18" x1="1759.35" y1="1334.69" x2="1759.35" y2="1359.83"/><line class="cls-18" x1="1741.57" y1="1334.69" x2="1741.57" y2="1359.83"/><line class="cls-18" x1="1723.78" y1="1334.69" x2="1723.78" y2="1359.83"/><line class="cls-18" x1="1706" y1="1334.69" x2="1706" y2="1359.83"/><line class="cls-18" x1="1688.22" y1="1334.69" x2="1688.22" y2="1359.83"/><line class="cls-18" x1="1670.44" y1="1334.69" x2="1670.44" y2="1359.83"/><line class="cls-18" x1="2114.54" y1="1334.69" x2="2260.41" y2="1334.69"/><line class="cls-18" x1="2121.97" y1="1334.69" x2="2121.97" y2="1359.83"/><line class="cls-18" x1="2139.75" y1="1334.69" x2="2139.75" y2="1359.83"/><line class="cls-18" x1="2157.53" y1="1334.69" x2="2157.53" y2="1359.83"/><line class="cls-18" x1="2175.31" y1="1334.69" x2="2175.31" y2="1359.83"/><line class="cls-18" x1="2193.09" y1="1334.69" x2="2193.09" y2="1359.83"/><line class="cls-18" x1="2210.88" y1="1334.69" x2="2210.88" y2="1359.83"/><line class="cls-18" x1="2228.66" y1="1334.69" x2="2228.66" y2="1359.83"/><line class="cls-18" x1="2246.44" y1="1334.69" x2="2246.44" y2="1359.83"/><path class="cls-10" d="M2086.78,1485.35h-17.55a121.55,121.55,0,0,0-43.76-66.34,123.45,123.45,0,0,0-75.66-25.68c-57.66,0-106,39.16-119.41,92h-17.55c15.32-60.64,70.82-105.55,137-105.55a141.71,141.71,0,0,1,86.79,29.45A139.4,139.4,0,0,1,2086.78,1485.35Z"/><path class="cls-33" d="M2025.47,1419c-47.49,1.9-85.34,28.43-105.12,66.34H1830.4c13.36-52.86,61.75-92,119.41-92A123.45,123.45,0,0,1,2025.47,1419Z"/><path class="cls-34" d="M1830.4,1485.35c13.36-52.86,61.75-92,119.41-92a123.51,123.51,0,0,1,75.66,25.68,121.43,121.43,0,0,1,43.75,66.34"/><path class="cls-10" d="M1797.19,1485.35H1783a124.88,124.88,0,0,0-45-68.2c-48.83,1.95-87.75,29.23-108.08,68.2H1523.26c15.31-60.64,70.82-105.55,137-105.55a141.68,141.68,0,0,1,86.78,29.45A139.47,139.47,0,0,1,1797.19,1485.35Z"/><path class="cls-33" d="M1738,1417.15c-48.83,1.95-87.75,29.23-108.08,68.2h-92.47c13.73-54.35,63.48-94.62,122.76-94.62A126.89,126.89,0,0,1,1738,1417.15Z"/><path class="cls-34" d="M1537.45,1485.35c13.74-54.35,63.49-94.61,122.77-94.61a127,127,0,0,1,77.79,26.4,124.94,124.94,0,0,1,45,68.21"/><path class="cls-10" d="M2260.41,1381.43v13.77a124.93,124.93,0,0,0-21.6-1.87c-57.66,0-106,39.16-119.41,92h-17.55c15.32-60.65,70.82-105.56,137-105.56A142.45,142.45,0,0,1,2260.41,1381.43Z"/><path class="cls-33" d="M2260.41,1395.2v38.23a123,123,0,0,0-51.06,51.93H2119.4c13.36-52.87,61.75-92,119.41-92A124.93,124.93,0,0,1,2260.41,1395.2Z"/><path class="cls-34" d="M2119.4,1485.35c13.36-52.86,61.75-92,119.41-92a125.42,125.42,0,0,1,20.93,1.75"/></g></svg>