<svg id="Слой_1" data-name="Слой 1" xmlns="http://www.w3.org/2000/svg" viewBox="0 0 2660 2000"><defs><style>.cls-1{fill:#b0dee1;}.cls-2{fill:#fff;}.cls-3{fill:#eeb200;}.cls-4{fill:#27cecd;}.cls-5{fill:#c49400;}.cls-6{fill:#379ba0;}.cls-7{fill:#285152;}.cls-8{fill:#dc5733;}.cls-9{fill:#d45131;}.cls-10{fill:#ff6500;}.cls-11{fill:#dedede;}.cls-12{fill:#c4c4c4;}.cls-13{fill:#00aab1;}</style></defs><rect id="Background" class="cls-1" x="400" y="300" width="1860" height="1400"/><path id="Clouds" class="cls-2" d="M400,1034V497.3H598.09a174.13,174.13,0,0,1,152.43,90l17.18,31.12H946.93a218.48,218.48,0,0,1,163.41,73.46l102.12,115.09h318.46a88.63,88.63,0,0,0,74.41-40.49l14.13-21.85a135.92,135.92,0,0,1,114.13-62.11h146.33l1-76.74c1.65-128.12,106-231.12,234.1-231.12h145v655.28Z"/><circle id="Sun" class="cls-3" cx="1271.49" cy="757.69" r="140.24"/><g id="Hills"><path id="Hill" class="cls-4" d="M1684.32,897.52,1242.21,1034H400V687.88H761a1944.91,1944.91,0,0,1,617.28,100.55Z"/><g id="Field"><path class="cls-5" d="M2260,728.11v404.2H1262.21V1038a4.14,4.14,0,0,0,1.19-.18Z"/><polygon class="cls-3" points="2260 879.57 2260 1132.31 2075.78 1132.31 2260 879.57"/><polygon class="cls-3" points="2102.98 776.92 1843.77 1132.31 1655.76 1132.31 1859.85 852.48 2102.98 776.92"/><polygon class="cls-5" points="1912.4 836.15 1696.41 1132.31 1695.33 1133.79 1693.3 1132.31 1691.29 1130.84 1904.4 838.63 1912.4 836.15"/><polygon class="cls-5" points="1960.95 821.06 1733.96 1132.31 1732.88 1133.79 1730.85 1132.31 1728.84 1130.84 1952.95 823.55 1960.95 821.06"/><polygon class="cls-5" points="2009.51 805.97 1771.51 1132.31 1770.43 1133.79 1768.4 1132.31 1766.39 1130.84 2001.51 808.45 2001.52 808.45 2009.51 805.97"/><polygon class="cls-5" points="2058.06 790.88 1809.06 1132.31 1807.98 1133.79 1805.95 1132.31 1803.94 1130.84 2050.06 793.37 2058.06 790.88"/><polygon class="cls-5" points="2260 926.93 2260 935.42 2115.33 1133.78 2111.29 1130.84 2260 926.93"/><polygon class="cls-5" points="2260 978.42 2260 986.9 2152.88 1133.78 2148.84 1130.84 2260 978.42"/><polygon class="cls-5" points="2260 1029.91 2260 1038.38 2190.42 1133.78 2186.39 1130.84 2260 1029.91"/><polygon class="cls-5" points="2260 1081.38 2260 1089.86 2227.97 1133.78 2223.93 1130.84 2260 1081.38"/><rect class="cls-3" x="1908.3" y="1038.49" width="239.13" height="5"/><rect class="cls-3" x="1526.09" y="1038.75" width="198.11" height="5"/><rect class="cls-3" x="1886.21" y="1068.79" width="239.13" height="5"/><rect class="cls-3" x="1504.06" y="1069.07" width="198.39" height="5"/><rect class="cls-3" x="1864.12" y="1099.08" width="241.18" height="5"/><rect class="cls-3" x="1482.02" y="1099.38" width="198.15" height="5"/><rect class="cls-3" x="1974.54" y="947.55" width="239.24" height="5"/><rect class="cls-3" x="1592.4" y="947.8" width="198.45" height="5"/><rect class="cls-3" x="1952.51" y="977.85" width="240.06" height="5"/><rect class="cls-3" x="1570.29" y="978.11" width="198.46" height="5"/><rect class="cls-3" x="1930.33" y="1008.15" width="240.22" height="5"/><rect class="cls-3" x="1548.28" y="1008.42" width="198.39" height="5"/><rect class="cls-3" x="2018.72" y="886.99" width="239.24" height="5"/><polygon class="cls-3" points="1834.7 892.15 1731.99 892.22 1748.11 887.21 1834.69 887.15 1834.7 892.15"/><rect class="cls-3" x="1996.67" y="917.28" width="239.19" height="5"/><polygon class="cls-3" points="2260 856.67 2260 861.67 2040.83 861.73 2040.82 856.73 2260 856.67"/><polygon class="cls-3" points="1812.92 922.46 1634.27 922.59 1650.39 917.58 1812.91 917.46 1812.92 922.46"/><rect class="cls-3" x="2063.72" y="826.37" width="196.28" height="5"/><rect class="cls-3" x="2084.72" y="795.7" width="175.28" height="5"/><polygon class="cls-3" points="2260 765.36 2260 770.36 2123.98 770.39 2140.08 765.38 2260 765.36"/><polygon class="cls-3" points="1609.18 930.38 1461.9 1132.32 1273.89 1132.32 1366.06 1005.94 1609.18 930.38"/><polygon class="cls-5" points="1418.61 989.61 1314.53 1132.32 1313.46 1133.79 1311.45 1132.32 1309.42 1130.84 1410.61 992.1 1418.61 989.61"/><polygon class="cls-5" points="1467.16 974.52 1352.08 1132.32 1351.01 1133.79 1349 1132.32 1346.97 1130.84 1459.17 977 1467.16 974.52"/><polygon class="cls-5" points="1515.72 959.43 1389.63 1132.32 1388.56 1133.79 1386.55 1132.32 1384.52 1130.84 1507.72 961.91 1515.72 959.43"/><polygon class="cls-5" points="1564.27 944.34 1427.17 1132.32 1426.1 1133.79 1424.09 1132.32 1422.07 1130.84 1556.27 946.82 1556.28 946.82 1564.27 944.34"/></g><path id="Hill-2" data-name="Hill" class="cls-6" d="M2260,1132.31V1700H400V792.87h54.61a72.92,72.92,0,0,1,70.81,55.53l29.28-20.75a51.33,51.33,0,0,1,78.14,40.68,51.33,51.33,0,0,1,77,50.45l864.65,213.53Z"/><g id="Haystack"><path class="cls-3" d="M1862.17,843.37,1766,873.27c1.22-51.92,20.45-105.95,44.79-112L1803,750.8a2.5,2.5,0,1,1,4-3l7.4,9.91,7.4-9.91a2.5,2.5,0,1,1,4,3l-7.55,10.11C1838.76,764.22,1855.91,802,1862.17,843.37Z"/><path class="cls-3" d="M2007.26,798.28l-95.87,29.8c1.22-52.51,20.27-115.46,44.6-122.5l-7.85-10.52a2.5,2.5,0,1,1,4-3l7.4,9.91,7.4-9.91a2.5,2.5,0,0,1,4,3l-7.59,10.17C1983.8,709.32,2000.91,756.26,2007.26,798.28Z"/></g></g><g id="Tractor"><polygon class="cls-5" points="1869.69 984.23 1869.69 1033.83 1782.46 1033.83 1818.82 984.23 1869.69 984.23"/><polygon class="cls-7" points="1873.69 980.23 1873.69 1033.83 1865.69 1033.83 1865.69 988.23 1823.05 988.23 1823.05 1033.83 1815.05 1033.83 1815.05 996.14 1787.43 1033.83 1777.5 1033.83 1816.79 980.23 1873.69 980.23"/><path class="cls-8" d="M1871.81,1038.45H1715.2v24.86h7.38a41.25,41.25,0,0,1,41.25,41.25v4.68h47.07V1090.4a52,52,0,0,1,51.95-52Z"/><path class="cls-2" d="M1766.33,1109.24h-5v-4.68a38.79,38.79,0,0,0-38.75-38.75h-7.38v-5h7.38a43.8,43.8,0,0,1,43.75,43.75Z"/><rect class="cls-2" x="1715.2" y="1033.82" width="159.99" height="5"/><path class="cls-7" d="M1906.26,1088.92a43.25,43.25,0,1,1-43.25-43.25A43.29,43.29,0,0,1,1906.26,1088.92Z"/><path class="cls-2" d="M1863,1055.67a33.25,33.25,0,1,0,33.25,33.25A33.28,33.28,0,0,0,1863,1055.67Zm0,60.64a27.39,27.39,0,1,1,27.4-27.39A27.4,27.4,0,0,1,1863,1116.31Z"/><path class="cls-7" d="M1753.45,1102.57a29.59,29.59,0,1,1-29.58-29.58A29.62,29.62,0,0,1,1753.45,1102.57Z"/><path class="cls-2" d="M1723.87,1083a19.59,19.59,0,1,0,19.58,19.58A19.61,19.61,0,0,0,1723.87,1083Zm0,33.62a14,14,0,1,1,14-14A14,14,0,0,1,1723.87,1116.61Z"/></g><path id="Bush" class="cls-7" d="M1578.16,1249.53a53.87,53.87,0,0,1-1.05,10.62H1389.69v-53.76a53.76,53.76,0,0,1,107.42-3.19,53.78,53.78,0,0,1,81.05,46.33Z"/><g id="Barn"><rect class="cls-9" x="734.67" y="1075.4" width="229.14" height="184.75"/><polygon class="cls-10" points="1389.69 1075.4 1389.69 1260.14 963.8 1260.14 963.8 1075.4 1028.04 937.31 1176.75 831.09 1325.46 937.31 1389.69 1075.4"/><rect class="cls-7" x="734.67" y="1075.4" width="229.14" height="21.59"/><rect class="cls-9" x="1159.54" y="924.89" width="55.66" height="109.13"/><path class="cls-2" d="M1219.2,1038h-63.66V920.89h63.66Zm-55.66-8h47.66V928.89h-47.66Z"/><rect class="cls-7" x="1251.59" y="979.46" width="34.92" height="54.57"/><rect class="cls-9" x="1286.51" y="979.46" width="9.56" height="54.57"/><rect class="cls-9" x="1102.97" y="979.46" width="9.56" height="54.57"/><rect class="cls-7" x="1068.05" y="979.46" width="34.92" height="54.57"/><rect class="cls-9" x="1047.42" y="1059.67" width="257.97" height="200.48"/><polygon class="cls-7" points="1179.93 1069.22 1179.93 1249.53 1172.49 1249.53 1172.49 1075.59 1065.11 1075.59 1065.11 1069.22 1179.93 1069.22"/><polygon class="cls-7" points="1166.2 1249.53 1065.1 1090.79 1065.11 1076.69 1175.2 1249.53 1166.2 1249.53"/><polygon class="cls-7" points="1305.38 1069.22 1305.38 1249.53 1297.95 1249.53 1297.95 1075.59 1190.56 1075.59 1190.56 1069.22 1305.38 1069.22"/><polygon class="cls-7" points="1190.56 1076.69 1300.65 1249.53 1291.47 1249.53 1190.56 1091.1 1190.56 1076.69"/><path class="cls-2" d="M1055.55,1059.67v200.48H1315V1059.67Zm245.09,9.56-52.67,82.7-52.67-82.7Zm-125.45,0-52.67,82.7-52.67-82.7Zm-110.08,7.46,52.67,82.69-52.67,82.69Zm4.73,172.84,52.68-82.71,52.68,82.71Zm110.1-7.44-52.68-82.71,52.68-82.71Zm10.62-165.4,52.67,82.69-52.67,82.69Zm4.73,172.84,52.68-82.71,52.68,82.71Zm110.1-7.44-52.68-82.71,52.68-82.71Z"/><path class="cls-9" d="M1261.43,884.44,1179.6,826l-6,6.18v52.28h-60.15l-14.72,10.62h161.88l68.08,48.63,61.26,131.71h10.54l-63.86-137.27Zm-77.25,0V840.5l61.52,43.94Z"/><polygon class="cls-11" points="698.25 1075.4 764.61 932 911.2 831.09 1176.75 831.09 1030.16 932 963.8 1075.4 698.25 1075.4"/><polygon class="cls-12" points="1113.41 845.28 992 932 985.12 932 1106.53 845.28 1113.41 845.28"/><polygon class="cls-12" points="1082.17 845.28 960.77 932 953.89 932 1075.3 845.28 1082.17 845.28"/><polygon class="cls-12" points="1050.94 845.28 929.53 932 922.66 932 1044.07 845.28 1050.94 845.28"/><polygon class="cls-12" points="1019.71 845.28 898.3 932 891.43 932 1012.83 845.28 1019.71 845.28"/><polygon class="cls-12" points="988.48 845.28 867.07 932 860.19 932 981.6 845.28 988.48 845.28"/><polygon class="cls-12" points="957.25 845.28 835.84 932 828.96 932 950.37 845.28 957.25 845.28"/><polygon class="cls-12" points="926.01 845.28 804.6 932 797.73 932 919.14 845.28 926.01 845.28"/><polygon class="cls-12" points="1176.75 831.1 1156.9 845.28 890.59 845.28 911.2 831.1 1176.75 831.1"/><polygon class="cls-12" points="1030.16 932 963.8 1075.4 698.25 1075.4 764.61 932 1030.16 932"/><rect class="cls-7" x="859.96" y="1122.8" width="58.26" height="15.83"/><rect class="cls-7" x="772.03" y="1122.8" width="58.26" height="15.83"/><path class="cls-2" d="M1345.09,929.63,1191.31,821.24v-7a5,5,0,0,0-10,0H921.82a5.31,5.31,0,0,0-10.62,0v16.8h256.07L1029,931.75,962.14,1075.4h14.41l64.24-138.08,70-51.07h152.15a3.43,3.43,0,0,0,.56,0L1335,937.32l64.23,138.08h13.65Zm-163.78-94.88v34l-20-19.32Zm-56.85,41.5,28.62-20.9.34.36,21.31,20.54Zm66.85-41.58,20.28,14.49-20.28,19.54Zm6.58,41.58,21.31-20.54a6.44,6.44,0,0,0,.6-.69l29.72,21.23Z"/></g><g id="Grass"><path class="cls-3" d="M400,1260.14H1579.92a897.54,897.54,0,0,1,203.62,23.41L2260,1401v299H400Z"/><path class="cls-5" d="M1577.11,1260.15l-43.46,11.55a230.54,230.54,0,0,1-59.19,7.72h-44.7a193.08,193.08,0,0,1-78.65,16.75H1300.8L1020,1409.92H400V1260.15Z"/><rect class="cls-3" x="1002.9" y="1217.26" width="4" height="42.89"/><rect class="cls-3" x="989.59" y="1233.27" width="4" height="26.87"/></g><g id="Sheep"><polygon class="cls-5" points="816.9 1459.67 939.05 1409.72 967.1 1409.72 400 1641.72 400 1622.17 804.63 1456.7 816.9 1459.67"/><polygon class="cls-5" points="731.22 1460.53 400 1596 400 1584.4 719.11 1454.01 731.22 1460.53"/><rect class="cls-7" x="939.1" y="1383.31" width="10" height="26.41"/><rect class="cls-7" x="966.71" y="1383.31" width="10" height="26.41"/><rect class="cls-7" x="1009.57" y="1383.31" width="10" height="26.41"/><ellipse class="cls-2" cx="982.03" cy="1337.22" rx="69.15" ry="59.7"/><path class="cls-7" d="M985.15,1341.41c-1.94,1.94-7.48-.36-13.09-5.2a31.72,31.72,0,0,1-1.68,5.2c-4.25,10.1-12.72,16.18-18.91,13.58s-7.76-12.91-3.51-23c3.32-7.87,9.19-13.31,14.55-14.08,2.64-1.41,9.14,1.94,15.11,7.91C984,1332.19,987.38,1339.18,985.15,1341.41Z"/><rect class="cls-7" x="719.11" y="1426.93" width="12" height="33.84"/><rect class="cls-7" x="804.63" y="1426.93" width="12" height="33.84"/><rect class="cls-7" x="830.49" y="1426.93" width="12" height="33.84"/><path class="cls-2" d="M874.65,1373.57c0,41.75-43.79,72.4-97.81,72.4S679,1415.32,679,1373.57s43.8-75.59,97.81-75.59S874.65,1331.82,874.65,1373.57Z"/><path class="cls-7" d="M842.68,1386c-7.68,3.23-18.2-4.32-23.48-16.86a39.53,39.53,0,0,1-2.09-6.44c-7,6-13.84,8.85-16.25,6.44-2.77-2.77,1.42-11.45,9.36-19.39,7.38-7.37,15.4-11.51,18.71-9.82,6.67.94,14,7.69,18.11,17.49C852.32,1369.93,850.37,1382.73,842.68,1386Z"/></g><g id="Windmill"><path class="cls-7" d="M651,819.46l41.16,440.46a2.51,2.51,0,0,1-2.26,2.72h-.24a2.5,2.5,0,0,1-2.48-2.27l-37.5-401.27v401a2.5,2.5,0,0,1-5,0V859.1l-37.5,401.28a2.5,2.5,0,0,1-2.49,2.27h-.23a2.5,2.5,0,0,1-2.26-2.72l41.16-440.46Z"/><path class="cls-5" d="M661.58,817.63a53.76,53.76,0,0,1-28.84,0l9-36.21a16.29,16.29,0,0,0,10.85,0Z"/><path class="cls-5" d="M661.58,714.19l-9,36.21a16.29,16.29,0,0,0-10.85,0l-9-36.21a53.76,53.76,0,0,1,28.84,0Z"/><path class="cls-5" d="M631.65,771.33l-36.21,9a53.77,53.77,0,0,1,0-28.77l36,9.63a16.38,16.38,0,0,0-.69,4.72A16,16,0,0,0,631.65,771.33Z"/><path class="cls-5" d="M700.85,765.91a53.58,53.58,0,0,1-2,14.42l-36.21-9a16.45,16.45,0,0,0,.23-10.14l36-9.63A53.8,53.8,0,0,1,700.85,765.91Z"/><path class="cls-5" d="M640,751.09a16.62,16.62,0,0,0-7.69,7.69l-32-19.24a53.93,53.93,0,0,1,20.4-20.4Z"/><path class="cls-5" d="M693.93,792.29a53.71,53.71,0,0,1-20.39,20.38l-19.23-31.95a16.67,16.67,0,0,0,7.67-7.67Z"/><path class="cls-5" d="M640.05,780.74l-19.23,32a53.84,53.84,0,0,1-20.38-20.33l32.26-18.65A16.52,16.52,0,0,0,640.05,780.74Z"/><path class="cls-5" d="M694,739.56,662,758.8a16.63,16.63,0,0,0-7-7.35l18.64-32.26A53.81,53.81,0,0,1,694,739.56Z"/><path class="cls-7" d="M647,776.22a10.52,10.52,0,1,1,10.52-10.51A10.52,10.52,0,0,1,647,776.22Zm0-16a5.52,5.52,0,1,0,5.52,5.52A5.53,5.53,0,0,0,647,760.19Z"/></g><path id="Fence" class="cls-2" d="M918.22,1193.17v-10H400v10H550.46v26H400v10H550.46v31h10v-31h171v31h10v-31H918.22v-10H741.46v-26Zm-186.76,26h-171v-26h171Z"/><g id="Birds"><path class="cls-2" d="M1831.22,487.38h-18a2.5,2.5,0,0,1,0-5H1826l-6.2-7.58a2.5,2.5,0,1,1,3.87-3.16l9.53,11.66a2.48,2.48,0,0,1,.33,2.65A2.52,2.52,0,0,1,1831.22,487.38Z"/><path class="cls-2" d="M1885.39,487.38h-18a2.5,2.5,0,0,1,0-5h12.72l-6.2-7.58a2.5,2.5,0,1,1,3.87-3.16l9.54,11.66a2.5,2.5,0,0,1-1.94,4.08Z"/><path class="cls-1" d="M1956.56,488.44h-18a2.5,2.5,0,0,1,0-5h12.73l-6.2-7.58a2.5,2.5,0,0,1,3.87-3.16l9.54,11.66a2.5,2.5,0,0,1-1.94,4.08Z"/><path class="cls-2" d="M1920.44,442.77h-15.87a2.5,2.5,0,0,1,0-5h10.6l-6.2-7.58a2.5,2.5,0,0,1,3.87-3.17l9.54,11.66a2.51,2.51,0,0,1-1.94,4.09Z"/><path class="cls-7" d="M1215.73,706.53h0a2.47,2.47,0,0,1-2-1l-9.4-12.59a2.5,2.5,0,0,1,4-3l7.4,9.91,7.4-9.91a2.5,2.5,0,0,1,4,3l-9.41,12.59A2.47,2.47,0,0,1,1215.73,706.53Z"/><path class="cls-2" d="M1091.29,601.61a2.5,2.5,0,0,1-2-1l-9.4-12.59a2.5,2.5,0,0,1,4-3l7.4,9.91,7.4-9.91a2.5,2.5,0,0,1,4,3l-9.4,12.59A2.5,2.5,0,0,1,1091.29,601.61Z"/></g><g id="Pond"><ellipse class="cls-7" cx="1589.17" cy="1555.1" rx="437.97" ry="72.5"/><path class="cls-5" d="M2027.14,1522.43v32.67c0-40-196.08-72.49-438-72.49-241.21,0-436.88,32.27-437.95,72.16,0-.16,0-.32,0-.48,0-57.49,196.08-136,438-136S2027.14,1464.93,2027.14,1522.43Z"/><path class="cls-7" d="M1671.67,1281.92a2.5,2.5,0,0,1-2.5-2.5v-7.35a2.5,2.5,0,1,1,5,0v7.35A2.5,2.5,0,0,1,1671.67,1281.92Z"/><path class="cls-7" d="M1671.67,1487.87a2.5,2.5,0,0,1-2.5-2.5V1368.19a2.5,2.5,0,0,1,5,0v117.18A2.5,2.5,0,0,1,1671.67,1487.87Z"/><rect class="cls-8" x="1664.49" y="1291.62" width="14.35" height="64.34" rx="6.76"/><path class="cls-7" d="M1644.32,1159.22a2.49,2.49,0,0,1-2.5-2.5v-7.34a2.5,2.5,0,0,1,5,0v7.34A2.5,2.5,0,0,1,1644.32,1159.22Z"/><path class="cls-7" d="M1644.32,1485.78a2.49,2.49,0,0,1-2.5-2.5V1245.5a2.5,2.5,0,0,1,5,0v237.78A2.5,2.5,0,0,1,1644.32,1485.78Z"/><rect class="cls-8" x="1637.14" y="1168.93" width="14.35" height="64.34" rx="6.76"/><path class="cls-3" d="M1295.56,1618.4a2.49,2.49,0,0,1-2.5-2.5v-51.06a2.5,2.5,0,1,1,5,0v51.06A2.49,2.49,0,0,1,1295.56,1618.4Z"/><path class="cls-3" d="M1311.44,1618.4a2.49,2.49,0,0,1-2.5-2.5v-32.27a2.5,2.5,0,0,1,5,0v32.27A2.49,2.49,0,0,1,1311.44,1618.4Z"/><path class="cls-3" d="M1790.84,1630.1a2.5,2.5,0,0,1-2.5-2.5v-95.82a2.5,2.5,0,0,1,5,0v95.82A2.5,2.5,0,0,1,1790.84,1630.1Z"/><path class="cls-3" d="M1806.05,1630.1a2.5,2.5,0,0,1-2.5-2.5v-32.93a2.5,2.5,0,0,1,5,0v32.93A2.5,2.5,0,0,1,1806.05,1630.1Z"/><path class="cls-3" d="M1704.31,1638.14a2.5,2.5,0,0,1-2.5-2.5v-52.77a2.5,2.5,0,0,1,5,0v52.77A2.5,2.5,0,0,1,1704.31,1638.14Z"/><path class="cls-5" d="M1461.83,1534.3c0,11.86-13.5,21.48-30.14,21.48s-30.14-9.62-30.14-21.48c0-11.61,13-21.08,29.11-21.46v20.4l17.1-17.1C1456.21,1519.93,1461.83,1526.65,1461.83,1534.3Z"/><path class="cls-5" d="M1917.36,1562.54c0,4.71-3.94,8.93-10.17,11.77l-19-11.77v15.54c-16.14,0-29.22-7-29.22-15.54S1872,1547,1888.14,1547,1917.36,1554,1917.36,1562.54Z"/><rect class="cls-1" x="1796.72" y="1417.97" width="463.28" height="29.03"/><rect class="cls-2" x="1550.94" y="1417.97" width="245.77" height="29.02"/><rect class="cls-2" x="1580.28" y="1447" width="32.95" height="67.14"/><polygon class="cls-1" points="1580.28 1447 1613.23 1447 1613.23 1467.32 1580.28 1460.91 1580.28 1447"/><rect class="cls-13" x="1570.83" y="1510.57" width="54.29" height="5"/><rect class="cls-2" x="1839.16" y="1447" width="32.95" height="67.14"/><polygon class="cls-1" points="1839.16 1447 1872.11 1447 1872.11 1472.63 1839.16 1466.22 1839.16 1447"/><rect class="cls-13" x="1831.78" y="1511.63" width="48.28" height="5"/><rect class="cls-2" x="2170.16" y="1447" width="32.95" height="101.02"/><polygon class="cls-1" points="2170.16 1447 2203.11 1447 2203.11 1472.63 2170.16 1466.22 2170.16 1447"/><polygon class="cls-5" points="2260 1570.9 2260 1583.92 2170.17 1548.01 2202.75 1548.01 2260 1570.9"/><path class="cls-7" d="M1192.16,1361.18a2.5,2.5,0,0,1-2.5-2.5v-7.35a2.5,2.5,0,0,1,5,0v7.35A2.5,2.5,0,0,1,1192.16,1361.18Z"/><path class="cls-7" d="M1192.16,1529.12a2.5,2.5,0,0,1-2.5-2.5v-79.17a2.5,2.5,0,0,1,5,0v79.17A2.5,2.5,0,0,1,1192.16,1529.12Z"/><rect class="cls-8" x="1184.99" y="1370.88" width="14.35" height="64.34" rx="6.76"/><path class="cls-7" d="M1153.33,1557.6a2.49,2.49,0,0,1-2.5-2.5v-78a2.5,2.5,0,1,1,5,0v78A2.5,2.5,0,0,1,1153.33,1557.6Z"/><path class="cls-7" d="M1975.17,1059.9a2.5,2.5,0,0,1-2.5-2.5v-7.35a2.5,2.5,0,0,1,5,0v7.35A2.5,2.5,0,0,1,1975.17,1059.9Z"/><path class="cls-7" d="M1975.17,1582.3a2.5,2.5,0,0,1-2.5-2.5V1142.5a2.5,2.5,0,0,1,5,0v437.3A2.5,2.5,0,0,1,1975.17,1582.3Z"/><rect class="cls-8" x="1968" y="1067.81" width="14.35" height="64.34" rx="6.76"/><path class="cls-7" d="M2024.23,1151.28a2.49,2.49,0,0,1-2.5-2.5v-7.35a2.5,2.5,0,1,1,5,0v7.35A2.5,2.5,0,0,1,2024.23,1151.28Z"/><path class="cls-7" d="M2024.23,1560.51a2.49,2.49,0,0,1-2.5-2.5V1237.56a2.5,2.5,0,0,1,5,0V1558A2.49,2.49,0,0,1,2024.23,1560.51Z"/><rect class="cls-8" x="2017.05" y="1160.99" width="14.35" height="64.34" rx="6.76"/></g></svg>