<svg id="Слой_1" data-name="Слой 1" xmlns="http://www.w3.org/2000/svg" xmlns:xlink="http://www.w3.org/1999/xlink" viewBox="0 0 2660 2000"><defs><style>.cls-1{fill:url(#Безымянный_градиент_156);}.cls-2{fill:url(#Безымянный_градиент_34);}.cls-3{fill:#fff;}.cls-4{fill:#f29b9f;}.cls-5{fill:#f5b9b3;}.cls-6{fill:#f7c5c1;}.cls-7{fill:#ffdfda;}.cls-8{fill:#ffcccb;}.cls-9{fill:#875e00;}.cls-10{fill:#9c7f00;}.cls-11{fill:#f78f00;}.cls-12{fill:#f88b90;}.cls-13{fill:#41b6d3;}.cls-14{fill:#f1e5e4;}.cls-15{fill:#008187;}.cls-16{fill:#00aaa3;}.cls-17{fill:#005050;}.cls-18{fill:#007373;}</style><linearGradient id="Безымянный_градиент_156" x1="1327.88" y1="1174.43" x2="1336.45" y2="467.57" gradientUnits="userSpaceOnUse"><stop offset="0.07" stop-color="#f7c5c1"/><stop offset="0.27" stop-color="#f6cfcd"/><stop offset="0.71" stop-color="#f5e1e1"/><stop offset="1" stop-color="#f4e7e8"/></linearGradient><linearGradient id="Безымянный_градиент_34" x1="1330" y1="1220.63" x2="1330" y2="1738.08" gradientUnits="userSpaceOnUse"><stop offset="0" stop-color="#008187"/><stop offset="0.4" stop-color="#00a099"/><stop offset="0.76" stop-color="#00b4a6"/><stop offset="1" stop-color="#0ba"/></linearGradient></defs><rect id="Background" class="cls-1" x="400" y="300" width="1860" height="1400"/><g id="Ocean"><rect class="cls-2" x="400" y="1222.05" width="1860" height="477.95"/><rect class="cls-3" x="1813.99" y="1514.86" width="69.45" height="4"/><rect class="cls-3" x="1894.48" y="1514.86" width="4.47" height="4"/><rect class="cls-3" x="1847.1" y="1503.74" width="107.52" height="4"/><rect class="cls-3" x="1774.21" y="1503.74" width="50.48" height="4"/></g><g id="Sun_Clouds" data-name="Sun &amp; Clouds"><path class="cls-3" d="M2260,746.84v62.85H1777.16s38.12-53.33,130.13-42.06c131.53,16.11,119.88-94.55,201.5-94.55,54.57-.2,68.5,31.29,116,62.23C2243.52,747.49,2260,746.84,2260,746.84Z"/><circle class="cls-3" cx="1777.16" cy="550.49" r="125.22"/><path class="cls-3" d="M1271.6,495.89H504.1s9.39-64.19,101.6-54.73c53.85,5.52,44.86-67.32,127.6-67.32S819.38,457,878.83,457s49.79-22.63,100.79-22.17c49.49.46,61.65,41.15,150.76,55.84a161.77,161.77,0,0,0,89.33-10.8h0A41.19,41.19,0,0,1,1271.6,495.89Z"/><path class="cls-4" d="M656.53,1012.31a2.71,2.71,0,0,1-1.9-.78l-8.94-8.95a2.67,2.67,0,0,1,3.78-3.78l7.06,7.06,7.05-7.06a2.67,2.67,0,0,1,3.78,3.78l-8.94,8.95A2.71,2.71,0,0,1,656.53,1012.31Z"/><path class="cls-3" d="M1965.16,679.8a7.28,7.28,0,0,1-5.16-2.13l-5.76-5.76a2.8,2.8,0,1,1,4-3.95l5.75,5.75a1.72,1.72,0,0,0,2.43,0l5.75-5.75a2.79,2.79,0,1,1,3.95,3.95l-5.75,5.76A7.3,7.3,0,0,1,1965.16,679.8Z"/><path class="cls-5" d="M1852.51,574.66a7.13,7.13,0,0,1-5.08-2.11l-5.75-5.75a2.67,2.67,0,0,1,3.78-3.78l5.75,5.75a1.83,1.83,0,0,0,2.6,0l5.76-5.75a2.67,2.67,0,1,1,3.78,3.78l-5.76,5.75A7.12,7.12,0,0,1,1852.51,574.66Z"/></g><g id="Building"><rect class="cls-6" x="745.06" y="737.54" width="225.76" height="484.5"/><rect class="cls-7" x="880.08" y="737.54" width="90.74" height="484.5"/><rect class="cls-3" x="969.21" y="737.54" width="3.21" height="484.5"/><polygon class="cls-6" points="880.04 724.77 880.04 738.68 876.83 738.68 876.83 727.98 866.92 727.98 866.92 737.84 863.71 737.84 863.71 727.98 852.17 727.98 852.17 737.84 848.96 737.84 848.96 727.98 837.41 727.98 837.41 737.84 834.2 737.84 834.2 727.98 822.65 727.98 822.65 737.84 819.44 737.84 819.44 727.98 807.89 727.98 807.89 737.84 804.68 737.84 804.68 727.98 793.13 727.98 793.13 737.84 789.93 737.84 789.93 727.98 778.38 727.98 778.38 737.84 775.17 737.84 775.17 727.98 763.62 727.98 763.62 737.84 760.41 737.84 760.41 727.98 748.33 727.98 748.33 737.84 745.12 737.84 745.12 724.77 880.04 724.77"/><rect class="cls-8" x="745.06" y="772.73" width="135.02" height="3.01"/><rect class="cls-3" x="880.08" y="772.73" width="90.74" height="3.01"/><rect class="cls-8" x="745.06" y="800.01" width="135.02" height="3.01"/><rect class="cls-3" x="880.08" y="800.01" width="90.74" height="3.01"/><rect class="cls-8" x="745.06" y="827.3" width="135.02" height="3.01"/><rect class="cls-3" x="880.08" y="827.3" width="90.74" height="3.01"/><rect class="cls-8" x="745.06" y="854.58" width="135.02" height="3.01"/><rect class="cls-3" x="880.08" y="854.58" width="90.74" height="3.01"/><rect class="cls-8" x="745.06" y="881.87" width="135.02" height="3.01"/><rect class="cls-3" x="880.08" y="881.87" width="90.74" height="3.01"/><rect class="cls-8" x="745.06" y="909.15" width="135.02" height="3.01"/><rect class="cls-3" x="880.08" y="909.15" width="90.74" height="3.01"/><rect class="cls-8" x="745.06" y="936.44" width="135.02" height="3.01"/><rect class="cls-3" x="880.08" y="936.44" width="90.74" height="3.01"/><rect class="cls-8" x="745.06" y="963.72" width="135.02" height="3.01"/><rect class="cls-3" x="880.08" y="963.72" width="90.74" height="3.01"/><rect class="cls-8" x="745.06" y="991.01" width="135.02" height="3.01"/><rect class="cls-3" x="880.08" y="991.01" width="90.74" height="3.01"/><rect class="cls-8" x="745.06" y="1018.29" width="135.02" height="3.01"/><rect class="cls-3" x="880.08" y="1018.29" width="90.74" height="3.01"/><rect class="cls-8" x="745.06" y="1045.58" width="135.02" height="3.01"/><rect class="cls-3" x="880.08" y="1045.58" width="90.74" height="3.01"/><rect class="cls-8" x="745.06" y="1072.86" width="135.02" height="3.01"/><rect class="cls-3" x="880.08" y="1072.86" width="90.74" height="3.01"/><rect class="cls-8" x="745.06" y="1100.15" width="135.02" height="3.01"/><rect class="cls-3" x="880.08" y="1100.15" width="90.74" height="3.01"/><rect class="cls-8" x="745.06" y="1127.43" width="135.02" height="3.01"/><rect class="cls-8" x="745.06" y="1155.15" width="135.02" height="3.01"/><rect class="cls-8" x="745.06" y="1182.43" width="135.02" height="3.01"/><rect class="cls-3" x="880.08" y="1127.43" width="90.74" height="3.01"/><rect class="cls-3" x="880.08" y="1155.43" width="90.74" height="3.01"/><rect class="cls-3" x="880.08" y="1182.43" width="90.74" height="3.01"/><polygon class="cls-3" points="972.42 724.77 972.42 739.75 969.21 739.75 969.21 727.98 955.47 727.98 955.47 737.47 952.26 737.47 952.26 727.98 940.71 727.98 940.71 737.47 937.5 737.47 937.5 727.98 925.96 727.98 925.96 737.47 922.75 737.47 922.75 727.98 911.2 727.98 911.2 737.47 907.99 737.47 907.99 727.98 896.44 727.98 896.44 737.47 893.23 737.47 893.23 727.98 880.08 727.98 880.08 724.77 972.42 724.77"/><rect class="cls-6" x="984.71" y="523.99" width="134" height="697.56"/><rect class="cls-7" x="1118.71" y="523.99" width="153.39" height="697.56"/><polygon class="cls-3" points="1273.78 1221.55 1270.42 1221.55 1270.42 525.67 1118.7 525.67 1118.7 522.31 1273.78 522.31 1273.78 1221.55"/><rect class="cls-6" x="1117.93" y="553.44" width="136.13" height="24.93"/><rect class="cls-6" x="1117.93" y="603.71" width="136.13" height="24.93"/><rect class="cls-6" x="1117.93" y="653.98" width="136.13" height="24.93"/><rect class="cls-6" x="1117.93" y="704.26" width="136.13" height="24.93"/><rect class="cls-6" x="1117.93" y="754.53" width="136.13" height="24.93"/><rect class="cls-6" x="1117.93" y="804.8" width="136.13" height="24.93"/><rect class="cls-6" x="1117.93" y="855.08" width="136.13" height="24.93"/><rect class="cls-6" x="1117.93" y="905.35" width="136.13" height="24.93"/><polygon class="cls-5" points="1255.67 578.37 1252.46 578.37 1252.46 555.04 1007.78 555.04 1007.78 551.83 1255.67 551.83 1255.67 578.37"/><polygon class="cls-5" points="1255.67 628.64 1252.46 628.64 1252.46 605.32 1007.78 605.32 1007.78 602.11 1255.67 602.11 1255.67 628.64"/><polygon class="cls-5" points="1255.67 678.91 1252.46 678.91 1252.46 655.59 1007.78 655.59 1007.78 652.38 1255.67 652.38 1255.67 678.91"/><polygon class="cls-5" points="1255.67 729.19 1252.46 729.19 1252.46 705.86 1007.78 705.86 1007.78 702.65 1255.67 702.65 1255.67 729.19"/><polygon class="cls-5" points="1255.67 779.46 1252.46 779.46 1252.46 756.13 1007.78 756.13 1007.78 752.92 1255.67 752.92 1255.67 779.46"/><polygon class="cls-5" points="1255.67 829.73 1252.46 829.73 1252.46 806.41 1007.78 806.41 1007.78 803.2 1255.67 803.2 1255.67 829.73"/><polygon class="cls-5" points="1255.67 880 1252.46 880 1252.46 856.68 1007.78 856.68 1007.78 853.47 1255.67 853.47 1255.67 880"/><polygon class="cls-5" points="1255.67 930.28 1252.46 930.28 1252.46 906.95 1007.78 906.95 1007.78 903.74 1255.67 903.74 1255.67 930.28"/><rect class="cls-6" x="1117.93" y="955.49" width="136.13" height="24.93"/><rect class="cls-6" x="1117.93" y="1005.76" width="136.13" height="24.93"/><rect class="cls-6" x="1117.93" y="1056.04" width="136.13" height="24.93"/><rect class="cls-6" x="1117.93" y="1106.31" width="136.13" height="24.93"/><polygon class="cls-5" points="1255.67 980.42 1252.46 980.42 1252.46 957.1 1007.78 957.1 1007.78 953.89 1255.67 953.89 1255.67 980.42"/><polygon class="cls-5" points="1255.67 1030.69 1252.46 1030.69 1252.46 1007.37 1007.78 1007.37 1007.78 1004.16 1255.67 1004.16 1255.67 1030.69"/><polygon class="cls-5" points="1255.67 1080.97 1252.46 1080.97 1252.46 1057.64 1007.78 1057.64 1007.78 1054.43 1255.67 1054.43 1255.67 1080.97"/><polygon class="cls-5" points="1255.67 1131.24 1252.46 1131.24 1252.46 1107.91 1007.78 1107.91 1007.78 1104.7 1255.67 1104.7 1255.67 1131.24"/><rect class="cls-6" x="1117.93" y="1156.31" width="136.13" height="24.93"/><polygon class="cls-5" points="1255.67 1181.24 1252.46 1181.24 1252.46 1157.91 1007.78 1157.91 1007.78 1154.7 1255.67 1154.7 1255.67 1181.24"/><rect class="cls-6" x="1369.94" y="623.16" width="152.6" height="598.39"/><polygon class="cls-7" points="1705.04 1222.05 1522.54 1222.05 1522.54 623.16 1705.04 774.4 1705.04 1222.05"/><polygon class="cls-3" points="1706.72 1222.05 1703.36 1222.05 1703.36 775.18 1521.47 624.45 1523.61 621.87 1706.72 773.61 1706.72 1222.05"/><polygon class="cls-8" points="1558.79 700.74 1558.79 1187.92 1542.02 1187.92 1542.02 686.85 1558.79 700.74"/><polygon class="cls-8" points="1590.48 727 1590.48 1187.92 1573.71 1187.92 1573.71 713.11 1590.48 727"/><polygon class="cls-8" points="1622.18 753.27 1622.18 1187.92 1605.41 1187.92 1605.41 739.37 1622.18 753.27"/><polygon class="cls-8" points="1653.86 779.53 1653.86 1187.92 1637.09 1187.92 1637.09 765.63 1653.86 779.53"/><polygon class="cls-8" points="1685.56 805.79 1685.56 1187.92 1668.79 1187.92 1668.79 791.89 1685.56 805.79"/><path class="cls-5" d="M1558.79,1189.6a1.68,1.68,0,0,1-1.68-1.68V701.53l-14.62-12.12a1.68,1.68,0,1,1,2.14-2.58L1560.46,700v488A1.68,1.68,0,0,1,1558.79,1189.6Z"/><path class="cls-5" d="M1590.48,1189.6a1.68,1.68,0,0,1-1.67-1.68V727.79l-14.56-12.06a1.68,1.68,0,1,1,2.14-2.58l15.77,13.07v461.7A1.68,1.68,0,0,1,1590.48,1189.6Z"/><path class="cls-5" d="M1622.18,1189.6a1.68,1.68,0,0,1-1.68-1.68V754.05l-14.77-12.24a1.68,1.68,0,1,1,2.14-2.58l16,13.25v435.44A1.68,1.68,0,0,1,1622.18,1189.6Z"/><path class="cls-5" d="M1653.86,1189.6a1.68,1.68,0,0,1-1.67-1.68V780.32l-14.62-12.11a1.68,1.68,0,0,1,2.14-2.59l15.83,13.12v409.18A1.68,1.68,0,0,1,1653.86,1189.6Z"/><path class="cls-5" d="M1685.56,1189.6a1.68,1.68,0,0,1-1.68-1.68V806.58l-14.77-12.24a1.68,1.68,0,1,1,2.15-2.58l16,13.24v382.92A1.68,1.68,0,0,1,1685.56,1189.6Z"/><rect class="cls-7" x="1293.55" y="719.21" width="205.81" height="502.83"/><rect class="cls-3" x="1334.44" y="674.76" width="122.52" height="30.61"/><rect class="cls-5" x="1331.65" y="674.76" width="5.59" height="30.61"/><rect class="cls-3" x="1354.81" y="705.37" width="3.35" height="13.84"/><rect class="cls-3" x="1436.42" y="705.37" width="3.35" height="13.84"/><path class="cls-5" d="M1839.84,1221.54h-25.36V743.06h25.36Zm-22.36-3h19.36V746.06h-19.36Z"/><path class="cls-5" d="M1838.26,768.34a1.53,1.53,0,0,1-1.06-.44l-22.28-22.28a1.51,1.51,0,0,1,0-2.12,1.49,1.49,0,0,1,2.12,0l22.28,22.28a1.5,1.5,0,0,1-1.06,2.56Z"/><path class="cls-5" d="M1816,768.34a1.53,1.53,0,0,1-1.06-.44,1.51,1.51,0,0,1,0-2.12l22.28-22.28a1.5,1.5,0,1,1,2.12,2.12L1817,767.9A1.49,1.49,0,0,1,1816,768.34Z"/><path class="cls-5" d="M1838.26,790.62a1.53,1.53,0,0,1-1.06-.44l-22.28-22.28a1.51,1.51,0,0,1,0-2.12,1.49,1.49,0,0,1,2.12,0l22.28,22.28a1.5,1.5,0,0,1-1.06,2.56Z"/><path class="cls-5" d="M1816,790.62a1.53,1.53,0,0,1-1.06-.44,1.51,1.51,0,0,1,0-2.12l22.28-22.28a1.5,1.5,0,1,1,2.12,2.12L1817,790.18A1.49,1.49,0,0,1,1816,790.62Z"/><path class="cls-5" d="M1838.26,812.9a1.53,1.53,0,0,1-1.06-.44l-22.28-22.28a1.51,1.51,0,0,1,0-2.12,1.49,1.49,0,0,1,2.12,0l22.28,22.28a1.5,1.5,0,0,1-1.06,2.56Z"/><path class="cls-5" d="M1816,812.9a1.53,1.53,0,0,1-1.06-.44,1.51,1.51,0,0,1,0-2.12l22.28-22.28a1.5,1.5,0,1,1,2.12,2.12L1817,812.46A1.49,1.49,0,0,1,1816,812.9Z"/><path class="cls-5" d="M1838.26,835.18a1.53,1.53,0,0,1-1.06-.44l-22.28-22.28a1.51,1.51,0,0,1,0-2.12,1.49,1.49,0,0,1,2.12,0l22.28,22.28a1.5,1.5,0,0,1-1.06,2.56Z"/><path class="cls-5" d="M1816,835.18a1.53,1.53,0,0,1-1.06-.44,1.51,1.51,0,0,1,0-2.12l22.28-22.28a1.5,1.5,0,0,1,2.12,2.12L1817,834.74A1.49,1.49,0,0,1,1816,835.18Z"/><path class="cls-5" d="M1838.26,857.46a1.53,1.53,0,0,1-1.06-.44l-22.28-22.28a1.51,1.51,0,0,1,0-2.12,1.49,1.49,0,0,1,2.12,0l22.28,22.28a1.5,1.5,0,0,1-1.06,2.56Z"/><path class="cls-5" d="M1816,857.46a1.53,1.53,0,0,1-1.06-.44,1.51,1.51,0,0,1,0-2.12l22.28-22.28a1.5,1.5,0,0,1,2.12,2.12L1817,857A1.49,1.49,0,0,1,1816,857.46Z"/><path class="cls-5" d="M1838.26,879.74a1.53,1.53,0,0,1-1.06-.44L1814.92,857a1.51,1.51,0,0,1,0-2.12,1.49,1.49,0,0,1,2.12,0l22.28,22.28a1.5,1.5,0,0,1-1.06,2.56Z"/><path class="cls-5" d="M1816,879.74a1.53,1.53,0,0,1-1.06-.44,1.51,1.51,0,0,1,0-2.12l22.28-22.28a1.5,1.5,0,0,1,2.12,2.12L1817,879.3A1.49,1.49,0,0,1,1816,879.74Z"/><path class="cls-5" d="M1838.26,902a1.53,1.53,0,0,1-1.06-.44l-22.28-22.28a1.51,1.51,0,0,1,0-2.12,1.49,1.49,0,0,1,2.12,0l22.28,22.28a1.5,1.5,0,0,1-1.06,2.56Z"/><path class="cls-5" d="M1816,902a1.53,1.53,0,0,1-1.06-.44,1.51,1.51,0,0,1,0-2.12l22.28-22.28a1.5,1.5,0,0,1,2.12,2.12L1817,901.58A1.49,1.49,0,0,1,1816,902Z"/><path class="cls-5" d="M1838.26,924.3a1.48,1.48,0,0,1-1.06-.44l-22.28-22.28a1.51,1.51,0,0,1,0-2.12,1.49,1.49,0,0,1,2.12,0l22.28,22.28a1.49,1.49,0,0,1,0,2.12A1.45,1.45,0,0,1,1838.26,924.3Z"/><path class="cls-5" d="M1816,924.3a1.48,1.48,0,0,1-1.06-.44,1.51,1.51,0,0,1,0-2.12l22.28-22.28a1.5,1.5,0,1,1,2.12,2.12L1817,923.86A1.45,1.45,0,0,1,1816,924.3Z"/><path class="cls-5" d="M1838.26,946.58a1.48,1.48,0,0,1-1.06-.44l-22.28-22.28a1.5,1.5,0,1,1,2.12-2.12L1839.32,944a1.49,1.49,0,0,1,0,2.12A1.45,1.45,0,0,1,1838.26,946.58Z"/><path class="cls-5" d="M1816,946.58a1.48,1.48,0,0,1-1.06-.44,1.51,1.51,0,0,1,0-2.12l22.28-22.28a1.51,1.51,0,0,1,2.12,0,1.49,1.49,0,0,1,0,2.12L1817,946.14A1.45,1.45,0,0,1,1816,946.58Z"/><path class="cls-5" d="M1838.26,968.86a1.48,1.48,0,0,1-1.06-.44l-22.28-22.28A1.5,1.5,0,1,1,1817,944l22.28,22.28a1.49,1.49,0,0,1,0,2.12A1.45,1.45,0,0,1,1838.26,968.86Z"/><path class="cls-5" d="M1816,968.86a1.48,1.48,0,0,1-1.06-.44,1.51,1.51,0,0,1,0-2.12L1837.2,944a1.51,1.51,0,0,1,2.12,0,1.49,1.49,0,0,1,0,2.12L1817,968.42A1.45,1.45,0,0,1,1816,968.86Z"/><path class="cls-5" d="M1838.26,991.14a1.48,1.48,0,0,1-1.06-.44l-22.28-22.28a1.5,1.5,0,1,1,2.12-2.12l22.28,22.28a1.49,1.49,0,0,1,0,2.12A1.45,1.45,0,0,1,1838.26,991.14Z"/><path class="cls-5" d="M1816,991.14a1.48,1.48,0,0,1-1.06-.44,1.51,1.51,0,0,1,0-2.12l22.28-22.28a1.51,1.51,0,0,1,2.12,0,1.49,1.49,0,0,1,0,2.12L1817,990.7A1.45,1.45,0,0,1,1816,991.14Z"/><path class="cls-5" d="M1838.26,1013.42a1.52,1.52,0,0,1-1.06-.43l-22.28-22.29a1.5,1.5,0,0,1,2.12-2.12l22.28,22.28a1.5,1.5,0,0,1,0,2.13A1.48,1.48,0,0,1,1838.26,1013.42Z"/><path class="cls-5" d="M1816,1013.42a1.5,1.5,0,0,1-1.06-2.56l22.28-22.28a1.51,1.51,0,0,1,2.12,0,1.49,1.49,0,0,1,0,2.12L1817,1013A1.48,1.48,0,0,1,1816,1013.42Z"/><path class="cls-5" d="M1838.26,1035.71a1.53,1.53,0,0,1-1.06-.44L1814.92,1013a1.5,1.5,0,1,1,2.12-2.13l22.28,22.28a1.51,1.51,0,0,1-1.06,2.57Z"/><path class="cls-5" d="M1816,1035.71a1.51,1.51,0,0,1-1.06-2.57l22.28-22.28a1.5,1.5,0,1,1,2.12,2.13L1817,1035.27A1.49,1.49,0,0,1,1816,1035.71Z"/><path class="cls-5" d="M1838.26,1058a1.53,1.53,0,0,1-1.06-.44l-22.28-22.28a1.5,1.5,0,1,1,2.12-2.13l22.28,22.29a1.5,1.5,0,0,1-1.06,2.56Z"/><path class="cls-5" d="M1816,1058a1.53,1.53,0,0,1-1.06-.44,1.51,1.51,0,0,1,0-2.12l22.28-22.29a1.5,1.5,0,1,1,2.12,2.13L1817,1057.55A1.49,1.49,0,0,1,1816,1058Z"/><path class="cls-5" d="M1838.26,1080.27a1.53,1.53,0,0,1-1.06-.44l-22.28-22.28a1.51,1.51,0,0,1,0-2.12,1.49,1.49,0,0,1,2.12,0l22.28,22.28a1.5,1.5,0,0,1-1.06,2.56Z"/><path class="cls-5" d="M1816,1080.27a1.53,1.53,0,0,1-1.06-.44,1.51,1.51,0,0,1,0-2.12l22.28-22.28a1.5,1.5,0,0,1,2.12,2.12L1817,1079.83A1.49,1.49,0,0,1,1816,1080.27Z"/><path class="cls-5" d="M1838.26,1102.55a1.53,1.53,0,0,1-1.06-.44l-22.28-22.28a1.51,1.51,0,0,1,0-2.12,1.49,1.49,0,0,1,2.12,0l22.28,22.28a1.5,1.5,0,0,1-1.06,2.56Z"/><path class="cls-5" d="M1816,1102.55a1.53,1.53,0,0,1-1.06-.44,1.51,1.51,0,0,1,0-2.12l22.28-22.28a1.5,1.5,0,0,1,2.12,2.12L1817,1102.11A1.49,1.49,0,0,1,1816,1102.55Z"/><path class="cls-5" d="M1838.26,1125.34a1.53,1.53,0,0,1-1.06-.44l-22.28-22.28a1.51,1.51,0,0,1,0-2.12,1.49,1.49,0,0,1,2.12,0l22.28,22.28a1.5,1.5,0,0,1-1.06,2.56Z"/><path class="cls-5" d="M1816,1125.34a1.53,1.53,0,0,1-1.06-.44,1.51,1.51,0,0,1,0-2.12l22.28-22.28a1.5,1.5,0,0,1,2.12,2.12L1817,1124.9A1.49,1.49,0,0,1,1816,1125.34Z"/><path class="cls-5" d="M1838.26,1147.62a1.53,1.53,0,0,1-1.06-.44l-22.28-22.28a1.51,1.51,0,0,1,0-2.12,1.49,1.49,0,0,1,2.12,0l22.28,22.28a1.5,1.5,0,0,1-1.06,2.56Z"/><path class="cls-5" d="M1816,1147.62a1.53,1.53,0,0,1-1.06-.44,1.51,1.51,0,0,1,0-2.12l22.28-22.28a1.5,1.5,0,0,1,2.12,2.12L1817,1147.18A1.49,1.49,0,0,1,1816,1147.62Z"/><path class="cls-5" d="M1838.26,1169.9a1.53,1.53,0,0,1-1.06-.44l-22.28-22.28a1.51,1.51,0,0,1,0-2.12,1.49,1.49,0,0,1,2.12,0l22.28,22.28a1.5,1.5,0,0,1-1.06,2.56Z"/><path class="cls-5" d="M1816,1169.9a1.53,1.53,0,0,1-1.06-.44,1.51,1.51,0,0,1,0-2.12l22.28-22.28a1.5,1.5,0,1,1,2.12,2.12L1817,1169.46A1.49,1.49,0,0,1,1816,1169.9Z"/><path class="cls-5" d="M1838.26,1192.18a1.53,1.53,0,0,1-1.06-.44l-22.28-22.28a1.51,1.51,0,0,1,0-2.12,1.49,1.49,0,0,1,2.12,0l22.28,22.28a1.5,1.5,0,0,1-1.06,2.56Z"/><path class="cls-5" d="M1816,1192.18a1.53,1.53,0,0,1-1.06-.44,1.51,1.51,0,0,1,0-2.12l22.28-22.28a1.5,1.5,0,0,1,2.12,2.12L1817,1191.74A1.49,1.49,0,0,1,1816,1192.18Z"/><path class="cls-5" d="M1838.26,1214.46a1.53,1.53,0,0,1-1.06-.44l-22.28-22.28a1.51,1.51,0,0,1,0-2.12,1.49,1.49,0,0,1,2.12,0l22.28,22.28a1.5,1.5,0,0,1-1.06,2.56Z"/><path class="cls-5" d="M1816,1214.46a1.53,1.53,0,0,1-1.06-.44,1.51,1.51,0,0,1,0-2.12l22.28-22.28a1.5,1.5,0,1,1,2.12,2.12L1817,1214A1.49,1.49,0,0,1,1816,1214.46Z"/></g><g id="Trees"><path class="cls-9" d="M2220,1222.05H1920.6a94.11,94.11,0,0,1,181.22-35.6h82.58A35.6,35.6,0,0,1,2220,1222.05Z"/><path class="cls-10" d="M2222.5,1222.05h-5a31.13,31.13,0,0,0-31.09-31.1H2083.88v-5h102.53A36.14,36.14,0,0,1,2222.5,1222.05Z"/><path class="cls-11" d="M1842.3,1103a109.81,109.81,0,0,1-1.27,16.76c-2.9-.27-5.85-.41-8.82-.41h-5.14c0-1.4.07-2.81.07-4.22,0-52-32.61-94.1-72.83-94.1-36.61,0-66.91,34.89-72.06,80.33.74-51.21,36.28-92.45,80-92.45C1806.47,1008.91,1842.3,1051,1842.3,1103Z"/><path class="cls-10" d="M1681.47,1115.13c0-52,32.61-94.1,72.84-94.1s72.83,42.13,72.83,94.1c0,1.41,0,2.82-.07,4.22h5.14a94.67,94.67,0,0,1,91.74,71.33h59.38a31.37,31.37,0,0,1,31.37,31.37H1681.47Z"/><path class="cls-9" d="M677.8,1213.5q0,4.23-.33,8.37H400v-2.08a35.6,35.6,0,0,1,35.6-35.6h61.77c11.56-40.84,46.67-70.53,88.19-70.53C636.5,1113.66,677.8,1158.36,677.8,1213.5Z"/><path class="cls-10" d="M846.78,1222.05H560.72c2.63-31.84,33.35-57,70.87-57h1.3a71.59,71.59,0,0,1-1.43-14.22c0-39.14,31.81-74,71-74s71,34.89,71,74A70.31,70.31,0,0,1,761.11,1191a58.16,58.16,0,0,1,34.34-10.72C823.8,1180.24,846.78,1199,846.78,1222.05Z"/><path class="cls-11" d="M846.78,1222.05H834.49c-2.09-19.52-24.15-34.88-51.07-34.88a65.77,65.77,0,0,0-22.27,3.77,58.1,58.1,0,0,1,34.3-10.71C823.79,1180.23,846.78,1199,846.78,1222.05Z"/><path class="cls-11" d="M773.57,1150.88a70.35,70.35,0,0,1-12.44,40.06,54.47,54.47,0,0,0-12,6,59.84,59.84,0,0,0,12.42-36.34c0-35.47-31.75-67.11-70.92-67.11a72.36,72.36,0,0,0-47.95,18.23c12.63-20.54,34.7-34.82,59.81-34.82C741.76,1076.86,773.57,1111.75,773.57,1150.88Z"/><path class="cls-9" d="M721.31,1222H551.21c3.39-32.59,40.89-58.26,86.63-58.26S717.91,1189.45,721.31,1222Z"/><path class="cls-10" d="M594.45,1172.74l-2.12-4.91c14.36-6.22,27.21-8.82,47.43-9.61l.2,5.34C617.71,1164.43,606.05,1167.72,594.45,1172.74Z"/></g><g id="Theatre"><rect class="cls-12" x="731.79" y="1326.58" width="196.35" height="83.32"/><path class="cls-13" d="M1325.5,1302.42H1317l-.55-1.53c-.47-1.29-.94-2.58-1.43-3.85l-4.92-12.88Z"/><polygon class="cls-13" points="1048.01 1301.53 1042.99 1298.66 1089.61 1217.09 1089.61 1039.59 1095.4 1039.59 1095.4 1218.63 1048.01 1301.53"/><path class="cls-13" d="M924.15,1302.5l97.92-63.77c20.54-13.38,60.36-28.69,133.41-25.69,47.89,2,99.65,11.79,138.45,26.26l.92.34,25.92,58.83Zm213.67-85.12c-43.88,0-85.38,7.13-113.21,25.25l-84.54,55.06,373.59-3.8-22.28-50.57C1251.35,1228.56,1192.73,1217.38,1137.82,1217.38Z"/><path class="cls-14" d="M1117.86,978.16v150.95l-44.34-16.79c-19.56-99.92-95.47-177.84-188-203.56C977.05,909,1059,936.46,1117.86,978.16Z"/><path class="cls-15" d="M1023.36,1089.2c-31.66-15.11-67.93-26.06-107.08-31.56V931.26a248.5,248.5,0,0,1,84.32,61.11,261.82,261.82,0,0,1,60.08,113.88Z"/><path class="cls-12" d="M916.28,931.26v126.38q-12.4-1.76-25.17-2.76V921.83A238.61,238.61,0,0,1,916.28,931.26Z"/><path class="cls-16" d="M933.33,939.56v120.85c-1.07-.2-2.13-.39-3.21-.57v-122c1,.5,2,1,2.94,1.54Z"/><path class="cls-16" d="M952.34,950.89v113.52l-3.21-.75V948.82c1,.6,1.9,1.21,2.84,1.83Z"/><path class="cls-16" d="M971.36,964.75v104.7c-1.07-.32-2.14-.62-3.21-.92V962.23C969.23,963.05,970.3,963.9,971.36,964.75Z"/><path class="cls-16" d="M990.37,981.7v93.88q-1.59-.57-3.21-1.11V978.58C988.24,979.61,989.31,980.64,990.37,981.7Z"/><path class="cls-16" d="M1009.39,1002.64v80.29c-1.06-.45-2.13-.9-3.21-1.33V998.75l1.62,1.94c.18.22.36.43.53.65C1008.69,1001.77,1009,1002.2,1009.39,1002.64Z"/><path class="cls-17" d="M930.12,937.88V962.7q-6.76-4.38-13.84-8.41v-23Q923.3,934.35,930.12,937.88Z"/><path class="cls-17" d="M949.13,948.82v27.3q-7.65-5.91-15.8-11.32V939.56Q941.39,943.88,949.13,948.82Z"/><path class="cls-17" d="M968.15,962.23v30.19q-7.57-7.2-15.81-13.76V950.89Q960.46,956.23,968.15,962.23Z"/><path class="cls-17" d="M987.16,978.58v34.16a227.74,227.74,0,0,0-15.8-17.23V964.75Q979.52,971.31,987.16,978.58Z"/><path class="cls-17" d="M1006.18,998.75v40.9a216.13,216.13,0,0,0-15.81-22.93v-35q5.25,5.16,10.23,10.67C1002.5,994.47,1004.36,996.59,1006.18,998.75Z"/><path class="cls-17" d="M1060.68,1106.25c-11.14-5.21-21.71-10-31.86-14.29a222.37,222.37,0,0,0-19.43-46.75v-42.57A262.08,262.08,0,0,1,1060.68,1106.25Z"/><path class="cls-18" d="M933.06,939.42l.27.14V964.8q-1.59-1.06-3.21-2.1V937.88C931.1,938.38,932.08,938.9,933.06,939.42Z"/><path class="cls-18" d="M952,950.65l.37.24v27.77c-1.06-.86-2.13-1.7-3.21-2.54v-27.3C950.09,949.42,951,950,952,950.65Z"/><path class="cls-18" d="M968.15,962.23c1.08.82,2.15,1.67,3.21,2.52v30.76c-1.06-1-2.13-2.08-3.21-3.09Z"/><path class="cls-18" d="M987.16,978.58c1.08,1,2.15,2.06,3.21,3.12v35q-1.57-2-3.21-4Z"/><path class="cls-18" d="M1009.39,1002.64v42.57c-1-1.87-2.11-3.73-3.21-5.56v-40.9l1.62,1.94c.18.22.36.43.53.65C1008.69,1001.77,1009,1002.2,1009.39,1002.64Z"/><path class="cls-3" d="M1073.52,1112.32q-6.54-3.13-12.84-6.07a262,262,0,0,0-60.08-113.88,246.67,246.67,0,0,0-109.49-70.54v133.05q-5.55-.45-11.18-.73V914.35A5.59,5.59,0,0,1,887,909c46.52,12.93,88.66,39.17,121.87,75.9A273.44,273.44,0,0,1,1073.52,1112.32Z"/><path class="cls-14" d="M1023.36,1089.2V1240l-17.06,12.61L832,1099.78v121.07l-50.62-160.18a413.31,413.31,0,0,1,76.71-7.09q11.06,0,21.89.57,5.63.28,11.18.73,12.76,1,25.17,2.76,7,1,13.84,2.2c1.08.18,2.14.37,3.21.57q8,1.47,15.8,3.25l3.21.75q8,1.9,15.81,4.12c1.07.3,2.14.6,3.21.92q8,2.34,15.8,5,1.62.54,3.21,1.11,8.05,2.84,15.81,6c1.08.43,2.15.88,3.21,1.33Q1016.52,1085.93,1023.36,1089.2Z"/><polygon class="cls-15" points="831.95 1105.53 1001.4 1255.74 932.11 1300.1 702.12 1300.1 831.95 1256.17 831.95 1105.53"/><polygon class="cls-15" points="1006.3 1252.61 1005.04 1253.42 1006.24 1252.56 1006.3 1252.61"/><polygon class="cls-12" points="832.53 1207.88 831.95 1105.53 789.54 1067.93 832.53 1207.88"/><polygon class="cls-16" points="978.03 1235.02 951.95 1243.77 784.1 1300.1 774.72 1300.1 774.72 1300.09 830.45 1281.39 830.45 1258.28 711.32 1300.1 702.3 1300.1 702.3 1300.09 830.45 1255.1 830.45 1104.2 833.45 1106.85 833.45 1280.38 850.68 1274.6 850.68 1122.15 850.7 1122.15 853.68 1124.79 853.68 1273.59 869.7 1268.22 869.7 1138.99 872.7 1141.65 872.7 1267.21 888.71 1261.84 888.71 1155.84 891.71 1158.5 891.71 1260.83 907.73 1255.45 907.73 1172.7 910.73 1175.36 910.73 1254.45 926.74 1249.07 926.74 1189.55 929.74 1192.21 929.74 1248.07 945.76 1242.69 945.76 1206.42 948.76 1209.08 948.76 1241.68 949.37 1241.48 975.44 1232.73 978.03 1235.02"/><polygon class="cls-17" points="850.7 1122.15 850.68 1122.15 850.68 1153.67 833.45 1138.34 833.45 1106.85 850.7 1122.15"/><polygon class="cls-17" points="869.7 1138.99 869.7 1170.59 853.68 1156.34 853.68 1124.79 869.7 1138.99"/><polygon class="cls-17" points="888.71 1155.84 888.71 1187.51 872.7 1173.26 872.7 1141.65 888.71 1155.84"/><polygon class="cls-17" points="907.73 1172.7 907.73 1204.43 891.71 1190.18 891.71 1158.5 907.73 1172.7"/><polygon class="cls-17" points="926.74 1189.55 926.74 1221.34 910.73 1207.1 910.73 1175.36 926.74 1189.55"/><polygon class="cls-17" points="945.76 1206.42 945.76 1238.26 929.74 1224.01 929.74 1192.21 945.76 1206.42"/><polygon class="cls-17" points="975.44 1232.73 949.37 1241.48 948.76 1240.93 948.76 1209.08 975.44 1232.73"/><polygon class="cls-17" points="1001.4 1255.74 951.95 1243.77 978.03 1235.02 1001.4 1255.74"/><polygon class="cls-18" points="830.45 1104.2 833.45 1106.85 833.45 1138.34 830.45 1135.68 830.41 1135.64 830.41 1104.16 830.45 1104.2"/><polygon class="cls-18" points="850.7 1122.15 853.68 1124.79 853.68 1156.34 850.68 1153.67 850.68 1122.15 850.7 1122.15"/><polygon class="cls-18" points="869.7 1138.99 872.7 1141.65 872.7 1173.26 869.7 1170.59 869.7 1138.99"/><polygon class="cls-18" points="891.71 1158.5 891.71 1190.18 888.71 1187.51 888.71 1155.84 891.71 1158.5"/><polygon class="cls-18" points="907.73 1172.7 910.73 1175.36 910.73 1207.1 907.73 1204.43 907.73 1172.7"/><polygon class="cls-18" points="926.74 1189.56 929.74 1192.21 929.74 1224.01 926.74 1221.34 926.74 1189.56"/><polygon class="cls-18" points="945.76 1206.42 948.76 1209.08 948.76 1240.93 945.76 1238.26 945.76 1206.42"/><polygon class="cls-18" points="978.03 1235.02 951.95 1243.77 949.37 1241.48 975.44 1232.73 978.03 1235.02"/><path class="cls-3" d="M789.54,1067.93l40.66,133v20.52l-49-160.06a2.34,2.34,0,0,1,2.24-3h12l215.37,190.9-9.5,6.53Z"/><path class="cls-3" d="M1513.28,1300.1h-88.06c-12.06-80.52-35-155.35-67.43-220.44q10.11,7.48,19.76,15.53C1439.84,1147.12,1487.62,1216.46,1513.28,1300.1Z"/><path class="cls-6" d="M1430.89,1300.09h-24.34c-17.64-94.55-47.93-178.72-88.48-246.67a443.5,443.5,0,0,1,51.55,35.32C1398.25,1151.2,1419.37,1222.75,1430.89,1300.09Z"/><path class="cls-12" d="M1067.64,1031.43v177L1029,1236V1015.49Q1048.75,1022.69,1067.64,1031.43Z"/><path class="cls-3" d="M1513.28,1300.1H1318.82a482.93,482.93,0,0,0-114.43-174.53A489,489,0,0,0,1029,1015.49v217l-11.18,7.18V1007.26h.34l-.13-12.9a6.54,6.54,0,0,1,6.54-6.61h44.78C1273.32,987.75,1453.44,1105.05,1513.28,1300.1Z"/><path class="cls-15" d="M1318.82,1300.1H926.11l141.53-91.63v-177a486.6,486.6,0,0,1,251.18,268.67Z"/><path class="cls-16" d="M1316.7,1294.63l-1.37-1.15q-8.19-6.9-16.76-13.26v19.89h-3V1278q-7.87-5.74-16-11v33.11h-3v-35q-7.87-5-16-9.58v44.61h-3v-46.28q-7.9-4.35-16-8.3v54.58h-3v-56q-7.95-3.8-16.08-7.18l-3.83,63.18v.1l-1.67-.1-1.33-.08,3.9-64.3q-8.05-3.27-16.26-6.16l-14.39,70.54h-3.06l14.59-71.52q-8.09-2.76-16.3-5.13L1159,1300.1h-3.16l25.39-77.48q-8.28-2.31-16.67-4.23l-38.19,81.71H1123l38.52-82.38q-7.69-1.7-15.49-3l-52,85.43h-3.52l52.38-86q-8-1.32-16.07-2.27l-67.58,88.24h-3.78l67.88-88.64q-7.86-.86-15.79-1.36l-86.14,90h-4.14l86.34-90.23q-7.56-.4-15.14-.48L984.2,1300.1h-4.58l104.29-90.73h-13.44L929.31,1300.1h-5.55l143.88-92.48v-1.25h18.76V1040.57c1,.52,2,1,3,1.56V1206.4q8,.11,16,.57v-156.1l1.5.87,1.5.87v154.54q8,.52,16,1.41V1062.31l3,1.91v144.69q8,1,16,2.27V1075l.81.58c.73.5,1.46,1,2.19,1.55V1211.7q8.05,1.38,16,3.16V1089c.79.61,1.58,1.22,2.37,1.85.21.16.42.32.63.5v124.16q8.05,1.85,16,4.07v-115l1.39,1.18.25.22c.45.39.91.79,1.36,1.2v113.26q8.07,2.32,16,5V1121.81l1.09,1,1.91,1.85v101.78q8.09,2.8,16,6V1141q1.53,1.61,3,3.21v89.48q8.09,3.33,16,7.06v-78.25c.36.42.72.85,1.07,1.28.65.78,1.3,1.57,1.93,2.36v76q8.12,3.9,16,8.21v-63.5l1.48,2,1.52,2.1v61q3.63,2,7.2,4.13,4.44,2.6,8.81,5.34V1215c.29.45.57.9.85,1.35l1,1.65c.39.62.76,1.24,1.13,1.86v43.53q8.15,5.21,16,10.87v-26c.33.62.65,1.24,1,1.87l1,1.87c.37.71.73,1.41,1.08,2.12v22.31c5.35,3.94,10.6,8,15.74,12.26.19.45.38.91.56,1.37l.55,1.36.45,1.11C1316.14,1293.26,1316.43,1293.94,1316.7,1294.63Z"/><path class="cls-17" d="M1086.4,1040.57v24.13q-9.21-5.42-18.76-10.52v-22.75Q1077.14,1035.81,1086.4,1040.57Z"/><path class="cls-17" d="M1105.42,1050.88v25.49q-7.87-5.07-16-9.9v-24.34Q1097.5,1046.36,1105.42,1050.88Z"/><path class="cls-17" d="M1124.43,1062.31v26.89q-7.86-5.58-16-10.89v-25.7Q1116.52,1057.31,1124.43,1062.31Z"/><path class="cls-17" d="M1143.45,1075v28.38q-7.85-6.16-16-12v-27.11Q1135.54,1069.44,1143.45,1075Z"/><path class="cls-17" d="M1162.46,1089v30.08q-7.83-6.84-16-13.36v-28.63Q1154.56,1082.89,1162.46,1089Z"/><path class="cls-17" d="M1181.48,1104.58v32.13q-7.82-7.67-16-15v-30.38Q1173.61,1097.79,1181.48,1104.58Z"/><path class="cls-17" d="M1219.51,1141v38.21q-7.74-9.9-16-19.29V1124.7l.9.87Q1212.15,1133.15,1219.51,1141Z"/><path class="cls-17" d="M1200.49,1121.81v34.75q-7.77-8.65-16-16.88v-32.5Q1192.63,1114.29,1200.49,1121.81Z"/><path class="cls-17" d="M1238.52,1162.52v43q-7.68-11.51-16-22.4v-38.88Q1230.78,1153.2,1238.52,1162.52Z"/><path class="cls-17" d="M1257.54,1186.91v49.8q-7.61-13.73-16-26.65v-43.9Q1249.84,1176.33,1257.54,1186.91Z"/><path class="cls-17" d="M1276.55,1215v46.49q-4.36-2.74-8.81-5.34-3.49-7.1-7.2-14v-51.13Q1268.91,1202.82,1276.55,1215Z"/><path class="cls-17" d="M1295.57,1248.33v26q-7.87-5.65-16-10.87v-43.52Q1288,1233.83,1295.57,1248.33Z"/><path class="cls-17" d="M1314.31,1288.73c-5.14-4.25-10.39-8.32-15.74-12.26v-22.28Q1307.08,1271.07,1314.31,1288.73Z"/><path class="cls-18" d="M1086.4,1040.57c1,.52,2,1,3,1.56v24.34c-1-.6-2-1.19-3-1.77Z"/><path class="cls-18" d="M1106.92,1051.74l1.5.87v25.7l-3-1.94v-25.49Z"/><path class="cls-18" d="M1124.43,1062.31l3,1.91v27.11c-1-.72-2-1.43-3-2.13Z"/><path class="cls-18" d="M1144.26,1075.56c.73.5,1.46,1,2.19,1.55v28.63q-1.48-1.2-3-2.37V1075Z"/><path class="cls-18" d="M1164.83,1090.87c.21.16.42.32.63.5v30.38c-1-.9-2-1.78-3-2.65V1089C1163.25,1089.63,1164,1090.24,1164.83,1090.87Z"/><path class="cls-18" d="M1183.12,1106c.45.39.91.79,1.36,1.2v32.5q-1.49-1.5-3-3v-32.13l1.39,1.18Z"/><path class="cls-18" d="M1203.49,1124.7v35.24c-1-1.13-2-2.26-3-3.38v-34.75l1.09,1Z"/><path class="cls-18" d="M1219.51,1141q1.53,1.61,3,3.21v38.88c-1-1.3-2-2.6-3-3.88Z"/><path class="cls-18" d="M1239.59,1163.8c.65.78,1.3,1.57,1.93,2.36v43.9q-1.49-2.28-3-4.55v-43C1238.88,1162.94,1239.24,1163.37,1239.59,1163.8Z"/><path class="cls-18" d="M1260.54,1191.07v51.13q-1.49-2.76-3-5.49v-49.8l1.48,2C1259.53,1189.65,1260,1190.36,1260.54,1191.07Z"/><path class="cls-18" d="M1316.7,1294.63A364.92,364.92,0,0,0,1270,1261c-.53-1.09-1.7-3.74-2.24-4.82q4.44,2.6,8.81,5.34V1215c.29.45.57.9.85,1.35l1,1.65c.39.62.76,1.24,1.13,1.86v43.53q8.15,5.21,16,10.87v-26c.33.61.65,1.23,1,1.84l1,1.87c.37.72.73,1.43,1.08,2.15v22.28c5.35,3.94,10.6,8,15.74,12.26Z"/><polygon class="cls-16" points="1218.61 1300.1 1218.6 1300.2 1216.93 1300.1 1218.61 1300.1"/><rect class="cls-16" x="1238.52" y="1300.1" width="3" height="0.01"/><rect class="cls-16" x="1257.54" y="1300.1" width="3" height="0.01"/><rect class="cls-16" x="1276.55" y="1300.1" width="3" height="0.01"/><rect class="cls-16" x="1295.57" y="1300.1" width="3" height="0.01"/><path class="cls-15" d="M1357.79,1079.66c-57.8-42.81-126.4-71.69-200.49-84.45V871.49h0c59.12,25,113.44,71.82,158.71,137.17A571.79,571.79,0,0,1,1357.79,1079.66Z"/><path class="cls-15" d="M1357.79,1079.66q-4-2.94-8-5.81l-3.21-2.24q-7.79-5.4-15.8-10.47l-3.21-2q-7.8-4.83-15.81-9.36l-3.21-1.8q-7.8-4.34-15.8-8.36l-1.6-.8c-.53-.28-1.07-.55-1.61-.81q-7.82-3.87-15.81-7.46l-1.6-.71-1.61-.71q-7.82-3.45-15.8-6.62l-3.21-1.26q-7.83-3-15.81-5.82c-.53-.19-1.06-.38-1.6-.55s-1.07-.38-1.61-.56q-7.83-2.67-15.8-5.08l-3.21-1q-7.85-2.32-15.81-4.38l-1.6-.41-1.61-.41q-7.86-2-15.8-3.71L1177,999l-1.6-.35q-9-1.89-18.12-3.46V871.49h0q9.14,3.85,18.11,8.42l3.21,1.65q8,4.16,15.8,8.87c1.07.64,2.15,1.29,3.21,2q8,4.92,15.81,10.4l3.21,2.28q8,5.73,15.8,12l3.21,2.62q8,6.62,15.81,13.83,1.62,1.49,3.21,3,8,7.56,15.8,15.77,1.6,1.7,3.21,3.42,8,8.67,15.81,18l3.21,3.9q8.05,9.89,15.8,20.49c1.08,1.47,2.14,3,3.21,4.44,1.44,2,2.87,4.05,4.29,6.1q5.89,8.51,11.52,17.34c1.08,1.69,2.15,3.4,3.21,5.11q8.2,13.19,15.8,27.05c1.08,2,2.15,3.94,3.21,5.93Q1353.87,1071.77,1357.79,1079.66Z"/><path class="cls-16" d="M1178.63,881.56V999.37l-3.21-.69V879.91Z"/><path class="cls-16" d="M1197.64,892.38V1003.9l-1.6-.42-1.61-.4V890.43C1195.5,891.07,1196.58,891.72,1197.64,892.38Z"/><path class="cls-16" d="M1216.66,905.06v104.18l-3.21-1V902.78Z"/><path class="cls-16" d="M1235.67,919.71v95.72c-1.07-.38-2.13-.75-3.21-1.11V917.09a.27.27,0,0,1,.08.07l3,2.47Z"/><path class="cls-16" d="M1254.69,936.55v86l-3.21-1.26V933.54l.28.26c.74.68,1.47,1.36,2.19,2.05C1254.2,936.08,1254.45,936.31,1254.69,936.55Z"/><path class="cls-16" d="M1273.7,955.74v74.81l-1.6-.72-1.61-.7V952.32Q1272.09,954,1273.7,955.74Z"/><path class="cls-16" d="M1292.72,977.63v62l-1.6-.8-1.61-.8V973.73l.12.14C1290.66,975.11,1291.69,976.37,1292.72,977.63Z"/><path class="cls-16" d="M1311.73,1002.56v47.22l-3.21-1.8V998.12C1309.6,999.59,1310.66,1001.07,1311.73,1002.56Z"/><path class="cls-16" d="M1330.75,1031.11v30q-1.61-1-3.21-2V1026C1328.62,1027.69,1329.69,1029.4,1330.75,1031.11Z"/><path class="cls-16" d="M1349.76,1064.09v9.76l-.91-.64-1.66-1.15-.64-.45v-13.44q1.58,2.86,3.12,5.76A.83.83,0,0,1,1349.76,1064.09Z"/><path class="cls-12" d="M1157.3,871.49V995.22q-14-2.43-28.26-4.06V861.31A271.28,271.28,0,0,1,1157.3,871.49Z"/><path class="cls-17" d="M1175.42,879.91v28q-8.93-4.86-18.11-9V871.49Q1166.45,875.34,1175.42,879.91Z"/><path class="cls-17" d="M1194.43,890.43v28.8q-7.79-5.06-15.8-9.54V881.56Q1186.6,885.72,1194.43,890.43Z"/><path class="cls-17" d="M1213.45,902.78v29.78q-7.79-5.91-15.81-11.23v-29Q1205.62,897.3,1213.45,902.78Z"/><path class="cls-17" d="M1232.46,917.09v31q-7.77-6.83-15.8-13.07v-30Q1224.66,910.79,1232.46,917.09Z"/><path class="cls-17" d="M1251.48,933.54v32.52q-7.76-7.87-15.81-15.12V919.71Q1243.68,926.33,1251.48,933.54Z"/><path class="cls-17" d="M1270.49,952.32v34.42q-7.73-9-15.8-17.39v-32.8Q1262.71,944.11,1270.49,952.32Z"/><path class="cls-17" d="M1289.51,973.73v36.83q-7.71-10.37-15.81-20V955.74Q1281.74,964.41,1289.51,973.73Z"/><path class="cls-17" d="M1308.52,998.12V1038q-7.68-11.93-15.8-23.1V977.63Q1300.77,987.52,1308.52,998.12Z"/><path class="cls-17" d="M1327.54,1026v33.14q-4.69-2.92-9.47-5.72c-2.09-3.49-4.2-7-6.34-10.35v-40.51c1.44,2,2.87,4.05,4.29,6.1Q1321.92,1017.17,1327.54,1026Z"/><path class="cls-17" d="M1346.55,1058.17v13.44q-7.79-5.4-15.8-10.46v-30Q1339,1044.3,1346.55,1058.17Z"/><path class="cls-17" d="M1357.79,1079.66q-4-2.94-8-5.81v-9.76Q1353.87,1071.77,1357.79,1079.66Z"/><path class="cls-18" d="M1175.42,879.91l3.21,1.65v28.13l-3.21-1.78Z"/><path class="cls-18" d="M1194.43,890.43c1.07.64,2.15,1.29,3.21,2v29c-1.07-.71-2.14-1.42-3.21-2.1Z"/><path class="cls-18" d="M1213.45,902.78l3.21,2.28v30c-1.07-.83-2.14-1.65-3.21-2.45Z"/><path class="cls-18" d="M1235.57,919.63l.1.08v31.23c-1.07-1-2.13-1.91-3.21-2.86v-31a.27.27,0,0,1,.08.07Z"/><path class="cls-18" d="M1254,935.85c.25.23.5.46.74.7v32.8c-1.06-1.11-2.13-2.2-3.21-3.29V933.54l.28.26C1252.5,934.48,1253.23,935.16,1254,935.85Z"/><path class="cls-18" d="M1270.49,952.32q1.6,1.7,3.21,3.42v34.79c-1.06-1.27-2.13-2.54-3.21-3.79Z"/><path class="cls-18" d="M1289.63,973.87c1,1.24,2.06,2.5,3.09,3.76v37.29c-1.06-1.46-2.13-2.92-3.21-4.36V973.73Z"/><path class="cls-18" d="M1308.52,998.12c1.08,1.47,2.14,3,3.21,4.44v40.51q-1.59-2.55-3.21-5Z"/><path class="cls-18" d="M1327.54,1026c1.08,1.69,2.15,3.4,3.21,5.11v30q-1.61-1-3.21-2Z"/><path class="cls-18" d="M1349.76,1064.09v9.76l-.91-.64-1.66-1.15-.64-.45v-13.44q1.58,2.86,3.12,5.76A.83.83,0,0,1,1349.76,1064.09Z"/><path class="cls-3" d="M1613.79,1300.1H1425.22c-12.06-80.52-35-155.35-67.43-220.44a571.79,571.79,0,0,0-41.77-71c-52.4-75.64-116.92-126.45-187-147.35V991.16q-5.57-.64-11.18-1.16V849.4h10.28C1397.19,850.65,1613.79,1036.07,1613.79,1300.1Z"/><path class="cls-6" d="M1544.46,1300.09h-31.7c-18-152.31-60.53-283.22-118.53-380.6A466,466,0,0,1,1451.7,959C1496.47,1053.1,1529.06,1170.08,1544.46,1300.09Z"/><path class="cls-6" d="M1764.89,1296.93h-5.34a598.17,598.17,0,0,0-29.15-186.32l5.09-1.64A603.27,603.27,0,0,1,1764.89,1296.93Z"/><path class="cls-15" d="M1439.32,949.4c-48.88-36.66-106-64.29-168.45-81.1V758.52c59.47,31.22,114,90.52,159.38,173.68q4.61,8.46,9.06,17.18Z"/><path class="cls-12" d="M1270.87,758.52V868.3q-13-3.52-26.32-6.39V746.66A234.57,234.57,0,0,1,1270.87,758.52Z"/><path class="cls-16" d="M1292.61,771.32V874.65l-3-.95V769.39l.6.39C1291,770.28,1291.81,770.8,1292.61,771.32Z"/><path class="cls-16" d="M1311.63,784.9v96.16l-3-1.06V782.61Z"/><path class="cls-16" d="M1330.64,800.83v87.5c-1-.42-2-.82-3-1.21v-89C1328.64,799,1329.64,799.92,1330.64,800.83Z"/><path class="cls-16" d="M1349.66,819.29v77.18l-3-1.34V816.21Q1348.18,817.74,1349.66,819.29Z"/><path class="cls-16" d="M1368.67,840.51V905.6c-1-.52-2-1-3-1.51V837Q1367.19,838.73,1368.67,840.51Z"/><path class="cls-16" d="M1387.69,864.78v51q-1.5-.86-3-1.68V860.73Q1386.21,862.74,1387.69,864.78Z"/><path class="cls-16" d="M1406.7,892.44V927c-1-.63-2-1.25-3-1.86V887.83l1.51,2.3Z"/><path class="cls-16" d="M1425.72,924v15.54q-1.12-.8-2.25-1.56l-.75-.51V918.77Q1424.24,921.38,1425.72,924Z"/><path class="cls-17" d="M1289.61,769.4v24.81q-9.24-7.49-18.73-14.07V758.53Q1280.33,763.5,1289.61,769.4Z"/><path class="cls-17" d="M1308.63,782.61v28.12q-7.92-7.38-16-14.08V771.34Q1300.7,776.61,1308.63,782.61Z"/><path class="cls-17" d="M1327.64,798.15v31.54q-7.89-8.41-16-16.14V784.9Q1319.72,791.16,1327.64,798.15Z"/><path class="cls-17" d="M1346.66,816.21v35.13q-7.89-9.57-16-18.42V800.83Q1338.76,808.14,1346.66,816.21Z"/><path class="cls-17" d="M1365.67,837v39q-7.86-10.85-16-20.94V819.29Q1357.78,827.73,1365.67,837Z"/><path class="cls-17" d="M1384.69,860.73V904q-7.83-12.33-16-23.85V840.51Q1376.81,850.22,1384.69,860.73Z"/><path class="cls-17" d="M1403.7,887.83v37.34q-4.7-2.89-9.47-5.68-3.24-5.43-6.54-10.73v-44Q1395.83,875.89,1403.7,887.83Z"/><path class="cls-17" d="M1422.72,918.77V937.5q-7.87-5.38-16-10.47V892.46Q1414.88,905.15,1422.72,918.77Z"/><path class="cls-17" d="M1439.31,949.38q-6.69-5-13.59-9.8V924c1.53,2.7,3,5.41,4.53,8.16Q1434.86,940.66,1439.31,949.38Z"/><path class="cls-18" d="M1290.21,769.78q1.2.76,2.4,1.56v25.31c-1-.82-2-1.64-3-2.44V769.4Z"/><path class="cls-18" d="M1308.63,782.61l3,2.29v28.65l-3-2.82Z"/><path class="cls-18" d="M1327.64,798.15c1,.88,2,1.77,3,2.68v32.09c-1-1.09-2-2.16-3-3.23Z"/><path class="cls-18" d="M1346.66,816.21q1.52,1.53,3,3.08V855q-1.5-1.86-3-3.69Z"/><path class="cls-18" d="M1368.67,840.51v39.64c-1-1.4-2-2.8-3-4.18V837Q1367.19,838.73,1368.67,840.51Z"/><path class="cls-18" d="M1384.69,860.73q1.51,2,3,4v44q-1.49-2.38-3-4.76Z"/><path class="cls-18" d="M1405.21,890.13l1.49,2.31V927l-3-1.86V887.83Z"/><path class="cls-18" d="M1425.72,924v15.54q-1.12-.8-2.25-1.56l-.75-.51V918.77Q1424.24,921.38,1425.72,924Z"/><path class="cls-3" d="M1759.05,1300.1H1538.82c-15.86-133.26-50.15-254-99.51-350.71q-4.44-8.73-9.06-17.18c-52-95.29-116-159.25-185.7-185.54V861.91q-5.57-1.2-11.18-2.28v-126h8C1510.73,735.06,1759.05,968.15,1759.05,1300.1Z"/><polygon class="cls-7" points="2260 1363.48 2260 1409.9 928.31 1409.9 928.31 1326.58 1656.17 1326.58 1714.23 1363.48 2260 1363.48"/><polygon class="cls-12" points="2260 1363.48 2260 1374.66 1714.51 1374.66 1714.51 1409.9 1655.31 1409.9 1655.31 1336.09 731.79 1336.09 731.79 1326.58 1655.31 1326.58 1670.43 1336.09 1714.23 1363.64 1714.23 1363.48 2260 1363.48"/><path class="cls-3" d="M2038.65,1363.44l-20-2.31-259.59-61c0-67.2-10.18-130.35-28.64-188.34,64-74.55,168.34-123.92,286.76-126.56v-.07l20-.08Z"/><polygon class="cls-3" points="2028.63 1363.48 2018.65 1363.51 2018.64 1361.13 2028.63 1363.48"/><rect class="cls-15" x="756.58" y="1348.15" width="150.75" height="5.35"/><rect class="cls-15" x="1141.35" y="1348.15" width="171.64" height="5.35"/><rect class="cls-15" x="975.25" y="1348.15" width="143.46" height="5.35"/><polygon class="cls-3" points="2260 1352.45 2260 1363.63 1713.44 1363.63 1713.44 1363.48 1655.42 1326.58 702.12 1326.58 702.12 1300.1 1759.05 1300.1 2037.9 1352.45 2260 1352.45"/><polygon class="cls-3" points="2260 1339.65 2260 1343.65 2249.12 1343.65 2249.12 1353.01 2245.12 1353.01 2245.12 1343.65 2234.28 1343.65 2234.28 1353.01 2230.28 1353.01 2230.28 1343.65 2219.44 1343.65 2219.44 1353.01 2215.44 1353.01 2215.44 1343.65 2204.6 1343.65 2204.6 1353.01 2200.6 1353.01 2200.6 1343.65 2189.76 1343.65 2189.76 1353.01 2185.76 1353.01 2185.76 1343.65 2174.92 1343.65 2174.92 1353.01 2170.92 1353.01 2170.92 1343.65 2160.08 1343.65 2160.08 1353.01 2156.08 1353.01 2156.08 1343.65 2145.24 1343.65 2145.24 1353.01 2141.24 1353.01 2141.24 1343.65 2130.4 1343.65 2130.4 1353.01 2126.4 1353.01 2126.4 1343.65 2115.56 1343.65 2115.56 1353.01 2111.56 1353.01 2111.56 1343.65 2100.72 1343.65 2100.72 1353.01 2096.72 1353.01 2096.72 1343.65 2085.88 1343.65 2085.88 1353.01 2081.88 1353.01 2081.88 1343.65 2071.04 1343.65 2071.04 1353.01 2067.04 1353.01 2067.04 1343.65 2056.2 1343.65 2056.2 1353.01 2052.2 1353.01 2052.2 1343.65 2038.36 1343.65 2038.36 1339.65 2260 1339.65"/><rect class="cls-18" x="702.12" y="1461.02" width="1557.88" height="8.98"/><rect class="cls-12" x="702.12" y="1409.9" width="1557.88" height="50.45"/><path class="cls-3" d="M2260,1395.14v-4H702.12v24.76H2260v-12h-10.84v-8.76ZM716.61,1403.9H706.12v-8.76h10.49Zm14.84,0H720.61v-8.76h10.84Zm14.84,0H735.45v-8.76h10.84Zm14.84,0H750.29v-8.76h10.84Zm14.84,0H765.13v-8.76H776Zm14.84,0H780v-8.76h10.84Zm14.84,0H794.81v-8.76h10.84Zm14.84,0H809.65v-8.76h10.84Zm14.84,0H824.49v-8.76h10.84Zm14.84,0H839.33v-8.76h10.84Zm14.84,0H854.17v-8.76H865Zm14.84,0H869v-8.76h10.84Zm14.85,0H883.86v-8.76H894.7Zm14.84,0H898.7v-8.76h10.84Zm14.84,0H913.54v-8.76h10.84Zm14.84,0H928.38v-8.76h10.84Zm14.83,0H943.22v-8.76h10.83Zm14.85,0H958.05v-8.76H968.9Zm14.84,0H972.9v-8.76h10.84Zm14.83,0H987.74v-8.76h10.83Zm14.84,0h-10.84v-8.76h10.84Zm14.85,0h-10.85v-8.76h10.85Zm14.83,0h-10.83v-8.76h10.83Zm14.84,0h-10.84v-8.76h10.84Zm14.84,0h-10.84v-8.76h10.84Zm14.84,0h-10.84v-8.76h10.84Zm14.84,0h-10.84v-8.76h10.84Zm14.84,0h-10.84v-8.76h10.84Zm14.84,0h-10.84v-8.76h10.84Zm14.84,0h-10.84v-8.76H1147Zm14.84,0H1151v-8.76h10.84Zm14.84,0h-10.84v-8.76h10.84Zm14.84,0h-10.84v-8.76h10.84Zm14.84,0h-10.84v-8.76h10.84Zm14.84,0h-10.84v-8.76h10.84Zm14.84,0h-10.84v-8.76H1236Zm14.84,0H1240v-8.76h10.84Zm14.84,0h-10.84v-8.76h10.84Zm14.84,0h-10.84v-8.76h10.84Zm14.85,0h-10.85v-8.76h10.85Zm14.84,0h-10.84v-8.76h10.84Zm14.84,0h-10.84v-8.76h10.84Zm14.84,0h-10.84v-8.76h10.84Zm14.84,0H1343.9v-8.76h10.84Zm14.84,0h-10.84v-8.76h10.84Zm14.84,0h-10.84v-8.76h10.84Zm14.84,0h-10.84v-8.76h10.84Zm14.84,0h-10.84v-8.76h10.84Zm14.84,0H1418.1v-8.76h10.84Zm14.84,0h-10.84v-8.76h10.84Zm14.84,0h-10.84v-8.76h10.84Zm14.84,0h-10.84v-8.76h10.84Zm14.84,0h-10.84v-8.76h10.84Zm14.84,0H1492.3v-8.76h10.84Zm14.84,0h-10.84v-8.76H1518Zm14.84,0H1522v-8.76h10.84Zm14.84,0h-10.84v-8.76h10.84Zm14.84,0h-10.84v-8.76h10.84Zm14.84,0H1566.5v-8.76h10.84Zm14.84,0h-10.84v-8.76h10.84Zm14.84,0h-10.84v-8.76H1607Zm14.84,0H1611v-8.76h10.84Zm14.84,0h-10.84v-8.76h10.84Zm14.84,0H1640.7v-8.76h10.84Zm14.84,0h-10.84v-8.76h10.84Zm14.84,0h-10.84v-8.76h10.84Zm14.84,0h-10.84v-8.76h10.84Zm14.85,0h-10.84v-8.76h10.84Zm14.84,0h-10.84v-8.76h10.84Zm14.84,0h-10.84v-8.76h10.84Zm14.84,0h-10.84v-8.76h10.84Zm14.84,0h-10.84v-8.76h10.84Zm14.84,0h-10.84v-8.76h10.84Zm14.84,0h-10.84v-8.76H1800Zm14.84,0H1804v-8.76h10.84Zm14.84,0h-10.84v-8.76h10.84Zm14.84,0h-10.84v-8.76h10.84Zm14.84,0h-10.84v-8.76h10.84Zm14.84,0h-10.84v-8.76h10.84Zm14.84,0h-10.84v-8.76H1889Zm14.84,0H1893v-8.76h10.84Zm14.84,0h-10.84v-8.76h10.84Zm14.84,0h-10.84v-8.76h10.84Zm14.84,0h-10.84v-8.76h10.84Zm14.84,0h-10.84v-8.76h10.84Zm14.84,0h-10.84v-8.76H1978Zm14.84,0H1982v-8.76h10.84Zm14.84,0h-10.84v-8.76h10.84Zm14.84,0h-10.84v-8.76h10.84Zm14.84,0h-10.84v-8.76h10.84Zm14.84,0h-10.84v-8.76h10.84Zm14.84,0h-10.84v-8.76h10.84Zm14.84,0h-10.84v-8.76h10.84Zm14.84,0h-10.84v-8.76h10.84Zm14.85,0h-10.85v-8.76h10.85Zm14.84,0H2115.6v-8.76h10.84Zm14.84,0h-10.84v-8.76h10.84Zm14.84,0h-10.84v-8.76h10.84Zm14.84,0h-10.84v-8.76H2171Zm14.84,0H2175v-8.76h10.84Zm14.84,0H2189.8v-8.76h10.84Zm14.84,0h-10.84v-8.76h10.84Zm14.84,0h-10.84v-8.76h10.84Zm14.84,0h-10.84v-8.76h10.84Z"/><polygon class="cls-6" points="2038.53 1346.82 2038.53 1352.26 1764.59 1300.16 1318.67 1300.1 1316.78 1294.81 1765.1 1294.81 1765.34 1294.85 2038.53 1346.82"/></g><g id="Yacht"><rect class="cls-3" x="1134.01" y="1628.19" width="69.45" height="4"/><rect class="cls-3" x="1214.5" y="1628.19" width="4.47" height="4"/><rect class="cls-3" x="1167.12" y="1615.06" width="143.11" height="4"/><polygon class="cls-3" points="1041.09 1599.03 965.36 1599.03 1040.93 1436.38 1041.09 1599.03"/><polygon class="cls-3" points="1115.51 1586.22 1058.6 1586.22 1058.6 1436.38 1115.51 1586.22"/><path class="cls-11" d="M966.37,1612.23H1118v19.69H1009.15a47.57,47.57,0,0,1-27.69-8.89Z"/><rect class="cls-11" x="1051.48" y="1557.76" width="36.54" height="4"/><polygon class="cls-3" points="1117.98 1610.23 1117.98 1614.23 966.37 1614.23 966.37 1610.23 1048.22 1610.23 1048.22 1436.38 1052.22 1436.38 1052.22 1595.79 1116.88 1595.79 1116.88 1599.79 1052.22 1599.79 1052.22 1610.23 1117.98 1610.23"/></g></svg>