<svg id="Слой_1" data-name="Слой 1" xmlns="http://www.w3.org/2000/svg" xmlns:xlink="http://www.w3.org/1999/xlink" viewBox="0 0 2660 2000"><defs><style>.cls-1{fill:#c5ecea;}.cls-2{fill:#00b7cb;}.cls-3{fill:#88dcf7;}.cls-4{fill:url(#Безымянный_градиент_179);}.cls-5{fill:#75e1f4;}.cls-6{fill:#fff;}.cls-7{fill:#00aaa3;}.cls-8{fill:#476782;}.cls-9{fill:#008187;}.cls-10{fill:#00e6da;}.cls-11{fill:#58b6cb;}.cls-12{fill:url(#Безымянный_градиент_179-2);}.cls-13{fill:url(#Безымянный_градиент_179-3);}.cls-14{fill:url(#Безымянный_градиент_142);}.cls-15{fill:#8b7b00;}.cls-16{fill:#c49400;}.cls-17{fill:#937b00;}.cls-18{fill:#fda100;}.cls-19{fill:#d16f00;}.cls-20{fill:#f78f00;}.cls-21{fill:#ffae00;}.cls-22{fill:#426582;}.cls-23{fill:#799a37;}.cls-24{fill:#285152;}.cls-25{fill:#dedede;}.cls-26{fill:#ff3f00;}.cls-27{fill:#b12e18;}.cls-28{fill:#f30;}.cls-29{fill:#ff7900;}.cls-30{fill:#6093b1;}.cls-31{fill:#ffb100;}</style><linearGradient id="Безымянный_градиент_179" x1="1611.38" y1="1692.24" x2="1611.38" y2="-237.6" gradientUnits="userSpaceOnUse"><stop offset="0.23" stop-color="#53d9f1"/><stop offset="0.98" stop-color="#55d9f1"/></linearGradient><linearGradient id="Безымянный_градиент_179-2" x1="637.82" y1="686.74" x2="639.69" y2="1038.33" xlink:href="#Безымянный_градиент_179"/><linearGradient id="Безымянный_градиент_179-3" x1="400.27" y1="835.39" x2="588.31" y2="835.39" xlink:href="#Безымянный_градиент_179"/><linearGradient id="Безымянный_градиент_142" x1="698.91" y1="802.08" x2="700.87" y2="1169.97" gradientTransform="translate(1399.48 1915.23) rotate(180)" gradientUnits="userSpaceOnUse"><stop offset="0.02" stop-color="#58b6cb"/><stop offset="0.14" stop-color="#57bed3"/><stop offset="0.52" stop-color="#54d2e9"/><stop offset="0.77" stop-color="#53d9f1"/></linearGradient></defs><g id="Background"><rect id="Background-2" data-name="Background" class="cls-1" x="400" y="300" width="1860" height="1400"/><rect class="cls-2" x="400" y="519.09" width="1860" height="1180.91"/></g><polygon id="City_silhouette" data-name="City silhouette" class="cls-3" points="1610.7 439.71 1610.7 541.24 400 541.24 400 461.63 480.69 461.63 480.69 436.67 538.6 436.67 538.6 523.21 571.69 523.21 571.69 462.5 629.6 462.5 629.6 523.21 645.14 523.21 645.14 421.86 703.05 421.86 703.05 467.87 758.16 467.87 758.16 523.21 985.95 523.21 985.95 421.86 1043.86 421.86 1043.86 523.21 1058.66 523.21 1058.66 465.86 1130.17 465.86 1130.17 431.33 1228.17 431.33 1228.17 523.21 1242.4 523.21 1242.4 431.32 1291.4 431.32 1291.4 456.72 1341.6 456.72 1341.6 523.21 1353.49 523.21 1353.49 413.92 1398.96 413.92 1398.96 450.98 1435 450.98 1435 477.43 1521.71 477.43 1521.71 523.21 1555.16 523.21 1555.16 439.71 1610.7 439.71"/><g id="River"><path class="cls-4" d="M2260,1356.41V1700H962.82l-.06-.44h17.87V816.71l715.73-250.43c13.22-4.63,9.88-25.18-4.13-25.16l-147.62.26-146.32-22.73h709.39L1742.11,802.39a55.83,55.83,0,0,0-3.38,85.36Z"/><g id="B"><path class="cls-5" d="M1738.68,914.13h-47.34a131.19,131.19,0,0,0-28.45,3.17V903.39h58a2,2,0,0,0,0-4H1573.54v-4.27h141a2,2,0,0,0,0-4h-141v-8.54h-4v8.54H1333.93v-8.54h-4v8.54h-236.3v-8.54h-4v8.54h-109v4h109v4.27h-109v4h18.94V918a129,129,0,0,0-18.94-2.54v4a123.07,123.07,0,0,1,103.17,68l5.83,11.5v4.8a2,2,0,1,0,4,0v-3.22l6.86-13.68a123.94,123.94,0,0,1,47.66-51.51,125.46,125.46,0,0,1,63.56-17.26h.23a125.47,125.47,0,0,1,63.39,17,124.08,124.08,0,0,1,47.84,51.35l6.76,13.36v3.93a2,2,0,0,0,4,0V999.6l6.41-12.78A124,124,0,0,1,1388,935.31a125.5,125.5,0,0,1,63.57-17.26h.22a125.48,125.48,0,0,1,63.4,17A124,124,0,0,1,1563,986.43l6.53,12.9v4.39a2,2,0,1,0,4,0v-3.64l6.59-13.15a124,124,0,0,1,47.65-51.53,125.57,125.57,0,0,1,63.56-17.27h47.34a2,2,0,0,0,0-4Zm-709.16,14.11a126.58,126.58,0,0,0-26.95-9.62V903.39h26.95Zm30,20.46a126.68,126.68,0,0,0-27-18.94V903.39h27Zm30.16,41.37-2.26-4.46a129.93,129.93,0,0,0-24.9-34.06V903.39h27.16Zm30.45-37.71A130.93,130.93,0,0,0,1096.92,985l-3.29,6.55V903.39h26.45Zm30-22.72q-2,1.08-3.92,2.22a124.53,124.53,0,0,0-23,17.51v-46h27ZM1180,918a128.17,128.17,0,0,0-27,10.07V903.39h27Zm30-3.92a130.46,130.46,0,0,0-27,3.21V903.39h27Zm30,3a130.37,130.37,0,0,0-27-3V903.39h27Zm29.95,10.51a128,128,0,0,0-26.95-9.82V903.39h26.95Zm30,20.87a124.63,124.63,0,0,0-22.42-16.8c-1.49-.87-3-1.72-4.53-2.52V903.39h27Zm30.15,42.51-3.19-6.31a131.2,131.2,0,0,0-24-33.29v-48h27.15Zm0-91.55h-236.3v-4.27h236.3Zm30.45,52.51A130.71,130.71,0,0,0,1336.76,985l-2.83,5.64V903.39h26.45Zm29.95-22.5q-2.2,1.19-4.37,2.46a124.79,124.79,0,0,0-22.58,17.08V903.39h26.95Zm30-11.53a128.48,128.48,0,0,0-27,10V903.39h27Zm30-3.81a130.54,130.54,0,0,0-27,3.11V903.39h27Zm30,3.1a130.37,130.37,0,0,0-27-3.1V903.39h27Zm30,10.63a128.31,128.31,0,0,0-27-9.93V903.39h27Zm29.95,21.08a124.94,124.94,0,0,0-22.89-17.24q-2-1.17-4.06-2.27v-26h26.95Zm29.45,41.61-3-5.85a130.56,130.56,0,0,0-23.49-32.81V903.39h26.45Zm0-91.09H1333.93v-4.27h235.61ZM1600,952.18a131.13,131.13,0,0,0-23.44,33l-3,6V903.39H1600Zm30-22.6q-2.12,1.14-4.2,2.37A124.87,124.87,0,0,0,1603,949.21V903.39h27Zm30-11.57a128.17,128.17,0,0,0-27,10V903.39h27Z"/><path class="cls-6" d="M1708.77,861.83a2,2,0,0,0,0-4h-45.38V844.07a132.46,132.46,0,0,0,24.25,3l21.12.09h0a2,2,0,0,0,0-4l-21.07-.09c-46.49-1.4-86.71-27.1-107.58-68.73l-6.59-13.16v-3.63a2,2,0,0,0-4,0v4.38l-6.53,12.9a123.87,123.87,0,0,1-47.83,51.35q-2.22,1.3-4.5,2.51a124,124,0,0,1-29.39,11.07l-.19,0a127.41,127.41,0,0,1-29.16,3.41h-.41A125.49,125.49,0,0,1,1388,825.92a124,124,0,0,1-47.65-51.52l-6.41-12.78v-4.11a2,2,0,0,0-4,0v3.92l-6.76,13.36a122.67,122.67,0,0,1-82.17,65l-.22,0a127.52,127.52,0,0,1-28.85,3.3h-.22a125.46,125.46,0,0,1-63.56-17.26,124,124,0,0,1-47.66-51.52l-6.86-13.67v-3.22a2,2,0,0,0-4,0v4.8l-5.83,11.5a123,123,0,0,1-103.17,68v4a127.76,127.76,0,0,0,18.44-2.44v14.44H980.63v4h109v4.27h-109v4h109v12.48h4V870.1h236.3v12.48h4V870.1h235.61v12.48h4V870.1h135.23a2,2,0,0,0,0-4H1573.54v-4.27Zm-75.33-28.3a126.24,126.24,0,0,0,26,9.6v14.7h-26Zm-30-21a124.88,124.88,0,0,0,26,18.89v26.4h-26Zm-30-42.46,3,6a131,131,0,0,0,22.94,32.49v49.25h-26ZM1029,857.83h-25.95V842.5a126.19,126.19,0,0,0,25.95-9.26Zm30,0h-26V831.21A126.53,126.53,0,0,0,1059,813Zm30.66,0H1063V809.19a130.08,130.08,0,0,0,24.4-33.57l2.26-4.46Zm183.7-26q2-1.08,4-2.25a124.35,124.35,0,0,0,21.92-16.32v44.56h-26Zm-29.95,11.53a128.12,128.12,0,0,0,25.95-9.46v23.92h-25.95Zm-30,3.8a130.57,130.57,0,0,0,26-2.89v13.55h-26Zm-30-3.11a131.48,131.48,0,0,0,26,3.1v10.67h-26Zm-30-10.64a127.8,127.8,0,0,0,26,9.69v14.72h-26Zm-30-21.09a124.69,124.69,0,0,0,22.53,17c1.13.67,2.27,1.32,3.42,1.94v26.52h-26Zm-29.95-42.68,3.29,6.55a130.51,130.51,0,0,0,22.66,32.14v49.49h-25.95Zm236.3,96.45h-236.3v-4.27h236.3Zm0-8.27h-26.65V809.37a130.93,130.93,0,0,0,23.46-32.77l3.19-6.32Zm183.71-26.24c1.2-.64,2.39-1.31,3.56-2a124.2,124.2,0,0,0,22.39-16.76v45h-25.95Zm-30,11.66a128,128,0,0,0,26-9.57v24.15h-26Zm-30,3.91a130.71,130.71,0,0,0,26-3v13.64h-26Zm-30-3a131.56,131.56,0,0,0,26,3v10.67h-26Zm-30-10.52a128.11,128.11,0,0,0,26,9.57v14.61h-26Zm-29.95-20.9A124.69,124.69,0,0,0,1386,829.37q1.92,1.14,3.87,2.19v26.27h-25.95Zm-30-42.2,2.83,5.65a131,131,0,0,0,23.12,32.61v49h-26Zm235.61,95.55H1333.93v-4.27h235.61Zm0-8.27h-26V808.89a130.79,130.79,0,0,0,23-32.29l3-5.85Z"/></g><path class="cls-6" d="M1657.21,1324.7H1458.27a2,2,0,0,1,0-4h198.94a2,2,0,0,1,0,4Z"/><path class="cls-6" d="M1808.06,1324.7H1696.61a2,2,0,0,1,0-4h111.45a2,2,0,0,1,0,4Z"/><path class="cls-6" d="M1713.9,1340.06H1547.08a2,2,0,0,1,0-4H1713.9a2,2,0,0,1,0,4Z"/><path class="cls-6" d="M1525.09,1340.06h-6.59a2,2,0,0,1,0-4h6.59a2,2,0,0,1,0,4Z"/><path class="cls-6" d="M1472.85,1048.41h-34.61a2,2,0,0,1,0-4h34.61a2,2,0,0,1,0,4Z"/><path class="cls-6" d="M1552.51,1048.41h-52.86a2,2,0,0,1,0-4h52.86a2,2,0,0,1,0,4Z"/><path class="cls-6" d="M1419.43,1048.41h-2.62a2,2,0,0,1,0-4h2.62a2,2,0,0,1,0,4Z"/><path class="cls-6" d="M1440.46,1035.82h-53.68a2,2,0,0,1,0-4h53.68a2,2,0,0,1,0,4Z"/><path class="cls-6" d="M1616.21,1035.82H1460.69a2,2,0,0,1,0-4h155.52a2,2,0,0,1,0,4Z"/><path class="cls-2" d="M1881,1140.31v4H1748.43v-4h41.45l-92.33-96.44,8.46-4.77,84.22,85.3c2.43,2.46,9.37,6.06,12.83,6.06h47.11a13.34,13.34,0,0,1,12.88,9.85Z"/><rect class="cls-2" x="1751.49" y="1128.47" width="16.22" height="4"/><rect class="cls-2" x="1789.31" y="1152.69" width="63.21" height="4"/><rect class="cls-2" x="1863.29" y="1152.69" width="6.71" height="4"/><polygon class="cls-7" points="1863.52 1109.33 1793.23 1109.33 1698.1 1020.09 1752.61 1020.09 1863.52 1109.33"/><polygon class="cls-8" points="1846 1109.33 1793.23 1109.33 1707.53 1029.14 1749.6 1029.14 1846 1109.33"/><path class="cls-9" d="M1831.62,1130.46l-26.81,0a20.51,20.51,0,0,1-14.58-6.08l-82.48-83.31a22.94,22.94,0,0,1-6.63-16.14v-1.84l92.11,86.22h-.8v.09a21.16,21.16,0,0,0,21.28,21Z"/><path class="cls-7" d="M1863.52,1109.33v.09a21.15,21.15,0,0,1-21.27,21h-28.54a21.16,21.16,0,0,1-21.28-21v-.09Z"/><path class="cls-10" d="M1863.52,1110.83a1.52,1.52,0,0,1-.94-.33l-110.5-88.91h-50.19l92.37,86.64a1.51,1.51,0,0,1,.07,2.12,1.49,1.49,0,0,1-2.12.07l-95.14-89.24a1.5,1.5,0,0,1,1-2.59h54.51a1.54,1.54,0,0,1,.94.33l110.91,89.24a1.5,1.5,0,0,1-.94,2.67Z"/><path class="cls-6" d="M1863.52,1110.83h-70.29a1.5,1.5,0,0,1,0-3h70.29a1.5,1.5,0,0,1,0,3Z"/><polygon class="cls-11" points="1797.65 1081.5 1797.65 1102.33 1786.25 1090.9 1786.25 1071.94 1797.65 1081.5"/><polygon class="cls-6" points="1845.42 1081.5 1797.65 1081.5 1786.26 1071.94 1832.03 1071.94 1845.42 1081.5"/><rect class="cls-8" x="1797.65" y="1087.53" width="47.77" height="20.13"/><rect class="cls-6" x="1797.65" y="1081.5" width="47.77" height="20.83"/><rect class="cls-8" x="1802.69" y="1086.87" width="17.69" height="2.47"/><rect class="cls-8" x="1823.38" y="1086.87" width="17.69" height="2.47"/><path class="cls-6" d="M1825.54,1071.94h-1.67l-8.21-16.59v16.59h-1.5v-16.49l-7.83,16.49h-1.67l9.57-20.13a.76.76,0,0,1,.68-.43.85.85,0,0,1,.67.41Z"/><rect class="cls-6" x="1814.16" y="1043.37" width="1.5" height="1.59"/><rect class="cls-6" x="1812.25" y="1047.21" width="5.32" height="1.5"/><rect class="cls-11" x="1797.65" y="1081.5" width="47.77" height="2"/></g><g id="Ferris_wheel" data-name="Ferris wheel"><path class="cls-6" d="M2177.18,581.21a10.48,10.48,0,0,0-8.88,4.92,271.9,271.9,0,0,0-17.84-90.83,11.51,11.51,0,0,0,1.17.57,10.49,10.49,0,1,0-6.08-12.49,264.74,264.74,0,0,0-52.29-77.72,10.9,10.9,0,0,0,2.34.26,10.48,10.48,0,1,0-10.2-8.05A263.23,263.23,0,0,0,2003.92,345a10.1,10.1,0,0,0,1.45.1,10.49,10.49,0,1,0-6.08-2,272.63,272.63,0,0,0-92.48-18.39,10.44,10.44,0,0,0,3-4.12,10.33,10.33,0,0,0,0-8,10.48,10.48,0,0,0-13.69-5.67,10.49,10.49,0,0,0-2.64,17.79,272.52,272.52,0,0,0-92.36,18.09,10.45,10.45,0,0,0,1.69-2.78,10.33,10.33,0,0,0,0-8,10.48,10.48,0,0,0-13.69-5.67,10.49,10.49,0,0,0,0,19.37,10.7,10.7,0,0,0,3,.75,263.69,263.69,0,0,0-79.48,52.88,10.49,10.49,0,1,0-5.9,5.88,265.38,265.38,0,0,0-53.47,79.87,10.48,10.48,0,1,0-3.78,9.24,272.22,272.22,0,0,0-18.28,93.9,10.48,10.48,0,1,0,0,7.09,272.79,272.79,0,0,0,17.6,95,10.53,10.53,0,0,0-2.18-1.22,10.49,10.49,0,1,0,5.67,13.69,11.13,11.13,0,0,0,.65-2.23,265.22,265.22,0,0,0,51.8,78.61,10.47,10.47,0,1,0,9,10.36,12.32,12.32,0,0,0-.1-1.5,263.38,263.38,0,0,0,78.64,52l-12.18,28.69a5,5,0,1,0,9.2,3.9l12.24-28.83A277.11,277.11,0,0,0,1999,843.4l11.3,26.39a5,5,0,1,0,9.19-3.93l-11.24-26.26a263.27,263.27,0,0,0,76.56-50.53A10.48,10.48,0,1,0,2094.94,779a265.31,265.31,0,0,0,51-77c.08.24.16.47.26.7a10.39,10.39,0,0,0,5.67,5.68,10.45,10.45,0,0,0,8,0,10.49,10.49,0,0,0,5.67-13.7,10.29,10.29,0,0,0-5.67-5.67,10.42,10.42,0,0,0-8,0c-.28.12-.56.25-.83.39a272.48,272.48,0,0,0,17.27-92.1,10.48,10.48,0,1,0,8.83-16.12ZM1648,488.29a5.47,5.47,0,1,1-3-7.17A5.49,5.49,0,0,1,1648,488.29Zm-26.6,108.88a5.48,5.48,0,1,1,5.48-5.48A5.49,5.49,0,0,1,1621.39,597.17Zm26.32,103.65a5.48,5.48,0,1,1,0-4.2A5.46,5.46,0,0,1,1647.71,700.82Zm505.84-219.7a5.48,5.48,0,1,1-3,7.17A5.44,5.44,0,0,1,2153.55,481.12Zm-61.83-89.56a5.48,5.48,0,1,1,0,7.76A5.45,5.45,0,0,1,2091.72,391.56Zm-91.4-59.08a5.46,5.46,0,0,1,3-3,5.37,5.37,0,0,1,4.2,0,5.48,5.48,0,1,1-7.17,3Zm-105.2-18a5.44,5.44,0,0,1,3-3,5.34,5.34,0,0,1,4.2,0,5.48,5.48,0,1,1-7.16,7.16A5.37,5.37,0,0,1,1895.12,314.48Zm-104,26.58a5.46,5.46,0,0,1-3-3,5.37,5.37,0,0,1,0-4.2,5.44,5.44,0,0,1,3-3,5.48,5.48,0,1,1,0,10.13Zm-92,58.26a5.48,5.48,0,1,1,7.75,0A5.49,5.49,0,0,1,1699.1,399.32Zm8,394a5.5,5.5,0,1,1,1.6-3.88A5.49,5.49,0,0,1,1707.13,793.35Zm92.31,29.78a245.52,245.52,0,0,1-75.4-50.62L1884.5,612.05a24.5,24.5,0,0,0,3.55,2.39Zm123.65-223a23.33,23.33,0,0,0,.88-4.43h226.1a253.77,253.77,0,0,1-17.63,91.15Zm207.46,91.35A247,247,0,0,1,2079.12,769L1918.66,608.51a24.58,24.58,0,0,0,2.52-3.75ZM1924,590.7a23.33,23.33,0,0,0-.88-4.43l209.35-86.72a253.77,253.77,0,0,1,17.63,91.15Zm-2.79-9.06a24.58,24.58,0,0,0-2.52-3.75l160.46-160.46a247,247,0,0,1,51.43,77.49Zm-6.06-7.29a24.37,24.37,0,0,0-3.76-2.51l86.75-209.44a245.46,245.46,0,0,1,77.47,51.49Zm-8.38-4.42a22.44,22.44,0,0,0-4.43-.89V342.94a254.23,254.23,0,0,1,91.17,17.57Zm11.14,23.27a18.07,18.07,0,1,1-18.07-18.07A18.07,18.07,0,0,1,1917.88,593.2Zm73.94,233.33a254.62,254.62,0,0,1-89.51,16.92v-226l0-.12h0v.13Zm-183.12.35,88.61-208.67V843.45A254.45,254.45,0,0,1,1808.7,826.88ZM1897.31,569a22.44,22.44,0,0,0-4.43.89l-86.74-209.42a254.23,254.23,0,0,1,91.17-17.57Zm-9,2.8a24.37,24.37,0,0,0-3.76,2.51L1724,413.89a245.46,245.46,0,0,1,77.47-51.49Zm-7.3,6a24.58,24.58,0,0,0-2.52,3.75l-209.36-86.72a246.92,246.92,0,0,1,51.42-77.49Zm-4.43,8.37a23.28,23.28,0,0,0-.88,4.44H1649.56a253.55,253.55,0,0,1,17.63-91.15Zm-.88,9.44a23.28,23.28,0,0,0,.88,4.44l-209.34,86.71a253.55,253.55,0,0,1-17.63-91.15Zm2.79,9.06a24.58,24.58,0,0,0,2.52,3.75L1720.5,769a246.92,246.92,0,0,1-51.42-77.49Zm21.37,252a268.39,268.39,0,0,1-96.32-17.62l3.26-7.67a263.42,263.42,0,0,0,187-.36l3.28,7.67A268.38,268.38,0,0,1,1899.81,856.78Zm12-242.49a23.83,23.83,0,0,0,3.29-2.24l160.46,160.46a245.48,245.48,0,0,1-74.51,50.23ZM2095.32,784a5.48,5.48,0,1,1-3.88,1.6A5.52,5.52,0,0,1,2095.32,784Zm58.5-90.33a5.49,5.49,0,1,1-3,7.16,5.37,5.37,0,0,1,0-4.2A5.44,5.44,0,0,1,2153.82,693.66Zm-66.42,85.92A258.84,258.84,0,0,1,2006.32,835l-3.28-7.66a250.74,250.74,0,0,0,78.45-53.64c47.46-47.87,73.6-112,73.6-180.5s-26.14-132.63-73.6-180.5c-47.82-48.22-112.34-74.78-181.68-74.78S1766,364.48,1718.14,412.7c-47.46,47.87-73.6,112-73.6,180.5s26.14,132.63,73.6,180.5a250.43,250.43,0,0,0,79.35,54l-3.26,7.67a258.92,258.92,0,0,1-82-55.82c-49-49.41-76-115.61-76-186.38s27-137,76-186.39c49.36-49.77,116-77.19,187.59-77.19S2038.05,357,2087.4,406.81c49,49.42,76,115.62,76,186.39S2136.4,730.17,2087.4,779.58Zm89.78-182.41a5.48,5.48,0,1,1,5.48-5.48A5.49,5.49,0,0,1,2177.18,597.17Z"/><circle class="cls-6" cx="1899.81" cy="593.2" r="7.98"/></g><g id="Buildings"><rect class="cls-12" x="594.24" y="766.38" width="88.73" height="138.02"/><rect class="cls-13" x="400.27" y="766.38" width="188.03" height="138.02"/><rect class="cls-2" x="400" y="766.8" width="283.18" height="7.9" transform="translate(1083.18 1541.5) rotate(-180)"/><path class="cls-2" d="M534.74,784.69h11.81a0,0,0,0,1,0,0v12.63a2.18,2.18,0,0,1-2.18,2.18h-7.11a2.53,2.53,0,0,1-2.53-2.53V784.69a0,0,0,0,1,0,0Z" transform="translate(1081.29 1584.19) rotate(-180)"/><path class="cls-2" d="M497.3,784.69h11.81a0,0,0,0,1,0,0v12.63a2.18,2.18,0,0,1-2.18,2.18h-7.11A2.53,2.53,0,0,1,497.3,797V784.69A0,0,0,0,1,497.3,784.69Z" transform="translate(1006.4 1584.19) rotate(-180)"/><path class="cls-2" d="M459.85,784.69h11.81a0,0,0,0,1,0,0v12.63a2.18,2.18,0,0,1-2.18,2.18h-7.11a2.53,2.53,0,0,1-2.53-2.53V784.69A0,0,0,0,1,459.85,784.69Z" transform="translate(931.52 1584.19) rotate(-180)"/><path class="cls-2" d="M422.41,784.69h11.81a0,0,0,0,1,0,0v12.63A2.18,2.18,0,0,1,432,799.5h-7.11a2.53,2.53,0,0,1-2.53-2.53V784.69A0,0,0,0,1,422.41,784.69Z" transform="translate(856.63 1584.19) rotate(-180)"/><path class="cls-2" d="M649,784.69H660.8a0,0,0,0,1,0,0v12.63a2.18,2.18,0,0,1-2.18,2.18h-7.11A2.53,2.53,0,0,1,649,797V784.69A0,0,0,0,1,649,784.69Z" transform="translate(1309.8 1584.19) rotate(-180)"/><path class="cls-2" d="M618.41,784.69h11.81a0,0,0,0,1,0,0v12.63A2.18,2.18,0,0,1,628,799.5h-7.11a2.53,2.53,0,0,1-2.53-2.53V784.69A0,0,0,0,1,618.41,784.69Z" transform="translate(1248.63 1584.19) rotate(-180)"/><path class="cls-2" d="M649,816.15H660.8a0,0,0,0,1,0,0v12.63a2.18,2.18,0,0,1-2.18,2.18h-7.11a2.53,2.53,0,0,1-2.53-2.53V816.15a0,0,0,0,1,0,0Z" transform="translate(1309.8 1647.1) rotate(-180)"/><path class="cls-2" d="M618.41,816.15h11.81a0,0,0,0,1,0,0v12.63A2.18,2.18,0,0,1,628,831h-7.11a2.53,2.53,0,0,1-2.53-2.53V816.15A0,0,0,0,1,618.41,816.15Z" transform="translate(1248.63 1647.1) rotate(-180)"/><path class="cls-2" d="M649,847.6H660.8a0,0,0,0,1,0,0v12.63a2.18,2.18,0,0,1-2.18,2.18h-7.11a2.53,2.53,0,0,1-2.53-2.53V847.6a0,0,0,0,1,0,0Z" transform="translate(1309.8 1710.02) rotate(-180)"/><path class="cls-2" d="M618.41,847.6h11.81a0,0,0,0,1,0,0v12.63a2.18,2.18,0,0,1-2.18,2.18h-7.11a2.53,2.53,0,0,1-2.53-2.53V847.6A0,0,0,0,1,618.41,847.6Z" transform="translate(1248.63 1710.02) rotate(-180)"/><path class="cls-2" d="M534.74,816.15h11.81a0,0,0,0,1,0,0v12.63a2.18,2.18,0,0,1-2.18,2.18h-7.11a2.53,2.53,0,0,1-2.53-2.53V816.15A0,0,0,0,1,534.74,816.15Z" transform="translate(1081.29 1647.1) rotate(-180)"/><path class="cls-2" d="M497.3,816.15h11.81a0,0,0,0,1,0,0v12.63a2.18,2.18,0,0,1-2.18,2.18h-7.11a2.53,2.53,0,0,1-2.53-2.53V816.15A0,0,0,0,1,497.3,816.15Z" transform="translate(1006.4 1647.1) rotate(-180)"/><path class="cls-2" d="M459.85,816.15h11.81a0,0,0,0,1,0,0v12.63a2.18,2.18,0,0,1-2.18,2.18h-7.11a2.53,2.53,0,0,1-2.53-2.53V816.15A0,0,0,0,1,459.85,816.15Z" transform="translate(931.52 1647.1) rotate(-180)"/><path class="cls-2" d="M422.41,816.15h11.81a0,0,0,0,1,0,0v12.63A2.18,2.18,0,0,1,432,831h-7.11a2.53,2.53,0,0,1-2.53-2.53V816.15A0,0,0,0,1,422.41,816.15Z" transform="translate(856.63 1647.1) rotate(-180)"/><path class="cls-2" d="M534.74,847.6h11.81a0,0,0,0,1,0,0v12.63a2.18,2.18,0,0,1-2.18,2.18h-7.11a2.53,2.53,0,0,1-2.53-2.53V847.6A0,0,0,0,1,534.74,847.6Z" transform="translate(1081.29 1710.02) rotate(-180)"/><path class="cls-2" d="M497.3,847.6h11.81a0,0,0,0,1,0,0v12.63a2.18,2.18,0,0,1-2.18,2.18h-7.11a2.53,2.53,0,0,1-2.53-2.53V847.6A0,0,0,0,1,497.3,847.6Z" transform="translate(1006.4 1710.02) rotate(-180)"/><path class="cls-2" d="M459.85,847.6h11.81a0,0,0,0,1,0,0v12.63a2.18,2.18,0,0,1-2.18,2.18h-7.11a2.53,2.53,0,0,1-2.53-2.53V847.6A0,0,0,0,1,459.85,847.6Z" transform="translate(931.52 1710.02) rotate(-180)"/><path class="cls-2" d="M422.41,847.6h11.81a0,0,0,0,1,0,0v12.63a2.18,2.18,0,0,1-2.18,2.18h-7.11a2.53,2.53,0,0,1-2.53-2.53V847.6A0,0,0,0,1,422.41,847.6Z" transform="translate(856.63 1710.02) rotate(-180)"/><path class="cls-7" d="M695,767.33H400.27l-.27-.48V702.74H625.61A48.63,48.63,0,0,1,666,724.25Z"/><rect class="cls-10" x="400.27" y="765.34" width="294.69" height="4"/><rect class="cls-14" x="608.65" y="885.64" width="182.19" height="143.95" transform="translate(1399.48 1915.23) rotate(-180)"/><rect class="cls-2" x="505.32" y="885.64" width="103.33" height="143.95" transform="translate(1113.96 1915.23) rotate(-180)"/><path class="cls-9" d="M479.34,885.47l36-51.61a46.86,46.86,0,0,1,38.41-20.06H751.92a46.86,46.86,0,0,1,38.41,20.06l36,51.61Z"/><rect class="cls-7" x="505.32" y="885.64" width="285.52" height="8.7" transform="translate(1296.15 1779.99) rotate(-180)"/><path class="cls-2" d="M722.81,911.78h14.58a0,0,0,0,1,0,0v25.61a3.49,3.49,0,0,1-3.49,3.49H722.81a0,0,0,0,1,0,0V911.78A0,0,0,0,1,722.81,911.78Z" transform="translate(1460.2 1852.66) rotate(-180)"/><path class="cls-7" d="M731.12,911.77c2.83,0,5.12,1.62,5.12,3.61v25.51h5.13V915.38c0-2-2.3-3.61-5.13-3.61Z"/><rect class="cls-6" x="722.81" y="938.94" width="18.56" height="3.88"/><path class="cls-2" d="M679.1,911.78h14.58a0,0,0,0,1,0,0v25.61a3.49,3.49,0,0,1-3.49,3.49H679.1a0,0,0,0,1,0,0V911.78A0,0,0,0,1,679.1,911.78Z" transform="translate(1372.77 1852.66) rotate(-180)"/><path class="cls-7" d="M687.67,911.77c2.76,0,5,1.62,5,3.61v25.51h5V915.38c0-2-2.23-3.61-5-3.61Z"/><rect class="cls-6" x="679.1" y="938.94" width="18.56" height="3.88"/><path class="cls-2" d="M632.37,911.78h14.58a0,0,0,0,1,0,0v25.61a3.49,3.49,0,0,1-3.49,3.49H632.37a0,0,0,0,1,0,0V911.78A0,0,0,0,1,632.37,911.78Z" transform="translate(1279.31 1852.66) rotate(-180)"/><path class="cls-7" d="M640.67,911.77c2.83,0,5.13,1.62,5.13,3.61v25.51h5.12V915.38c0-2-2.29-3.61-5.12-3.61Z"/><rect class="cls-6" x="632.37" y="938.94" width="18.56" height="3.88"/><path class="cls-2" d="M722.81,968.79h14.58a0,0,0,0,1,0,0V994.4a3.49,3.49,0,0,1-3.49,3.49H722.81a0,0,0,0,1,0,0V968.79A0,0,0,0,1,722.81,968.79Z" transform="translate(1460.2 1966.69) rotate(-180)"/><path class="cls-7" d="M731.12,968.79c2.83,0,5.12,1.61,5.12,3.61v25.5h5.13V972.4c0-2-2.3-3.61-5.13-3.61Z"/><rect class="cls-6" x="722.81" y="995.96" width="18.56" height="3.88"/><path class="cls-2" d="M679.1,968.79h14.58a0,0,0,0,1,0,0V994.4a3.49,3.49,0,0,1-3.49,3.49H679.1a0,0,0,0,1,0,0V968.79A0,0,0,0,1,679.1,968.79Z" transform="translate(1372.77 1966.69) rotate(-180)"/><path class="cls-7" d="M687.67,968.79c2.76,0,5,1.61,5,3.61v25.5h5V972.4c0-2-2.23-3.61-5-3.61Z"/><rect class="cls-6" x="679.1" y="995.96" width="18.56" height="3.88"/><path class="cls-2" d="M632.37,968.79h14.58a0,0,0,0,1,0,0V994.4a3.49,3.49,0,0,1-3.49,3.49H632.37a0,0,0,0,1,0,0V968.79a0,0,0,0,1,0,0Z" transform="translate(1279.31 1966.69) rotate(-180)"/><path class="cls-7" d="M640.67,968.79c2.83,0,5.13,1.61,5.13,3.61v25.5h5.12V972.4c0-2-2.29-3.61-5.12-3.61Z"/><rect class="cls-6" x="632.37" y="995.96" width="18.56" height="3.88"/><path class="cls-6" d="M480.56,886.09l-2.44-1.73L514.66,833a49.33,49.33,0,0,1,40.12-20.7H765.09v3H554.78a46.34,46.34,0,0,0-37.68,19.44Z"/><path class="cls-15" d="M505.28,922.21v107.38H400v-15.21a45.59,45.59,0,0,1,45.59-45.59h14.78A66.07,66.07,0,0,1,505.28,922.21Z"/><path class="cls-16" d="M622.22,1029.59H433.07a42.78,42.78,0,0,1,42.84-42.78c35.75.07,81.09.18,82.58.36C582.91,989.78,605.07,1005.37,622.22,1029.59Z"/><path class="cls-16" d="M505.28,885.22V907.4h-105V841.79h14.52a30.14,30.14,0,0,1,30.15,30.14v13.33Z"/><path class="cls-15" d="M453.27,907.4H400v-45h7.16a19.06,19.06,0,0,1,19.07,19.06v6.78h3.42A24.14,24.14,0,0,1,453.27,907.4Z"/></g><g id="Plants"><path class="cls-17" d="M837.5,541.23H581.94a33,33,0,0,1-7.31-11.46,43.85,43.85,0,0,1-2.93-16c0-18.75,11.09-33.95,24.77-33.95,11.46,0,21.11,10.67,23.94,25.16.26-.28.52-.56.79-.83a42.16,42.16,0,0,1,30.28-12.91c16.76,0,31.29,10,38.44,24.48a41.85,41.85,0,0,1,51.39-1.2c3-21,17.45-36.88,34.87-36.88,17.77,0,32.47,16.56,35,38.14C822.92,518.23,832.68,528,837.5,541.23Z"/><path class="cls-16" d="M798,487.12a19.68,19.68,0,0,0-3.08-.23c-14,0-25.66,13.59-28,31.5a50.8,50.8,0,0,0-.45,6.81,49.25,49.25,0,0,0,2.62,16H705.09a37.73,37.73,0,0,1,17-12.58A32.52,32.52,0,0,1,733,526.78c.9,0,1.77,0,2.65.11a32.41,32.41,0,0,1,5.33.89c-.17-1.74-.25-3.52-.25-5.32a56.29,56.29,0,0,1,.56-8c3-21,17.44-36.89,34.87-36.89C784.4,477.61,792,481.16,798,487.12Z"/><path class="cls-17" d="M1218.89,522.47a54.81,54.81,0,0,1-3.24,18.76h-64.36a54.57,54.57,0,0,1-3.25-18.76,57.9,57.9,0,0,1,.55-8c3-21,17.45-36.88,34.88-36.88,17.83,0,32.58,16.68,35,38.37A55.34,55.34,0,0,1,1218.89,522.47Z"/><path class="cls-17" d="M1244.79,541.23h-64.38c4.68-12.85,14-22.43,25.29-25.25a28.29,28.29,0,0,1,6.9-.85C1226.88,515.13,1239.18,525.82,1244.79,541.23Z"/><path class="cls-15" d="M1165.77,541.23H989.23a33,33,0,0,1-7.31-11.46,43.85,43.85,0,0,1-2.94-16c0-.63,0-1.25,0-1.87.71-17.88,11.52-32.08,24.74-32.08,11.46,0,21.11,10.67,23.94,25.16.26-.28.52-.56.79-.83a42.15,42.15,0,0,1,30.28-12.91c16.76,0,31.29,10,38.44,24.48a41.84,41.84,0,0,1,51.38-1.2A45,45,0,0,1,1165.77,541.23Z"/><path class="cls-16" d="M1022.28,541.23H837.5a35.2,35.2,0,0,1,35.2-35h87.91A33.43,33.43,0,0,1,979,511.87c0,.62,0,1.24,0,1.87a43.78,43.78,0,0,0,2.77,15.58c.57-.24,1.15-.46,1.73-.67a32.48,32.48,0,0,1,10.88-1.87c.89,0,1.77,0,2.65.11C1007,527.7,1015.91,533.06,1022.28,541.23Z"/><path class="cls-15" d="M1431.41,512.5c16.82-8.62,42.46-16.68,72.22-18.55,7.3-.46,14.85-.7,22.57-.7,46.68,0,86.88,12.7,105.23,25.4H1494.14a43.66,43.66,0,0,1,14.94,22.58H1407a43.46,43.46,0,0,1,15-22.58Z"/><path class="cls-15" d="M1417,526.48a34,34,0,0,1-3.35,14.75h-66.35a34.39,34.39,0,0,1-2.77-21c3.06-16.49,18-29,36-29,18.38,0,33.58,13.11,36.14,30.17A33,33,0,0,1,1417,526.48Z"/><path class="cls-15" d="M1169.63,513.74c0-18.75,11.43-33.95,25.54-33.95,11.82,0,21.77,10.68,24.68,25.17l.82-.84a44.26,44.26,0,0,1,70.84,11.57,44.19,44.19,0,0,1,53-1.2,44.85,44.85,0,0,1,17.7,26.74h-192Z"/><path class="cls-16" d="M1148.6,514.5c3-21,17.44-37.89,34.87-37.89,10.48,0,20.5,3.18,27.84,11a19.81,19.81,0,0,0-3.09-.23c-14,0-31.69,13.14-34.08,31.05a50.8,50.8,0,0,0-.45,6.81,49.7,49.7,0,0,0,.77,8.81,36.52,36.52,0,0,1,10.11-5.36,34.39,34.39,0,0,1,11.22-1.87c.92,0,1.83,0,2.73.11,10.29.81,19.48,6.17,26.06,14.34h-112.2a37.73,37.73,0,0,1,17-12.58,32.48,32.48,0,0,1,10.88-1.87h7.89Z"/><path class="cls-16" d="M1402.9,498.68a27.74,27.74,0,0,0-3.18-.17c-14.45,0-26.44,10.68-28.91,24.76a31.61,31.61,0,0,0-.46,5.36,30.7,30.7,0,0,0,2.69,12.6h-65.9a38.87,38.87,0,0,1,17.58-12.58,34.44,34.44,0,0,1,11.22-1.88q1.38,0,2.73.12a36.32,36.32,0,0,1,22.43,10.38,44.78,44.78,0,0,0-15.36-21.84c4.79-14.07,18.51-24.22,34.69-24.22A37.17,37.17,0,0,1,1402.9,498.68Z"/><path class="cls-16" d="M1542.3,541.23h-165c4.83-12.85,14.45-22.43,26.06-25.25a30.16,30.16,0,0,1,7.12-.85c13.84,0,25.87,9.44,32.08,23.38,8.11-6.13,21.51-10.59,37.27-12,3.56-.33,7.26-.5,11-.5C1513.67,526,1533.33,532.23,1542.3,541.23Z"/><path class="cls-15" d="M400,479.79h88a44.56,44.56,0,0,1,44.56,44.56v16.88a0,0,0,0,1,0,0H400a0,0,0,0,1,0,0V479.79A0,0,0,0,1,400,479.79Z"/><path class="cls-16" d="M625,541.23H400V493.65h4.63a41,41,0,0,1,40.48,34.53h42.14A27.25,27.25,0,0,1,514,506.26h40.08v0c13.74.29,25.69,9.21,32.14,22.37a32.52,32.52,0,0,1,10.88-1.87c.9,0,1.77,0,2.65.11C609.7,527.7,618.62,533.06,625,541.23Z"/><path class="cls-15" d="M1102.81,1265.44v88H960.07c11-31.79,37-52.6,67.36-52.6a65.05,65.05,0,0,1,29.32,6.94V1307C1056.75,1284.06,1077.37,1265.44,1102.81,1265.44Z"/><path class="cls-16" d="M1059.26,1306.3a72.44,72.44,0,0,1,16.45,11.94,2.5,2.5,0,0,1-3.47,3.6c-12.56-12.1-28-18.5-44.81-18.5-17.15,0-33.54,7.06-46.15,19.88a82.58,82.58,0,0,0-18.54,30.22h-5.28a88,88,0,0,1,20.25-33.72c13.56-13.79,31.22-21.38,49.72-21.38a67.7,67.7,0,0,1,26.94,5.61c1.74-22.88,22.8-41,48.44-41v5C1079.06,1267.94,1059.69,1285.08,1059.26,1306.3Z"/></g><g id="Big_Ben" data-name="Big Ben"><rect class="cls-9" x="1130.33" y="1030.28" width="156.63" height="98.44"/><rect class="cls-7" x="1144.49" y="1032.28" width="3" height="94.1"/><rect class="cls-7" x="1160.16" y="1032.28" width="3" height="94.1"/><rect class="cls-7" x="1175.82" y="1032.28" width="3" height="94.1"/><rect class="cls-7" x="1191.48" y="1032.28" width="3" height="94.1"/><rect class="cls-7" x="1207.15" y="1032.28" width="3" height="94.1"/><rect class="cls-7" x="1222.81" y="1032.28" width="3" height="94.1"/><rect class="cls-7" x="1254.14" y="1032.28" width="3" height="94.1"/><rect class="cls-7" x="1269.8" y="1032.28" width="3" height="94.1"/><rect class="cls-7" x="1238.47" y="1032.28" width="3" height="94.1"/><polygon class="cls-6" points="1132.33 1032.28 1132.33 1125.88 1159.31 1125.88 1159.31 1129.88 1128.33 1129.88 1128.33 1015.3 1132.33 1015.3 1132.33 1028.28 1286.96 1028.28 1286.96 1032.28 1132.33 1032.28"/><polygon class="cls-18" points="1316.62 1015.3 1316.62 1700 1100.51 1700 1100.51 1015.3 1128.33 1015.3 1128.33 1129.88 1157.76 1129.88 1175.82 1084.75 1193.87 1129.88 1220.43 1129.88 1238.48 1084.75 1256.53 1129.88 1286.8 1129.88 1286.8 1015.3 1316.62 1015.3"/><path class="cls-19" d="M1316.62,1159.92v-4H1100.51v4h24.33v202.45h-24.33v4h214.7v-4h-22.92V1159.92Zm-28.33,202.45H1128.84v-183h7.68v-2a9,9,0,1,1,18.06,0v2h13.5v-2a9,9,0,0,1,18.06,0v2h13.5v-2a9,9,0,0,1,18.07,0v2h13.49v-2a9,9,0,0,1,18.07,0v2h13.28v-2a9,9,0,1,1,18.06,0v2h7.68Zm0-187h-3.83a13,13,0,0,0-25.76,0h-5.59a13,13,0,0,0-25.75,0h-5.81a13,13,0,0,0-25.75,0H1190a13,13,0,0,0-25.76,0h-5.8a13,13,0,0,0-25.76,0h-3.83v-15.47h159.45Z"/><path class="cls-20" d="M1316.67,1007.82H1287a1.5,1.5,0,0,1,0-3h29.66a1.5,1.5,0,0,1,0,3Z"/><path class="cls-20" d="M1310.59,996.77h-17.42a1.5,1.5,0,0,1,0-3h17.42a1.5,1.5,0,0,1,0,3Z"/><rect class="cls-20" x="1300.31" y="955.42" width="3" height="29.27"/><path class="cls-20" d="M1304.37,952.12h-5.32a1.5,1.5,0,0,1,0-3h5.32a1.5,1.5,0,0,1,0,3Z"/><rect class="cls-20" x="1300.31" y="941.86" width="3" height="4.32"/><path class="cls-20" d="M1130.25,1007.82h-29.66a1.5,1.5,0,0,1,0-3h29.66a1.5,1.5,0,0,1,0,3Z"/><path class="cls-20" d="M1124.17,996.77h-17.42a1.5,1.5,0,0,1,0-3h17.42a1.5,1.5,0,0,1,0,3Z"/><rect class="cls-20" x="1114.01" y="955.42" width="3" height="29.27"/><path class="cls-20" d="M1118.08,952.12h-5.32a1.5,1.5,0,0,1,0-3h5.32a1.5,1.5,0,0,1,0,3Z"/><rect class="cls-20" x="1114.01" y="941.51" width="3" height="4.68"/><path class="cls-19" d="M1100.51,1390.7v4h24.33V1700h4V1416h7.68v-2a9,9,0,0,1,18.06,0v2h13.5v-2a9,9,0,0,1,18.06,0v2h13.5v-2a9,9,0,0,1,18.07,0v2h13.49v-2a9,9,0,0,1,18.07,0v2h13.28v-2a9,9,0,0,1,18.06,0v2h7.68v284h4V1394.7h22.92v-4ZM1288.29,1412h-3.83a13,13,0,0,0-25.76,0h-5.59a13,13,0,0,0-25.75,0h-5.81a13,13,0,0,0-25.75,0H1190a13,13,0,0,0-25.76,0h-5.8a13,13,0,0,0-25.76,0h-3.83V1394.7h159.45Z"/><rect class="cls-19" x="1162.56" y="1440.9" width="6" height="77.83"/><rect class="cls-19" x="1162.56" y="1523.73" width="6" height="77.82"/><rect class="cls-19" x="1184.63" y="1440.9" width="6" height="77.83"/><rect class="cls-19" x="1184.63" y="1523.73" width="6" height="77.82"/><rect class="cls-19" x="1226.66" y="1440.9" width="6" height="77.83"/><rect class="cls-19" x="1226.66" y="1523.73" width="6" height="77.82"/><rect class="cls-19" x="1248.3" y="1440.9" width="6" height="77.83"/><rect class="cls-19" x="1248.3" y="1523.73" width="6" height="77.82"/><rect class="cls-6" x="1314.12" y="1015.3" width="5" height="684.7"/><polygon class="cls-6" points="1221.87 1129.38 1193.68 1129.38 1175.82 1084.73 1175.82 1070.67 1178.82 1070.67 1178.82 1084.15 1195.71 1126.38 1221.87 1126.38 1221.87 1129.38"/><polygon class="cls-6" points="1286.96 1129.38 1256.34 1129.38 1238.47 1084.73 1238.47 1070.67 1241.47 1070.67 1241.47 1084.15 1258.37 1126.38 1286.96 1126.38 1286.96 1129.38"/><path class="cls-19" d="M1198.57,1343.93h-42.5V1219a20.11,20.11,0,0,1,20.09-20.09h2.32a20.11,20.11,0,0,1,20.09,20.09Zm-38.5-4h34.5V1219a16.1,16.1,0,0,0-16.09-16.09h-2.32a16.11,16.11,0,0,0-16.09,16.09Z"/><rect class="cls-19" x="1165.61" y="1273.92" width="9.21" height="59.23"/><rect class="cls-19" x="1179.82" y="1273.92" width="9.21" height="59.23"/><path class="cls-19" d="M1174.82,1209.84v59.08h-9.21v-48.23A11,11,0,0,1,1174.82,1209.84Z"/><path class="cls-19" d="M1189,1220.69v48.23h-9.21v-59.08A11,11,0,0,1,1189,1220.69Z"/><rect class="cls-19" x="1228.78" y="1273.92" width="9.21" height="59.23"/><rect class="cls-19" x="1242.99" y="1273.92" width="9.21" height="59.23"/><path class="cls-19" d="M1238,1209.84v59.08h-9.21v-48.23A11,11,0,0,1,1238,1209.84Z"/><path class="cls-19" d="M1252.2,1220.69v48.23H1243v-59.08A11,11,0,0,1,1252.2,1220.69Z"/><path class="cls-19" d="M1261.74,1343.93h-42.5V1219a20.11,20.11,0,0,1,20.09-20.09h2.32a20.11,20.11,0,0,1,20.09,20.09Zm-38.5-4h34.5V1219a16.1,16.1,0,0,0-16.09-16.09h-2.32a16.11,16.11,0,0,0-16.09,16.09Z"/><rect class="cls-19" x="978.32" y="1443.63" width="122.18" height="256.37"/><rect class="cls-9" x="978.32" y="1356.17" width="122.18" height="87.46"/><rect class="cls-7" x="998.76" y="1356.17" width="3" height="87.46"/><rect class="cls-7" x="1018.98" y="1356.17" width="3" height="87.46"/><rect class="cls-7" x="1039.2" y="1356.17" width="3" height="87.46"/><rect class="cls-7" x="1059.41" y="1356.17" width="3" height="87.46"/><rect class="cls-7" x="1079.63" y="1356.17" width="3" height="87.46"/><rect class="cls-6" x="978.32" y="1353.67" width="122.19" height="5"/><rect class="cls-7" x="978.32" y="1441.63" width="122.19" height="4"/><rect class="cls-20" x="980.97" y="1469.96" width="119.53" height="4"/><rect class="cls-9" x="400" y="1030.03" width="365.03" height="98.44"/><rect class="cls-7" x="616.94" y="1032.08" width="3" height="95.39"/><rect class="cls-7" x="633.29" y="1032.08" width="3" height="95.39"/><rect class="cls-7" x="649.64" y="1032.08" width="3" height="95.39"/><rect class="cls-7" x="665.99" y="1032.08" width="3" height="95.39"/><rect class="cls-7" x="682.34" y="1032.08" width="3" height="95.39"/><rect class="cls-7" x="698.7" y="1032.08" width="3" height="95.39"/><rect class="cls-7" x="731.4" y="1032.08" width="3" height="95.39"/><rect class="cls-7" x="747.75" y="1032.08" width="3" height="95.39"/><rect class="cls-7" x="715.05" y="1032.08" width="3" height="95.39"/><rect class="cls-7" x="567.88" y="1032.08" width="3" height="95.39"/><rect class="cls-7" x="600.59" y="1032.08" width="3" height="95.39"/><rect class="cls-7" x="584.23" y="1032.08" width="3" height="95.39"/><rect class="cls-7" x="437.07" y="1032.08" width="3" height="95.39"/><rect class="cls-7" x="453.42" y="1032.08" width="3" height="95.39"/><rect class="cls-7" x="469.77" y="1032.08" width="3" height="95.39"/><rect class="cls-7" x="486.12" y="1032.08" width="3" height="95.39"/><rect class="cls-7" x="502.48" y="1032.08" width="3" height="95.39"/><rect class="cls-7" x="518.83" y="1032.08" width="3" height="95.39"/><rect class="cls-7" x="551.53" y="1032.08" width="3" height="95.39"/><rect class="cls-7" x="535.18" y="1032.08" width="3" height="95.39"/><rect class="cls-7" x="420.72" y="1032.08" width="3" height="95.39"/><polygon class="cls-18" points="765.03 1127.53 765.03 1700 400 1700 400 1127.53 436.22 1127.53 453.73 1083.74 471.25 1127.53 518.04 1127.53 535.55 1083.74 553.07 1127.53 599.76 1127.53 617.28 1083.74 634.79 1127.53 681.53 1127.53 699.05 1083.74 716.57 1127.53 765.03 1127.53"/><path class="cls-19" d="M639.69,1344.05h-42.5V1220.29a21.25,21.25,0,1,1,42.5,0Zm-38.5-4h34.5V1220.29a17.25,17.25,0,1,0-34.5,0Z"/><path class="cls-19" d="M615.94,1210V1269h-9.21v-48.23A11,11,0,0,1,615.94,1210Z"/><rect class="cls-19" x="606.73" y="1274.04" width="9.21" height="59.23"/><path class="cls-19" d="M630.15,1220.81V1269h-9.21V1210A11,11,0,0,1,630.15,1220.81Z"/><rect class="cls-19" x="620.94" y="1274.04" width="9.21" height="59.23"/><rect class="cls-19" x="688.5" y="1274.04" width="9.21" height="59.23"/><path class="cls-19" d="M697.71,1210V1269H688.5v-48.23A11,11,0,0,1,697.71,1210Z"/><path class="cls-19" d="M711.92,1220.81V1269h-9.21V1210A11,11,0,0,1,711.92,1220.81Z"/><rect class="cls-19" x="702.71" y="1274.04" width="9.21" height="59.23"/><path class="cls-19" d="M721.46,1344.05H679V1220.29a21.25,21.25,0,1,1,42.5,0Zm-38.5-4h34.5V1220.29a17.25,17.25,0,1,0-34.5,0Z"/><path class="cls-19" d="M476.17,1344.05h-42.5V1220.29a21.25,21.25,0,1,1,42.5,0Zm-38.5-4h34.5V1220.29a17.25,17.25,0,1,0-34.5,0Z"/><path class="cls-19" d="M452.42,1210V1269h-9.21v-48.23A11,11,0,0,1,452.42,1210Z"/><rect class="cls-19" x="443.21" y="1274.04" width="9.21" height="59.23"/><rect class="cls-19" x="457.42" y="1274.04" width="9.21" height="59.23"/><path class="cls-19" d="M466.63,1220.81V1269h-9.21V1210A11,11,0,0,1,466.63,1220.81Z"/><rect class="cls-19" x="525.01" y="1274.04" width="9.21" height="59.23"/><rect class="cls-19" x="539.22" y="1274.04" width="9.2" height="59.23"/><path class="cls-19" d="M534.22,1210V1269H525v-48.23A11,11,0,0,1,534.22,1210Z"/><path class="cls-19" d="M548.42,1220.81V1269h-9.2V1210A11,11,0,0,1,548.42,1220.81Z"/><path class="cls-19" d="M558,1344.05H515.46V1220.29a21.26,21.26,0,1,1,42.51,0Zm-38.51-4H554V1220.29a17.26,17.26,0,1,0-34.51,0Z"/><path class="cls-19" d="M639.69,1578.71h-42.5V1454.94a21.25,21.25,0,0,1,42.5,0Zm-38.5-4h34.5V1454.94a17.25,17.25,0,0,0-34.5,0Z"/><path class="cls-19" d="M615.94,1444.62v59.08h-9.21v-48.23A11,11,0,0,1,615.94,1444.62Z"/><rect class="cls-19" x="606.73" y="1508.7" width="9.21" height="59.23"/><rect class="cls-19" x="620.94" y="1508.7" width="9.21" height="59.23"/><path class="cls-19" d="M630.15,1455.47v48.23h-9.21v-59.08A11,11,0,0,1,630.15,1455.47Z"/><rect class="cls-19" x="688.5" y="1508.7" width="9.21" height="59.23"/><path class="cls-19" d="M697.71,1444.62v59.08H688.5v-48.23A11,11,0,0,1,697.71,1444.62Z"/><path class="cls-19" d="M711.92,1455.47v48.23h-9.21v-59.08A11,11,0,0,1,711.92,1455.47Z"/><rect class="cls-19" x="702.71" y="1508.7" width="9.21" height="59.23"/><path class="cls-19" d="M721.46,1578.71H679V1454.94a21.25,21.25,0,0,1,42.5,0Zm-38.5-4h34.5V1454.94a17.25,17.25,0,0,0-34.5,0Z"/><path class="cls-19" d="M476.17,1578.71h-42.5V1454.94a21.25,21.25,0,0,1,42.5,0Zm-38.5-4h34.5V1454.94a17.25,17.25,0,0,0-34.5,0Z"/><path class="cls-19" d="M452.42,1444.62v59.08h-9.21v-48.23A11,11,0,0,1,452.42,1444.62Z"/><rect class="cls-19" x="443.21" y="1508.7" width="9.21" height="59.23"/><rect class="cls-19" x="457.42" y="1508.7" width="9.21" height="59.23"/><path class="cls-19" d="M466.63,1455.47v48.23h-9.21v-59.08A11,11,0,0,1,466.63,1455.47Z"/><path class="cls-19" d="M534.22,1444.62v59.08H525v-48.23A11,11,0,0,1,534.22,1444.62Z"/><rect class="cls-19" x="525.01" y="1508.7" width="9.21" height="59.23"/><rect class="cls-19" x="539.22" y="1508.7" width="9.2" height="59.23"/><path class="cls-19" d="M548.42,1455.47v48.23h-9.2v-59.08A11,11,0,0,1,548.42,1455.47Z"/><path class="cls-19" d="M558,1578.71H515.46V1454.94a21.26,21.26,0,0,1,42.51,0Zm-38.51-4H554V1454.94a17.26,17.26,0,0,0-34.51,0Z"/><rect class="cls-19" x="749.93" y="1128.47" width="15.1" height="571.52"/><rect class="cls-19" x="400" y="1155.92" width="365.03" height="4"/><path class="cls-19" d="M731.54,1179.39H721.06v-2a9,9,0,1,0-18.06,0v2H689.72v-2a9,9,0,0,0-18.07,0v2H658.16v-2a9,9,0,0,0-18.07,0v2h-13.5v-2a9,9,0,0,0-18.06,0v2H595v-2a9,9,0,1,0-18.06,0v2H563.61v-2a9,9,0,0,0-18.07,0v2H535.06v-2a9,9,0,1,0-18.06,0v2H503.72v-2a9,9,0,0,0-18.07,0v2H472.16v-2a9,9,0,0,0-18.07,0v2h-13.5v-2a9,9,0,1,0-18.06,0v2H409v-2a9,9,0,0,0-9-9v-4a13.05,13.05,0,0,1,12.88,11h5.8a13,13,0,0,1,25.76,0h5.81a13,13,0,0,1,25.75,0h5.81a13,13,0,0,1,25.75,0h5.59a13,13,0,0,1,25.76,0h2.79a13,13,0,0,1,25.75,0h5.67a13,13,0,0,1,25.76,0h5.8a13,13,0,0,1,25.76,0h5.81a13,13,0,0,1,25.75,0h5.81a13,13,0,0,1,25.75,0h5.59a13,13,0,0,1,25.76,0h2.79a13,13,0,0,1,25.91,2h-4a9,9,0,0,0-18.07,0Z"/><path class="cls-19" d="M731.54,1414.17H721.06v-2a9,9,0,1,0-18.06,0v2H689.72v-2a9,9,0,1,0-18.07,0v2H658.16v-2a9,9,0,1,0-18.07,0v2h-13.5v-2a9,9,0,1,0-18.06,0v2H595v-2a9,9,0,1,0-18.06,0v2H563.61v-2a9,9,0,1,0-18.07,0v2H535.06v-2a9,9,0,1,0-18.06,0v2H503.72v-2a9,9,0,1,0-18.07,0v2H472.16v-2a9,9,0,1,0-18.07,0v2h-13.5v-2a9,9,0,1,0-18.06,0v2H409v-2a9,9,0,0,0-9-9v-4a13.06,13.06,0,0,1,12.88,11h5.8a13,13,0,0,1,25.76,0h5.81a13,13,0,0,1,25.75,0h5.81a13,13,0,0,1,25.75,0h5.59a13,13,0,0,1,25.76,0h2.79a13,13,0,0,1,25.75,0h5.67a13,13,0,0,1,25.76,0h5.8a13,13,0,0,1,25.76,0h5.81a13,13,0,0,1,25.75,0h5.81a13,13,0,0,1,25.75,0h5.59a13,13,0,0,1,25.76,0h2.79a13,13,0,0,1,25.91,2h-4a9,9,0,1,0-18.07,0Z"/><rect class="cls-19" x="400" y="1390.7" width="365.03" height="4"/><rect class="cls-19" x="400" y="1362.38" width="365.03" height="3.97"/><rect class="cls-6" x="400" y="1028.03" width="365.03" height="4"/><polygon class="cls-6" points="765.03 1129.03 716.8 1129.03 698.71 1084.38 698.71 1070.32 701.71 1070.32 701.71 1083.79 718.82 1126.03 765.03 1126.03 765.03 1129.03"/><polygon class="cls-6" points="682.22 1129.03 635.03 1129.03 616.94 1084.38 616.94 1070.32 619.94 1070.32 619.94 1083.79 637.05 1126.03 682.22 1126.03 682.22 1129.03"/><polygon class="cls-6" points="601.53 1129.03 553.31 1129.03 535.22 1084.38 535.22 1070.32 538.22 1070.32 538.22 1083.79 555.33 1126.03 601.53 1126.03 601.53 1129.03"/><polygon class="cls-6" points="518.68 1129.03 471.49 1129.03 453.4 1084.38 453.4 1070.32 456.4 1070.32 456.4 1083.79 473.51 1126.03 518.68 1126.03 518.68 1129.03"/><rect class="cls-6" x="400" y="1126.03" width="37.22" height="3"/><rect class="cls-21" x="735.97" y="519.09" width="271.4" height="210.9"/><rect class="cls-20" x="786.53" y="539.35" width="170.29" height="170.29"/><path class="cls-19" d="M958.32,711.14H785V537.85H958.32Zm-170.29-3H955.32V540.85H788Z"/><circle class="cls-6" cx="871.67" cy="624.5" r="74.5"/><path class="cls-19" d="M871.67,548.5a76,76,0,1,0,76,76A76.09,76.09,0,0,0,871.67,548.5Zm73,74.5H933.17a61,61,0,0,0-7.5-27.94l10-5.75A72.35,72.35,0,0,1,944.66,623Zm-48.19,41.44a47.12,47.12,0,0,0,15.14-15.15h0l10,5.75a58.9,58.9,0,0,1-19.36,19.35Zm3.15,11.46A58.16,58.16,0,0,1,873.17,683V671.51A46.77,46.77,0,0,0,893.88,666Zm13.5-29.2a46.62,46.62,0,0,0,5.55-20.7h11.5a58.16,58.16,0,0,1-7.09,26.45Zm5.55-23.7a46.62,46.62,0,0,0-5.55-20.7l10-5.75A58.12,58.12,0,0,1,930.17,623Zm-7-23.29h0a47.05,47.05,0,0,0-15.15-15.15h0l5.75-9.95A58.93,58.93,0,0,1,921.57,594Zm22.49-13-9.94,5.74A62,62,0,0,0,903.71,572l5.74-9.94A73.44,73.44,0,0,1,934.11,586.72Zm-60.94-35.2a72.35,72.35,0,0,1,33.69,9l-5.74,9.94a61,61,0,0,0-28-7.5Zm0,14.48a58.16,58.16,0,0,1,26.45,7.09L893.87,583a46.67,46.67,0,0,0-20.7-5.54Zm42.53,58.5a44,44,0,1,1-44-44A44.08,44.08,0,0,1,915.7,624.5Zm-68.82-40a47.25,47.25,0,0,0-15.14,15.16h0l-10-5.75a58.9,58.9,0,0,1,19.35-19.36Zm-3.15-11.46A58.11,58.11,0,0,1,870.17,566v11.5A46.67,46.67,0,0,0,849.48,583Zm-13.5,29.21a46.62,46.62,0,0,0-5.55,20.7h-11.5a58,58,0,0,1,7.09-26.44ZM824.68,626a46.62,46.62,0,0,0,5.55,20.7l-10,5.74A58.11,58.11,0,0,1,813.18,626Zm7.05,23.29h0a47.12,47.12,0,0,0,15.14,15.15l-5.75,9.95A59.06,59.06,0,0,1,821.78,655ZM849.47,666a46.85,46.85,0,0,0,20.7,5.55V683a58.11,58.11,0,0,1-26.44-7.09Zm20.7-114.44V563a61,61,0,0,0-27.94,7.5l-5.74-9.94A72.31,72.31,0,0,1,870.17,551.52Zm-36.28,10.55,5.74,9.93a62,62,0,0,0-20.45,20.46l-9.94-5.74A73.2,73.2,0,0,1,833.89,562.07Zm-26.16,27.25,9.95,5.74a61,61,0,0,0-7.5,27.94H798.69A72.34,72.34,0,0,1,807.73,589.32Zm-9,36.68h11.49a61,61,0,0,0,7.5,27.94l-9.95,5.74A72.34,72.34,0,0,1,798.69,626Zm10.55,36.28,9.94-5.74A61.92,61.92,0,0,0,839.64,677l-5.75,9.94A73.2,73.2,0,0,1,809.24,662.28Zm33,16.22A61.12,61.12,0,0,0,870.17,686v11.48a72.3,72.3,0,0,1-33.68-9Zm30.94,19V686a61.28,61.28,0,0,0,28-7.49l5.74,9.94A72.34,72.34,0,0,1,873.17,697.47Zm36.28-10.53-5.74-10a62,62,0,0,0,20.46-20.45l9.94,5.74A73.44,73.44,0,0,1,909.45,686.94Zm26.17-27.25-10-5.75a61,61,0,0,0,7.5-27.94h11.49A72.35,72.35,0,0,1,935.62,659.69Z"/><path class="cls-8" d="M871.67,636.57a1.5,1.5,0,0,1-1.5-1.5V602.19a1.5,1.5,0,0,1,3,0v32.88A1.5,1.5,0,0,1,871.67,636.57Z"/><path class="cls-8" d="M862.1,630.83a1.5,1.5,0,0,1-.71-2.82l42.48-22.87a1.5,1.5,0,1,1,1.42,2.64l-42.48,22.87A1.53,1.53,0,0,1,862.1,630.83Z"/><circle class="cls-20" cx="871.67" cy="624.54" r="4.79"/><path class="cls-6" d="M871.67,630.33a5.79,5.79,0,1,1,5.79-5.79A5.79,5.79,0,0,1,871.67,630.33Zm0-9.58a3.79,3.79,0,1,0,3.79,3.79A3.79,3.79,0,0,0,871.67,620.75Z"/><rect class="cls-19" x="772.77" y="539.35" width="3" height="170.29"/><rect class="cls-19" x="764.21" y="539.35" width="3" height="170.29"/><rect class="cls-19" x="755.66" y="539.35" width="3" height="170.29"/><rect class="cls-19" x="747.1" y="539.35" width="3" height="170.29"/><rect class="cls-19" x="993" y="539.35" width="3" height="170.29"/><rect class="cls-19" x="984.45" y="539.35" width="3" height="170.29"/><rect class="cls-19" x="975.9" y="539.35" width="3" height="170.29"/><rect class="cls-19" x="967.34" y="539.35" width="3" height="170.29"/><rect class="cls-6" x="1004.87" y="519.09" width="5" height="210.9"/><rect class="cls-18" x="765.03" y="798.35" width="213.29" height="901.65"/><rect class="cls-19" x="975.82" y="812.24" width="2.5" height="4"/><path class="cls-19" d="M975.82,816.24v-4H765v4H788V1028H765v4H975.82v-4H955.4V816.24ZM951.4,1028H792V837.57h7.68v-2a9,9,0,1,1,18.06,0v2h13.5v-2a9,9,0,1,1,18.06,0v2h13.5v-2a9,9,0,1,1,18.06,0v2h13.5v-2a9,9,0,1,1,18.07,0v2h13.28v-2a9,9,0,1,1,18.06,0v2h7.68Zm0-194.46h-3.83a13,13,0,0,0-25.76,0h-5.59a13,13,0,0,0-25.75,0h-5.81a13,13,0,0,0-25.76,0h-5.8a13,13,0,0,0-25.76,0h-5.8a13,13,0,0,0-25.76,0H792V816.24H951.4Z"/><rect class="cls-19" x="975.82" y="1028.03" width="2.5" height="4"/><path class="cls-19" d="M975.82,1060.36v-4H765v4H788v208.47H765v4H975.82v-4H955.4V1060.36ZM951.4,1268.83H792V1081.69h7.68v-2a9,9,0,0,1,18.06,0v2h13.5v-2a9,9,0,0,1,18.06,0v2h13.5v-2a9,9,0,0,1,18.06,0v2h13.5v-2a9,9,0,0,1,18.07,0v2h13.28v-2a9,9,0,1,1,18.06,0v2h7.68Zm0-191.14h-3.83a13,13,0,0,0-25.76,0h-5.59a13,13,0,0,0-25.75,0h-5.81a13,13,0,0,0-25.76,0h-5.8a13,13,0,0,0-25.76,0h-5.8a13,13,0,0,0-25.76,0H792v-17.33H951.4Z"/><rect class="cls-19" x="975.82" y="1056.36" width="2.5" height="4"/><rect class="cls-19" x="975.82" y="1268.83" width="2.5" height="4"/><rect class="cls-19" x="975.82" y="1297.15" width="2.5" height="4"/><rect class="cls-19" x="975.82" y="1509.62" width="2.5" height="4"/><rect class="cls-19" x="975.82" y="1537.95" width="2.5" height="4"/><rect class="cls-19" x="825.67" y="1091.55" width="6" height="77.82"/><rect class="cls-19" x="825.67" y="1174.37" width="6" height="77.83"/><rect class="cls-19" x="847.74" y="1091.55" width="6" height="77.82"/><rect class="cls-19" x="847.74" y="1174.37" width="6" height="77.83"/><rect class="cls-19" x="889.77" y="1091.55" width="6" height="77.82"/><rect class="cls-19" x="889.77" y="1174.37" width="6" height="77.83"/><rect class="cls-19" x="911.41" y="1091.55" width="6" height="77.82"/><rect class="cls-19" x="911.41" y="1174.37" width="6" height="77.83"/><path class="cls-19" d="M975.82,1301.15v-4H765v4H788v208.47H765v4H975.82v-4H955.4V1301.15Zm-183.87,0H951.4v17.33h-3.83a13,13,0,0,0-25.76,0h-5.59a13,13,0,0,0-25.75,0h-5.81a13,13,0,0,0-25.76,0h-5.8a13,13,0,0,0-25.76,0h-5.8a13,13,0,0,0-25.76,0H792Zm0,208.47V1322.48h7.68v-2a9,9,0,0,1,18.06,0v2h13.5v-2a9,9,0,0,1,18.06,0v2h13.5v-2a9,9,0,0,1,18.06,0v2h13.5v-2a9,9,0,0,1,18.07,0v2h13.28v-2a9,9,0,1,1,18.06,0v2h7.68v187.14Z"/><rect class="cls-19" x="825.67" y="1332.34" width="6" height="77.83"/><rect class="cls-19" x="825.67" y="1415.17" width="6" height="77.82"/><rect class="cls-19" x="847.74" y="1332.34" width="6" height="77.83"/><rect class="cls-19" x="847.74" y="1415.17" width="6" height="77.82"/><rect class="cls-19" x="889.77" y="1332.34" width="6" height="77.83"/><rect class="cls-19" x="889.77" y="1415.17" width="6" height="77.82"/><rect class="cls-19" x="911.41" y="1332.34" width="6" height="77.83"/><rect class="cls-19" x="911.41" y="1415.17" width="6" height="77.82"/><path class="cls-19" d="M765,1538v4H788v157.86h4V1562.49h7.68v-2a9,9,0,1,1,18.06,0v2h13.5v-2a9,9,0,1,1,18.06,0v2h13.5v-2a9,9,0,1,1,18.07,0v2h13.49v-2a9,9,0,1,1,18.07,0v2h13.28v-2a9,9,0,1,1,18.06,0v2h7.68v137.32h4V1542h20.42v-4Zm182.54,20.54a13,13,0,0,0-25.76,0h-5.59a13,13,0,0,0-25.75,0h-5.81a13,13,0,0,0-25.75,0H853.1a13,13,0,0,0-25.76,0h-5.8a13,13,0,0,0-25.76,0H792V1542H951.4v16.54Z"/><rect class="cls-19" x="825.67" y="1572.35" width="6" height="77.82"/><rect class="cls-19" x="825.67" y="1655.17" width="6" height="44.64"/><rect class="cls-19" x="847.74" y="1655.17" width="6" height="44.64"/><rect class="cls-19" x="847.74" y="1572.35" width="6" height="77.82"/><rect class="cls-19" x="889.77" y="1572.35" width="6" height="77.82"/><rect class="cls-19" x="889.77" y="1655.17" width="6" height="44.64"/><rect class="cls-19" x="911.41" y="1572.35" width="6" height="77.82"/><rect class="cls-19" x="911.41" y="1655.17" width="6" height="44.64"/><rect class="cls-19" x="825.67" y="930.25" width="6" height="77.83"/><rect class="cls-19" x="825.67" y="847.43" width="6" height="77.82"/><rect class="cls-19" x="847.74" y="930.25" width="6" height="77.83"/><rect class="cls-19" x="847.74" y="847.43" width="6" height="77.82"/><rect class="cls-19" x="889.77" y="847.43" width="6" height="77.82"/><rect class="cls-19" x="889.77" y="930.25" width="6" height="77.83"/><rect class="cls-19" x="911.41" y="847.43" width="6" height="77.82"/><rect class="cls-19" x="911.41" y="930.25" width="6" height="77.83"/><rect class="cls-6" x="975.82" y="798.35" width="5" height="901.65"/><rect class="cls-18" x="758.24" y="455.1" width="227.74" height="63.99"/><path class="cls-19" d="M799.87,471.83h.51a4,4,0,0,1,4,4v29.26a0,0,0,0,1,0,0h-8.51a0,0,0,0,1,0,0V475.83A4,4,0,0,1,799.87,471.83Z"/><path class="cls-19" d="M942.41,471.83h.51a4,4,0,0,1,4,4v29.26a0,0,0,0,1,0,0h-8.51a0,0,0,0,1,0,0V475.83a4,4,0,0,1,4-4Z"/><path class="cls-19" d="M913.9,471.83h.51a4,4,0,0,1,4,4v29.26a0,0,0,0,1,0,0H909.9a0,0,0,0,1,0,0V475.83A4,4,0,0,1,913.9,471.83Z"/><path class="cls-19" d="M885.39,471.83h.51a4,4,0,0,1,4,4v29.26a0,0,0,0,1,0,0h-8.51a0,0,0,0,1,0,0V475.83A4,4,0,0,1,885.39,471.83Z"/><path class="cls-19" d="M856.89,471.83h.51a4,4,0,0,1,4,4v29.26a0,0,0,0,1,0,0h-8.51a0,0,0,0,1,0,0V475.83A4,4,0,0,1,856.89,471.83Z"/><path class="cls-19" d="M828.38,471.83h.51a4,4,0,0,1,4,4v29.26a0,0,0,0,1,0,0h-8.51a0,0,0,0,1,0,0V475.83A4,4,0,0,1,828.38,471.83Z"/><rect class="cls-19" x="758.24" y="514.66" width="227.74" height="4"/><path class="cls-19" d="M960.26,478.51h-8.48v-2a9,9,0,1,0-18.06,0v2H923.23v-2a9,9,0,1,0-18.06,0v2H894.91v-2a9,9,0,1,0-18.07,0v2H866.36v-2a9,9,0,1,0-18.06,0v2H837.82v-2a9,9,0,1,0-18.07,0v2H809.27v-2a9,9,0,1,0-18.06,0v2h-8.48v-4h4.63a13,13,0,0,1,25.76,0h2.79a13,13,0,0,1,25.76,0h2.78a13,13,0,0,1,25.76,0H873a13,13,0,0,1,25.75,0h2.57a13,13,0,0,1,25.76,0h2.79a13,13,0,0,1,25.76,0h4.63Z"/><rect class="cls-6" x="983.49" y="455.1" width="5" height="63.79"/><rect class="cls-18" x="816.64" y="303.51" width="109.71" height="61.5"/><path class="cls-19" d="M900.26,320.81h.51a4,4,0,0,1,4,4v29.26a0,0,0,0,1,0,0h-8.51a0,0,0,0,1,0,0V324.81A4,4,0,0,1,900.26,320.81Z"/><path class="cls-19" d="M871.75,320.81h.51a4,4,0,0,1,4,4v29.26a0,0,0,0,1,0,0h-8.51a0,0,0,0,1,0,0V324.81A4,4,0,0,1,871.75,320.81Z"/><path class="cls-19" d="M843.24,320.81h.51a4,4,0,0,1,4,4v29.26a0,0,0,0,1,0,0h-8.51a0,0,0,0,1,0,0V324.81A4,4,0,0,1,843.24,320.81Z"/><path class="cls-19" d="M891.53,327.49H881.27v-2a9,9,0,1,0-18.07,0v2H852.72v-2a9,9,0,1,0-18.06,0h-4a13,13,0,0,1,25.91-2h2.78a13,13,0,0,1,25.76,0h2.57a13,13,0,0,1,25.91,2h-4a9,9,0,1,0-18.06,0Z"/><polygon class="cls-9" points="974.55 441.42 974.55 455.1 769.09 455.1 769.09 441.42 779.82 441.42 791.19 422.39 791.19 408.94 799.23 408.94 816.64 379.8 816.64 365.01 926.35 365.01 926.35 379.8 943.9 408.94 951.9 408.94 951.9 422.21 963.47 441.42 974.55 441.42"/><rect class="cls-7" x="791.14" y="405.98" width="160.71" height="3"/><rect class="cls-7" x="769.09" y="438.64" width="205.46" height="3"/><rect class="cls-7" x="816.7" y="376.76" width="109.71" height="3"/><path class="cls-22" d="M828.38,420.93h.51a4,4,0,0,1,4,4v6.74a0,0,0,0,1,0,0h-8.51a0,0,0,0,1,0,0v-6.74A4,4,0,0,1,828.38,420.93Z"/><path class="cls-22" d="M856.89,420.93h.51a4,4,0,0,1,4,4v6.74a0,0,0,0,1,0,0h-8.51a0,0,0,0,1,0,0v-6.74A4,4,0,0,1,856.89,420.93Z"/><path class="cls-22" d="M885.39,420.93h.51a4,4,0,0,1,4,4v6.74a0,0,0,0,1,0,0h-8.51a0,0,0,0,1,0,0v-6.74a4,4,0,0,1,4-4Z"/><path class="cls-22" d="M913.9,420.93h.51a4,4,0,0,1,4,4v6.74a0,0,0,0,1,0,0H909.9a0,0,0,0,1,0,0v-6.74a4,4,0,0,1,4-4Z"/><path class="cls-22" d="M842.63,389.16h.51a4,4,0,0,1,4,4v6.74a0,0,0,0,1,0,0h-8.51a0,0,0,0,1,0,0v-6.74A4,4,0,0,1,842.63,389.16Z"/><path class="cls-22" d="M871.14,389.16h.51a4,4,0,0,1,4,4v6.74a0,0,0,0,1,0,0h-8.51a0,0,0,0,1,0,0v-6.74a4,4,0,0,1,4-4Z"/><path class="cls-22" d="M899.65,389.16h.51a4,4,0,0,1,4,4v6.74a0,0,0,0,1,0,0h-8.51a0,0,0,0,1,0,0v-6.74A4,4,0,0,1,899.65,389.16Z"/><path class="cls-7" d="M833.89,432.66H823.38v-7.73a5,5,0,0,1,5-5h.51a5,5,0,0,1,5,5Zm-8.51-2h6.51v-5.73a3,3,0,0,0-3-3h-.51a3,3,0,0,0-3,3Z"/><path class="cls-7" d="M862.4,432.66H851.89v-7.73a5,5,0,0,1,5-5h.51a5,5,0,0,1,5,5Zm-8.51-2h6.51v-5.73a3,3,0,0,0-3-3h-.51a3,3,0,0,0-3,3Z"/><path class="cls-7" d="M890.91,432.66H880.39v-7.73a5,5,0,0,1,5-5h.52a5,5,0,0,1,5,5Zm-8.52-2h6.52v-5.73a3,3,0,0,0-3-3h-.52a3,3,0,0,0-3,3Z"/><path class="cls-7" d="M919.42,432.66H908.9v-7.73a5,5,0,0,1,5-5h.52a5,5,0,0,1,5,5Zm-8.52-2h6.52v-5.73a3,3,0,0,0-3-3h-.52a3,3,0,0,0-3,3Z"/><path class="cls-7" d="M848.15,400.9H837.63v-7.74a5,5,0,0,1,5-5h.52a5,5,0,0,1,5,5Zm-8.52-2h6.52v-5.74a3,3,0,0,0-3-3h-.52a3,3,0,0,0-3,3Z"/><path class="cls-7" d="M876.65,400.9H866.14v-7.74a5,5,0,0,1,5-5h.51a5,5,0,0,1,5,5Zm-8.51-2h6.51v-5.74a3,3,0,0,0-3-3h-.51a3,3,0,0,0-3,3Z"/><path class="cls-7" d="M905.16,400.9H894.65v-7.74a5,5,0,0,1,5-5h.51a5,5,0,0,1,5,5Zm-8.51-2h6.51v-5.74a3,3,0,0,0-3-3h-.51a3,3,0,0,0-3,3Z"/><rect class="cls-20" x="971.31" y="409.24" width="3" height="29.27"/><path class="cls-20" d="M975.38,405.94h-5.32a1.5,1.5,0,0,1,0-3h5.32a1.5,1.5,0,0,1,0,3Z"/><rect class="cls-20" x="971.31" y="396.73" width="3" height="3.27"/><rect class="cls-20" x="769.14" y="409.24" width="3" height="29.3"/><path class="cls-20" d="M773.21,405.93h-5.33a1.5,1.5,0,0,1,0-3h5.33a1.5,1.5,0,0,1,0,3Z"/><rect class="cls-20" x="769.04" y="396.73" width="3" height="3.27"/><rect class="cls-20" x="923.19" y="261.66" width="3" height="29.05"/><path class="cls-20" d="M927.25,258.15h-5.32a1.5,1.5,0,0,1,0-3h5.32a1.5,1.5,0,1,1,0,3Z"/><rect class="cls-20" x="923.09" y="248.54" width="3" height="3.27"/><path class="cls-9" d="M926.35,289.83v13.68H816.64V289.83h10.22l42.56-146.9a6.39,6.39,0,1,1,4.5,0l42.57,146.9Z"/><rect class="cls-20" x="816.76" y="261.63" width="3" height="29.08"/><path class="cls-20" d="M820.83,258.15h-5.32a1.5,1.5,0,0,1,0-3h5.32a1.5,1.5,0,1,1,0,3Z"/><rect class="cls-20" x="816.67" y="248.54" width="3" height="3.27"/><polygon class="cls-7" points="926.35 288.33 926.35 291.33 816.64 291.33 816.64 288.33 914.49 288.33 905.75 258.15 835.73 258.15 835.73 255.15 904.88 255.15 896.13 224.96 845.35 224.96 845.35 221.96 895.26 221.96 886.51 191.77 855.06 191.77 855.06 188.77 885.64 188.77 872.48 143.35 875.36 142.51 917.62 288.33 926.35 288.33"/><rect class="cls-20" x="870.17" y="103.16" width="3" height="27.42"/><path class="cls-20" d="M874.68,99.3h-6.39a1.5,1.5,0,0,1,0-3h6.39a1.5,1.5,0,0,1,0,3Z"/><rect class="cls-20" x="870.17" y="89.74" width="3" height="3.41"/><rect class="cls-18" x="750.75" y="730" width="241.86" height="54.13"/><path class="cls-19" d="M878.75,771.74H864.6V741h14.15Zm-11.15-3h8.15V744H867.6Z"/><path class="cls-19" d="M852.23,771.74H838.07V741h14.16Zm-11.16-3h8.16V744h-8.16Z"/><path class="cls-19" d="M825.71,771.74H811.55V741h14.16Zm-11.16-3h8.16V744h-8.16Z"/><path class="cls-19" d="M905.27,771.74H891.12V741h14.15Zm-11.15-3h8.15V744h-8.15Z"/><path class="cls-19" d="M931.8,771.74H917.64V741H931.8Zm-11.16-3h8.16V744h-8.16Z"/><path class="cls-19" d="M958.32,771.74H944.16V741h14.16Zm-11.16-3h8.16V744h-8.16Z"/><path class="cls-19" d="M799.19,771.74H785V741h14.16Zm-11.16-3h8.16V744H788Z"/><polygon class="cls-19" points="750.75 784.13 992.6 784.13 978.32 798.35 765.03 798.35 750.75 784.13"/><rect class="cls-19" x="750.75" y="730" width="241.85" height="4"/></g><g id="Tree"><ellipse class="cls-16" cx="1841.93" cy="495.5" rx="21.57" ry="10.04"/><ellipse class="cls-23" cx="1936.6" cy="302.51" rx="19.76" ry="9.2"/><ellipse class="cls-23" cx="1973.37" cy="227.38" rx="10.04" ry="21.57"/><ellipse class="cls-23" cx="2024.2" cy="267.4" rx="10.04" ry="21.57"/><ellipse class="cls-23" cx="2109.07" cy="267.4" rx="10.04" ry="21.57"/><ellipse class="cls-23" cx="2180.45" cy="399.21" rx="10.04" ry="21.57" transform="translate(356.35 1658.74) rotate(-45)"/><ellipse class="cls-23" cx="2137.06" cy="299.98" rx="21.57" ry="10.04" transform="translate(413.81 1598.99) rotate(-45)"/><ellipse class="cls-23" cx="1943.99" cy="246.83" rx="10.04" ry="21.57" transform="translate(758.23 1806.96) rotate(-60)"/><ellipse class="cls-16" cx="2027.74" cy="559.16" rx="18.11" ry="8.43"/><ellipse class="cls-23" cx="2010.58" cy="326.56" rx="18.99" ry="8.84" transform="translate(357.97 1517.34) rotate(-45)"/><ellipse class="cls-16" cx="1870.82" cy="465.76" rx="10.04" ry="21.57" transform="translate(-4.78 911.88) rotate(-27.36)"/><ellipse class="cls-16" cx="1869.29" cy="522.2" rx="21.57" ry="10.04" transform="translate(221.5 1547.74) rotate(-47.51)"/><ellipse class="cls-16" cx="1874.56" cy="406.26" rx="10.04" ry="21.57" transform="translate(391.49 1622.62) rotate(-51.59)"/><ellipse class="cls-16" cx="1993.15" cy="450.64" rx="9.3" ry="19.97" transform="translate(357.96 1676.14) rotate(-49.59)"/><ellipse class="cls-16" cx="2045.44" cy="482.64" rx="19.97" ry="9.3" transform="translate(175.12 1441.11) rotate(-40.41)"/><ellipse class="cls-16" cx="2019.99" cy="429.4" rx="18.49" ry="8.6" transform="translate(1519.42 2432.94) rotate(-87.97)"/><ellipse class="cls-16" cx="2050.7" cy="587.69" rx="18.49" ry="8.6" transform="translate(1390.86 2616.32) rotate(-87.97)"/><ellipse class="cls-23" cx="2234.37" cy="333.4" rx="21.57" ry="10.04" transform="translate(418.68 1677.59) rotate(-45)"/><path class="cls-24" d="M2207,679.11V832.29a48.3,48.3,0,0,0,48.25,48.25H2260v5.56h-66.41l-31.51,27.43a2.51,2.51,0,0,1-1.64.61,2.5,2.5,0,0,1-1.65-4.38L2186,886.1H2077.55v-5h66.57V846.65h5V881.1H2234a53.33,53.33,0,0,1-32-48.81V675L1987.19,498H1878.58v-5h102.54l-72.33-59.6,3.18-3.86,106.3,87.59-.78-56.45,5-.07.84,60.69L2202,668.51V454.91L2023.4,305h-56.07v-5h50.11l-47.38-39.77,3.21-3.83,133.3,111.89V300h5V372.5L2202,448.39V300h5V672.63l53,43.69v6.48Z"/><ellipse class="cls-16" cx="2146.89" cy="812.18" rx="10.05" ry="21.58"/><ellipse class="cls-16" cx="2108.06" cy="852.95" rx="10.05" ry="21.58" transform="translate(212.04 2108.56) rotate(-55.54)"/><ellipse class="cls-16" cx="2127.2" cy="935.27" rx="21.58" ry="10.05" transform="translate(-110.76 1560.76) rotate(-39.35)"/><ellipse class="cls-16" cx="2046.57" cy="883.6" rx="21.58" ry="10.05"/><ellipse class="cls-16" cx="2166.73" cy="942.65" rx="10.05" ry="21.58" transform="translate(-164.9 1325.79) rotate(-32.84)"/><ellipse class="cls-23" cx="1933.06" cy="1057" rx="19.78" ry="9.2"/><ellipse class="cls-23" cx="1911.15" cy="977.65" rx="19.45" ry="9.05"/><ellipse class="cls-23" cx="1940.27" cy="928.07" rx="10.05" ry="21.58"/><ellipse class="cls-23" cx="2104.23" cy="999.24" rx="10.05" ry="21.58"/><ellipse class="cls-23" cx="2232.43" cy="1107.52" rx="10.05" ry="21.58"/><ellipse class="cls-23" cx="2077.34" cy="1029.83" rx="10.05" ry="21.58" transform="translate(-119.76 1770.53) rotate(-45)"/><ellipse class="cls-23" cx="2202.64" cy="1157.34" rx="10.05" ry="21.58" transform="translate(-173.22 1896.48) rotate(-45)"/><ellipse class="cls-23" cx="2133.24" cy="1029.83" rx="21.58" ry="10.05" transform="translate(-103.39 1810.06) rotate(-45)"/><ellipse class="cls-23" cx="1969.36" cy="952.12" rx="21.58" ry="10.05" transform="translate(-217 1020.98) rotate(-27.61)"/><ellipse class="cls-23" cx="2133.24" cy="1085.64" rx="21.58" ry="10.05" transform="translate(-142.85 1826.41) rotate(-45)"/><ellipse class="cls-23" cx="1895.65" cy="926.76" rx="10.05" ry="21.58" transform="translate(-43.21 1759.34) rotate(-49.29)"/><ellipse class="cls-23" cx="1963.93" cy="1034.98" rx="8.13" ry="17.46" transform="translate(-14.27 2042.41) rotate(-54.78)"/><ellipse class="cls-23" cx="1962.72" cy="1083.03" rx="19" ry="8.84" transform="matrix(0.5, -0.87, 0.87, 0.5, 43.43, 2241.28)"/><path class="cls-24" d="M2260,1234.88v6.5a2.33,2.33,0,0,1-.38-.26l-213-180.69h-78.37a2.5,2.5,0,0,1,0-5h72.47L1917.37,950.82a2.5,2.5,0,0,1,3.24-3.82l182.12,154.48v-68.63a2.5,2.5,0,0,1,5,0v72.87l122.36,103.79v-69a2.5,2.5,0,1,1,5,0v73a1.21,1.21,0,0,1,0,.19Z"/><path class="cls-24" d="M2260,1299.23v5H2120.43a2.5,2.5,0,0,1,0-5h41.25l-37.47-30.75a2.41,2.41,0,0,1-.93.18H2079a2.5,2.5,0,0,1,0-5h39.38l-43.58-35.77a2.5,2.5,0,1,1,3.17-3.87l91.63,75.21Z"/><ellipse class="cls-16" cx="2043.6" cy="1266.16" rx="21.58" ry="10.05"/><ellipse class="cls-16" cx="2231.59" cy="1332.9" rx="21.58" ry="10.05" transform="translate(-355.44 1585.59) rotate(-36.43)"/><ellipse class="cls-16" cx="2065.19" cy="1294.8" rx="20.07" ry="9.34" transform="translate(173.61 2832.14) rotate(-71.19)"/><ellipse class="cls-16" cx="2047.42" cy="1201.76" rx="10.05" ry="21.58" transform="translate(-166.36 2059.28) rotate(-51.59)"/></g><g id="Bridge"><rect class="cls-6" x="1318.43" y="1443.19" width="941.57" height="119.22"/><rect class="cls-25" x="2250" y="1498.02" width="10" height="5"/><path class="cls-25" d="M2225.12,1503h-19.91v-5h19.91Zm-44.78,0h-19.91v-5h19.91Zm-44.79,0h-19.9v-5h19.9Zm-44.78,0h-19.9v-5h19.9Zm-44.78,0h-19.9v-5H2046Zm-44.78,0h-19.9v-5h19.9Zm-44.78,0h-19.9v-5h19.9Zm-44.78,0h-19.9v-5h19.9Zm-44.78,0H1847v-5h19.9Zm-44.78,0h-19.9v-5h19.9Zm-44.78,0H1757.4v-5h19.91Zm-44.78,0h-19.91v-5h19.91Zm-44.79,0h-19.9v-5h19.9Zm-44.78,0h-19.9v-5H1643Zm-44.78,0h-19.9v-5h19.9Zm-44.78,0h-19.9v-5h19.9Zm-44.78,0h-19.9v-5h19.9Zm-44.78,0h-19.9v-5h19.9Zm-44.78,0h-19.91v-5h19.91Zm-44.78,0h-19.91v-5h19.91Z"/><rect class="cls-25" x="1319.5" y="1498.02" width="10" height="5"/><rect class="cls-8" x="1319.43" y="1442.19" width="940.57" height="14.9"/><rect class="cls-7" x="1319.43" y="1426.58" width="940.57" height="15.96"/><rect class="cls-10" x="1319.43" y="1424.58" width="940.57" height="4"/><circle class="cls-6" cx="1494.1" cy="1391.54" r="8.51"/><path class="cls-7" d="M1501.37,1404.47a10.22,10.22,0,0,1-6.28,3v11.19h-2v-11.19a10.17,10.17,0,0,1-6.27-3l1.41-1.41a8.31,8.31,0,0,0,11.73,0Z"/><rect class="cls-10" x="1481.03" y="1418.6" width="26.13" height="6.96"/><circle class="cls-6" cx="2246.87" cy="1391.54" r="8.51"/><path class="cls-7" d="M2254.14,1404.47a10.18,10.18,0,0,1-6.28,3v11.18h-2v-11.18a10.18,10.18,0,0,1-6.27-3l1.41-1.41a8.29,8.29,0,0,0,11.73,0Z"/><rect class="cls-10" x="2233.8" y="1418.6" width="26.13" height="6.96"/><path class="cls-26" d="M1752.19,1457.12h-9.4l4.86-43.89a22.94,22.94,0,0,1,22.81-20.43H2006.1a36.72,36.72,0,0,1,36.72,36.72v99.7h-308v-30.76a17.38,17.38,0,0,1,17.38-17.38Z"/><rect class="cls-27" x="1806.81" y="1410.86" width="49.7" height="20.22" rx="3.29"/><path class="cls-27" d="M1799.76,1414.09v13.76a3.35,3.35,0,0,1-3.46,3.23h-35.53a3.31,3.31,0,0,1-3.43-3.58l1.18-10a7.83,7.83,0,0,1,8-6.67h29.82A3.35,3.35,0,0,1,1799.76,1414.09Z"/><rect class="cls-27" x="1863.56" y="1410.86" width="49.7" height="20.22" rx="3.29"/><rect class="cls-27" x="1920.31" y="1410.86" width="49.7" height="20.22" rx="3.29"/><path class="cls-27" d="M1979.22,1410.86H2013a10.36,10.36,0,0,1,10.36,10.36v6.64a3.22,3.22,0,0,1-3.22,3.22h-40.91a3.22,3.22,0,0,1-3.22-3.22v-13.79A3.22,3.22,0,0,1,1979.22,1410.86Z"/><rect class="cls-27" x="1807.23" y="1460" width="49.7" height="20.22" rx="3.3"/><path class="cls-27" d="M1788.34,1460h-31.65v20.22h43.49V1470C1800.18,1464.47,1794.88,1460,1788.34,1460Z"/><rect class="cls-27" x="1863.99" y="1460" width="49.7" height="20.22" rx="3.3"/><rect class="cls-27" x="1920.74" y="1460" width="49.7" height="20.22" rx="3.3"/><path class="cls-27" d="M2001.51,1457.12h35.18a0,0,0,0,1,0,0v65.79a0,0,0,0,1,0,0h-43.86a0,0,0,0,1,0,0v-57.12A8.67,8.67,0,0,1,2001.51,1457.12Z"/><rect class="cls-28" x="1996.4" y="1512.24" width="37.25" height="7.45"/><rect class="cls-28" x="2001.72" y="1500.56" width="31.93" height="7.45"/><rect class="cls-28" x="2008.1" y="1488.89" width="25.54" height="7.45"/><rect class="cls-29" x="2014.94" y="1460" width="2" height="59.69"/><polygon class="cls-6" points="2042.82 1442.57 2042.82 1451.82 1743.38 1451.82 1744.4 1442.57 2042.82 1442.57"/><rect class="cls-29" x="1732.37" y="1522.91" width="313.23" height="6.32"/><path class="cls-27" d="M1952.76,1502.31h2.7a21,21,0,0,1,21,21v5.93a0,0,0,0,1,0,0h-44.73a0,0,0,0,1,0,0v-5.93A21,21,0,0,1,1952.76,1502.31Z"/><path class="cls-29" d="M1978.05,1529.25h-3.15v-4.58a20.79,20.79,0,0,0-41.58,0v4.58h-3.15v-4.58a23.94,23.94,0,0,1,47.88,0Z"/><circle class="cls-8" cx="1954.11" cy="1524.67" r="16.21"/><path class="cls-30" d="M1954.11,1535.23a10.56,10.56,0,1,1,10.55-10.56A10.58,10.58,0,0,1,1954.11,1535.23Zm0-19a8.46,8.46,0,1,0,8.45,8.45A8.47,8.47,0,0,0,1954.11,1516.22Z"/><path class="cls-27" d="M1773.76,1502.27h2.7a21,21,0,0,1,21,21v5.93a0,0,0,0,1,0,0h-44.73a0,0,0,0,1,0,0v-5.93A21,21,0,0,1,1773.76,1502.27Z"/><path class="cls-29" d="M1799.05,1529.21h-3.15v-4.58a20.79,20.79,0,1,0-41.57,0v4.58h-3.16v-4.58a23.94,23.94,0,0,1,47.88,0Z"/><circle class="cls-8" cx="1775.11" cy="1524.63" r="16.21"/><path class="cls-30" d="M1775.11,1535.19a10.56,10.56,0,1,1,10.56-10.56A10.57,10.57,0,0,1,1775.11,1535.19Zm0-19a8.45,8.45,0,1,0,8.46,8.45A8.46,8.46,0,0,0,1775.11,1516.18Z"/><rect class="cls-7" x="1319.43" y="1561.18" width="940.57" height="17.03"/><path class="cls-9" d="M2260,1577.68v121.88h-40.57c-1.25-51.07-57-91.82-108.11-91.82h-92.59c-32.54,0-62,11.64-83.32,30.43-17.94,15.82-30.12,36.71-33.52,60-.08.45-.13.91-.19,1.35h-60.08c-.07-.44-.12-.9-.19-1.35-7.47-51-56.93-90.47-116.85-90.47h-83c-32.53,0-62,11.64-83.31,30.43-18,15.82-30.12,36.71-33.52,60-.07.45-.13.91-.19,1.35h-60.11c-.07-.44-.12-.9-.19-1.35-7.45-51-56.93-90.47-116.83-90.47h-28v-30Z"/><path class="cls-7" d="M1861.38,1699.55h-19.77c-6.78-51.69-56.59-91.81-117-91.81h-83c-32.54,0-62,11.63-83.32,30.43-18.28,16.12-30.59,37.51-33.7,61.38h-19.77c3.55-28.39,17.52-53.83,38.3-73,24.21-22.36,57.67-36.19,94.65-36.19h90.64C1797.08,1590.35,1853.68,1638.07,1861.38,1699.55Z"/><path class="cls-10" d="M1859.39,1699.81c-7.67-61.27-64-107.47-131-107.47h-90.65c-35.24,0-68.37,12.67-93.29,35.67-20.91,19.31-34.29,44.81-37.67,71.8l-4-.5c3.5-27.92,17.32-54.29,38.93-74.24,25.65-23.68,59.75-36.73,96-36.73h90.65c69,0,127,47.71,134.94,111Z"/><path class="cls-7" d="M1484.24,1699.55h-19.76c-6.77-51.69-56.59-91.81-117-91.81h-28v-17.39h31.87C1420,1590.35,1476.56,1638.07,1484.24,1699.55Z"/><path class="cls-10" d="M1486.23,1699.31l-4,.5c-7.67-61.27-64-107.47-131-107.47h-31.87v-4h31.87C1420.31,1588.34,1478.32,1636.05,1486.23,1699.31Z"/><circle class="cls-31" cx="1494.32" cy="1520.4" r="8.51"/><path class="cls-7" d="M1501.59,1533.22a10.26,10.26,0,0,1-6.28,3v13.33h-2v-13.33a10.21,10.21,0,0,1-6.27-3l1.41-1.42a8.31,8.31,0,0,0,11.73,0Z"/><polygon class="cls-10" points="1507.16 1549.6 1507.16 1556.56 1504.81 1556.56 1504.81 1699.56 1483.83 1699.56 1483.83 1556.56 1481.03 1556.56 1481.03 1549.6 1507.16 1549.6"/><rect class="cls-7" x="1483.83" y="1556.7" width="20.98" height="3"/><circle class="cls-31" cx="1871.44" cy="1520.4" r="8.51"/><path class="cls-7" d="M1878.71,1535.43a10.22,10.22,0,0,1-6.28,3v11.11h-2v-11.11a10.17,10.17,0,0,1-6.27-3l1.41-1.41a8.31,8.31,0,0,0,11.73,0Z"/><polygon class="cls-10" points="1884.28 1549.6 1884.28 1557.38 1881.92 1557.38 1881.92 1699.56 1860.94 1699.56 1860.94 1557.38 1858.15 1557.38 1858.15 1549.6 1884.28 1549.6"/><rect class="cls-7" x="1860.95" y="1557.52" width="20.98" height="3"/><circle class="cls-31" cx="2249.44" cy="1520.4" r="8.51"/><path class="cls-7" d="M2256.71,1535.43a10.22,10.22,0,0,1-6.28,3v11.11h-2v-11.11a10.17,10.17,0,0,1-6.27-3l1.41-1.41a8.31,8.31,0,0,0,11.73,0Z"/><polygon class="cls-10" points="2259.92 1549.6 2259.92 1699.56 2238.94 1699.56 2238.94 1557.38 2236.15 1557.38 2236.15 1549.6 2259.92 1549.6"/><rect class="cls-7" x="2238.95" y="1557.52" width="20.98" height="3"/><path class="cls-7" d="M2238.48,1699.55h-19.77c-6.78-51.69-56.59-91.81-117-91.81h-83c-32.54,0-62,11.63-83.32,30.43-18.28,16.12-30.58,37.51-33.7,61.38h-19.77c3.55-28.39,17.52-53.83,38.3-73,24.21-22.36,57.67-36.19,94.65-36.19h90.64C2174.18,1590.35,2230.78,1638.07,2238.48,1699.55Z"/><path class="cls-10" d="M2236.49,1699.81c-7.67-61.27-64-107.47-131-107.47h-90.65c-35.25,0-68.38,12.67-93.29,35.67-20.92,19.31-34.3,44.81-37.68,71.8l-4-.5c3.5-27.93,17.32-54.29,38.93-74.24,25.65-23.68,59.75-36.73,96-36.73h90.65c69,0,127,47.71,134.93,111Z"/></g><g id="Trees"><path class="cls-15" d="M400,1700v-10.17a97.53,97.53,0,0,1,97.53-97.54h76.84l-.51-48c3.25-93.15,46-166.91,98.34-166.91,54.41,0,98.51,79.8,98.51,178.26q0,11.3-.75,22.23a62.54,62.54,0,0,1,25.15-5.29c36.5,0,66.83,31.87,73,73.89a108.74,108.74,0,0,1,1.18,16,105.3,105.3,0,0,1-6.82,37.6Z"/><path class="cls-16" d="M810.11,1700a94.94,94.94,0,0,0,5.48-32.11,97.27,97.27,0,0,0-1-13.65c-5-35.88-29.38-63.11-58.75-63.11a44.66,44.66,0,0,0-6.46.46A72.14,72.14,0,0,1,767.51,1579c.47-7,.71-14.22.71-21.37,0-96.91-43.07-175.76-96-175.76a2.5,2.5,0,0,1,0-5c27.27,0,52.78,19,71.85,53.5,18.81,34,29.17,79.23,29.17,127.26,0,6.39-.19,12.8-.56,19.13a62.35,62.35,0,0,1,22.44-4.19c36.51,0,66.85,31.87,73.06,73.9a109.86,109.86,0,0,1,1.18,16c0,1.7,0,3.39-.11,5.07a70.21,70.21,0,0,1,11.78-2c2-.19,4-.28,6.09-.28a71.64,71.64,0,0,1,25,4.52c15.24,5.62,28.7,16.24,39.2,30.31Z"/><path class="cls-15" d="M950.84,1699.5a2,2,0,0,1-1.6-.8c-8.9-11.93-20.71-20.13-38.3-26.62a69.81,69.81,0,0,0-24.33-4.39c-2.07,0-4,.09-5.9.27a71.23,71.23,0,0,0-27.39,8.12,2,2,0,0,1-1.87-3.54,75.2,75.2,0,0,1,28.9-8.56c2-.19,4.06-.29,6.26-.29a73.69,73.69,0,0,1,25.72,4.64c18.35,6.77,30.72,15.39,40.11,28a2,2,0,0,1-1.6,3.2Z"/><rect class="cls-16" x="671.62" y="1499.52" width="5" height="200.48"/><path class="cls-16" d="M1281.9,1700H1089a68.34,68.34,0,0,1-5.54-27.09,70.26,70.26,0,0,1,1-11.5c5.07-30.26,29.76-53.23,59.46-53.23,30.41,0,55.55,24.07,59.77,55.37q.27,1.92.42,3.87a59.46,59.46,0,0,1,10.2-3.06,60.31,60.31,0,0,1,12-1.19C1250.9,1663.17,1272.19,1678.25,1281.9,1700Z"/><path class="cls-15" d="M1120.07,1700h-92.82c7.6-10.43,17.32-18.3,28.34-22.46a50.6,50.6,0,0,1,18.08-3.34c1.49,0,2.95.06,4.4.2C1094.66,1675.84,1109.48,1685.41,1120.07,1700Z"/><path class="cls-15" d="M1281.9,1699.85a2,2,0,0,1-1.83-1.18c-9.23-20.67-29.87-33.51-53.88-33.51a57.58,57.58,0,0,0-33.44,10.67,2,2,0,1,1-2.31-3.27,61.59,61.59,0,0,1,35.75-11.4c25.61,0,47.65,13.75,57.54,35.88a2,2,0,0,1-1,2.64A2.1,2.1,0,0,1,1281.9,1699.85Z"/><path class="cls-16" d="M1027.25,1700a2.5,2.5,0,0,1-2-4c8.3-10.79,18.86-18.7,30.53-22.87a57.62,57.62,0,0,1,19.6-3.43c1.67,0,3.24.07,4.79.21a58.49,58.49,0,0,1,18,4.44,2.5,2.5,0,0,1-2,4.61,53.38,53.38,0,0,0-16.45-4.07c-1.43-.13-2.85-.19-4.36-.19a52.86,52.86,0,0,0-17.92,3.13c-10.76,3.86-20.53,11.19-28.25,21.21A2.49,2.49,0,0,1,1027.25,1700Z"/></g></svg>