<svg id="Слой_1" data-name="Слой 1" xmlns="http://www.w3.org/2000/svg" viewBox="0 0 2660 2000"><defs><style>.cls-1{fill:#caebff;}.cls-2{fill:#fff;}.cls-3{fill:#fda100;}.cls-4{fill:#fdad1f;}.cls-5{fill:#93d8ff;}.cls-6{fill:#7dd0ff;}.cls-7{fill:#4e6f41;}.cls-8{fill:#c49400;}.cls-9{fill:#ffc500;}.cls-10{fill:#d16f00;}.cls-11{fill:#ba542f;}.cls-12{fill:#f97f00;}.cls-13{fill:#ffc400;}.cls-14{fill:#f88900;}.cls-15{fill:#394651;}</style></defs><rect id="Background" class="cls-1" x="348.71" y="299.55" width="1860" height="1400"/><g id="Clouds"><path class="cls-2" d="M2208.71,772.36H1409.2l103.91-56.55c43.48-23.66,75.69-43,141.68-36.06l88.29,10c140.9,0,156.38-71.83,216.62-72.42,50.88-.49,63.84,28.36,101.62,27.6,59.28-1.2,53.95-109.35,147.39-109.35Z"/><path class="cls-2" d="M984.87,817.78H348.71V534.48c55.21,18.93,104.82,66.24,121.3,122.37,5.67,19.33,27.53,28.65,45.67,19.93C648.34,613,729.4,736.64,729.4,736.64c45,50.47,52.77,65.81,136.52,48C915.6,774,956,793.77,984.87,817.78Z"/></g><g id="Ground"><rect class="cls-3" x="348.71" y="1243.64" width="1860" height="455.91"/><polygon class="cls-4" points="2208.71 1375.9 2208.71 1699.55 348.71 1699.55 2208.71 1375.9"/></g><g id="Mountain"><path class="cls-5" d="M2208.71,774.36v469.28h-1860V810.41C634.11,768,823.06,666.82,948.43,551.54c30.24-27.82,70.67-41.87,111.76-41.87h447.89c75.64,0,149,26.95,206,76.69C1814,673.64,1962,735.64,2208.71,774.36Z"/><path class="cls-6" d="M1920.67,1049.63,1818.94,887.82l181.52,69.32-49,92A17.61,17.61,0,0,1,1920.67,1049.63Z"/><polygon class="cls-6" points="1605.77 1210.42 1479.61 1127.45 1647.95 1126.36 1605.77 1210.42"/><path class="cls-6" d="M1130,1047.52l-.53-139.94,80.56,61L1142,1051.76A6.74,6.74,0,0,1,1130,1047.52Z"/><path class="cls-6" d="M1668.46,1243.64l.49-.79-1320.24.79V1122.91L743.38,973.59l-2.19,64.49c-.67,19.84,21.5,32,37.88,20.82l256.61-175.42c26.17-17.89,61.63,1.21,61.09,32.91l-2,117.84a57.72,57.72,0,0,0,29.62,51.41l184.45,102.84,42-125.36,218.33,179.79,99.76-.06,143.56-233.21L1892,1101.8a40.77,40.77,0,0,0,66.16-6.22l109.26-189,141.27,337.06Z"/><path class="cls-2" d="M1714.05,586.36c-57-49.75-130.33-76.69-206-76.69H1060.19a169.93,169.93,0,0,0-112.07,42.14A1138.15,1138.15,0,0,1,809.31,656l146.12-62.76-2.92,92.24,170.31-113.39a30.36,30.36,0,0,1,47,21.57l7.39,60.18,93.94-65.5h3l10.22,51.41L1303,588.32h.09l54.41,94.26,82.91-125.84,130.89,160.44-7.51-160.44,47.82,35.43A149.57,149.57,0,0,0,1702,621.56l55.07-.5Q1735.09,604.71,1714.05,586.36Zm-660.76,1.81,8.54-21.9h32.78Zm289.76,35.29L1320,578.55l24.16-.62Zm193.35,18.77,13.39-28.8,7,59.38Z"/><polygon class="cls-2" points="1579.36 587.12 1585.37 644.99 1613.52 619.83 1579.36 587.12"/><polygon class="cls-2" points="895.76 639.32 937.15 618.64 935.81 666.82 895.76 639.32"/><polygon class="cls-2" points="1053.29 644.69 1141.92 588.89 1147.15 620.62 1053.29 644.69"/><polygon class="cls-2" points="1441.09 588.89 1392.28 658.56 1467.37 623.72 1441.09 588.89"/></g><g id="Trees"><path class="cls-7" d="M1022.49,1139.76a9.11,9.11,0,0,1-9.1,9.09H986.12v-10.64h90.15a12.66,12.66,0,0,0-12.66-12.64H1025.1l0-5a29.4,29.4,0,0,0-29.4-29.31h-6.92a23.85,23.85,0,0,0-21.69,13.93H917.43v-5.92a20.8,20.8,0,0,0-37.83-12c-5.22-6.47-15.67-10.76-24.93-10.76a37.22,37.22,0,0,0-37.22,37.23c0,.25,0,.46,0,.65a50.39,50.39,0,0,0-21.25-4.56c-18.32,0-33.88,9.25-39.35,22.08H733.28v6.24h69v15.64h91.41a25.52,25.52,0,0,1,25.48,25.49v64.3h5v-51.53a15.74,15.74,0,0,1,15.72-15.72H969a17.13,17.13,0,0,0,17.11-17.1v-5.44h27.27a14.11,14.11,0,0,0,14.1-14.09v-1.54h-5Zm-215.19,9.09v-10.64h23v2a13.66,13.66,0,0,0,3.11,8.68Zm111.89,13.78a30.47,30.47,0,0,0-25.48-13.78H843.94a8.68,8.68,0,0,1-8.68-8.68v-2h83.93Zm39.53,8.76H939.91a20.67,20.67,0,0,0-15.72,7.24v-40.42h34.53Zm22.4-12.1a12.12,12.12,0,0,1-12.11,12.1h-5.29v-33.18h17.4Z"/><rect class="cls-8" x="717.27" y="1129.47" width="8.71" height="5"/><rect class="cls-8" x="952.51" y="1090.71" width="8.71" height="5"/><rect class="cls-8" x="830.03" y="1113.33" width="15.97" height="5"/><path class="cls-8" d="M816.4,1116.72a48,48,0,0,0-20.19-4.34c-16.92,0-31.81,8.27-37.05,20.57l-.65,1.52H733.28v-5h22c6.55-13.27,22.75-22.09,41-22.09a54,54,0,0,1,18.86,3.36,39.78,39.78,0,0,1,39.6-36.67c9.11,0,18.84,3.79,24.8,9.44a23.31,23.31,0,0,1,40.46,15.78v3.42h45.59a26.42,26.42,0,0,1,23.24-13.93h6.92a32,32,0,0,1,31.9,31.8v2.49h36a15.17,15.17,0,0,1,15.16,15.14h-5a10.16,10.16,0,0,0-10.16-10.14H1008v-5h14.57v-2.48a27,27,0,0,0-26.9-26.81h-6.92a21.38,21.38,0,0,0-19.41,12.47l-.67,1.46H914.93v-8.42a18.3,18.3,0,0,0-32.83-11.13v10.94h-5v-10.85c-4.78-5.35-14.05-9.18-22.43-9.18A34.76,34.76,0,0,0,820,1113.8c0,.19,0,.36,0,.51Z"/><path class="cls-7" d="M1880.58,1067.63a23.69,23.69,0,0,0-23.7-23.7h-69.64a29.66,29.66,0,0,0-29.66-29.79h-19.29a61,61,0,0,0-119.91,0h-28.72a55.77,55.77,0,0,0-102.91,29.79h-44a32,32,0,0,0-31,23.7h-20.21v8.52h92.9a14,14,0,0,0,14,14h40.6a18.58,18.58,0,0,0,17.65,12.85h56a63.19,63.19,0,0,1,63.12,63.12v77.52h5v-71.44a73.53,73.53,0,0,1,15.07-44.69h10.17a18.19,18.19,0,0,0,18.17-18.17v-4.49a73.47,73.47,0,0,1,30.56-6.62h16.48a22.11,22.11,0,0,0,22.08-22.09h118.82v-8.52Zm-382.11,17.53a9,9,0,0,1-9-9h48.71v8.31c0,.24,0,.47,0,.7Zm99.09,12.85h-40.84a13.57,13.57,0,0,1-13.55-13.55v-8.31h54.39Zm78.27,42.51a68.22,68.22,0,0,0-63.12-42.51h-10.15v-21.86h73.27Zm43.41-31.17a13.19,13.19,0,0,1-13.17,13.17h-6a74.31,74.31,0,0,1,19.19-15.15Zm0-7.64a79.37,79.37,0,0,0-38.41,42.85v-68.41h38.41Zm52-8.47H1754.8a78.41,78.41,0,0,0-30.56,6.16v-23.25h64.12A17.11,17.11,0,0,1,1771.28,1093.24Z"/><rect class="cls-8" x="1529.66" y="1040.36" width="7.83" height="5"/><rect class="cls-8" x="1760.55" y="1040.36" width="11.51" height="5"/><rect class="cls-8" x="1921.44" y="1070.84" width="10.71" height="5"/><path class="cls-8" d="M1914.68,1074.54v1.61h-5v-1.61a5.49,5.49,0,0,0-5.48-5.48h-26.12v-2.5a21.22,21.22,0,0,0-21.2-21.2h-72.15v-2.51a27.16,27.16,0,0,0-27.16-27.28h-21.36l-.39-2a58.54,58.54,0,0,0-114.34-3h32.89v5h-66.1l-.73-1.16a53.27,53.27,0,0,0-98.24,25.95h24.5v5h-71.09a29.57,29.57,0,0,0-28.54,21.85l-.49,1.85h-15.14a4.49,4.49,0,0,0-4.49,4.48v2.61h-5v-2.61a9.5,9.5,0,0,1,9.49-9.48h11.36a34.56,34.56,0,0,1,32.81-23.7h41.58A58.27,58.27,0,0,1,1591,1010.57h25.33a63.55,63.55,0,0,1,124,0h17.25a32.18,32.18,0,0,1,32.08,29.79h67.22a26.23,26.23,0,0,1,26.08,23.7h21.24A10.5,10.5,0,0,1,1914.68,1074.54Z"/><rect class="cls-8" x="1600.06" y="992.65" width="10.71" height="5"/></g><g id="Bushes"><path class="cls-7" d="M2208.71,1131.9v111.75H801.57c4.61-28.3,35.39-50.17,72.66-50.17,24.43,0,46.06,9.39,59.36,23.83h249.83a112.52,112.52,0,0,1,106.34-75.75h59.72a112.48,112.48,0,0,1,88,42.38h86.29a48.69,48.69,0,0,1,46.22,33.37h56.6a43.83,43.83,0,0,1,61.82-8.37l7.62-10.71,3.26,2.32-7.82,11a42.72,42.72,0,0,1,4.35,4.67l12.8-18,3.26,2.32-13.58,19.08a42.11,42.11,0,0,1,3.34,6.08l19.56-27.48,3.26,2.32-19.8,27.82h7.67l21.45-30.14,3.26,2.32-19.8,27.82h7.67l21.45-30.14,3.26,2.32-19.8,27.82h7.67l21.45-30.14,3.26,2.32-19.8,27.82h7.67l21.45-30.14,3.26,2.32-19.8,27.82h7.68l21.45-30.14,3.26,2.32-19.8,27.82h7.67l21.45-30.14,3.26,2.32-19.8,27.82h7.67l21.45-30.14,3.26,2.32-19.8,27.82h7.67l21.45-30.14,3.26,2.32-19.8,27.82H1813l21.45-30.14,3.26,2.32-19.8,27.82H1826a48.06,48.06,0,0,1,44.1-28.92h70.74a96.94,96.94,0,0,1,75.56-35.57c17.77,0,37.09,4.67,51.63,12.8a52.38,52.38,0,0,1,51.82-44.78Z"/><path class="cls-7" d="M778.76,1227a79.42,79.42,0,0,1-1.76,16.67H348.71v-92.29H399.8c28.83,0,54.69,14.21,72.25,36.69H603.43a51.91,51.91,0,0,1,35.2,13.68c9.91-29.34,36.61-50.37,68-50.37C746.47,1151.35,778.76,1185.22,778.76,1227Z"/></g><g id="High_grass" data-name="High grass"><polygon class="cls-9" points="1598.54 1323.99 1594.69 1329.41 1588.55 1329.41 1591.78 1324.88 1598.54 1323.99"/><polygon class="cls-9" points="1622.66 1320.81 1616.55 1329.41 1610.4 1329.41 1615.88 1321.71 1615.89 1321.71 1622.66 1320.81"/><polygon class="cls-9" points="1646.78 1317.64 1638.41 1329.41 1632.26 1329.41 1640.01 1318.53 1646.78 1317.64"/><polygon class="cls-9" points="1670.9 1314.46 1660.26 1329.41 1654.12 1329.41 1664.13 1315.35 1670.9 1314.46"/><polygon class="cls-9" points="1695.01 1311.29 1682.12 1329.41 1675.98 1329.41 1688.25 1312.18 1695.01 1311.29"/><polygon class="cls-9" points="1719.13 1308.11 1703.98 1329.41 1697.84 1329.41 1712.37 1309 1719.13 1308.11"/><polygon class="cls-9" points="1743.25 1304.93 1725.84 1329.41 1719.69 1329.41 1736.48 1305.83 1743.25 1304.93"/><polygon class="cls-9" points="1767.37 1301.76 1747.7 1329.41 1741.55 1329.41 1760.6 1302.65 1767.37 1301.76"/><polygon class="cls-9" points="1791.49 1298.58 1769.55 1329.41 1763.41 1329.41 1784.72 1299.47 1791.49 1298.58"/><polygon class="cls-9" points="1815.61 1295.41 1791.41 1329.41 1785.27 1329.41 1808.84 1296.3 1815.61 1295.41"/><polygon class="cls-9" points="1839.72 1292.23 1813.27 1329.41 1807.12 1329.41 1832.95 1293.12 1832.96 1293.12 1839.72 1292.23"/><polygon class="cls-9" points="1863.84 1289.05 1835.13 1329.41 1828.98 1329.41 1857.08 1289.94 1863.84 1289.05"/><polygon class="cls-9" points="1887.96 1285.88 1856.98 1329.41 1850.84 1329.41 1881.2 1286.77 1887.96 1285.88"/><polygon class="cls-9" points="1912.08 1282.7 1878.84 1329.41 1872.7 1329.41 1905.31 1283.59 1912.08 1282.7"/><polygon class="cls-9" points="1936.2 1279.53 1900.7 1329.41 1894.56 1329.41 1929.43 1280.42 1936.2 1279.53"/><polygon class="cls-9" points="1960.31 1276.35 1922.56 1329.41 1916.41 1329.41 1953.55 1277.24 1960.31 1276.35"/><polygon class="cls-9" points="1984.43 1273.17 1944.42 1329.41 1938.27 1329.41 1977.67 1274.06 1984.43 1273.17"/><polygon class="cls-9" points="2008.55 1270 1966.27 1329.41 1960.13 1329.41 2001.79 1270.89 2008.55 1270"/><polygon class="cls-9" points="2032.67 1266.82 1988.13 1329.41 1981.99 1329.41 2025.9 1267.71 2025.91 1267.71 2032.67 1266.82"/><polygon class="cls-9" points="2056.79 1263.64 2009.99 1329.41 2003.85 1329.41 2050.02 1264.54 2056.79 1263.64"/><polygon class="cls-9" points="2080.9 1260.47 2031.85 1329.41 2025.7 1329.41 2074.14 1261.36 2080.9 1260.47"/><polygon class="cls-9" points="2105.03 1257.29 2053.71 1329.41 2047.56 1329.41 2098.26 1258.18 2105.03 1257.29"/><polygon class="cls-9" points="2129.14 1254.12 2075.56 1329.41 2069.42 1329.41 2122.38 1255.01 2129.14 1254.12"/><polygon class="cls-9" points="2153.26 1250.94 2097.42 1329.41 2091.28 1329.41 2146.49 1251.83 2153.26 1250.94"/><polygon class="cls-9" points="2177.38 1247.77 2119.28 1329.41 2113.14 1329.41 2170.62 1248.66 2177.38 1247.77"/><polygon class="cls-9" points="2201.15 1245.09 2141.14 1329.41 2134.99 1329.41 2194.73 1245.48 2200.61 1244.71 2201.15 1245.09"/><polygon class="cls-9" points="2208.58 1257.25 2208.51 1265.45 2163 1329.41 2156.85 1329.41 2208.34 1257.08 2208.58 1257.25"/><polygon class="cls-9" points="2208.3 1287.83 2208.22 1296.57 2184.85 1329.41 2178.71 1329.41 2208.3 1287.83"/><polygon class="cls-8" points="1264.54 1606.04 1197.98 1699.56 1190.62 1699.56 1257.59 1605.47 1264.54 1606.04"/><polygon class="cls-8" points="1285.17 1607.76 1219.85 1699.56 1212.47 1699.56 1278.22 1607.18 1285.17 1607.76"/><polygon class="cls-8" points="1305.82 1609.47 1241.7 1699.56 1234.34 1699.56 1298.87 1608.89 1305.82 1609.47"/><polygon class="cls-8" points="1326.45 1611.19 1263.56 1699.56 1256.18 1699.56 1319.49 1610.61 1326.45 1611.19"/><polygon class="cls-8" points="1347.09 1612.9 1285.41 1699.56 1278.05 1699.56 1340.13 1612.32 1347.09 1612.9"/><polygon class="cls-8" points="1367.73 1614.61 1307.28 1699.56 1299.9 1699.56 1360.78 1614.04 1367.73 1614.61"/><polygon class="cls-8" points="1388.38 1616.33 1329.13 1699.56 1321.77 1699.56 1381.41 1615.75 1388.38 1616.33"/><polygon class="cls-8" points="1409.01 1618.04 1350.99 1699.56 1343.63 1699.56 1402.05 1617.47 1409.01 1618.04"/><polygon class="cls-8" points="1429.63 1619.76 1372.85 1699.56 1365.48 1699.56 1422.69 1619.18 1429.63 1619.76"/><polygon class="cls-8" points="1450.28 1621.47 1394.7 1699.56 1387.34 1699.56 1443.33 1620.89 1450.28 1621.47"/><polygon class="cls-8" points="1470.91 1623.19 1416.57 1699.56 1409.19 1699.56 1463.95 1622.61 1470.91 1623.19"/><polygon class="cls-8" points="1491.56 1624.9 1438.42 1699.56 1431.06 1699.56 1484.6 1624.32 1491.56 1624.9"/><polygon class="cls-8" points="1512.18 1626.61 1460.29 1699.56 1452.91 1699.56 1505.23 1626.04 1512.18 1626.61"/><polygon class="cls-8" points="1532.84 1628.33 1482.13 1699.56 1474.77 1699.56 1525.88 1627.75 1532.84 1628.33"/><polygon class="cls-8" points="1553.47 1630.04 1503.99 1699.56 1496.63 1699.56 1546.52 1629.47 1553.47 1630.04"/><polygon class="cls-8" points="1574.12 1631.76 1525.86 1699.56 1518.48 1699.56 1567.15 1631.18 1574.12 1631.76"/><polygon class="cls-8" points="1594.74 1633.47 1547.71 1699.56 1540.35 1699.56 1587.79 1632.89 1594.74 1633.47"/><polygon class="cls-8" points="1615.38 1635.19 1569.57 1699.56 1562.2 1699.56 1608.42 1634.61 1615.38 1635.19"/><polygon class="cls-8" points="1636.03 1636.9 1591.42 1699.56 1584.06 1699.56 1629.07 1636.32 1636.03 1636.9"/><polygon class="cls-8" points="1656.66 1638.61 1613.29 1699.56 1605.91 1699.56 1649.7 1638.04 1656.66 1638.61"/><polygon class="cls-8" points="1677.3 1640.33 1635.14 1699.56 1627.78 1699.56 1670.34 1639.75 1677.3 1640.33"/><polygon class="cls-8" points="1697.93 1642.04 1657.01 1699.56 1649.63 1699.56 1690.97 1641.47 1697.93 1642.04"/><polygon class="cls-8" points="1718.57 1643.76 1678.86 1699.56 1671.49 1699.56 1711.62 1643.18 1718.57 1643.76"/><polygon class="cls-8" points="1739.2 1645.47 1700.71 1699.56 1693.35 1699.56 1732.26 1644.89 1739.2 1645.47"/><polygon class="cls-8" points="1759.85 1647.19 1722.58 1699.56 1715.2 1699.56 1752.89 1646.61 1759.85 1647.19"/><polygon class="cls-8" points="1780.48 1648.9 1744.43 1699.56 1737.07 1699.56 1773.53 1648.32 1780.48 1648.9"/><polygon class="cls-8" points="1801.13 1650.61 1766.3 1699.56 1758.92 1699.56 1794.16 1650.04 1801.13 1650.61"/><polygon class="cls-8" points="1821.76 1652.33 1788.14 1699.56 1780.78 1699.56 1814.81 1651.75 1821.76 1652.33"/><polygon class="cls-8" points="1842.39 1654.04 1810.01 1699.56 1802.63 1699.56 1835.44 1653.47 1842.39 1654.04"/><polygon class="cls-8" points="1863.04 1655.76 1831.87 1699.56 1824.49 1699.56 1856.09 1655.18 1863.04 1655.76"/><polygon class="cls-8" points="1883.67 1657.47 1853.72 1699.56 1846.36 1699.56 1876.71 1656.89 1883.67 1657.47"/><polygon class="cls-8" points="1904.32 1659.19 1875.59 1699.56 1868.21 1699.56 1897.36 1658.61 1904.32 1659.19"/><polygon class="cls-8" points="1924.94 1660.9 1897.43 1699.56 1890.07 1699.56 1917.99 1660.32 1924.94 1660.9"/><polygon class="cls-8" points="1945.59 1662.61 1919.3 1699.56 1911.92 1699.56 1938.63 1662.04 1945.59 1662.61"/><polygon class="cls-8" points="1966.22 1664.33 1941.15 1699.56 1933.79 1699.56 1959.27 1663.75 1966.22 1664.33"/><polygon class="cls-8" points="1986.87 1666.04 1963.02 1699.56 1955.64 1699.56 1979.9 1665.47 1986.87 1666.04"/><polygon class="cls-8" points="2007.89 1667.79 1985.3 1699.56 1977.92 1699.56 2000.94 1667.21 2007.89 1667.79"/><polygon class="cls-8" points="2028.54 1669.5 2007.14 1699.56 1999.78 1699.56 2021.58 1668.93 2028.54 1669.5"/><polygon class="cls-8" points="2049.18 1671.22 2029.01 1699.56 2021.63 1699.56 2042.21 1670.64 2049.18 1671.22"/><polygon class="cls-8" points="2069.82 1672.93 2050.86 1699.56 2043.49 1699.56 2062.86 1672.36 2069.82 1672.93"/><polygon class="cls-8" points="2090.45 1674.65 2072.72 1699.56 2065.36 1699.56 2083.49 1674.07 2090.45 1674.65"/><polygon class="cls-8" points="2111.09 1676.36 2094.59 1699.56 2087.22 1699.56 2104.14 1675.78 2111.09 1676.36"/><polygon class="cls-8" points="2131.72 1678.08 2116.43 1699.56 2109.07 1699.56 2124.76 1677.5 2131.72 1678.08"/><polygon class="cls-8" points="2152.36 1679.79 2138.3 1699.56 2130.93 1699.56 2145.41 1679.21 2152.36 1679.79"/><polygon class="cls-8" points="2173.01 1681.5 2160.16 1699.56 2152.78 1699.56 2166.05 1680.93 2173.01 1681.5"/><polygon class="cls-8" points="2193.64 1683.22 2182.01 1699.56 2174.64 1699.56 2186.68 1682.64 2193.64 1683.22"/><polygon class="cls-8" points="542.22 1546.04 432.95 1699.56 425.58 1699.56 535.25 1545.47 542.22 1546.04"/><polygon class="cls-8" points="562.86 1547.76 454.81 1699.56 447.44 1699.56 555.89 1547.18 562.86 1547.76"/><polygon class="cls-8" points="583.5 1549.47 476.68 1699.56 469.31 1699.56 576.53 1548.89 583.5 1549.47"/><polygon class="cls-8" points="604.13 1551.19 498.54 1699.56 491.17 1699.56 597.16 1550.61 604.13 1551.19"/><polygon class="cls-8" points="624.76 1552.9 520.38 1699.56 513.02 1699.56 617.82 1552.32 624.76 1552.9"/><polygon class="cls-8" points="645.4 1554.61 542.25 1699.56 534.88 1699.56 638.45 1554.04 645.4 1554.61"/><polygon class="cls-8" points="666.03 1556.33 564.11 1699.56 556.74 1699.56 659.09 1555.75 666.03 1556.33"/><polygon class="cls-8" points="686.67 1558.04 585.97 1699.56 578.6 1699.56 679.73 1557.47 686.67 1558.04"/><polygon class="cls-8" points="707.32 1559.76 607.83 1699.56 600.46 1699.56 700.37 1559.18 707.32 1559.76"/><polygon class="cls-8" points="376.99 1532.32 348.7 1572.05 348.7 1561.7 370.02 1531.74 376.99 1532.32"/><polygon class="cls-8" points="397.62 1534.03 348.7 1602.76 348.7 1592.41 390.67 1533.46 397.62 1534.03"/><polygon class="cls-8" points="418.25 1535.75 348.7 1633.47 348.7 1623.13 411.31 1535.17 418.25 1535.75"/><polygon class="cls-8" points="438.89 1537.46 348.7 1664.19 348.7 1653.84 431.94 1536.88 438.89 1537.46"/><polygon class="cls-8" points="459.54 1539.18 348.7 1694.89 348.7 1684.55 452.57 1538.6 459.54 1539.18"/><polygon class="cls-8" points="480.18 1540.89 367.25 1699.56 359.88 1699.56 473.21 1540.31 480.18 1540.89"/><polygon class="cls-8" points="500.81 1542.6 389.11 1699.56 381.74 1699.56 493.85 1542.03 500.81 1542.6"/><polygon class="cls-8" points="521.45 1544.32 410.96 1699.56 403.6 1699.56 514.49 1543.74 521.45 1544.32"/><polygon class="cls-8" points="727.95 1561.47 629.67 1699.56 622.32 1699.56 721 1560.89 727.95 1561.47"/><polygon class="cls-8" points="748.6 1563.19 651.53 1699.56 644.16 1699.56 741.63 1562.61 748.6 1563.19"/><polygon class="cls-8" points="769.23 1564.9 673.39 1699.56 666.02 1699.56 762.27 1564.32 769.23 1564.9"/><polygon class="cls-8" points="789.88 1566.62 695.25 1699.56 687.88 1699.56 782.91 1566.04 789.88 1566.62"/><polygon class="cls-8" points="810.5 1568.33 717.12 1699.56 709.75 1699.56 803.54 1567.75 810.5 1568.33"/><polygon class="cls-8" points="831.14 1570.04 738.97 1699.56 731.61 1699.56 824.18 1569.47 831.14 1570.04"/><polygon class="cls-8" points="851.77 1571.76 760.83 1699.56 753.46 1699.56 844.83 1571.18 851.77 1571.76"/><polygon class="cls-8" points="872.41 1573.47 782.68 1699.56 775.32 1699.56 865.47 1572.89 872.41 1573.47"/><polygon class="cls-8" points="893.05 1575.19 804.54 1699.56 797.17 1699.56 886.11 1574.61 893.05 1575.19"/><polygon class="cls-8" points="913.7 1576.9 826.4 1699.56 819.03 1699.56 906.75 1576.32 913.7 1576.9"/><polygon class="cls-8" points="934.34 1578.61 848.25 1699.56 840.89 1699.56 927.38 1578.04 934.34 1578.61"/><polygon class="cls-8" points="954.97 1580.33 870.12 1699.56 862.75 1699.56 948.01 1579.75 954.97 1580.33"/><polygon class="cls-8" points="975.61 1582.04 891.98 1699.56 884.61 1699.56 968.65 1581.47 975.61 1582.04"/><polygon class="cls-8" points="996.25 1583.76 913.84 1699.56 906.47 1699.56 989.28 1583.18 996.25 1583.76"/><polygon class="cls-8" points="1016.88 1585.47 935.7 1699.56 928.33 1699.56 1009.93 1584.89 1016.88 1585.47"/><polygon class="cls-8" points="1037.52 1587.19 957.54 1699.56 950.17 1699.56 1030.57 1586.61 1037.52 1587.19"/><polygon class="cls-8" points="1058.16 1588.9 979.4 1699.56 972.03 1699.56 1051.2 1588.32 1058.16 1588.9"/><polygon class="cls-8" points="1078.8 1590.61 1001.26 1699.56 993.89 1699.56 1071.85 1590.04 1078.8 1590.61"/><polygon class="cls-8" points="1099.43 1592.33 1023.13 1699.56 1015.75 1699.56 1092.48 1591.75 1099.43 1592.33"/><polygon class="cls-8" points="1120.08 1594.04 1044.97 1699.56 1037.62 1699.56 1113.13 1593.47 1120.08 1594.04"/><polygon class="cls-8" points="1140.71 1595.76 1066.84 1699.56 1059.46 1699.56 1133.76 1595.18 1140.71 1595.76"/><polygon class="cls-8" points="1161.36 1597.47 1088.69 1699.56 1081.33 1699.56 1154.39 1596.89 1161.36 1597.47"/><polygon class="cls-8" points="1181.99 1599.19 1110.56 1699.56 1103.18 1699.56 1175.04 1598.61 1181.99 1599.19"/><polygon class="cls-8" points="1202.63 1600.9 1132.41 1699.56 1125.05 1699.56 1195.67 1600.32 1202.63 1600.9"/><polygon class="cls-8" points="1223.26 1602.61 1154.27 1699.56 1146.9 1699.56 1216.32 1602.04 1223.26 1602.61"/><polygon class="cls-8" points="1243.89 1604.33 1176.13 1699.56 1168.76 1699.56 1236.94 1603.75 1243.89 1604.33"/><polygon class="cls-8" points="348.71 1243.65 2067.44 1243.65 348.71 1358.24 348.71 1243.65"/><polygon class="cls-8" points="525.73 1231.2 516.88 1243.64 511.97 1243.64 522.47 1228.88 525.73 1231.2"/><polygon class="cls-8" points="538.31 1231.2 529.46 1243.64 524.55 1243.64 535.05 1228.88 538.31 1231.2"/><polygon class="cls-8" points="550.89 1231.2 542.04 1243.64 537.13 1243.64 547.64 1228.88 550.89 1231.2"/><polygon class="cls-8" points="563.48 1231.2 554.63 1243.64 549.71 1243.64 560.22 1228.88 563.48 1231.2"/><polygon class="cls-8" points="576.06 1231.2 567.21 1243.64 562.29 1243.64 572.8 1228.88 576.06 1231.2"/><polygon class="cls-8" points="588.64 1231.2 579.79 1243.64 574.87 1243.64 585.38 1228.88 588.64 1231.2"/><polygon class="cls-8" points="601.22 1231.2 592.37 1243.64 587.46 1243.64 597.96 1228.88 601.22 1231.2"/><polygon class="cls-8" points="613.8 1231.2 604.95 1243.64 600.04 1243.64 610.54 1228.88 613.8 1231.2"/><polygon class="cls-8" points="626.38 1231.2 617.53 1243.64 612.62 1243.64 623.13 1228.88 626.38 1231.2"/><polygon class="cls-8" points="638.97 1231.2 630.12 1243.64 625.2 1243.64 635.71 1228.88 638.97 1231.2"/><polygon class="cls-8" points="651.55 1231.2 642.7 1243.64 637.78 1243.64 648.29 1228.88 651.55 1231.2"/><polygon class="cls-8" points="664.13 1231.2 655.28 1243.64 650.36 1243.64 660.87 1228.88 664.13 1231.2"/><polygon class="cls-8" points="676.71 1231.2 667.86 1243.64 662.95 1243.64 673.45 1228.88 676.71 1231.2"/><polygon class="cls-8" points="374.73 1231.2 365.88 1243.64 360.97 1243.64 371.47 1228.88 374.73 1231.2"/><polygon class="cls-8" points="362.73 1231.2 353.88 1243.64 348.97 1243.64 359.47 1228.88 362.73 1231.2"/><polygon class="cls-8" points="387.31 1231.2 378.46 1243.64 373.55 1243.64 384.05 1228.88 387.31 1231.2"/><polygon class="cls-8" points="399.89 1231.2 391.04 1243.64 386.13 1243.64 396.64 1228.88 399.89 1231.2"/><polygon class="cls-8" points="412.48 1231.2 403.63 1243.64 398.71 1243.64 409.22 1228.88 412.48 1231.2"/><polygon class="cls-8" points="425.06 1231.2 416.21 1243.64 411.29 1243.64 421.8 1228.88 425.06 1231.2"/><polygon class="cls-8" points="437.64 1231.2 428.79 1243.64 423.87 1243.64 434.38 1228.88 437.64 1231.2"/><polygon class="cls-8" points="450.22 1231.2 441.37 1243.64 436.46 1243.64 446.96 1228.88 450.22 1231.2"/><polygon class="cls-8" points="462.8 1231.2 453.95 1243.64 449.04 1243.64 459.54 1228.88 462.8 1231.2"/><polygon class="cls-8" points="475.38 1231.2 466.53 1243.64 461.62 1243.64 472.13 1228.88 475.38 1231.2"/><polygon class="cls-8" points="487.97 1231.2 479.12 1243.64 474.2 1243.64 484.71 1228.88 487.97 1231.2"/><polygon class="cls-8" points="500.55 1231.2 491.7 1243.64 486.78 1243.64 497.29 1228.88 500.55 1231.2"/><polygon class="cls-8" points="513.13 1231.2 504.28 1243.64 499.36 1243.64 509.87 1228.88 513.13 1231.2"/><polygon class="cls-8" points="689.29 1231.2 680.44 1243.64 675.53 1243.64 686.03 1228.88 689.29 1231.2"/><polygon class="cls-8" points="701.88 1231.2 693.03 1243.64 688.11 1243.64 698.62 1228.88 701.88 1231.2"/><polygon class="cls-8" points="714.46 1231.2 705.61 1243.64 700.69 1243.64 711.2 1228.88 714.46 1231.2"/><polygon class="cls-8" points="727.04 1231.2 718.19 1243.64 713.27 1243.64 723.78 1228.88 727.04 1231.2"/><polygon class="cls-8" points="739.62 1231.2 730.77 1243.64 725.85 1243.64 736.36 1228.88 739.62 1231.2"/><polygon class="cls-8" points="752.2 1231.2 743.35 1243.64 738.44 1243.64 748.94 1228.88 752.2 1231.2"/><polygon class="cls-8" points="764.78 1231.2 755.93 1243.64 751.02 1243.64 761.52 1228.88 764.78 1231.2"/><polygon class="cls-8" points="777.37 1231.2 768.52 1243.64 763.6 1243.64 774.11 1228.88 777.37 1231.2"/><polygon class="cls-8" points="789.95 1231.2 781.1 1243.64 776.18 1243.64 786.69 1228.88 789.95 1231.2"/><polygon class="cls-8" points="802.53 1231.2 793.68 1243.64 788.76 1243.64 799.27 1228.88 802.53 1231.2"/><polygon class="cls-8" points="815.11 1231.2 806.26 1243.64 801.35 1243.64 811.85 1228.88 815.11 1231.2"/><polygon class="cls-8" points="827.69 1231.2 818.84 1243.64 813.93 1243.64 824.43 1228.88 827.69 1231.2"/><polygon class="cls-8" points="840.27 1231.2 831.42 1243.64 826.51 1243.64 837.02 1228.88 840.27 1231.2"/><polygon class="cls-8" points="852.86 1231.2 844.01 1243.64 839.09 1243.64 849.6 1228.88 852.86 1231.2"/><polygon class="cls-8" points="865.44 1231.2 856.59 1243.64 851.67 1243.64 862.18 1228.88 865.44 1231.2"/><polygon class="cls-8" points="878.02 1231.2 869.17 1243.64 864.25 1243.64 874.76 1228.88 878.02 1231.2"/><polygon class="cls-8" points="890.6 1231.2 881.75 1243.64 876.84 1243.64 887.34 1228.88 890.6 1231.2"/><polygon class="cls-8" points="903.18 1231.2 894.33 1243.64 889.42 1243.64 899.92 1228.88 903.18 1231.2"/><polygon class="cls-8" points="915.76 1231.2 906.91 1243.64 902 1243.64 912.51 1228.88 915.76 1231.2"/><polygon class="cls-8" points="928.35 1231.2 919.5 1243.64 914.58 1243.64 925.09 1228.88 928.35 1231.2"/><polygon class="cls-8" points="940.93 1231.2 932.08 1243.64 927.16 1243.64 937.67 1228.88 940.93 1231.2"/><polygon class="cls-8" points="953.51 1231.2 944.66 1243.64 939.74 1243.64 950.25 1228.88 953.51 1231.2"/><polygon class="cls-8" points="966.09 1231.2 957.24 1243.64 952.33 1243.64 962.83 1228.88 966.09 1231.2"/></g><path id="Bird" class="cls-10" d="M1788.94,468.43v6a17.51,17.51,0,0,0-17.49,17.49h-6A17.51,17.51,0,0,0,1748,474.43v-6a23.47,23.47,0,0,1,20.48,12A23.49,23.49,0,0,1,1788.94,468.43Z"/><g id="Dry_wood" data-name="Dry wood"><path class="cls-11" d="M1940.17,1494.54a72.67,72.67,0,0,0,27.09,5.24h240.18v39.6h-311a97.71,97.71,0,0,0-39,8.09l-19,8.27-4.74-8.12,4.93-3.68a2.53,2.53,0,0,0-1.52-4.56h-38a59.83,59.83,0,0,0-32.25,9.42l-60.53,39.33-4.11-5.11,19.35-13.25h-55.17v-6.56h47.7a55.81,55.81,0,0,0,32-10l11.79-8.21a3.06,3.06,0,0,0-1.73-5.58h-61.37V1519.5h236a6.25,6.25,0,0,0,2.77-11.86l-61.06-30a81.25,81.25,0,0,0-35.89-8.36h-50.76v-7.41h52.11a108.09,108.09,0,0,1,42.55,8.72,2.15,2.15,0,0,0,2.93-2v-18.13h4.46v9.14a21.08,21.08,0,0,0,13.34,19.6Z"/><circle class="cls-12" cx="1837.01" cy="1551.13" r="4.83"/><circle class="cls-12" cx="1666.55" cy="1566.52" r="3.31"/><circle class="cls-12" cx="1704.28" cy="1585.55" r="3.31"/><path class="cls-12" d="M1882.91,1470.08a1.5,1.5,0,0,1-1.38.91,1.52,1.52,0,0,1-.59-.12,111.67,111.67,0,0,0-43-8.6h-47.47a5,5,0,1,1-4.64-3.06,4.37,4.37,0,0,1,.72.06h51.39a114.85,114.85,0,0,1,44.2,8.84A1.5,1.5,0,0,1,1882.91,1470.08Z"/><path class="cls-12" d="M1934,1519.06a1.5,1.5,0,1,1,0,3H1702.19a10.26,10.26,0,1,1-7.45-3.2Z"/><path class="cls-12" d="M2207.44,1497.21v3H1967.26a74,74,0,0,1-27.64-5.34l-39-15.37a22.46,22.46,0,0,1-14.29-21v-5a3.08,3.08,0,1,1,3.21-3.07,3.23,3.23,0,0,1-.21,1.12v7a19.44,19.44,0,0,0,12.39,18.2l39,15.38a70.89,70.89,0,0,0,26.54,5.13Z"/></g><g id="Plants"><path class="cls-13" d="M665,1517.61l-2.36.91a30.65,30.65,0,0,0-19.5,28.43v152.6h-5V1547a30.66,30.66,0,0,0-19.51-28.43l-2.36-.91,1.8-4.67,2.37.92A35.49,35.49,0,0,1,637,1527.22a38.14,38.14,0,0,0-13-20.68l3.17-3.87a43.15,43.15,0,0,1,10.85,13.27v-16.8h5v16.78a43.36,43.36,0,0,1,10.84-13.25l3.17,3.87a38.19,38.19,0,0,0-13,20.67,35.36,35.36,0,0,1,16.64-13.35l2.36-.92Z"/><path class="cls-13" d="M691.51,1438.39l-2.83,1.1a37.3,37.3,0,0,0-23.74,34.59v225.47h-5V1474.08a37.29,37.29,0,0,0-23.73-34.59l-2.83-1.1,1.8-4.66,2.83,1.09a42.2,42.2,0,0,1,21.22,18.2,46.36,46.36,0,0,0-16.29-27.84l3.17-3.86A51.53,51.53,0,0,1,659.94,1439v-22.53h5V1439a51.68,51.68,0,0,1,13.84-17.65l3.17,3.86a46.32,46.32,0,0,0-16.3,27.86,42.17,42.17,0,0,1,21.23-18.22l2.83-1.09Z"/><rect class="cls-13" x="2034.14" y="1435.33" width="4" height="104.04"/><rect class="cls-13" x="2172.65" y="1518.86" width="4" height="20.51"/><rect class="cls-13" x="1994.66" y="1479.94" width="4" height="59.43"/><path class="cls-13" d="M2045,1384.7l1.45,3.74-2.37.91a31.17,31.17,0,0,0-19.82,28.89v121.13h-4V1418.24a31.17,31.17,0,0,0-19.82-28.89l-2.37-.91,1.45-3.74,2.36.92a35.06,35.06,0,0,1,17.86,15.52,38.62,38.62,0,0,0-13.68-23.69l2.54-3.1a42.83,42.83,0,0,1,11.66,15V1369.7h4v19.66a42.83,42.83,0,0,1,11.66-15l2.54,3.1a38.62,38.62,0,0,0-13.68,23.69,35,35,0,0,1,17.86-15.52Z"/></g><g id="Giraffe"><path class="cls-13" d="M1260.22,1274.68a235.88,235.88,0,0,1-4.94,110.45l-44.51,154.14L1202,1699.55h-26.88V1517.29l1.68-4.42a236.64,236.64,0,0,0,5.78-151.59H1055.32s0,37.53-66.37,193.36c-27.73,65.08-23.7,144.91-23.7,144.91H941.46V1529.34a134.89,134.89,0,0,0,9.31-19.85q-4.32,6.3-9.31,12.38c-69.28,84.35-60.23,177.68-60.23,177.68H857.69V1548.74A15.59,15.59,0,0,1,868,1534.07a55.47,55.47,0,0,0,36.76-52.22V1316.71a85.53,85.53,0,0,1,61.51-82.07l120.37-35.19,12.84-25.81a72.67,72.67,0,0,1,40.39-36l22.55-8.14,152.63-238.34,22.24,47.69-88,279.7Z"/><polygon class="cls-14" points="1190.68 1406.5 1189.01 1388.98 1187.48 1370.39 1207.14 1387.91 1190.68 1406.5"/><polygon class="cls-14" points="1321.58 988.9 1307.99 1032.13 1291.07 1002.56 1321.58 988.9"/><polygon class="cls-14" points="1295.96 1070.46 1276.66 1131.9 1252.6 1089.87 1295.96 1070.46"/><rect class="cls-14" x="1274.19" y="970.03" width="21.77" height="21.77"/><rect class="cls-14" x="1228.91" y="1046.14" width="21.77" height="21.77"/><rect class="cls-14" x="1268.15" y="1028.02" width="25.56" height="25.56" transform="translate(-335.95 709.52) rotate(-27.52)"/><rect class="cls-14" x="1217" y="1110.47" width="25.56" height="25.56" transform="translate(-379.83 695.22) rotate(-27.52)"/><rect class="cls-14" x="1177.18" y="1180.69" width="25.56" height="25.56"/><polygon class="cls-14" points="1246.66 1415 1232.62 1415 1232.62 1389.44 1254.04 1389.44 1246.66 1415"/><rect class="cls-14" x="1079.46" y="1275.84" width="46.51" height="46.51"/><rect class="cls-14" x="968.14" y="1293.49" width="49.89" height="49.89" transform="translate(1284.73 -306.2) rotate(47.16)"/><path class="cls-14" d="M907.65,1294.66a85.45,85.45,0,0,1,14.2-29.23c.68-.9,1.36-1.78,2.07-2.65l17.13,18.47Z"/><rect class="cls-14" x="1030.47" y="1244.72" width="28.61" height="28.61" transform="translate(-577.37 1046.1) rotate(-42.84)"/><polygon class="cls-14" points="1127.4 1361.36 1147.63 1341.13 1167.86 1361.36 1127.4 1361.36"/><rect class="cls-14" x="917.78" y="1315.41" width="26.29" height="26.29" transform="translate(789 -287.47) rotate(30)"/><polygon class="cls-14" points="979.62 1449.75 958.66 1449.75 953.33 1423.46 979.62 1423.46 979.62 1449.75"/><rect class="cls-14" x="986.26" y="1377.85" width="26.29" height="26.29" transform="translate(1276.3 -299.27) rotate(45)"/><path class="cls-14" d="M1042.35,1416.24c-2.78,8.24-6,17.37-9.68,27.5l-17.58-17.59,18.58-18.59Z"/><rect class="cls-14" x="1211.09" y="1340.59" width="26.29" height="26.29" transform="translate(1315.81 -469.17) rotate(45)"/><polygon class="cls-14" points="955.43 1429.8 936.3 1389.37 926.11 1372.57 955.43 1372.57 955.43 1429.8"/><polygon class="cls-14" points="1060.76 1361.46 1033.02 1361.46 1042.62 1337.99 1058.62 1337.99 1060.76 1361.46"/><path class="cls-14" d="M1008,1245.41l-33.88,31.43-31.57-32.46c7.68-2.73,16-7.57,23.28-9.7l25.87-7.48Z"/><rect class="cls-14" x="1157.82" y="1237.27" width="25.56" height="25.56"/><polygon class="cls-14" points="1086.65 1199.45 1083.55 1229.52 1033.94 1214.86 1086.65 1199.45"/><path class="cls-14" d="M1143.62,1136.3v40h-45.17v-.54l1-2.08a72.7,72.7,0,0,1,40.39-36Z"/><rect class="cls-14" x="1162.1" y="1124.51" width="34.08" height="34.08" transform="translate(-318.92 471.23) rotate(-19.97)"/><polygon class="cls-14" points="1255.86 1252.2 1222.21 1258.24 1215.88 1224.75 1249.37 1218.41 1255.86 1252.2"/><rect class="cls-14" x="1106.79" y="1196.89" width="40.84" height="40.84" transform="translate(-530.61 1153.6) rotate(-45)"/><rect class="cls-14" x="1173.46" y="1278.68" width="40.84" height="40.84" transform="translate(-568.92 1224.7) rotate(-45)"/><path class="cls-14" d="M1263.65,1340.16l-.08.09-28.88-28.88,27.18-27.18A235.73,235.73,0,0,1,1263.65,1340.16Z"/><polygon class="cls-14" points="1266.51 1163.93 1254.81 1201.15 1217.87 1188.8 1230.05 1151.89 1266.51 1163.93"/><rect class="cls-14" x="1311.12" y="938.87" width="20.92" height="20.92"/><polygon class="cls-14" points="1296.94 954.15 1271.11 959.79 1291.3 928.27 1296.94 954.15"/><polygon class="cls-14" points="1257.09 1021.11 1227.84 1027.49 1250.7 991.8 1257.09 1021.11"/><polygon class="cls-14" points="1227.84 1087.66 1175.04 1109.89 1206.16 1061.3 1227.84 1087.66"/><path class="cls-10" d="M1060.58,1361.54l-5-.16a149,149,0,0,0-7.4-51.77l4.75-1.55A154.2,154.2,0,0,1,1060.58,1361.54Z"/><path class="cls-10" d="M956.42,1240.91q-2.52,1.13-4.95,2.4-2.21,1.15-4.33,2.45a83,83,0,0,0-19.72,125.15l.94,1.1A138.12,138.12,0,0,1,944,1530v169.55h-5V1528.67l.33-.58a133.13,133.13,0,0,0-14.71-152.82l-1-1.09a88,88,0,0,1-16.36-28.26v135.93a58.12,58.12,0,0,1-38.42,54.58,13.09,13.09,0,0,0-8.66,12.31v150.81h-5V1548.74a18.12,18.12,0,0,1,12-17,53.08,53.08,0,0,0,35.1-49.87V1316.71a88,88,0,0,1,63.31-84.47l119.32-34.88,12.35-24.83A74.85,74.85,0,0,1,1139,1135.3l21.75-7.85L1313,889.82l4.21,2.7-153.08,239.06-23.35,8.42a69.84,69.84,0,0,0-39,34.75l-13.33,26.79Z"/><path class="cls-10" d="M1177.62,1699.55h-5V1516.83l1.84-4.85a235.46,235.46,0,0,0,5.73-150L1169,1327.39l4.76-1.53,11.18,34.66a240.5,240.5,0,0,1-5.82,153.24l-1.52,4Z"/><path class="cls-13" d="M1403,862.45a26.63,26.63,0,0,0-25.72,19.82l-3.82-4.9a30.2,30.2,0,0,1-6.36-18.54v-18h-10.89v16a8.07,8.07,0,1,1-16.13,0v-16h-10.89v18a30.2,30.2,0,0,1-6.36,18.54l-3,3.91a26.62,26.62,0,0,0-25.43-18.84H1273.9v4.11a26.62,26.62,0,0,0,26.59,26.59h12.65v17.71a35.6,35.6,0,0,1,19.38,31.7v25.22h31.29V942.56a35.61,35.61,0,0,1,19.39-31.7V893.15h13.71a26.62,26.62,0,0,0,26.59-26.59v-4.11Zm-102.53,25.7a21.63,21.63,0,0,1-21.58-20.7h15.47a21.63,21.63,0,0,1,21.44,19c.07.57.12,1.15.14,1.73Zm96.42,0h-15.47l0-.51A21.62,21.62,0,0,1,1403,867.45h15.46A21.61,21.61,0,0,1,1396.91,888.15Z"/><path class="cls-11" d="M1316,888.15h-15.47a21.63,21.63,0,0,1-21.58-20.7h15.47A21.63,21.63,0,0,1,1316,888.15Z"/><path class="cls-11" d="M1418.48,867.45a21.61,21.61,0,0,1-21.57,20.7h-15.47a21.63,21.63,0,0,1,21.58-20.7Z"/><circle class="cls-11" cx="1354.17" cy="955.66" r="3.31"/><circle class="cls-11" cx="1342.72" cy="955.66" r="3.31"/><circle class="cls-11" cx="1362.38" cy="837.57" r="7.53"/><circle class="cls-11" cx="1334.11" cy="837.57" r="7.53"/><rect class="cls-14" x="1339.21" y="879.74" width="17.91" height="17.91" transform="translate(1023.27 -693.01) rotate(45)"/><path class="cls-11" d="M1332.89,967.78h-5V942.55a33.26,33.26,0,0,0-13.26-26.49l3-4a38.3,38.3,0,0,1,15.26,30.49Z"/><path class="cls-11" d="M1377.77,912.62h4.44a0,0,0,0,1,0,0v4.44a7.47,7.47,0,0,1-7.47,7.47h-4.44a0,0,0,0,1,0,0v-4.44A7.47,7.47,0,0,1,1377.77,912.62Z"/><path class="cls-15" d="M1372.31,924.52h-4v-3.94a10,10,0,0,1,10-10h7.15v4h-7.15a6,6,0,0,0-6,6Z"/><path class="cls-11" d="M1313.58,912.62H1318a7.47,7.47,0,0,1,7.47,7.47v4.44a0,0,0,0,1,0,0h-4.44a7.47,7.47,0,0,1-7.47-7.47v-4.44A0,0,0,0,1,1313.58,912.62Z" transform="translate(2639.08 1837.14) rotate(-180)"/><path class="cls-15" d="M1327.49,924.52h-4v-3.94a6,6,0,0,0-6-6h-7.15v-4h7.15a10,10,0,0,1,10,10Z"/><path class="cls-10" d="M888.46,1525.11h-5v-206.6c0-36.19,25-69.12,60.83-80.07l140.61-41.08,3.5,4.18-142.69,41.7c-33.69,10.3-57.25,41.26-57.25,75.27Z"/><path class="cls-15" d="M894.25,1537.88c0,9.64-8.28,28-8.28,28s-8.27-18.36-8.27-28,2.43-12.77,8.27-12.77C892.18,1525.11,894.25,1528.24,894.25,1537.88Z"/></g></svg>