<svg id="Слой_1" data-name="Слой 1" xmlns="http://www.w3.org/2000/svg" viewBox="0 0 2660 2000"><defs><style>.cls-1{fill:#f1dfc6;}.cls-2{fill:#ddc4a3;}.cls-3{fill:#caa975;}.cls-4{fill:#799a37;}.cls-5{fill:#68863c;}.cls-6{fill:#c49400;}.cls-7{fill:#8d5836;}.cls-8{fill:#eeb200;}.cls-9{fill:#9c7f00;}.cls-10{fill:#ff6500;}.cls-11{fill:#d45131;}.cls-12{fill:#285152;}.cls-13{fill:#fff;}</style></defs><g id="Background"><rect id="Background-2" data-name="Background" class="cls-1" x="400" y="300" width="1860" height="1400"/><path class="cls-2" d="M400,784.42H818.06a259.6,259.6,0,0,1,259.6,259.6v357.35a0,0,0,0,1,0,0H400a0,0,0,0,1,0,0v-617A0,0,0,0,1,400,784.42Z"/><path class="cls-2" d="M2260,844.57v556.81H1565.71l147.56-440.11a171.09,171.09,0,0,1,162.22-116.7Z"/></g><g id="Trees"><path class="cls-3" d="M2096.57,978.2a105.79,105.79,0,0,1,70.89,26.21c39.36,34.92,63.33,98.69,63.33,171,0,56.3-14.54,107.12-39.57,143.2H1675l.18-74c0-91.81,68-166.24,151.78-166.24,50.84,0,95.85,27.39,123.39,69.42l1.23-.61c0-80,47.26-147.13,110.9-165.21a103,103,0,0,1,27.5-3.75Z"/><path class="cls-2" d="M2010.17,1201.8h45.29v45.74Zm45.29-217.6v87.48l-53.35-53.35q-1.77,1.77-3.46,3.61l17,17h-30.8c-1.17,1.64-2.3,3.3-3.41,5h39.21l34.81,34.82v118h-50.24l-53-53.57-.57.57-2.36,2.34-.62.61,106.83,107.9v64.81h5V982.58Q2057.94,983.33,2055.46,984.2Z"/><path class="cls-2" d="M2224.7,1113.92,2118.22,1220.4v97.86h-5V1134.57a21.34,21.34,0,0,1-18.81-21.16V978.21h2.16c.95,0,1.9,0,2.84,0v135.18a16.34,16.34,0,0,0,13.81,16.12V979.38c1.68.24,3.34.53,5,.86v61.09l42.44-42.44q2,1.49,4,3.11l-46.4,46.4v164.93l105.22-105.22Q2224.1,1111,2224.7,1113.92Z"/><path class="cls-2" d="M1941.78,1235.37v5h-70l-69.36,69.11v8.78h-5V1251.7l-48.57-48.57H1680q.58-2.52,1.25-5h62.62L1699.69,1154q1.32-2.2,2.7-4.37l95,95v-114.8l-35.45-35.46c1.56-.81,3.12-1.6,4.71-2.35l30.74,30.73v-41.22c1.66-.36,3.33-.68,5-1v106.86l91.84-91.84q2.28,1.23,4.51,2.56l-28.2,28.2h63q2.28,2.45,4.44,5h-72.49l-63.15,63.15v108l117-116.54,3.53,3.54-46.11,45.94Z"/><path class="cls-3" d="M680.38,1329.12c67.45,0,122.13-77,122.13-172.09S747.83,984.94,680.38,984.94,558.25,1062,558.25,1157v51.37a120.73,120.73,0,0,0,122.13,120.72Z"/><path class="cls-2" d="M682.88,1255.22h97.81c-.83,1.69-1.69,3.36-2.56,5H682.88v68.9h-5V1225.6L563.54,1106.76c.43-2,.87-3.9,1.35-5.82l113,117.45V1107.23l-50.33-53H582.44q1.35-2.54,2.75-5H622.8l-21.79-23c1.07-1.3,2.17-2.57,3.28-3.81L677.88,1100V1031.5l-36.1-37.78q2.41-1.14,4.88-2.13l31.22,32.67V984.94h5v78.53l25.67-26.08V989.55q2.52.83,5,1.82v40.94l25.69-26.1c1.32,1,2.61,2.07,3.9,3.16l-60.26,61.22v103.9l103.09-104q1,2.51,2,5.07l-44.51,44.89h56.26c.26,1.66.5,3.33.71,5H738.52l-55.64,56.12v42l.62.64-.62.6Z"/></g><g id="Hills"><path class="cls-4" d="M1755.08,1401.37H400v-69.06l158.46-121.58c118.28-113.09,318.23-190.61,545-190.61C1436,1020.12,1710.89,1193.82,1755.08,1401.37Z"/><path class="cls-5" d="M2231.31,1401.52H861.1c119.06-159.29,373.05-269.3,667.15-269.3,239.49,0,428.23,78.53,587.47,186Z"/></g><polygon id="Ground" class="cls-6" points="2260 1401.53 2260 1700.14 2260 1700.14 400 1700.14 400 1401.53 2260 1401.53"/><g id="Small_trees" data-name="Small trees"><ellipse class="cls-6" cx="1593.04" cy="1088.28" rx="92.27" ry="146.95"/><path class="cls-7" d="M1626.64,1105.86v15.82a29.13,29.13,0,0,1-7,19l-12.13,14.13a27.53,27.53,0,0,0-6.65,17.57V1396h-13V1116.56a26.73,26.73,0,0,0-7.68-15.64l-9.1-9.11,3.53-3.53,9.11,9.11a31.65,31.65,0,0,1,4.14,5.07v-38.64h13v91.6a31.61,31.61,0,0,1,2.86-3.89l12.13-14.12a24.17,24.17,0,0,0,5.83-15.73v-15.82Z"/><ellipse class="cls-8" cx="1019.5" cy="1193.76" rx="92.27" ry="146.95"/><path class="cls-7" d="M1046,1267.48l-8.4,9.77a43.07,43.07,0,0,0-10.34,25.83v98.3h-13v-155a27.36,27.36,0,0,0-8-18.59l-2.15-2.15a25.47,25.47,0,0,1-7.51-18.12v-16.86h5v16.86a20.53,20.53,0,0,0,6,14.59l2.15,2.15a31.58,31.58,0,0,1,4.52,5.65V1169.3h13v114.55a47.88,47.88,0,0,1,6.55-9.86l8.39-9.77Z"/></g><g id="Way"><path id="Way-2" data-name="Way" class="cls-9" d="M1338.38,1401.38l-25.85,4.43-23,3.93,168.88,103.41c40.76,24.95,23.07,87.71-24.72,87.71H400v-50.17h978.28c17.91,0,25.54-22.77,11.26-33.56L1236,1401Z"/><rect class="cls-9" x="626.41" y="1532.6" width="5" height="18.53"/><rect class="cls-9" x="611.87" y="1518.22" width="5" height="32.91"/><rect class="cls-6" x="1310.87" y="1579.48" width="5" height="23.86"/><rect class="cls-6" x="1296.32" y="1564.03" width="5" height="39.31"/><rect class="cls-6" x="1263.87" y="1588.74" width="5" height="14.66"/></g><g id="House"><polygon class="cls-10" points="1445.01 1274.73 1294.1 1091.04 1143.2 1274.73 1143.2 1401.38 1445.01 1401.38 1445.01 1274.73"/><rect class="cls-11" x="1089.19" y="1322.16" width="154.72" height="3" transform="translate(-159.39 2487.63) rotate(-89.89)"/><rect class="cls-11" x="1099.39" y="1309.24" width="180.58" height="3" transform="translate(-122.6 2498.71) rotate(-89.93)"/><rect class="cls-11" x="1108.45" y="1295.09" width="208.87" height="3" transform="translate(-85.28 2507.79) rotate(-89.93)"/><rect class="cls-11" x="1117.51" y="1280.95" width="237.15" height="3" transform="translate(-47.96 2516.87) rotate(-89.93)"/><rect class="cls-11" x="1135.63" y="1252.66" width="293.74" height="3" transform="translate(26.68 2535.03) rotate(-89.93)"/><rect class="cls-11" x="1126.55" y="1266.78" width="265.5" height="3" transform="translate(-10.62 2525.92) rotate(-89.93)"/><rect class="cls-11" x="1159.01" y="1252.84" width="293.37" height="3" transform="translate(49.66 2558.4) rotate(-89.93)"/><rect class="cls-11" x="1196.29" y="1266.95" width="265.15" height="3" transform="translate(58.69 2595.67) rotate(-89.93)"/><rect class="cls-11" x="1233.58" y="1281.06" width="236.94" height="3" transform="translate(67.73 2632.93) rotate(-89.93)"/><rect class="cls-11" x="1270.86" y="1295.16" width="208.72" height="3" transform="translate(76.77 2670.2) rotate(-89.93)"/><rect class="cls-11" x="1308.23" y="1309.35" width="180.35" height="3" transform="translate(85.73 2707.54) rotate(-89.93)"/><rect class="cls-11" x="1344.29" y="1322.16" width="154.72" height="3" transform="translate(95.22 2742.73) rotate(-89.89)"/><circle class="cls-12" cx="1294.26" cy="1191.04" r="22.38"/><path class="cls-13" d="M1294.26,1166.15a24.89,24.89,0,1,0,24.89,24.89A24.92,24.92,0,0,0,1294.26,1166.15Zm-2.5,44.61a19.91,19.91,0,0,1-17.22-17.22h17.22Zm0-22.22h-17.22a19.91,19.91,0,0,1,17.22-17.23Zm5-17.23a19.91,19.91,0,0,1,17.23,17.23h-17.23Zm0,39.45v-17.22H1314A19.91,19.91,0,0,1,1296.76,1210.76Z"/><path class="cls-13" d="M2260,300V620.88l-144.28,0A151.77,151.77,0,0,1,1964,772.62H1565.78v51.75a142.2,142.2,0,0,1-142.21,142.21h-149a76.38,76.38,0,0,0-76.38,76.38V1145.4h-31.44V1014a130.15,130.15,0,0,1,130.14-130.14h32.38a46.09,46.09,0,0,0,46.1-46.1V729.85a181.22,181.22,0,0,1,181.22-181.22h327.53c88.09,0,163.75-63.4,202.33-144.65,30-63.19,93.11-104,163.05-104Z"/><polygon class="cls-10" points="1204.58 1145.41 1204.58 1155.32 1198.15 1155.32 1198.15 1186.25 1166.71 1224.47 1166.71 1155.32 1160.28 1155.32 1160.28 1145.41 1204.58 1145.41"/><rect class="cls-11" x="1166.71" y="1155.32" width="31.44" height="6.71"/><rect class="cls-11" x="1353.66" y="1338.03" width="42.92" height="7.47"/><rect class="cls-12" x="1361.77" y="1267.7" width="27.12" height="66.66"/><path class="cls-13" d="M1391.39,1326.58V1265.2h-32.12v61.38h-5.61V1338h42.91v-11.45Zm-27.12-56.38h22.12V1286h-22.12Zm0,20.77h22.12v35.61h-22.12Z"/><rect class="cls-11" x="1191.33" y="1338.03" width="42.92" height="7.47"/><rect class="cls-12" x="1199.45" y="1267.7" width="27.12" height="66.66"/><path class="cls-13" d="M1229.06,1326.58V1265.2h-32.12v61.38h-5.61V1338h42.91v-11.45Zm-27.12-56.38h22.12V1286h-22.12Zm0,20.77h22.12v35.61h-22.12Z"/><rect class="cls-12" x="1264.12" y="1265.57" width="59.97" height="131.19"/><path class="cls-13" d="M1326.59,1399.26h-65V1263.07h65Zm-60-5h55V1268.07h-55Z"/><rect class="cls-13" x="1252.54" y="1389.93" width="85.84" height="11.45"/><circle class="cls-6" cx="1277.11" cy="1331.67" r="5.23"/><polygon class="cls-11" points="1445.01 1274.72 1445.01 1288.46 1294.11 1104.78 1143.2 1288.46 1143.2 1274.72 1294.11 1091.04 1445.01 1274.72"/><polygon class="cls-12" points="1462.35 1274.13 1444.69 1274.13 1294.11 1091.04 1143.52 1274.13 1125.87 1274.13 1294.11 1069.57 1462.35 1274.13"/><path class="cls-13" d="M1462.35,1274.5a2.47,2.47,0,0,1-1.93-.91l-166.31-202.22L1127.8,1273.59a2.5,2.5,0,0,1-3.86-3.18l170.17-206.91,170.17,206.91a2.51,2.51,0,0,1-.35,3.52A2.48,2.48,0,0,1,1462.35,1274.5Z"/><path class="cls-13" d="M1143.2,1366v-5h-49.63v-9h-5v9h-55.8v-9h-5v9h-13.95v5h13.95v15.27h-13.95v5h13.95v15.14h5v-15.14h55.8v15.14h5v-15.14h49.63v-5h-49.63V1366Zm-54.63,15.27h-55.8V1366h55.8Z"/></g><g id="Big_tree_right_" data-name="Big tree (right)"><path class="cls-8" d="M2065.89,364.29c-46.36,65-132,108.58-230.08,108.58-127.66,0-234.37-73.94-260.6-172.73h621.73a165.93,165.93,0,0,0-131.05,64.14Z"/><path class="cls-7" d="M2112.24,300V452.19a123.85,123.85,0,0,1-35.57,87.15l-34.15,34.86a322.16,322.16,0,0,0-91,199.88v627.3H1828.78V1018.64a62.91,62.91,0,0,0-18.07-36.76L1772,943.14,1786.12,929l38.73,38.73c1.37,1.37,2.68,2.77,3.93,4.22V503.56a103.24,103.24,0,0,1-99-94.37h-.63c0-25.59-12-42.74-31.4-62.13l-14.87-14.87,10.61-10.61,14.87,14.88c8.2,8.2,15.35,16.26,21,24.81V300.49h30v100a73.18,73.18,0,0,0,69.35,73v-173h122.79v71.72a50.8,50.8,0,0,0,45.31-50.44V300h15v21.77a65.82,65.82,0,0,1-60.31,65.51V655.06a350.4,350.4,0,0,1,69.52-101.85l6.33-6.46V458.89h15v72.54l12.82-13.09a94,94,0,0,0,27-66.15V300Z"/><path class="cls-8" d="M1701.06,451.31h5.66a0,0,0,0,1,0,0V457a31.37,31.37,0,0,1-31.37,31.37h-5.66a0,0,0,0,1,0,0v-5.66A31.37,31.37,0,0,1,1701.06,451.31Z" transform="translate(1578.24 -1279.08) rotate(70.85)"/><circle class="cls-6" cx="1779.04" cy="936.07" r="10.69"/><path class="cls-8" d="M2260,300V546.2A142.33,142.33,0,0,1,2207.27,300Z"/></g><g id="Bushes"><path class="cls-12" d="M1023.89,1401.38H400l22.74-18.84a134.24,134.24,0,0,1,85.64-30.87h50.9c6.71-46.32,45.64-82.78,93.67-83.93,1,0,2,0,3.07,0,48.39,0,89.84,26.48,107.16,65.59H867.36a63,63,0,0,1,61.75,50.47c10.25-5.64,23.73-9.19,38.5-9.19C994.72,1374.57,1017.47,1386.51,1023.89,1401.38Z"/><path class="cls-9" d="M628.87,1356.59a24.87,24.87,0,0,1-16.93,29.71A24.86,24.86,0,0,1,628.87,1356.59Z"/><path class="cls-9" d="M584.21,1357a24.87,24.87,0,0,1,17.89,29.15A24.88,24.88,0,0,1,584.21,1357Z"/><path class="cls-12" d="M857,1293c-.16,16.19-10.15,26.92-27,26.45C830.49,1304.1,840.67,1292.21,857,1293Z"/><circle class="cls-10" cx="606.61" cy="1344.35" r="8.26"/><path class="cls-11" d="M1445,1349.52V1401h-70.15v-3.23a48.29,48.29,0,0,1,48.29-48.28Z"/><path class="cls-12" d="M1704.82,1400.83H1533.74v.2h-145v-3.23a48.29,48.29,0,0,1,48.28-48.28h75.82c15.3-46.29,50.71-78.71,91.94-78.71C1660,1270.81,1704.82,1329,1704.82,1400.83Z"/><path class="cls-9" d="M1678.35,1374.21a22.68,22.68,0,0,1-29.8,9.19A22.68,22.68,0,0,1,1678.35,1374.21Z"/><path class="cls-9" d="M1654.18,1352.31a19.11,19.11,0,0,1-10.8,24A19.13,19.13,0,0,1,1654.18,1352.31Z"/><path class="cls-12" d="M1488.86,1310.38a22.67,22.67,0,0,1,16.31,26.57A22.67,22.67,0,0,1,1488.86,1310.38Z"/><circle class="cls-10" cx="1542.52" cy="1335.82" r="6.61"/><circle class="cls-13" cx="1748.9" cy="1357.65" r="6.61"/><path class="cls-12" d="M1878.89,1400.83H1739.44c11.63-22.64,38.48-38.49,69.72-38.49S1867.25,1378.19,1878.89,1400.83Z"/><rect class="cls-6" x="1931.33" y="1366.72" width="5" height="34.53"/><rect class="cls-6" x="1914.65" y="1345.94" width="5" height="55.31"/><rect class="cls-6" x="1882.19" y="1386.65" width="5" height="14.66"/><path class="cls-12" d="M2260,1345.31V1401H1970.71v-18.25a42.77,42.77,0,0,1,42.77-42.77h39.17v-8.9a59.12,59.12,0,0,1,59.12-59.12h74.92A73.32,73.32,0,0,1,2260,1345.31Z"/></g><g id="Flowers_Bush" data-name="Flowers &amp; Bush"><g id="Bush"><path class="cls-8" d="M2120.54,1700H1624.71c.68-129.73,111.31-234.7,247.68-234.7,70.56,0,134.23,28.1,179.34,73.2l1.17,1.18C2094.56,1581.42,2120.21,1637.74,2120.54,1700Z"/><path class="cls-6" d="M2001.13,1640.3h0a58.17,58.17,0,0,1-49,57.57,179.79,179.79,0,0,1-27.63,2.13H1743.16c0-.52,0-1,0-1.57A73.59,73.59,0,0,1,1854.08,1635a73.59,73.59,0,0,1,73.68-69.22C1968.47,1565.92,2001.13,1599.6,2001.13,1640.3Z"/><path class="cls-9" d="M1966.2,1648.33a28.54,28.54,0,0,1-19.45,34.09A28.54,28.54,0,0,1,1966.2,1648.33Z"/><path class="cls-9" d="M1914.93,1648.74a28.54,28.54,0,0,1,20.54,33.45A28.55,28.55,0,0,1,1914.93,1648.74Z"/><circle class="cls-13" cx="1840.72" cy="1574.38" r="11.94"/><path class="cls-9" d="M1703.93,1665.37a28.55,28.55,0,0,1,27.47,28A28.55,28.55,0,0,1,1703.93,1665.37Z"/></g><g id="Flowers"><rect class="cls-8" x="930.15" y="1646.6" width="5" height="53.39"/><rect class="cls-8" x="1010.99" y="1579.66" width="5" height="120.34"/><rect class="cls-8" x="1538.28" y="1646.6" width="5" height="53.4"/><path class="cls-8" d="M690.53,1529.91v112.88a31.37,31.37,0,0,1,28.87-19.09h6.69v6.69a31.38,31.38,0,0,1-31.37,31.37h-4.19V1699h-5v-98.29h-5.65a31.38,31.38,0,0,1-31.37-31.37v-7h7a31.38,31.38,0,0,1,30,22.14V1466.67H682a31.37,31.37,0,0,1-31.37-31.37v-6.9h6.9a31.39,31.39,0,0,1,28,17.12V1332.59h-.71a31.37,31.37,0,0,1-31.37-31.37v-2.1h2.09a31.38,31.38,0,0,1,30,22.14v-52l-23-25.07a1.3,1.3,0,0,1-.18-.23h6.75l16.42,17.9V1244h5v17.9L707,1244h6.76a1.3,1.3,0,0,1-.18.23l-23,25.07v110.48a31.33,31.33,0,0,1,27.09-15.54h5.65v5.65a31.36,31.36,0,0,1-31.36,31.37h-1.38V1510.6a31.37,31.37,0,0,1,28.87-19.08h7v7a31.37,31.37,0,0,1-31.36,31.37Z"/><rect class="cls-13" x="651.65" y="1227.57" width="72.77" height="16.43"/><path class="cls-8" d="M998.28,1562.07v7a31.36,31.36,0,0,1-31.37,31.36h-5.65v99h-5v-38h-7.7a31.36,31.36,0,0,1-31.36-31.36v-10.2h10.2A31.37,31.37,0,0,1,956.26,1639V1529.63h-7.7a31.37,31.37,0,0,1-31.36-31.37v-10.2h10.2a31.37,31.37,0,0,1,28.86,19.07V1366.05h5v79.21a31.37,31.37,0,0,1,28-17.14h6.9v6.9a31.37,31.37,0,0,1-31.37,31.36h-3.5v117.86a31.37,31.37,0,0,1,30-22.17Z"/><path class="cls-13" d="M942.45,1338.77h11.92a0,0,0,0,1,0,0v11.92a8.62,8.62,0,0,1-8.62,8.62H933.82a0,0,0,0,1,0,0v-11.92A8.62,8.62,0,0,1,942.45,1338.77Z"/><path class="cls-13" d="M962.26,1338.77h11.92a8.62,8.62,0,0,1,8.62,8.62v11.92a0,0,0,0,1,0,0H970.88a8.62,8.62,0,0,1-8.62-8.62v-11.92A0,0,0,0,1,962.26,1338.77Z" transform="translate(1945.06 2698.08) rotate(-180)"/><path class="cls-13" d="M933.82,1311.14h11.92a8.62,8.62,0,0,1,8.62,8.62v11.92a0,0,0,0,1,0,0H942.45a8.62,8.62,0,0,1-8.62-8.62v-11.92A0,0,0,0,1,933.82,1311.14Z"/><path class="cls-13" d="M970.88,1311.14H982.8a0,0,0,0,1,0,0v11.92a8.62,8.62,0,0,1-8.62,8.62H962.26a0,0,0,0,1,0,0v-11.92A8.62,8.62,0,0,1,970.88,1311.14Z" transform="translate(1945.06 2642.83) rotate(180)"/><circle class="cls-10" cx="958.18" cy="1335.08" r="6.44"/><path class="cls-8" d="M1612.71,1526.23v5.66a31.37,31.37,0,0,1-31.37,31.36h-.91V1700h-5v-60.71h-2.35a31.38,31.38,0,0,1-31.37-31.37v-6.6h6.61a31.35,31.35,0,0,1,27.11,15.58V1491.38h5V1541a31.36,31.36,0,0,1,26.62-14.76Z"/><path class="cls-13" d="M1562.07,1468.84H1574a0,0,0,0,1,0,0v11.92a8.62,8.62,0,0,1-8.62,8.62h-11.92a0,0,0,0,1,0,0v-11.92A8.62,8.62,0,0,1,1562.07,1468.84Z"/><path class="cls-13" d="M1581.88,1468.84h11.92a8.62,8.62,0,0,1,8.62,8.62v11.92a0,0,0,0,1,0,0H1590.5a8.62,8.62,0,0,1-8.62-8.62v-11.92A0,0,0,0,1,1581.88,1468.84Z" transform="translate(3184.3 2958.22) rotate(-180)"/><path class="cls-13" d="M1553.45,1441.21h11.92a8.62,8.62,0,0,1,8.62,8.62v11.92a0,0,0,0,1,0,0h-11.92a8.62,8.62,0,0,1-8.62-8.62v-11.92A0,0,0,0,1,1553.45,1441.21Z"/><path class="cls-13" d="M1590.5,1441.21h11.92a0,0,0,0,1,0,0v11.92a8.62,8.62,0,0,1-8.62,8.62h-11.92a0,0,0,0,1,0,0v-11.92A8.62,8.62,0,0,1,1590.5,1441.21Z" transform="translate(3184.3 2902.97) rotate(180)"/><circle class="cls-12" cx="1577.8" cy="1465.15" r="6.44"/><path class="cls-8" d="M2038.28,1367.28v2.1a31.38,31.38,0,0,1-31.37,31.37h-.72v292.66h-5v-224h-1.37a31.37,31.37,0,0,1-31.37-31.37v-5.65h5.66a31.34,31.34,0,0,1,27.08,15.53V1337.36l-19.91-25.1a.86.86,0,0,1-.07-.1h6.38l13.6,17.15v-17.15h5v17.15l13.61-17.15h6.38a.36.36,0,0,1-.07.1l-19.92,25.1v52.09a31.38,31.38,0,0,1,30-22.17Z"/><rect class="cls-13" x="1970.51" y="1297.86" width="66.37" height="14.3"/></g></g><g id="Big_tree_left_" data-name="Big tree (left)"><path class="cls-8" d="M1203.76,300.14c0,138.63-159.64,251-330.27,251-70.22,0-135-19-186.85-51.11,19.64,39.88,30.91,86.4,30.91,136.08C717.55,784,617.73,903.9,494.6,903.9A191.6,191.6,0,0,1,400,878.67V300.14Z"/><path class="cls-8" d="M1260,309.11h5.66a0,0,0,0,1,0,0v5.66a31.37,31.37,0,0,1-31.37,31.37h-5.66a0,0,0,0,1,0,0v-5.66A31.37,31.37,0,0,1,1260,309.11Z" transform="translate(596.93 -785.88) rotate(45)"/><path class="cls-8" d="M867.92,596.56h5.66a0,0,0,0,1,0,0v5.66a31.37,31.37,0,0,1-31.37,31.37h-5.66a0,0,0,0,1,0,0v-5.66A31.37,31.37,0,0,1,867.92,596.56Z"/><path class="cls-7" d="M1054.23,551a86.53,86.53,0,0,1-52.85,79.81l-113,47.92A115.65,115.65,0,0,0,819,768.52V1700H748V1001.74a215.87,215.87,0,0,0-63.7-133.23l-.11-.11L565.75,750A223.86,223.86,0,0,1,500.2,591.74V497a92.62,92.62,0,0,0-92.51-92.51H400v-20h7.69A112.43,112.43,0,0,1,500.2,433V300.49h30V591.74a193.82,193.82,0,0,0,56.76,137l38.73,38.73a133.08,133.08,0,0,1-6.44-40.77V686.33h15v40.41a119.24,119.24,0,0,0,35.25,84.33l35.81,36.07A244.59,244.59,0,0,1,748,903.05V509.14A62.89,62.89,0,0,0,730,473l-38.74-38.74,14.14-14.14,38.74,38.73q2,2,3.84,4.11V300.29H819V476.11a51.88,51.88,0,0,0,50.75-51.8v-124h25v124A76.89,76.89,0,0,1,819,501.11V703.5a140.66,140.66,0,0,1,59.64-47.75l113-47.91a61.6,61.6,0,0,0,37.61-56.8V300.29h25v97.4a81,81,0,0,1,8.92-10.57l38.73-38.73,10.61,10.6-38.74,38.74a65.49,65.49,0,0,0-19.3,46.61Z"/><circle class="cls-9" cx="626.71" cy="686.21" r="7.98"/></g></svg>