<svg id="Слой_1" data-name="Слой 1" xmlns="http://www.w3.org/2000/svg" viewBox="0 0 2660 2000"><defs><style>.cls-1{fill:#b0eeff;}.cls-2{fill:#fff;}.cls-3{fill:#f4e7c3;}.cls-4{fill:#3e833e;}.cls-5{fill:#9da200;}.cls-6{fill:#347840;}.cls-7{fill:#285152;}.cls-8{fill:#ffb000;}.cls-9{fill:#f46501;}.cls-10{fill:#a9a200;}.cls-11{fill:#007064;}.cls-12{fill:#00cfc2;}.cls-13{fill:#00dac8;}.cls-14{fill:#ffe862;}.cls-15{fill:#eeb200;}.cls-16{fill:#68863c;}</style></defs><rect id="Background" class="cls-1" x="400" y="300.19" width="1860" height="1400"/><g id="Sun_Clouds" data-name="Sun &amp; Clouds"><path class="cls-2" d="M2260,725.59v514.66H633.43c363.8,0,581.83-264.71,722.53-264.71,86,0-11.06,76.27,67.78,76.27,74.42,0,214.12-265.09,377.21-166.57,60.14,36.33,146.58,77.43,226.8,122,38.66,21.5,78.45,10.64,78.45-56.9C2100.83,879.81,2108.06,725.59,2260,725.59Z"/><circle class="cls-2" cx="1822.22" cy="530.74" r="117.7"/></g><polygon id="Sand" class="cls-3" points="2260 1242.58 2260 1700.19 400 1700.19 400 1700.19 400 1242.58 2260 1242.58"/><g id="Hills"><path class="cls-4" d="M1521.21,1240.24H713.32V1071.48H1205.2a230.25,230.25,0,0,1,130.81,41Z"/><path class="cls-5" d="M2260,1227.8v12.45H400V883.94l33.52.17A156.77,156.77,0,0,1,548.27,934.9l29.8,32.47,88.56-88.56a133.44,133.44,0,0,1,188.71,0L1048,1071.48H713.32v5.42H872.6a171.44,171.44,0,0,1,95.27,28.9l120.68,80.59h82.24a172.68,172.68,0,0,1,92.38,26.79l23.09,14.62h216.92l-60-41.41h143.65a172.65,172.65,0,0,1,92.38,26.79l23.1,14.62Z"/><path class="cls-6" d="M1099.64,1186.39H1087l-121.1-80.87a167.43,167.43,0,0,0-93.33-28.31H713.32v-7H872.6a174.43,174.43,0,0,1,97.22,29.49Z"/></g><g id="Toucan"><path class="cls-7" d="M697.06,665.54V821.42H659.64l23.72-74.74-24.84-20.45a66.87,66.87,0,0,1-20.12-75.16l0,0a17,17,0,0,0-.62-13.39V609a10.51,10.51,0,0,0-10.51-10.5H630A67.09,67.09,0,0,1,697.06,665.54Z"/><path class="cls-2" d="M670.63,639.85v31.42A12.71,12.71,0,0,1,657.92,684H646.78a12.72,12.72,0,0,1-12.63-11.25,66.68,66.68,0,0,1,4.25-21.66l0,0a17,17,0,0,0-.62-13.39V609a10,10,0,0,0-.13-1.65h.42A32.54,32.54,0,0,1,670.63,639.85Z"/><path class="cls-8" d="M637.8,609v28.69a9.8,9.8,0,0,0-8.91-5.73H592.16a23.09,23.09,0,0,0-20.27,12h-1.36a48.76,48.76,0,0,1,48.65-45.48h8.11A10.51,10.51,0,0,1,637.8,609Z"/><path class="cls-6" d="M637.8,621.92v3.5H594c-9.71,0-18.65,7.9-21.16,18.51h-3.57c2.58-12.57,13.17-22,24.73-22Z"/><circle class="cls-7" cx="647.9" cy="619.82" r="3.85"/></g><g id="Palms"><path class="cls-9" d="M798.3,1234.53h-15a188,188,0,0,1,92.42-161.89l236-139.34a169.06,169.06,0,0,0,83.1-145.58V529.06h15V787.72a184,184,0,0,1-90.48,158.5l-236,139.34a173,173,0,0,0-85,149Z"/><circle class="cls-7" cx="1215.34" cy="462.79" r="21.77"/><polygon class="cls-10" points="1411.82 493.11 1395.85 492.99 1402.66 499.91 1399.81 502.72 1390.2 492.95 1379.54 492.87 1393.6 507.16 1390.75 509.96 1373.9 492.82 1363.24 492.74 1383.68 513.53 1380.83 516.33 1357.59 492.7 1346.94 492.62 1372.83 518.95 1369.97 521.76 1341.27 492.58 1330.62 492.5 1360.94 523.32 1358.08 526.13 1324.97 492.45 1314.32 492.37 1347.47 526.09 1344.62 528.9 1308.67 492.33 1298.01 492.25 1333.34 528.18 1330.48 530.98 1292.36 492.21 1281.69 492.13 1316.63 527.65 1313.78 530.46 1276.05 492.08 1265.39 492 1296.21 523.35 1293.36 526.15 1259.75 491.96 1247.17 491.87 1260.97 505.89 1258.12 508.69 1239.55 489.81 1259.05 470.63 1261.86 473.48 1247.23 487.87 1259.51 487.96 1293.37 454.67 1296.17 457.52 1265.17 488 1276.09 488.08 1314.27 450.54 1317.07 453.39 1281.75 488.13 1292.67 488.21 1331.36 450.15 1334.16 453 1298.31 488.25 1308.51 488.33 1345.61 451.86 1348.41 454.71 1314.18 488.37 1324.85 488.45 1358.72 455.15 1361.52 458 1330.52 488.5 1341.19 488.58 1370.52 459.74 1373.32 462.59 1346.84 488.62 1357.51 488.7 1381.5 465.12 1384.3 467.97 1363.18 488.74 1373.86 488.82 1391.09 471.88 1393.9 474.73 1379.52 488.87 1390.2 488.95 1399.96 479.34 1402.76 482.19 1395.85 488.99 1411.85 489.11 1411.82 493.11"/><polygon class="cls-10" points="1176.31 493.53 1202.45 497.78 1198.67 521.02 1194.72 520.38 1197.4 503.89 1187.52 511 1179.93 557.68 1175.98 557.04 1182.94 514.31 1174.09 520.68 1165.51 573.36 1161.56 572.72 1169.5 523.98 1160.65 530.35 1151.95 583.78 1148 583.14 1156.06 533.66 1147.78 539.62 1139.45 590.82 1135.51 590.18 1143.19 542.92 1134.54 549.15 1126.93 595.92 1122.98 595.28 1129.95 552.46 1121.29 558.69 1114.71 599.2 1110.76 598.55 1116.71 562 1108.05 568.22 1102.66 601.35 1098.71 600.7 1103.47 571.53 1094.8 577.77 1090.93 601.57 1086.99 600.93 1090.22 581.07 1081.57 587.3 1079.37 600.79 1075.42 600.15 1076.97 590.6 1064.01 599.94 1061.67 596.69 1074.63 587.35 1065.03 585.79 1065.67 581.85 1079.22 584.05 1087.88 577.82 1068.05 574.59 1068.69 570.65 1092.46 574.52 1101.12 568.28 1072.29 563.59 1072.93 559.64 1105.71 564.98 1114.37 558.75 1077.84 552.8 1078.48 548.85 1118.96 555.44 1127.61 549.21 1084.84 542.25 1085.49 538.3 1132.21 545.9 1140.86 539.67 1094.06 532.05 1094.71 528.1 1145.45 536.36 1154.11 530.13 1104.23 522.01 1104.88 518.07 1158.7 526.82 1167.35 520.59 1118.02 512.56 1118.66 508.62 1171.95 517.28 1180.6 511.06 1137.03 503.97 1137.67 500.02 1185.19 507.75 1195.07 500.64 1175.67 497.48 1176.31 493.53"/><polygon class="cls-10" points="1287.5 601.41 1311.28 605.42 1310.62 609.37 1290.78 606.02 1296.96 614.71 1310.43 616.98 1309.77 620.93 1300.24 619.32 1309.5 632.34 1306.24 634.66 1296.98 621.64 1295.36 631.24 1291.41 630.57 1293.7 617.03 1287.51 608.33 1284.17 628.15 1280.23 627.48 1284.24 603.73 1278.05 595.03 1273.19 623.85 1269.25 623.18 1274.77 590.42 1268.59 581.73 1262.44 618.24 1258.49 617.57 1265.31 577.12 1259.13 568.43 1251.92 611.17 1247.98 610.5 1255.85 563.82 1249.67 555.13 1241.78 601.89 1237.84 601.22 1246.39 550.52 1240.21 541.83 1231.81 591.66 1227.86 591 1236.93 537.22 1230.75 528.53 1222.43 577.83 1218.49 577.16 1227.47 523.92 1221.29 515.24 1218.9 529.39 1214.96 528.72 1218.48 507.84 1255.54 514.09 1254.88 518.03 1224.55 512.92 1230.88 521.81 1283.51 530.68 1282.84 534.63 1234.16 526.42 1240.47 535.3 1293.84 544.3 1293.18 548.24 1243.75 539.91 1249.66 548.21 1300.82 556.84 1300.15 560.78 1252.94 552.82 1259.12 561.51 1305.84 569.39 1305.18 573.34 1262.4 566.12 1268.58 574.81 1309.04 581.64 1308.38 585.58 1271.86 579.42 1278.04 588.11 1311.13 593.69 1310.46 597.64 1281.32 592.72 1287.5 601.41"/><path class="cls-9" d="M897.2,1240.25h-15a124,124,0,0,1,60.71-106.35L1171.44,999a248.76,248.76,0,0,0,122.27-214.2v-32.6h15v32.6a263.72,263.72,0,0,1-129.64,227.11L950.53,1146.82A109,109,0,0,0,897.2,1240.25Z"/><polygon class="cls-10" points="1431.13 638.25 1440.75 639.73 1440.14 643.68 1426.56 641.6 1417.97 647.9 1437.82 650.96 1437.22 654.91 1413.4 651.25 1404.8 657.56 1433.68 662 1433.07 665.95 1400.24 660.9 1391.64 667.21 1428.23 672.83 1427.62 676.79 1387.09 670.55 1378.48 676.86 1421.32 683.45 1420.71 687.4 1373.92 680.21 1365.32 686.51 1412.18 693.72 1411.58 697.67 1360.76 689.86 1352.16 696.17 1402.1 703.85 1401.5 707.8 1347.59 699.52 1338.99 705.82 1388.4 713.42 1387.8 717.37 1334.44 709.16 1325.84 715.47 1369.46 722.18 1368.86 726.14 1318.48 718.39 1326.1 668.85 1330.05 669.45 1323.47 712.25 1332.27 705.8 1340.38 653.04 1344.33 653.65 1336.83 702.45 1345.62 696 1353.85 642.5 1357.8 643.11 1350.18 692.66 1358.4 686.63 1366.28 635.35 1370.24 635.96 1362.96 683.28 1371.56 676.98 1378.76 630.14 1382.71 630.75 1376.12 673.63 1384.72 667.32 1390.96 626.76 1394.91 627.37 1389.28 663.98 1397.88 657.67 1402.98 624.51 1406.93 625.11 1402.44 654.33 1411.04 648.02 1414.71 624.18 1418.66 624.79 1415.6 644.68 1424.2 638.37 1426.28 624.86 1430.23 625.47 1428.76 635.02 1441.65 625.57 1444.01 628.8 1431.13 638.25"/><polygon class="cls-10" points="1220.85 694.18 1176.86 711.79 1175.37 708.08 1215.66 691.96 1205.86 687.76 1167.75 703 1166.26 699.29 1200.66 685.53 1190.86 681.33 1159.69 693.79 1158.21 690.08 1185.66 679.1 1175.85 674.9 1153.45 683.86 1151.96 680.15 1170.65 672.67 1160.85 668.47 1148.16 673.55 1146.67 669.83 1155.64 666.24 1140.96 659.95 1142.53 656.27 1157.22 662.56 1153.6 653.53 1157.32 652.04 1162.42 664.79 1172.22 668.99 1164.76 650.34 1168.47 648.86 1177.42 671.22 1187.23 675.42 1176.37 648.3 1180.09 646.81 1192.43 677.65 1202.23 681.85 1188.48 647.49 1192.19 646 1207.43 684.08 1217.23 688.27 1201.13 648.05 1204.85 646.56 1222.43 690.5 1232.24 694.71 1214.62 650.69 1218.34 649.2 1237.44 696.93 1247.23 701.13 1228.47 654.22 1232.18 652.74 1252.43 703.36 1262.24 707.56 1243.67 661.16 1247.39 659.67 1267.44 709.79 1277.24 713.99 1260.85 673.01 1264.56 671.53 1283.49 718.85 1236.96 737.47 1235.47 733.75 1275.67 717.67 1265.65 713.37 1216.08 733.21 1214.6 729.49 1260.45 711.14 1250.43 706.85 1200.17 726.96 1198.68 723.25 1245.23 704.62 1235.86 700.61 1187.68 719.89 1186.2 716.17 1230.66 698.38 1220.85 694.18"/><polygon class="cls-10" points="1287.8 741.5 1288.14 791.63 1284.14 791.65 1283.84 748.36 1276.18 756.12 1276.55 809.5 1272.55 809.53 1272.21 760.15 1264.55 767.91 1264.92 822.04 1260.92 822.07 1260.58 771.93 1253.43 779.19 1253.78 831.08 1249.78 831.1 1249.45 783.22 1241.96 790.81 1242.28 838.2 1238.28 838.23 1237.99 794.84 1230.5 802.43 1230.78 843.47 1226.78 843.5 1226.53 806.45 1219.04 814.05 1219.26 847.6 1215.26 847.63 1215.07 818.07 1207.58 825.67 1207.74 849.79 1203.74 849.82 1203.6 829.7 1196.11 837.29 1196.2 850.95 1192.2 850.98 1192.14 841.32 1180.92 852.69 1178.07 849.88 1189.3 838.5 1179.56 838.57 1179.53 834.57 1193.26 834.48 1200.76 826.88 1180.67 827.02 1180.64 823.02 1204.73 822.86 1212.22 815.27 1183 815.46 1182.98 811.46 1216.19 811.24 1223.68 803.65 1186.67 803.9 1186.64 799.9 1227.65 799.62 1235.14 792.03 1191.81 792.32 1191.78 788.32 1239.12 788 1246.61 780.41 1199.19 780.73 1199.17 776.73 1250.58 776.38 1258.07 768.79 1207.54 769.13 1207.51 765.13 1262.05 764.76 1269.53 757.17 1219.55 757.51 1219.52 753.51 1273.51 753.14 1281 745.55 1236.86 745.85 1236.83 741.85 1287.8 741.5"/><polygon class="cls-10" points="1410.98 837.83 1422.28 849.13 1419.45 851.96 1408.16 840.67 1408.16 850.39 1404.16 850.39 1404.16 836.67 1396.61 829.12 1396.61 849.21 1392.61 849.21 1392.61 825.12 1385.07 817.58 1385.07 846.79 1381.07 846.79 1381.07 813.58 1373.53 806.04 1373.53 843.05 1369.53 843.05 1369.53 802.04 1361.99 794.5 1361.99 837.83 1357.99 837.83 1357.99 790.5 1350.45 782.96 1350.45 830.37 1346.45 830.37 1346.45 778.96 1338.91 771.42 1338.91 821.94 1334.91 821.94 1334.91 767.42 1327.37 759.88 1327.37 809.86 1323.37 809.86 1323.37 755.88 1315.82 748.33 1315.82 792.47 1311.82 792.47 1311.82 741.5 1361.95 741.5 1361.95 745.5 1318.65 745.5 1326.36 753.21 1379.75 753.21 1379.75 757.21 1330.36 757.21 1338.07 764.92 1392.2 764.92 1392.2 768.92 1342.07 768.92 1349.28 776.13 1401.17 776.13 1401.17 780.13 1353.28 780.13 1360.82 787.67 1408.21 787.67 1408.21 791.67 1364.82 791.67 1372.36 799.21 1413.4 799.21 1413.4 803.21 1376.36 803.21 1383.9 810.75 1417.46 810.75 1417.46 814.75 1387.9 814.75 1395.44 822.29 1419.56 822.29 1419.56 826.29 1399.44 826.29 1406.98 833.83 1420.65 833.83 1420.65 837.83 1410.98 837.83"/><circle class="cls-7" cx="1287.82" cy="715.4" r="21.77"/><circle class="cls-7" cx="1298.16" cy="766.19" r="21.77"/><circle class="cls-7" cx="1337.89" cy="729.34" r="21.77"/><path class="cls-9" d="M590.91,1076.9h-35V899.14a159.86,159.86,0,0,1,47.14-113.8L750,638.44A229.68,229.68,0,0,0,817.23,476V302.52h35V476A264.73,264.73,0,0,1,774.7,663.19L627.8,810.09a125.09,125.09,0,0,0-36.89,89Z"/><polygon class="cls-10" points="792.76 328.59 792.76 440.46 786.76 440.46 786.76 338.47 774.42 350.84 774.42 472.43 768.42 472.43 768.42 356.86 756.08 369.23 756.08 496.57 750.08 496.57 750.08 375.24 737.74 387.61 737.74 515.93 731.74 515.93 731.74 393.63 719.4 406 719.4 531.87 713.4 531.87 713.4 412.01 701.06 424.38 701.06 545.13 695.06 545.13 695.06 430.4 682.72 442.77 682.72 556.16 676.72 556.16 676.72 448.78 664.38 461.15 664.38 565.27 658.38 565.27 658.38 467.16 646.04 479.53 646.04 572.67 640.04 572.67 640.04 485.55 627.38 498.24 627.38 578.6 621.38 578.6 621.38 504.25 607.77 517.9 607.77 583.21 601.77 583.21 601.77 523.91 589.28 536.43 589.28 586.12 583.28 586.12 583.28 542.45 556.93 568.86 552.68 564.62 579.01 538.23 554.8 538.23 554.8 532.23 584.99 532.23 597.46 519.73 554.8 519.73 554.8 513.73 603.45 513.73 617.04 500.11 554.8 500.11 554.8 494.11 623.02 494.11 635.66 481.44 556.08 481.44 556.08 475.44 641.65 475.44 653.98 463.08 559.07 463.08 559.07 457.08 659.96 457.08 672.3 444.72 563.92 444.72 563.92 438.72 678.28 438.72 690.6 426.37 570.79 426.37 570.79 420.37 696.59 420.37 708.92 408.01 579.92 408.01 579.92 402.01 714.9 402.01 727.22 389.66 591.69 389.66 591.69 383.66 733.21 383.66 745.54 371.3 606.73 371.3 606.73 365.3 751.53 365.3 763.86 352.94 626.21 352.94 626.21 346.94 769.84 346.94 782.16 334.59 652.77 334.59 652.77 328.59 788.15 328.59 788.19 328.55 788.23 328.59 792.76 328.59"/><rect class="cls-10" x="941.09" y="288.58" width="6" height="102.45" transform="translate(36.24 767.1) rotate(-45)"/><rect class="cls-10" x="976.79" y="286.57" width="6" height="116.22" transform="translate(43.26 793.78) rotate(-45)"/><rect class="cls-10" x="899.81" y="292.91" width="6" height="72.91" transform="translate(31.53 734.85) rotate(-45)"/><rect class="cls-10" x="1009.92" y="285.62" width="6" height="122.67" transform="translate(51.34 817.86) rotate(-45)"/><rect class="cls-10" x="1041.45" y="285.34" width="6" height="124.62" transform="translate(60.09 840.36) rotate(-45)"/><rect class="cls-10" x="1071.39" y="285.71" width="6" height="122.1" transform="translate(69.49 861.28) rotate(-45)"/><rect class="cls-10" x="1101.17" y="286.14" width="6" height="119.09" transform="translate(78.96 882.02) rotate(-45)"/><rect class="cls-10" x="1129.67" y="287.11" width="6" height="112.49" transform="translate(88.96 901.49) rotate(-45)"/><rect class="cls-10" x="1157.37" y="288.42" width="6" height="103.58" transform="translate(99.3 920.15) rotate(-45)"/><rect class="cls-10" x="1184.26" y="290.05" width="6" height="92.43" transform="translate(109.97 938.02) rotate(-45)"/><rect class="cls-10" x="1210.35" y="292.02" width="6" height="79" transform="translate(120.97 955.07) rotate(-45)"/><rect class="cls-10" x="1235.58" y="294.34" width="6" height="63.12" transform="translate(132.32 971.26) rotate(-45)"/><rect class="cls-10" x="1259.83" y="297.07" width="6" height="44.47" transform="translate(144.09 986.48) rotate(-45)"/><rect class="cls-10" x="1282.86" y="300.31" width="6" height="22.4" transform="translate(156.35 1000.48) rotate(-45)"/><rect class="cls-10" x="527.5" y="336.81" width="102.45" height="6" transform="translate(-70.78 508.74) rotate(-45)"/><rect class="cls-10" x="484.91" y="341.67" width="116.22" height="6" transform="translate(-84.68 484.92) rotate(-45)"/><rect class="cls-10" x="592.6" y="322.62" width="62.31" height="6" transform="translate(-47.55 536.43) rotate(-45)"/><rect class="cls-10" x="448.56" y="343.96" width="122.67" height="6" transform="translate(-95.99 462.17) rotate(-45)"/><rect class="cls-10" x="416.05" y="344.65" width="124.62" height="6" transform="translate(-105.71 440.08) rotate(-45)"/><rect class="cls-10" x="387.37" y="343.75" width="122.1" height="6" transform="translate(-113.85 418.64) rotate(-45)"/><rect class="cls-10" x="392.25" y="328.96" width="80.25" height="6" transform="translate(-108.09 402.96) rotate(-45)"/><rect class="cls-10" x="398.79" y="313.48" width="36.46" height="6" transform="translate(-101.64 387.57) rotate(-45)"/><circle class="cls-7" cx="794.94" cy="347.23" r="45.2"/><circle class="cls-8" cx="790.32" cy="325.21" r="5.45"/><circle class="cls-8" cx="804.89" cy="336.12" r="5.45"/><circle class="cls-7" cx="922.73" cy="429.01" r="45.88"/><circle class="cls-8" cx="912.43" cy="399.56" r="6.34"/></g><g id="Toucan_s_paws" data-name="Toucan&apos;s paws"><path class="cls-8" d="M685.9,700.82l-3.41,3.42a14.37,14.37,0,0,0-4.24,10.22v9.13h-3.5v-9.13a17.25,17.25,0,0,1,.21-2.7l-1.64,1.64a11,11,0,0,0-3.23,7.81V729h-3.5v-7.79a14.45,14.45,0,0,1,4.26-10.29l9-9,.15-.16,3.42-3.41Z"/><path class="cls-8" d="M657,723l2.47,2.47a14.4,14.4,0,0,0-4.23,10.23v7.71h-3.5V735.7A17.25,17.25,0,0,1,652,733l-1.64,1.64a10.94,10.94,0,0,0-3.23,7.81v5.61h-3.5v-5.61a14.48,14.48,0,0,1,4.25-10.29Z"/></g><path id="Green_hill" data-name="Green hill" class="cls-11" d="M1134.26,1700.18H400V1079.24H590a131.84,131.84,0,0,1,69.78,20l166.87,104.09-.51-.78H942.93A83.36,83.36,0,0,1,994,1220.2l25.93,20H884c27.35,25,23.89,70.92-9.74,90.65L623.43,1471.38H808.76a112.24,112.24,0,0,1,108.12,82.1l35.44,127c22-8.62,46.12-14,71.41-14C1065.06,1666.47,1103.28,1681,1134.26,1700.18Z"/><g id="Ocean"><path class="cls-2" d="M2106.2,1240.25V1698h-99.93a116.63,116.63,0,0,0-118-115.65l-317.94,3.87c-86.79,4.63-159.7-57-159.7-144v-25H1126.87A248.58,248.58,0,0,1,891.3,1248l-2.61-7.73Z"/><path class="cls-12" d="M2260,1240.25v459.94H2020.74v-5.8a128.58,128.58,0,0,0-128.24-128.58l-280.47-.73a188.31,188.31,0,0,1-180.17-135.23l-8.28-28.19h-203a394.15,394.15,0,0,1-261-98.77l-70.91-62.64Z"/><path class="cls-13" d="M1188.9,1327.35a5.5,5.5,0,0,1-5.53,4.8H997.05q-7.47-5.13-14.71-10.64H1183.6A5.34,5.34,0,0,1,1188.9,1327.35Z"/><path class="cls-13" d="M903,1252.92h562.3a5.32,5.32,0,0,1,5.31,5.32h0a5.31,5.31,0,0,1-5.31,5.31H915.08Z"/><path class="cls-13" d="M1715.08,1258.76a5.46,5.46,0,0,1-5.52,4.79H1502.77a5.32,5.32,0,0,1-5.32-5.31h0a5.32,5.32,0,0,1,5.32-5.32h207A5.31,5.31,0,0,1,1715.08,1258.76Z"/><path class="cls-13" d="M928.93,1275.78H1082a5.32,5.32,0,0,1,5.32,5.32h0a5.32,5.32,0,0,1-5.32,5.32H941Z"/><path class="cls-13" d="M1662.53,1281.62a5.49,5.49,0,0,1-5.53,4.8h-14.71a5.32,5.32,0,0,1,0-10.64h14.94A5.33,5.33,0,0,1,1662.53,1281.62Z"/><path class="cls-13" d="M1289.26,1281.62a5.48,5.48,0,0,1-5.53,4.8H1119.08a5.31,5.31,0,0,1-3.75-9.08,5.26,5.26,0,0,1,3.75-1.56H1284A5.32,5.32,0,0,1,1289.26,1281.62Z"/><path class="cls-13" d="M1558.38,1326.83a5.33,5.33,0,0,1-5.32,5.32H1430.71a5.32,5.32,0,0,1,0-10.64h122.35A5.32,5.32,0,0,1,1558.38,1326.83Z"/><path class="cls-13" d="M1401,1327.35a5.5,5.5,0,0,1-5.53,4.8H1267.56a5.32,5.32,0,1,1,0-10.64h128.11A5.33,5.33,0,0,1,1401,1327.35Z"/><path class="cls-13" d="M1238.35,1327.35a5.5,5.5,0,0,1-5.54,4.8h-14.7a5.32,5.32,0,1,1,0-10.64h14.94A5.34,5.34,0,0,1,1238.35,1327.35Z"/><path class="cls-13" d="M1304.2,1372.82a6.48,6.48,0,0,1-.08.77,3.92,3.92,0,0,1-.13.49,5.53,5.53,0,0,1-4.82,3.77l-.51,0H1284a5.32,5.32,0,1,1,0-10.63h14.94a5.35,5.35,0,0,1,3.38,1.21c.13.12.25.22.38.35A5.27,5.27,0,0,1,1304.2,1372.82Z"/><path class="cls-13" d="M1260.59,1373.08a5.48,5.48,0,0,1-5.53,4.79H1085.75q-13.32-4.83-26.25-10.63h195.8A5.32,5.32,0,0,1,1260.59,1373.08Z"/><path class="cls-13" d="M1607.27,1304h0a5.32,5.32,0,0,1-5.31,5.32H967q-3.75-3.13-7.42-6.39l-4.81-4.24H1602A5.31,5.31,0,0,1,1607.27,1304Z"/><path class="cls-13" d="M1621.1,1281.1a5.32,5.32,0,0,1-5.32,5.32h-298.9a5.31,5.31,0,0,1-3.75-9.08,5.26,5.26,0,0,1,3.75-1.56h298.9A5.32,5.32,0,0,1,1621.1,1281.1Z"/><path class="cls-13" d="M1087.35,1349.69A5.33,5.33,0,0,1,1082,1355h-47.46q-9.46-5.05-18.63-10.64H1082A5.32,5.32,0,0,1,1087.35,1349.69Z"/><path class="cls-13" d="M1367,1349.69a5.32,5.32,0,0,1-5.32,5.32H1119.08a5.31,5.31,0,0,1-3.75-9.08,5.26,5.26,0,0,1,3.75-1.56h242.56A5.32,5.32,0,0,1,1367,1349.69Z"/><path class="cls-13" d="M2105.13,1258.24h0a5.32,5.32,0,0,1-5.32,5.31h-282a5.46,5.46,0,0,1-5.52-4.79,5.31,5.31,0,0,1,5.29-5.84h282.2A5.32,5.32,0,0,1,2105.13,1258.24Z"/><path class="cls-13" d="M2260,1252.92v10.63H2134.84a5.47,5.47,0,0,1-5.52-4.79,5.31,5.31,0,0,1,5.29-5.84Z"/><path class="cls-13" d="M2028.23,1281.1h0a5.32,5.32,0,0,1-5.32,5.32h-69.84a5.47,5.47,0,0,1-5.52-4.79,5.31,5.31,0,0,1,5.29-5.84h70.07A5.31,5.31,0,0,1,2028.23,1281.1Z"/><polygon class="cls-3" points="1971.23 1252.92 2012.87 1183.74 2012.87 1252.92 1971.23 1252.92"/></g><g id="Umbrella"><polygon class="cls-9" points="1890.97 1125.08 1789.6 1186.33 1788.6 1700.2 1778.6 1700.18 1779.6 1186.25 1678.36 1125.08 1688.03 1125.08 1779.61 1180.42 1779.66 1153.43 1789.66 1153.45 1789.61 1180.48 1881.29 1125.08 1890.97 1125.08"/><path class="cls-8" d="M2100,1125.08H1469.35a81.59,81.59,0,0,1,43.79-72.31l271.52-142,271.53,142A81.62,81.62,0,0,1,2100,1125.08Z"/><rect class="cls-14" x="2094.82" y="1125.08" width="5" height="15.6"/><path class="cls-14" d="M1943.09,1099.65a114.87,114.87,0,0,0-27-52.56L1787.3,909.92V889.49h-5v20.14l-128.8,138.49a114.81,114.81,0,0,0-26.77,51.53H1471.47v5h50.4v36h5v-36H1574v36h5v-36H1626v36h5v-36h47.09v36h5v-36h47.08v36h5v-36h47.09v36h5v-36h47.09v36h5v-36h47.08v36h5v-36h47.09v36h5v-36h47.09v36h5v-36h47.08v36h5v-36h50.12v-5Zm-160.79,0H1631.86a109.86,109.86,0,0,1,25.32-48.16L1782.3,917Zm5,0V917.23l125.09,133.25a109.73,109.73,0,0,1,25.58,49.17Z"/><rect class="cls-14" x="1469.78" y="1125.08" width="5" height="15.6"/><circle class="cls-9" cx="1472.28" cy="1140.68" r="5.31"/><circle class="cls-9" cx="1523.75" cy="1140.68" r="5.31"/><circle class="cls-9" cx="1576.45" cy="1140.68" r="5.31"/><circle class="cls-9" cx="1628.54" cy="1140.68" r="5.31"/><circle class="cls-9" cx="1680.63" cy="1140.68" r="5.31"/><circle class="cls-9" cx="1732.71" cy="1140.68" r="5.31"/><circle class="cls-9" cx="1784.8" cy="1140.68" r="5.31"/><circle class="cls-9" cx="1836.89" cy="1140.68" r="5.31"/><circle class="cls-9" cx="1888.97" cy="1140.68" r="5.31"/><circle class="cls-9" cx="1941.06" cy="1140.68" r="5.31"/><circle class="cls-9" cx="1993.15" cy="1140.68" r="5.31"/><circle class="cls-9" cx="2045.23" cy="1140.68" r="5.31"/><circle class="cls-9" cx="2097.32" cy="1140.68" r="5.31"/><circle class="cls-9" cx="1784.66" cy="882.25" r="9.99"/></g><g id="Birds"><path class="cls-2" d="M1552.75,429.88a7.39,7.39,0,0,1-5.29-2.19l-5.73-5.72a3,3,0,0,1,4.25-4.24l5.72,5.72a1.5,1.5,0,0,0,2.1,0l5.72-5.72a3,3,0,0,1,4.24,4.24l-5.72,5.72A7.39,7.39,0,0,1,1552.75,429.88Z"/><path class="cls-15" d="M1765.78,591a7.44,7.44,0,0,1-5.29-2.19l-5.72-5.72a3,3,0,1,1,4.24-4.25l5.72,5.72a1.47,1.47,0,0,0,2.1,0l5.72-5.72a3,3,0,0,1,4.25,4.24l-5.72,5.73A7.48,7.48,0,0,1,1765.78,591Z"/><path class="cls-2" d="M861.51,934.72a7.44,7.44,0,0,1-5.29-2.19l-5.73-5.72a3,3,0,0,1,4.25-4.24l5.72,5.72a1.5,1.5,0,0,0,2.1,0l5.72-5.72a3,3,0,0,1,4.24,4.24l-5.72,5.72A7.44,7.44,0,0,1,861.51,934.72Z"/></g><g id="Plants"><path class="cls-16" d="M671.16,1381a34.67,34.67,0,0,1-23.62,41.41A34.67,34.67,0,0,1,671.16,1381Z"/><path class="cls-16" d="M608.9,1381.46a34.68,34.68,0,0,1,24.94,40.63A34.67,34.67,0,0,1,608.9,1381.46Z"/><path class="cls-16" d="M430.81,1102.15a34.67,34.67,0,0,1-3,47.58A34.67,34.67,0,0,1,430.81,1102.15Z"/><path class="cls-16" d="M847.82,1246.63a34.69,34.69,0,0,1-.92,47.67A34.67,34.67,0,0,1,847.82,1246.63Z"/><polygon class="cls-10" points="2150.24 1694.19 2150.24 1700.19 1876.01 1700.19 1876.01 1694.19 1984.56 1694.19 1877.15 1672.62 1878.33 1666.74 1986.46 1688.45 1883.93 1644.93 1886.27 1639.41 1987.66 1682.44 1896.28 1620.41 1899.65 1615.45 1992.63 1678.56 1913.63 1596.49 1917.95 1592.33 1995.39 1672.77 1934.42 1578.39 1939.46 1575.14 2000.37 1669.42 1958.39 1564.75 1963.96 1562.52 2005.52 1666.16 1983.73 1556.34 1989.62 1555.17 2011.73 1666.65 2011.73 1552.92 2017.73 1552.92 2017.73 1666.64 2039.84 1555.17 2045.73 1556.34 2023.94 1666.16 2065.5 1562.52 2071.07 1564.75 2029.08 1669.45 2090 1575.14 2095.04 1578.39 2034.07 1672.77 2111.5 1592.34 2115.82 1596.5 2037.65 1677.71 2131.21 1613.09 2134.62 1618.03 2040.63 1682.94 2143.19 1639.41 2145.53 1644.93 2042.71 1688.57 2147.66 1667.74 2148.82 1673.62 2045.25 1694.19 2150.24 1694.19"/><circle class="cls-9" cx="830.54" cy="1509.51" r="13.21"/><circle class="cls-9" cx="1026.35" cy="1649.63" r="9.15"/><circle class="cls-9" cx="715.4" cy="1658.78" r="9.15"/><path class="cls-16" d="M868.43,1700.19a183.94,183.94,0,0,1-92.13-25.13c-30.65-17.7-54.43-41.94-69.7-68.56,30.69-.09,63.58,8.39,94.23,26.08l1.14.67c-.37-.6-.72-1.2-1.07-1.81-17.69-30.65-26.17-63.54-26.08-94.23,26.62,15.27,50.87,39.06,68.56,69.71.54.94,1.07,1.87,1.59,2.81,0-1.07,0-2.15,0-3.23,0-35.39,9.1-68.12,24.53-94.65,15.42,26.53,24.52,59.26,24.52,94.65,0,1.76,0,3.52-.08,5.26q1.3-2.43,2.7-4.84c17.7-30.65,41.94-54.44,68.57-69.71.09,30.69-8.39,63.58-26.09,94.23-.35.61-.71,1.22-1.07,1.82.38-.24.77-.46,1.15-.68,30.65-17.69,63.54-26.17,94.23-26.08-15.27,26.62-39.06,50.86-69.71,68.56a187.63,187.63,0,0,1-93.16,25.13Z"/><polygon class="cls-10" points="867.47 1700.19 705.61 1608.24 707.59 1604.76 866.47 1695.02 773.1 1538.24 776.54 1536.19 867.47 1688.87 867.47 1511.85 871.47 1511.85 871.47 1691.69 963.45 1536.2 966.9 1538.23 875.01 1693.59 1032.41 1604.76 1034.38 1608.24 871.47 1700.18 867.47 1700.19"/><rect class="cls-10" x="1178.52" y="1562.24" width="5" height="137.95"/><rect class="cls-10" x="1198.81" y="1620.29" width="5" height="79.9"/><rect class="cls-10" x="437.8" y="1622.62" width="5" height="77.57"/><rect class="cls-10" x="460.02" y="1471.38" width="5" height="228.81"/></g></svg>