<svg id="Слой_1" data-name="Слой 1" xmlns="http://www.w3.org/2000/svg" viewBox="0 0 2660 2000"><defs><style>.cls-1{fill:#f1dfc6;}.cls-2{fill:#fda100;}.cls-3{fill:#694440;}.cls-4,.cls-5{fill:none;stroke:#ffcf55;}.cls-4{stroke-miterlimit:10;stroke-width:10px;}.cls-5{stroke-linejoin:round;stroke-width:8px;}.cls-6{fill:#fff;}.cls-7{fill:#5f3941;}.cls-8{fill:#ffb500;}.cls-9{fill:#f5a000;}.cls-10{fill:#9c7f00;}.cls-11{fill:#a9a200;}</style></defs><rect id="Background" class="cls-1" x="400" y="300" width="1860" height="1400"/><g id="Hill"><path class="cls-2" d="M2260,843.47v628.92H400V905.76l801.91-369.15a287.79,287.79,0,0,1,119.83-26.14h8.65a287.73,287.73,0,0,1,212.18,93.39A738.26,738.26,0,0,0,2087,843.47Z"/><path class="cls-3" d="M1304.91,950.35l-480.17,332.5C740.9,1340.9,782,1472.39,884,1472.39H400V905.76l810.1-374.38a278.18,278.18,0,0,1,120.29-25.49v9.48a266.86,266.86,0,0,0-123.33,37.08L1166,576.81c-55,32.64-31.39,117.05,32.58,116.4l24.47-.25C1362.27,691.54,1419.37,871.09,1304.91,950.35Z"/><path class="cls-4" d="M2260,843.47H2087a738.32,738.32,0,0,1-544.42-239.61h0a287.77,287.77,0,0,0-212.18-93.39"/><path class="cls-3" d="M1611,1472.39l106.15-.48A336.48,336.48,0,0,0,1905,1413.54l92.1-62.72a185.4,185.4,0,0,1,104.35-32.16H2260v153.73Z"/><path class="cls-3" d="M2097.31,1220.34a35,35,0,0,0-16.22,4c-.59-21.37-14.94-35.5-32.56-35.5-18,0-32.59,14.74-32.59,36.87a49.43,49.43,0,0,0,.74,8.51,40.14,40.14,0,0,0-27.85-10.92c-18.07,0-33.23,11.4-37.36,26.75h-14.1a15.74,15.74,0,0,0-15.74,15.74h73.2a19,19,0,0,0,19,19h25.59v49.56h5v-24.87a20.62,20.62,0,0,1,20.6-20.6h20.25a27.1,27.1,0,0,0,2.89.74,35.23,35.23,0,1,0,9.14-69.25Zm-57.88,59.42h-25.59a14,14,0,0,1-14-14h39.6Zm25.6,4.09a25.58,25.58,0,0,0-20.6,10.42v-28.53h19.14a35.18,35.18,0,0,0,12.76,18.11Z"/><path class="cls-5" d="M1921.63,1265.74a15.74,15.74,0,0,1,15.74-15.74h14.1c4.13-15.35,19.29-26.75,37.36-26.75a40.14,40.14,0,0,1,27.85,10.92,49.43,49.43,0,0,1-.74-8.51c0-22.13,14.59-36.87,32.59-36.87s32.58,13.74,32.58,35.87"/><path class="cls-4" d="M1611,1472.39l106.15-.48A336.48,336.48,0,0,0,1905,1413.54l87.55-59.62a203.16,203.16,0,0,1,114.4-35.26h153"/></g><circle id="Sun" class="cls-6" cx="1900.67" cy="531.63" r="106.21"/><g id="Camels"><path class="cls-7" d="M1416.84,1408.81a5.42,5.42,0,0,0-7,3.28l-1.52,4.32h0L1391,1471.3h-12a8.07,8.07,0,0,0,7.74-5.78l14.21-48a5.76,5.76,0,0,0-3-6.78,52.38,52.38,0,0,1-39-23.73l-7.18-11.15a6.4,6.4,0,0,0-10.77.53l-.12.19a1.59,1.59,0,0,1-3-.79v-4.18a6.84,6.84,0,0,1,5.14-6.64l16.14-4.8a5.19,5.19,0,0,1,5.82,2.16c7.64,11.72,22.68,19.45,31,19.45,7.88,0,19.51-8.53,27.5-20.21a11.45,11.45,0,0,1,19.66,1.27,10.59,10.59,0,0,0,18.33,1l1.73-2.67a10.86,10.86,0,0,1,17.62-.86l25.94,32.62v9.74a33,33,0,0,0,15.63,28.05l1.24.77v39.89h-5.22l-1.9-33.46-10.94-.63a26.91,26.91,0,0,1-11.15-3.85,29.55,29.55,0,0,1-4.67-4.45,32.65,32.65,0,0,1-7.72-19.66l-4,.12c.31,7.83,1.67,16.08,10.67,22.82l-12.38,39.11h-12a8.07,8.07,0,0,0,7.74-5.78l9.67-32.73c-10.36-3-15-10.81-16-18.84a50.22,50.22,0,0,1-33.32,1c-2.84-.35-4.49,3.25-4.63,6.17l-.71,14.88a6.73,6.73,0,0,0,1.48,4.54l24.71,30.74h-7.64l-24.52-31.73a3.65,3.65,0,0,1-.78-2.27v-23.71a5,5,0,0,0-3.54-4.78Z"/><path class="cls-6" d="M1330.19,1413.9a52.25,52.25,0,0,1-36.66-15l-8.57-8.42a2,2,0,1,1,2.8-2.85l8.57,8.41a48.38,48.38,0,0,0,73.87-7.26l9-13.16a2,2,0,0,1,3.31,2.26l-9,13.16a52.27,52.27,0,0,1-38.16,22.61C1333.63,1413.82,1331.9,1413.9,1330.19,1413.9Z"/><path class="cls-7" d="M1261.84,1472.39h-11.95a8.06,8.06,0,0,0,7.74-5.78l9.68-32.73a27,27,0,0,1-11.88-20.47l-3.61,1.44a50.3,50.3,0,0,1-33.81,1.21,6.84,6.84,0,0,0-4.64,6.17l-.75,15.69a4.65,4.65,0,0,0,1,3.1l25.22,31.37h-7.63l-24.53-31.72a3.79,3.79,0,0,1-.78-2.28v-23.8a5.39,5.39,0,0,0-.82-2.87,5.5,5.5,0,0,0-2.21-2,5.44,5.44,0,0,0-7.56,3.18l0,.06-18.82,59.44h-11.94a8.06,8.06,0,0,0,7.73-5.78l14.21-48a5.74,5.74,0,0,0-3-6.78,53,53,0,0,1-7.13-1.18h0a52.23,52.23,0,0,1-31.88-22.54l-7.19-11.15a6.4,6.4,0,0,0-10.77.53l-.12.19a1.59,1.59,0,0,1-3-.79v-4.18a6.84,6.84,0,0,1,5.14-6.64l16.14-4.8a5.19,5.19,0,0,1,5.82,2.16c7.64,11.72,22.68,19.45,31,19.45,7.76,0,20.06-9.17,28.67-21.24a11.33,11.33,0,0,1,19.67,2,8.86,8.86,0,0,0,15.9.79l.26-.47a14.2,14.2,0,0,1,24-1.36l22.26,31.36v9.74a33,33,0,0,0,15.63,28l1.24.77v39.89h-5.22l-1.89-33.46-10.15-1a26.25,26.25,0,0,1-13.43-5,31.68,31.68,0,0,1-3.24-2.78,30.75,30.75,0,0,1-5.29-6.69,23.8,23.8,0,0,1-3.44-11l-4,.11c.3,7.53,2.34,14.51,11.74,20.69Z"/><path class="cls-6" d="M1086.51,1419.46h-1a56.68,56.68,0,0,1-40.3-17.63l-9.85-10.32a2,2,0,0,1,2.89-2.76l9.85,10.32a53.05,53.05,0,0,0,75.46,1.26l31.72-31.06a2,2,0,0,1,2.8,2.86l-31.72,31.05A56.57,56.57,0,0,1,1086.51,1419.46Z"/><path class="cls-7" d="M1052.09,1439.93l1.89,32.46h5.22V1432.5l-1.24-.77a33,33,0,0,1-15.63-28v-9.74l-22.49-31.42a14.52,14.52,0,0,0-24.74,1.89l-.26.52a7.41,7.41,0,0,1-13.59-.87,11.58,11.58,0,0,0-20.17-3.08c-9.2,12.27-21.94,21.85-29.52,21.85-8.28,0-23.32-7.73-31-19.45a5.19,5.19,0,0,0-5.82-2.16l-16.14,4.8a6.85,6.85,0,0,0-5.14,6.64v4.17a1.6,1.6,0,0,0,3,.8l.11-.19a6.4,6.4,0,0,1,10.77-.53l7.19,11.15a52.23,52.23,0,0,0,31.88,22.54h0a53,53,0,0,0,7.13,1.18,5.74,5.74,0,0,1,2.95,6.78l-14.21,48a8.06,8.06,0,0,1-7.73,5.78h11.94l17.38-54.89,1.45-4.55a5.43,5.43,0,0,1,10.6,1.64v25.22a5.55,5.55,0,0,0,1.26,3.51l24,29.07h7.63l-24.82-30.87a6.33,6.33,0,0,1-1.38-4.24l.72-15c.14-2.93,1.39-6.72,4.64-6.17a50.3,50.3,0,0,0,33.81-1.21l15.15-6v4a24.37,24.37,0,0,0,12,21h0l-9.62,32.77a8.07,8.07,0,0,1-7.74,5.78h11.95l11.26-35.56Z"/></g><g id="Ground"><rect class="cls-8" x="400" y="1472.39" width="1860" height="227.61"/><path class="cls-4" d="M592.29,1472.37c199.14,0,394.94,90.44,394.94,227.63"/><path class="cls-4" d="M809.27,1472.39c103.41,0,510.86,50.48,510.86,227.61"/><path class="cls-4" d="M1091.64,1472.39C1363.8,1472.39,1589,1575.1,1589,1700"/><path class="cls-4" d="M1487.49,1472.39c278,0,476,75.85,476,227.61"/><line class="cls-4" x1="2260" y1="1472.39" x2="400" y2="1472.39"/><polygon class="cls-9" points="890.16 1477.22 400 1614.48 400 1603.48 850.64 1477.22 890.16 1477.22"/><polygon class="cls-9" points="1008.36 1477.22 400 1647.48 400 1636.48 968.83 1477.22 1008.36 1477.22"/><polygon class="cls-9" points="1126.58 1477.22 400 1680.48 400 1669.48 1087.03 1477.22 1126.58 1477.22"/><polygon class="cls-9" points="1243.72 1477.22 448.02 1700 409.27 1700 1204.22 1477.22 1243.72 1477.22"/><polygon class="cls-9" points="1361.93 1477.22 566.02 1700 527.27 1700 1322.43 1477.22 1361.93 1477.22"/><polygon class="cls-9" points="1480.09 1477.22 683.02 1700 644.27 1700 1440.48 1477.22 1480.09 1477.22"/><polygon class="cls-9" points="638.11 1477.61 400 1538.74 400 1477.61 638.11 1477.61"/></g><g id="Plant"><path class="cls-10" d="M468.32,1467.41a3,3,0,1,1,0-6h49.53l-50.13-9.73a3,3,0,1,1,1.15-5.89L532,1458.05l-64.89-27.54a3,3,0,1,1,2.34-5.52l59.29,25.16-54.54-37.67a3,3,0,1,1,3.41-4.93L531.81,1445l-45.2-47a3,3,0,0,1,4.33-4.16l44.4,46.13-35-54.18a3,3,0,1,1,5-3.26l34.94,54.09-24.1-60.09a3,3,0,1,1,5.57-2.23l23.69,59.07-12.43-62.62a3,3,0,1,1,5.89-1.17l12.75,64.29v-65.6a3,3,0,0,1,6,0v65.62l12.76-64.31a3,3,0,1,1,5.88,1.17l-12.41,62.59,23.67-59a3,3,0,1,1,5.57,2.23l-24.1,60.1,34.95-54.1a3,3,0,0,1,5,3.26l-35,54.18,44.41-46.13a3,3,0,0,1,4.33,4.16l-46,47.79,54-36.68a3,3,0,0,1,3.37,5l-52.43,35.58L639.92,1425a3,3,0,0,1,2.34,5.52L583,1455.68l62.44-12.54a3,3,0,1,1,1.18,5.88l-61.71,12.39h62.28a3,3,0,0,1,0,6Z"/><path class="cls-3" d="M1777.13,1449a4,4,0,0,1-2.74-1c-2.41-2.17-1.41-6.65,2.42-10.89a15.89,15.89,0,0,1,4.86-3.77c3.1-1.47,4.92-.46,5.73.27,2.4,2.17,1.41,6.65-2.42,10.89h0C1782.34,1447.45,1779.45,1449,1777.13,1449Zm6.2-10.89a11.7,11.7,0,0,0-2.81,2.35,12.08,12.08,0,0,0-2.07,3,11.8,11.8,0,0,0,2.82-2.36h0A12,12,0,0,0,1783.33,1438.15Z"/><path class="cls-3" d="M1777.13,1419.73a4,4,0,0,1-2.74-1c-2.41-2.18-1.41-6.65,2.42-10.89a15.89,15.89,0,0,1,4.86-3.77c3.1-1.47,4.92-.46,5.73.27,2.4,2.17,1.41,6.65-2.42,10.89h0C1782.34,1418.14,1779.45,1419.73,1777.13,1419.73Zm6.2-10.89a11.7,11.7,0,0,0-2.81,2.35,12.08,12.08,0,0,0-2.07,3,11.8,11.8,0,0,0,2.82-2.36h0A12,12,0,0,0,1783.33,1408.84Z"/><path class="cls-3" d="M1753.71,1449c-2.32,0-5.21-1.59-7.84-4.5-3.84-4.24-4.83-8.72-2.43-10.89.81-.73,2.63-1.74,5.74-.27a16,16,0,0,1,4.85,3.77,16.24,16.24,0,0,1,3.27,5.21c1.14,3.24,0,5-.84,5.68A4,4,0,0,1,1753.71,1449Zm-6.2-10.89a12,12,0,0,0,2.06,3h0a12,12,0,0,0,2.82,2.36,12.26,12.26,0,0,0-2.07-3A11.7,11.7,0,0,0,1747.51,1438.15Z"/><path class="cls-3" d="M1753.69,1419.75a7,7,0,0,1-3-.75,16.3,16.3,0,0,1-4.85-3.77c-3.84-4.24-4.83-8.72-2.43-10.89.81-.73,2.63-1.74,5.74-.27a16,16,0,0,1,4.85,3.77c3.83,4.24,4.83,8.71,2.43,10.89A4.09,4.09,0,0,1,1753.69,1419.75Zm-6.18-10.91a12,12,0,0,0,2.06,3h0a12,12,0,0,0,2.82,2.36,12.45,12.45,0,0,0-2.06-3A11.9,11.9,0,0,0,1747.51,1408.84Z"/><path class="cls-3" d="M1765.61,1395.19c-3.24,0-5.51-4-5.51-9.7s2.27-9.7,5.51-9.7,5.51,4,5.51,9.7S1768.85,1395.19,1765.61,1395.19Zm0-13.33a13.21,13.21,0,0,0,0,7.27,13.21,13.21,0,0,0,0-7.27Z"/><polygon class="cls-11" points="1626.89 1700 1626.89 1694 1735.91 1694 1628.04 1672.34 1629.23 1666.46 1737.84 1688.27 1634.84 1644.56 1637.19 1639.04 1739.01 1682.25 1647.24 1619.96 1650.61 1615 1744 1678.39 1664.65 1595.96 1668.97 1591.8 1746.72 1672.56 1685.51 1577.8 1690.55 1574.55 1751.7 1669.22 1709.56 1564.12 1715.13 1561.89 1756.87 1665.97 1734.99 1555.68 1740.87 1554.51 1763.08 1666.48 1763.08 1418.58 1769.08 1418.58 1769.08 1666.47 1791.29 1554.51 1797.17 1555.68 1775.29 1665.97 1817.03 1561.89 1822.6 1564.12 1780.45 1669.22 1841.61 1574.55 1846.65 1577.8 1785.44 1672.56 1863.18 1591.8 1867.5 1595.97 1788.97 1677.54 1882.96 1612.63 1886.37 1617.57 1792.01 1682.73 1894.97 1639.04 1897.32 1644.56 1787.57 1691.14 1899.82 1667.27 1901.07 1673.13 1802.95 1694 1902.55 1694 1902.55 1700 1626.89 1700"/></g></svg>