<svg id="Слой_1" data-name="Слой 1" xmlns="http://www.w3.org/2000/svg" xmlns:xlink="http://www.w3.org/1999/xlink" viewBox="0 0 2660 2000"><defs><style>.cls-1{fill:#f1e5e4;}.cls-2{fill:#f4f3f2;}.cls-3{fill:#fff;}.cls-4{fill:#f5b9b3;}.cls-5{fill:#f7c5c1;}.cls-6{fill:#f6d7d4;}.cls-7{fill:#ffafae;}.cls-8{fill:none;stroke:#fff;stroke-miterlimit:10;stroke-width:5px;}.cls-9{fill:#ffc0ba;}.cls-10{fill:#ff9fae;}.cls-11{fill:#f78f00;}.cls-12{fill:#875e00;}.cls-13{fill:#9c7f00;}.cls-14{fill:url(#Безымянный_градиент_34);}.cls-15{fill:#00bbb4;}.cls-16{fill:#00cfc2;}.cls-17{fill:#ffb100;}.cls-18{fill:#ffe17f;}.cls-19{fill:#c45900;}.cls-20{fill:#00aaa3;}.cls-21{fill:#008187;}.cls-22{fill:#00e5da;}.cls-23{fill:#00f1dd;}.cls-24{fill:#00e6da;}</style><linearGradient id="Безымянный_градиент_34" x1="1329.45" y1="1394.5" x2="1329.45" y2="1785.94" gradientUnits="userSpaceOnUse"><stop offset="0" stop-color="#008187"/><stop offset="0.4" stop-color="#00a099"/><stop offset="0.76" stop-color="#00b4a6"/><stop offset="1" stop-color="#0ba"/></linearGradient></defs><rect id="Background" class="cls-1" x="399.45" y="364.39" width="1860" height="1400"/><g id="Plane"><polygon class="cls-2" points="2259.45 850.3 1131.48 850.3 2259.45 535.72 2259.45 850.3"/><polygon class="cls-3" points="1495.12 605.89 1494.58 608.33 399.45 608.33 399.45 420.55 1447.16 600.2 401.39 364.39 424.12 364.39 1495.12 605.89"/><rect class="cls-4" x="1489.67" y="604.82" width="11.19" height="4"/></g><g id="Buildings"><rect class="cls-5" x="1334.68" y="853.32" width="214.43" height="538.27"/><rect class="cls-6" x="1356.87" y="898.88" width="169.41" height="8.07"/><rect class="cls-6" x="1438.41" y="898.88" width="6.34" height="8.07"/><rect class="cls-6" x="1356.87" y="919.58" width="169.41" height="8.07"/><rect class="cls-6" x="1438.41" y="919.58" width="6.34" height="8.07"/><rect class="cls-6" x="1356.87" y="940.27" width="169.41" height="8.07"/><rect class="cls-6" x="1438.41" y="940.27" width="6.34" height="8.07"/><rect class="cls-6" x="1356.87" y="960.97" width="169.41" height="8.07"/><rect class="cls-6" x="1438.41" y="960.97" width="6.34" height="8.07"/><rect class="cls-6" x="1356.87" y="981.67" width="169.41" height="8.07"/><rect class="cls-6" x="1438.41" y="981.67" width="6.34" height="8.07"/><rect class="cls-6" x="1356.87" y="1002.36" width="169.41" height="8.07"/><rect class="cls-6" x="1438.41" y="1002.36" width="6.34" height="8.07"/><rect class="cls-6" x="1356.87" y="1023.06" width="169.41" height="8.07"/><rect class="cls-6" x="1438.41" y="1023.06" width="6.34" height="8.07"/><rect class="cls-6" x="1356.87" y="1043.75" width="169.41" height="8.07"/><rect class="cls-6" x="1438.41" y="1043.75" width="6.34" height="8.07"/><rect class="cls-6" x="1356.87" y="1064.45" width="169.41" height="8.07"/><rect class="cls-6" x="1438.41" y="1064.45" width="6.34" height="8.07"/><rect class="cls-6" x="1356.87" y="1085.15" width="169.41" height="8.07"/><rect class="cls-6" x="1438.41" y="1085.15" width="6.34" height="8.07"/><rect class="cls-6" x="1356.87" y="1105.84" width="169.41" height="8.07"/><rect class="cls-6" x="1438.41" y="1105.84" width="6.34" height="8.07"/><rect class="cls-6" x="1356.87" y="1126.54" width="169.41" height="8.07"/><rect class="cls-6" x="1438.41" y="1126.54" width="6.34" height="8.07"/><rect class="cls-6" x="1356.87" y="1147.23" width="169.41" height="8.07"/><rect class="cls-6" x="1438.41" y="1147.23" width="6.34" height="8.07"/><rect class="cls-6" x="1356.87" y="1167.93" width="169.41" height="8.07"/><rect class="cls-6" x="1438.41" y="1167.93" width="6.34" height="8.07"/><rect class="cls-6" x="1357.51" y="1188.62" width="169.41" height="8.07"/><rect class="cls-6" x="1439.04" y="1188.62" width="6.34" height="8.07"/><rect class="cls-6" x="1357.51" y="1209.32" width="169.41" height="8.07"/><rect class="cls-6" x="1439.04" y="1209.32" width="6.34" height="8.07"/><rect class="cls-6" x="1357.51" y="1230.02" width="169.41" height="8.07"/><rect class="cls-6" x="1439.04" y="1230.02" width="6.34" height="8.07"/><rect class="cls-6" x="1357.51" y="1250.71" width="169.41" height="8.07"/><rect class="cls-6" x="1439.04" y="1250.71" width="6.34" height="8.07"/><rect class="cls-6" x="1357.51" y="1271.41" width="169.41" height="8.07"/><rect class="cls-6" x="1439.04" y="1271.41" width="6.34" height="8.07"/><rect class="cls-6" x="1357.51" y="1292.1" width="169.41" height="8.07"/><rect class="cls-6" x="1439.04" y="1292.1" width="6.34" height="8.07"/><rect class="cls-6" x="1357.51" y="1312.8" width="169.41" height="8.07"/><rect class="cls-6" x="1439.04" y="1312.8" width="6.34" height="8.07"/><rect class="cls-6" x="1357.51" y="1333.5" width="169.41" height="8.07"/><rect class="cls-6" x="1439.04" y="1333.5" width="6.34" height="8.07"/><rect class="cls-5" x="1867.43" y="741.94" width="202.16" height="234.78"/><path class="cls-5" d="M2021.58,705.92H1913.75c4.31-20.83,20.43-36.3,39.66-36.3h28.5C2001.15,669.62,2017.27,685.09,2021.58,705.92Z"/><path class="cls-6" d="M2021.58,705.92h-81.82c4.31-20.83,20.43-36.3,39.67-36.3h2.48C2001.15,669.62,2017.27,685.09,2021.58,705.92Z"/><rect class="cls-5" x="1893.38" y="705.92" width="149.38" height="36.02"/><rect class="cls-6" x="1953.72" y="741.94" width="115.87" height="234.78"/><rect class="cls-5" x="1953.72" y="966.32" width="115.87" height="10.4"/><rect class="cls-7" x="1874.43" y="753.97" width="33.4" height="5.61"/><rect class="cls-7" x="1910.43" y="753.97" width="33.39" height="5.61"/><rect class="cls-7" x="1874.43" y="767.4" width="33.4" height="5.61"/><rect class="cls-7" x="1910.43" y="767.4" width="33.39" height="5.61"/><rect class="cls-7" x="1874.43" y="780.84" width="33.4" height="5.61"/><rect class="cls-7" x="1910.43" y="780.84" width="33.39" height="5.61"/><rect class="cls-7" x="1874.43" y="794.28" width="33.4" height="5.61"/><rect class="cls-7" x="1910.43" y="794.28" width="33.39" height="5.61"/><rect class="cls-7" x="1874.43" y="807.71" width="33.4" height="5.61"/><rect class="cls-7" x="1910.43" y="807.71" width="33.39" height="5.61"/><rect class="cls-7" x="1874.43" y="821.15" width="33.4" height="5.61"/><rect class="cls-7" x="1910.43" y="821.15" width="33.39" height="5.61"/><rect class="cls-7" x="1874.43" y="834.59" width="33.4" height="5.6"/><rect class="cls-7" x="1910.43" y="834.59" width="33.39" height="5.6"/><rect class="cls-7" x="1874.43" y="848.02" width="33.4" height="5.61"/><rect class="cls-7" x="1910.43" y="848.02" width="33.39" height="5.61"/><rect class="cls-7" x="1874.43" y="861.46" width="33.4" height="5.61"/><rect class="cls-7" x="1910.43" y="861.46" width="33.39" height="5.61"/><rect class="cls-7" x="1874.43" y="874.89" width="33.4" height="5.61"/><rect class="cls-7" x="1910.43" y="874.89" width="33.39" height="5.61"/><rect class="cls-7" x="1874.43" y="888.33" width="33.4" height="5.61"/><rect class="cls-7" x="1910.43" y="888.33" width="33.39" height="5.61"/><rect class="cls-7" x="1874.43" y="901.77" width="33.4" height="5.61"/><rect class="cls-7" x="1910.43" y="901.77" width="33.39" height="5.61"/><rect class="cls-7" x="1874.43" y="915.2" width="33.4" height="5.61"/><rect class="cls-7" x="1910.43" y="915.2" width="33.39" height="5.61"/><rect class="cls-7" x="1874.43" y="928.64" width="33.4" height="5.61"/><rect class="cls-7" x="1910.43" y="928.64" width="33.39" height="5.61"/><rect class="cls-7" x="1874.43" y="942.08" width="33.4" height="5.61"/><rect class="cls-7" x="1910.43" y="942.08" width="33.39" height="5.61"/><rect class="cls-7" x="1874.43" y="955.51" width="33.4" height="5.61"/><rect class="cls-7" x="1910.43" y="955.51" width="33.39" height="5.61"/><rect class="cls-5" x="2015.57" y="875.29" width="42.43" height="5.61"/><rect class="cls-5" x="2015.57" y="848.42" width="42.43" height="5.61"/><rect class="cls-5" x="2015.57" y="929.04" width="42.43" height="5.61"/><rect class="cls-5" x="2015.57" y="861.86" width="42.43" height="5.61"/><rect class="cls-5" x="2015.57" y="808.11" width="42.43" height="5.61"/><rect class="cls-5" x="2015.57" y="902.17" width="42.43" height="5.61"/><rect class="cls-5" x="2015.57" y="794.68" width="42.43" height="5.6"/><rect class="cls-5" x="2015.57" y="942.48" width="42.43" height="5.61"/><rect class="cls-5" x="2015.57" y="754.37" width="42.43" height="5.6"/><rect class="cls-5" x="2015.57" y="834.98" width="42.43" height="5.61"/><rect class="cls-5" x="2015.57" y="915.6" width="42.43" height="5.61"/><rect class="cls-5" x="2015.57" y="821.55" width="42.43" height="5.61"/><rect class="cls-5" x="2015.57" y="767.8" width="42.43" height="5.61"/><rect class="cls-5" x="2015.57" y="955.91" width="42.43" height="5.61"/><rect class="cls-5" x="2015.57" y="781.24" width="42.43" height="5.61"/><rect class="cls-5" x="2015.57" y="888.73" width="42.43" height="5.61"/><rect class="cls-5" x="1969.85" y="861.86" width="42.42" height="5.61"/><rect class="cls-5" x="1969.85" y="848.42" width="42.42" height="5.61"/><rect class="cls-5" x="1969.85" y="929.04" width="42.42" height="5.61"/><rect class="cls-5" x="1969.85" y="955.91" width="42.42" height="5.61"/><rect class="cls-5" x="1969.85" y="888.73" width="42.42" height="5.61"/><rect class="cls-5" x="1969.85" y="915.6" width="42.42" height="5.61"/><rect class="cls-5" x="1969.85" y="902.17" width="42.42" height="5.61"/><rect class="cls-5" x="1969.85" y="875.29" width="42.42" height="5.61"/><rect class="cls-5" x="1969.85" y="942.48" width="42.42" height="5.61"/><rect class="cls-5" x="1969.85" y="794.68" width="42.42" height="5.6"/><rect class="cls-5" x="1969.85" y="808.11" width="42.42" height="5.61"/><rect class="cls-5" x="1969.85" y="767.8" width="42.42" height="5.61"/><rect class="cls-5" x="1969.85" y="781.24" width="42.42" height="5.61"/><rect class="cls-5" x="1969.85" y="754.37" width="42.42" height="5.6"/><rect class="cls-5" x="1969.85" y="834.98" width="42.42" height="5.61"/><rect class="cls-5" x="1969.85" y="821.55" width="42.42" height="5.61"/><rect class="cls-6" x="1765.96" y="975.59" width="187.76" height="416"/><rect class="cls-1" x="1953.72" y="975.59" width="139" height="416"/><rect class="cls-5" x="1800.46" y="1051.55" width="237.02" height="8.07"/><rect class="cls-5" x="1800.46" y="1225.62" width="237.02" height="8.08"/><rect class="cls-5" x="1800.46" y="1109.57" width="237.02" height="8.08"/><rect class="cls-5" x="1800.46" y="1070.89" width="237.02" height="8.07"/><rect class="cls-5" x="1800.46" y="1206.28" width="237.02" height="8.08"/><rect class="cls-5" x="1800.46" y="1128.92" width="237.02" height="8.07"/><rect class="cls-5" x="1800.46" y="1032.21" width="237.02" height="8.07"/><rect class="cls-5" x="1800.46" y="1090.23" width="237.02" height="8.08"/><rect class="cls-5" x="1800.46" y="1264.31" width="237.02" height="8.07"/><rect class="cls-5" x="1800.46" y="1244.97" width="237.02" height="8.07"/><rect class="cls-5" x="1800.46" y="1303.31" width="237.02" height="8.07"/><rect class="cls-5" x="1800.46" y="1283.97" width="237.02" height="8.07"/><rect class="cls-5" x="1800.46" y="1186.94" width="237.02" height="8.08"/><rect class="cls-5" x="1800.46" y="1012.87" width="237.02" height="8.07"/><rect class="cls-5" x="1800.46" y="1167.6" width="237.02" height="8.07"/><rect class="cls-5" x="1800.46" y="1148.26" width="237.02" height="8.07"/><rect class="cls-3" x="1765.96" y="975.59" width="326.8" height="5"/><rect class="cls-5" x="832.42" y="581.18" width="81.95" height="755.39"/><rect class="cls-6" x="914.37" y="581.18" width="136.76" height="755.39"/><rect class="cls-6" x="832.42" y="567.04" width="219.21" height="5"/><rect class="cls-7" x="893.69" y="891.35" width="76.06" height="500.23"/><rect class="cls-6" x="969.75" y="891.35" width="156.22" height="500.23"/><polygon class="cls-6" points="984.52 875.56 914.37 875.56 893.69 891.35 969.75 891.35 984.52 875.56"/><polygon class="cls-3" points="1110.71 875.56 984.52 875.56 969.75 891.35 1125.79 891.02 1110.71 875.56"/><rect class="cls-7" x="914.37" y="745.11" width="70.15" height="130.45"/><rect class="cls-6" x="984.52" y="745.11" width="126.19" height="130.45"/><polygon class="cls-1" points="984.52 745.11 914.37 745.11 973.43 672.46 1040.55 672.46 984.52 745.11"/><polygon class="cls-3" points="984.52 745.11 1040.31 672.64 1051.84 672.64 1110.71 745.11 984.52 745.11"/><rect class="cls-7" x="994.64" y="755.69" width="2.83" height="4.78"/><rect class="cls-7" x="998.89" y="755.69" width="2.83" height="4.78"/><rect class="cls-7" x="994.64" y="761.71" width="2.83" height="4.78"/><rect class="cls-7" x="998.89" y="761.71" width="2.83" height="4.78"/><rect class="cls-7" x="1027.91" y="755.69" width="2.83" height="4.78"/><rect class="cls-7" x="1032.16" y="755.69" width="2.83" height="4.78"/><rect class="cls-7" x="1027.91" y="761.71" width="2.83" height="4.78"/><rect class="cls-7" x="1032.16" y="761.71" width="2.83" height="4.78"/><rect class="cls-7" x="1061.18" y="755.69" width="2.83" height="4.78"/><rect class="cls-7" x="1065.43" y="755.69" width="2.83" height="4.78"/><rect class="cls-7" x="1061.18" y="761.71" width="2.83" height="4.78"/><rect class="cls-7" x="1065.43" y="761.71" width="2.83" height="4.78"/><rect class="cls-7" x="1094.46" y="755.69" width="2.83" height="4.78"/><rect class="cls-7" x="1098.7" y="755.69" width="2.83" height="4.78"/><rect class="cls-7" x="1094.46" y="761.71" width="2.83" height="4.78"/><rect class="cls-7" x="1098.7" y="761.71" width="2.83" height="4.78"/><rect class="cls-7" x="1077.82" y="755.69" width="2.83" height="4.78"/><rect class="cls-7" x="1082.07" y="755.69" width="2.83" height="4.78"/><rect class="cls-7" x="1077.82" y="761.71" width="2.83" height="4.78"/><rect class="cls-7" x="1082.07" y="761.71" width="2.83" height="4.78"/><rect class="cls-7" x="1044.55" y="755.69" width="2.83" height="4.78"/><rect class="cls-7" x="1048.8" y="755.69" width="2.83" height="4.78"/><rect class="cls-7" x="1044.55" y="761.71" width="2.83" height="4.78"/><rect class="cls-7" x="1048.8" y="761.71" width="2.83" height="4.78"/><rect class="cls-7" x="1011.28" y="755.69" width="2.83" height="4.78"/><rect class="cls-7" x="1015.53" y="755.69" width="2.83" height="4.78"/><rect class="cls-7" x="1011.28" y="761.71" width="2.83" height="4.78"/><rect class="cls-7" x="1015.53" y="761.71" width="2.83" height="4.78"/><rect class="cls-7" x="994.64" y="779.89" width="2.83" height="4.78"/><rect class="cls-7" x="998.89" y="779.89" width="2.83" height="4.78"/><rect class="cls-7" x="994.64" y="785.9" width="2.83" height="4.78"/><rect class="cls-7" x="998.89" y="785.9" width="2.83" height="4.78"/><rect class="cls-7" x="1027.91" y="779.89" width="2.83" height="4.78"/><rect class="cls-7" x="1032.16" y="779.89" width="2.83" height="4.78"/><rect class="cls-7" x="1027.91" y="785.9" width="2.83" height="4.78"/><rect class="cls-7" x="1032.16" y="785.9" width="2.83" height="4.78"/><rect class="cls-7" x="1061.18" y="779.89" width="2.83" height="4.78"/><rect class="cls-7" x="1065.43" y="779.89" width="2.83" height="4.78"/><rect class="cls-7" x="1061.18" y="785.9" width="2.83" height="4.78"/><rect class="cls-7" x="1065.43" y="785.9" width="2.83" height="4.78"/><rect class="cls-7" x="1094.46" y="779.89" width="2.83" height="4.78"/><rect class="cls-7" x="1098.7" y="779.89" width="2.83" height="4.78"/><rect class="cls-7" x="1094.46" y="785.9" width="2.83" height="4.78"/><rect class="cls-7" x="1098.7" y="785.9" width="2.83" height="4.78"/><rect class="cls-7" x="1077.82" y="779.89" width="2.83" height="4.78"/><rect class="cls-7" x="1082.07" y="779.89" width="2.83" height="4.78"/><rect class="cls-7" x="1077.82" y="785.9" width="2.83" height="4.78"/><rect class="cls-7" x="1082.07" y="785.9" width="2.83" height="4.78"/><rect class="cls-7" x="1044.55" y="779.89" width="2.83" height="4.78"/><rect class="cls-7" x="1048.8" y="779.89" width="2.83" height="4.78"/><rect class="cls-7" x="1044.55" y="785.9" width="2.83" height="4.78"/><rect class="cls-7" x="1048.8" y="785.9" width="2.83" height="4.78"/><rect class="cls-7" x="1011.28" y="779.89" width="2.83" height="4.78"/><rect class="cls-7" x="1015.53" y="779.89" width="2.83" height="4.78"/><rect class="cls-7" x="1011.28" y="785.9" width="2.83" height="4.78"/><rect class="cls-7" x="1015.53" y="785.9" width="2.83" height="4.78"/><rect class="cls-7" x="994.64" y="804.08" width="2.83" height="4.78"/><rect class="cls-7" x="998.89" y="804.08" width="2.83" height="4.78"/><rect class="cls-7" x="994.64" y="810.1" width="2.83" height="4.78"/><rect class="cls-7" x="998.89" y="810.1" width="2.83" height="4.78"/><rect class="cls-7" x="1027.91" y="804.08" width="2.83" height="4.78"/><rect class="cls-7" x="1032.16" y="804.08" width="2.83" height="4.78"/><rect class="cls-7" x="1027.91" y="810.1" width="2.83" height="4.78"/><rect class="cls-7" x="1032.16" y="810.1" width="2.83" height="4.78"/><rect class="cls-7" x="1061.18" y="804.08" width="2.83" height="4.78"/><rect class="cls-7" x="1065.43" y="804.08" width="2.83" height="4.78"/><rect class="cls-7" x="1061.18" y="810.1" width="2.83" height="4.78"/><rect class="cls-7" x="1065.43" y="810.1" width="2.83" height="4.78"/><rect class="cls-7" x="1094.46" y="804.08" width="2.83" height="4.78"/><rect class="cls-7" x="1098.7" y="804.08" width="2.83" height="4.78"/><rect class="cls-7" x="1094.46" y="810.1" width="2.83" height="4.78"/><rect class="cls-7" x="1098.7" y="810.1" width="2.83" height="4.78"/><rect class="cls-7" x="1077.82" y="804.08" width="2.83" height="4.78"/><rect class="cls-7" x="1082.07" y="804.08" width="2.83" height="4.78"/><rect class="cls-7" x="1077.82" y="810.1" width="2.83" height="4.78"/><rect class="cls-7" x="1082.07" y="810.1" width="2.83" height="4.78"/><rect class="cls-7" x="1044.55" y="804.08" width="2.83" height="4.78"/><rect class="cls-7" x="1048.8" y="804.08" width="2.83" height="4.78"/><rect class="cls-7" x="1044.55" y="810.1" width="2.83" height="4.78"/><rect class="cls-7" x="1048.8" y="810.1" width="2.83" height="4.78"/><rect class="cls-7" x="1011.28" y="804.08" width="2.83" height="4.78"/><rect class="cls-7" x="1015.53" y="804.08" width="2.83" height="4.78"/><rect class="cls-7" x="1011.28" y="810.1" width="2.83" height="4.78"/><rect class="cls-7" x="1015.53" y="810.1" width="2.83" height="4.78"/><rect class="cls-7" x="994.64" y="828.28" width="2.83" height="4.78"/><rect class="cls-7" x="998.89" y="828.28" width="2.83" height="4.78"/><rect class="cls-7" x="994.64" y="834.3" width="2.83" height="4.78"/><rect class="cls-7" x="998.89" y="834.3" width="2.83" height="4.78"/><rect class="cls-7" x="1027.91" y="828.28" width="2.83" height="4.78"/><rect class="cls-7" x="1032.16" y="828.28" width="2.83" height="4.78"/><rect class="cls-7" x="1027.91" y="834.3" width="2.83" height="4.78"/><rect class="cls-7" x="1032.16" y="834.3" width="2.83" height="4.78"/><rect class="cls-7" x="1061.18" y="828.28" width="2.83" height="4.78"/><rect class="cls-7" x="1065.43" y="828.28" width="2.83" height="4.78"/><rect class="cls-7" x="1061.18" y="834.3" width="2.83" height="4.78"/><rect class="cls-7" x="1065.43" y="834.3" width="2.83" height="4.78"/><rect class="cls-7" x="1094.46" y="828.28" width="2.83" height="4.78"/><rect class="cls-7" x="1098.7" y="828.28" width="2.83" height="4.78"/><rect class="cls-7" x="1094.46" y="834.3" width="2.83" height="4.78"/><rect class="cls-7" x="1098.7" y="834.3" width="2.83" height="4.78"/><rect class="cls-7" x="1077.82" y="828.28" width="2.83" height="4.78"/><rect class="cls-7" x="1082.07" y="828.28" width="2.83" height="4.78"/><rect class="cls-7" x="1077.82" y="834.3" width="2.83" height="4.78"/><rect class="cls-7" x="1082.07" y="834.3" width="2.83" height="4.78"/><rect class="cls-7" x="1044.55" y="828.28" width="2.83" height="4.78"/><rect class="cls-7" x="1048.8" y="828.28" width="2.83" height="4.78"/><rect class="cls-7" x="1044.55" y="834.3" width="2.83" height="4.78"/><rect class="cls-7" x="1048.8" y="834.3" width="2.83" height="4.78"/><rect class="cls-7" x="1011.28" y="828.28" width="2.83" height="4.78"/><rect class="cls-7" x="1015.53" y="828.28" width="2.83" height="4.78"/><rect class="cls-7" x="1011.28" y="834.3" width="2.83" height="4.78"/><rect class="cls-7" x="1015.53" y="834.3" width="2.83" height="4.78"/><rect class="cls-7" x="994.64" y="852.48" width="2.83" height="4.78"/><rect class="cls-7" x="998.89" y="852.48" width="2.83" height="4.78"/><rect class="cls-7" x="994.64" y="858.5" width="2.83" height="4.78"/><rect class="cls-7" x="998.89" y="858.5" width="2.83" height="4.78"/><rect class="cls-7" x="1027.91" y="852.48" width="2.83" height="4.78"/><rect class="cls-7" x="1032.16" y="852.48" width="2.83" height="4.78"/><rect class="cls-7" x="1027.91" y="858.5" width="2.83" height="4.78"/><rect class="cls-7" x="1032.16" y="858.5" width="2.83" height="4.78"/><rect class="cls-7" x="1061.18" y="852.48" width="2.83" height="4.78"/><rect class="cls-7" x="1065.43" y="852.48" width="2.83" height="4.78"/><rect class="cls-7" x="1061.18" y="858.5" width="2.83" height="4.78"/><rect class="cls-7" x="1065.43" y="858.5" width="2.83" height="4.78"/><rect class="cls-7" x="1094.46" y="852.48" width="2.83" height="4.78"/><rect class="cls-7" x="1098.7" y="852.48" width="2.83" height="4.78"/><rect class="cls-7" x="1094.46" y="858.5" width="2.83" height="4.78"/><rect class="cls-7" x="1098.7" y="858.5" width="2.83" height="4.78"/><rect class="cls-7" x="1077.82" y="852.48" width="2.83" height="4.78"/><rect class="cls-7" x="1082.07" y="852.48" width="2.83" height="4.78"/><rect class="cls-7" x="1077.82" y="858.5" width="2.83" height="4.78"/><rect class="cls-7" x="1082.07" y="858.5" width="2.83" height="4.78"/><rect class="cls-7" x="1044.55" y="852.48" width="2.83" height="4.78"/><rect class="cls-7" x="1048.8" y="852.48" width="2.83" height="4.78"/><rect class="cls-7" x="1044.55" y="858.5" width="2.83" height="4.78"/><rect class="cls-7" x="1048.8" y="858.5" width="2.83" height="4.78"/><rect class="cls-7" x="1011.28" y="852.48" width="2.83" height="4.78"/><rect class="cls-7" x="1015.53" y="852.48" width="2.83" height="4.78"/><rect class="cls-7" x="1011.28" y="858.5" width="2.83" height="4.78"/><rect class="cls-7" x="1015.53" y="858.5" width="2.83" height="4.78"/><rect class="cls-7" x="1002.42" y="909.95" width="2.83" height="4.78"/><rect class="cls-7" x="1006.67" y="909.95" width="2.83" height="4.78"/><rect class="cls-7" x="1002.42" y="915.97" width="2.83" height="4.78"/><rect class="cls-7" x="1006.67" y="915.97" width="2.83" height="4.78"/><rect class="cls-7" x="985.57" y="909.95" width="2.83" height="4.78"/><rect class="cls-7" x="989.82" y="909.95" width="2.83" height="4.78"/><rect class="cls-7" x="985.57" y="915.97" width="2.83" height="4.78"/><rect class="cls-7" x="989.82" y="915.97" width="2.83" height="4.78"/><rect class="cls-7" x="1036.12" y="909.95" width="2.83" height="4.78"/><rect class="cls-7" x="1040.37" y="909.95" width="2.83" height="4.78"/><rect class="cls-7" x="1036.12" y="915.97" width="2.83" height="4.78"/><rect class="cls-7" x="1040.37" y="915.97" width="2.83" height="4.78"/><rect class="cls-7" x="1069.83" y="909.95" width="2.83" height="4.78"/><rect class="cls-7" x="1074.08" y="909.95" width="2.83" height="4.78"/><rect class="cls-7" x="1069.83" y="915.97" width="2.83" height="4.78"/><rect class="cls-7" x="1074.08" y="915.97" width="2.83" height="4.78"/><rect class="cls-7" x="1103.53" y="909.95" width="2.83" height="4.78"/><rect class="cls-7" x="1107.78" y="909.95" width="2.83" height="4.78"/><rect class="cls-7" x="1103.53" y="915.97" width="2.83" height="4.78"/><rect class="cls-7" x="1107.78" y="915.97" width="2.83" height="4.78"/><rect class="cls-7" x="1086.68" y="909.95" width="2.83" height="4.78"/><rect class="cls-7" x="1090.93" y="909.95" width="2.83" height="4.78"/><rect class="cls-7" x="1086.68" y="915.97" width="2.83" height="4.78"/><rect class="cls-7" x="1090.93" y="915.97" width="2.83" height="4.78"/><rect class="cls-7" x="1052.97" y="909.95" width="2.83" height="4.78"/><rect class="cls-7" x="1057.22" y="909.95" width="2.83" height="4.78"/><rect class="cls-7" x="1052.97" y="915.97" width="2.83" height="4.78"/><rect class="cls-7" x="1057.22" y="915.97" width="2.83" height="4.78"/><rect class="cls-7" x="1019.27" y="909.95" width="2.83" height="4.78"/><rect class="cls-7" x="1023.52" y="909.95" width="2.83" height="4.78"/><rect class="cls-7" x="1019.27" y="915.97" width="2.83" height="4.78"/><rect class="cls-7" x="1023.52" y="915.97" width="2.83" height="4.78"/><rect class="cls-7" x="1002.42" y="935.75" width="2.83" height="4.78"/><rect class="cls-7" x="1006.67" y="935.75" width="2.83" height="4.78"/><rect class="cls-7" x="1002.42" y="941.76" width="2.83" height="4.78"/><rect class="cls-7" x="1006.67" y="941.76" width="2.83" height="4.78"/><rect class="cls-7" x="985.57" y="935.75" width="2.83" height="4.78"/><rect class="cls-7" x="989.82" y="935.75" width="2.83" height="4.78"/><rect class="cls-7" x="985.57" y="941.76" width="2.83" height="4.78"/><rect class="cls-7" x="989.82" y="941.76" width="2.83" height="4.78"/><rect class="cls-7" x="1036.12" y="935.75" width="2.83" height="4.78"/><rect class="cls-7" x="1040.37" y="935.75" width="2.83" height="4.78"/><rect class="cls-7" x="1036.12" y="941.76" width="2.83" height="4.78"/><rect class="cls-7" x="1040.37" y="941.76" width="2.83" height="4.78"/><rect class="cls-7" x="1069.83" y="935.75" width="2.83" height="4.78"/><rect class="cls-7" x="1074.08" y="935.75" width="2.83" height="4.78"/><rect class="cls-7" x="1069.83" y="941.76" width="2.83" height="4.78"/><rect class="cls-7" x="1074.08" y="941.76" width="2.83" height="4.78"/><rect class="cls-7" x="1103.53" y="935.75" width="2.83" height="4.78"/><rect class="cls-7" x="1107.78" y="935.75" width="2.83" height="4.78"/><rect class="cls-7" x="1103.53" y="941.76" width="2.83" height="4.78"/><rect class="cls-7" x="1107.78" y="941.76" width="2.83" height="4.78"/><rect class="cls-7" x="1086.68" y="935.75" width="2.83" height="4.78"/><rect class="cls-7" x="1090.93" y="935.75" width="2.83" height="4.78"/><rect class="cls-7" x="1086.68" y="941.76" width="2.83" height="4.78"/><rect class="cls-7" x="1090.93" y="941.76" width="2.83" height="4.78"/><rect class="cls-7" x="1052.97" y="935.75" width="2.83" height="4.78"/><rect class="cls-7" x="1057.22" y="935.75" width="2.83" height="4.78"/><rect class="cls-7" x="1052.97" y="941.76" width="2.83" height="4.78"/><rect class="cls-7" x="1057.22" y="941.76" width="2.83" height="4.78"/><rect class="cls-7" x="1019.27" y="935.75" width="2.83" height="4.78"/><rect class="cls-7" x="1023.52" y="935.75" width="2.83" height="4.78"/><rect class="cls-7" x="1019.27" y="941.76" width="2.83" height="4.78"/><rect class="cls-7" x="1023.52" y="941.76" width="2.83" height="4.78"/><rect class="cls-7" x="1002.42" y="961.54" width="2.83" height="4.78"/><rect class="cls-7" x="1006.67" y="961.54" width="2.83" height="4.78"/><rect class="cls-7" x="1002.42" y="967.56" width="2.83" height="4.78"/><rect class="cls-7" x="1006.67" y="967.56" width="2.83" height="4.78"/><rect class="cls-7" x="985.57" y="961.54" width="2.83" height="4.78"/><rect class="cls-7" x="989.82" y="961.54" width="2.83" height="4.78"/><rect class="cls-7" x="985.57" y="967.56" width="2.83" height="4.78"/><rect class="cls-7" x="989.82" y="967.56" width="2.83" height="4.78"/><rect class="cls-7" x="1036.12" y="961.54" width="2.83" height="4.78"/><rect class="cls-7" x="1040.37" y="961.54" width="2.83" height="4.78"/><rect class="cls-7" x="1036.12" y="967.56" width="2.83" height="4.78"/><rect class="cls-7" x="1040.37" y="967.56" width="2.83" height="4.78"/><rect class="cls-7" x="1069.83" y="961.54" width="2.83" height="4.78"/><rect class="cls-7" x="1074.08" y="961.54" width="2.83" height="4.78"/><rect class="cls-7" x="1069.83" y="967.56" width="2.83" height="4.78"/><rect class="cls-7" x="1074.08" y="967.56" width="2.83" height="4.78"/><rect class="cls-7" x="1103.53" y="961.54" width="2.83" height="4.78"/><rect class="cls-7" x="1107.78" y="961.54" width="2.83" height="4.78"/><rect class="cls-7" x="1103.53" y="967.56" width="2.83" height="4.78"/><rect class="cls-7" x="1107.78" y="967.56" width="2.83" height="4.78"/><rect class="cls-7" x="1086.68" y="961.54" width="2.83" height="4.78"/><rect class="cls-7" x="1090.93" y="961.54" width="2.83" height="4.78"/><rect class="cls-7" x="1086.68" y="967.56" width="2.83" height="4.78"/><rect class="cls-7" x="1090.93" y="967.56" width="2.83" height="4.78"/><rect class="cls-7" x="1052.97" y="961.54" width="2.83" height="4.78"/><rect class="cls-7" x="1057.22" y="961.54" width="2.83" height="4.78"/><rect class="cls-7" x="1052.97" y="967.56" width="2.83" height="4.78"/><rect class="cls-7" x="1057.22" y="967.56" width="2.83" height="4.78"/><rect class="cls-7" x="1019.27" y="961.54" width="2.83" height="4.78"/><rect class="cls-7" x="1023.52" y="961.54" width="2.83" height="4.78"/><rect class="cls-7" x="1019.27" y="967.56" width="2.83" height="4.78"/><rect class="cls-7" x="1023.52" y="967.56" width="2.83" height="4.78"/><rect class="cls-7" x="1002.42" y="987.34" width="2.83" height="4.78"/><rect class="cls-7" x="1006.67" y="987.34" width="2.83" height="4.78"/><rect class="cls-7" x="1002.42" y="993.36" width="2.83" height="4.78"/><rect class="cls-7" x="1006.67" y="993.36" width="2.83" height="4.78"/><rect class="cls-7" x="985.57" y="987.34" width="2.83" height="4.78"/><rect class="cls-7" x="989.82" y="987.34" width="2.83" height="4.78"/><rect class="cls-7" x="985.57" y="993.36" width="2.83" height="4.78"/><rect class="cls-7" x="989.82" y="993.36" width="2.83" height="4.78"/><rect class="cls-7" x="1036.12" y="987.34" width="2.83" height="4.78"/><rect class="cls-7" x="1040.37" y="987.34" width="2.83" height="4.78"/><rect class="cls-7" x="1036.12" y="993.36" width="2.83" height="4.78"/><rect class="cls-7" x="1040.37" y="993.36" width="2.83" height="4.78"/><rect class="cls-7" x="1069.83" y="987.34" width="2.83" height="4.78"/><rect class="cls-7" x="1074.08" y="987.34" width="2.83" height="4.78"/><rect class="cls-7" x="1069.83" y="993.36" width="2.83" height="4.78"/><rect class="cls-7" x="1074.08" y="993.36" width="2.83" height="4.78"/><rect class="cls-7" x="1103.53" y="987.34" width="2.83" height="4.78"/><rect class="cls-7" x="1107.78" y="987.34" width="2.83" height="4.78"/><rect class="cls-7" x="1103.53" y="993.36" width="2.83" height="4.78"/><rect class="cls-7" x="1107.78" y="993.36" width="2.83" height="4.78"/><rect class="cls-7" x="1086.68" y="987.34" width="2.83" height="4.78"/><rect class="cls-7" x="1090.93" y="987.34" width="2.83" height="4.78"/><rect class="cls-7" x="1086.68" y="993.36" width="2.83" height="4.78"/><rect class="cls-7" x="1090.93" y="993.36" width="2.83" height="4.78"/><rect class="cls-7" x="1052.97" y="987.34" width="2.83" height="4.78"/><rect class="cls-7" x="1057.22" y="987.34" width="2.83" height="4.78"/><rect class="cls-7" x="1052.97" y="993.36" width="2.83" height="4.78"/><rect class="cls-7" x="1057.22" y="993.36" width="2.83" height="4.78"/><rect class="cls-7" x="1019.27" y="987.34" width="2.83" height="4.78"/><rect class="cls-7" x="1023.52" y="987.34" width="2.83" height="4.78"/><rect class="cls-7" x="1019.27" y="993.36" width="2.83" height="4.78"/><rect class="cls-7" x="1023.52" y="993.36" width="2.83" height="4.78"/><rect class="cls-7" x="1002.42" y="1013.14" width="2.83" height="4.78"/><rect class="cls-7" x="1006.67" y="1013.14" width="2.83" height="4.78"/><rect class="cls-7" x="1002.42" y="1019.16" width="2.83" height="4.78"/><rect class="cls-7" x="1006.67" y="1019.16" width="2.83" height="4.78"/><rect class="cls-7" x="985.57" y="1013.14" width="2.83" height="4.78"/><rect class="cls-7" x="989.82" y="1013.14" width="2.83" height="4.78"/><rect class="cls-7" x="985.57" y="1019.16" width="2.83" height="4.78"/><rect class="cls-7" x="989.82" y="1019.16" width="2.83" height="4.78"/><rect class="cls-7" x="1036.12" y="1013.14" width="2.83" height="4.78"/><rect class="cls-7" x="1040.37" y="1013.14" width="2.83" height="4.78"/><rect class="cls-7" x="1036.12" y="1019.16" width="2.83" height="4.78"/><rect class="cls-7" x="1040.37" y="1019.16" width="2.83" height="4.78"/><rect class="cls-7" x="1069.83" y="1013.14" width="2.83" height="4.78"/><rect class="cls-7" x="1074.08" y="1013.14" width="2.83" height="4.78"/><rect class="cls-7" x="1069.83" y="1019.16" width="2.83" height="4.78"/><rect class="cls-7" x="1074.08" y="1019.16" width="2.83" height="4.78"/><rect class="cls-7" x="1103.53" y="1013.14" width="2.83" height="4.78"/><rect class="cls-7" x="1107.78" y="1013.14" width="2.83" height="4.78"/><rect class="cls-7" x="1103.53" y="1019.16" width="2.83" height="4.78"/><rect class="cls-7" x="1107.78" y="1019.16" width="2.83" height="4.78"/><rect class="cls-7" x="1086.68" y="1013.14" width="2.83" height="4.78"/><rect class="cls-7" x="1090.93" y="1013.14" width="2.83" height="4.78"/><rect class="cls-7" x="1086.68" y="1019.16" width="2.83" height="4.78"/><rect class="cls-7" x="1090.93" y="1019.16" width="2.83" height="4.78"/><rect class="cls-7" x="1052.97" y="1013.14" width="2.83" height="4.78"/><rect class="cls-7" x="1057.22" y="1013.14" width="2.83" height="4.78"/><rect class="cls-7" x="1052.97" y="1019.16" width="2.83" height="4.78"/><rect class="cls-7" x="1057.22" y="1019.16" width="2.83" height="4.78"/><rect class="cls-7" x="1019.27" y="1013.14" width="2.83" height="4.78"/><rect class="cls-7" x="1023.52" y="1013.14" width="2.83" height="4.78"/><rect class="cls-7" x="1019.27" y="1019.16" width="2.83" height="4.78"/><rect class="cls-7" x="1023.52" y="1019.16" width="2.83" height="4.78"/><rect class="cls-7" x="1002.42" y="1038.94" width="2.83" height="4.78"/><rect class="cls-7" x="1006.67" y="1038.94" width="2.83" height="4.78"/><rect class="cls-7" x="1002.42" y="1044.96" width="2.83" height="4.78"/><rect class="cls-7" x="1006.67" y="1044.96" width="2.83" height="4.78"/><rect class="cls-7" x="985.57" y="1038.94" width="2.83" height="4.78"/><rect class="cls-7" x="989.82" y="1038.94" width="2.83" height="4.78"/><rect class="cls-7" x="985.57" y="1044.96" width="2.83" height="4.78"/><rect class="cls-7" x="989.82" y="1044.96" width="2.83" height="4.78"/><rect class="cls-7" x="1036.12" y="1038.94" width="2.83" height="4.78"/><rect class="cls-7" x="1040.37" y="1038.94" width="2.83" height="4.78"/><rect class="cls-7" x="1036.12" y="1044.96" width="2.83" height="4.78"/><rect class="cls-7" x="1040.37" y="1044.96" width="2.83" height="4.78"/><rect class="cls-7" x="1069.83" y="1038.94" width="2.83" height="4.78"/><rect class="cls-7" x="1074.08" y="1038.94" width="2.83" height="4.78"/><rect class="cls-7" x="1069.83" y="1044.96" width="2.83" height="4.78"/><rect class="cls-7" x="1074.08" y="1044.96" width="2.83" height="4.78"/><rect class="cls-7" x="1103.53" y="1038.94" width="2.83" height="4.78"/><rect class="cls-7" x="1107.78" y="1038.94" width="2.83" height="4.78"/><rect class="cls-7" x="1103.53" y="1044.96" width="2.83" height="4.78"/><rect class="cls-7" x="1107.78" y="1044.96" width="2.83" height="4.78"/><rect class="cls-7" x="1086.68" y="1038.94" width="2.83" height="4.78"/><rect class="cls-7" x="1090.93" y="1038.94" width="2.83" height="4.78"/><rect class="cls-7" x="1086.68" y="1044.96" width="2.83" height="4.78"/><rect class="cls-7" x="1090.93" y="1044.96" width="2.83" height="4.78"/><rect class="cls-7" x="1052.97" y="1038.94" width="2.83" height="4.78"/><rect class="cls-7" x="1057.22" y="1038.94" width="2.83" height="4.78"/><rect class="cls-7" x="1052.97" y="1044.96" width="2.83" height="4.78"/><rect class="cls-7" x="1057.22" y="1044.96" width="2.83" height="4.78"/><rect class="cls-7" x="1019.27" y="1038.94" width="2.83" height="4.78"/><rect class="cls-7" x="1023.52" y="1038.94" width="2.83" height="4.78"/><rect class="cls-7" x="1019.27" y="1044.96" width="2.83" height="4.78"/><rect class="cls-7" x="1023.52" y="1044.96" width="2.83" height="4.78"/><rect class="cls-7" x="1002.42" y="1064.74" width="2.83" height="4.78"/><rect class="cls-7" x="1006.67" y="1064.74" width="2.83" height="4.78"/><rect class="cls-7" x="1002.42" y="1070.76" width="2.83" height="4.78"/><rect class="cls-7" x="1006.67" y="1070.76" width="2.83" height="4.78"/><rect class="cls-7" x="985.57" y="1064.74" width="2.83" height="4.78"/><rect class="cls-7" x="989.82" y="1064.74" width="2.83" height="4.78"/><rect class="cls-7" x="985.57" y="1070.76" width="2.83" height="4.78"/><rect class="cls-7" x="989.82" y="1070.76" width="2.83" height="4.78"/><rect class="cls-7" x="1036.12" y="1064.74" width="2.83" height="4.78"/><rect class="cls-7" x="1040.37" y="1064.74" width="2.83" height="4.78"/><rect class="cls-7" x="1036.12" y="1070.76" width="2.83" height="4.78"/><rect class="cls-7" x="1040.37" y="1070.76" width="2.83" height="4.78"/><rect class="cls-7" x="1069.83" y="1064.74" width="2.83" height="4.78"/><rect class="cls-7" x="1074.08" y="1064.74" width="2.83" height="4.78"/><rect class="cls-7" x="1069.83" y="1070.76" width="2.83" height="4.78"/><rect class="cls-7" x="1074.08" y="1070.76" width="2.83" height="4.78"/><rect class="cls-7" x="1103.53" y="1064.74" width="2.83" height="4.78"/><rect class="cls-7" x="1107.78" y="1064.74" width="2.83" height="4.78"/><rect class="cls-7" x="1103.53" y="1070.76" width="2.83" height="4.78"/><rect class="cls-7" x="1107.78" y="1070.76" width="2.83" height="4.78"/><rect class="cls-7" x="1086.68" y="1064.74" width="2.83" height="4.78"/><rect class="cls-7" x="1090.93" y="1064.74" width="2.83" height="4.78"/><rect class="cls-7" x="1086.68" y="1070.76" width="2.83" height="4.78"/><rect class="cls-7" x="1090.93" y="1070.76" width="2.83" height="4.78"/><rect class="cls-7" x="1052.97" y="1064.74" width="2.83" height="4.78"/><rect class="cls-7" x="1057.22" y="1064.74" width="2.83" height="4.78"/><rect class="cls-7" x="1052.97" y="1070.76" width="2.83" height="4.78"/><rect class="cls-7" x="1057.22" y="1070.76" width="2.83" height="4.78"/><rect class="cls-7" x="1019.27" y="1064.74" width="2.83" height="4.78"/><rect class="cls-7" x="1023.52" y="1064.74" width="2.83" height="4.78"/><rect class="cls-7" x="1019.27" y="1070.76" width="2.83" height="4.78"/><rect class="cls-7" x="1023.52" y="1070.76" width="2.83" height="4.78"/><rect class="cls-7" x="1002.42" y="1090.54" width="2.83" height="4.78"/><rect class="cls-7" x="1006.67" y="1090.54" width="2.83" height="4.78"/><rect class="cls-7" x="1002.42" y="1096.56" width="2.83" height="4.78"/><rect class="cls-7" x="1006.67" y="1096.56" width="2.83" height="4.78"/><rect class="cls-7" x="985.57" y="1090.54" width="2.83" height="4.78"/><rect class="cls-7" x="989.82" y="1090.54" width="2.83" height="4.78"/><rect class="cls-7" x="985.57" y="1096.56" width="2.83" height="4.78"/><rect class="cls-7" x="989.82" y="1096.56" width="2.83" height="4.78"/><rect class="cls-7" x="1036.12" y="1090.54" width="2.83" height="4.78"/><rect class="cls-7" x="1040.37" y="1090.54" width="2.83" height="4.78"/><rect class="cls-7" x="1036.12" y="1096.56" width="2.83" height="4.78"/><rect class="cls-7" x="1040.37" y="1096.56" width="2.83" height="4.78"/><rect class="cls-7" x="1069.83" y="1090.54" width="2.83" height="4.78"/><rect class="cls-7" x="1074.08" y="1090.54" width="2.83" height="4.78"/><rect class="cls-7" x="1069.83" y="1096.56" width="2.83" height="4.78"/><rect class="cls-7" x="1074.08" y="1096.56" width="2.83" height="4.78"/><rect class="cls-7" x="1103.53" y="1090.54" width="2.83" height="4.78"/><rect class="cls-7" x="1107.78" y="1090.54" width="2.83" height="4.78"/><rect class="cls-7" x="1103.53" y="1096.56" width="2.83" height="4.78"/><rect class="cls-7" x="1107.78" y="1096.56" width="2.83" height="4.78"/><rect class="cls-7" x="1086.68" y="1090.54" width="2.83" height="4.78"/><rect class="cls-7" x="1090.93" y="1090.54" width="2.83" height="4.78"/><rect class="cls-7" x="1086.68" y="1096.56" width="2.83" height="4.78"/><rect class="cls-7" x="1090.93" y="1096.56" width="2.83" height="4.78"/><rect class="cls-7" x="1052.97" y="1090.54" width="2.83" height="4.78"/><rect class="cls-7" x="1057.22" y="1090.54" width="2.83" height="4.78"/><rect class="cls-7" x="1052.97" y="1096.56" width="2.83" height="4.78"/><rect class="cls-7" x="1057.22" y="1096.56" width="2.83" height="4.78"/><rect class="cls-7" x="1019.27" y="1090.54" width="2.83" height="4.78"/><rect class="cls-7" x="1023.52" y="1090.54" width="2.83" height="4.78"/><rect class="cls-7" x="1019.27" y="1096.56" width="2.83" height="4.78"/><rect class="cls-7" x="1023.52" y="1096.56" width="2.83" height="4.78"/><rect class="cls-7" x="1002.42" y="1116.34" width="2.83" height="4.78"/><rect class="cls-7" x="1006.67" y="1116.34" width="2.83" height="4.78"/><rect class="cls-7" x="1002.42" y="1122.35" width="2.83" height="4.78"/><rect class="cls-7" x="1006.67" y="1122.35" width="2.83" height="4.78"/><rect class="cls-7" x="985.57" y="1116.34" width="2.83" height="4.78"/><rect class="cls-7" x="989.82" y="1116.34" width="2.83" height="4.78"/><rect class="cls-7" x="985.57" y="1122.35" width="2.83" height="4.78"/><rect class="cls-7" x="989.82" y="1122.35" width="2.83" height="4.78"/><rect class="cls-7" x="1036.12" y="1116.34" width="2.83" height="4.78"/><rect class="cls-7" x="1040.37" y="1116.34" width="2.83" height="4.78"/><rect class="cls-7" x="1036.12" y="1122.35" width="2.83" height="4.78"/><rect class="cls-7" x="1040.37" y="1122.35" width="2.83" height="4.78"/><rect class="cls-7" x="1069.83" y="1116.34" width="2.83" height="4.78"/><rect class="cls-7" x="1074.08" y="1116.34" width="2.83" height="4.78"/><rect class="cls-7" x="1069.83" y="1122.35" width="2.83" height="4.78"/><rect class="cls-7" x="1074.08" y="1122.35" width="2.83" height="4.78"/><rect class="cls-7" x="1103.53" y="1116.34" width="2.83" height="4.78"/><rect class="cls-7" x="1107.78" y="1116.34" width="2.83" height="4.78"/><rect class="cls-7" x="1103.53" y="1122.35" width="2.83" height="4.78"/><rect class="cls-7" x="1107.78" y="1122.35" width="2.83" height="4.78"/><rect class="cls-7" x="1086.68" y="1116.34" width="2.83" height="4.78"/><rect class="cls-7" x="1090.93" y="1116.34" width="2.83" height="4.78"/><rect class="cls-7" x="1086.68" y="1122.35" width="2.83" height="4.78"/><rect class="cls-7" x="1090.93" y="1122.35" width="2.83" height="4.78"/><rect class="cls-7" x="1052.97" y="1116.34" width="2.83" height="4.78"/><rect class="cls-7" x="1057.22" y="1116.34" width="2.83" height="4.78"/><rect class="cls-7" x="1052.97" y="1122.35" width="2.83" height="4.78"/><rect class="cls-7" x="1057.22" y="1122.35" width="2.83" height="4.78"/><rect class="cls-7" x="1019.27" y="1116.34" width="2.83" height="4.78"/><rect class="cls-7" x="1023.52" y="1116.34" width="2.83" height="4.78"/><rect class="cls-7" x="1019.27" y="1122.35" width="2.83" height="4.78"/><rect class="cls-7" x="1023.52" y="1122.35" width="2.83" height="4.78"/><rect class="cls-7" x="1002.42" y="1142.13" width="2.83" height="4.78"/><rect class="cls-7" x="1006.67" y="1142.13" width="2.83" height="4.78"/><rect class="cls-7" x="1002.42" y="1148.15" width="2.83" height="4.78"/><rect class="cls-7" x="1006.67" y="1148.15" width="2.83" height="4.78"/><rect class="cls-7" x="985.57" y="1142.13" width="2.83" height="4.78"/><rect class="cls-7" x="989.82" y="1142.13" width="2.83" height="4.78"/><rect class="cls-7" x="985.57" y="1148.15" width="2.83" height="4.78"/><rect class="cls-7" x="989.82" y="1148.15" width="2.83" height="4.78"/><rect class="cls-7" x="1036.12" y="1142.13" width="2.83" height="4.78"/><rect class="cls-7" x="1040.37" y="1142.13" width="2.83" height="4.78"/><rect class="cls-7" x="1036.12" y="1148.15" width="2.83" height="4.78"/><rect class="cls-7" x="1040.37" y="1148.15" width="2.83" height="4.78"/><rect class="cls-7" x="1069.83" y="1142.13" width="2.83" height="4.78"/><rect class="cls-7" x="1074.08" y="1142.13" width="2.83" height="4.78"/><rect class="cls-7" x="1069.83" y="1148.15" width="2.83" height="4.78"/><rect class="cls-7" x="1074.08" y="1148.15" width="2.83" height="4.78"/><rect class="cls-7" x="1103.53" y="1142.13" width="2.83" height="4.78"/><rect class="cls-7" x="1107.78" y="1142.13" width="2.83" height="4.78"/><rect class="cls-7" x="1103.53" y="1148.15" width="2.83" height="4.78"/><rect class="cls-7" x="1107.78" y="1148.15" width="2.83" height="4.78"/><rect class="cls-7" x="1086.68" y="1142.13" width="2.83" height="4.78"/><rect class="cls-7" x="1090.93" y="1142.13" width="2.83" height="4.78"/><rect class="cls-7" x="1086.68" y="1148.15" width="2.83" height="4.78"/><rect class="cls-7" x="1090.93" y="1148.15" width="2.83" height="4.78"/><rect class="cls-7" x="1052.97" y="1142.13" width="2.83" height="4.78"/><rect class="cls-7" x="1057.22" y="1142.13" width="2.83" height="4.78"/><rect class="cls-7" x="1052.97" y="1148.15" width="2.83" height="4.78"/><rect class="cls-7" x="1057.22" y="1148.15" width="2.83" height="4.78"/><rect class="cls-7" x="1019.27" y="1142.13" width="2.83" height="4.78"/><rect class="cls-7" x="1023.52" y="1142.13" width="2.83" height="4.78"/><rect class="cls-7" x="1019.27" y="1148.15" width="2.83" height="4.78"/><rect class="cls-7" x="1023.52" y="1148.15" width="2.83" height="4.78"/><rect class="cls-7" x="1002.42" y="1167.93" width="2.83" height="4.78"/><rect class="cls-7" x="1006.67" y="1167.93" width="2.83" height="4.78"/><rect class="cls-7" x="1002.42" y="1173.95" width="2.83" height="4.78"/><rect class="cls-7" x="1006.67" y="1173.95" width="2.83" height="4.78"/><rect class="cls-7" x="985.57" y="1167.93" width="2.83" height="4.78"/><rect class="cls-7" x="989.82" y="1167.93" width="2.83" height="4.78"/><rect class="cls-7" x="985.57" y="1173.95" width="2.83" height="4.78"/><rect class="cls-7" x="989.82" y="1173.95" width="2.83" height="4.78"/><rect class="cls-7" x="1036.12" y="1167.93" width="2.83" height="4.78"/><rect class="cls-7" x="1040.37" y="1167.93" width="2.83" height="4.78"/><rect class="cls-7" x="1036.12" y="1173.95" width="2.83" height="4.78"/><rect class="cls-7" x="1040.37" y="1173.95" width="2.83" height="4.78"/><rect class="cls-7" x="1069.83" y="1167.93" width="2.83" height="4.78"/><rect class="cls-7" x="1074.08" y="1167.93" width="2.83" height="4.78"/><rect class="cls-7" x="1069.83" y="1173.95" width="2.83" height="4.78"/><rect class="cls-7" x="1074.08" y="1173.95" width="2.83" height="4.78"/><rect class="cls-7" x="1103.53" y="1167.93" width="2.83" height="4.78"/><rect class="cls-7" x="1107.78" y="1167.93" width="2.83" height="4.78"/><rect class="cls-7" x="1103.53" y="1173.95" width="2.83" height="4.78"/><rect class="cls-7" x="1107.78" y="1173.95" width="2.83" height="4.78"/><rect class="cls-7" x="1086.68" y="1167.93" width="2.83" height="4.78"/><rect class="cls-7" x="1090.93" y="1167.93" width="2.83" height="4.78"/><rect class="cls-7" x="1086.68" y="1173.95" width="2.83" height="4.78"/><rect class="cls-7" x="1090.93" y="1173.95" width="2.83" height="4.78"/><rect class="cls-7" x="1052.97" y="1167.93" width="2.83" height="4.78"/><rect class="cls-7" x="1057.22" y="1167.93" width="2.83" height="4.78"/><rect class="cls-7" x="1052.97" y="1173.95" width="2.83" height="4.78"/><rect class="cls-7" x="1057.22" y="1173.95" width="2.83" height="4.78"/><rect class="cls-7" x="1019.27" y="1167.93" width="2.83" height="4.78"/><rect class="cls-7" x="1023.52" y="1167.93" width="2.83" height="4.78"/><rect class="cls-7" x="1019.27" y="1173.95" width="2.83" height="4.78"/><rect class="cls-7" x="1023.52" y="1173.95" width="2.83" height="4.78"/><rect class="cls-7" x="1002.42" y="1193.73" width="2.83" height="4.78"/><rect class="cls-7" x="1006.67" y="1193.73" width="2.83" height="4.78"/><rect class="cls-7" x="1002.42" y="1199.75" width="2.83" height="4.78"/><rect class="cls-7" x="1006.67" y="1199.75" width="2.83" height="4.78"/><rect class="cls-7" x="985.57" y="1193.73" width="2.83" height="4.78"/><rect class="cls-7" x="989.82" y="1193.73" width="2.83" height="4.78"/><rect class="cls-7" x="985.57" y="1199.75" width="2.83" height="4.78"/><rect class="cls-7" x="989.82" y="1199.75" width="2.83" height="4.78"/><rect class="cls-7" x="1036.12" y="1193.73" width="2.83" height="4.78"/><rect class="cls-7" x="1040.37" y="1193.73" width="2.83" height="4.78"/><rect class="cls-7" x="1036.12" y="1199.75" width="2.83" height="4.78"/><rect class="cls-7" x="1040.37" y="1199.75" width="2.83" height="4.78"/><rect class="cls-7" x="1069.83" y="1193.73" width="2.83" height="4.78"/><rect class="cls-7" x="1074.08" y="1193.73" width="2.83" height="4.78"/><rect class="cls-7" x="1069.83" y="1199.75" width="2.83" height="4.78"/><rect class="cls-7" x="1074.08" y="1199.75" width="2.83" height="4.78"/><rect class="cls-7" x="1103.53" y="1193.73" width="2.83" height="4.78"/><rect class="cls-7" x="1107.78" y="1193.73" width="2.83" height="4.78"/><rect class="cls-7" x="1103.53" y="1199.75" width="2.83" height="4.78"/><rect class="cls-7" x="1107.78" y="1199.75" width="2.83" height="4.78"/><rect class="cls-7" x="1086.68" y="1193.73" width="2.83" height="4.78"/><rect class="cls-7" x="1090.93" y="1193.73" width="2.83" height="4.78"/><rect class="cls-7" x="1086.68" y="1199.75" width="2.83" height="4.78"/><rect class="cls-7" x="1090.93" y="1199.75" width="2.83" height="4.78"/><rect class="cls-7" x="1052.97" y="1193.73" width="2.83" height="4.78"/><rect class="cls-7" x="1057.22" y="1193.73" width="2.83" height="4.78"/><rect class="cls-7" x="1052.97" y="1199.75" width="2.83" height="4.78"/><rect class="cls-7" x="1057.22" y="1199.75" width="2.83" height="4.78"/><rect class="cls-7" x="1019.27" y="1193.73" width="2.83" height="4.78"/><rect class="cls-7" x="1023.52" y="1193.73" width="2.83" height="4.78"/><rect class="cls-7" x="1019.27" y="1199.75" width="2.83" height="4.78"/><rect class="cls-7" x="1023.52" y="1199.75" width="2.83" height="4.78"/><rect class="cls-7" x="1002.42" y="1219.53" width="2.83" height="4.78"/><rect class="cls-7" x="1006.67" y="1219.53" width="2.83" height="4.78"/><rect class="cls-7" x="1002.42" y="1225.55" width="2.83" height="4.78"/><rect class="cls-7" x="1006.67" y="1225.55" width="2.83" height="4.78"/><rect class="cls-7" x="985.57" y="1219.53" width="2.83" height="4.78"/><rect class="cls-7" x="989.82" y="1219.53" width="2.83" height="4.78"/><rect class="cls-7" x="985.57" y="1225.55" width="2.83" height="4.78"/><rect class="cls-7" x="989.82" y="1225.55" width="2.83" height="4.78"/><rect class="cls-7" x="1036.12" y="1219.53" width="2.83" height="4.78"/><rect class="cls-7" x="1040.37" y="1219.53" width="2.83" height="4.78"/><rect class="cls-7" x="1036.12" y="1225.55" width="2.83" height="4.78"/><rect class="cls-7" x="1040.37" y="1225.55" width="2.83" height="4.78"/><rect class="cls-7" x="1069.83" y="1219.53" width="2.83" height="4.78"/><rect class="cls-7" x="1074.08" y="1219.53" width="2.83" height="4.78"/><rect class="cls-7" x="1069.83" y="1225.55" width="2.83" height="4.78"/><rect class="cls-7" x="1074.08" y="1225.55" width="2.83" height="4.78"/><rect class="cls-7" x="1103.53" y="1219.53" width="2.83" height="4.78"/><rect class="cls-7" x="1107.78" y="1219.53" width="2.83" height="4.78"/><rect class="cls-7" x="1103.53" y="1225.55" width="2.83" height="4.78"/><rect class="cls-7" x="1107.78" y="1225.55" width="2.83" height="4.78"/><rect class="cls-7" x="1086.68" y="1219.53" width="2.83" height="4.78"/><rect class="cls-7" x="1090.93" y="1219.53" width="2.83" height="4.78"/><rect class="cls-7" x="1086.68" y="1225.55" width="2.83" height="4.78"/><rect class="cls-7" x="1090.93" y="1225.55" width="2.83" height="4.78"/><rect class="cls-7" x="1052.97" y="1219.53" width="2.83" height="4.78"/><rect class="cls-7" x="1057.22" y="1219.53" width="2.83" height="4.78"/><rect class="cls-7" x="1052.97" y="1225.55" width="2.83" height="4.78"/><rect class="cls-7" x="1057.22" y="1225.55" width="2.83" height="4.78"/><rect class="cls-7" x="1019.27" y="1219.53" width="2.83" height="4.78"/><rect class="cls-7" x="1023.52" y="1219.53" width="2.83" height="4.78"/><rect class="cls-7" x="1019.27" y="1225.55" width="2.83" height="4.78"/><rect class="cls-7" x="1023.52" y="1225.55" width="2.83" height="4.78"/><rect class="cls-7" x="1002.42" y="1245.33" width="2.83" height="4.78"/><rect class="cls-7" x="1006.67" y="1245.33" width="2.83" height="4.78"/><rect class="cls-7" x="1002.42" y="1251.35" width="2.83" height="4.78"/><rect class="cls-7" x="1006.67" y="1251.35" width="2.83" height="4.78"/><rect class="cls-7" x="985.57" y="1245.33" width="2.83" height="4.78"/><rect class="cls-7" x="989.82" y="1245.33" width="2.83" height="4.78"/><rect class="cls-7" x="985.57" y="1251.35" width="2.83" height="4.78"/><rect class="cls-7" x="989.82" y="1251.35" width="2.83" height="4.78"/><rect class="cls-7" x="1036.12" y="1245.33" width="2.83" height="4.78"/><rect class="cls-7" x="1040.37" y="1245.33" width="2.83" height="4.78"/><rect class="cls-7" x="1036.12" y="1251.35" width="2.83" height="4.78"/><rect class="cls-7" x="1040.37" y="1251.35" width="2.83" height="4.78"/><rect class="cls-7" x="1069.83" y="1245.33" width="2.83" height="4.78"/><rect class="cls-7" x="1074.08" y="1245.33" width="2.83" height="4.78"/><rect class="cls-7" x="1069.83" y="1251.35" width="2.83" height="4.78"/><rect class="cls-7" x="1074.08" y="1251.35" width="2.83" height="4.78"/><rect class="cls-7" x="1103.53" y="1245.33" width="2.83" height="4.78"/><rect class="cls-7" x="1107.78" y="1245.33" width="2.83" height="4.78"/><rect class="cls-7" x="1103.53" y="1251.35" width="2.83" height="4.78"/><rect class="cls-7" x="1107.78" y="1251.35" width="2.83" height="4.78"/><rect class="cls-7" x="1086.68" y="1245.33" width="2.83" height="4.78"/><rect class="cls-7" x="1090.93" y="1245.33" width="2.83" height="4.78"/><rect class="cls-7" x="1086.68" y="1251.35" width="2.83" height="4.78"/><rect class="cls-7" x="1090.93" y="1251.35" width="2.83" height="4.78"/><rect class="cls-7" x="1052.97" y="1245.33" width="2.83" height="4.78"/><rect class="cls-7" x="1057.22" y="1245.33" width="2.83" height="4.78"/><rect class="cls-7" x="1052.97" y="1251.35" width="2.83" height="4.78"/><rect class="cls-7" x="1057.22" y="1251.35" width="2.83" height="4.78"/><rect class="cls-7" x="1019.27" y="1245.33" width="2.83" height="4.78"/><rect class="cls-7" x="1023.52" y="1245.33" width="2.83" height="4.78"/><rect class="cls-7" x="1019.27" y="1251.35" width="2.83" height="4.78"/><rect class="cls-7" x="1023.52" y="1251.35" width="2.83" height="4.78"/><rect class="cls-7" x="1002.42" y="1271.13" width="2.83" height="4.78"/><rect class="cls-7" x="1006.67" y="1271.13" width="2.83" height="4.78"/><rect class="cls-7" x="1002.42" y="1277.15" width="2.83" height="4.78"/><rect class="cls-7" x="1006.67" y="1277.15" width="2.83" height="4.78"/><rect class="cls-7" x="985.57" y="1271.13" width="2.83" height="4.78"/><rect class="cls-7" x="989.82" y="1271.13" width="2.83" height="4.78"/><rect class="cls-7" x="985.57" y="1277.15" width="2.83" height="4.78"/><rect class="cls-7" x="989.82" y="1277.15" width="2.83" height="4.78"/><rect class="cls-7" x="1036.12" y="1271.13" width="2.83" height="4.78"/><rect class="cls-7" x="1040.37" y="1271.13" width="2.83" height="4.78"/><rect class="cls-7" x="1036.12" y="1277.15" width="2.83" height="4.78"/><rect class="cls-7" x="1040.37" y="1277.15" width="2.83" height="4.78"/><rect class="cls-7" x="1069.83" y="1271.13" width="2.83" height="4.78"/><rect class="cls-7" x="1074.08" y="1271.13" width="2.83" height="4.78"/><rect class="cls-7" x="1069.83" y="1277.15" width="2.83" height="4.78"/><rect class="cls-7" x="1074.08" y="1277.15" width="2.83" height="4.78"/><rect class="cls-7" x="1103.53" y="1271.13" width="2.83" height="4.78"/><rect class="cls-7" x="1107.78" y="1271.13" width="2.83" height="4.78"/><rect class="cls-7" x="1103.53" y="1277.15" width="2.83" height="4.78"/><rect class="cls-7" x="1107.78" y="1277.15" width="2.83" height="4.78"/><rect class="cls-7" x="1086.68" y="1271.13" width="2.83" height="4.78"/><rect class="cls-7" x="1090.93" y="1271.13" width="2.83" height="4.78"/><rect class="cls-7" x="1086.68" y="1277.15" width="2.83" height="4.78"/><rect class="cls-7" x="1090.93" y="1277.15" width="2.83" height="4.78"/><rect class="cls-7" x="1052.97" y="1271.13" width="2.83" height="4.78"/><rect class="cls-7" x="1057.22" y="1271.13" width="2.83" height="4.78"/><rect class="cls-7" x="1052.97" y="1277.15" width="2.83" height="4.78"/><rect class="cls-7" x="1057.22" y="1277.15" width="2.83" height="4.78"/><rect class="cls-7" x="1019.27" y="1271.13" width="2.83" height="4.78"/><rect class="cls-7" x="1023.52" y="1271.13" width="2.83" height="4.78"/><rect class="cls-7" x="1019.27" y="1277.15" width="2.83" height="4.78"/><rect class="cls-7" x="1023.52" y="1277.15" width="2.83" height="4.78"/><rect class="cls-7" x="1002.42" y="1296.93" width="2.83" height="4.78"/><rect class="cls-7" x="1006.67" y="1296.93" width="2.83" height="4.78"/><rect class="cls-7" x="1002.42" y="1302.94" width="2.83" height="4.78"/><rect class="cls-7" x="1006.67" y="1302.94" width="2.83" height="4.78"/><rect class="cls-7" x="985.57" y="1296.93" width="2.83" height="4.78"/><rect class="cls-7" x="989.82" y="1296.93" width="2.83" height="4.78"/><rect class="cls-7" x="985.57" y="1302.94" width="2.83" height="4.78"/><rect class="cls-7" x="989.82" y="1302.94" width="2.83" height="4.78"/><rect class="cls-7" x="1036.12" y="1296.93" width="2.83" height="4.78"/><rect class="cls-7" x="1040.37" y="1296.93" width="2.83" height="4.78"/><rect class="cls-7" x="1036.12" y="1302.94" width="2.83" height="4.78"/><rect class="cls-7" x="1040.37" y="1302.94" width="2.83" height="4.78"/><rect class="cls-7" x="1069.83" y="1296.93" width="2.83" height="4.78"/><rect class="cls-7" x="1074.08" y="1296.93" width="2.83" height="4.78"/><rect class="cls-7" x="1069.83" y="1302.94" width="2.83" height="4.78"/><rect class="cls-7" x="1074.08" y="1302.94" width="2.83" height="4.78"/><rect class="cls-7" x="1103.53" y="1296.93" width="2.83" height="4.78"/><rect class="cls-7" x="1107.78" y="1296.93" width="2.83" height="4.78"/><rect class="cls-7" x="1103.53" y="1302.94" width="2.83" height="4.78"/><rect class="cls-7" x="1107.78" y="1302.94" width="2.83" height="4.78"/><rect class="cls-7" x="1086.68" y="1296.93" width="2.83" height="4.78"/><rect class="cls-7" x="1090.93" y="1296.93" width="2.83" height="4.78"/><rect class="cls-7" x="1086.68" y="1302.94" width="2.83" height="4.78"/><rect class="cls-7" x="1090.93" y="1302.94" width="2.83" height="4.78"/><rect class="cls-7" x="1052.97" y="1296.93" width="2.83" height="4.78"/><rect class="cls-7" x="1057.22" y="1296.93" width="2.83" height="4.78"/><rect class="cls-7" x="1052.97" y="1302.94" width="2.83" height="4.78"/><rect class="cls-7" x="1057.22" y="1302.94" width="2.83" height="4.78"/><rect class="cls-7" x="1019.27" y="1296.93" width="2.83" height="4.78"/><rect class="cls-7" x="1023.52" y="1296.93" width="2.83" height="4.78"/><rect class="cls-7" x="1019.27" y="1302.94" width="2.83" height="4.78"/><rect class="cls-7" x="1023.52" y="1302.94" width="2.83" height="4.78"/><rect class="cls-7" x="1002.42" y="1322.72" width="2.83" height="4.78"/><rect class="cls-7" x="1006.67" y="1322.72" width="2.83" height="4.78"/><rect class="cls-7" x="1002.42" y="1328.74" width="2.83" height="4.78"/><rect class="cls-7" x="1006.67" y="1328.74" width="2.83" height="4.78"/><rect class="cls-7" x="985.57" y="1322.72" width="2.83" height="4.78"/><rect class="cls-7" x="989.82" y="1322.72" width="2.83" height="4.78"/><rect class="cls-7" x="985.57" y="1328.74" width="2.83" height="4.78"/><rect class="cls-7" x="989.82" y="1328.74" width="2.83" height="4.78"/><rect class="cls-7" x="1036.12" y="1322.72" width="2.83" height="4.78"/><rect class="cls-7" x="1040.37" y="1322.72" width="2.83" height="4.78"/><rect class="cls-7" x="1036.12" y="1328.74" width="2.83" height="4.78"/><rect class="cls-7" x="1040.37" y="1328.74" width="2.83" height="4.78"/><rect class="cls-7" x="1069.83" y="1322.72" width="2.83" height="4.78"/><rect class="cls-7" x="1074.08" y="1322.72" width="2.83" height="4.78"/><rect class="cls-7" x="1069.83" y="1328.74" width="2.83" height="4.78"/><rect class="cls-7" x="1074.08" y="1328.74" width="2.83" height="4.78"/><rect class="cls-7" x="1103.53" y="1322.72" width="2.83" height="4.78"/><rect class="cls-7" x="1107.78" y="1322.72" width="2.83" height="4.78"/><rect class="cls-7" x="1103.53" y="1328.74" width="2.83" height="4.78"/><rect class="cls-7" x="1107.78" y="1328.74" width="2.83" height="4.78"/><rect class="cls-7" x="1086.68" y="1322.72" width="2.83" height="4.78"/><rect class="cls-7" x="1090.93" y="1322.72" width="2.83" height="4.78"/><rect class="cls-7" x="1086.68" y="1328.74" width="2.83" height="4.78"/><rect class="cls-7" x="1090.93" y="1328.74" width="2.83" height="4.78"/><rect class="cls-7" x="1052.97" y="1322.72" width="2.83" height="4.78"/><rect class="cls-7" x="1057.22" y="1322.72" width="2.83" height="4.78"/><rect class="cls-7" x="1052.97" y="1328.74" width="2.83" height="4.78"/><rect class="cls-7" x="1057.22" y="1328.74" width="2.83" height="4.78"/><rect class="cls-7" x="1019.27" y="1322.72" width="2.83" height="4.78"/><rect class="cls-7" x="1023.52" y="1322.72" width="2.83" height="4.78"/><rect class="cls-7" x="1019.27" y="1328.74" width="2.83" height="4.78"/><rect class="cls-7" x="1023.52" y="1328.74" width="2.83" height="4.78"/><rect class="cls-7" x="1002.42" y="1348.52" width="2.83" height="4.78"/><rect class="cls-7" x="1006.67" y="1348.52" width="2.83" height="4.78"/><rect class="cls-7" x="1002.42" y="1354.54" width="2.83" height="4.78"/><rect class="cls-7" x="1006.67" y="1354.54" width="2.83" height="4.78"/><rect class="cls-7" x="985.57" y="1348.52" width="2.83" height="4.78"/><rect class="cls-7" x="989.82" y="1348.52" width="2.83" height="4.78"/><rect class="cls-7" x="985.57" y="1354.54" width="2.83" height="4.78"/><rect class="cls-7" x="989.82" y="1354.54" width="2.83" height="4.78"/><rect class="cls-7" x="1036.12" y="1348.52" width="2.83" height="4.78"/><rect class="cls-7" x="1040.37" y="1348.52" width="2.83" height="4.78"/><rect class="cls-7" x="1036.12" y="1354.54" width="2.83" height="4.78"/><rect class="cls-7" x="1040.37" y="1354.54" width="2.83" height="4.78"/><rect class="cls-7" x="1069.83" y="1348.52" width="2.83" height="4.78"/><rect class="cls-7" x="1074.08" y="1348.52" width="2.83" height="4.78"/><rect class="cls-7" x="1069.83" y="1354.54" width="2.83" height="4.78"/><rect class="cls-7" x="1074.08" y="1354.54" width="2.83" height="4.78"/><rect class="cls-7" x="1103.53" y="1348.52" width="2.83" height="4.78"/><rect class="cls-7" x="1107.78" y="1348.52" width="2.83" height="4.78"/><rect class="cls-7" x="1103.53" y="1354.54" width="2.83" height="4.78"/><rect class="cls-7" x="1107.78" y="1354.54" width="2.83" height="4.78"/><rect class="cls-7" x="1086.68" y="1348.52" width="2.83" height="4.78"/><rect class="cls-7" x="1090.93" y="1348.52" width="2.83" height="4.78"/><rect class="cls-7" x="1086.68" y="1354.54" width="2.83" height="4.78"/><rect class="cls-7" x="1090.93" y="1354.54" width="2.83" height="4.78"/><rect class="cls-7" x="1052.97" y="1348.52" width="2.83" height="4.78"/><rect class="cls-7" x="1057.22" y="1348.52" width="2.83" height="4.78"/><rect class="cls-7" x="1052.97" y="1354.54" width="2.83" height="4.78"/><rect class="cls-7" x="1057.22" y="1354.54" width="2.83" height="4.78"/><rect class="cls-7" x="1019.27" y="1348.52" width="2.83" height="4.78"/><rect class="cls-7" x="1023.52" y="1348.52" width="2.83" height="4.78"/><rect class="cls-7" x="1019.27" y="1354.54" width="2.83" height="4.78"/><rect class="cls-7" x="1023.52" y="1354.54" width="2.83" height="4.78"/><rect class="cls-7" x="914.37" y="741.79" width="196.35" height="6.35"/><rect class="cls-6" x="911.41" y="738.76" width="202.35" height="6.35"/><rect class="cls-3" x="417.16" y="839.86" width="163.59" height="449.89"/><rect class="cls-1" x="447.01" y="872.64" width="14.08" height="70.98"/><rect class="cls-1" x="447.01" y="950.46" width="14.08" height="70.98"/><rect class="cls-1" x="447.01" y="1028.29" width="14.08" height="70.98"/><rect class="cls-1" x="447.01" y="1106.12" width="14.08" height="70.98"/><rect class="cls-1" x="447.01" y="1183.95" width="14.08" height="70.98"/><rect class="cls-1" x="476.89" y="872.64" width="14.08" height="70.98"/><rect class="cls-1" x="476.89" y="950.46" width="14.08" height="70.98"/><rect class="cls-1" x="476.89" y="1028.29" width="14.08" height="70.98"/><rect class="cls-1" x="476.89" y="1106.12" width="14.08" height="70.98"/><rect class="cls-1" x="476.89" y="1183.95" width="14.08" height="70.98"/><rect class="cls-1" x="506.77" y="872.64" width="14.08" height="70.98"/><rect class="cls-1" x="506.77" y="950.46" width="14.08" height="70.98"/><rect class="cls-1" x="506.77" y="1028.29" width="14.08" height="70.98"/><rect class="cls-1" x="506.77" y="1106.12" width="14.08" height="70.98"/><rect class="cls-1" x="506.77" y="1183.95" width="14.08" height="70.98"/><rect class="cls-1" x="536.66" y="872.64" width="14.08" height="70.98"/><rect class="cls-1" x="536.66" y="950.46" width="14.08" height="70.98"/><rect class="cls-1" x="536.66" y="1028.29" width="14.08" height="70.98"/><rect class="cls-1" x="536.66" y="1106.12" width="14.08" height="70.98"/><rect class="cls-1" x="536.66" y="1183.95" width="14.08" height="70.98"/><line class="cls-8" x1="417.16" y1="827.08" x2="580.76" y2="827.08"/><rect class="cls-3" x="2092.76" y="884.69" width="150.65" height="424"/><rect class="cls-1" x="2123.12" y="918.46" width="9.74" height="350.85"/><rect class="cls-1" x="2151.72" y="918.46" width="9.74" height="350.85"/><rect class="cls-1" x="2181.3" y="918.46" width="9.74" height="350.85"/><rect class="cls-1" x="2210.88" y="918.46" width="9.74" height="350.85"/><rect class="cls-6" x="2118.67" y="918.47" width="5" height="350.84"/><rect class="cls-6" x="2147.27" y="918.47" width="5" height="350.84"/><rect class="cls-6" x="2176.85" y="918.47" width="5" height="350.84"/><rect class="cls-6" x="2206.43" y="918.47" width="5" height="350.84"/><rect class="cls-6" x="1149.51" y="788.29" width="166.69" height="603.29"/><rect class="cls-5" x="1566.01" y="671.55" width="199.95" height="720.04"/><polygon class="cls-7" points="1665.99 671.55 1566.01 1130.22 1566.01 1391.59 1765.96 1391.59 1765.96 1130.22 1665.99 671.55"/><rect class="cls-4" x="1566.01" y="690.94" width="94.96" height="3.2"/><rect class="cls-4" x="1566.01" y="714.57" width="90.89" height="3.2"/><rect class="cls-4" x="1566.01" y="738.2" width="86.39" height="3.2"/><rect class="cls-4" x="1566.01" y="761.83" width="81.27" height="3.2"/><rect class="cls-4" x="1566.01" y="785.46" width="74.92" height="3.2"/><rect class="cls-4" x="1566.01" y="809.09" width="69.65" height="3.2"/><rect class="cls-4" x="1566.01" y="832.71" width="64.5" height="3.2"/><rect class="cls-4" x="1566.01" y="856.34" width="59.35" height="3.2"/><rect class="cls-4" x="1566.01" y="879.97" width="54.2" height="3.2"/><rect class="cls-4" x="1566.01" y="903.6" width="49.99" height="3.2"/><rect class="cls-4" x="1566.01" y="927.23" width="43.47" height="3.2"/><rect class="cls-4" x="1566.01" y="950.86" width="38.75" height="3.2"/><rect class="cls-4" x="1566.01" y="974.49" width="33.6" height="3.2"/><rect class="cls-4" x="1566.01" y="998.12" width="28.45" height="3.2"/><rect class="cls-4" x="1566.01" y="1021.74" width="23.3" height="3.2"/><rect class="cls-4" x="1566.01" y="1045.37" width="18.15" height="3.2"/><rect class="cls-4" x="1566.01" y="1069" width="13" height="3.2"/><rect class="cls-4" x="1566.01" y="1092.63" width="7.85" height="3.2"/><path class="cls-4" d="M1683.72,633.59l-15.79-72.47h5.89V558h-6.27V472.9h-3.12V558h-6.28v3.13h5.9l-15.8,72.47h-49.74v39.52h135V633.59ZM1664.43,670h-62.8v-6h62.8Zm0-9.09h-62.8v-6h62.8Zm0-9.1h-62.8v-6h62.8Zm0-9.1h-62.8v-6h62.8Zm0-9.1h-13l13-59.53Zm3.12-59.53,13,59.53h-13ZM1730.34,670h-62.79v-6h62.79Zm0-9.09h-62.79v-6h62.79Zm0-9.1h-62.79v-6h62.79Zm0-9.1h-62.79v-6h62.79Z"/><rect class="cls-5" x="1663.26" y="714.57" width="3.99" height="3.2"/><rect class="cls-5" x="1659.2" y="738.2" width="12.12" height="3.2"/><rect class="cls-5" x="1654.33" y="761.83" width="21.85" height="3.2"/><rect class="cls-5" x="1647.66" y="785.46" width="35.2" height="3.2"/><rect class="cls-5" x="1642.32" y="809.09" width="45.88" height="3.2"/><rect class="cls-5" x="1638.79" y="832.71" width="52.94" height="3.2"/><rect class="cls-5" x="1633.89" y="856.34" width="62.74" height="3.2"/><rect class="cls-5" x="1629.19" y="879.97" width="72.14" height="3.2"/><rect class="cls-5" x="1624.04" y="903.6" width="82.44" height="3.2"/><rect class="cls-5" x="1618.84" y="927.23" width="92.83" height="3.2"/><rect class="cls-5" x="1613.29" y="950.86" width="103.93" height="3.2"/><rect class="cls-5" x="1607.67" y="974.49" width="115.18" height="3.2"/><rect class="cls-5" x="1601.9" y="998.12" width="126.71" height="3.2"/><rect class="cls-5" x="1597.98" y="1021.74" width="134.55" height="3.2"/><rect class="cls-5" x="1592.45" y="1045.37" width="145.61" height="3.2"/><rect class="cls-5" x="1587.07" y="1069" width="156.38" height="3.2"/><rect class="cls-5" x="1581.92" y="1092.63" width="166.69" height="3.2"/><rect class="cls-5" x="1579.13" y="1116.46" width="175.19" height="3.2"/><rect class="cls-5" x="1579.01" y="1140.09" width="176.03" height="3.2"/><rect class="cls-5" x="1579.01" y="1163.72" width="176.03" height="3.2"/><rect class="cls-5" x="1579.01" y="1187.35" width="176.03" height="3.2"/><rect class="cls-5" x="1579.13" y="1210.98" width="175.9" height="3.2"/><rect class="cls-5" x="1579.01" y="1234.61" width="176.03" height="3.2"/><rect class="cls-5" x="1579.01" y="1258.24" width="176.03" height="3.2"/><rect class="cls-5" x="1579.01" y="1281.87" width="176.03" height="3.2"/><rect class="cls-5" x="1579.13" y="1305.49" width="175.9" height="3.2"/><rect class="cls-5" x="1579.01" y="1329.12" width="176.03" height="3.2"/><rect class="cls-5" x="1579.13" y="1352.75" width="175.9" height="3.2"/><path class="cls-1" d="M1566,670v3.2h98.68l20,91.78,0,.1,79.64,365.35v261.21h3.21V670Zm198.35,445.39-4.25-19.51h4.25Zm0-22.71h-4.95L1755,1072.2h9.4Zm0-23.63h-10.1l-4.45-20.43h14.55Zm0-23.63h-15.25l-4.45-20.42h19.7Zm0-23.63H1744l-4.45-20.42h24.85Zm0-23.62h-25.55l-4.45-20.43h30Zm0-23.63h-30.7l-4.45-20.43h35.15Zm0-23.63h-35.85l-4.46-20.43h40.31Zm0-23.63h-41l-4.46-20.43h45.46Zm0-23.63h-46.15l-4.46-20.43h50.61Zm0-23.63h-51.3l-4.46-20.43h55.76Zm0-23.63H1707.9l-4.45-20.42h60.91Zm0-23.63h-61.61l-4.45-20.42h66.06Zm0-23.62H1697.6l-4.45-20.43h71.21Zm0-23.63h-71.91L1688,765h76.36Zm0-23.63H1687.3l-4.45-20.43h81.51Zm0-23.63h-82.21l-4.45-20.43h86.66Zm0-23.63H1677l-4.45-20.43h91.81Zm0-23.63h-92.51L1668,673.15h96.39Z"/><polygon class="cls-1" points="1684.72 765.03 1684.7 765.03 1684.7 764.93 1684.72 765.03"/><rect class="cls-7" x="536.22" y="1130.22" width="336.78" height="261.36"/><rect class="cls-9" x="760.42" y="1147.73" width="104.33" height="8.8"/><rect class="cls-9" x="760.42" y="1165.48" width="104.33" height="8.8"/><rect class="cls-9" x="760.42" y="1183.24" width="104.33" height="8.8"/><rect class="cls-9" x="760.42" y="1200.99" width="104.33" height="8.8"/><rect class="cls-9" x="760.42" y="1218.75" width="104.33" height="8.8"/><rect class="cls-9" x="760.42" y="1236.51" width="104.33" height="8.8"/><rect class="cls-9" x="760.42" y="1254.26" width="104.33" height="8.8"/><rect class="cls-9" x="760.42" y="1272.02" width="104.33" height="8.8"/><rect class="cls-10" x="863.15" y="1147.73" width="3.2" height="8.8"/><rect class="cls-10" x="863.15" y="1165.48" width="3.2" height="8.8"/><rect class="cls-10" x="863.15" y="1183.24" width="3.2" height="8.8"/><rect class="cls-10" x="863.15" y="1200.99" width="3.2" height="8.8"/><rect class="cls-10" x="863.15" y="1218.75" width="3.2" height="8.8"/><rect class="cls-10" x="863.15" y="1236.51" width="3.2" height="8.8"/><rect class="cls-10" x="863.15" y="1254.26" width="3.2" height="8.8"/><rect class="cls-10" x="863.15" y="1272.02" width="3.2" height="8.8"/><rect class="cls-9" x="760.42" y="1289.73" width="104.33" height="8.8"/><rect class="cls-9" x="760.42" y="1307.48" width="104.33" height="8.8"/><rect class="cls-10" x="863.15" y="1289.73" width="3.2" height="8.8"/><rect class="cls-10" x="863.15" y="1307.48" width="3.2" height="8.8"/><rect class="cls-9" x="760.42" y="1324.51" width="104.33" height="8.8"/><rect class="cls-9" x="760.42" y="1342.26" width="104.33" height="8.8"/><rect class="cls-9" x="760.42" y="1360.02" width="104.33" height="8.8"/><rect class="cls-10" x="863.15" y="1324.51" width="3.2" height="8.8"/><rect class="cls-10" x="863.15" y="1342.26" width="3.2" height="8.8"/><rect class="cls-10" x="863.15" y="1360.02" width="3.2" height="8.8"/><rect class="cls-10" x="549.18" y="1147.73" width="185.51" height="8.8"/><rect class="cls-10" x="549.18" y="1165.48" width="185.51" height="8.8"/><rect class="cls-10" x="549.18" y="1183.24" width="185.51" height="8.8"/><rect class="cls-10" x="549.18" y="1200.99" width="185.51" height="8.8"/><rect class="cls-10" x="549.18" y="1218.75" width="185.51" height="8.8"/><rect class="cls-10" x="549.18" y="1236.51" width="185.51" height="8.8"/><rect class="cls-10" x="549.18" y="1254.26" width="185.51" height="8.8"/><rect class="cls-10" x="549.18" y="1272.02" width="185.51" height="8.8"/><rect class="cls-10" x="549.18" y="1289.73" width="185.51" height="8.8"/><rect class="cls-10" x="549.18" y="1307.48" width="185.51" height="8.8"/><rect class="cls-10" x="549.18" y="1325.16" width="185.51" height="8.8"/><rect class="cls-10" x="549.18" y="1342.92" width="185.51" height="8.8"/><rect class="cls-10" x="549.18" y="1360.68" width="185.51" height="8.8"/><rect class="cls-10" x="746.49" y="1130.22" width="4" height="259.4"/><rect class="cls-5" x="610.2" y="738.21" width="138.29" height="392.01"/><rect class="cls-6" x="748.49" y="738.21" width="63.31" height="392.56"/><rect class="cls-1" x="796.3" y="767.86" width="4" height="69.97"/><rect class="cls-1" x="796.3" y="846.78" width="4" height="86.32"/><rect class="cls-1" x="796.3" y="942.06" width="4" height="86.32"/><rect class="cls-1" x="796.3" y="1037.34" width="4" height="81.41"/><rect class="cls-1" x="784.2" y="767.86" width="4" height="69.97"/><rect class="cls-1" x="784.2" y="846.78" width="4" height="86.32"/><rect class="cls-1" x="784.2" y="942.06" width="4" height="86.32"/><rect class="cls-1" x="784.2" y="1037.34" width="4" height="81.41"/><rect class="cls-1" x="772.1" y="767.86" width="4" height="69.97"/><rect class="cls-1" x="772.1" y="846.78" width="4" height="86.32"/><rect class="cls-1" x="772.1" y="942.06" width="4" height="86.32"/><rect class="cls-1" x="772.1" y="1037.34" width="4" height="81.41"/><rect class="cls-1" x="760" y="767.86" width="4" height="69.97"/><rect class="cls-1" x="760" y="846.78" width="4" height="86.32"/><rect class="cls-1" x="760" y="942.06" width="4" height="86.32"/><rect class="cls-1" x="760" y="1037.34" width="4" height="81.41"/><rect class="cls-6" x="723.7" y="767.86" width="4" height="69.97"/><rect class="cls-6" x="723.7" y="846.78" width="4" height="86.32"/><rect class="cls-6" x="723.7" y="942.06" width="4" height="86.32"/><rect class="cls-6" x="723.7" y="1037.34" width="4" height="81.41"/><rect class="cls-6" x="711.61" y="767.86" width="4" height="69.97"/><rect class="cls-6" x="711.61" y="846.78" width="4" height="86.32"/><rect class="cls-6" x="711.61" y="942.06" width="4" height="86.32"/><rect class="cls-6" x="711.61" y="1037.34" width="4" height="81.41"/><rect class="cls-6" x="699.51" y="767.86" width="4" height="69.97"/><rect class="cls-6" x="699.51" y="846.78" width="4" height="86.32"/><rect class="cls-6" x="699.51" y="942.06" width="4" height="86.32"/><rect class="cls-6" x="699.51" y="1037.34" width="4" height="81.41"/><rect class="cls-6" x="687.41" y="767.86" width="4" height="69.97"/><rect class="cls-6" x="687.41" y="846.78" width="4" height="86.32"/><rect class="cls-6" x="687.41" y="942.06" width="4" height="86.32"/><rect class="cls-6" x="687.41" y="1037.34" width="4" height="81.41"/><rect class="cls-6" x="687.41" y="767.86" width="4" height="69.97"/><rect class="cls-6" x="687.41" y="846.78" width="4" height="86.32"/><rect class="cls-6" x="687.41" y="942.06" width="4" height="86.32"/><rect class="cls-6" x="687.41" y="1037.34" width="4" height="81.41"/><rect class="cls-6" x="675.31" y="767.86" width="4" height="69.97"/><rect class="cls-6" x="675.31" y="846.78" width="4" height="86.32"/><rect class="cls-6" x="675.31" y="942.06" width="4" height="86.32"/><rect class="cls-6" x="675.31" y="1037.34" width="4" height="81.41"/><rect class="cls-6" x="663.21" y="767.86" width="4" height="69.97"/><rect class="cls-6" x="663.21" y="846.78" width="4" height="86.32"/><rect class="cls-6" x="663.21" y="942.06" width="4" height="86.32"/><rect class="cls-6" x="663.21" y="1037.34" width="4" height="81.41"/><rect class="cls-6" x="651.11" y="767.86" width="4" height="69.97"/><rect class="cls-6" x="651.11" y="846.78" width="4" height="86.32"/><rect class="cls-6" x="651.11" y="942.06" width="4" height="86.32"/><rect class="cls-6" x="651.11" y="1037.34" width="4" height="81.41"/><rect class="cls-6" x="639.01" y="767.86" width="4" height="69.97"/><rect class="cls-6" x="639.01" y="846.78" width="4" height="86.32"/><rect class="cls-6" x="639.01" y="942.06" width="4" height="86.32"/><rect class="cls-6" x="639.01" y="1037.34" width="4" height="81.41"/><rect class="cls-6" x="626.92" y="767.86" width="4" height="69.97"/><rect class="cls-6" x="626.92" y="846.78" width="4" height="86.32"/><rect class="cls-6" x="626.92" y="942.06" width="4" height="86.32"/><rect class="cls-6" x="626.92" y="1037.34" width="4" height="81.41"/><rect class="cls-5" x="647.06" y="701.32" width="125.93" height="23.49"/><rect class="cls-4" x="707.53" y="644.25" width="5" height="41.76"/></g><g id="Trees"><path class="cls-11" d="M2259.45,1289.75v101.94H1728.22l70.84-61.13a168,168,0,0,1,109.78-40.81Z"/><path class="cls-12" d="M1891.66,1333.08h6a44.9,44.9,0,0,1,44.9,44.9v13.6a0,0,0,0,1,0,0h-95.83a0,0,0,0,1,0,0V1378a44.9,44.9,0,0,1,44.9-44.9Z"/><path class="cls-12" d="M1954.51,1318.92h136.09a0,0,0,0,1,0,0v17.22a55.72,55.72,0,0,1-55.72,55.72h-24.64a55.72,55.72,0,0,1-55.72-55.72v-17.22A0,0,0,0,1,1954.51,1318.92Z" transform="translate(4045.1 2710.79) rotate(-180)"/><path class="cls-12" d="M2259.38,1391.86H2140.13v-8.44a42.7,42.7,0,0,1,42.7-42.7h42a34.59,34.59,0,0,1,34.59,34.63Z"/><path class="cls-13" d="M2197.09,1390.87a8.22,8.22,0,0,1-.06,1H2089.74v-28h81.69a25.66,25.66,0,0,1,25.66,25.66Z"/><path class="cls-13" d="M1811.85,1391.86v-2.45a25.53,25.53,0,0,1,25.52-25.53h4.36a27,27,0,0,1,25.85,19.24h53.94a25.55,25.55,0,0,1,24.75-19.24h8.64a51.45,51.45,0,0,1,51-45h19.14a46.6,46.6,0,0,0-46.6,46.61,26.28,26.28,0,0,0,1.36,8.35,32.65,32.65,0,0,1,16.89-4.63c14.87,0,27.3,9.68,30.35,22.62Z"/><path class="cls-12" d="M1792,1391v.88H1634.48v-.25h-97.72l17.47-38.71a48.09,48.09,0,0,1,87.68,0l4.85,10.74c8.79-9,22.11-13.9,37-13.9,13.23,0,25.21,3.85,33.88,11a37.73,37.73,0,0,1,11.86,17.11h49.36A13.12,13.12,0,0,1,1792,1391Z"/><path class="cls-13" d="M1571.7,1390.63h0l-1,1h-55.87v-2.46a25.52,25.52,0,0,1,25.52-25.52h4.35A27,27,0,0,1,1571.7,1390.63Z"/><path class="cls-13" d="M1760.47,1354.6c0,15.08-7.59,27.54-17.43,29.47v7.8h-5.33v-7.81c-9.84-1.93-17.42-14.38-17.42-29.46,0-16.42,9-29.73,20.09-29.73S1760.47,1338.18,1760.47,1354.6Z"/><rect class="cls-13" x="1592.48" y="1363.64" width="5.34" height="28.22"/><rect class="cls-13" x="2056.27" y="1376.84" width="5.34" height="15.02"/><path class="cls-11" d="M994.37,1391.69H399.45V1289.75H766.51c50.84,0,100,14.48,138.49,40.81Z"/><path class="cls-12" d="M647.52,1389.93v1.76H399.45v-69.8h180A68,68,0,0,1,647.52,1389.93Z"/><path class="cls-12" d="M1051.85,1391.59H739.92a54,54,0,0,1-7.78-16.91A87.77,87.77,0,0,1,729,1351c0-27.66,11.8-50.08,26.35-50.08,14,0,25.43,20.72,26.3,46.9a49.74,49.74,0,0,1,35.71-15.23c19.76,0,36.9,11.74,45.32,28.87a49.33,49.33,0,0,1,60.59-1.41c3.51-24.73,20.58-43.49,41.12-43.49,21,0,38.42,19.66,41.34,45.24a33.42,33.42,0,0,1,8.14-1C1030.73,1360.81,1045.23,1373.42,1051.85,1391.59Z"/><path class="cls-13" d="M762,1391.59H633.75c2.58-13.59,9.6-25.21,19.16-32.61a39.87,39.87,0,0,1,24.52-8.63c16.56,0,31,10.62,38.76,26.4a38.27,38.27,0,0,1,12.83-2.21c1.06,0,2.09,0,3.12.14C743.91,1375.63,754.43,1382,762,1391.59Z"/><path class="cls-13" d="M880.59,1391.59a44.52,44.52,0,0,1,20.1-14.84,38.33,38.33,0,0,1,12.84-2.21c1.05,0,2.09,0,3.12.14a37.42,37.42,0,0,1,6.28,1q-.3-3.09-.3-6.27a69,69,0,0,1,.66-9.39c3.5-24.73,20.58-43.49,41.13-43.49,9.69,0,18.62,4.18,25.7,11.21a23.11,23.11,0,0,0-3.64-.27c-16.52,0-30.25,16-33.06,37.14a59,59,0,0,0-.54,8,58,58,0,0,0,3.09,18.89Z"/><path class="cls-13" d="M614.55,1391.69H399.45v-17.15H426.4V1348h5.34v26.56h30.77a45.92,45.92,0,0,1,43.69-31.68l31.4,0c23,0,61.06,21.14,73,40.83A47.84,47.84,0,0,1,614.55,1391.69Z"/></g><g id="Water"><rect class="cls-14" x="399.45" y="1391.59" width="1860" height="372.8"/><rect class="cls-3" x="399.45" y="1391.59" width="1860" height="6"/><rect class="cls-15" x="537.22" y="1500.31" width="427.2" height="5"/><rect class="cls-15" x="668.5" y="1524.51" width="225.41" height="5"/><rect class="cls-15" x="611.2" y="1524.51" width="22.55" height="5"/><rect class="cls-15" x="1595.15" y="1441.76" width="167.89" height="5"/><rect class="cls-15" x="1694.97" y="1463.49" width="324.6" height="5"/><rect class="cls-15" x="1825.98" y="1441.76" width="14.3" height="5"/><rect class="cls-16" x="1605.1" y="1622.33" width="281.37" height="5"/><polygon class="cls-3" points="821.37 1417.15 791.52 1417.15 821.31 1362.1 821.37 1417.15"/><rect class="cls-15" x="781.42" y="1417.82" width="74.15" height="5"/></g><g id="Statue"><rect class="cls-17" x="1081.38" y="1301.7" width="402.42" height="402.42"/><polygon class="cls-18" points="1542.87 1755.38 1022.31 1755.38 1081.38 1704.12 1483.8 1704.12 1542.87 1755.38"/><polygon class="cls-11" points="1513.34 1391.59 1051.85 1391.59 1081.38 1408.18 1483.8 1408.18 1513.34 1391.59"/><rect class="cls-18" x="1051.85" y="1347.33" width="461.49" height="44.25"/><rect class="cls-11" x="1178.47" y="1456.87" width="208.24" height="104.81"/><polygon class="cls-11" points="1483.8 1639.68 1081.38 1639.68 1064.56 1626.4 1500.62 1626.4 1483.8 1639.68"/><polygon class="cls-18" points="1081.38 1612.82 1483.8 1612.82 1500.62 1623.14 1064.56 1623.14 1081.38 1612.82"/><rect class="cls-3" x="1064.56" y="1622.83" width="436.07" height="4"/><rect class="cls-11" x="1154.97" y="1561.68" width="255.25" height="7.38"/><rect class="cls-11" x="1051.85" y="1341.98" width="18.76" height="49.61"/><rect class="cls-11" x="1494.58" y="1341.98" width="18.76" height="49.61"/><rect class="cls-11" x="1406.66" y="1341.98" width="18.76" height="49.61"/><rect class="cls-11" x="1317.69" y="1341.98" width="18.76" height="49.61"/><rect class="cls-11" x="1228.73" y="1341.98" width="18.76" height="49.61"/><rect class="cls-11" x="1139.77" y="1341.98" width="18.76" height="49.61"/><rect class="cls-11" x="1070.6" y="1352.29" width="423.98" height="4"/><rect class="cls-18" x="1154.97" y="1468.94" width="23.5" height="92.74"/><rect class="cls-18" x="1232.21" y="1468.94" width="23.51" height="92.74"/><rect class="cls-18" x="1386.71" y="1468.94" width="23.51" height="92.74"/><rect class="cls-18" x="1181.9" y="1543.24" width="46.89" height="18.44"/><rect class="cls-18" x="1259.15" y="1543.24" width="46.89" height="18.44"/><rect class="cls-18" x="1336.39" y="1543.24" width="46.89" height="18.44"/><rect class="cls-18" x="1309.46" y="1468.94" width="23.51" height="92.74"/><polygon class="cls-19" points="1178.47 1468.94 1154.97 1468.94 1150.99 1465.99 1182.45 1465.99 1178.47 1468.94"/><rect class="cls-18" x="1150.99" y="1458.96" width="31.46" height="7.03"/><polygon class="cls-19" points="1255.72 1468.94 1232.21 1468.94 1228.24 1465.99 1259.7 1465.99 1255.72 1468.94"/><rect class="cls-18" x="1228.24" y="1458.96" width="31.46" height="7.03"/><polygon class="cls-19" points="1332.97 1468.94 1309.46 1468.94 1305.48 1465.99 1336.94 1465.99 1332.97 1468.94"/><rect class="cls-18" x="1305.48" y="1458.96" width="31.46" height="7.03"/><polygon class="cls-19" points="1410.21 1468.94 1386.71 1468.94 1382.73 1465.99 1414.19 1465.99 1410.21 1468.94"/><rect class="cls-18" x="1382.73" y="1458.96" width="31.46" height="7.03"/><rect class="cls-18" x="1150.99" y="1444.26" width="263.2" height="12.61"/><rect class="cls-11" x="1161.32" y="1468.94" width="2" height="92.74"/><rect class="cls-11" x="1170.12" y="1468.94" width="2" height="92.74"/><rect class="cls-11" x="1238.96" y="1468.94" width="2" height="92.74"/><rect class="cls-11" x="1248.84" y="1468.94" width="2" height="93.1"/><rect class="cls-11" x="1315.64" y="1468.94" width="2" height="92.74"/><rect class="cls-11" x="1323.9" y="1468.94" width="2" height="92.74"/><rect class="cls-11" x="1393.29" y="1468.94" width="2" height="92.74"/><rect class="cls-11" x="1402.02" y="1468.94" width="2" height="92.74"/><rect class="cls-11" x="1150.99" y="1456.92" width="31.46" height="2"/><rect class="cls-11" x="1228.24" y="1456.92" width="31.46" height="2"/><rect class="cls-11" x="1305.48" y="1456.92" width="31.46" height="2"/><rect class="cls-11" x="1382.73" y="1456.92" width="31.46" height="2"/><rect class="cls-11" x="1181.9" y="1546.85" width="46.89" height="2"/><rect class="cls-11" x="1259.15" y="1546.85" width="46.89" height="2"/><rect class="cls-11" x="1336.39" y="1546.85" width="46.89" height="2"/><rect class="cls-11" x="1022.31" y="1755.38" width="520.56" height="9.01"/><polygon class="cls-18" points="1072.6 1391.59 1068.6 1391.59 1068.6 1343.98 1053.85 1343.98 1053.85 1391.59 1049.85 1391.59 1049.85 1339.98 1072.6 1339.98 1072.6 1391.59"/><polygon class="cls-18" points="1515.34 1391.59 1511.34 1391.59 1511.34 1343.98 1496.58 1343.98 1496.58 1391.59 1492.58 1391.59 1492.58 1339.98 1515.34 1339.98 1515.34 1391.59"/><polygon class="cls-18" points="1427.41 1391.59 1423.41 1391.59 1423.41 1343.98 1408.66 1343.98 1408.66 1391.59 1404.66 1391.59 1404.66 1339.98 1427.41 1339.98 1427.41 1391.59"/><polygon class="cls-18" points="1338.45 1391.59 1334.45 1391.59 1334.45 1343.98 1319.69 1343.98 1319.69 1391.59 1315.69 1391.59 1315.69 1339.98 1338.45 1339.98 1338.45 1391.59"/><polygon class="cls-18" points="1249.49 1391.59 1245.49 1391.59 1245.49 1343.98 1230.73 1343.98 1230.73 1391.59 1226.73 1391.59 1226.73 1339.98 1249.49 1339.98 1249.49 1391.59"/><polygon class="cls-18" points="1160.52 1391.59 1156.52 1391.59 1156.52 1343.98 1141.77 1343.98 1141.77 1391.59 1137.77 1391.59 1137.77 1339.98 1160.52 1339.98 1160.52 1391.59"/><rect class="cls-18" x="1433.09" y="1442.26" width="50.71" height="4"/><rect class="cls-18" x="1456.45" y="1408.18" width="4" height="36.08"/><rect class="cls-18" x="1196.53" y="1408.18" width="4" height="36.08"/><rect class="cls-18" x="1288.54" y="1576.73" width="4" height="36.08"/><rect class="cls-18" x="1374.15" y="1667.7" width="4" height="36.08"/><rect class="cls-18" x="1081.38" y="1501.37" width="62.14" height="4"/><rect class="cls-18" x="1081.38" y="1660.86" width="29.65" height="4"/><rect class="cls-18" x="1421.57" y="1557.26" width="62.23" height="4"/><rect class="cls-3" x="1081.38" y="1702.12" width="402.42" height="4"/><polygon class="cls-20" points="1342.6 629.87 1391.19 703.43 1363.92 744.73 1342.6 629.87"/><path class="cls-20" d="M1332,620.3a38.09,38.09,0,0,0-19.89-5.57h-31.23a71.07,71.07,0,0,1-54-24.81l-25.49-29.73L1218,533.44l85.39,5.19Z"/><path class="cls-21" d="M1177.94,243.74l-36,10.85v86a7.54,7.54,0,0,1-7.54,7.54h-1.49a7.54,7.54,0,0,1-7.54-7.54v-86l-36-10.85Z"/><path class="cls-11" d="M1161.6,181.19a24.91,24.91,0,0,1-24.91,24.91h-6.14A23.12,23.12,0,0,1,1107.44,183h0a23.1,23.1,0,0,1,13.6-21.06l5.42-2.45A71.61,71.61,0,0,0,1159,130a1.37,1.37,0,0,1,2.56.68Z"/><polygon class="cls-20" points="1177.94 219.77 1177.94 240.74 1089.37 240.74 1089.37 219.77 1118.02 219.77 1118.02 204.46 1149.28 204.46 1149.28 219.77 1177.94 219.77"/><rect class="cls-21" x="1089.28" y="216.31" width="2.13" height="27.42"/><rect class="cls-21" x="1175.88" y="216.31" width="2.13" height="27.42"/><rect class="cls-21" x="1169.22" y="216.31" width="2.13" height="27.42"/><rect class="cls-21" x="1162.56" y="216.31" width="2.13" height="27.42"/><rect class="cls-21" x="1155.9" y="216.31" width="2.13" height="27.42"/><rect class="cls-21" x="1149.23" y="216.31" width="2.13" height="27.42"/><rect class="cls-21" x="1142.57" y="216.31" width="2.13" height="27.42"/><rect class="cls-21" x="1135.91" y="216.31" width="2.13" height="27.42"/><rect class="cls-21" x="1129.25" y="216.31" width="2.13" height="27.42"/><rect class="cls-21" x="1122.59" y="216.31" width="2.13" height="27.42"/><rect class="cls-21" x="1115.92" y="216.31" width="2.13" height="27.42"/><rect class="cls-21" x="1109.26" y="216.31" width="2.13" height="27.42"/><rect class="cls-21" x="1102.6" y="216.31" width="2.13" height="27.42"/><rect class="cls-21" x="1095.94" y="216.31" width="2.13" height="27.42"/><path class="cls-22" d="M1180.32,243.89h-94.21a1.56,1.56,0,1,1,0-3.12h94.21a1.56,1.56,0,1,1,0,3.12Z"/><circle class="cls-22" cx="1090.34" cy="215.47" r="2.08"/><circle class="cls-22" cx="1097.01" cy="215.47" r="2.08"/><circle class="cls-22" cx="1103.67" cy="215.47" r="2.08"/><circle class="cls-22" cx="1110.33" cy="215.47" r="2.08"/><circle class="cls-22" cx="1116.99" cy="215.47" r="2.08"/><circle class="cls-22" cx="1123.65" cy="215.47" r="2.08"/><circle class="cls-22" cx="1130.31" cy="215.47" r="2.08"/><circle class="cls-22" cx="1136.98" cy="215.47" r="2.08"/><circle class="cls-22" cx="1143.64" cy="215.47" r="2.08"/><circle class="cls-22" cx="1150.3" cy="215.47" r="2.08"/><circle class="cls-22" cx="1156.96" cy="215.47" r="2.08"/><circle class="cls-22" cx="1163.62" cy="215.47" r="2.08"/><circle class="cls-22" cx="1170.29" cy="215.47" r="2.08"/><circle class="cls-22" cx="1176.95" cy="215.47" r="2.08"/><path class="cls-22" d="M1149.28,205.09H1118a1.57,1.57,0,0,1,0-3.13h31.26a1.57,1.57,0,1,1,0,3.13Z"/><rect class="cls-3" x="1150.82" y="161.98" width="3.13" height="21.43"/><path class="cls-16" d="M1228.26,532a12,12,0,0,1,7.75-11.39l15.69-5.94a15.93,15.93,0,0,0,10.07-12.35h.44a16,16,0,0,0,10.38,12.37l15.31,5.43a12,12,0,0,1,8,11.52l-.13,12.24h.14l9.82,70.82h6.4A38.24,38.24,0,0,1,1350,647.54l73.31,511-14.13-6.87,4,85.94a55.39,55.39,0,0,0,39.71,50.52l6,1.76H1124V1025.72l-28.26-35.51,31.33-35.14v-59L1087.77,858l46.08-48.54v-115l-6.53-4.25a28.86,28.86,0,0,1-13.13-24.2V638.69l-7.37-4.73a20.9,20.9,0,0,1-9.6-17.29l-.28-19.46a43.58,43.58,0,0,1,6.86-24.1l17.38-36.4V321.93l-12.54-13.43a13.94,13.94,0,0,1-3.74-9.49V275.67a14.2,14.2,0,0,1,5.23-11l11.55-9.43a3.83,3.83,0,0,1,6.26,3V285a7.6,7.6,0,0,1-2.57,5.7v49.38a8,8,0,0,0,16.09,0V286.39l-4.65-7.11a16.8,16.8,0,0,1-2.73-9.17,4.1,4.1,0,0,1,4.13-4.1,4,4,0,0,1,2.72,1.06l16.1,14.58a23.56,23.56,0,0,1,7.68,16.14l9.92,183.87,15.64,38a20.41,20.41,0,0,1,3.88,12v20l28.7,33.47,5.78-41.25Z"/><path class="cls-23" d="M1216.79,522.63a18.74,18.74,0,0,0,8.36,19.2l3.26,2.08-.15-11.88a12,12,0,0,1,7.75-11.39l15.69-5.94A15.94,15.94,0,0,0,1262,500.11v-.71h0a15.93,15.93,0,0,0,10.6,15.32l15.31,5.43a12,12,0,0,1,8,11.52l-.21,12.24,3.79-2.21a18.72,18.72,0,0,0,9-19.66l-1.58-7.06a19.3,19.3,0,0,0-10.3-13.07c-10.47-5.18-22.33-8.66-34.28-8.72-11.51-.06-23.11,3.1-33.3,8a19.24,19.24,0,0,0-10.44,13.26Z"/><path class="cls-20" d="M1270.39,455.48a57,57,0,0,0-16.36,0l8.18-63.71Z"/><path class="cls-20" d="M1318.75,404.64l-24.9,59.57a59,59,0,0,0-15.22-6.93Z"/><path class="cls-20" d="M1245.79,457.28a58.74,58.74,0,0,0-15.21,6.92l-24.91-59.56Z"/><path class="cls-20" d="M1226.63,467a.63.63,0,0,0-.13.11,1.49,1.49,0,0,0-.2.15,45.34,45.34,0,0,0-11.19,12.62l-42.31-32.25-.14-2.55,0-.67Z"/><path class="cls-20" d="M1360.77,440.67l-51.46,39.22A45.64,45.64,0,0,0,1297.79,467Z"/><polygon class="cls-20" points="1310.4 484.33 1379.43 493.19 1310.4 502.05 1310.4 484.33"/><rect class="cls-23" x="1310.11" y="496.88" width="69.6" height="3.13" transform="translate(-52.56 175.48) rotate(-7.32)"/><polygon class="cls-20" points="1214.03 484.33 1214.03 502.05 1181.27 497.85 1177.62 489 1214.03 484.33"/><path class="cls-20" d="M1314,496.45,1306.87,515a19.3,19.3,0,0,0-10.29-13.05c-10.47-5.18-22.33-8.66-34.28-8.72-11.51-.06-23.11,3.1-33.3,8a19.24,19.24,0,0,0-10.44,13.26l-.48,2.23-7.68-20.23c0-.5,0-1,0-1.51,5.21-19,27.64-34.14,51.77-34.14S1308.78,476,1314,494.94C1314,495.44,1314,496,1314,496.45Z"/><path class="cls-23" d="M1314,494.94c-5.21-19-27.66-34.14-51.78-34.14s-46.56,15.17-51.77,34.14c1.08-21.54,25.4-40.05,51.77-40.05S1312.9,473.4,1314,494.94Z"/><path class="cls-23" d="M1362.19,442.56,1310.46,482c-.47-.94-1-1.86-1.54-2.76l51.37-39.16Z"/><path class="cls-23" d="M1207.66,403l40.8,53.52c-1.1.27-2.18.56-3.25.9l-40-52.53Z"/><path class="cls-23" d="M1321.14,405.62,1296,465.7c-.86-.62-1.74-1.22-2.65-1.79l24.88-59.49Z"/><path class="cls-23" d="M1264.72,391.34l8.29,64.58c-1.07-.21-2.14-.38-3.22-.52l-8.17-63.66Z"/><path class="cls-23" d="M1228.91,465.22l-.06.15c-.76.53-1.5,1.07-2.22,1.64a.63.63,0,0,0-.13.11,1.49,1.49,0,0,0-.2.15l-.21.16-53.43-22.34,0-.67-.16-2.79Z"/><path class="cls-21" d="M1266.66,471.73l-.78,18.6c-2.44-.12-4.89-.12-7.33,0l-.62-18.65a4.28,4.28,0,0,1,4.24-4.42h.26A4.27,4.27,0,0,1,1266.66,471.73Z"/><path class="cls-21" d="M1280.89,474.63l-3.36,17.22q-3.19-.69-6.43-1.07l1.21-17.3a4.29,4.29,0,0,1,5.52-3.81l.09,0A4.32,4.32,0,0,1,1280.89,474.63Z"/><path class="cls-21" d="M1292.63,480.21l-4.42,14.73q-3.21-1.2-6.5-2.09l3.4-14.66a3.87,3.87,0,0,1,5.86-2.37l.07.05A3.84,3.84,0,0,1,1292.63,480.21Z"/><path class="cls-21" d="M1302.05,488.12l-5.18,10.69c-1.54-.82-3.11-1.57-4.69-2.27l4-11a3.17,3.17,0,0,1,5.27-1.1l0,.05A3.2,3.2,0,0,1,1302.05,488.12Z"/><path class="cls-21" d="M1308.51,496.92l-4,6.45-2.91-1.81-1.36-.84,3.47-6.5a2.74,2.74,0,0,1,4.8-.09l0,.05A2.72,2.72,0,0,1,1308.51,496.92Z"/><path class="cls-21" d="M1253.53,490.74c-2.15.25-4.3.59-6.43,1l-3.35-17.14a4.31,4.31,0,0,1,3-4.93l.09,0a4.28,4.28,0,0,1,5.53,3.81Z"/><path class="cls-21" d="M1242.92,492.76c-2.19.59-4.36,1.27-6.51,2.07L1232,480.26a3.84,3.84,0,0,1,1.57-4.33l.07-.05a3.86,3.86,0,0,1,5.87,2.35Z"/><path class="cls-21" d="M1232.42,496.42c-1.59.7-3.15,1.45-4.71,2.25l-5.07-10.46a3.19,3.19,0,0,1,.54-3.56l0,0a3.17,3.17,0,0,1,5.28,1.09Z"/><path class="cls-21" d="M1224.29,500.58c-.6.35-1.19.71-1.79,1.08l-2,1.29-4.13-6.11a2.65,2.65,0,0,1-.09-2.79l0-.05a2.62,2.62,0,0,1,4.56.09Z"/><path class="cls-16" d="M1305.83,610h0a27,27,0,0,1,33.59,4.52l1,1.07a7.85,7.85,0,0,1,.67,10l-6.76,9.39a12,12,0,0,1-18.93.67l-11.56-13.91A7.85,7.85,0,0,1,1305.83,610Z"/><polygon class="cls-24" points="1363.92 744.73 1399.44 690.93 1496.71 766.07 1391.19 934.77 1363.92 744.73"/><polygon class="cls-20" points="1391.19 934.77 1496.71 766.07 1504.56 772.21 1393.37 949.98 1391.19 934.77"/><path class="cls-16" d="M1451.06,810.12a6.22,6.22,0,0,1,10.27.24l9.74,15a25.68,25.68,0,0,1,0,27.93l-18.31,25.29a17.41,17.41,0,0,1-13.17,7.18l-6.31.34,10.8-17.19L1438,841.43a15.64,15.64,0,0,1,1.64-11Z"/><path class="cls-20" d="M1304.3,616.6h-23.41a72.89,72.89,0,0,1-55.38-25.46l-22.88-29.41a1.86,1.86,0,1,1,2.94-2.29l22.84,29.33a69.08,69.08,0,0,0,52.48,24.09h23.41Z"/><rect class="cls-20" x="1097.07" y="827.03" width="180.43" height="3.73" transform="translate(-222.37 1159.97) rotate(-48.14)"/><path class="cls-20" d="M1130.78,692.42l34.71-45.85a1.87,1.87,0,0,1,3,2.25l-34.62,45.66Z"/><path class="cls-20" d="M1111,636.65l17.37-18.8a1.86,1.86,0,1,1,2.74,2.53l-16.9,18.34Z"/><path class="cls-20" d="M1196.57,554.52,1174.71,582a1.86,1.86,0,1,1-2.92-2.32l22.36-28Z"/><polygon class="cls-20" points="1354.94 1122.27 1424.13 1156.86 1422.46 1160.2 1365.79 1131.87 1365.79 1289.88 1362.06 1289.88 1362.06 1130.01 1350.56 1124.26 1354.94 1122.27"/><path class="cls-20" d="M1297.57,527.19a13.84,13.84,0,0,0-8.41-8.39L1273.22,513a14,14,0,0,1-9.34-12.47c0-.26,0-.51,0-.77v-.28a1.87,1.87,0,0,0-1.83-1.91h0a1.87,1.87,0,0,0-1.86,1.83h0v.72c0,.14,0,.27,0,.41a13.89,13.89,0,0,1-9,12.45l-16.27,5.95a13.94,13.94,0,0,0-9,13.16.76.76,0,0,0,0,.15l1.39,15,.65,4.13a32.29,32.29,0,0,0,32,27.35h5.57a32.29,32.29,0,0,0,32-27.2.86.86,0,0,0,0-.17c0-.06,0-.12,0-.19l.83-19A13.93,13.93,0,0,0,1297.57,527.19Zm-32.08,47.72h-5.57a28.57,28.57,0,0,1-28.35-24.2l-.62-3.89v0l-1.39-14.85a10.18,10.18,0,0,1,6.53-9.54l16.27-5.95a17.67,17.67,0,0,0,9.65-8.73,17.8,17.8,0,0,0,9.94,8.76l16,5.85a10.12,10.12,0,0,1,6.75,9.68l-.82,18.79A28.58,28.58,0,0,1,1265.49,574.91Z"/><path class="cls-20" d="M1255.76,547.18l-.17-11.6a9.6,9.6,0,0,0-9.56-9.42h-8.64v-3.73H1246a13.34,13.34,0,0,1,13.29,13.09l.18,11.6Z"/><rect class="cls-20" x="1267.84" y="522.43" width="17.17" height="3.73"/><path class="cls-20" d="M1268.46,555.66a1.9,1.9,0,0,1-1.32-.54l-1.19-1.19a1.63,1.63,0,0,0-2.31,0l-.89.88a1.86,1.86,0,0,1-2.64,0l-.9-.89a1.63,1.63,0,0,0-2.31,0l-1.12,1.12a1.87,1.87,0,1,1-2.64-2.64l1.12-1.12a5.39,5.39,0,0,1,7.17-.38,5.36,5.36,0,0,1,7.16.38l1.19,1.2a1.86,1.86,0,0,1-1.32,3.18Z"/><path class="cls-20" d="M1265.29,561h-7.66a1.87,1.87,0,1,1,0-3.73h7.66a1.87,1.87,0,1,1,0,3.73Z"/><rect class="cls-23" x="1112.02" y="1289.88" width="358.86" height="11.97"/><rect class="cls-23" x="1058.26" y="907.52" width="210.8" height="4.17" transform="translate(-281.73 1213.44) rotate(-49.89)"/><polygon class="cls-23" points="1130.74 692.45 1127.32 690.23 1179.35 621.76 1182.67 624.29 1130.74 692.45"/><path class="cls-23" d="M1178.74,491.66c-1.54,22.77-11.11,48.08-23.85,63.28l-34.51,40.5-.06.07c-3.59,4.33-8.68,6.89-13.55,6.89q-.6,0-1.2-.06a11.73,11.73,0,0,1-8.62-4.77,57.15,57.15,0,0,1,.35-6.87l0,0c3.91,7.27,6.73,7.17,8.62,7.34,3.67.33,7.7-1.51,10.67-4.82l1-49,3.59-7.53-.2,51.44,30.65-36c14-16.73,24.08-46.42,23-70.44Z"/><path class="cls-23" d="M1341.69,629.66a1.93,1.93,0,0,0-.3-.88l1.42-2a10,10,0,0,0-.86-12.65l-1-1.08a28.72,28.72,0,0,0-11.42-7.37l-23-71.33a18.18,18.18,0,0,1-3,4.16l21.23,65.93a29.51,29.51,0,0,0-5-.42,28.93,28.93,0,0,0-15,4.17,10,10,0,0,0-4.65,6.86,9.55,9.55,0,0,0,0,3.2L1086.22,856.61l3.1,2.79,212.54-236.85c.12.18.26.36.4.53l11.56,13.9a14,14,0,0,0,10.8,5.07h.55v92.31a2.14,2.14,0,0,0,4.27,0V641.21a14,14,0,0,0,6.61-5l1.76-2.45,46.62,471-170.59,80.06,36.68-352.56-4.14-.43-37,355.84v0a2.18,2.18,0,0,0-.1.81,2.14,2.14,0,0,0,1.53,1.88l74.85,21.94L1123.14,1288l1.76,3.78,167.15-77.88h0l.4-.19.38-.17,0,0a2.09,2.09,0,0,0,.77-1.1l0-.13V1152l93.95-44.09a2.13,2.13,0,0,0,1.22-2.14Zm-2.27-5.29-6.76,9.4a9.74,9.74,0,0,1-5.4,3.76,7.48,7.48,0,0,1-.82.18,8.82,8.82,0,0,1-1.46.17,9.79,9.79,0,0,1-8-3.57l-11.56-13.9a5.78,5.78,0,0,1,1.45-8.63A25,25,0,0,1,1326.2,609a25.11,25.11,0,0,1,11.71,6.91l1,1.08A5.78,5.78,0,0,1,1339.42,624.37ZM1289.5,1209l-72.12-21.13L1289.5,1154Z"/><rect class="cls-23" x="1169.59" y="732.22" width="88.87" height="4.27" transform="translate(-143.88 1145.73) rotate(-48.02)"/><rect class="cls-21" x="1114.27" y="291.32" width="18.47" height="3.2" transform="translate(97.42 836.25) rotate(-42.51)"/></g></svg>