<svg id="Слой_1" data-name="Слой 1" xmlns="http://www.w3.org/2000/svg" xmlns:xlink="http://www.w3.org/1999/xlink" viewBox="0 0 2660 2000"><defs><style>.cls-1{fill:url(#Безымянный_градиент_29);}.cls-2{fill:#c49400;}.cls-19,.cls-3{fill:#f29b9f;}.cls-4{fill:url(#Безымянный_градиент_195);}.cls-10,.cls-12,.cls-14,.cls-15,.cls-17,.cls-18,.cls-20,.cls-21,.cls-22,.cls-23,.cls-25,.cls-26,.cls-5,.cls-6{fill:none;}.cls-10,.cls-17,.cls-21,.cls-22,.cls-23,.cls-5,.cls-6{stroke:#fff;}.cls-10,.cls-14,.cls-15,.cls-25,.cls-26,.cls-5,.cls-6{stroke-linecap:round;}.cls-10,.cls-12,.cls-13,.cls-14,.cls-15,.cls-17,.cls-18,.cls-20,.cls-21,.cls-22,.cls-23,.cls-25,.cls-26,.cls-5,.cls-6{stroke-miterlimit:10;}.cls-25,.cls-5{stroke-width:4px;}.cls-6{stroke-width:3.5px;}.cls-7{fill:#008187;}.cls-8{fill:#f7c5c1;}.cls-13,.cls-9{fill:#fff;}.cls-10,.cls-14,.cls-18{stroke-width:3px;}.cls-11{fill:#f1e5e4;}.cls-12,.cls-13,.cls-18{stroke:#f1e5e4;}.cls-12,.cls-20{stroke-width:2px;}.cls-13{stroke-width:2.06px;}.cls-14,.cls-15{stroke:#008187;}.cls-15{stroke-width:2.5px;}.cls-16{fill:#f5848a;}.cls-19{opacity:0.6;}.cls-20{stroke:#f7c5c1;}.cls-21,.cls-26{stroke-width:5px;}.cls-22{stroke-width:5.75px;}.cls-23{stroke-width:5.13px;}.cls-24{fill:#f6d7d4;}.cls-25,.cls-26{stroke:#875e00;}</style><linearGradient id="Безымянный_градиент_29" x1="1330" y1="221.57" x2="1330" y2="1590.46" gradientUnits="userSpaceOnUse"><stop offset="0" stop-color="#ffc1b9"/><stop offset="0.28" stop-color="#ffd2c0"/><stop offset="0.71" stop-color="#ffe6c9"/><stop offset="1" stop-color="#ffedcc"/></linearGradient><linearGradient id="Безымянный_градиент_195" x1="1337.57" y1="2167.81" x2="1337.57" y2="1157.3" gradientUnits="userSpaceOnUse"><stop offset="0.33" stop-color="#008187"/><stop offset="0.49" stop-color="#00aaa8"/><stop offset="0.65" stop-color="#00cbc3"/><stop offset="0.79" stop-color="#00dfd4"/><stop offset="0.88" stop-color="#00e6da"/></linearGradient></defs><rect id="Background" class="cls-1" x="400" y="300" width="1860" height="1400"/><rect id="Grass" class="cls-2" x="400" y="1307.03" width="1860" height="392.97"/><g id="Fountain"><polygon class="cls-3" points="1928.79 1700 731.22 1700 1215.37 1307.03 1444.45 1307.03 1928.79 1700"/><polygon class="cls-4" points="1770 1700 905.13 1700 1244.1 1317.03 1416.29 1317.03 1770 1700"/><line class="cls-5" x1="1456.23" y1="1618.45" x2="1256.79" y2="1618.45"/><line class="cls-5" x1="1607.45" y1="1618.45" x2="1495.73" y2="1618.45"/><line class="cls-5" x1="1513.06" y1="1633.84" x2="1345.82" y2="1633.84"/><line class="cls-5" x1="1323.77" y1="1633.84" x2="1317.17" y2="1633.84"/><line class="cls-5" x1="1295.23" y1="1472.97" x2="1230.28" y2="1472.97"/><line class="cls-5" x1="1211.43" y1="1472.97" x2="1208.8" y2="1472.97"/><line class="cls-5" x1="1232.51" y1="1460.35" x2="1178.7" y2="1460.35"/><line class="cls-5" x1="1408.7" y1="1460.35" x2="1252.8" y2="1460.35"/><line class="cls-6" x1="1340.59" y1="1346.59" x2="1305.1" y2="1346.59"/><line class="cls-6" x1="1366.01" y1="1346.59" x2="1361.41" y2="1346.59"/><line class="cls-6" x1="1387.53" y1="1333.97" x2="1286.07" y2="1333.97"/><polygon class="cls-7" points="1247.22 1309.72 1247.22 1317.27 908.47 1700 901.34 1700 1245.17 1312.03 1247.22 1309.72"/><polygon class="cls-7" points="1773.4 1700 1766.59 1700 1412.9 1317.04 1412.9 1309.67 1415.08 1312.03 1773.4 1700"/><rect class="cls-2" x="1247.22" y="1312.03" width="165.67" height="5"/><polygon class="cls-8" points="1935.81 1700 1927.81 1700 1758.99 1564.96 1648.68 1564.96 1644.06 1559.96 1752.74 1559.96 1625.13 1457.89 1549.79 1457.89 1545.29 1453.01 1545.29 1452.89 1618.88 1452.89 1543.46 1392.56 1489.46 1392.56 1484.84 1387.56 1537.21 1387.56 1485.26 1346.01 1446.46 1346.01 1441.85 1341.01 1479.01 1341.01 1442.78 1312.03 1217.02 1312.03 1180.8 1341.01 1219.49 1341.01 1215.06 1346.01 1174.56 1346.01 1122.63 1387.56 1178.23 1387.56 1173.8 1392.56 1116.39 1392.56 1040.99 1452.89 1120.34 1452.89 1115.9 1457.89 1034.74 1457.89 907.19 1559.96 1025.45 1559.96 1021.02 1564.96 900.94 1564.96 732.19 1700 724.19 1700 1114.33 1387.8 1114.33 1387.56 1114.63 1387.56 1215.13 1307.14 1215.13 1307.03 1444.6 1307.03 1444.6 1307.09 1626.88 1452.89 1627.31 1452.89 1627.31 1453.24 1935.81 1700"/></g><path id="Bird" class="cls-9" d="M1752.2,387.15v5a18,18,0,0,0-18,18h-5a18,18,0,0,0-18-18v-5a23,23,0,0,1,20.48,12.58A23,23,0,0,1,1752.2,387.15Z"/><g id="Taj_Mahal"><polygon class="cls-9" points="743.31 745.08 697.91 745.08 679.77 1202.83 761.46 1202.83 743.31 745.08"/><rect class="cls-9" x="697.65" y="710.9" width="46.09" height="34.18"/><path class="cls-9" d="M719.17,676.72h2.89a21.6,21.6,0,0,1,21.6,21.6V710.9a0,0,0,0,1,0,0H697.57a0,0,0,0,1,0,0V698.31A21.6,21.6,0,0,1,719.17,676.72Z"/><polygon class="cls-3" points="688.84 755.63 752.39 755.63 743.74 761.14 697.49 761.14 688.84 755.63"/><rect class="cls-9" x="688.84" y="745.08" width="63.55" height="10.55"/><polygon class="cls-3" points="683.27 899.21 758.32 899.21 749.87 906.32 691.72 906.32 683.27 899.21"/><rect class="cls-9" x="683.27" y="887.47" width="75.05" height="11.74"/><polygon class="cls-3" points="678.49 1044.32 762.57 1044.32 755.2 1051.5 685.88 1051.5 678.49 1044.32"/><rect class="cls-9" x="678.49" y="1032.58" width="84.08" height="11.74"/><line class="cls-10" x1="720.61" y1="676.72" x2="720.61" y2="652.13"/><path class="cls-8" d="M720.37,721.6h.49a3.67,3.67,0,0,1,3.67,3.67v17.89a0,0,0,0,1,0,0h-7.84a0,0,0,0,1,0,0V725.28A3.67,3.67,0,0,1,720.37,721.6Z"/><path class="cls-8" d="M733.34,721.6h.49a3.67,3.67,0,0,1,3.67,3.67v17.89a0,0,0,0,1,0,0h-7.84a0,0,0,0,1,0,0V725.28A3.67,3.67,0,0,1,733.34,721.6Z"/><path class="cls-8" d="M707.4,721.6h.49a3.67,3.67,0,0,1,3.67,3.67v17.89a0,0,0,0,1,0,0h-7.84a0,0,0,0,1,0,0V725.28A3.67,3.67,0,0,1,707.4,721.6Z"/><path class="cls-3" d="M711.56,725.53V730a3.89,3.89,0,0,0-3.92-3.92,3.91,3.91,0,0,0-3.91,3.92v-4.42a3.92,3.92,0,0,1,6.69-2.78A4,4,0,0,1,711.56,725.53Z"/><path class="cls-3" d="M724.53,725.53V730a3.92,3.92,0,1,0-7.83,0v-4.42a3.92,3.92,0,1,1,7.83,0Z"/><path class="cls-3" d="M737.51,725.53V730a3.92,3.92,0,1,0-7.84,0v-4.42a3.92,3.92,0,1,1,7.84,0Z"/><rect class="cls-3" x="697.65" y="710.9" width="46.08" height="4.27"/><rect class="cls-9" x="688.84" y="704.85" width="63.55" height="6.05"/><polygon class="cls-9" points="868.69 839.33 832.64 839.33 823.04 1202.83 878.3 1202.83 868.69 839.33"/><rect class="cls-9" x="832.43" y="812.18" width="36.6" height="27.14"/><path class="cls-9" d="M869,803.31A18.27,18.27,0,0,0,850.7,785h0a18.27,18.27,0,0,0-18.27,18.27Z"/><polygon class="cls-8" points="825.44 847.18 875.9 847.18 869.03 852.08 832.31 852.08 825.44 847.18"/><rect class="cls-9" x="825.44" y="839.33" width="50.46" height="7.86"/><polygon class="cls-8" points="823.04 961.67 878.3 961.67 872.08 967.37 829.26 967.37 823.04 961.67"/><rect class="cls-9" x="823.04" y="953.14" width="55.27" height="8.54"/><polygon class="cls-8" points="821.01 1076.64 880.32 1076.64 875.13 1082.65 826.22 1082.65 821.01 1076.64"/><rect class="cls-9" x="821.01" y="1068.1" width="59.31" height="8.54"/><rect class="cls-8" x="832.43" y="812.18" width="36.6" height="3.79"/><line class="cls-10" x1="850.67" y1="785.04" x2="850.67" y2="765.51"/><path class="cls-8" d="M850.64,822H851a2.72,2.72,0,0,1,2.72,2.72v13.25a0,0,0,0,1,0,0h-5.81a0,0,0,0,1,0,0V824.67A2.72,2.72,0,0,1,850.64,822Z"/><path class="cls-8" d="M860.92,822h.36a2.72,2.72,0,0,1,2.72,2.72v13.25a0,0,0,0,1,0,0H858.2a0,0,0,0,1,0,0V824.67A2.72,2.72,0,0,1,860.92,822Z"/><path class="cls-8" d="M840.18,822h.36a2.72,2.72,0,0,1,2.72,2.72v13.25a0,0,0,0,1,0,0h-5.81a0,0,0,0,1,0,0V824.67A2.72,2.72,0,0,1,840.18,822Z"/><path class="cls-3" d="M843.27,824.85v3.57a2.85,2.85,0,0,0-.86-2.06,2.91,2.91,0,0,0-5,2.06v-3.57a2.9,2.9,0,0,1,2.91-2.9,2.94,2.94,0,0,1,2.91,2.9Z"/><path class="cls-3" d="M853.72,824.85v3.57a2.91,2.91,0,0,0-5.81,0v-3.57a2.9,2.9,0,0,1,2.91-2.9,2.92,2.92,0,0,1,2.9,2.9Z"/><path class="cls-3" d="M864,824.85v3.57a2.9,2.9,0,0,0-2.9-2.9,2.9,2.9,0,0,0-2.92,2.9v-3.57a2.91,2.91,0,0,1,2.92-2.9,2.94,2.94,0,0,1,2.9,2.9Z"/><rect class="cls-9" x="826.13" y="807.91" width="49.08" height="4.27"/><polygon class="cls-9" points="1914.14 745.08 1959.54 745.08 1980.71 1202.83 1892.97 1202.83 1914.14 745.08"/><polygon class="cls-3" points="1968.61 755.63 1905.07 755.63 1913.71 761.14 1959.96 761.14 1968.61 755.63"/><polygon class="cls-3" points="1976.07 899.21 1898.27 899.21 1907.03 906.32 1967.31 906.32 1976.07 899.21"/><rect class="cls-9" x="1898.27" y="887.47" width="77.8" height="11.74" transform="translate(3874.34 1786.68) rotate(-180)"/><polygon class="cls-3" points="1980.71 1044.32 1892.97 1044.32 1899.97 1051.5 1973.71 1051.5 1980.71 1044.32"/><rect class="cls-9" x="1892.97" y="1032.58" width="87.74" height="11.74" transform="translate(3873.68 2076.9) rotate(-180)"/><rect class="cls-9" x="1913.88" y="710.9" width="46.09" height="34.18"/><path class="cls-9" d="M1935.39,676.72h2.89a21.6,21.6,0,0,1,21.6,21.6V710.9a0,0,0,0,1,0,0H1913.8a0,0,0,0,1,0,0V698.31a21.6,21.6,0,0,1,21.6-21.6Z"/><rect class="cls-9" x="1905.07" y="745.08" width="63.55" height="10.55"/><line class="cls-10" x1="1936.84" y1="676.72" x2="1936.84" y2="652.13"/><path class="cls-8" d="M1936.59,721.6h.49a3.67,3.67,0,0,1,3.67,3.67v17.89a0,0,0,0,1,0,0h-7.84a0,0,0,0,1,0,0V725.28A3.67,3.67,0,0,1,1936.59,721.6Z"/><path class="cls-8" d="M1949.57,721.6h.49a3.67,3.67,0,0,1,3.67,3.67v17.89a0,0,0,0,1,0,0h-7.84a0,0,0,0,1,0,0V725.28A3.67,3.67,0,0,1,1949.57,721.6Z"/><path class="cls-8" d="M1923.62,721.6h.49a3.67,3.67,0,0,1,3.67,3.67v17.89a0,0,0,0,1,0,0h-7.84a0,0,0,0,1,0,0V725.28A3.67,3.67,0,0,1,1923.62,721.6Z"/><path class="cls-3" d="M1927.78,725.53v5a3.92,3.92,0,1,0-7.83,0v-5a3.92,3.92,0,1,1,7.83,0Z"/><path class="cls-3" d="M1940.76,725.53v5a3.89,3.89,0,0,0-3.92-3.92,3.91,3.91,0,0,0-3.91,3.92v-5a3.92,3.92,0,0,1,6.69-2.78A4,4,0,0,1,1940.76,725.53Z"/><path class="cls-3" d="M1953.73,725.53v5a3.89,3.89,0,0,0-3.91-3.92,3.91,3.91,0,0,0-3.92,3.92v-5a3.92,3.92,0,0,1,6.69-2.78A4,4,0,0,1,1953.73,725.53Z"/><rect class="cls-3" x="1913.88" y="710.9" width="46.08" height="4.27"/><rect class="cls-9" x="1905.07" y="704.85" width="63.55" height="6.05"/><polygon class="cls-9" points="1788.76 839.33 1824.81 839.33 1834.42 1202.83 1779.15 1202.83 1788.76 839.33"/><polygon class="cls-8" points="1832.02 847.18 1781.55 847.18 1788.42 852.08 1825.15 852.08 1832.02 847.18"/><polygon class="cls-8" points="1834.42 961.67 1779.15 961.67 1785.38 967.37 1828.19 967.37 1834.42 961.67"/><rect class="cls-9" x="1779.15" y="953.14" width="55.27" height="8.54" transform="translate(3613.57 1914.81) rotate(-180)"/><rect class="cls-9" x="1777.13" y="1069.9" width="59.31" height="5.98" transform="translate(3613.57 2145.77) rotate(-180)"/><polygon class="cls-8" points="1836.44 1075.88 1777.13 1075.88 1782.33 1082.65 1831.23 1082.65 1836.44 1075.88"/><rect class="cls-9" x="1788.55" y="812.18" width="36.6" height="27.14"/><path class="cls-9" d="M1825.08,803.31A18.27,18.27,0,0,0,1806.82,785h0a18.27,18.27,0,0,0-18.27,18.27Z"/><rect class="cls-9" x="1781.55" y="839.33" width="50.46" height="7.86"/><rect class="cls-8" x="1788.55" y="812.18" width="36.6" height="4.27"/><line class="cls-10" x1="1806.78" y1="785.04" x2="1806.78" y2="765.51"/><path class="cls-8" d="M1806.75,822h.36a2.72,2.72,0,0,1,2.72,2.72v13.25a0,0,0,0,1,0,0H1804a0,0,0,0,1,0,0V824.67a2.72,2.72,0,0,1,2.72-2.72Z"/><path class="cls-8" d="M1817,822h.36a2.72,2.72,0,0,1,2.72,2.72v13.25a0,0,0,0,1,0,0h-5.81a0,0,0,0,1,0,0V824.67A2.72,2.72,0,0,1,1817,822Z"/><path class="cls-8" d="M1796.29,822h.36a2.72,2.72,0,0,1,2.72,2.72v13.25a0,0,0,0,1,0,0h-5.81a0,0,0,0,1,0,0V824.67A2.72,2.72,0,0,1,1796.29,822Z"/><path class="cls-3" d="M1799.38,824.85v4a2.87,2.87,0,0,0-.85-2.06,2.91,2.91,0,0,0-5,2.06v-4a2.9,2.9,0,0,1,2.91-2.9,2.92,2.92,0,0,1,2.9,2.9Z"/><path class="cls-3" d="M1809.84,824.85v4a2.84,2.84,0,0,0-.86-2.06,2.91,2.91,0,0,0-5,2.06v-4a2.9,2.9,0,0,1,2.91-2.9,2.94,2.94,0,0,1,2.91,2.9Z"/><path class="cls-3" d="M1820.12,824.85v4a2.87,2.87,0,0,0-.85-2.06,2.91,2.91,0,0,0-5,2.06v-4a2.9,2.9,0,0,1,2.91-2.9,2.92,2.92,0,0,1,2.9,2.9Z"/><rect class="cls-9" x="1782.24" y="807.91" width="49.08" height="4.27"/><path class="cls-9" d="M1482.61,801.22H1177.46c-44.34-62.66-35.46-150.84,24.66-203l127.91-111,127.91,111C1518.06,650.38,1527,738.56,1482.61,801.22Z"/><rect class="cls-11" x="1174.97" y="799.24" width="310.12" height="43.43"/><line class="cls-12" x1="1330.01" y1="538.36" x2="1330.01" y2="487.16"/><line class="cls-12" x1="1347.53" y1="538.36" x2="1330.03" y2="487.16"/><line class="cls-12" x1="1366.11" y1="538.36" x2="1330.03" y2="487.16"/><line class="cls-12" x1="1312.27" y1="538.36" x2="1329.77" y2="487.16"/><line class="cls-12" x1="1293.7" y1="538.36" x2="1329.77" y2="487.16"/><path class="cls-13" d="M1398.68,537.14l-2.64,7.32H1264l-3-7.32a11,11,0,0,0,14.75-4.88,4.92,4.92,0,0,0,9.83,0,4.91,4.91,0,0,0,9.82,0,4.92,4.92,0,0,0,9.84,0,4.92,4.92,0,0,0,9.83,0,4.92,4.92,0,0,0,9.83,0,4.92,4.92,0,0,0,9.84,0,4.92,4.92,0,0,0,9.83,0,4.91,4.91,0,0,0,9.82,0,4.92,4.92,0,0,0,9.84,0,4.92,4.92,0,0,0,9.83,0,4.92,4.92,0,0,0,9.83,0,4.92,4.92,0,0,0,9.84,0A4.9,4.9,0,0,1,1398.68,537.14Z"/><line class="cls-14" x1="1330.03" y1="467.26" x2="1330.03" y2="442.84"/><path class="cls-11" d="M1506.31,748.79c-.32,1.33-.66,2.67-1,4H1154.77c-.36-1.33-.69-2.66-1-4Z"/><path class="cls-11" d="M1493.4,783.52q-1.05,2-2.16,4H1168.83c-.75-1.33-1.46-2.66-2.16-4Z"/><line class="cls-15" x1="1342.58" y1="498.15" x2="1316.97" y2="498.41"/><path class="cls-16" d="M1318,497.24l11.3-11.05a4.79,4.79,0,1,1,1.36,0l11,10.78Z"/><path class="cls-16" d="M1330,476.65a6.94,6.94,0,1,1,6.94-6.94A6.94,6.94,0,0,1,1330,476.65Z"/><rect class="cls-8" x="1174.94" y="799.22" width="310.12" height="4"/><rect class="cls-11" x="1203.38" y="898.84" width="254.32" height="303.99"/><path class="cls-9" d="M1175,842.66v360.16h76.32V948.09l157.72-.42v255.15h76.08V842.66Zm282.73,338.82h-30.08V927.89H1232.44v253.59h-27.06V900.84H1457.7Z"/><path class="cls-17" d="M1320.33,967.64l-4.15-4.07a2.1,2.1,0,0,1,0-3l4.15-4.07,4.15,4.07a2.1,2.1,0,0,1,0,3Z"/><path class="cls-17" d="M1320.36,956.52l-4.15-4.07a2.1,2.1,0,0,1,0-3l4.15-4.07,4.15,4.07a2.1,2.1,0,0,1,0,3Z"/><path class="cls-17" d="M1330.06,967.64l-4.14-4.07a2.1,2.1,0,0,1,0-3l4.14-4.07,4.15,4.07a2.1,2.1,0,0,1,0,3Z"/><path class="cls-17" d="M1330.09,956.52l-4.15-4.07a2.11,2.11,0,0,1,0-3l4.15-4.07,4.15,4.07a2.1,2.1,0,0,1,0,3Z"/><path class="cls-17" d="M1339.8,967.64l-4.15-4.07a2.1,2.1,0,0,1,0-3l4.15-4.07,4.15,4.07a2.1,2.1,0,0,1,0,3Z"/><path class="cls-17" d="M1339.83,956.52l-4.15-4.07a2.1,2.1,0,0,1,0-3l4.15-4.07,4.15,4.07a2.11,2.11,0,0,1,0,3Z"/><path class="cls-17" d="M1349.53,967.64l-4.15-4.07a2.11,2.11,0,0,1,0-3l4.15-4.07,4.15,4.07a2.1,2.1,0,0,1,0,3Z"/><path class="cls-17" d="M1349.56,956.52l-4.15-4.07a2.1,2.1,0,0,1,0-3l4.15-4.07,4.15,4.07a2.1,2.1,0,0,1,0,3Z"/><path class="cls-17" d="M1359.27,967.64l-4.15-4.07a2.1,2.1,0,0,1,0-3l4.15-4.07,4.15,4.07a2.11,2.11,0,0,1,0,3Z"/><path class="cls-17" d="M1359.3,956.52l-4.15-4.07a2.1,2.1,0,0,1,0-3l4.15-4.07,4.14,4.07a2.1,2.1,0,0,1,0,3Z"/><path class="cls-17" d="M1369,967.64l-4.15-4.07a2.1,2.1,0,0,1,0-3l4.15-4.07,4.15,4.07a2.1,2.1,0,0,1,0,3Z"/><path class="cls-17" d="M1369,956.52l-4.15-4.07a2.1,2.1,0,0,1,0-3l4.15-4.07,4.15,4.07a2.1,2.1,0,0,1,0,3Z"/><path class="cls-17" d="M1378.74,967.64l-4.15-4.07a2.1,2.1,0,0,1,0-3l4.15-4.07,4.15,4.07a2.11,2.11,0,0,1,0,3Z"/><path class="cls-17" d="M1378.76,956.52l-4.15-4.07a2.11,2.11,0,0,1,0-3l4.15-4.07,4.15,4.07a2.1,2.1,0,0,1,0,3Z"/><path class="cls-17" d="M1252.18,967.76l-4.15-4.07a2.1,2.1,0,0,1,0-3l4.15-4.07,4.15,4.07a2.11,2.11,0,0,1,0,3Z"/><path class="cls-17" d="M1252.2,956.64l-4.15-4.07a2.11,2.11,0,0,1,0-3l4.15-4.07,4.15,4.07a2.1,2.1,0,0,1,0,3Z"/><path class="cls-17" d="M1261.91,967.76l-4.15-4.07a2.1,2.1,0,0,1,0-3l4.15-4.07,4.15,4.07a2.1,2.1,0,0,1,0,3Z"/><path class="cls-17" d="M1261.94,956.64l-4.15-4.07a2.1,2.1,0,0,1,0-3l4.15-4.07,4.15,4.07a2.1,2.1,0,0,1,0,3Z"/><path class="cls-17" d="M1271.64,967.76l-4.15-4.07a2.11,2.11,0,0,1,0-3l4.15-4.07,4.15,4.07a2.1,2.1,0,0,1,0,3Z"/><path class="cls-17" d="M1271.67,956.64l-4.15-4.07a2.11,2.11,0,0,1,0-3l4.15-4.07,4.15,4.07a2.1,2.1,0,0,1,0,3Z"/><path class="cls-17" d="M1281.38,967.76l-4.15-4.07a2.1,2.1,0,0,1,0-3l4.15-4.07,4.15,4.07a2.1,2.1,0,0,1,0,3Z"/><path class="cls-17" d="M1281.41,956.64l-4.15-4.07a2.1,2.1,0,0,1,0-3l4.15-4.07,4.15,4.07a2.11,2.11,0,0,1,0,3Z"/><path class="cls-17" d="M1291.11,967.76l-4.15-4.07a2.11,2.11,0,0,1,0-3l4.15-4.07,4.15,4.07a2.1,2.1,0,0,1,0,3Z"/><path class="cls-17" d="M1291.14,956.64l-4.15-4.07a2.1,2.1,0,0,1,0-3l4.15-4.07,4.15,4.07a2.1,2.1,0,0,1,0,3Z"/><path class="cls-17" d="M1300.85,967.76l-4.15-4.07a2.1,2.1,0,0,1,0-3l4.15-4.07,4.15,4.07a2.11,2.11,0,0,1,0,3Z"/><path class="cls-17" d="M1300.87,956.64l-4.14-4.07a2.1,2.1,0,0,1,0-3l4.14-4.07,4.15,4.07a2.1,2.1,0,0,1,0,3Z"/><path class="cls-17" d="M1310.58,967.76l-4.15-4.07a2.1,2.1,0,0,1,0-3l4.15-4.07,4.15,4.07a2.1,2.1,0,0,1,0,3Z"/><path class="cls-17" d="M1310.61,956.64l-4.15-4.07a2.1,2.1,0,0,1,0-3l4.15-4.07,4.15,4.07a2.1,2.1,0,0,1,0,3Z"/><path class="cls-17" d="M1388.47,967.64l-4.15-4.07a2.1,2.1,0,0,1,0-3l4.15-4.07,4.15,4.07a2.1,2.1,0,0,1,0,3Z"/><path class="cls-17" d="M1388.5,956.52l-4.15-4.07a2.1,2.1,0,0,1,0-3l4.15-4.07,4.15,4.07a2.1,2.1,0,0,1,0,3Z"/><path class="cls-17" d="M1398.2,967.64l-4.15-4.07a2.11,2.11,0,0,1,0-3l4.15-4.07,4.15,4.07a2.1,2.1,0,0,1,0,3Z"/><path class="cls-17" d="M1398.23,956.52l-4.15-4.07a2.1,2.1,0,0,1,0-3l4.15-4.07,4.15,4.07a2.1,2.1,0,0,1,0,3Z"/><path class="cls-17" d="M1407.94,967.64l-4.15-4.07a2.1,2.1,0,0,1,0-3l4.15-4.07,4.15,4.07a2.1,2.1,0,0,1,0,3Z"/><path class="cls-17" d="M1408,956.52l-4.15-4.07a2.1,2.1,0,0,1,0-3l4.15-4.07,4.15,4.07a2.11,2.11,0,0,1,0,3Z"/><path class="cls-17" d="M1316.21,974.63a2.11,2.11,0,0,1,0-3l4.15-4.07,4.15,4.07"/><path class="cls-17" d="M1335.68,971.61l4.15-4.07,4.15,4.07a2.12,2.12,0,0,1,0,3"/><path class="cls-17" d="M1349.56,978.69l-4.15-4.06a2.11,2.11,0,0,1,0-3l4.15-4.07,4.15,4.07a2.11,2.11,0,0,1,0,3Z"/><polyline class="cls-17" points="1355.12 982.74 1359.27 978.67 1363.42 982.74"/><path class="cls-17" d="M1359.3,978.69l-4.15-4.06a2.11,2.11,0,0,1,0-3l4.15-4.07,4.14,4.07a2.11,2.11,0,0,1,0,3Z"/><path class="cls-17" d="M1364.85,982.74l4.15-4.07,4.15,4.07a2.1,2.1,0,0,1,0,3"/><path class="cls-17" d="M1369,978.69l-4.15-4.06a2.11,2.11,0,0,1,0-3l4.15-4.07,4.15,4.07a2.11,2.11,0,0,1,0,3Z"/><path class="cls-17" d="M1378.74,989.82l-4.15-4.07a2.1,2.1,0,0,1,0-3l4.15-4.07,4.15,4.07a2.11,2.11,0,0,1,0,3Z"/><path class="cls-17" d="M1378.76,978.69l-4.15-4.06a2.12,2.12,0,0,1,0-3l4.15-4.07,4.15,4.07a2.11,2.11,0,0,1,0,3Z"/><path class="cls-17" d="M1252.18,989.94l-4.15-4.07a2.11,2.11,0,0,1,0-3l4.15-4.07,4.15,4.07a2.12,2.12,0,0,1,0,3Z"/><path class="cls-17" d="M1252.2,978.81l-4.15-4.07a2.11,2.11,0,0,1,0-3l4.15-4.07,4.15,4.07a2.1,2.1,0,0,1,0,3Z"/><path class="cls-17" d="M1261.91,989.94l-4.15-4.07a2.11,2.11,0,0,1,0-3l4.15-4.07,4.15,4.07a2.11,2.11,0,0,1,0,3Z"/><path class="cls-17" d="M1261.94,978.81l-4.15-4.07a2.1,2.1,0,0,1,0-3l4.15-4.07,4.15,4.07a2.1,2.1,0,0,1,0,3Z"/><path class="cls-17" d="M1271.64,989.94l-4.15-4.07a2.12,2.12,0,0,1,0-3l4.15-4.07,4.15,4.07a2.11,2.11,0,0,1,0,3Z"/><path class="cls-17" d="M1271.67,978.81l-4.15-4.07a2.11,2.11,0,0,1,0-3l4.15-4.07,4.15,4.07a2.1,2.1,0,0,1,0,3Z"/><path class="cls-17" d="M1281.38,989.94l-4.15-4.07a2.11,2.11,0,0,1,0-3l4.15-4.07,4.15,4.07a2.11,2.11,0,0,1,0,3Z"/><path class="cls-17" d="M1281.41,978.81l-4.15-4.07a2.1,2.1,0,0,1,0-3l4.15-4.07,4.15,4.07a2.11,2.11,0,0,1,0,3Z"/><path class="cls-17" d="M1287,985.87a2.12,2.12,0,0,1,0-3l4.15-4.07,4.15,4.07"/><path class="cls-17" d="M1291.14,978.81l-4.15-4.07a2.1,2.1,0,0,1,0-3l4.15-4.07,4.15,4.07a2.1,2.1,0,0,1,0,3Z"/><polyline class="cls-17" points="1296.7 982.85 1300.85 978.78 1305 982.85"/><path class="cls-17" d="M1300.87,978.81l-4.14-4.07a2.1,2.1,0,0,1,0-3l4.14-4.07,4.15,4.07a2.1,2.1,0,0,1,0,3Z"/><path class="cls-17" d="M1310.61,978.81l-4.15-4.07a2.1,2.1,0,0,1,0-3l4.15-4.07,4.15,4.07a2.1,2.1,0,0,1,0,3Z"/><path class="cls-17" d="M1388.47,989.82l-4.15-4.07a2.1,2.1,0,0,1,0-3l4.15-4.07,4.15,4.07a2.1,2.1,0,0,1,0,3Z"/><path class="cls-17" d="M1388.5,978.69l-4.15-4.06a2.11,2.11,0,0,1,0-3l4.15-4.07,4.15,4.07a2.11,2.11,0,0,1,0,3Z"/><path class="cls-17" d="M1398.2,989.82l-4.15-4.07a2.11,2.11,0,0,1,0-3l4.15-4.07,4.15,4.07a2.1,2.1,0,0,1,0,3Z"/><path class="cls-17" d="M1398.23,978.69l-4.15-4.06a2.11,2.11,0,0,1,0-3l4.15-4.07,4.15,4.07a2.11,2.11,0,0,1,0,3Z"/><path class="cls-17" d="M1407.94,989.82l-4.15-4.07a2.1,2.1,0,0,1,0-3l4.15-4.07,4.15,4.07a2.1,2.1,0,0,1,0,3Z"/><path class="cls-17" d="M1408,978.69l-4.15-4.06a2.11,2.11,0,0,1,0-3l4.15-4.07,4.15,4.07a2.12,2.12,0,0,1,0,3Z"/><path class="cls-17" d="M1252.2,1012.11l-4.15-4.07a2.1,2.1,0,0,1,0-3l4.15-4.07,4.15,4.07a2.1,2.1,0,0,1,0,3Z"/><path class="cls-17" d="M1252.2,1023.61l-4.15-4.07a2.11,2.11,0,0,1,0-3l4.15-4.07,4.15,4.07a2.1,2.1,0,0,1,0,3Z"/><path class="cls-17" d="M1252.23,1001l-4.15-4.07a2.11,2.11,0,0,1,0-3l4.15-4.07,4.15,4.07a2.12,2.12,0,0,1,0,3Z"/><path class="cls-17" d="M1261.93,1012.11l-4.15-4.07a2.1,2.1,0,0,1,0-3l4.15-4.07,4.15,4.07a2.1,2.1,0,0,1,0,3Z"/><path class="cls-17" d="M1262,1001l-4.15-4.07a2.11,2.11,0,0,1,0-3l4.15-4.07,4.15,4.07a2.11,2.11,0,0,1,0,3Z"/><path class="cls-17" d="M1271.69,1001l-4.15-4.07a2.12,2.12,0,0,1,0-3l4.15-4.07,4.15,4.07a2.11,2.11,0,0,1,0,3Z"/><path class="cls-17" d="M1388.52,1000.87l-4.15-4.07a2.1,2.1,0,0,1,0-3l4.15-4.07,4.15,4.07a2.1,2.1,0,0,1,0,3Z"/><path class="cls-17" d="M1398.23,1012l-4.15-4.07a2.1,2.1,0,0,1,0-3l4.15-4.07,4.15,4.07a2.11,2.11,0,0,1,0,3Z"/><path class="cls-17" d="M1398.25,1000.87l-4.15-4.07a2.11,2.11,0,0,1,0-3l4.15-4.07,4.15,4.07a2.1,2.1,0,0,1,0,3Z"/><path class="cls-17" d="M1408,1012l-4.15-4.07a2.1,2.1,0,0,1,0-3l4.15-4.07,4.15,4.07a2.1,2.1,0,0,1,0,3Z"/><path class="cls-17" d="M1408,1023.61l-4.15-4.07a2.1,2.1,0,0,1,0-3l4.15-4.07,4.15,4.07a2.1,2.1,0,0,1,0,3Z"/><path class="cls-17" d="M1408,1000.87l-4.15-4.07a2.1,2.1,0,0,1,0-3l4.15-4.07,4.15,4.07a2.1,2.1,0,0,1,0,3Z"/><path class="cls-18" d="M1250,949.23l0,96.52a70.16,70.16,0,0,1,43.26-64.61L1330,965.73l36.76,15.41a70.16,70.16,0,0,1,43.26,64.61l0-96.52Z"/><polygon class="cls-8" points="1207.38 1181.48 1203.38 1181.48 1203.38 898.84 1457.7 898.84 1457.7 902.84 1207.38 902.84 1207.38 1181.48"/><rect class="cls-8" x="1427.78" y="927.89" width="4" height="253.59"/><polygon class="cls-11" points="1186.21 1202.82 1182.21 1202.82 1182.21 865.84 1475.85 865.84 1475.85 869.84 1186.21 869.84 1186.21 1202.82"/><path class="cls-8" d="M1406.28,1202.82h-152.5V1047.13A67.62,67.62,0,0,1,1295,984.87L1330,970l35,14.85a67.62,67.62,0,0,1,41.22,62.26Z"/><path class="cls-19" d="M1365.05,984.87,1330,970l-35,14.85a67.63,67.63,0,0,0-41.23,62.26v155.7h19.11V1084.67h114.28v118.16h19.11v-155.7A67.64,67.64,0,0,0,1365.05,984.87Zm22.12,93.8H1272.89v-33.13a49,49,0,0,1,29.83-45.06L1330,988.91l27.31,11.57a48.94,48.94,0,0,1,29.83,45.06Z"/><path class="cls-16" d="M1348.7,1073.35h-37.34v-32.26c0-6.09,4-11.59,10.09-14l8.58-3.33,8.58,3.33c6.12,2.38,10.09,7.88,10.09,14Z"/><line class="cls-20" x1="1311.36" y1="1039.7" x2="1348.63" y2="1039.7"/><line class="cls-20" x1="1336.25" y1="1051.8" x2="1347.06" y2="1051.8"/><line class="cls-20" x1="1312.95" y1="1051.8" x2="1323.81" y2="1051.8"/><line class="cls-20" x1="1323.81" y1="1073.35" x2="1323.81" y2="1026.2"/><line class="cls-20" x1="1336.25" y1="1073.35" x2="1336.25" y2="1026.2"/><path class="cls-18" d="M1311.36,1073.35v-32.26c0-6.09,4-11.59,10.09-14l8.58-3.33,8.58,3.33c6.12,2.38,10.09,7.88,10.09,14v32.26"/><rect class="cls-19" x="1296.95" y="1103.1" width="66.15" height="97.13"/><rect class="cls-3" x="1296.95" y="1103.1" width="66.15" height="5.88"/><path class="cls-16" d="M1348.7,1200.23h-37.34v-38.4c0-6.09,4-11.59,10.09-14l8.58-3.33,8.58,3.33c6.12,2.38,10.09,7.88,10.09,14Z"/><line class="cls-20" x1="1311.36" y1="1160.45" x2="1348.63" y2="1160.45"/><line class="cls-20" x1="1336.28" y1="1173.68" x2="1347.08" y2="1173.68"/><line class="cls-20" x1="1324.59" y1="1166.5" x2="1335.4" y2="1166.5"/><line class="cls-20" x1="1312.98" y1="1173.68" x2="1323.83" y2="1173.68"/><line class="cls-20" x1="1336.25" y1="1187.67" x2="1347.06" y2="1187.67"/><line class="cls-20" x1="1312.95" y1="1187.67" x2="1323.81" y2="1187.67"/><line class="cls-20" x1="1323.81" y1="1200.23" x2="1323.81" y2="1146.95"/><line class="cls-20" x1="1336.25" y1="1200.23" x2="1336.25" y2="1146.95"/><path class="cls-18" d="M1311.36,1200.23v-38.4c0-6.09,4-11.59,10.09-14l8.58-3.33,8.58,3.33c6.12,2.38,10.09,7.88,10.09,14v38.4"/><line class="cls-21" x1="1406.28" y1="1076.03" x2="1253.78" y2="1076.03"/><path class="cls-21" d="M1406.28,1202.82h-152.5V1047.13A67.62,67.62,0,0,1,1295,984.87L1330,970l35,14.85a67.62,67.62,0,0,1,41.22,62.26Z"/><rect class="cls-9" x="949.48" y="927.89" width="225.43" height="274.93"/><rect class="cls-11" x="1064.06" y="949.23" width="110.85" height="253.59" transform="translate(2238.97 2152.06) rotate(-180)"/><polygon class="cls-11" points="960.32 951.65 960.32 1078.62 1055.7 1078.62 1055.7 1082.89 960.32 1082.89 960.32 1202.82 954.99 1202.82 954.99 927.89 960.32 927.89 960.32 947.38 1055.7 947.38 1055.7 951.65 960.32 951.65"/><polygon class="cls-8" points="1065.31 951.65 1065.31 1078.18 1174.91 1078.18 1174.91 1082.44 1065.31 1082.44 1065.31 1202.82 1061.03 1202.82 1061.03 927.89 1065.31 927.89 1065.31 947.38 1174.91 947.38 1174.91 951.65 1065.31 951.65"/><rect class="cls-9" x="960.86" y="897.87" width="24.78" height="30.03" transform="translate(1946.49 1825.76) rotate(-180)"/><rect class="cls-9" x="960.86" y="889.81" width="24.98" height="3.2" transform="translate(1946.69 1782.81) rotate(-180)"/><rect class="cls-8" x="970.3" y="910.05" width="6.33" height="17.84" transform="translate(1946.94 1837.94) rotate(-180)"/><rect class="cls-9" x="1079.23" y="866.13" width="95.68" height="61.76" transform="translate(2254.14 1794.02) rotate(-180)"/><polygon class="cls-11" points="1174.91 866.13 1174.91 927.89 1079.23 927.89 1079.23 922.53 1143.38 922.53 1143.38 871.49 1079.23 871.49 1079.23 866.13 1174.91 866.13"/><path class="cls-8" d="M1118.34,922.53h18.94V899.79c0-4.62-2-6.38-5.12-8.19l-4.35-2.52-4.35,2.52c-3.1,1.81-5.12,3.57-5.12,8.19Z"/><path class="cls-8" d="M1089.94,922.53h16.93V899.79c0-4.62-1.81-6.38-4.58-8.19l-3.89-2.52-3.88,2.52c-2.78,1.81-4.58,3.57-4.58,8.19Z"/><path class="cls-3" d="M1089.94,899.79v22.74h4.8V902.19c0-4.61,1.8-6.38,4.57-8.19l3.34-2.16-.36-.24-3.89-2.52-3.88,2.52C1091.74,893.4,1089.94,895.17,1089.94,899.79Z"/><path class="cls-8" d="M1148.75,922.53h16.93V899.79c0-4.62-1.81-6.38-4.58-8.19l-3.89-2.52-3.88,2.52c-2.78,1.81-4.58,3.57-4.58,8.19Z"/><path class="cls-9" d="M1153,891.84l3.35,2.16c2.76,1.81,4.57,3.57,4.57,8.19v20.34h4.8V899.79c0-4.62-1.81-6.39-4.58-8.19l-3.89-2.52-3.88,2.52Z"/><line class="cls-10" x1="1127.79" y1="766.01" x2="1127.79" y2="741.72"/><path class="cls-9" d="M1174.91,861.13h.06v5H1069.84v-5h9.39v-6.57h-.11a45.81,45.81,0,0,1,10.25-56.41l38.42-33.35,38.42,33.35c16.64,14.44,18.66,38.06,8.7,56.41Z"/><rect class="cls-11" x="1107.37" y="776.44" width="40.84" height="5.91"/><rect class="cls-11" x="1143.38" y="854.56" width="31.53" height="6.35" transform="translate(2318.29 1715.46) rotate(180)"/><line class="cls-10" x1="1148.21" y1="776.44" x2="1107.37" y2="776.44"/><rect class="cls-9" x="949.48" y="870.54" width="5.33" height="332.29" transform="translate(1904.29 2073.36) rotate(-180)"/><rect class="cls-9" x="941.73" y="1073.53" width="233.18" height="5"/><rect class="cls-9" x="941.73" y="942.87" width="233.18" height="5"/><rect class="cls-9" x="1055.7" y="871.87" width="5.33" height="330.95" transform="translate(2116.73 2074.69) rotate(-180)"/><rect class="cls-8" x="1161.54" y="958.89" width="4.28" height="107.11"/><path class="cls-8" d="M1083.9,1063h71.17v-54.63a30.86,30.86,0,0,0-19.24-28.42l-16.35-6.78-16.35,6.78a30.86,30.86,0,0,0-19.24,28.42Z"/><path class="cls-21" d="M1083.9,1063h71.17v-54.63a30.86,30.86,0,0,0-19.24-28.42l-16.35-6.78-16.35,6.78a30.86,30.86,0,0,0-19.24,28.42Z"/><rect class="cls-22" x="1080.54" y="961.97" width="77.89" height="100.98"/><path class="cls-3" d="M1112.47,1033.6h14a0,0,0,0,1,0,0v19a6.57,6.57,0,0,1-6.57,6.57H1119a6.57,6.57,0,0,1-6.57-6.57v-19A0,0,0,0,1,1112.47,1033.6Z" transform="translate(2238.97 2092.81) rotate(-180)"/><rect class="cls-11" x="975.82" y="1092.03" width="69.04" height="108.12" transform="translate(2020.69 2292.17) rotate(-180)"/><path class="cls-8" d="M978.49,1193H1035v-51.9c0-11.78-6-22.42-15.29-27l-13-6.44-13,6.44c-9.27,4.59-15.29,15.23-15.29,27Z"/><path class="cls-3" d="M978.49,1141.1V1193h10.07V1143c0-11.37,4.93-18.38,14.75-23l15.3-6.39-11.85-5.87-13,6.43C984.51,1118.68,978.49,1129.32,978.49,1141.1Z"/><path class="cls-21" d="M978.49,1193H1035v-51.9c0-11.78-6-22.42-15.29-27l-13-6.44-13,6.44c-9.27,4.59-15.29,15.23-15.29,27Z"/><rect class="cls-23" x="975.82" y="1092.03" width="61.88" height="100.98"/><path class="cls-3" d="M1000.44,1166.86h11.89a0,0,0,0,1,0,0v16.84a5.57,5.57,0,0,1-5.57,5.57H1006a5.57,5.57,0,0,1-5.57-5.57v-16.84A0,0,0,0,1,1000.44,1166.86Z" transform="translate(2012.77 2356.12) rotate(-180)"/><rect class="cls-11" x="975.82" y="961.97" width="69.04" height="108.12" transform="translate(2020.69 2032.06) rotate(-180)"/><path class="cls-8" d="M978.49,1063H1035V1011c0-11.78-6-22.41-15.29-27l-13-6.44-13,6.44c-9.27,4.6-15.29,15.23-15.29,27Z"/><path class="cls-3" d="M978.49,1011.05V1063h10.07v-50.06c0-11.36,4.93-18.37,14.75-23l15.3-6.39-11.85-5.86-13,6.43C984.51,988.63,978.49,999.27,978.49,1011.05Z"/><path class="cls-21" d="M978.49,1063H1035V1011c0-11.78-6-22.41-15.29-27l-13-6.44-13,6.44c-9.27,4.6-15.29,15.23-15.29,27Z"/><rect class="cls-23" x="975.82" y="961.97" width="61.88" height="100.98"/><path class="cls-3" d="M1000.44,1036.8h11.89a0,0,0,0,1,0,0v16.84a5.57,5.57,0,0,1-5.57,5.57H1006a5.57,5.57,0,0,1-5.57-5.57V1036.8A0,0,0,0,1,1000.44,1036.8Z" transform="translate(2012.77 2096.01) rotate(-180)"/><rect class="cls-8" x="1161.54" y="1088.95" width="4.28" height="107.11"/><path class="cls-8" d="M1083.9,1193h71.17v-54.62a30.88,30.88,0,0,0-19.24-28.43l-16.35-6.78-16.35,6.78a30.88,30.88,0,0,0-19.24,28.43Z"/><path class="cls-21" d="M1083.9,1193h71.17v-54.62a30.88,30.88,0,0,0-19.24-28.43l-16.35-6.78-16.35,6.78a30.88,30.88,0,0,0-19.24,28.43Z"/><rect class="cls-22" x="1080.54" y="1092.03" width="77.89" height="100.98"/><path class="cls-3" d="M1112.47,1163.65h14a0,0,0,0,1,0,0v19a6.57,6.57,0,0,1-6.57,6.57H1119a6.57,6.57,0,0,1-6.57-6.57v-19A0,0,0,0,1,1112.47,1163.65Z" transform="translate(2238.97 2352.92) rotate(-180)"/><rect class="cls-9" x="1485.09" y="927.89" width="225.43" height="274.93"/><rect class="cls-11" x="1485.09" y="949.23" width="110.85" height="253.59"/><polygon class="cls-11" points="1699.68 951.65 1699.68 1078.62 1604.3 1078.62 1604.3 1082.89 1699.68 1082.89 1699.68 1202.82 1705.01 1202.82 1705.01 927.89 1699.68 927.89 1699.68 947.38 1604.3 947.38 1604.3 951.65 1699.68 951.65"/><polygon class="cls-8" points="1594.69 951.65 1594.69 1078.18 1485.09 1078.18 1485.09 1082.44 1594.69 1082.44 1594.69 1202.82 1598.97 1202.82 1598.97 927.89 1594.69 927.89 1594.69 947.38 1485.09 947.38 1485.09 951.65 1594.69 951.65"/><rect class="cls-9" x="1674.36" y="897.87" width="24.78" height="30.03"/><rect class="cls-9" x="1674.16" y="889.81" width="24.98" height="3.2"/><rect class="cls-8" x="1683.37" y="910.05" width="6.33" height="17.84"/><rect class="cls-9" x="1485.09" y="866.13" width="95.68" height="61.76"/><polygon class="cls-11" points="1485.09 866.13 1485.09 927.89 1580.77 927.89 1580.77 922.53 1516.62 922.53 1516.62 871.49 1580.77 871.49 1580.77 866.13 1485.09 866.13"/><path class="cls-8" d="M1541.66,922.53h-18.94V899.79c0-4.62,2-6.38,5.12-8.19l4.35-2.52,4.35,2.52c3.1,1.81,5.12,3.57,5.12,8.19Z"/><path class="cls-8" d="M1570.06,922.53h-16.93V899.79c0-4.62,1.81-6.38,4.58-8.19l3.89-2.52,3.88,2.52c2.78,1.81,4.58,3.57,4.58,8.19Z"/><path class="cls-3" d="M1570.06,899.79v22.74h-4.8V902.19c0-4.61-1.8-6.38-4.57-8.19l-3.34-2.16.36-.24,3.89-2.52,3.88,2.52C1568.26,893.4,1570.06,895.17,1570.06,899.79Z"/><path class="cls-8" d="M1511.25,922.53h-16.93V899.79c0-4.62,1.81-6.38,4.58-8.19l3.89-2.52,3.88,2.52c2.78,1.81,4.58,3.57,4.58,8.19Z"/><path class="cls-9" d="M1507,891.84l-3.35,2.16c-2.76,1.81-4.57,3.57-4.57,8.19v20.34h-4.8V899.79c0-4.62,1.81-6.39,4.58-8.19l3.89-2.52,3.88,2.52Z"/><line class="cls-10" x1="1532.21" y1="766.01" x2="1532.21" y2="741.72"/><path class="cls-9" d="M1485.09,861.13H1485v5h105.13v-5h-9.39v-6.57h.11a45.81,45.81,0,0,0-10.25-56.41l-38.42-33.35-38.42,33.35c-16.64,14.44-18.66,38.06-8.7,56.41Z"/><rect class="cls-11" x="1511.79" y="776.44" width="40.84" height="5.91"/><rect class="cls-11" x="1485.09" y="854.56" width="31.53" height="6.35"/><line class="cls-10" x1="1511.79" y1="776.44" x2="1552.63" y2="776.44"/><rect class="cls-9" x="1705.19" y="870.54" width="5.33" height="332.29"/><rect class="cls-9" x="1485.09" y="1073.53" width="233.18" height="5"/><rect class="cls-9" x="1485.09" y="942.87" width="233.18" height="5"/><rect class="cls-9" x="1598.97" y="871.87" width="5.33" height="330.95"/><rect class="cls-8" x="1494.18" y="958.89" width="4.28" height="107.11"/><path class="cls-8" d="M1576.1,1063h-71.17v-54.63a30.86,30.86,0,0,1,19.24-28.42l16.35-6.78,16.35,6.78a30.86,30.86,0,0,1,19.24,28.42Z"/><path class="cls-21" d="M1576.1,1063h-71.17v-54.63a30.86,30.86,0,0,1,19.24-28.42l16.35-6.78,16.35,6.78a30.86,30.86,0,0,1,19.24,28.42Z"/><rect class="cls-22" x="1501.57" y="961.97" width="77.89" height="100.98"/><path class="cls-3" d="M1540.08,1033.6h.88a6.57,6.57,0,0,1,6.57,6.57v19a0,0,0,0,1,0,0h-14a0,0,0,0,1,0,0v-19a6.57,6.57,0,0,1,6.57-6.57Z"/><rect class="cls-11" x="1615.14" y="1092.03" width="69.04" height="108.12"/><path class="cls-8" d="M1681.51,1193H1625v-51.9c0-11.78,6-22.42,15.29-27l13-6.44,13,6.44c9.27,4.59,15.29,15.23,15.29,27Z"/><path class="cls-3" d="M1681.51,1141.1V1193h-10.07V1143c0-11.37-4.93-18.38-14.75-23l-15.3-6.39,11.85-5.87,13,6.43C1675.49,1118.68,1681.51,1129.32,1681.51,1141.1Z"/><path class="cls-21" d="M1681.51,1193H1625v-51.9c0-11.78,6-22.42,15.29-27l13-6.44,13,6.44c9.27,4.59,15.29,15.23,15.29,27Z"/><rect class="cls-23" x="1622.29" y="1092.03" width="61.88" height="100.98"/><path class="cls-3" d="M1653.24,1166.86h.75a5.57,5.57,0,0,1,5.57,5.57v16.84a0,0,0,0,1,0,0h-11.89a0,0,0,0,1,0,0v-16.84A5.57,5.57,0,0,1,1653.24,1166.86Z"/><rect class="cls-11" x="1615.14" y="961.97" width="69.04" height="108.12"/><path class="cls-8" d="M1681.51,1063H1625V1011c0-11.78,6-22.41,15.29-27l13-6.44,13,6.44c9.27,4.6,15.29,15.23,15.29,27Z"/><path class="cls-3" d="M1681.51,1011.05V1063h-10.07v-50.06c0-11.36-4.93-18.37-14.75-23l-15.3-6.39,11.85-5.86,13,6.43C1675.49,988.63,1681.51,999.27,1681.51,1011.05Z"/><path class="cls-21" d="M1681.51,1063H1625V1011c0-11.78,6-22.41,15.29-27l13-6.44,13,6.44c9.27,4.6,15.29,15.23,15.29,27Z"/><rect class="cls-23" x="1622.29" y="961.97" width="61.88" height="100.98"/><path class="cls-3" d="M1653.24,1036.8h.75a5.57,5.57,0,0,1,5.57,5.57v16.84a0,0,0,0,1,0,0h-11.89a0,0,0,0,1,0,0v-16.84A5.57,5.57,0,0,1,1653.24,1036.8Z"/><rect class="cls-8" x="1494.18" y="1088.95" width="4.28" height="107.11"/><path class="cls-8" d="M1576.1,1193h-71.17v-54.62a30.88,30.88,0,0,1,19.24-28.43l16.35-6.78,16.35,6.78a30.88,30.88,0,0,1,19.24,28.43Z"/><path class="cls-21" d="M1576.1,1193h-71.17v-54.62a30.88,30.88,0,0,1,19.24-28.43l16.35-6.78,16.35,6.78a30.88,30.88,0,0,1,19.24,28.43Z"/><rect class="cls-22" x="1501.57" y="1092.03" width="77.89" height="100.98"/><path class="cls-3" d="M1540.08,1163.65h.88a6.57,6.57,0,0,1,6.57,6.57v19a0,0,0,0,1,0,0h-14a0,0,0,0,1,0,0v-19a6.57,6.57,0,0,1,6.57-6.57Z"/><rect class="cls-9" x="671.14" y="1202.83" width="1317.73" height="104.21"/><rect class="cls-24" x="671.14" y="1211.65" width="1317.73" height="9.6"/><rect class="cls-24" x="671.14" y="1265.55" width="1317.73" height="41.48"/><polygon class="cls-9" points="1444.6 1297.67 1444.6 1307.03 1215.1 1307.03 1215.1 1297.67 1240.08 1297.67 1240.08 1288.31 1265.06 1288.31 1265.06 1278.95 1290.04 1278.95 1290.04 1264.73 1369.72 1264.73 1369.72 1278.95 1394.68 1278.95 1394.68 1288.31 1419.64 1288.31 1419.64 1297.67 1444.6 1297.67"/><rect class="cls-24" x="1299.12" y="1274.17" width="61.53" height="32.86"/><path class="cls-16" d="M1308.91,1307a16.82,16.82,0,0,1,16.83-16.82H1334a16.83,16.83,0,0,1,16.83,16.82Z"/><path class="cls-9" d="M1352.35,1307h-3a15.34,15.34,0,0,0-15.33-15.32h-8.28a15.34,15.34,0,0,0-15.33,15.32h-3a18.35,18.35,0,0,1,18.33-18.32H1334A18.35,18.35,0,0,1,1352.35,1307Z"/><polygon class="cls-8" points="1299.12 1274.17 1360.64 1274.17 1360.64 1277.91 1302.89 1277.91 1302.89 1307.03 1299.14 1307.03 1299.12 1274.17"/></g><g id="Trees"><line class="cls-25" x1="1613.35" y1="1334.05" x2="1613.35" y2="1342.87"/><line class="cls-25" x1="1648.06" y1="1353.39" x2="1648.06" y2="1366.95"/><line class="cls-26" x1="1689.98" y1="1376.26" x2="1689.98" y2="1395.03"/><line class="cls-26" x1="1744.92" y1="1404.73" x2="1744.92" y2="1427.68"/><line class="cls-26" x1="1810.73" y1="1447.5" x2="1810.73" y2="1471.61"/><line class="cls-26" x1="1895.1" y1="1490.56" x2="1895.1" y2="1520.56"/><line class="cls-26" x1="2001.26" y1="1548.76" x2="2001.26" y2="1588.32"/><rect class="cls-7" x="1600.75" y="1234.78" width="25.21" height="103.67" rx="11.81"/><rect class="cls-7" x="1632.76" y="1234.78" width="30.6" height="125.85" rx="14.34"/><rect class="cls-7" x="1671.73" y="1234.78" width="36.5" height="150.11" rx="17.1"/><rect class="cls-7" x="1723" y="1234.78" width="43.84" height="180.32" rx="20.54"/><rect class="cls-7" x="1783.29" y="1234.78" width="54.87" height="225.7" rx="25.71"/><rect class="cls-7" x="1862.1" y="1234.78" width="65.98" height="271.39" rx="30.92"/><rect class="cls-7" x="1953.24" y="1234.78" width="96.03" height="333.14" rx="48.01"/><line class="cls-26" x1="2139.26" y1="1603.47" x2="2139.26" y2="1649.18"/><rect class="cls-7" x="2083.79" y="1234.78" width="110.93" height="384.82" rx="55.46"/><line class="cls-25" x1="1046.65" y1="1334.05" x2="1046.65" y2="1342.87"/><line class="cls-25" x1="1011.94" y1="1353.39" x2="1011.94" y2="1366.95"/><line class="cls-26" x1="970.02" y1="1376.26" x2="970.02" y2="1395.03"/><line class="cls-26" x1="915.08" y1="1404.73" x2="915.08" y2="1427.68"/><line class="cls-26" x1="849.27" y1="1447.5" x2="849.27" y2="1471.61"/><line class="cls-26" x1="764.9" y1="1490.56" x2="764.9" y2="1520.56"/><line class="cls-26" x1="659.74" y1="1548.76" x2="659.74" y2="1588.32"/><rect class="cls-7" x="1034.05" y="1234.78" width="25.21" height="103.67" rx="11.81" transform="translate(2093.3 2573.24) rotate(-180)"/><rect class="cls-7" x="996.64" y="1234.78" width="30.6" height="125.85" rx="14.34" transform="translate(2023.88 2595.42) rotate(-180)"/><rect class="cls-7" x="951.77" y="1234.78" width="36.5" height="150.11" rx="17.1" transform="translate(1940.04 2619.68) rotate(-180)"/><rect class="cls-7" x="893.16" y="1234.78" width="43.84" height="180.32" rx="20.54" transform="translate(1830.16 2649.89) rotate(-180)"/><rect class="cls-7" x="821.84" y="1234.78" width="54.87" height="225.7" rx="25.71" transform="translate(1698.55 2695.26) rotate(-180)"/><rect class="cls-7" x="731.91" y="1234.78" width="65.98" height="271.39" rx="30.92" transform="translate(1529.81 2740.96) rotate(-180)"/><rect class="cls-7" x="611.73" y="1234.78" width="96.03" height="333.14" rx="48.01" transform="translate(1319.48 2802.7) rotate(-180)"/><line class="cls-26" x1="520.62" y1="1603.47" x2="520.62" y2="1649.18"/><rect class="cls-7" x="465.16" y="1234.78" width="110.93" height="384.82" rx="55.46"/></g></svg>