<svg id="Слой_1" data-name="Слой 1" xmlns="http://www.w3.org/2000/svg" viewBox="0 0 2660 2000"><defs><style>.cls-1{fill:#f4e7c3;}.cls-2{fill:#fff;}.cls-3{fill:#9fcecb;}.cls-4{fill:#ffb500;}.cls-5{fill:#8b7b00;}.cls-6{fill:#e9d0a4;}.cls-7{fill:#285152;}.cls-8{fill:#86c9d3;}.cls-9{fill:#f46501;}.cls-10{fill:#fc6400;}.cls-11{fill:#c49400;}.cls-12{fill:#ff6300;}.cls-13{fill:#576556;}</style></defs><rect id="Background" class="cls-1" x="400" y="300" width="1860" height="1400"/><g id="Plane"><polygon class="cls-2" points="2260 495.78 1388.87 495.78 2260 300 2260 495.78"/><path class="cls-3" d="M1403.81,497.22h-14.58a2.5,2.5,0,0,1,0-5h14.58a2.5,2.5,0,0,1,0,5Z"/></g><circle id="Sun" class="cls-4" cx="1059.23" cy="457.33" r="93.28"/><path id="Tree" class="cls-5" d="M2260,816.42a79.78,79.78,0,0,0-79.78,79.78v164.17H2260Z"/><g id="Hills"><path class="cls-6" d="M1595.9,1060.37h-155a62.68,62.68,0,0,1,56.89-74.83,48.93,48.93,0,0,1,97.74.16Z"/><path class="cls-6" d="M1412.4,1061.25H823.53L1024.3,862.49a133.89,133.89,0,0,1,189.34,0Z"/></g><g id="Road"><rect class="cls-7" x="400" y="1060.46" width="1860" height="639.54"/><rect class="cls-2" x="1399.79" y="1273.03" width="12.98" height="56.36"/><rect class="cls-2" x="1433.88" y="1273.03" width="12.98" height="56.36"/><rect class="cls-2" x="1467.97" y="1273.03" width="12.98" height="56.36"/><rect class="cls-2" x="1502.06" y="1273.03" width="12.98" height="56.36"/><rect class="cls-2" x="1536.14" y="1273.03" width="12.98" height="56.36"/><rect class="cls-2" x="1570.23" y="1273.03" width="12.98" height="56.36"/><rect class="cls-2" x="1604.32" y="1273.03" width="12.98" height="56.36"/><rect class="cls-2" x="1638.4" y="1273.03" width="12.98" height="56.36"/><rect class="cls-2" x="1672.49" y="1273.03" width="12.98" height="56.36"/><polygon class="cls-2" points="1545.13 1250.19 1540.13 1250.19 1540.13 1161.27 1685.48 1161.27 1685.48 1166.27 1545.13 1166.27 1545.13 1250.19"/><polygon class="cls-2" points="1545.13 1443.1 1399.79 1443.1 1399.79 1438.1 1540.13 1438.1 1540.13 1351.53 1545.13 1351.53 1545.13 1443.1"/></g><g id="Taxi"><path class="cls-4" d="M1619.87,1184.92h-18.12l.76-3a4.47,4.47,0,0,1,4.34-3.38h7.92a4.47,4.47,0,0,1,4.34,3.38Z"/><path class="cls-8" d="M1643.89,1214.49h-66.16l11.87-24.43a9.13,9.13,0,0,1,8.21-5.14h26a9.13,9.13,0,0,1,8.21,5.14Z"/><path class="cls-5" d="M1575.56,1236.64h12.2a0,0,0,0,1,0,0v7.18a4.25,4.25,0,0,1-4.25,4.25h-3.71a4.25,4.25,0,0,1-4.25-4.25v-7.18A0,0,0,0,1,1575.56,1236.64Z"/><path class="cls-5" d="M1634.59,1236.64h12.2a0,0,0,0,1,0,0v7.18a4.25,4.25,0,0,1-4.25,4.25h-3.71a4.25,4.25,0,0,1-4.25-4.25v-7.18A0,0,0,0,1,1634.59,1236.64Z"/><path class="cls-4" d="M1651.39,1218.77v13.59a4.28,4.28,0,0,1-4.27,4.28H1574.5a4.28,4.28,0,0,1-4.27-4.28v-13.59a4.28,4.28,0,0,1,4.27-4.28h72.62A4.28,4.28,0,0,1,1651.39,1218.77Z"/><path class="cls-2" d="M1623.12,1229.47H1598.5a10.6,10.6,0,0,1-10.6-10.59v-4.39h2v4.39a8.61,8.61,0,0,0,8.6,8.59h24.62a8.61,8.61,0,0,0,8.6-8.59v-4.39h2v4.39A10.61,10.61,0,0,1,1623.12,1229.47Z"/><path class="cls-9" d="M1570.23,1221.32h8.5a0,0,0,0,1,0,0v6.49a2,2,0,0,1-2,2h-4.52a2,2,0,0,1-2-2v-6.49A0,0,0,0,1,1570.23,1221.32Z" transform="translate(348.92 2800.05) rotate(-90)"/><path class="cls-9" d="M1644.89,1221.32h4.52a2,2,0,0,1,2,2v6.49a0,0,0,0,1,0,0h-8.5a0,0,0,0,1,0,0v-6.49A2,2,0,0,1,1644.89,1221.32Z" transform="translate(421.58 2872.71) rotate(-90)"/></g><g id="Buildings"><rect class="cls-8" x="729.81" y="459.66" width="157.25" height="600.8"/><rect class="cls-2" x="887.06" y="459.66" width="178.59" height="600.8"/><rect class="cls-8" x="887.06" y="1045.33" width="178.59" height="15.13"/><rect class="cls-8" x="887.06" y="910.99" width="178.59" height="134.34"/><rect class="cls-1" x="917.36" y="501.44" width="15.94" height="66.98"/><rect class="cls-1" x="917.36" y="579.26" width="15.94" height="66.98"/><rect class="cls-1" x="917.36" y="657.09" width="15.94" height="66.98"/><rect class="cls-1" x="917.36" y="734.92" width="15.94" height="66.98"/><rect class="cls-1" x="917.36" y="812.75" width="15.94" height="66.98"/><rect class="cls-1" x="951.18" y="501.44" width="15.94" height="66.98"/><rect class="cls-1" x="951.18" y="579.26" width="15.94" height="66.98"/><rect class="cls-1" x="951.18" y="657.09" width="15.94" height="66.98"/><rect class="cls-1" x="951.18" y="734.92" width="15.94" height="66.98"/><rect class="cls-1" x="951.18" y="812.75" width="15.94" height="66.98"/><rect class="cls-1" x="985" y="501.44" width="15.94" height="66.98"/><rect class="cls-1" x="985" y="579.26" width="15.94" height="66.98"/><rect class="cls-1" x="985" y="657.09" width="15.94" height="66.98"/><rect class="cls-1" x="985" y="734.92" width="15.94" height="66.98"/><rect class="cls-1" x="985" y="812.75" width="15.94" height="66.98"/><rect class="cls-1" x="1018.82" y="501.44" width="15.94" height="66.98"/><rect class="cls-1" x="1018.82" y="579.26" width="15.94" height="66.98"/><rect class="cls-1" x="1018.82" y="657.09" width="15.94" height="66.98"/><rect class="cls-1" x="1018.82" y="734.92" width="15.94" height="66.98"/><rect class="cls-1" x="1018.82" y="812.75" width="15.94" height="66.98"/><rect class="cls-6" x="928.67" y="501.44" width="5" height="66.98"/><rect class="cls-6" x="928.67" y="579.26" width="5" height="66.98"/><rect class="cls-6" x="928.67" y="657.09" width="5" height="66.98"/><rect class="cls-6" x="928.67" y="734.92" width="5" height="66.98"/><rect class="cls-6" x="928.67" y="812.75" width="5" height="66.98"/><rect class="cls-6" x="962.49" y="501.44" width="5" height="66.98"/><rect class="cls-6" x="962.49" y="579.26" width="5" height="66.98"/><rect class="cls-6" x="962.49" y="657.09" width="5" height="66.98"/><rect class="cls-6" x="962.49" y="734.92" width="5" height="66.98"/><rect class="cls-6" x="962.49" y="812.75" width="5" height="66.98"/><rect class="cls-6" x="996.31" y="501.44" width="5" height="66.98"/><rect class="cls-6" x="996.31" y="579.26" width="5" height="66.98"/><rect class="cls-6" x="996.31" y="657.09" width="5" height="66.98"/><rect class="cls-6" x="996.31" y="734.92" width="5" height="66.98"/><rect class="cls-6" x="996.31" y="812.75" width="5" height="66.98"/><rect class="cls-6" x="1030.13" y="501.44" width="5" height="66.98"/><rect class="cls-6" x="1030.13" y="579.26" width="5" height="66.98"/><rect class="cls-6" x="1030.13" y="657.09" width="5" height="66.98"/><rect class="cls-6" x="1030.13" y="734.92" width="5" height="66.98"/><rect class="cls-6" x="1030.13" y="812.75" width="5" height="66.98"/><rect class="cls-2" x="729.81" y="444.38" width="335.85" height="5"/><path class="cls-2" d="M934.21,1040.33V926.84h39.65v113.49Zm44.65,0V926.84h39.65v113.49Zm86.8-113.49v-5H887.06v5h42.15v113.49H887v5h178.63v-5h-42.15V926.84Z"/><polygon class="cls-8" points="708.47 745.36 708.47 1060.46 400 1060.46 400 740.25 551.22 611.55 551.23 611.54 551.26 611.56 708.47 745.36"/><rect class="cls-2" x="708.47" y="745.36" width="173.34" height="315.1"/><rect class="cls-1" x="738.16" y="795.27" width="12.05" height="30.13"/><rect class="cls-1" x="773.88" y="795.27" width="12.05" height="30.13"/><rect class="cls-1" x="809.6" y="795.27" width="12.05" height="30.13"/><rect class="cls-1" x="845.32" y="795.27" width="12.05" height="30.13"/><rect class="cls-1" x="738.16" y="859.16" width="12.05" height="30.13"/><rect class="cls-1" x="773.88" y="859.16" width="12.05" height="30.13"/><rect class="cls-1" x="809.6" y="859.16" width="12.05" height="30.13"/><rect class="cls-1" x="845.32" y="859.16" width="12.05" height="30.13"/><rect class="cls-1" x="738.16" y="923.05" width="12.05" height="30.13"/><rect class="cls-1" x="773.88" y="923.05" width="12.05" height="30.13"/><rect class="cls-1" x="809.6" y="923.05" width="12.05" height="30.13"/><rect class="cls-1" x="845.32" y="923.05" width="12.05" height="30.13"/><rect class="cls-1" x="738.16" y="986.93" width="12.05" height="30.13"/><rect class="cls-1" x="773.88" y="986.93" width="12.05" height="30.13"/><rect class="cls-1" x="809.6" y="986.93" width="12.05" height="30.13"/><rect class="cls-1" x="845.32" y="986.93" width="12.05" height="30.13"/><rect class="cls-8" x="708.47" y="1045.33" width="173.34" height="15.13"/><rect class="cls-8" x="708.47" y="745.27" width="173.34" height="15.13"/><polygon class="cls-10" points="887.07 745.36 708.47 745.36 551.22 611.52 729.81 611.52 887.07 745.36"/><rect class="cls-2" x="551.22" y="605.54" width="178.59" height="6"/><polygon class="cls-4" points="887.06 744.9 887.06 749.9 708.47 749.9 708.47 744.9 738.68 744.9 582.29 611.54 589.99 611.54 746.39 744.9 775.24 744.9 618.97 611.54 626.69 611.54 782.95 744.9 811.79 744.9 655.35 611.54 663.06 611.54 819.51 744.9 848.35 744.9 691.99 611.54 699.69 611.54 856.06 744.9 887.06 744.9"/><g id="Buildings-2" data-name="Buildings"><rect class="cls-2" x="1554.79" y="575.58" width="154.79" height="484.88"/><rect class="cls-8" x="1709.58" y="575.58" width="104.6" height="484.67"/><rect class="cls-1" x="1579.71" y="946.51" width="10.67" height="91.14"/><rect class="cls-1" x="1611.04" y="946.51" width="10.67" height="91.14"/><rect class="cls-1" x="1643.43" y="946.51" width="10.67" height="91.14"/><rect class="cls-1" x="1675.83" y="946.51" width="10.67" height="91.14"/><rect class="cls-6" x="1575.08" y="946.51" width="5" height="91.14"/><rect class="cls-6" x="1606.41" y="946.51" width="5" height="91.14"/><rect class="cls-6" x="1638.8" y="946.51" width="5" height="91.14"/><rect class="cls-6" x="1671.19" y="946.51" width="5" height="91.14"/><path class="cls-1" d="M1590.38,609.35V784a137.12,137.12,0,0,1-10.3-17.19c-.13-.25-.25-.5-.37-.75V609.35Z"/><path class="cls-1" d="M1621.71,609.35v206.7c-3.46-2.59-6.91-5.4-10.3-8.45l-.37-.34V609.35Z"/><path class="cls-1" d="M1654.1,609.35V835c-3.31-1.47-6.76-3.12-10.3-5l-.37-.2V609.35Z"/><path class="cls-1" d="M1686.5,609.35V845.59s-3.9-.68-10.31-2.53l-.36-.1V609.35Z"/><path class="cls-6" d="M1580.08,609.35V766.8q-2.68-5.31-5-11.09V609.35Z"/><path class="cls-6" d="M1611.41,609.35V807.6q-2.52-2.28-5-4.72V609.35Z"/><path class="cls-6" d="M1643.8,609.35V830q-2.46-1.31-5-2.74V609.35Z"/><path class="cls-6" d="M1676.19,609.35V843.06q-2.3-.66-5-1.54V609.35Z"/><polygon class="cls-11" points="1751.27 609.35 1751.27 716.75 1740.6 727.9 1740.6 609.35 1751.27 609.35"/><polygon class="cls-11" points="1783.66 609.35 1783.66 682.89 1772.99 694.04 1772.99 609.35 1783.66 609.35"/><rect class="cls-2" x="1554.79" y="560.72" width="259.39" height="5"/><rect class="cls-8" x="1916.28" y="784.35" width="263.94" height="276.1"/><polygon class="cls-2" points="1916.28 784.35 1916.28 1060.46 1712.08 1060.46 1712.08 1060.37 1714.58 1060.37 1714.58 781.74 1814.18 677.65 1916.28 784.35"/><circle class="cls-4" cx="1814.18" cy="752.51" r="15.11"/><polygon class="cls-8" points="1916.28 964.65 1916.28 969.65 1829.93 969.65 1829.93 1060.43 1824.93 1060.43 1824.93 969.65 1789.84 969.65 1789.84 1060.43 1784.84 1060.43 1784.84 969.65 1714.58 969.65 1714.58 964.65 1916.28 964.65"/><polygon class="cls-10" points="1814.18 677.65 2078.79 677.65 2180.28 784.35 1916.28 784.35 1814.18 677.65"/><rect class="cls-2" x="1814.18" y="672.65" width="264.66" height="5"/><polygon class="cls-4" points="2180.22 784.5 2180.22 789.5 1916.28 789.5 1916.28 784.5 1962.26 784.5 1860.02 677.65 1866.94 677.65 1969.18 784.5 2005.9 784.5 1903.31 677.65 1910.58 677.65 2012.82 784.5 2049.54 784.5 1947.3 677.65 1954.22 677.65 2056.46 784.5 2093.18 784.5 1990.93 677.65 1997.86 677.65 2100.1 784.5 2136.82 784.5 2034.58 677.65 2041.5 677.65 2143.74 784.5 2180.22 784.5"/><rect class="cls-3" x="1799.24" y="816.42" width="29.89" height="29.89"/><rect class="cls-3" x="1745.35" y="816.42" width="29.89" height="29.89"/><rect class="cls-3" x="1853.12" y="816.42" width="29.89" height="29.89"/><rect class="cls-3" x="1799.24" y="916.65" width="29.89" height="29.89"/><rect class="cls-3" x="1745.35" y="916.65" width="29.89" height="29.89"/><rect class="cls-3" x="1853.12" y="916.65" width="29.89" height="29.89"/><rect class="cls-3" x="1799.24" y="866.53" width="29.89" height="29.89"/><rect class="cls-3" x="1745.35" y="866.53" width="29.89" height="29.89"/><rect class="cls-3" x="1853.12" y="866.53" width="29.89" height="29.89"/><rect class="cls-4" x="1744.99" y="816.42" width="5" height="29.89"/><rect class="cls-4" x="1744.99" y="866.61" width="5" height="29.89"/><rect class="cls-4" x="1744.99" y="916.65" width="5" height="29.89"/><rect class="cls-4" x="1799.24" y="816.42" width="5" height="29.89"/><rect class="cls-4" x="1799.24" y="866.61" width="5" height="29.89"/><rect class="cls-4" x="1799.24" y="916.65" width="5" height="29.89"/><rect class="cls-4" x="1853.12" y="816.42" width="5" height="29.89"/><rect class="cls-4" x="1853.12" y="866.61" width="5" height="29.89"/><rect class="cls-4" x="1853.12" y="916.65" width="5" height="29.89"/><polygon class="cls-2" points="2052.23 1000 2052.23 1060.46 1970.49 1060.46 1970.49 916.65 2052.23 1000"/><rect class="cls-8" x="2052.23" y="1000" width="207.77" height="60.45"/><path class="cls-11" d="M2009.41,1000h0a13.89,13.89,0,0,1,13.89,13.89v46.56a0,0,0,0,1,0,0h-27.79a0,0,0,0,1,0,0V1013.9A13.89,13.89,0,0,1,2009.41,1000Z"/><polygon class="cls-10" points="2180.22 916.63 2260 1000 2052.23 1000 1970.49 916.65 2180.22 916.63"/><polygon class="cls-4" points="2260 1000.13 2260 1005.13 2052.23 1005.13 2052.23 1000.13 2092.17 1000.13 2012.26 916.63 2019.18 916.63 2099.08 1000.13 2135.81 1000.13 2055.9 916.63 2062.82 916.63 2142.72 1000.13 2179.45 1000.13 2099.54 916.63 2106.46 916.63 2186.36 1000.13 2223.09 1000.13 2143.18 916.63 2150.1 916.63 2230 1000.13 2260 1000.13"/><rect class="cls-2" x="1970.49" y="911.63" width="209.9" height="5"/><rect class="cls-11" x="2019.78" y="816.42" width="27.89" height="29.89"/><rect class="cls-11" x="2019.78" y="866.53" width="27.89" height="29.89"/><rect class="cls-11" x="1970.49" y="816.42" width="27.89" height="29.89"/><rect class="cls-11" x="1970.49" y="866.53" width="27.89" height="29.89"/><rect class="cls-11" x="2118.37" y="816.42" width="27.89" height="29.89"/><rect class="cls-11" x="2118.37" y="866.53" width="27.89" height="29.89"/><rect class="cls-11" x="2069.08" y="816.42" width="27.89" height="29.89"/><rect class="cls-11" x="2069.08" y="866.53" width="27.89" height="29.89"/><rect class="cls-5" x="1994.88" y="816.42" width="5" height="29.89"/><rect class="cls-5" x="1994.88" y="866.53" width="5" height="29.89"/><rect class="cls-5" x="2142.76" y="816.42" width="5" height="29.89"/><rect class="cls-5" x="2142.76" y="866.53" width="5" height="29.89"/><rect class="cls-5" x="2093.46" y="866.53" width="5" height="29.89"/><rect class="cls-5" x="2093.46" y="816.42" width="5" height="29.89"/><rect class="cls-5" x="2044.17" y="816.42" width="5" height="29.89"/><rect class="cls-5" x="2044.17" y="866.53" width="5" height="29.89"/></g><polygon class="cls-8" points="551.23 611.54 551.22 611.55 551.22 611.53 551.23 611.54"/><polygon class="cls-8" points="551.26 611.52 551.26 611.56 551.23 611.54 551.26 611.52"/><rect class="cls-2" x="400" y="898.55" width="308.47" height="161.91"/><rect class="cls-8" x="400" y="898.55" width="308.47" height="15.13"/><polygon class="cls-10" points="400 898.54 708.47 898.54 551.21 764.71 400 764.71 400 898.54"/><polygon class="cls-4" points="708.47 897.11 708.47 902.11 400 902.11 400 897.11 439.03 897.11 400 863.91 400 857.35 446.75 897.11 478.03 897.11 400 830.74 400 824.18 485.75 897.11 516.03 897.11 400 798.43 400 791.86 523.75 897.11 554.03 897.11 400 766.11 400 764.71 406.08 764.71 561.75 897.11 590.03 897.11 434.36 764.71 442.08 764.71 597.75 897.11 628.03 897.11 472.36 764.71 480.08 764.71 635.75 897.11 666.03 897.11 510.36 764.71 518.08 764.71 673.75 897.11 708.47 897.11"/><path class="cls-8" d="M677,996.24v64.17H582.73V996.24a47.12,47.12,0,0,1,94.23,0Z"/><path class="cls-7" d="M629.84,963.66h0a32.59,32.59,0,0,1,32.59,32.59v64.17a0,0,0,0,1,0,0H597.26a0,0,0,0,1,0,0V996.24A32.59,32.59,0,0,1,629.84,963.66Z"/><path class="cls-2" d="M677,993.74v5h-12v27.41h12v5h-12v29.26h-5V996.24a30.09,30.09,0,0,0-60.17,0v64.17h-5v-29.26h-12v-5h12V998.74h-12v-5h12.12A35,35,0,0,1,604.48,972L596,963.51a43.82,43.82,0,0,1,3.66-3.42l8.56,8.57a34.89,34.89,0,0,1,19.15-7.41V949.13h5v12.12a34.91,34.91,0,0,1,19.16,7.4l8.55-8.55c1.08.89,2.12,1.84,3.11,2.83.19.19.38.38.56.58L655.21,972a35,35,0,0,1,9.63,21.72Z"/><rect class="cls-1" x="441.16" y="923.05" width="12.05" height="30.13"/><rect class="cls-1" x="476.88" y="923.05" width="12.05" height="30.13"/><rect class="cls-1" x="512.6" y="923.05" width="12.05" height="30.13"/><rect class="cls-1" x="441.16" y="986.93" width="12.05" height="30.13"/><rect class="cls-1" x="476.88" y="986.93" width="12.05" height="30.13"/><rect class="cls-1" x="512.6" y="986.93" width="12.05" height="30.13"/><polygon class="cls-8" points="708.47 1045.33 708.47 1060.46 400 1060.46 400 1045.33 582.73 1045.33 582.73 1060.41 676.96 1060.41 676.96 1045.33 708.47 1045.33"/></g><g id="Bushes"><path class="cls-5" d="M1203.49,1049.47v11H1065.66V958.58h23.54a52.21,52.21,0,0,1,52.21,52.21v3h26.35A35.73,35.73,0,0,1,1203.49,1049.47Z"/><path class="cls-5" d="M1492.26,1060.46v-6.73A34.77,34.77,0,0,1,1527,1019h66a56.76,56.76,0,0,1,54.76-41.85h7.6a56.77,56.77,0,0,1,53.9,39h6.8A41.94,41.94,0,0,1,1758,1058v2.8Z"/></g><g id="Car"><path class="cls-8" d="M1720.86,1547.07H1411.68l49.83-57.42a40.18,40.18,0,0,1,30.35-13.84H1686.3a20,20,0,0,1,19.33,14.8Z"/><path class="cls-2" d="M1705.78,1491.17H1460.19l1.31-1.52a40.23,40.23,0,0,1,30.36-13.85H1686.3a20,20,0,0,1,19.33,14.81Z"/><rect class="cls-2" x="1572.58" y="1495.8" width="5" height="51.27"/><polygon class="cls-7" points="1707.03 1495.8 1456.17 1495.8 1460.51 1490.8 1705.68 1490.8 1707.03 1495.8"/><path class="cls-12" d="M1720.86,1547.07H1367.32a89.6,89.6,0,0,0-89.6,89.59v15.85h471.62Z"/><rect class="cls-5" x="1267.48" y="1636.24" width="488.14" height="29.52" rx="9.52"/><polygon class="cls-7" points="1745.17 1636.61 1277.72 1636.61 1277.72 1631.61 1743.81 1631.61 1745.17 1636.61"/><path class="cls-7" d="M1444,1636.5h-5c0-16.44-13.78-33.65-26.66-39.41l-1.48-.66v-49.36h5v46.16C1429.63,1600.18,1444,1618.17,1444,1636.5Z"/><rect class="cls-7" x="1572.58" y="1547.07" width="5" height="89.17"/><path class="cls-2" d="M1541.12,1558.86c-8.08,0-14.66,5.94-14.66,13.25s6.58,13.25,14.66,13.25,14.65-5.95,14.65-13.25S1549.2,1558.86,1541.12,1558.86Zm0,22.5c-5.09,0-9.35-3.11-10.4-7.25h10.4v-4h-10.4c1-4.14,5.31-7.25,10.4-7.25,5.87,0,10.65,4.15,10.65,9.25S1547,1581.36,1541.12,1581.36Z"/><circle class="cls-7" cx="1681.01" cy="1651.55" r="48.27"/><circle class="cls-5" cx="1681.01" cy="1651.55" r="38.62"/><path class="cls-2" d="M1681,1678.76a27.22,27.22,0,1,1,27.22-27.21A27.25,27.25,0,0,1,1681,1678.76Zm0-49.43a22.22,22.22,0,1,0,22.22,22.22A22.24,22.24,0,0,0,1681,1629.33Z"/><path class="cls-2" d="M1681,1597.35a54.63,54.63,0,0,0-50.62,34.26h6.67a48.26,48.26,0,0,1,87.91,0h6.67A54.64,54.64,0,0,0,1681,1597.35Z"/><circle class="cls-7" cx="1364.33" cy="1651.55" r="48.27"/><circle class="cls-5" cx="1364.33" cy="1651.55" r="38.62"/><path class="cls-2" d="M1364.33,1678.76a27.22,27.22,0,1,1,27.22-27.21A27.25,27.25,0,0,1,1364.33,1678.76Zm0-49.43a22.22,22.22,0,1,0,22.22,22.22A22.24,22.24,0,0,0,1364.33,1629.33Z"/><path class="cls-2" d="M1364.33,1597.35a54.63,54.63,0,0,0-50.62,34.26h6.67a48.26,48.26,0,0,1,87.91,0H1415A54.64,54.64,0,0,0,1364.33,1597.35Z"/></g><path id="Bridge" class="cls-4" d="M1709.58,875.68v-5c-41.45-.71-80.18-16.65-109.34-45.06a150.84,150.84,0,0,1-46.15-108.79V697.42h-5v19.41c0,84.85-71.54,153.88-159.48,153.88s-159.48-69-159.48-153.88V697.42h-5v19.41c0,84.85-71.54,153.88-159.47,153.88v5a169,169,0,0,0,29.89-2.64v27.34h-29.89v5h159.47v5.76H1065.66v5h159.47v25.1a38.37,38.37,0,0,0-33.34-19.43H1065.66v5h126.13a33.38,33.38,0,0,1,33.34,33.34v100.28h5V960.18a33.38,33.38,0,0,1,33.35-33.34h252.26a33.38,33.38,0,0,1,33.35,33.34v100.28h5V960.18a33.38,33.38,0,0,1,33.34-33.34h122.15v-5H1587.43a38.37,38.37,0,0,0-33.34,19.43v-25.1h155.49v-5H1554.09v-5.76h155.49v-5h-25.91V873.28A169.68,169.68,0,0,0,1709.58,875.68ZM1128,900.41h-27.4v-28.3a167.45,167.45,0,0,0,27.4-8.23Zm32.39,0H1133V861.79a165.48,165.48,0,0,0,27.39-15.12Zm32.4,0h-27.4V843.12a162.81,162.81,0,0,0,27.4-25.55Zm32.39,0h-27.39v-89a156.16,156.16,0,0,0,27.39-55.63Zm264.17-57.29a163.07,163.07,0,0,0,27.39-25.54v82.83H1489.3Zm-32.4,18.68a165.62,165.62,0,0,0,27.4-15.13v53.74h-27.4Zm-32.39,10.31a167,167,0,0,0,27.39-8.23v36.53h-27.39Zm-32.4,3.58a168,168,0,0,0,27.4-2.62v27.34h-27.4Zm-32.39-2.61a169,169,0,0,0,27.39,2.61v24.72h-27.39Zm-32.4-9.2a168.47,168.47,0,0,0,27.4,8.24v28.29h-27.4Zm-32.39-17.2a166.21,166.21,0,0,0,27.39,15.12v38.61h-27.39Zm-32.4-29.1a163.22,163.22,0,0,0,27.4,25.55v57.28h-27.4Zm-32.4-61.81a156,156,0,0,0,27.4,55.65v89h-27.4Zm319,185.5a38.37,38.37,0,0,0-33.35-19.43H1263.48a38.38,38.38,0,0,0-33.35,19.43v-25.1h319Zm0-30.1h-319v-5.76h319Zm0-10.76h-27.4v-89a156,156,0,0,0,27.4-55.65Zm32.39,0h-27.39V756.24a155.17,155.17,0,0,0,27.39,55.81Zm32.4,0h-27.4V818.22q4.83,5.68,10.27,11a162.58,162.58,0,0,0,17.13,14.54Zm32.39,0h-27.39V847.27a162.59,162.59,0,0,0,27.39,15Zm32.4,0h-27.4v-36.1a165.54,165.54,0,0,0,27.4,8Z"/><g id="Boulevard"><path class="cls-11" d="M1373.2,1218.12v177.73a58.63,58.63,0,0,1-58.62,58.62H400v-295h914.58A58.62,58.62,0,0,1,1373.2,1218.12Z"/><path class="cls-11" d="M2260,1159.5v295H1774.61c-34.54,0-62.53-27.5-62.53-61.43V1220.94c0-33.94,28-61.44,62.53-61.44Z"/><g id="Walk"><rect class="cls-8" x="400" y="1273.03" width="973.2" height="56.36"/><rect class="cls-2" x="400" y="1270.53" width="973.2" height="5"/><rect class="cls-2" x="400" y="1326.89" width="973.2" height="5"/><rect class="cls-8" x="1712.07" y="1273.03" width="547.93" height="56.36"/><rect class="cls-2" x="1712.07" y="1326.89" width="547.93" height="5"/><rect class="cls-2" x="1712.07" y="1270.53" width="547.92" height="5"/></g><polygon class="cls-2" points="2260 1144.55 2260 1149.55 2243.07 1149.55 2243.07 1159.98 2238.07 1159.98 2238.07 1149.55 2184.33 1149.55 2184.33 1159.98 2179.33 1159.98 2179.33 1149.55 2125.58 1149.55 2125.58 1159.98 2120.58 1159.98 2120.58 1149.55 2066.82 1149.55 2066.82 1159.98 2061.82 1159.98 2061.82 1149.55 2008.07 1149.55 2008.07 1159.98 2003.07 1159.98 2003.07 1149.55 1949.33 1149.55 1949.33 1159.98 1944.33 1159.98 1944.33 1149.55 1890.58 1149.55 1890.58 1159.98 1885.58 1159.98 1885.58 1149.55 1831.83 1149.55 1831.83 1159.98 1826.83 1159.98 1826.83 1149.55 1774.14 1149.55 1774.14 1159.98 1769.14 1159.98 1769.14 1144.55 2260 1144.55"/><polygon class="cls-2" points="1316.11 1144.55 1316.11 1159.98 1311.11 1159.98 1311.11 1149.55 1258.43 1149.55 1258.43 1159.98 1253.43 1159.98 1253.43 1149.55 1199.69 1149.55 1199.69 1159.98 1194.69 1159.98 1194.69 1149.55 1140.94 1149.55 1140.94 1159.98 1135.94 1159.98 1135.94 1149.55 1082.2 1149.55 1082.2 1159.98 1077.2 1159.98 1077.2 1149.55 1023.45 1149.55 1023.45 1159.98 1018.45 1159.98 1018.45 1149.55 964.71 1149.55 964.71 1159.98 959.71 1159.98 959.71 1149.55 905.96 1149.55 905.96 1159.98 900.96 1159.98 900.96 1149.55 847.21 1149.55 847.21 1159.98 842.21 1159.98 842.21 1149.55 788.47 1149.55 788.47 1159.98 783.47 1159.98 783.47 1149.55 729.72 1149.55 729.72 1159.98 724.72 1159.98 724.72 1149.55 670.98 1149.55 670.98 1159.98 665.98 1159.98 665.98 1149.55 612.23 1149.55 612.23 1159.98 607.23 1159.98 607.23 1149.55 553.69 1149.55 553.69 1159.98 548.69 1159.98 548.69 1149.55 494.94 1149.55 494.94 1159.98 489.94 1159.98 489.94 1149.55 436.2 1149.55 436.2 1159.98 431.2 1159.98 431.2 1149.55 400 1149.55 400 1144.55 1316.11 1144.55"/><path class="cls-11" d="M1321.46,1471.91H400v-5h921.46a46.77,46.77,0,0,0,46.73-46.7V1333h5v87.17A51.78,51.78,0,0,1,1321.46,1471.91Z"/><path class="cls-11" d="M2260,1471.91H1763.8a51.78,51.78,0,0,1-51.73-51.7V1333h5v87.17a46.76,46.76,0,0,0,46.72,46.7H2260Z"/><rect class="cls-2" x="1918.24" y="1231.91" width="63.22" height="5.33"/><path class="cls-13" d="M1913.24,1226.91v19.87h-9.12a10.2,10.2,0,0,0-10.18,10.18v12.19h5V1257a5.18,5.18,0,0,1,5.18-5.18h9.12v17.37h5v-17.37h46.69a10,10,0,0,0-1.43,5.18v12.19h5V1257a5.19,5.19,0,0,1,5.19-5.18h7.77v17.37h5v-42.24Zm68.22,19.87h-63.22v-14.87h63.22Z"/><path class="cls-13" d="M717.23,1246.83h-9.12V1227H634.9v42.25h5v-17.37h7.77a5.19,5.19,0,0,1,5.18,5.18v12.19h5V1257a10.14,10.14,0,0,0-1.42-5.18h46.68v17.37h5v-17.37h9.12a5.18,5.18,0,0,1,5.18,5.18v12.19h5V1257A10.18,10.18,0,0,0,717.23,1246.83Zm-77.33,0V1232h63.21v14.88Z"/><rect class="cls-2" x="639.9" y="1231.95" width="63.21" height="5.34"/><path class="cls-13" d="M1145.09,1246.83H1136V1227h-73.22v42.25h5v-17.37h7.77a5.19,5.19,0,0,1,5.18,5.18v12.19h5V1257a10.14,10.14,0,0,0-1.42-5.18H1131v17.37h5v-17.37h9.11a5.19,5.19,0,0,1,5.19,5.18v12.19h5V1257A10.19,10.19,0,0,0,1145.09,1246.83Zm-77.33,0V1232H1131v14.88Z"/><rect class="cls-2" x="1067.76" y="1231.95" width="63.22" height="5.34"/><g id="Trees_Bushes" data-name="Trees &amp; Bushes"><path class="cls-4" d="M742.71,1229.17h28A114.81,114.81,0,0,1,885.51,1344v28a0,0,0,0,1,0,0h-28a114.81,114.81,0,0,1-114.81-114.81v-28A0,0,0,0,1,742.71,1229.17Z" transform="translate(1158.09 -194.74) rotate(45)"/><rect class="cls-13" x="811.61" y="1318.88" width="5" height="135.59"/><path class="cls-5" d="M936.91,1378.24a33.45,33.45,0,1,1-56.38-24.35,29,29,0,1,1,47.19,1.32A33.37,33.37,0,0,1,936.91,1378.24Z"/><rect class="cls-13" x="900.96" y="1384.7" width="5" height="69.78"/><path class="cls-4" d="M1899,1170.3a39,39,0,1,1-63.61-30.25,30.42,30.42,0,1,1,50.73,1.3A38.9,38.9,0,0,1,1899,1170.3Z"/><rect class="cls-13" x="1857.47" y="1187.22" width="5" height="45.98"/><path class="cls-5" d="M2260,1333v121.43H1889.29v-22.53a58.23,58.23,0,0,1,58.23-58.23H2020a82.8,82.8,0,0,1-3.78-24.83v-11.13a83.07,83.07,0,0,1,83.06-83.07h13.3a86.22,86.22,0,0,1,85.85,78.36Z"/><path class="cls-11" d="M2088.53,1380.79a21.59,21.59,0,0,1,0,29.69A21.59,21.59,0,0,1,2088.53,1380.79Z"/><path class="cls-11" d="M2054.89,1405.57a21.59,21.59,0,0,1,28.41,8.63A21.59,21.59,0,0,1,2054.89,1405.57Z"/><path class="cls-5" d="M1986.41,1345.48a21.6,21.6,0,0,1,22.82,19A21.59,21.59,0,0,1,1986.41,1345.48Z"/><path class="cls-5" d="M802.38,1441.56v12.91H471.21v-14a86.6,86.6,0,0,1,86.6-86.59h33.77a72.13,72.13,0,0,1,68.8,50.49H765.15A37.23,37.23,0,0,1,802.38,1441.56Z"/><path class="cls-11" d="M620.34,1391.52a21.59,21.59,0,0,1,26.69,13A21.6,21.6,0,0,1,620.34,1391.52Z"/><path class="cls-5" d="M682.77,1373.27a21.59,21.59,0,0,1-17.9,23.69A21.59,21.59,0,0,1,682.77,1373.27Z"/><path class="cls-5" d="M1034.48,1269.2H922.55a39.63,39.63,0,0,1-3.22-15.71,40.78,40.78,0,0,1,.55-6.68c2.94-17.56,17.27-30.88,34.5-30.88,17.64,0,32.23,14,34.68,32.12.1.74.19,1.5.24,2.25a34.85,34.85,0,0,1,5.92-1.77,34.46,34.46,0,0,1,6.94-.7A35.54,35.54,0,0,1,1034.48,1269.2Z"/></g><polygon class="cls-2" points="1316.11 1436.91 1316.11 1454.47 1311.11 1454.47 1311.11 1441.91 1258.43 1441.91 1258.43 1454.47 1253.43 1454.47 1253.43 1441.91 1199.69 1441.91 1199.69 1454.47 1194.69 1454.47 1194.69 1441.91 1140.94 1441.91 1140.94 1454.47 1135.94 1454.47 1135.94 1441.91 1082.2 1441.91 1082.2 1454.47 1077.2 1454.47 1077.2 1441.91 1023.45 1441.91 1023.45 1454.47 1018.45 1454.47 1018.45 1441.91 964.71 1441.91 964.71 1454.47 959.71 1454.47 959.71 1441.91 905.96 1441.91 905.96 1454.47 900.96 1454.47 900.96 1441.91 847.21 1441.91 847.21 1454.47 842.21 1454.47 842.21 1441.91 788.47 1441.91 788.47 1454.47 783.47 1454.47 783.47 1441.91 729.72 1441.91 729.72 1454.47 724.72 1454.47 724.72 1441.91 670.98 1441.91 670.98 1454.47 665.98 1454.47 665.98 1441.91 612.23 1441.91 612.23 1454.47 607.23 1454.47 607.23 1441.91 553.69 1441.91 553.69 1454.47 548.69 1454.47 548.69 1441.91 494.94 1441.91 494.94 1454.47 489.94 1454.47 489.94 1441.91 436.2 1441.91 436.2 1454.47 431.2 1454.47 431.2 1441.91 400 1441.91 400 1436.91 1316.11 1436.91"/><polygon class="cls-2" points="2260 1436.91 2260 1441.91 2243.07 1441.91 2243.07 1454.47 2238.07 1454.47 2238.07 1441.91 2184.33 1441.91 2184.33 1454.47 2179.33 1454.47 2179.33 1441.91 2125.58 1441.91 2125.58 1454.47 2120.58 1454.47 2120.58 1441.91 2066.82 1441.91 2066.82 1454.47 2061.82 1454.47 2061.82 1441.91 2008.07 1441.91 2008.07 1454.47 2003.07 1454.47 2003.07 1441.91 1949.33 1441.91 1949.33 1454.47 1944.33 1454.47 1944.33 1441.91 1890.58 1441.91 1890.58 1454.47 1885.58 1454.47 1885.58 1441.91 1831.83 1441.91 1831.83 1454.47 1826.83 1454.47 1826.83 1441.91 1774.14 1441.91 1774.14 1454.47 1769.14 1454.47 1769.14 1436.91 2260 1436.91"/></g><g id="Traffic_lights" data-name="Traffic lights"><rect class="cls-2" x="1541.93" y="1060.61" width="92.73" height="29.75"/><circle class="cls-4" cx="1588.9" cy="1077.38" r="7.08"/><circle class="cls-12" cx="1564.24" cy="1077.38" r="7.08"/><circle class="cls-8" cx="1613.57" cy="1077.38" r="7.08"/><path class="cls-2" d="M1717.07,1272.32h-5V1119a53.55,53.55,0,0,0-53.5-53.49H1541.93v-5h116.64a58.56,58.56,0,0,1,58.5,58.49Z"/></g></svg>