<svg id="Слой_1" data-name="Слой 1" xmlns="http://www.w3.org/2000/svg" viewBox="0 0 2660 2000"><defs><style>.cls-1{fill:#b5ecef;}.cls-2{fill:#799a37;}.cls-3{fill:#68863c;}.cls-4{fill:#45774e;}.cls-5{fill:#285152;}.cls-6{fill:#fff;}.cls-7{fill:#eeb200;}.cls-8{fill:#ffc1ad;}.cls-9{fill:#ffb7ae;}.cls-10{fill:#f29b9f;}.cls-11{fill:#215c51;}.cls-12{fill:#ffdec5;}.cls-13{fill:#c99700;}.cls-14{fill:#c49400;}</style></defs><rect id="Background" class="cls-1" x="400" y="300" width="1860" height="1400"/><g id="Hills"><path class="cls-2" d="M2260,300V1700H400V595.35H618.23l333.64-40h88.72a131.23,131.23,0,0,0,78.62-26.15l149.88-112.08h466L1911.75,300Z"/><path class="cls-3" d="M2260,753.7V1700H400V717.27L752.43,483a119.69,119.69,0,0,1,134.31-3.65l90.57,57.91a115,115,0,0,0,61.9,18.09h601A105.49,105.49,0,0,1,1692.11,569L2018.47,753.7Z"/><path class="cls-4" d="M2260,901v799H400V1092.94L738.26,832.17a136.12,136.12,0,0,1,81.84-27.38h226.39l128.26-92.46a73.58,73.58,0,0,1,43-13.89H1495.7A115.21,115.21,0,0,1,1555.26,715l234.59,141.59A308.31,308.31,0,0,0,1949.17,901Z"/><path class="cls-5" d="M2260,1182.9V1700H400V1557.37h781.15a179.76,179.76,0,0,0,98.4-29.32l359.51-235.15a235.13,235.13,0,0,1,128.74-38.37h341V1182.9Z"/><path class="cls-2" d="M1112.65,802.29v5H820.1a134.35,134.35,0,0,0-80.33,26.88L400,1096.51v-6.73L736.74,830.19a139.45,139.45,0,0,1,83.36-27.9Z"/></g><path id="Sun" class="cls-6" d="M1047.45,324.4a95.58,95.58,0,1,1-188-24.4H1044.3A95.33,95.33,0,0,1,1047.45,324.4Z"/><g id="Birds"><path class="cls-6" d="M1118.28,454.4a7.05,7.05,0,0,1-5-2.08l-5.74-5.74a2.61,2.61,0,0,1,3.69-3.7l5.74,5.74a1.88,1.88,0,0,0,2.67,0l5.74-5.74a2.62,2.62,0,0,1,3.7,3.7l-5.74,5.74A7.09,7.09,0,0,1,1118.28,454.4Z"/><path class="cls-7" d="M1005.9,349.52a7,7,0,0,1-4.95-2l-5.74-5.74a2.5,2.5,0,0,1,3.54-3.54l5.74,5.74a2,2,0,0,0,2.83,0l5.74-5.74a2.5,2.5,0,1,1,3.53,3.54l-5.74,5.74A7,7,0,0,1,1005.9,349.52Z"/></g><g id="Great_Wall_of_China" data-name="Great Wall of China"><polygon class="cls-6" points="1911.75 300 1735.09 417.12 1348.91 417.12 1348.91 405.02 1355.49 405.02 1355.49 400.14 1362.11 400.14 1362.11 405.02 1369.36 405.02 1369.36 400.14 1375.98 400.14 1375.98 405.02 1383.23 405.02 1383.23 400.14 1389.86 400.14 1389.86 405.02 1397.11 405.02 1397.11 400.14 1403.73 400.14 1403.73 405.02 1410.98 405.02 1410.98 400.14 1417.61 400.14 1417.61 405.02 1424.85 405.02 1424.85 400.14 1431.48 400.14 1431.48 405.02 1438.73 405.02 1438.73 400.14 1445.35 400.14 1445.35 405.02 1452.6 405.02 1452.6 400.14 1459.23 400.14 1459.23 405.02 1466.48 405.02 1466.48 400.14 1473.1 400.14 1473.1 405.02 1480.35 405.02 1480.35 400.14 1486.97 400.14 1486.97 405.02 1494.22 405.02 1494.22 400.14 1500.85 400.14 1500.85 405.02 1508.1 405.02 1508.1 400.14 1514.72 400.14 1514.72 405.02 1521.97 405.02 1521.97 400.14 1528.59 400.14 1528.59 405.02 1535.84 405.02 1535.84 400.14 1542.47 400.14 1542.47 405.02 1549.72 405.02 1549.72 400.14 1556.34 400.14 1556.34 405.02 1563.59 405.02 1563.59 400.14 1570.22 400.14 1570.22 405.02 1577.46 405.02 1577.46 400.14 1584.09 400.14 1584.09 405.02 1591.34 405.02 1591.34 400.14 1597.96 400.14 1597.96 405.02 1605.21 405.02 1605.21 400.14 1611.84 400.14 1611.84 405.02 1619.09 405.02 1619.09 400.14 1625.71 400.14 1625.71 405.02 1632.96 405.02 1632.96 400.14 1639.58 400.14 1639.58 405.02 1646.83 405.02 1646.83 400.14 1653.46 400.14 1653.46 405.02 1660.71 405.02 1660.71 400.14 1667.33 400.14 1667.33 405.02 1674.58 405.02 1674.58 400.14 1681.21 400.14 1681.21 405.02 1688.45 405.02 1688.45 400.14 1695.08 400.14 1695.08 405.02 1702.33 405.02 1702.33 400.14 1708.95 400.14 1708.95 405.02 1716.2 405.02 1716.2 400.14 1722.83 400.14 1722.83 405.02 1729.04 405.02 1729.52 404.7 1729.52 395.87 1737.21 395.87 1737.21 399.6 1744.17 394.99 1744.17 387.49 1751.87 387.49 1751.87 389.88 1758.83 385.27 1758.83 377.7 1766.53 377.7 1766.53 380.17 1772.42 376.26 1772.42 369.21 1780.12 369.21 1780.12 371.16 1786.02 367.24 1786.02 361.03 1793.71 361.03 1793.71 362.15 1800.67 357.53 1800.67 351.57 1808.37 351.57 1808.37 352.43 1814.27 348.52 1814.27 342.85 1821.96 342.85 1821.96 343.42 1827.86 339.51 1827.86 334.36 1835.55 334.36 1835.55 334.41 1841.45 330.5 1841.45 324.4 1850.21 324.4 1850.21 324.69 1855.04 321.49 1855.04 314.94 1863.8 314.94 1863.8 315.68 1868.63 312.48 1868.63 306.37 1877.84 306.37 1887.45 300 1911.75 300"/><polygon class="cls-8" points="1315.84 363.18 1315.84 417.05 1348.91 417.05 1348.91 363.18 1342.29 363.18 1342.29 369.38 1335.68 369.38 1335.68 363.18 1329.07 363.18 1329.07 369.38 1322.45 369.38 1322.45 363.18 1315.84 363.18"/><polygon class="cls-6" points="1269.53 363.18 1269.53 417.05 1315.84 417.05 1315.84 363.18 1309.22 363.18 1309.22 369.38 1302.6 369.38 1302.6 363.18 1295.99 363.18 1295.99 369.38 1289.37 369.38 1289.37 363.18 1282.76 363.18 1282.76 369.38 1276.14 369.38 1276.14 363.18 1269.53 363.18"/><path class="cls-2" d="M1279.44,379.44h.3a2.24,2.24,0,0,1,2.24,2.24v4.64a0,0,0,0,1,0,0h-4.78a0,0,0,0,1,0,0v-4.64A2.24,2.24,0,0,1,1279.44,379.44Z"/><path class="cls-2" d="M1292.58,379.44h.3a2.24,2.24,0,0,1,2.24,2.24v4.64a0,0,0,0,1,0,0h-4.78a0,0,0,0,1,0,0v-4.64A2.24,2.24,0,0,1,1292.58,379.44Z"/><path class="cls-2" d="M1305.73,379.44h.3a2.24,2.24,0,0,1,2.24,2.24v4.64a0,0,0,0,1,0,0h-4.78a0,0,0,0,1,0,0v-4.64A2.24,2.24,0,0,1,1305.73,379.44Z"/><path class="cls-4" d="M1326.29,379.44h.3a2.24,2.24,0,0,1,2.24,2.24v4.64a0,0,0,0,1,0,0H1324a0,0,0,0,1,0,0v-4.64A2.24,2.24,0,0,1,1326.29,379.44Z"/><path class="cls-4" d="M1339.05,379.44h.3a2.24,2.24,0,0,1,2.24,2.24v4.64a0,0,0,0,1,0,0h-4.78a0,0,0,0,1,0,0v-4.64A2.24,2.24,0,0,1,1339.05,379.44Z"/><polygon class="cls-6" points="1511.89 555.36 1332.37 417.05 1321.89 417.05 1321.89 404.95 1332.37 404.95 1511.89 543.26 1511.89 555.36"/><polygon class="cls-9" points="1511.89 530.87 1348.91 404.95 1332.37 404.95 1511.89 543.26 1511.89 530.87"/><polygon class="cls-9" points="1591.47 462.78 1591.47 555.36 1648.31 555.36 1648.31 462.78 1636.93 462.78 1636.93 473.43 1625.57 473.43 1625.57 462.78 1614.2 462.78 1614.2 473.43 1602.83 473.43 1602.83 462.78 1591.47 462.78"/><polygon class="cls-6" points="1511.89 462.78 1511.89 555.36 1591.47 555.36 1591.47 462.78 1580.1 462.78 1580.1 473.43 1568.73 473.43 1568.73 462.78 1557.36 462.78 1557.36 473.43 1545.99 473.43 1545.99 462.78 1534.62 462.78 1534.62 473.43 1523.26 473.43 1523.26 462.78 1511.89 462.78"/><path class="cls-4" d="M1630.92,492.62h.54a4,4,0,0,1,4,4v8.29a0,0,0,0,1,0,0h-8.54a0,0,0,0,1,0,0v-8.29A4,4,0,0,1,1630.92,492.62Z"/><path class="cls-4" d="M1608.92,492.62h.54a4,4,0,0,1,4,4v8.29a0,0,0,0,1,0,0h-8.54a0,0,0,0,1,0,0v-8.29A4,4,0,0,1,1608.92,492.62Z"/><path class="cls-2" d="M1574.13,492.62h.54a4,4,0,0,1,4,4v8.29a0,0,0,0,1,0,0h-8.54a0,0,0,0,1,0,0v-8.29A4,4,0,0,1,1574.13,492.62Z"/><path class="cls-2" d="M1551.44,492.62h.54a4,4,0,0,1,4,4v8.29a0,0,0,0,1,0,0h-8.54a0,0,0,0,1,0,0v-8.29a4,4,0,0,1,4-4Z"/><path class="cls-2" d="M1528.76,492.62h.54a4,4,0,0,1,4,4v8.29a0,0,0,0,1,0,0h-8.54a0,0,0,0,1,0,0v-8.29A4,4,0,0,1,1528.76,492.62Z"/><path class="cls-9" d="M1555,540.23v15.13h-3.85a19.26,19.26,0,0,0-12.55,4.66L1426.5,656.79V635.41h6.76v-8.74h9.91l0,0v-8.78h9.56v-8.34h9.82l.12-.11v-8.7h9.85l.1-.09V592h9.79l.14-.12h0v-8.68h9.83l.11-.1v-9.84h9.94v-8.81h9.94v-9h9.95v-8.5h9.94v-6.63Z"/><path class="cls-6" d="M1562.32,540.23v15.24a19.18,19.18,0,0,0-10.56,4.56L1426.5,668.12v-23.9h9.94v-8.81h10v-8.74h9.91l0,0v-8.79h9.56v-8.34h9.83l.11-.1v-8.71h9.86l.09-.08V592h9.8l.14-.12v-8.69h9.84l.1-.09v-9.85h9.94v-8.81h9.94v-9h10v-8.5h9.94v-6.63Z"/><polygon class="cls-9" points="1562.32 540.23 1562.32 555.47 1575.63 555.47 1562.32 540.23"/><polygon class="cls-6" points="1303.51 555.36 1303.51 698.44 1215.67 698.44 1215.67 555.36 1233.24 555.36 1233.24 566.49 1250.81 566.49 1250.81 555.36 1268.38 555.36 1268.38 566.49 1285.95 566.49 1285.95 555.36 1303.51 555.36"/><polygon class="cls-9" points="1426.5 555.36 1426.5 698.44 1303.51 698.44 1303.51 555.36 1321.08 555.36 1321.08 566.49 1338.66 566.49 1338.66 555.36 1356.22 555.36 1356.22 566.49 1373.79 566.49 1373.79 555.36 1391.37 555.36 1391.37 566.49 1408.93 566.49 1408.93 555.36 1426.5 555.36"/><path class="cls-4" d="M1394.23,601h11.87a0,0,0,0,1,0,0V612.5a5.56,5.56,0,0,1-5.56,5.56h-.75a5.56,5.56,0,0,1-5.56-5.56V601A0,0,0,0,1,1394.23,601Z" transform="translate(2800.33 1219.05) rotate(180)"/><path class="cls-4" d="M1359.59,601h11.87a0,0,0,0,1,0,0V612.5a5.56,5.56,0,0,1-5.56,5.56h-.75a5.56,5.56,0,0,1-5.56-5.56V601A0,0,0,0,1,1359.59,601Z" transform="translate(2731.05 1219.05) rotate(180)"/><path class="cls-4" d="M1324.95,601h11.87a0,0,0,0,1,0,0V612.5a5.56,5.56,0,0,1-5.56,5.56h-.75a5.56,5.56,0,0,1-5.56-5.56V601A0,0,0,0,1,1324.95,601Z" transform="translate(2661.77 1219.05) rotate(180)"/><path class="cls-2" d="M1271,601h11.87a0,0,0,0,1,0,0V612.5a5.56,5.56,0,0,1-5.56,5.56h-.75a5.56,5.56,0,0,1-5.56-5.56V601A0,0,0,0,1,1271,601Z" transform="translate(2553.82 1219.05) rotate(180)"/><path class="cls-2" d="M1236.33,601h11.87a0,0,0,0,1,0,0V612.5a5.56,5.56,0,0,1-5.56,5.56h-.75a5.56,5.56,0,0,1-5.56-5.56V601A0,0,0,0,1,1236.33,601Z" transform="translate(2484.54 1219.05) rotate(180)"/><polygon class="cls-10" points="1726.44 1040.03 1726.44 1067.78 1710.66 1067.78 1710.66 1055.62 1698.52 1055.62 1698.52 1040.41 1684.83 1040.41 1684.83 1024.83 1670.12 1024.83 1670.12 1009.01 1654.32 1009.01 1654.32 994.28 1640.12 994.28 1640.12 978.66 1627.15 978.66 1627.15 963.92 1613.39 963.92 1613.39 950.15 1600.43 950.15 1600.43 935.41 1586.22 935.41 1586.22 919.78 1573.27 919.78 1573.27 905.05 1560.4 905.05 1560.4 890.75 1547.45 890.75 1547.45 876.01 1533.24 876.01 1533.24 860.39 1520.28 860.39 1520.28 845.66 1506.52 845.66 1506.52 831.88 1493.55 831.88 1493.55 817.15 1479.35 817.15 1479.35 801.53 1466.39 801.53 1466.39 786.79 1452.93 786.79 1452.93 772.09 1439.97 772.09 1439.97 757.34 1425.77 757.34 1425.77 741.72 1412.82 741.72 1412.82 726.99 1399.04 726.99 1399.04 713.21 1385.96 713.21 1385.96 698.48 1371.88 698.48 1371.88 682.86 1396.15 682.86 1396.15 699.14 1410.22 699.14 1410.22 714.76 1423.31 714.76 1423.31 729.5 1437.08 729.5 1437.08 743.27 1450.03 743.27 1450.03 758 1464.24 758 1464.24 773.63 1477.2 773.63 1477.2 788.36 1490.65 788.36 1490.65 803.07 1503.62 803.07 1503.62 817.81 1517.82 817.81 1517.82 833.43 1530.78 833.43 1530.78 848.16 1544.55 848.16 1544.55 861.94 1557.51 861.94 1557.51 876.67 1571.71 876.67 1571.71 892.3 1584.66 892.3 1584.66 907.03 1597.53 907.03 1597.53 921.33 1610.49 921.33 1610.49 936.06 1624.7 936.06 1624.7 951.68 1637.65 951.68 1637.65 966.43 1651.41 966.43 1651.41 980.19 1664.38 980.19 1664.38 994.94 1678.58 994.94 1678.58 1010.56 1694.38 1010.56 1694.38 1025.3 1710.16 1025.3 1710.16 1040.03 1726.44 1040.03"/><polygon class="cls-9" points="1726.44 1023.76 1726.44 1040.03 1710.16 1040.03 1710.16 1025.3 1694.38 1025.3 1694.38 1010.56 1678.58 1010.56 1678.58 994.94 1664.38 994.94 1664.38 980.19 1651.41 980.19 1651.41 966.43 1637.65 966.43 1637.65 951.68 1624.7 951.68 1624.7 936.06 1610.49 936.06 1610.49 921.33 1597.53 921.33 1597.53 907.03 1584.66 907.03 1584.66 892.3 1571.71 892.3 1571.71 876.67 1557.51 876.67 1557.51 861.94 1544.55 861.94 1544.55 848.16 1530.78 848.16 1530.78 833.43 1517.82 833.43 1517.82 817.81 1503.62 817.81 1503.62 803.07 1490.65 803.07 1490.65 788.36 1477.2 788.36 1477.2 773.63 1464.24 773.63 1464.24 758 1450.03 758 1450.03 743.27 1437.08 743.27 1437.08 729.5 1423.31 729.5 1423.31 714.76 1410.22 714.76 1410.22 699.14 1396.15 699.14 1396.15 682.86 1383.18 682.86 1383.18 668.12 1399.47 668.12 1399.47 682.86 1412.43 682.86 1412.43 698.48 1426.5 698.48 1426.5 713.21 1439.59 713.21 1439.59 726.99 1453.36 726.99 1453.36 741.72 1466.31 741.72 1466.31 757.34 1480.52 757.34 1480.52 772.09 1493.48 772.09 1493.48 786.79 1506.93 786.79 1506.93 801.53 1519.9 801.53 1519.9 817.15 1534.1 817.15 1534.1 831.88 1547.06 831.88 1547.06 845.66 1560.83 845.66 1560.83 860.39 1573.79 860.39 1573.79 876.01 1587.99 876.01 1587.99 890.75 1600.95 890.75 1600.95 905.05 1613.81 905.05 1613.81 919.78 1626.77 919.78 1626.77 935.41 1640.98 935.41 1640.98 950.15 1653.93 950.15 1653.93 963.92 1667.7 963.92 1667.7 978.66 1680.66 978.66 1680.66 994.28 1694.86 994.28 1694.86 1009.01 1710.66 1009.01 1710.66 1023.76 1726.44 1023.76"/><path class="cls-6" d="M1726.44,1067.78v31.16h-5.25a31.4,31.4,0,0,1-23.3-10.36L1356.7,710.52a36.54,36.54,0,0,0-27.15-12.07h-5.71V668.2h35.08v14.53l.12.13h12.84v15.62H1386v14.73H1399V727h13.77v14.73h13v15.62H1440v14.75h13v14.7h13.46v14.74h13v15.62h14.2v14.73h13v13.78h13.76v14.73h13V876h14.2v14.74h13v14.3h12.87v14.73h13v15.63h14.21v14.74h13v13.77h13.76v14.74h13v15.62h14.21V1009h15.8v15.82h14.71v15.58h13.69v15.21h12.14v12.16Z"/><polygon class="cls-9" points="2108.79 1023.75 2108.79 1254.53 1917.62 1254.53 1917.62 1023.75 1957.99 1023.75 1957.99 1046.42 1994.09 1046.42 1994.09 1023.75 2032.32 1023.75 2032.32 1046.42 2070.56 1046.42 2070.56 1023.75 2108.79 1023.75"/><rect class="cls-6" x="1976.48" y="1023.75" width="21.34" height="22.66"/><rect class="cls-6" x="2052.95" y="1023.75" width="21.34" height="22.66"/><path class="cls-4" d="M2054.23,1107.53h1.71a12.74,12.74,0,0,1,12.74,12.74v26.4a0,0,0,0,1,0,0h-27.19a0,0,0,0,1,0,0v-26.4A12.74,12.74,0,0,1,2054.23,1107.53Z"/><path class="cls-11" d="M2045.58,1111.38a13.54,13.54,0,0,1,13.24,13.54v21.75h9.86v-25.6a13.54,13.54,0,0,0-13.54-13.54H2055A13.48,13.48,0,0,0,2045.58,1111.38Z"/><rect class="cls-10" x="2041.49" y="1143.87" width="27.19" height="8"/><path class="cls-4" d="M1977.76,1107.53h1.71a12.74,12.74,0,0,1,12.74,12.74v26.4a0,0,0,0,1,0,0H1965a0,0,0,0,1,0,0v-26.4a12.74,12.74,0,0,1,12.74-12.74Z"/><path class="cls-11" d="M1969.11,1111.38a13.54,13.54,0,0,1,13.24,13.54v21.75h9.86v-25.6a13.54,13.54,0,0,0-13.54-13.54h-.11A13.48,13.48,0,0,0,1969.11,1111.38Z"/><rect class="cls-10" x="1965.02" y="1143.87" width="27.19" height="8"/><rect class="cls-10" x="1917.62" y="1076.4" width="20.05" height="4"/><rect class="cls-10" x="2088.74" y="1168.9" width="20.05" height="4"/><polygon class="cls-6" points="1917.62 1023.75 1917.62 1254.53 1726.44 1254.53 1726.44 1023.75 1764.68 1023.75 1764.68 1046.42 1802.91 1046.42 1802.91 1023.75 1841.14 1023.75 1841.14 1046.42 1877.25 1046.42 1877.25 1023.75 1917.62 1023.75"/><rect class="cls-10" x="1762.02" y="1023.75" width="21.34" height="22.66"/><rect class="cls-10" x="1839.54" y="1023.75" width="21.34" height="22.66"/><path class="cls-2" d="M1770.81,1107.53h26.32a0,0,0,0,1,0,0v22.78a12.33,12.33,0,0,1-12.33,12.33h-1.65a12.33,12.33,0,0,1-12.33-12.33v-22.78A0,0,0,0,1,1770.81,1107.53Z" transform="translate(3567.94 2250.17) rotate(-180)"/><path class="cls-4" d="M1793.17,1111.26a13.1,13.1,0,0,0-12.81,13.1v18.28h-9.55v-22a13.1,13.1,0,0,1,13.11-13.11h.1A13,13,0,0,1,1793.17,1111.26Z"/><path class="cls-2" d="M1841.5,1107.53h26.32a0,0,0,0,1,0,0v22.78a12.33,12.33,0,0,1-12.33,12.33h-1.65a12.33,12.33,0,0,1-12.33-12.33v-22.78A0,0,0,0,1,1841.5,1107.53Z" transform="translate(3709.32 2250.17) rotate(-180)"/><path class="cls-4" d="M1863.86,1111.26a13.1,13.1,0,0,0-12.81,13.1v18.28h-9.55v-22a13.1,13.1,0,0,1,13.11-13.11h.1A13,13,0,0,1,1863.86,1111.26Z"/><rect class="cls-12" x="1897.57" y="1076.4" width="20.05" height="4"/><path class="cls-8" d="M1186.32,1557.37h-23v-93h13.7a55,55,0,0,0,29.58-8.63l430.84-275a116,116,0,0,1,62.43-18.23h167.91v92H1757.6a201,201,0,0,0-110,32.78l-372.35,243.55A162.47,162.47,0,0,1,1186.32,1557.37Z"/><path class="cls-10" d="M1867.82,1161.76v8h-62.46v15.81h-10v-15.81h-61.62v15.81h-10v-15.81h-29.46a92.58,92.58,0,0,0-32.16,5.75v19.66h-10v-15.28q-4,2-7.75,4.44l-54.49,34.78h.63v19.81h-10v-13.83L1518,1265h.9v19.81h-10v-14l-61.62,39.33v21.62h-10v-15.24l-61.61,39.32v20.73h-10v-14.35L1304,1401.57h0v21.94h-10v-15.59l-61.62,39.33v18.94h-10v-12.56l-13.63,8.7a58.84,58.84,0,0,1-31.73,9.26h-13.7v-8h13.7a50.88,50.88,0,0,0,27.43-8l435.58-278a100.63,100.63,0,0,1,54.21-15.83Z"/><path class="cls-6" d="M959.32,1129h-136c-43.13-7.92-80.39-31-102.51-63.54h136C878.93,1098.05,916.19,1121.11,959.32,1129Z"/><path class="cls-10" d="M823.28,1129v107.53h-205V1129a171.13,171.13,0,0,0,58.11-21.88,144.09,144.09,0,0,0,44.43-41.66C742.89,1098,780.15,1121.1,823.28,1129Z"/><rect class="cls-1" x="721.01" y="1049.51" width="135.78" height="15.97"/><rect class="cls-12" x="823.28" y="1129.02" width="136.03" height="107.53"/><rect class="cls-10" x="823.28" y="1129.02" width="136.03" height="13.02"/><path class="cls-1" d="M959.32,1133H822.92l-.36-.07c-44.13-8.1-82.44-31.87-105.1-65.22a4,4,0,1,1,6.61-4.5c21.41,31.51,57.69,54,99.58,61.79H959.32a4,4,0,1,1,0,8Z"/><path class="cls-6" d="M618.22,1133a4,4,0,0,1-.71-7.94,166.05,166.05,0,0,0,56.75-21.36,139.4,139.4,0,0,0,42.51-39.48v-10.77a4,4,0,0,1,8,0v13.24l-.7,1c-11.54,17-26.9,31.39-45.65,42.82A174.08,174.08,0,0,1,619,1133,3.61,3.61,0,0,1,618.22,1133Z"/><polygon class="cls-8" points="959.59 1236.25 959.59 1699.99 482.21 1699.99 482.21 1236.25 482.49 1236.25 482.49 1186.11 524.53 1186.11 524.53 1236.25 542.97 1236.25 542.97 1186.11 618.52 1186.11 618.52 1236.25 636.32 1236.25 636.32 1185.88 711.88 1185.88 711.88 1236.25 729.97 1236.25 729.97 1186.11 805.53 1186.11 805.53 1236.45 823.28 1236.45 823.28 1186.11 898.84 1186.11 898.84 1236.25 917.27 1236.25 917.27 1186.11 959.32 1186.11 959.32 1236.25 959.59 1236.25"/><path class="cls-5" d="M721.26,1308.09h0a89.36,89.36,0,0,1,89.36,89.36v66.94a0,0,0,0,1,0,0H631.9a0,0,0,0,1,0,0v-66.94a89.36,89.36,0,0,1,89.36-89.36Z"/><rect class="cls-10" x="938.29" y="1424.11" width="21.02" height="8"/><rect class="cls-10" x="551.21" y="1304.1" width="33.51" height="8"/><polygon class="cls-12" points="1163.37 1185.57 1163.37 1700 959.32 1700 959.32 1185.57 1016.86 1185.57 1016.86 1236.25 1032.87 1236.25 1032.87 1185.57 1090.14 1185.57 1090.14 1236.78 1106.14 1236.78 1106.14 1185.57 1163.37 1185.57"/><path class="cls-2" d="M1023.88,1308.1h2.07a15.46,15.46,0,0,1,15.46,15.46v32a0,0,0,0,1,0,0h-33a0,0,0,0,1,0,0v-32A15.46,15.46,0,0,1,1023.88,1308.1Z"/><path class="cls-11" d="M1013.38,1312.77a16.45,16.45,0,0,1,16.06,16.43v26.39h12v-31.06A16.43,16.43,0,0,0,1025,1308.1h-.13A16.34,16.34,0,0,0,1013.38,1312.77Z"/><rect class="cls-10" x="1008.41" y="1350.41" width="32.99" height="9"/><path class="cls-2" d="M1105.3,1308.1h2.07a15.46,15.46,0,0,1,15.46,15.46v32a0,0,0,0,1,0,0h-33a0,0,0,0,1,0,0v-32A15.46,15.46,0,0,1,1105.3,1308.1Z"/><path class="cls-11" d="M1094.81,1312.77a16.45,16.45,0,0,1,16.06,16.43v26.39h12v-31.06a16.43,16.43,0,0,0-16.44-16.43h-.13A16.3,16.3,0,0,0,1094.81,1312.77Z"/><rect class="cls-10" x="1089.84" y="1350.41" width="32.99" height="9"/><rect class="cls-8" x="959.32" y="1424.11" width="42.04" height="8"/><rect class="cls-8" x="1121.37" y="1464.12" width="42.04" height="8"/></g><g id="Trees"><path class="cls-13" d="M936.39,751.38H878.56c-8.66,14.34-23.06,20.69-39.35,20.69H719.54l1-3.17c4.43-7.17,8.25-11.53,16.68-11.53h12.49v-.15A29.58,29.58,0,0,1,792.87,731a63.23,63.23,0,0,1-1.63-14.32c0-30.6,21.48-55.4,48-55.4s48,24.8,48,55.4c0,1.29,0,2.56-.11,3.81a45.79,45.79,0,0,1,12.33-1.68C919.83,718.8,936.39,735.05,936.39,751.38Z"/><path class="cls-7" d="M722,772.07h-5a17.22,17.22,0,0,1,17.2-17.2h13a32.09,32.09,0,0,1,42.28-28,66.27,66.27,0,0,1-.78-10.19c0-31.93,22.64-57.9,50.47-57.9s50.47,26,50.47,57.9v.61a48.41,48.41,0,0,1,9.72-1c21,0,39.49,16.39,39.49,35.08h-5c0-14.2-14.75-30.08-34.49-30.08a42.84,42.84,0,0,0-11.66,1.59l-3.38,1,.21-3.5c.08-1.29.11-2.49.11-3.67,0-29.17-20.39-52.9-45.47-52.9s-45.47,23.73-45.47,52.9a60.55,60.55,0,0,0,1.57,13.76l1.24,5.3-4.83-2.52a27.09,27.09,0,0,0-39.56,24v2.65H734.24A12.21,12.21,0,0,0,722,772.07Z"/><rect class="cls-7" x="836.71" y="772.07" width="5" height="30.22"/><path class="cls-7" d="M1024.14,804.8H879.59c4.38-36.32,34-61.4,69.54-61.4S1014.29,768.48,1024.14,804.8Z"/><path class="cls-13" d="M972,804.8H879.38c2.8-23.28,21.81-39.36,44.57-39.36S965.72,781.52,972,804.8Z"/><path class="cls-7" d="M1042.58,469.4a19.54,19.54,0,0,0,19.51,19.51v5a24.47,24.47,0,0,1-19.51-9.69v2.3A19.53,19.53,0,0,0,1062.09,506v5a24.47,24.47,0,0,1-19.51-9.69v2.31h0a19.54,19.54,0,0,0,19.51,19.51v5a24.44,24.44,0,0,1-19.54-9.75v3.38h0a19.53,19.53,0,0,0,19.51,19.51v5a24.46,24.46,0,0,1-19.54-9.74v18.79h-5V536.64a24.46,24.46,0,0,1-19.48,9.66v-5a19.53,19.53,0,0,0,19.48-18.51v-4.3a24.44,24.44,0,0,1-19.48,9.67v-5a19.53,19.53,0,0,0,19.48-18.51v-3.32a24.46,24.46,0,0,1-19.51,9.7v-5a19.53,19.53,0,0,0,19.51-19.51V484.2a24.45,24.45,0,0,1-19.51,9.71v-5a19.54,19.54,0,0,0,19.51-19.51Z"/><path class="cls-7" d="M1957.91,642.93v4h-18.13a21.12,21.12,0,0,0-21.1,21.09V694h-4V643.9h-26.09a18.53,18.53,0,0,1-18.51-18.52h4a14.53,14.53,0,0,0,14.51,14.52h26.09V625.38h4v29.08a25.07,25.07,0,0,1,21.1-11.53Z"/><path class="cls-13" d="M1998.48,618.13c0,18.12-15.86,31.74-28.69,31.74-16.72,0-24.29-9.86-27.83-24.49H1796.38a15.74,15.74,0,0,1,15.74-15.73h14.1c4.13-15.36,19.29-26.75,37.36-26.75a40.13,40.13,0,0,1,27.85,10.91,49.32,49.32,0,0,1-.73-8.5c0-22.13,14.58-40.08,32.58-40.08s32.58,17.95,32.58,40.08c0,.25,0,.5,0,.76a37.37,37.37,0,0,1,7.54-.76C1982.77,585.31,1998.48,600,1998.48,618.13Z"/><path class="cls-7" d="M2001,618.13a29.93,29.93,0,0,1-14.84,26.11,28.28,28.28,0,0,1-17.45,5.89c-15,0-27.12-11.23-27.12-25.08S1953.71,600,1968.69,600c14,0,25.5,9.79,27,22.36a26.26,26.26,0,0,0,.33-4.2c0-16.72-14.62-30.32-32.59-30.32a35.72,35.72,0,0,0-7.05.71l-3.13.63.14-3.19c0-.22,0-.43,0-.65,0-20.72-13.5-37.58-30.08-37.58s-30.09,16.86-30.09,37.58a47.37,47.37,0,0,0,.7,8.07l1.32,7.53-5.51-5.3a37.45,37.45,0,0,0-26.12-10.21c-16.63,0-31,10.23-34.95,24.89l-.5,1.86h-16a13.23,13.23,0,0,0-13.24,13.23h-5a18.25,18.25,0,0,1,18.24-18.23h12.23c5.2-15.85,21-26.75,39.23-26.75a42.89,42.89,0,0,1,24.68,7.59c0-.9-.07-1.79-.07-2.68,0-23.48,15.74-42.58,35.09-42.58,18.74,0,34.09,17.93,35,40.4a41.25,41.25,0,0,1,5.08-.32C1984.12,582.81,2001,598.65,2001,618.13Z"/><path class="cls-2" d="M1276.84,1054.61v4.77a24.76,24.76,0,0,0,24.73,24.73v5a29.68,29.68,0,0,1-24.73-13.26v4.72a24.76,24.76,0,0,0,24.73,24.72v5a29.72,29.72,0,0,1-24.73-13.25v4.71a24.76,24.76,0,0,0,24.73,24.72v5a29.72,29.72,0,0,1-24.73-13.25v4.71a24.76,24.76,0,0,0,24.73,24.72v5a29.72,29.72,0,0,1-24.73-13.25v4.71h0a24.75,24.75,0,0,0,24.73,24.72v5a29.69,29.69,0,0,1-24.77-13.31v23.73h-5v-23.59a29.71,29.71,0,0,1-24.68,13.17v-5a24.75,24.75,0,0,0,24.68-23.32v-6.1a29.69,29.69,0,0,1-24.72,13.24v-5a24.75,24.75,0,0,0,24.72-24.72v-4.7a29.69,29.69,0,0,1-24.72,13.24v-5a24.75,24.75,0,0,0,24.72-24.72v-4.7a29.69,29.69,0,0,1-24.72,13.24v-5a24.75,24.75,0,0,0,24.72-24.72v-4.7a29.69,29.69,0,0,1-24.72,13.24v-5a24.75,24.75,0,0,0,24.72-24.73v-4.63a29.72,29.72,0,0,1-24.68,13.18v-5a24.76,24.76,0,0,0,24.68-23.33v-1.4h5a24.75,24.75,0,0,0,24.73,24.73v5A29.7,29.7,0,0,1,1276.84,1054.61Z"/><path class="cls-2" d="M1347,1097.13v4.74a24.76,24.76,0,0,0,24.72,24.73v5a29.7,29.7,0,0,1-24.72-13.25v4.7a24.75,24.75,0,0,0,24.72,24.73v5a29.7,29.7,0,0,1-24.72-13.25v4.7a24.75,24.75,0,0,0,24.72,24.73v5a29.7,29.7,0,0,1-24.72-13.25v23.54h-5V1160.7a29.71,29.71,0,0,1-24.73,13.26v-5a24.75,24.75,0,0,0,24.73-24.73v-4.71a29.71,29.71,0,0,1-24.73,13.26v-5a24.75,24.75,0,0,0,24.73-24.73v-4.71a29.71,29.71,0,0,1-24.73,13.26v-5a24.76,24.76,0,0,0,24.73-24.73v-4.65a29.72,29.72,0,0,1-24.69,13.2v-5A24.77,24.77,0,0,0,1342,1082v-1.27h5a24.77,24.77,0,0,0,24.73,24.73v5A29.72,29.72,0,0,1,1347,1097.13Z"/><path class="cls-2" d="M1437.81,1212.23l-3,4a135.59,135.59,0,0,0-80.9-27H1218.27v-5h135.64A140.67,140.67,0,0,1,1437.81,1212.23Z"/><path class="cls-7" d="M2208.75,753.46h-191.1c0-10.15,10.9-18.39,24.35-18.39a29.16,29.16,0,0,1,16.12,4.61c6.6-17.54,25.47-30.42,48-31.35v-.06h3.14c17.66,0,33.71,11.15,39.51,26.8h41.57A18.39,18.39,0,0,1,2208.75,753.46Z"/><path class="cls-14" d="M2260,1381.22v21.84H1910.31a48,48,0,0,1-48,48h-180V1437.1a34,34,0,0,1,34-34h24.82c1.88-41.49,39-74.6,84.51-74.6a91,91,0,0,1,19.62,2.11,98.11,98.11,0,0,1-1.14-14.91c0-63.18,59.92-114.4,133.83-114.4,47.79,0,89.73,21.43,113.39,53.65h15.78a71.62,71.62,0,0,1,71.62,71.62V1328h28A53.25,53.25,0,0,1,2260,1381.22Z"/><path class="cls-7" d="M2094.32,1403.06v37.09h-34.13a46.57,46.57,0,0,0-46.51,46.52v89.65h-7v-72.84a21.26,21.26,0,0,0-21.24-21.23H1832.75a27,27,0,0,1-27-27V1451h7v4.27a20,20,0,0,0,20,20h32.56v-25.31h5v25.31h115.13a28.14,28.14,0,0,1,21.24,9.66V1443.7a8.51,8.51,0,0,0-8.5-8.5H1973a30.27,30.27,0,0,1-30.23-30.24v-1.9h7v1.9A23.26,23.26,0,0,0,1973,1428.2h25.22a15.38,15.38,0,0,1,8.5,2.55v-27.69h7v57.17a53.53,53.53,0,0,1,46.51-27.08h27.13v-30.09Z"/><path class="cls-7" d="M1942.38,1403.51c0-57.08,49.42-103.36,110.38-103.36s110.38,46.28,110.38,103.36Z"/><rect class="cls-7" x="2040.95" y="1251.03" width="9.63" height="7"/><path class="cls-7" d="M2259.82,1376.25v26.81h-7v-26.81a46.28,46.28,0,0,0-46.23-46.22h-46.4v-7h15.1v-2.35a62.72,62.72,0,0,0-62.65-62.65h-49v-7h17.77c-23.59-29.1-61.7-46.27-103.39-46.27-71.86,0-130.33,49.75-130.33,110.9a95,95,0,0,0,.86,12.73,73.67,73.67,0,0,1,29.9,17.88l-4.9,5a67.62,67.62,0,0,0-44.34-19.23c-.38,0-.76,0-1.14,0-.79,0-1.57,0-2.36,0-43.57,0-79.12,31.22-81,71.11v18.66h-7v-15.16h-21.32a30.57,30.57,0,0,0-30.54,30.53V1451h-7v-13.92a37.58,37.58,0,0,1,37.54-37.53h21.55c3.73-42,41.52-74.52,87.59-74.61v0q1.85,0,3.66.09h.1a95,95,0,0,1,12,1.2,103.59,103.59,0,0,1-.55-10.56c0-65,61.61-117.9,137.33-117.9,45.86,0,87.67,19.88,112.24,53.27h22.4a69.73,69.73,0,0,1,69.65,69.65V1323h24.3A53.28,53.28,0,0,1,2259.82,1376.25Z"/></g><g id="Wall"><rect class="cls-6" x="586.88" y="1428.11" width="45.01" height="185.5"/><rect class="cls-12" x="586.88" y="1613.61" width="45.01" height="86.38"/><rect class="cls-10" x="631.9" y="1464.39" width="178.72" height="235.61"/><polygon class="cls-10" points="855.63 1428.11 855.63 1576.32 959.59 1576.32 855.63 1428.11"/><polygon class="cls-6" points="959.59 1576.32 959.59 1613.61 810.62 1613.61 810.62 1428.11 855.63 1428.11 855.63 1576.32 959.59 1576.32"/><rect class="cls-6" x="986.43" y="1576.32" width="176.93" height="37.29"/><rect class="cls-6" x="1190.53" y="1576.32" width="176.93" height="37.29"/><rect class="cls-6" x="1394.58" y="1576.32" width="176.93" height="37.29"/><rect class="cls-6" x="1598.63" y="1576.32" width="176.93" height="37.29"/><rect class="cls-6" x="1802.68" y="1576.32" width="176.93" height="37.29"/><rect class="cls-6" x="2006.58" y="1576.32" width="176.93" height="37.29"/><rect class="cls-6" x="2210.63" y="1576.32" width="49.37" height="37.29"/><polygon class="cls-8" points="810.62 1700 810.62 1613.61 959.59 1613.61 959.59 1659.26 986.43 1659.26 986.43 1613.62 1163.37 1613.62 1163.37 1659.25 1190.53 1659.25 1190.53 1613.62 1367.46 1613.62 1367.46 1659.26 1394.58 1659.26 1394.58 1613.62 1571.51 1613.62 1571.51 1659.26 1598.63 1659.26 1598.63 1613.62 1775.56 1613.62 1775.56 1659.26 1802.68 1659.26 1802.68 1613.61 1979.62 1613.61 1979.62 1659.26 2006.58 1659.26 2006.58 1613.62 2183.51 1613.62 2183.51 1659.26 2210.63 1659.26 2210.63 1613.62 2260 1613.62 2260 1700 810.62 1700"/><rect class="cls-10" x="959.32" y="1613.61" width="27.12" height="45.64"/><rect class="cls-10" x="1163.41" y="1613.61" width="26.86" height="45.64"/><rect class="cls-10" x="1367.46" y="1613.61" width="27.12" height="45.64"/><rect class="cls-10" x="1571.51" y="1613.61" width="27.12" height="45.64"/><rect class="cls-10" x="1775.56" y="1613.61" width="27.12" height="45.64"/><rect class="cls-10" x="1979.62" y="1613.61" width="27.12" height="45.64"/><rect class="cls-10" x="2183.51" y="1613.61" width="27.12" height="45.64"/></g></svg>