<svg id="Слой_1" data-name="Слой 1" xmlns="http://www.w3.org/2000/svg" viewBox="0 0 2660 2000"><defs><style>.cls-1{fill:#caebff;}.cls-2{fill:#fff;}.cls-3{fill:#8fc9ff;}.cls-4{fill:#a4deff;}.cls-5{fill:#1d6277;}.cls-6{fill:#ff6300;}.cls-7{fill:#eeb200;}.cls-8{fill:#8d5836;}.cls-9{fill:#50b0f1;}.cls-10{fill:#c49400;}.cls-11{fill:#9c7f00;}.cls-12{fill:#67b6ff;}</style></defs><rect id="Background" class="cls-1" x="400" y="299.23" width="1860" height="1399.77"/><g id="Sun_Cloud" data-name="Sun &amp; Cloud"><path class="cls-2" d="M1093,1141.05l-693-3.18V945.11c47.22-36.91,106.19-55.7,159.14-54.21,92.82,2.62,114.28,123.66,173.21,123.66,43.1,0,47.87-26.36,91.44-26.36,40.82,0,36.17,53,121.62,62a181.19,181.19,0,0,1,108.72,52Z"/><path id="Sun" class="cls-2" d="M1078.85,316.4A91.88,91.88,0,1,1,896.75,299h180.44A91.5,91.5,0,0,1,1078.85,316.4Z"/></g><g id="Mountain"><polygon class="cls-3" points="1577.61 819.03 1577.61 1699 787.06 1699 787.06 1167.1 1113.35 825.04 1577.61 819.03"/><polygon class="cls-2" points="2260 299.22 2260 1699 1081.1 1699 1081.1 519.94 1449.46 299.22 2260 299.22"/><path class="cls-4" d="M2260,671.9V1697.46H1186.64v-590l139-139.9L1446.39,846a3.49,3.49,0,0,0,.73-3.84,3.41,3.41,0,0,0-.75-1.11,3.5,3.5,0,0,0-4.95,0l-115.8,116.57V671.9Z"/><g id="Tunnel"><path class="cls-2" d="M1776.51,797.76c0-60.48,32.52-111.62,72.63-111.62s72.63,51.14,72.63,111.62Z"/><path class="cls-5" d="M1789.34,797.76c0-53.76,26.78-97.34,59.8-97.34s59.8,43.58,59.8,97.34Z"/><rect class="cls-5" x="1846.64" y="686.14" width="5" height="14.28"/><rect class="cls-5" x="1807.99" y="706.69" width="5" height="12.95" transform="translate(107.92 1655.36) rotate(-50.46)"/><rect class="cls-5" x="1881.78" y="711.17" width="12.95" height="5" transform="translate(-22.17 1365.65) rotate(-39.55)"/></g><polygon class="cls-1" points="1157.08 706.15 1124.88 743.26 1124.88 545.89 1157.08 564.85 1157.08 706.15"/><polygon class="cls-3" points="1285.31 1412.15 1329.99 1349.17 1186.64 1107.42 1186.82 1357.41 1285.31 1412.15"/><polygon class="cls-3" points="2260 664.9 1325.61 664.9 1081.11 519.93 1449.46 299.23 2260 299.23 2260 664.9"/></g><g id="Train"><path class="cls-6" d="M1729.44,736.21h224.62a12,12,0,0,1,12,12v46.41a0,0,0,0,1,0,0H1717.42a0,0,0,0,1,0,0V748.23A12,12,0,0,1,1729.44,736.21Z"/><path class="cls-7" d="M1966.08,748.23v3.56H1717.41V749c0-.11,0-.22,0-.33a12.74,12.74,0,0,1,12.74-12.41h223.9A12,12,0,0,1,1966.08,748.23Z"/><rect class="cls-8" x="1759.9" y="761.29" width="14.07" height="14.07"/><rect class="cls-8" x="1785.23" y="761.29" width="14.07" height="14.07"/><rect class="cls-8" x="1811.09" y="761.29" width="14.07" height="14.07"/><rect class="cls-8" x="1836.94" y="761.29" width="14.07" height="14.07"/><rect class="cls-8" x="1862.98" y="761.29" width="14.07" height="14.07"/><rect class="cls-8" x="1888.66" y="761.29" width="14.07" height="14.07"/><rect class="cls-8" x="1914.17" y="761.29" width="14.07" height="14.07"/><rect class="cls-2" x="1717.41" y="749.79" width="248.67" height="4"/><path class="cls-6" d="M1449.66,794.64H1173.24l42.5-44.73c8.26-8.69,20.35-13.7,33.09-13.7h187.36c7.44,0,13.47,5.4,13.47,12.06Z"/><path class="cls-7" d="M1449.66,748.28v3.51H1214l1.78-1.88c8.25-8.7,20.35-13.7,33.08-13.7h187.37C1443.63,736.21,1449.66,741.62,1449.66,748.28Z"/><rect class="cls-8" x="1244.37" y="761.29" width="14.07" height="14.07"/><polygon class="cls-8" points="1225.38 775.36 1191.56 775.36 1204.93 761.29 1225.38 761.29 1225.38 775.36"/><rect class="cls-8" x="1269.7" y="761.29" width="14.07" height="14.07"/><rect class="cls-8" x="1295.56" y="761.29" width="14.07" height="14.07"/><rect class="cls-8" x="1321.42" y="761.29" width="14.07" height="14.07"/><rect class="cls-8" x="1347.45" y="761.29" width="14.07" height="14.07"/><rect class="cls-8" x="1373.13" y="761.29" width="14.07" height="14.07"/><rect class="cls-8" x="1398.64" y="761.29" width="14.07" height="14.07"/><path class="cls-2" d="M1449.66,749.79v4H1212.05l3.69-3.88.12-.12Z"/><path class="cls-6" d="M1471.23,736.21h224.62a12,12,0,0,1,12,12v46.41a0,0,0,0,1,0,0H1459.21a0,0,0,0,1,0,0V748.23A12,12,0,0,1,1471.23,736.21Z"/><path class="cls-7" d="M1707.87,749v2.84H1459.2V749A12.74,12.74,0,0,1,1472,736.21h223.17A12.74,12.74,0,0,1,1707.87,749Z"/><rect class="cls-8" x="1501.41" y="761.29" width="14.07" height="14.07"/><rect class="cls-8" x="1526.74" y="761.29" width="14.07" height="14.07"/><rect class="cls-8" x="1552.6" y="761.29" width="14.07" height="14.07"/><rect class="cls-8" x="1578.46" y="761.29" width="14.07" height="14.07"/><rect class="cls-8" x="1604.49" y="761.29" width="14.07" height="14.07"/><rect class="cls-8" x="1630.18" y="761.29" width="14.07" height="14.07"/><rect class="cls-8" x="1655.68" y="761.29" width="14.07" height="14.07"/><rect class="cls-2" x="1459.2" y="749.79" width="248.67" height="4"/></g><g id="Viadukt"><path class="cls-5" d="M1856.07,834.27h3.43V798.2H400v7h7.41v22.07H400v7h4.85a19.1,19.1,0,0,0-4.43,12.26v411.61H901c.2-1.84.58-5.17.8-7C915.39,1135,950.25,1029.66,1000.19,954c25.13-38.07,53.29-67.71,83.71-88.11,31.26-21,64.12-31.6,97.68-31.6s66.28,10.59,97.47,31.46c30.36,20.31,58.49,49.84,83.59,87.76,33.13,50,59.66,113.17,77.76,183.85h0a861,861,0,0,1,20.94,113.79c.16,1.29.5,5.7.65,7H1860.5V846.53A19.1,19.1,0,0,0,1856.07,834.27Zm-48.21-29.07h20.82v22.07h-20.82Zm-25.81,0h20.81v22.07h-20.81Zm-77.46,0h20.82v22.07h-20.82Zm-25.82,0h20.82v22.07h-20.82Zm-77.46,0h20.82v22.07h-20.82Zm-25.81,0h20.81v22.07H1575.5Zm-77.46,0h20.82v22.07H1498Zm-25.82,0H1493v22.07h-20.82Zm-24.58,0h19.58v22.07h-19.58Zm-51.64,0h20.82v22.07H1396Zm-25.82,0H1391v22.07h-20.82Zm-25.82,0h20.82v22.07h-20.82Zm-51.63,0h20.81v22.07h-20.81Zm-25.82,0h20.82v22.07h-20.82Zm-181.21,0h20.81v22.07H1085.7Zm-25.82,0h20.82v22.07h-20.82Zm-77.46,0h20.82v22.07H982.42Zm-25.82,0h20.82v22.07H956.6Zm-77.45,0H900v22.07H879.15Zm-25.82,0h20.82v22.07H853.33Zm-77.46,0h20.82v22.07H775.87Zm-25.82,0h20.82v22.07H750.05Zm-77.45,0h20.81v22.07H672.6Zm-25.82,0H667.6v22.07H646.78Zm-77.46,0h20.82v22.07H569.32Zm-28,0h23v22.07h-23Zm-51.51,0h20.82v22.07H489.86Zm-25.81,0h20.81v22.07H464.05Zm-25.82,0h20.82v22.07H438.23Zm-25.82,0h20.82v22.07H412.41Zm99.24,445.94H407.42V846.53a12.27,12.27,0,0,1,12.26-12.26h79.71a12.27,12.27,0,0,1,12.26,12.26Zm4-445.94h20.69v22.07H515.68Zm99.25,445.94H518.65V846.53a12.27,12.27,0,0,1,12.26-12.26h70.84a13.22,13.22,0,0,1,13.18,12.4Zm1-423.87H595.14V805.2H616Zm5-22.07h20.82v22.07H621Zm97.27,445.94H622V846.53a12.27,12.27,0,0,1,12.26-12.26H706a12.27,12.27,0,0,1,12.26,12.26Zm1-423.87H698.41V805.2h20.82Zm5-22.07h20.82v22.07H724.23Zm97.28,445.94H725.23V846.53a12.27,12.27,0,0,1,12.26-12.26h71.76a12.27,12.27,0,0,1,12.26,12.26Zm1-423.87H801.69V805.2h20.82Zm5-22.07h20.82v22.07H827.51Zm67.27,445.94H828.51V847.48a13.22,13.22,0,0,1,13.21-13.21h69.85a13.22,13.22,0,0,1,13.21,13.21v256.21h.11A850.78,850.78,0,0,0,894.78,1251.14Zm31-423.87H905V805.2h20.82Zm5-22.07H951.6v22.07H930.78ZM1028.05,906a382.28,382.28,0,0,0-33.7,44.1c-24.78,37.55-45.89,82.27-62.57,131.92V847.48A13.23,13.23,0,0,1,945,834.27h69.85a13.22,13.22,0,0,1,13.21,13.21Zm1-78.76h-20.82V805.2h20.82Zm5-22.07h20.82v22.07h-20.82ZM1080,860.05a269.46,269.46,0,0,0-45,38.36V847.48a13.23,13.23,0,0,1,13.21-13.21h69.85a13.13,13.13,0,0,1,7.81,2.55A202.06,202.06,0,0,0,1080,860.05Zm52.33-32.78h-20.82V805.2h20.82Zm25.82,0h-20.82V805.2h20.82Zm25.82,0-2.39,0h-18.43V805.2H1184Zm25.82,0H1189V805.2h20.82Zm25.82,0h-20.82V805.2h20.82Zm5.48-22.07h20.82v22.07h-20.82Zm96,103.11c-17-19.49-35.17-35.68-54.17-48.4a204.06,204.06,0,0,0-39.21-20.68,13.12,13.12,0,0,1,10.31-5h69.86a13.22,13.22,0,0,1,13.21,13.21Zm2.24-81h-20.82V805.2h20.82Zm101,283.57c-17.9-61.45-42.3-116.47-71.93-161.22a397.64,397.64,0,0,0-24.35-33.06V847.48a13.23,13.23,0,0,1,13.22-13.21h69.85a13.22,13.22,0,0,1,13.21,13.21Zm1-283.57h-19.58V805.2h19.58Zm102.28,423.87h-75.3a869.79,869.79,0,0,0-21-114.65v-289a13.23,13.23,0,0,1,13.21-13.21h69.86a13.23,13.23,0,0,1,13.21,13.22Zm1-423.87h-20.82V805.2h20.82Zm5-22.07h20.82v22.07h-20.82ZM1647,1251.14h-96.27V846.53a12.27,12.27,0,0,1,12.26-12.26h71.75A12.27,12.27,0,0,1,1647,846.53Zm1-423.87h-20.82V805.2H1648Zm5-22.07h20.82v22.07H1653Zm97.28,445.94H1654V846.53a12.27,12.27,0,0,1,12.26-12.26H1738a12.27,12.27,0,0,1,12.26,12.26Zm1-423.87h-20.82V805.2h20.82Zm5-22.07h20.82v22.07h-20.82Zm97.27,445.94h-96.27V846.53a12.27,12.27,0,0,1,12.26-12.26h71.75a12.27,12.27,0,0,1,12.26,12.26Zm1-423.87h-20.82V805.2h20.82Z"/><rect class="cls-2" x="400" y="792.7" width="1466.21" height="5"/></g><g id="Hills"><polygon class="cls-3" points="2260 1699 1076.76 1699 2260 317.23 2260 1699"/><path class="cls-2" d="M2260,312.47v10.14L1092.37,1685.28a3.51,3.51,0,0,1-4.94.38,3.5,3.5,0,0,1-.38-4.94Z"/><polygon class="cls-9" points="1769.21 1699 400 1699 400 892.67 1769.21 1699"/><polygon class="cls-2" points="1775.71 1699 1761.93 1699 400 896.74 400 888.62 1775.71 1699"/></g><g id="Big_trees" data-name="Big trees"><polygon class="cls-7" points="1307.7 1423.21 1274.94 1403.93 1352 1160.79 1400.29 1315.16 1400.29 1315.17 1307.7 1423.21"/><polygon class="cls-10" points="1352 1316.03 1352 1272.34 1296.69 1334.77 1300.36 1323.1 1300.36 1323.09 1352 1264.93 1352 1230.16 1317.73 1267.86 1321.31 1256.49 1352 1222.85 1352 1160.79 1400.29 1315.16 1352 1371.51 1352 1323.52 1279.97 1406.89 1275.58 1404.31 1352 1316.03"/><polygon class="cls-2" points="1352.57 1160.79 1278.78 1406.19 1272.57 1402.53 1345.26 1160.79 1352.57 1160.79"/><polygon class="cls-10" points="1601.11 1187.2 1706 1657.84 1520.39 1549.09 1601.11 1187.2"/><polygon class="cls-11" points="1601.11 1596.38 1601.11 1459.76 1522.77 1550.48 1520.39 1549.09 1521.9 1542.31 1601.11 1450.58 1601.11 1372.59 1545.37 1437.09 1548.13 1424.72 1601.11 1363.41 1601.11 1297.45 1567.96 1335.81 1570.72 1323.45 1570.72 1323.44 1601.11 1288.28 1601.11 1187.2 1706 1657.84 1601.11 1596.38"/><polygon class="cls-7" points="1522.84 1549.61 1517.95 1548.56 1595.66 1186.67 1601.11 1187.2 1522.84 1549.61"/><polygon class="cls-8" points="840.21 1682.8 809.21 1682.83 808.49 908.1 839.49 908.1 840.21 1682.8"/><rect class="cls-10" x="834.49" y="907.51" width="7" height="775.31" transform="translate(-1.69 1.1) rotate(-0.07)"/><path class="cls-10" d="M928.88,645.16v-1.44a16.5,16.5,0,0,1-28.83-11V622.9a16.5,16.5,0,0,1-29.94-9.57V600.69A16.5,16.5,0,0,1,842,598.47c9.35,66.59,66.7,118,135.82,118a16.5,16.5,0,1,1,0,33q-8.07,0-16-.75V761.8a16.5,16.5,0,0,1-33,0v-1.44a16.5,16.5,0,0,1-28.83-11v-9.86A16.49,16.49,0,0,1,870.11,730V717.32a16.5,16.5,0,0,1-28.31-2.7,138.17,138.17,0,0,0,26.72,65.75,16.3,16.3,0,0,1,2.34,3l0,0a136.55,136.55,0,0,0,107,51.81,16.5,16.5,0,1,1,0,33q-8.07,0-16-.75v12a16.5,16.5,0,0,1-33,0v-1.44a16.5,16.5,0,0,1-28.83-11v-9.85a16.49,16.49,0,0,1-29.94-9.56v-3.11a16.5,16.5,0,0,1-25.19,1.82c15.09,59.34,69,103.36,132.93,103.36a16.5,16.5,0,1,1,0,33q-7,0-13.85-.56v4.4a16.5,16.5,0,0,1-32.9,1.75,16.5,16.5,0,0,1-31.05-7.79V972.8a16.49,16.49,0,0,1-29.94-9.56V950.59a16.5,16.5,0,0,1-29.86-9.68V916.28a16.49,16.49,0,0,1-32.1,0v26.19a16.5,16.5,0,0,1-29.86,9.68V964.8a16.49,16.49,0,0,1-29.94,9.56v7.74A16.5,16.5,0,0,1,718,991a16.5,16.5,0,0,1-32.52-3.95v-4.49q-7.38.64-14.91.65a16.5,16.5,0,0,1,0-33c62.43,0,115.25-41.93,131.78-99.1a16.5,16.5,0,0,1-24-2.9v4.17A16.49,16.49,0,0,1,748.35,862v6.67a16.5,16.5,0,0,1-28.83,11v1.44a16.5,16.5,0,0,1-33,0V866.91q-7.89.75-16,.75a16.5,16.5,0,0,1,0-33c69.13,0,126.47-51.4,135.82-118a16.5,16.5,0,0,1-28.08,2.22v12.65a16.49,16.49,0,0,1-29.94,9.56V751a16.5,16.5,0,0,1-28.83,11v1.44a16.5,16.5,0,1,1-33,0V749.22q-7.89.75-16,.75a16.5,16.5,0,0,1,0-33c68.62,0,125.63-50.66,135.61-116.53a16.51,16.51,0,0,1-27.87,1.81v12.64a16.5,16.5,0,0,1-29.94,9.57v9.85a16.5,16.5,0,0,1-28.83,11v1.44a16.5,16.5,0,0,1-33,0V632.58q-7.89.75-16,.75a16.5,16.5,0,0,1,0-33c68.62,0,125.63-50.65,135.61-116.53a16.51,16.51,0,0,1-27.87,1.81v9.47a16.49,16.49,0,0,1-29.94,9.56v9.86a16.5,16.5,0,0,1-28.85,11,16.5,16.5,0,0,1-33-.67V516q-7.89.75-16,.75a16.5,16.5,0,1,1,0-33c75.63,0,137.15-61.53,137.15-137.15v-2.78a16.5,16.5,0,0,1,33,0v2.78C841,421.94,902.4,483.2,977.85,483.2a16.5,16.5,0,0,1,0,33q-8.07,0-16-.75v8.83a16.5,16.5,0,0,1-33,0v-1.43a16.5,16.5,0,0,1-28.83-11v-8.8a16.49,16.49,0,0,1-29.94-9.56v-9.47A16.49,16.49,0,0,1,842,481.81c9.33,66.6,66.69,118,135.82,118a16.5,16.5,0,0,1,0,33q-8.07,0-16-.75v13.08a16.5,16.5,0,0,1-33,0Z"/><path class="cls-2" d="M998.05,505.05a3.5,3.5,0,0,1-3.5-3.5,11.37,11.37,0,0,0-11.36-11.35c-82.56,0-149.73-67.17-149.73-149.73v-.58a12.37,12.37,0,0,0-12.35-12.36,3.5,3.5,0,1,1,0-7,19.38,19.38,0,0,1,19.35,19.36v.58c0,78.7,64,142.73,142.73,142.73a18.38,18.38,0,0,1,18.36,18.35A3.5,3.5,0,0,1,998.05,505.05Z"/><path class="cls-2" d="M989.55,606.83c-39,0-76.2-13.33-104.7-37.54a148.2,148.2,0,0,1-51.36-95.78,3.5,3.5,0,1,1,7-.83c8.75,73.68,71.46,127.15,149.11,127.15a3.5,3.5,0,0,1,0,7Z"/><path class="cls-2" d="M988.49,723.47c-82,0-145.31-53.23-154-129.45a3.5,3.5,0,1,1,7-.79c8.28,72.56,68.75,123.24,147,123.24a3.5,3.5,0,0,1,0,7Z"/><path class="cls-2" d="M987.43,842.22c-39.45,0-76.42-13.1-104.09-36.91-27.88-24-45.31-58-49.09-95.76a3.5,3.5,0,0,1,7-.7c3.6,36,20.18,68.36,46.69,91.16s61.75,35.21,99.52,35.21a3.5,3.5,0,1,1,0,7Z"/><path class="cls-2" d="M987.43,956.74c-38.49,0-73.37-11.51-100.86-33.28-27.8-22-45.49-52.51-51.16-88.24a3.5,3.5,0,1,1,6.91-1.09c5.39,34,22.2,63,48.59,83.85s59.63,31.76,96.52,31.76a3.5,3.5,0,1,1,0,7Z"/><rect class="cls-8" x="1880.43" y="1389.93" width="31" height="309.07"/><rect class="cls-10" x="1879.71" y="1389.93" width="7" height="309.07"/><path class="cls-10" d="M2000.11,1149.31v-.21a17,17,0,0,1-28.83-12.2v-8.4a17,17,0,0,1-29.94-11v-11.22a17,17,0,0,1-26.71-1.25c10.36,65.15,66.93,115.1,134.95,115.1a17,17,0,0,1,0,34c-5.21,0-10.38-.24-15.47-.7v12.53a17,17,0,0,1-34,0v-.21a17,17,0,0,1-28.83-12.2v-8.39a17,17,0,0,1-29.94-11V1222.9a17,17,0,0,1-26.92-1.54c9.79,65.81,66.67,116.45,135.16,116.45a17,17,0,0,1,0,34c-5.21,0-10.38-.24-15.47-.7v12.53a17,17,0,0,1-34,0v-.21a17,17,0,0,1-28.83-12.2v-8.4a17,17,0,0,1-29.94-11v-1.67a17,17,0,0,1-23.78,1.91c15.61,58.29,68.88,101.33,132,101.33a17,17,0,0,1,0,34c-5.21,0-10.38-.24-15.47-.7v12.53a17,17,0,0,1-34,0V1499a17,17,0,0,1-28.83-12.2v-8.39a17,17,0,0,1-29.94-11v-11.22a17,17,0,0,1-29.86-11.11v-21.57a17,17,0,0,1-31.1,0v23.13a17,17,0,0,1-29.86,11.11V1469a17,17,0,0,1-29.94,11v8.4a17,17,0,0,1-28.83,12.2v.2a17,17,0,0,1-34,0v-13.59c-5.09.46-10.26.7-15.47.7a17,17,0,1,1,0-34,136.88,136.88,0,0,0,130.86-97.27,17,17,0,0,1-22.62-2.79v2.73a17,17,0,0,1-29.94,11v5.22a17,17,0,0,1-28.83,12.2v.21a17,17,0,0,1-34,0v-13.59c-5.09.46-10.26.7-15.47.7a17,17,0,0,1,0-34c68,0,124.59-50,135-115.1a17,17,0,0,1-26.71,1.25v11.21a17,17,0,0,1-29.94,11v8.4a17,17,0,0,1-28.83,12.2v.21a17,17,0,0,1-34,0v-13.59c-5.09.46-10.26.7-15.47.7a17,17,0,0,1,0-34c67.54,0,123.8-49.26,134.72-113.73a17,17,0,0,1-26.48.94V1119a17,17,0,0,1-29.94,11v8.4a17,17,0,0,1-28.83,12.2v.21a17,17,0,0,1-34,0v-13.59c-5.09.46-10.26.7-15.47.7a17,17,0,0,1,0-34c67.54,0,123.79-49.25,134.72-113.73a17,17,0,0,1-26.48.94v8a17,17,0,0,1-29.94,11v8.4a17,17,0,0,1-28.93,12.11,17,17,0,0,1-33.9-1.82v-8.29c-5.09.46-10.26.7-15.47.7a17,17,0,0,1,0-34c75.35,0,136.65-61.3,136.65-136.65v-2.77a17,17,0,1,1,34,0v2.77c.27,75.12,61.47,136.15,136.65,136.15a17,17,0,0,1,0,34c-5.21,0-10.38-.24-15.47-.7v8.29a17,17,0,0,1-34,0v-.21a17,17,0,0,1-28.83-12.2v-7.34a17,17,0,0,1-29.94-11v-8a17,17,0,0,1-26.71-1.26c10.36,65.15,66.93,115.11,134.95,115.11a17,17,0,0,1,0,34c-5.21,0-10.38-.24-15.47-.7v12.53a17,17,0,0,1-34,0Z"/><path class="cls-2" d="M1722.61,1009.51a3.5,3.5,0,0,1-3.5-3.5,18.81,18.81,0,0,1,18.79-18.79,139.27,139.27,0,0,0,99.67-41.49,141.38,141.38,0,0,0,41-100.18v-1.11a19.25,19.25,0,0,1,14.6-18.71,3.5,3.5,0,1,1,1.7,6.79,12.24,12.24,0,0,0-9.3,11.92v1.11a148.36,148.36,0,0,1-43,105.11,146.2,146.2,0,0,1-104.64,43.56,11.8,11.8,0,0,0-11.79,11.79A3.5,3.5,0,0,1,1722.61,1009.51Z"/><path class="cls-2" d="M1721.91,1126.91a3.5,3.5,0,0,1-3.5-3.5,19.52,19.52,0,0,1,19.49-19.5c37.64,0,70.7-12,95.61-34.83,24.58-22.49,39.54-53.77,43.24-90.46a3.5,3.5,0,0,1,7,.7c-3.88,38.44-19.61,71.26-45.48,94.92-26.23,24-60.93,36.67-100.34,36.67a12.51,12.51,0,0,0-12.49,12.5A3.5,3.5,0,0,1,1721.91,1126.91Z"/><path class="cls-2" d="M1722.61,1240.72a3.5,3.5,0,0,1-3.5-3.5,16.69,16.69,0,0,1,16.67-16.67c75.8,0,132.72-49,141.66-122a3.5,3.5,0,1,1,7,.85c-4.57,37.34-21.14,69.34-47.92,92.53s-61.7,35.6-100.69,35.6a9.68,9.68,0,0,0-9.67,9.67A3.5,3.5,0,0,1,1722.61,1240.72Z"/><path class="cls-2" d="M1722.61,1358.42a3.5,3.5,0,0,1-3.5-3.5,16.69,16.69,0,0,1,16.67-16.68c77.29,0,134-50.32,141.07-125.22a3.5,3.5,0,1,1,7,.66c-7.45,78.69-66.94,131.56-148,131.56a9.69,9.69,0,0,0-9.67,9.68A3.5,3.5,0,0,1,1722.61,1358.42Z"/><path class="cls-2" d="M1722.61,1474a3.49,3.49,0,0,1-3.5-3.5,16.69,16.69,0,0,1,16.67-16.67c74.68,0,131.49-48.08,141.36-119.65a3.5,3.5,0,1,1,6.93,1c-10.36,75.18-70,125.69-148.29,125.69a9.68,9.68,0,0,0-9.67,9.67A3.5,3.5,0,0,1,1722.61,1474Z"/></g><g id="Small_trees" data-name="Small trees"><path class="cls-4" d="M1221.39,983.62v5A24.35,24.35,0,0,1,1202,979v2.27a19.39,19.39,0,0,0,19.37,19.38v5A24.32,24.32,0,0,1,1202,996v2.25a19.4,19.4,0,0,0,19.37,19.38v5a24.32,24.32,0,0,1-19.37-9.61v2.25a19.39,19.39,0,0,0,19.37,19.37v5a24.32,24.32,0,0,1-19.37-9.61v2.26a19.39,19.39,0,0,0,19.37,19.37v5a24.32,24.32,0,0,1-19.37-9.61v2.26h0c0,.19,0,.38,0,.56a19.38,19.38,0,0,0,19.35,18.81v5a24.32,24.32,0,0,1-19.37-9.61v32.53h-5v-32.49a24.33,24.33,0,0,1-19.35,9.57v-5a19.39,19.39,0,0,0,19.35-18.37v-3.26a24.35,24.35,0,0,1-19.38,9.61v-5a19.39,19.39,0,0,0,19.38-19.37v-2.26a24.35,24.35,0,0,1-19.38,9.61v-5A19.39,19.39,0,0,0,1197,1015.3v-2.25a24.35,24.35,0,0,1-19.38,9.61v-5A19.4,19.4,0,0,0,1197,998.28V996a24.35,24.35,0,0,1-19.38,9.61v-5A19.4,19.4,0,0,0,1197,981.26v-2.21a24.34,24.34,0,0,1-19.35,9.57v-5A19.39,19.39,0,0,0,1197,965.25v-1h5A19.39,19.39,0,0,0,1221.39,983.62Z"/><path class="cls-4" d="M1255,1085.45h-5v-38.37a24.35,24.35,0,0,1-19.38,9.61v-5a19.39,19.39,0,0,0,19.38-19.37v-2.26a24.35,24.35,0,0,1-19.38,9.61v-5A19.39,19.39,0,0,0,1250,1015.3v-2.25a24.35,24.35,0,0,1-19.38,9.61v-5A19.4,19.4,0,0,0,1250,998.28V996a24.35,24.35,0,0,1-19.38,9.61v-5A19.4,19.4,0,0,0,1250,981.26v-2.21a24.34,24.34,0,0,1-19.35,9.57v-5A19.39,19.39,0,0,0,1250,965.25v-1h5a19.39,19.39,0,0,0,19.37,19.37v5A24.35,24.35,0,0,1,1255,979v2.27a19.39,19.39,0,0,0,19.37,19.38v5A24.32,24.32,0,0,1,1255,996v2.25a19.4,19.4,0,0,0,19.37,19.38v5a24.32,24.32,0,0,1-19.37-9.61v2.25a19.39,19.39,0,0,0,19.37,19.37v5a24.32,24.32,0,0,1-19.37-9.61v2.26a19.39,19.39,0,0,0,19.37,19.37v5a24.32,24.32,0,0,1-19.37-9.61Z"/><path class="cls-3" d="M1159.58,441.32v3.75a19.41,19.41,0,0,0,15,18.87l-5.6,3.36a24.52,24.52,0,0,1-9.37-7.46v13.07l-5,3V459.83a24.33,24.33,0,0,1-19.38,9.62v-5a19.4,19.4,0,0,0,19.38-19.38v-3.76a24.32,24.32,0,0,1-19.38,9.61v-5a19.39,19.39,0,0,0,19.38-19.37v-3h5v3A19.39,19.39,0,0,0,1179,445.92v5A24.33,24.33,0,0,1,1159.58,441.32Z"/><polygon class="cls-12" points="1304.42 559.43 1300.77 565.4 1154.45 475.99 1161.23 471.92 1304.42 559.43"/><path class="cls-3" d="M1336.2,314v3.74a19.39,19.39,0,0,0,19.38,19.37v5a24.32,24.32,0,0,1-19.38-9.61v3.74h0a19.38,19.38,0,0,0,19.16,19.36l-6.69,4a24.49,24.49,0,0,1-12.5-8.64v16.13l-5,3V351a24.32,24.32,0,0,1-19.34,9.57v-5a19.39,19.39,0,0,0,19.34-18.37V332.5a24.33,24.33,0,0,1-19.37,9.6v-5a19.39,19.39,0,0,0,19.37-19.37V314a24.33,24.33,0,0,1-19.37,9.6v-5a19.39,19.39,0,0,0,19.37-19.37h5a19.39,19.39,0,0,0,19.38,19.37v5A24.32,24.32,0,0,1,1336.2,314Z"/><polygon class="cls-12" points="1476.39 450.31 1472.82 456.33 1329.28 371.23 1336.11 367.14 1476.39 450.31"/><path class="cls-2" d="M1349.13,625.63v3.31h0a19.4,19.4,0,0,0,19.38,19.37v5a24.34,24.34,0,0,1-19.41-9.65v20.43h-5V643.75a24.34,24.34,0,0,1-19.34,9.56v-5a19.39,19.39,0,0,0,19.34-18.37v-4.22a24.34,24.34,0,0,1-19.34,9.56v-5a19.39,19.39,0,0,0,19.34-18.38v-3.25a24.32,24.32,0,0,1-19.37,9.61v-5a19.39,19.39,0,0,0,19.37-19.38v-2.25a24.32,24.32,0,0,1-19.37,9.61v-5a19.39,19.39,0,0,0,19.37-19.38v-3h5v3a19.4,19.4,0,0,0,19.38,19.38v5a24.35,24.35,0,0,1-19.38-9.61v2.25a19.4,19.4,0,0,0,19.38,19.38v5a24.35,24.35,0,0,1-19.38-9.61v2.25h0a19.41,19.41,0,0,0,19.38,19.38v5A24.34,24.34,0,0,1,1349.13,625.63Z"/><path class="cls-2" d="M1956.71,540.55v2.28a19.39,19.39,0,0,0,19.37,19.37v5a24.29,24.29,0,0,1-19.37-9.61v2.26a19.39,19.39,0,0,0,19.37,19.37v5a24.29,24.29,0,0,1-19.37-9.61v2.25a19.39,19.39,0,0,0,19.37,19.38v5a24.32,24.32,0,0,1-19.37-9.61v2.25a19.39,19.39,0,0,0,19.37,19.38v5a24.32,24.32,0,0,1-19.37-9.61v2.25h0a19.4,19.4,0,0,0,19.37,19.38v5a24.34,24.34,0,0,1-19.4-9.64v3.3h0a19.39,19.39,0,0,0,19.37,19.37v5a24.31,24.31,0,0,1-19.4-9.64v20.42h-5V643.74a24.33,24.33,0,0,1-19.35,9.57v-5a19.39,19.39,0,0,0,19.35-18.37v-4.23a24.36,24.36,0,0,1-19.35,9.57v-5a19.39,19.39,0,0,0,19.35-18.38v-3.25a24.35,24.35,0,0,1-19.38,9.61v-5a19.4,19.4,0,0,0,19.38-19.38v-2.25a24.35,24.35,0,0,1-19.38,9.61v-5a19.4,19.4,0,0,0,19.38-19.38v-2.25a24.32,24.32,0,0,1-19.38,9.61v-5a19.39,19.39,0,0,0,19.38-19.37v-2.26a24.32,24.32,0,0,1-19.38,9.61v-5a19.39,19.39,0,0,0,19.38-19.37v-2.22a24.32,24.32,0,0,1-19.35,9.58v-5a19.39,19.39,0,0,0,19.35-18.38v-1h5a19.4,19.4,0,0,0,19.37,19.38v5A24.36,24.36,0,0,1,1956.71,540.55Z"/><path class="cls-2" d="M2029.85,485.53v2.28a19.39,19.39,0,0,0,19.37,19.38v5a24.29,24.29,0,0,1-19.37-9.62v2.26a19.4,19.4,0,0,0,19.37,19.38v5a24.29,24.29,0,0,1-19.37-9.62v2.26a19.39,19.39,0,0,0,19.37,19.37v5a24.29,24.29,0,0,1-19.37-9.61v2.26a19.39,19.39,0,0,0,19.37,19.37v5a24.29,24.29,0,0,1-19.37-9.61v2.26h0c0,.42,0,.84,0,1.25v30l-5,5.84V570.69a24.34,24.34,0,0,1-19.35,9.57v-5a19.39,19.39,0,0,0,19.35-18.37v-3.26a24.31,24.31,0,0,1-19.38,9.61v-5a19.39,19.39,0,0,0,19.38-19.37v-2.26a24.31,24.31,0,0,1-19.38,9.61v-5a19.39,19.39,0,0,0,19.38-19.37v-2.26a24.31,24.31,0,0,1-19.38,9.62v-5a19.4,19.4,0,0,0,19.38-19.38v-2.26a24.31,24.31,0,0,1-19.38,9.62v-5a19.4,19.4,0,0,0,19.38-19.38v-2.22a24.32,24.32,0,0,1-19.35,9.58v-5a19.39,19.39,0,0,0,19.35-18.38v-1h5a19.39,19.39,0,0,0,19.37,19.38v5A24.36,24.36,0,0,1,2029.85,485.53Z"/><path class="cls-9" d="M1640.68,540.54v2.29a19.39,19.39,0,0,0,19.37,19.37v5a24.32,24.32,0,0,1-19.37-9.61v2.26a19.39,19.39,0,0,0,19.37,19.37v5a24.32,24.32,0,0,1-19.37-9.61v2.25a19.39,19.39,0,0,0,19.37,19.38v5a24.32,24.32,0,0,1-19.37-9.61v2.25a19.39,19.39,0,0,0,19.37,19.38v5a24.32,24.32,0,0,1-19.37-9.61v2.25h0a19.4,19.4,0,0,0,19.37,19.38v5a24.32,24.32,0,0,1-19.4-9.65v3.31h0a19.39,19.39,0,0,0,19.37,19.37v5a24.32,24.32,0,0,1-19.4-9.65v20.43h-5V643.74a24.29,24.29,0,0,1-19.34,9.57v-5a19.39,19.39,0,0,0,19.34-18.37v-4.23a24.32,24.32,0,0,1-19.34,9.57v-5a19.39,19.39,0,0,0,19.34-18.38v-3.24a24.35,24.35,0,0,1-19.37,9.6v-5a19.39,19.39,0,0,0,19.37-19.38v-2.24a24.35,24.35,0,0,1-19.37,9.6v-5a19.39,19.39,0,0,0,19.37-19.38v-2.24a24.33,24.33,0,0,1-19.37,9.6v-5a19.39,19.39,0,0,0,19.37-19.37V557.6a24.33,24.33,0,0,1-19.37,9.6v-5a19.39,19.39,0,0,0,19.37-19.37v-2.22a24.3,24.3,0,0,1-19.34,9.58v-5a19.39,19.39,0,0,0,19.34-18.38v-1h5a19.4,19.4,0,0,0,19.37,19.38v5A24.34,24.34,0,0,1,1640.68,540.54Z"/><path class="cls-9" d="M1580.57,540.55v2.28a19.39,19.39,0,0,0,19.37,19.37v5a24.29,24.29,0,0,1-19.37-9.61v2.26a19.39,19.39,0,0,0,19.37,19.37v5a24.29,24.29,0,0,1-19.37-9.61v2.25a19.39,19.39,0,0,0,19.37,19.38v5a24.32,24.32,0,0,1-19.37-9.61v2.25a19.39,19.39,0,0,0,19.37,19.38v5a24.32,24.32,0,0,1-19.37-9.61v2.25h0A19.4,19.4,0,0,0,1600,630.28v5a24.34,24.34,0,0,1-19.4-9.64v3.3h0A19.39,19.39,0,0,0,1600,648.31v5a24.31,24.31,0,0,1-19.4-9.64v20.42h-5V643.74a24.33,24.33,0,0,1-19.35,9.57v-5a19.39,19.39,0,0,0,19.35-18.37v-4.23a24.36,24.36,0,0,1-19.35,9.57v-5a19.39,19.39,0,0,0,19.35-18.38v-3.25a24.35,24.35,0,0,1-19.38,9.61v-5a19.4,19.4,0,0,0,19.38-19.38v-2.25a24.35,24.35,0,0,1-19.38,9.61v-5a19.4,19.4,0,0,0,19.38-19.38v-2.25a24.32,24.32,0,0,1-19.38,9.61v-5a19.39,19.39,0,0,0,19.38-19.37v-2.26a24.32,24.32,0,0,1-19.38,9.61v-5a19.39,19.39,0,0,0,19.38-19.37v-2.22a24.32,24.32,0,0,1-19.35,9.58v-5a19.39,19.39,0,0,0,19.35-18.38v-1h5A19.4,19.4,0,0,0,1600,545.19v5A24.36,24.36,0,0,1,1580.57,540.55Z"/><path class="cls-9" d="M1898.17,540.55v2.28a19.39,19.39,0,0,0,19.37,19.37v5a24.29,24.29,0,0,1-19.37-9.61v2.26a19.39,19.39,0,0,0,19.37,19.37v5a24.29,24.29,0,0,1-19.37-9.61v2.25a19.39,19.39,0,0,0,19.37,19.38v5a24.32,24.32,0,0,1-19.37-9.61v2.25a19.39,19.39,0,0,0,19.37,19.38v5a24.32,24.32,0,0,1-19.37-9.61v2.25h0a19.4,19.4,0,0,0,19.37,19.38v5a24.34,24.34,0,0,1-19.4-9.64v3.3h0a19.39,19.39,0,0,0,19.37,19.37v5a24.31,24.31,0,0,1-19.4-9.64v20.42h-5V643.74a24.33,24.33,0,0,1-19.35,9.57v-5a19.4,19.4,0,0,0,19.35-18.37v-4.23a24.36,24.36,0,0,1-19.35,9.57v-5a19.4,19.4,0,0,0,19.35-18.38v-3.25a24.35,24.35,0,0,1-19.38,9.61v-5a19.4,19.4,0,0,0,19.38-19.38v-2.25a24.35,24.35,0,0,1-19.38,9.61v-5a19.4,19.4,0,0,0,19.38-19.38v-2.25a24.32,24.32,0,0,1-19.38,9.61v-5a19.4,19.4,0,0,0,19.38-19.37v-2.26a24.32,24.32,0,0,1-19.38,9.61v-5a19.4,19.4,0,0,0,19.38-19.37v-2.22a24.32,24.32,0,0,1-19.35,9.58v-5a19.4,19.4,0,0,0,19.35-18.38v-1h5a19.4,19.4,0,0,0,19.37,19.38v5A24.36,24.36,0,0,1,1898.17,540.55Z"/><path class="cls-2" d="M1124.88,483v5a24.32,24.32,0,0,1-19.4-9.65v27l-5,3V478.39a24.32,24.32,0,0,1-19.35,9.58v-5a19.39,19.39,0,0,0,19.35-18.38v-4.76a24.33,24.33,0,0,1-19.38,9.62v-5a19.4,19.4,0,0,0,19.38-19.38v-3.76a24.32,24.32,0,0,1-19.38,9.61v-5a19.39,19.39,0,0,0,19.38-19.37v-3h5v3a19.39,19.39,0,0,0,19.37,19.37v5a24.33,24.33,0,0,1-19.37-9.6v3.75a19.4,19.4,0,0,0,19.37,19.38v5a24.32,24.32,0,0,1-19.37-9.61v3.75h0A19.39,19.39,0,0,0,1124.88,483Z"/><polygon class="cls-12" points="1272.69 603.89 1269.12 609.91 1099.14 509.13 1105.96 505.04 1272.69 603.89"/></g><g id="Bushes"><path class="cls-5" d="M1516.9,1699H1397.1c5.67-25.31,30.34-44.36,59.9-44.36S1511.23,1673.69,1516.9,1699Z"/><path class="cls-5" d="M1344.24,1659.85a39.07,39.07,0,0,0,38.38,37.61A39.07,39.07,0,0,0,1344.24,1659.85Z"/><circle class="cls-6" cx="1390.44" cy="1633.8" r="11.91"/><path class="cls-5" d="M999.26,1670.2V1699H400V1443.59a162,162,0,0,1,162-162A170.47,170.47,0,0,1,732.5,1452v28.06a170.42,170.42,0,0,1-7.7,50.8H859.93A139.33,139.33,0,0,1,999.26,1670.2Z"/><path class="cls-10" d="M611.6,1570.63a44,44,0,0,0,34.83,49.53A44,44,0,0,0,611.6,1570.63Z"/><path class="cls-10" d="M696.79,1572.51a44,44,0,0,0-37.28,47.71A44,44,0,0,0,696.79,1572.51Z"/><path class="cls-10" d="M435.16,1439.62a44,44,0,0,0,0,60.55A44,44,0,0,0,435.16,1439.62Z"/><path class="cls-10" d="M503.77,1490.16a44,44,0,0,0-57.94,17.59A44,44,0,0,0,503.77,1490.16Z"/><path class="cls-5" d="M899.91,1467.56a44,44,0,0,0-46.53,38.74A44,44,0,0,0,899.91,1467.56Z"/><circle class="cls-6" cx="655.89" cy="1558" r="11.19"/><circle class="cls-6" cx="577.32" cy="1369.73" r="11.19"/><circle class="cls-6" cx="475.99" cy="1450.81" r="11.19"/><circle class="cls-6" cx="475.99" cy="1645.71" r="11.19"/><circle class="cls-6" cx="911.94" cy="1596.91" r="11.19"/><path class="cls-5" d="M2260,1553.39V1699H1957.7v-25.16a65,65,0,0,1,65-65h78.7a82.58,82.58,0,0,1-2-18V1559a83.07,83.07,0,0,1,83.07-83.06h0A77.49,77.49,0,0,1,2260,1553.39Z"/><path class="cls-10" d="M2214.49,1622.2a26.81,26.81,0,0,1,0,36.87A26.81,26.81,0,0,1,2214.49,1622.2Z"/><path class="cls-10" d="M2172.71,1653a26.81,26.81,0,0,1,35.28,10.71A26.81,26.81,0,0,1,2172.71,1653Z"/><path class="cls-5" d="M2057.61,1570.19a32.17,32.17,0,0,1,34,28.32A32.2,32.2,0,0,1,2057.61,1570.19Z"/><circle class="cls-6" cx="2184.63" cy="1622.2" r="11.91"/><circle class="cls-6" cx="2012.23" cy="1669.07" r="11.91"/><rect class="cls-2" x="755.77" y="1445.35" width="5" height="253.65"/><rect class="cls-2" x="787.91" y="1556.81" width="5" height="142.19"/><rect class="cls-2" x="736.47" y="1636.17" width="5" height="62.83"/><rect class="cls-2" x="1519.2" y="1609.09" width="5" height="89.91"/><rect class="cls-2" x="1534.35" y="1650.57" width="5" height="47.84"/></g><g id="Snow"><polygon class="cls-2" points="1089.32 1379.32 1081.85 1383.64 1089.32 1387.95 1087.82 1390.55 1080.35 1386.23 1080.35 1394.87 1077.35 1394.87 1077.35 1386.23 1069.88 1390.55 1068.38 1387.95 1075.85 1383.64 1068.38 1379.32 1069.88 1376.73 1077.35 1381.04 1077.35 1372.41 1080.35 1372.41 1080.35 1381.04 1087.82 1376.73 1089.32 1379.32"/><polygon class="cls-2" points="456.3 1218.37 448.83 1222.69 456.3 1227 454.8 1229.6 447.33 1225.28 447.33 1233.91 444.33 1233.91 444.33 1225.28 436.86 1229.6 435.36 1227 442.83 1222.69 435.36 1218.37 436.86 1215.77 444.33 1220.09 444.33 1211.46 447.33 1211.46 447.33 1220.09 454.8 1215.77 456.3 1218.37"/><polygon class="cls-2" points="485.27 353.79 477.8 358.1 485.27 362.41 483.77 365.01 476.3 360.7 476.3 369.33 473.3 369.33 473.3 360.7 465.83 365.01 464.33 362.41 471.8 358.1 464.33 353.79 465.83 351.19 473.3 355.5 473.3 346.87 476.3 346.87 476.3 355.5 483.77 351.19 485.27 353.79"/><polygon class="cls-2" points="546.66 692.7 539.18 697.01 546.66 701.33 545.16 703.92 537.69 699.61 537.69 708.24 534.69 708.24 534.69 699.61 527.21 703.92 525.71 701.33 533.19 697.01 525.71 692.7 527.21 690.1 534.69 694.42 534.69 685.79 537.69 685.79 537.69 694.41 545.16 690.1 546.66 692.7"/><polygon class="cls-2" points="806.48 569.89 799.01 574.21 806.48 578.52 804.98 581.12 797.51 576.8 797.51 585.43 794.51 585.43 794.51 576.8 787.04 581.12 785.54 578.52 793.01 574.21 785.54 569.89 787.04 567.29 794.51 571.61 794.51 562.98 797.51 562.98 797.51 571.61 804.98 567.29 806.48 569.89"/><polygon class="cls-2" points="677.55 406.72 670.08 411.04 677.55 415.35 676.05 417.95 668.58 413.64 668.58 422.26 665.58 422.26 665.58 413.63 658.1 417.95 656.6 415.35 664.07 411.04 656.6 406.72 658.1 404.12 665.58 408.44 665.58 399.81 668.58 399.81 668.58 408.43 676.05 404.12 677.55 406.72"/><polygon class="cls-2" points="1032.3 1034.89 1024.83 1039.21 1032.3 1043.52 1030.8 1046.12 1023.33 1041.8 1023.33 1050.44 1020.33 1050.44 1020.33 1041.8 1012.86 1046.12 1011.36 1043.52 1018.83 1039.21 1011.36 1034.89 1012.86 1032.3 1020.33 1036.61 1020.33 1027.98 1023.33 1027.98 1023.33 1036.61 1030.8 1032.3 1032.3 1034.89"/><polygon class="cls-2" points="1840.48 1341.5 1833.01 1345.82 1840.48 1350.13 1838.98 1352.73 1831.51 1348.42 1831.51 1357.04 1828.51 1357.04 1828.51 1348.41 1821.03 1352.73 1819.53 1350.13 1827 1345.82 1819.53 1341.5 1821.03 1338.9 1828.51 1343.22 1828.51 1334.59 1831.51 1334.59 1831.51 1343.21 1838.98 1338.9 1840.48 1341.5"/><polygon class="cls-2" points="2165.99 999 2173.46 1003.32 2171.96 1005.91 2164.49 1001.6 2164.49 1010.23 2161.49 1010.23 2161.49 1001.6 2154.02 1005.91 2152.52 1003.32 2159.99 999 2152.52 994.69 2154.02 992.09 2161.49 996.41 2161.49 987.77 2164.49 987.77 2164.49 996.41 2171.96 992.09 2173.46 994.69 2165.99 999"/><polygon class="cls-2" points="2025.88 1203.82 2018.41 1208.14 2025.88 1212.45 2024.38 1215.05 2016.91 1210.73 2016.91 1219.36 2013.91 1219.36 2013.91 1210.73 2006.44 1215.05 2004.94 1212.45 2012.41 1208.14 2004.94 1203.82 2006.44 1201.22 2013.91 1205.54 2013.91 1196.91 2016.91 1196.91 2016.91 1205.54 2024.38 1201.22 2025.88 1203.82"/><polygon class="cls-2" points="1520.25 895.04 1520.25 886.41 1512.78 890.73 1511.28 888.13 1518.75 883.82 1511.28 879.5 1512.78 876.9 1520.25 881.22 1520.25 872.59 1523.25 872.59 1523.25 881.22 1530.72 876.9 1532.22 879.5 1524.75 883.82 1532.22 888.13 1530.72 890.73 1523.25 886.41 1523.25 895.04 1520.25 895.04"/><polygon class="cls-2" points="1259.65 322.46 1252.18 326.77 1259.65 331.09 1258.15 333.68 1250.68 329.37 1250.68 338 1247.68 338 1247.68 329.37 1240.21 333.68 1238.71 331.09 1246.18 326.77 1238.71 322.46 1240.21 319.86 1247.68 324.18 1247.68 315.54 1250.68 315.54 1250.68 324.18 1258.15 319.86 1259.65 322.46"/><polygon class="cls-2" points="1541.45 1438.65 1533.98 1442.97 1541.45 1447.28 1539.95 1449.88 1532.47 1445.56 1532.47 1454.19 1529.47 1454.19 1529.47 1445.57 1522 1449.88 1520.5 1447.28 1527.97 1442.97 1520.5 1438.65 1522 1436.05 1529.47 1440.36 1529.47 1431.74 1532.47 1431.74 1532.47 1440.37 1539.95 1436.05 1541.45 1438.65"/><polygon class="cls-2" points="1287.21 1191.8 1279.74 1196.12 1287.21 1200.43 1285.71 1203.03 1278.24 1198.72 1278.24 1207.34 1275.24 1207.34 1275.24 1198.71 1267.76 1203.03 1266.26 1200.43 1273.73 1196.12 1266.26 1191.8 1267.76 1189.2 1275.24 1193.52 1275.24 1184.89 1278.24 1184.89 1278.24 1193.51 1285.71 1189.2 1287.21 1191.8"/><polygon class="cls-2" points="1777.41 1631.86 1769.94 1636.18 1777.41 1640.49 1775.91 1643.09 1768.43 1638.77 1768.43 1647.4 1765.43 1647.4 1765.43 1638.78 1757.96 1643.09 1756.46 1640.49 1763.93 1636.18 1756.46 1631.86 1757.96 1629.26 1765.43 1633.57 1765.43 1624.95 1768.43 1624.95 1768.43 1633.58 1775.91 1629.26 1777.41 1631.86"/><polygon class="cls-2" points="1816.62 448.71 1816.62 440.09 1809.15 444.4 1807.65 441.8 1815.13 437.49 1807.65 433.17 1809.15 430.58 1816.62 434.89 1816.62 426.26 1819.62 426.26 1819.62 434.89 1827.1 430.58 1828.6 433.17 1821.12 437.49 1828.6 441.8 1827.1 444.4 1819.62 440.08 1819.62 448.71 1816.62 448.71"/><polygon class="cls-1" points="2027.13 747.47 2019.66 751.79 2027.13 756.1 2025.63 758.7 2018.16 754.39 2018.16 763.01 2015.16 763.01 2015.16 754.38 2007.68 758.7 2006.18 756.1 2013.65 751.79 2006.18 747.47 2007.68 744.87 2015.16 749.19 2015.16 740.56 2018.16 740.56 2018.16 749.18 2025.63 744.87 2027.13 747.47"/><polygon class="cls-1" points="1550.7 339.3 1543.22 343.61 1550.7 347.93 1549.2 350.52 1541.72 346.21 1541.72 354.84 1538.72 354.84 1538.72 346.21 1531.25 350.52 1529.75 347.93 1537.23 343.61 1529.75 339.3 1531.25 336.7 1538.72 341.01 1538.72 332.38 1541.72 332.38 1541.72 341.02 1549.2 336.7 1550.7 339.3"/><polygon class="cls-1" points="2219.86 481.73 2227.34 486.05 2225.84 488.64 2218.37 484.33 2218.37 492.96 2215.37 492.96 2215.37 484.33 2207.89 488.64 2206.39 486.05 2213.87 481.73 2206.39 477.42 2207.89 474.82 2215.37 479.14 2215.37 470.51 2218.37 470.51 2218.37 479.13 2225.84 474.82 2227.34 477.42 2219.86 481.73"/><polygon class="cls-1" points="2217.62 1469.5 2210.15 1473.82 2217.62 1478.13 2216.12 1480.73 2208.64 1476.41 2208.64 1485.04 2205.64 1485.04 2205.64 1476.42 2198.17 1480.73 2196.67 1478.13 2204.14 1473.82 2196.67 1469.5 2198.17 1466.9 2205.64 1471.21 2205.64 1462.59 2208.64 1462.59 2208.64 1471.22 2216.12 1466.9 2217.62 1469.5"/><polygon class="cls-1" points="1447.02 539.66 1439.55 543.98 1447.02 548.29 1445.52 550.89 1438.05 546.57 1438.05 555.2 1435.05 555.2 1435.05 546.57 1427.58 550.89 1426.08 548.29 1433.55 543.98 1426.08 539.66 1427.58 537.06 1435.05 541.38 1435.05 532.75 1438.05 532.75 1438.05 541.38 1445.52 537.06 1447.02 539.66"/><polygon class="cls-1" points="688.63 1144.99 681.15 1149.31 688.63 1153.62 687.13 1156.22 679.65 1151.9 679.65 1160.53 676.65 1160.53 676.65 1151.91 669.18 1156.22 667.68 1153.62 675.16 1149.31 667.68 1144.99 669.18 1142.4 676.65 1146.71 676.65 1138.08 679.65 1138.08 679.65 1146.71 687.13 1142.4 688.63 1144.99"/><polygon class="cls-1" points="1232.23 1602.34 1224.76 1606.66 1232.23 1610.97 1230.73 1613.57 1223.26 1609.25 1223.26 1617.88 1220.26 1617.88 1220.26 1609.25 1212.79 1613.57 1211.29 1610.97 1218.76 1606.66 1211.29 1602.34 1212.79 1599.74 1220.26 1604.06 1220.26 1595.43 1223.26 1595.43 1223.26 1604.06 1230.73 1599.74 1232.23 1602.34"/></g></svg>