<svg id="Слой_1" data-name="Слой 1" xmlns="http://www.w3.org/2000/svg" xmlns:xlink="http://www.w3.org/1999/xlink" viewBox="0 0 2660 2000"><defs><style>.cls-1{fill:#caebff;}.cls-2{fill:url(#Безымянный_градиент_762);}.cls-3{fill:#00dac8;}.cls-4{fill:#00bebe;}.cls-5{fill:#74cdff;}.cls-10,.cls-11,.cls-14,.cls-15,.cls-17,.cls-18,.cls-19,.cls-6{fill:none;stroke-miterlimit:10;}.cls-14,.cls-15,.cls-17,.cls-6{stroke:#fff;}.cls-19,.cls-6{stroke-width:10px;}.cls-7{fill:#50b0f1;}.cls-8{fill:#96d7ff;}.cls-9{fill:#fff;}.cls-10{stroke:#00b7cb;}.cls-10,.cls-11{stroke-width:5.19px;}.cls-11{stroke:#1d6277;}.cls-11,.cls-15{stroke-linecap:round;}.cls-12{fill:#1d6277;}.cls-13{fill:#00b7cb;}.cls-14{stroke-width:6px;}.cls-15{stroke-width:5px;}.cls-16{fill:#f46501;}.cls-17,.cls-18{stroke-width:3px;}.cls-18,.cls-19{stroke:#caebff;}</style><linearGradient id="Безымянный_градиент_762" x1="1331.44" y1="688.19" x2="1328.5" y2="1699.46" gradientUnits="userSpaceOnUse"><stop offset="0.06" stop-color="#00b7cb"/><stop offset="0.2" stop-color="#00bfca"/><stop offset="0.68" stop-color="#00d3c9"/><stop offset="1" stop-color="#00dac8"/></linearGradient></defs><g id="Background"><rect class="cls-1" x="400" y="303.95" width="1860" height="1390.65"/></g><g id="Ocean"><rect class="cls-2" x="400" y="671.43" width="1860" height="1024.62"/><rect class="cls-3" x="1157.16" y="696.8" width="864.9" height="7.42"/><rect class="cls-3" x="2059.58" y="696.8" width="194.3" height="7.42"/><rect class="cls-3" x="1221.01" y="719.05" width="123.51" height="7.42"/><rect class="cls-3" x="1369.25" y="719.05" width="24.24" height="7.42"/><rect class="cls-3" x="1418.14" y="719.05" width="380.91" height="7.42"/><rect class="cls-3" x="1831.26" y="719.05" width="422.62" height="7.42"/><rect class="cls-3" x="1308.47" y="741.31" width="300.12" height="7.42"/><rect class="cls-3" x="1639.58" y="741.31" width="253.55" height="7.42"/><rect class="cls-3" x="1924.8" y="741.31" width="26.19" height="7.42"/><rect class="cls-3" x="1981.31" y="741.31" width="272.58" height="7.42"/><rect class="cls-3" x="1426.88" y="763.56" width="321.84" height="7.42"/><rect class="cls-3" x="1775.67" y="763.56" width="454.9" height="7.42"/><rect class="cls-3" x="1426.88" y="785.81" width="31.65" height="7.42"/><rect class="cls-3" x="1487.87" y="785.81" width="766.01" height="7.42"/><rect class="cls-3" x="1426.88" y="808.07" width="181.71" height="7.42"/><rect class="cls-3" x="1639.58" y="808.07" width="382.48" height="7.42"/><rect class="cls-3" x="2059.58" y="808.07" width="194.3" height="7.42"/><rect class="cls-3" x="1909.89" y="830.32" width="343.99" height="7.42"/><rect class="cls-3" x="1125.07" y="696.8" width="13" height="7.42"/><polygon class="cls-4" points="1518.25 1354.42 1518.25 1528.49 1115 1528.49 1518.25 1354.42"/></g><g id="Glaciers"><path class="cls-5" d="M908.28,304v92.16l-25.12,50.67a544.12,544.12,0,0,0-56.63,241.7V999.27H400V304Z"/><line class="cls-6" x1="913.58" y1="396.11" x2="913.58" y2="303.95"/><path class="cls-7" d="M400,346.9,675.36,621.67A269.48,269.48,0,0,1,743,800.16V999.27H400Z"/><path class="cls-5" d="M1518.25,1113.1v241.32l-348.67,149.45a174.49,174.49,0,0,0-40.26,24.62h-78.74v-51.12a106,106,0,0,1,63.68-97.16l316.62-137.82A136.56,136.56,0,0,0,1513,1117.17v-4.07Z"/><path class="cls-1" d="M2260,1528.49v167.56H400V999.27H1405.18A107.77,107.77,0,0,1,1513,1107v10.14a136.56,136.56,0,0,1-82.07,125.22l-316.62,137.82a106,106,0,0,0-63.68,97.16v51.12Z"/><path class="cls-6" d="M400,998.21H1405.18A107.77,107.77,0,0,1,1513,1106v252.1"/><line class="cls-6" x1="2260" y1="1523.48" x2="891.03" y2="1523.48"/><polygon class="cls-8" points="826.02 1004.84 400 1168.77 400 1004.84 826.02 1004.84"/></g><g id="Bear"><polygon class="cls-8" points="1189.78 1269.94 884.56 1269.94 401.65 1455.68 401.65 1573.21 1189.78 1269.94"/><path class="cls-9" d="M1072.36,756.21c5.61,0,8.21,5.46,9.39,12.27q6.33-.33,12.74-.33a148,148,0,0,1,69.82,17.5l46.33,24.78c3.55,1.9,5.2,6.79,4,9.9-2.79,7.37-7.74,16.38-14.27,22.35a51.23,51.23,0,0,1-23.53,12.21L1119.6,867.5A21.39,21.39,0,0,0,1112,906l21,14.53a242,242,0,0,1,104.13,198.9v76.68a84.4,84.4,0,0,1-84.4,84.4H857.66a46.21,46.21,0,0,0,38.16-56.85L858,1069.85c-34-138.33,57-272.39,191-297.51l5.62-7.32C1056.54,762.54,1062.75,756.21,1072.36,756.21Z"/><path class="cls-10" d="M935.83,1279.37A46.3,46.3,0,0,0,974,1222.52l-37.82-153.78"/><line class="cls-11" x1="912.71" y1="1279.37" x2="927.03" y2="1265.65"/><line class="cls-11" x1="893.44" y1="1279.37" x2="907.76" y2="1265.65"/><line class="cls-11" x1="874.18" y1="1279.37" x2="888.49" y2="1265.65"/><line class="cls-11" x1="995.29" y1="1279.37" x2="1009.6" y2="1265.65"/><line class="cls-11" x1="976.02" y1="1279.37" x2="990.33" y2="1265.65"/><path class="cls-10" d="M1047,1279.37a46.29,46.29,0,0,0,38.16-56.85l-25.78-96.82c-12.51-47,32.4-89.06,78.49-73.44l48.65,16.48"/><line class="cls-10" x1="1176.87" y1="858.19" x2="1004.76" y2="895.81"/><circle class="cls-12" cx="1137.81" cy="798.99" r="5.65"/><path class="cls-12" d="M1078.53,781.06l-13.41,6.71c.44-17.91,4.36-27.41,7.24-27.41C1077.25,760.36,1078.44,771.33,1078.53,781.06Z"/><path class="cls-12" d="M1210.25,830.86a22.19,22.19,0,0,1-20.64,13.88h-18.3a2.6,2.6,0,0,1,0-5.2h18.3a17,17,0,0,0,15.83-10.64l-9.61-8.64,8.7-13.1,6.11,3.28a8.36,8.36,0,0,1,4,9.89Z"/></g><g id="Glaciers-2" data-name="Glaciers"><path class="cls-9" d="M1087.48,671.43l140.25-95.95a144.58,144.58,0,0,1,81.63-25.25H1425v121.2Z"/><path class="cls-9" d="M2260,304V671.43H1993.48a235.55,235.55,0,0,1-133-41.15L1832,610.83h-328l59.73-44.89,129.9-97.61c16-12,7.47-37.4-12.5-37.4H1426.33a6,6,0,0,1,2.06-1.73L1671.63,304Z"/><path class="cls-7" d="M1504.05,610.83h328l28.43,19.45a235.55,235.55,0,0,0,133,41.15H1425V434.69a6.15,6.15,0,0,1,1.29-3.76h254.85c20,0,28.46,25.41,12.5,37.4Z"/><line class="cls-6" x1="1832.03" y1="610.83" x2="1832.03" y2="671.43"/><line class="cls-6" x1="1511.46" y1="610.83" x2="1511.46" y2="671.43"/><line class="cls-6" x1="1430.34" y1="429.39" x2="1430.34" y2="674.61"/><line class="cls-6" x1="826.53" y1="675.67" x2="2260" y2="675.67"/></g><path id="Bird" class="cls-12" d="M1232.23,399a2.5,2.5,0,0,1-2.5,2.5,12.18,12.18,0,0,0-12.17,12.17,2.5,2.5,0,1,1-5,0,12.18,12.18,0,0,0-12.17-12.17,2.5,2.5,0,0,1,0-5,17.2,17.2,0,0,1,14.67,8.25,17.18,17.18,0,0,1,14.67-8.25A2.5,2.5,0,0,1,1232.23,399Z"/><g id="Whale"><path class="cls-12" d="M1837.89,852.5v9.43a50,50,0,0,1-33.41,47.15l-51.59,18.11A26.84,26.84,0,0,0,1735,952.51v21.77a17.08,17.08,0,0,1-17.08,17.08h-45a31.79,31.79,0,0,0,31.79-31.8v-7.07a26.81,26.81,0,0,0-17.93-25.3l-51.59-18.11a50,50,0,0,1-33.42-47.15V852.5h82a38.21,38.21,0,0,1,36.09,25.65,38.22,38.22,0,0,1,36.09-25.65Z"/><path class="cls-13" d="M1648.92,899.87H1640a60,60,0,0,1-23.21-47.37h5A55,55,0,0,0,1648.92,899.87Z"/><path class="cls-13" d="M1669.57,899.87h-8.88a59.93,59.93,0,0,1-23.21-47.37h5A55,55,0,0,0,1669.57,899.87Z"/><path class="cls-13" d="M1688.69,899.87h-8.88a59.93,59.93,0,0,1-23.21-47.37h5A55,55,0,0,0,1688.69,899.87Z"/><path class="cls-13" d="M1707.88,899.87h-8.64a58.38,58.38,0,0,1-5.48-5,60.3,60.3,0,0,1-17-42.4h5C1681.74,872.9,1692.11,890.38,1707.88,899.87Z"/><path class="cls-13" d="M1823.57,852.5A59.92,59.92,0,0,1,1800,900.13l.21-.26h-8.75a55,55,0,0,0,27.09-47.37Z"/><path class="cls-13" d="M1802.93,852.5a60,60,0,0,1-23.21,47.37h-8.89a55,55,0,0,0,27.1-47.37Z"/><path class="cls-13" d="M1782.75,852.5a60,60,0,0,1-23.21,47.37h-8.88a55,55,0,0,0,27.09-47.37Z"/><path class="cls-13" d="M1762.61,852.5a59.89,59.89,0,0,1-23.23,47.37h-8.86a55,55,0,0,0,27.09-47.37Z"/><path class="cls-14" d="M1671.79,991.36h0a31.8,31.8,0,0,0,31.8-31.8v-7.07a26.81,26.81,0,0,0-17.94-25.3l-51.59-18.11a50,50,0,0,1-33.42-47.15V852.5"/><path class="cls-14" d="M1718.74,878.15a38.22,38.22,0,0,1,36.09-25.65h83.06"/><line class="cls-14" x1="1636.3" y1="991.36" x2="1783.28" y2="991.36"/><line class="cls-14" x1="1617.6" y1="991.36" x2="1604.8" y2="991.36"/><line class="cls-14" x1="1623.52" y1="1010.88" x2="1676.06" y2="1010.88"/></g><g id="Bird-2" data-name="Bird"><polygon class="cls-8" points="1870.04 1558.76 1870.04 1566.25 1521.28 1699.05 1501.61 1699.05 1870.04 1558.76"/><polygon class="cls-8" points="1847.53 1551.87 1461.01 1699.05 1441.33 1699.05 1840.18 1547.03 1847.53 1551.87"/><path class="cls-9" d="M1904.91,1492.85a51.87,51.87,0,0,1-38.49,17.08h-1.09a65.77,65.77,0,0,1-65.85-65.75v-.44a50.33,50.33,0,0,1,6.89-25.41l.21-.37a8.23,8.23,0,0,0-7.1-12.4h-5.29l2-6.65a21.55,21.55,0,0,1,42.22,6.11v5.51a21.79,21.79,0,0,0,12.21,19.56l21.35,10.43a227.2,227.2,0,0,0,99.82,23.1h36l-59.89,5.55a61.59,61.59,0,0,0-16.09,3.72,49.91,49.91,0,0,1,6.24-.4h54.9a2.5,2.5,0,0,1,0,5H1938a44.75,44.75,0,0,0-27.58,9.57Z"/><circle class="cls-12" cx="1811.9" cy="1398.1" r="2.69"/><line class="cls-15" x1="2020.42" y1="1464.29" x2="1934.64" y2="1464.29"/><path class="cls-1" d="M1898.94,1480.71a43.46,43.46,0,0,1-38.52-5.51c-9.61-6.84-15.72-17.07-15.72-28.5v-20.85a21.66,21.66,0,0,0,5.89,4.24l21.35,10.44a227.28,227.28,0,0,0,59.17,19.42l10.8,1.7,78.7-.08a2.79,2.79,0,0,1,2.8,2.79h0a2.79,2.79,0,0,1-2.79,2.8h-36.91a271.51,271.51,0,0,0-83.7,13.21Z"/><path class="cls-16" d="M1845.19,1552h-5v-5h5a12.15,12.15,0,0,0,12.13-12.13v-25.19h5v25.19A17.15,17.15,0,0,1,1845.19,1552Z"/><path class="cls-16" d="M1875,1509.71v58.89h-5V1555a16.71,16.71,0,0,1-4,3l-11.94,6.45-2.37-4.41,11.94-6.44a12.15,12.15,0,0,0,6.39-10.71v-33.18Z"/><path class="cls-12" d="M2021.47,1467.29h-74.68a3,3,0,0,1,0-6h74.68a3,3,0,1,1,0,6Z"/><path class="cls-16" d="M1784.32,1408.89l-3.34-3.71a17.55,17.55,0,0,1,11.76-4.52H1803v5h-10.24A12.6,12.6,0,0,0,1784.32,1408.89Z"/></g><g id="Snow"><line class="cls-17" x1="1009.6" y1="1578.64" x2="1009.6" y2="1601.08"/><line class="cls-17" x1="999.88" y1="1584.25" x2="1019.32" y2="1595.47"/><line class="cls-17" x1="999.88" y1="1595.47" x2="1019.32" y2="1584.25"/><line class="cls-17" x1="2188.39" y1="1614.38" x2="2188.39" y2="1636.82"/><line class="cls-17" x1="2178.67" y1="1619.99" x2="2198.1" y2="1631.21"/><line class="cls-17" x1="2178.67" y1="1631.21" x2="2198.1" y2="1619.99"/><line class="cls-17" x1="1063" y1="599.61" x2="1063" y2="622.05"/><line class="cls-17" x1="1053.28" y1="605.22" x2="1072.72" y2="616.44"/><line class="cls-17" x1="1053.28" y1="616.44" x2="1072.72" y2="605.22"/><line class="cls-17" x1="1408.21" y1="335.68" x2="1408.21" y2="358.12"/><line class="cls-17" x1="1398.49" y1="341.29" x2="1417.93" y2="352.51"/><line class="cls-17" x1="1398.49" y1="352.51" x2="1417.93" y2="341.29"/><line class="cls-18" x1="1937.9" y1="539.01" x2="1937.9" y2="561.45"/><line class="cls-18" x1="1928.18" y1="544.62" x2="1947.61" y2="555.84"/><line class="cls-18" x1="1928.18" y1="555.84" x2="1947.61" y2="544.62"/><line class="cls-18" x1="2207.82" y1="374.43" x2="2207.82" y2="396.88"/><line class="cls-18" x1="2198.1" y1="380.04" x2="2217.54" y2="391.27"/><line class="cls-18" x1="2198.1" y1="391.27" x2="2217.54" y2="380.04"/><line class="cls-18" x1="639.96" y1="1450.07" x2="639.96" y2="1472.51"/><line class="cls-18" x1="630.24" y1="1455.68" x2="649.68" y2="1466.9"/><line class="cls-18" x1="630.24" y1="1466.9" x2="649.68" y2="1455.68"/><line class="cls-18" x1="546.7" y1="1057.52" x2="546.7" y2="1079.97"/><line class="cls-18" x1="536.98" y1="1063.13" x2="556.42" y2="1074.36"/><line class="cls-18" x1="536.98" y1="1074.36" x2="556.42" y2="1063.13"/><line class="cls-18" x1="2117.59" y1="917.77" x2="2117.59" y2="940.22"/><line class="cls-18" x1="2107.88" y1="923.39" x2="2127.31" y2="934.61"/><line class="cls-18" x1="2107.88" y1="934.61" x2="2127.31" y2="923.39"/><line class="cls-18" x1="1282.77" y1="1440.16" x2="1282.77" y2="1462.6"/><line class="cls-18" x1="1273.05" y1="1445.77" x2="1292.48" y2="1456.99"/><line class="cls-18" x1="1273.05" y1="1456.99" x2="1292.48" y2="1445.77"/><line class="cls-18" x1="1687.85" y1="1172.52" x2="1687.85" y2="1194.96"/><line class="cls-18" x1="1678.13" y1="1178.13" x2="1697.57" y2="1189.35"/><line class="cls-18" x1="1678.13" y1="1189.35" x2="1697.57" y2="1178.13"/><line class="cls-18" x1="2020.42" y1="1360.19" x2="2020.42" y2="1382.64"/><line class="cls-18" x1="2010.7" y1="1365.8" x2="2030.13" y2="1377.03"/><line class="cls-18" x1="2010.7" y1="1377.03" x2="2030.13" y2="1365.8"/><line class="cls-17" x1="669.12" y1="800.55" x2="669.12" y2="823"/><line class="cls-17" x1="659.4" y1="806.17" x2="678.84" y2="817.39"/><line class="cls-17" x1="659.4" y1="817.39" x2="678.84" y2="806.17"/><line class="cls-17" x1="1282.77" y1="866.93" x2="1282.77" y2="889.37"/><line class="cls-17" x1="1273.05" y1="872.54" x2="1292.48" y2="883.76"/><line class="cls-17" x1="1273.05" y1="883.76" x2="1292.48" y2="872.54"/><line class="cls-18" x1="795.72" y1="396.88" x2="795.72" y2="419.32"/><line class="cls-18" x1="786" y1="402.49" x2="805.44" y2="413.71"/><line class="cls-18" x1="786" y1="413.71" x2="805.44" y2="402.49"/><line class="cls-18" x1="455.72" y1="513.28" x2="455.72" y2="535.72"/><line class="cls-18" x1="446" y1="518.89" x2="465.44" y2="530.11"/><line class="cls-18" x1="446" y1="530.11" x2="465.44" y2="518.89"/><line class="cls-17" x1="790.48" y1="1173.03" x2="790.48" y2="1195.47"/><line class="cls-17" x1="780.76" y1="1178.64" x2="800.2" y2="1189.86"/><line class="cls-17" x1="780.76" y1="1189.86" x2="800.2" y2="1178.64"/><line class="cls-18" x1="1731.36" y1="632.09" x2="1731.36" y2="654.54"/><line class="cls-18" x1="1721.64" y1="637.7" x2="1741.08" y2="648.93"/><line class="cls-18" x1="1721.64" y1="648.93" x2="1741.08" y2="637.7"/></g><rect id="Frame" class="cls-19" x="400" y="303.95" width="1860" height="1390.65"/></svg>