<svg id="Слой_1" data-name="Слой 1" xmlns="http://www.w3.org/2000/svg" xmlns:xlink="http://www.w3.org/1999/xlink" viewBox="0 0 2660 2000"><defs><style>.cls-1{fill:#b5ecef;}.cls-11,.cls-12,.cls-2{fill:#fff;}.cls-2{opacity:0.5;}.cls-3{fill:url(#Безымянный_градиент_832);}.cls-4{fill:url(#Безымянный_градиент_37);}.cls-5{fill:#1b6478;}.cls-6{fill:#285152;}.cls-7{fill:url(#Безымянный_градиент_832-2);}.cls-8{fill:#00e3d1;}.cls-9{fill:#89edee;}.cls-10{fill:#b8f4f5;}.cls-11{opacity:0.7;}.cls-13,.cls-14{fill:none;stroke:#fff;stroke-miterlimit:10;}.cls-13{stroke-width:4px;}.cls-14{stroke-width:5px;}.cls-15{fill:#27cecd;}.cls-16{fill:url(#Безымянный_градиент_832-3);}.cls-17{fill:#eeb200;}.cls-18{fill:#c49400;}.cls-19{fill:#45774e;}.cls-20{fill:#799a37;}.cls-21{fill:#7bae3f;}.cls-22{fill:#81b53d;}</style><linearGradient id="Безымянный_градиент_832" x1="1880.84" y1="1822.63" x2="1883.8" y2="665.09" gradientUnits="userSpaceOnUse"><stop offset="0.12" stop-color="#00b7cb"/><stop offset="0.24" stop-color="#00bfca"/><stop offset="0.61" stop-color="#00d3c9"/><stop offset="0.86" stop-color="#00dac8"/></linearGradient><linearGradient id="Безымянный_градиент_37" x1="1716.36" y1="978.81" x2="1707.73" y2="1494.17" gradientUnits="userSpaceOnUse"><stop offset="0.14" stop-color="#00b9c8"/><stop offset="0.48" stop-color="#02c0c8"/><stop offset="0.72" stop-color="#04c9c8"/></linearGradient><linearGradient id="Безымянный_градиент_832-2" x1="1443.28" y1="654.83" x2="2260" y2="654.83" xlink:href="#Безымянный_градиент_832"/><linearGradient id="Безымянный_градиент_832-3" x1="36.34" y1="1168.7" x2="1407.34" y2="1168.7" xlink:href="#Безымянный_градиент_832"/></defs><g id="Background"><path class="cls-1" d="M400,298.71H2260a0,0,0,0,1,0,0v1400H401.36Z"/></g><g id="Clouds"><polygon class="cls-2" points="1088.56 406.79 400 406.79 400 298.7 728.56 298.7 1088.56 406.79"/><polygon class="cls-2" points="1515.62 461.88 2260 461.88 2260 384.13 1515.62 461.88"/></g><g id="Water"><rect class="cls-3" x="1504.31" y="917.22" width="755.69" height="781.48"/><polygon class="cls-4" points="1848.52 1013.77 1583.03 1013.77 1583.03 1353.88 1680.34 1353.88 1680.34 1101.86 1848.52 1013.77"/></g><g id="Rock"><polygon class="cls-5" points="1678.21 683.85 400.94 683.85 400.94 625.81 1443.28 625.81 1678.21 683.85"/><polygon class="cls-6" points="1847.58 1005.25 400.69 1005.25 400.37 683.85 1677.27 683.85 1677.27 916.1 1847.58 1005.25"/><polygon class="cls-5" points="1583.55 1005.25 1650.99 957.63 1738.33 979.65 1678.21 916.1 1848.52 1005.25 1583.55 1005.25"/></g><g id="Waterfall"><polygon class="cls-7" points="2260 625.81 2260 683.85 1678.21 683.85 1443.28 625.81 2260 625.81"/><polygon class="cls-8" points="1846.84 683.85 1803.71 683.85 1658 625.81 1683.29 625.81 1846.84 683.85"/><polygon class="cls-8" points="1965.09 683.85 1900.23 683.85 1736.76 625.81 1776.23 625.81 1965.09 683.85"/><polygon class="cls-8" points="2116.01 683.85 1916.01 625.82 1897.94 625.82 2091.98 683.85 2116.01 683.85"/><polygon class="cls-8" points="2251.31 683.85 2036.21 625.82 1988.99 625.82 2183.03 683.85 2251.31 683.85"/><rect class="cls-9" x="1678.21" y="683.85" width="581.79" height="232.25"/><rect class="cls-10" x="1803.71" y="683.85" width="43.14" height="232.22"/><rect class="cls-10" x="2091.42" y="683.85" width="24.58" height="232.22"/><rect class="cls-10" x="2182.42" y="683.85" width="68.89" height="232.22"/><rect class="cls-10" x="1901.92" y="683.85" width="63.17" height="232.22"/><path class="cls-2" d="M1678.21,911.81c0-20.89,17.74-37.82,39.62-37.82s39.62,16.93,39.62,37.82Z"/><path class="cls-2" d="M1783.9,911.81c0-10.44,8.87-18.91,19.81-18.91s19.81,8.47,19.81,18.91Z"/><path class="cls-11" d="M1848.52,911.81c0-28.15,23.91-51,53.4-51s53.39,22.82,53.39,51Z"/><path class="cls-2" d="M2144.37,911.2c0-10.44,8.87-18.91,19.81-18.91S2184,900.76,2184,911.2Z"/><path class="cls-11" d="M2259.91,860.29V911.2H2209C2209,883.84,2231.57,861.52,2259.91,860.29Z"/><path class="cls-2" d="M1992.74,911.89h-52.3c3.17-11,13.67-19,26.14-19S1989.57,900.93,1992.74,911.89Z"/><path class="cls-2" d="M2024,911.81c0-18.25,15.5-33,34.62-33s34.63,14.8,34.63,33Z"/><path class="cls-12" d="M2110,911.81h-37.21a20.48,20.48,0,0,1,37.21,0Z"/><circle class="cls-2" cx="1776.94" cy="880.59" r="6.6"/><circle class="cls-12" cx="2091.42" cy="865.57" r="6.6"/><circle class="cls-2" cx="1700.68" cy="860.84" r="6.6"/><circle class="cls-12" cx="1870.72" cy="852.79" r="4.33"/><circle class="cls-2" cx="2002.7" cy="885.91" r="5.32"/><line class="cls-13" x1="1981.42" y1="721.31" x2="1981.42" y2="853.07"/><line class="cls-14" x1="2260" y1="686.66" x2="1678.21" y2="686.66"/><line class="cls-14" x1="1678.21" y1="913.65" x2="2260" y2="913.65"/><path class="cls-9" d="M401.36,1698.7l-.31-45.24,1155-720.8c7.68-4.79,4.32-16.62-4.67-16.71h.46A31,31,0,0,1,1583,947V1698.7Z"/><polygon class="cls-10" points="1305.26 1089.36 1305.26 1698.7 1202.11 1698.7 1202.11 1153.71 1305.26 1089.36"/><rect class="cls-12" x="1473.39" y="1155.74" width="5" height="374"/><rect class="cls-8" x="1169.83" y="1167.41" width="5" height="256.87"/><polygon class="cls-10" points="1441.96 1698.7 1441.96 1004 1404.93 1026.46 1404.93 1698.7 1441.96 1698.7"/><rect class="cls-8" x="1597.08" y="1460.37" width="5" height="8.16"/><rect class="cls-8" x="1597.08" y="1271.64" width="5" height="174.54"/><rect class="cls-8" x="1621.44" y="1178.42" width="5" height="123.73"/><path class="cls-8" d="M1603.14,1229.84h-5V962.67A41.24,41.24,0,0,0,1557,921.48h-25.16v-5H1557a46.24,46.24,0,0,1,46.19,46.19Z"/><path class="cls-9" d="M1515.62,720.23v195.4c-204.81-4.07-367.39-33.92-389-71.48a17,17,0,0,1-2.44-8.52c0-29.71,87.9-55.67,218.68-69.6,41.95-4.48,88.31-7.72,137.59-9.44a36.4,36.4,0,0,0,35.15-36.36Z"/><path class="cls-15" d="M1534.29,740.44h-5A51.33,51.33,0,0,0,1478,689.16v-5A56.34,56.34,0,0,1,1534.29,740.44Z"/><rect class="cls-15" x="1529.29" y="756.23" width="5" height="9.63"/><rect class="cls-15" x="1529.29" y="787.51" width="5" height="128.27"/><path class="cls-10" d="M1406,760.48v150.3c-151-10.63-261.8-36.07-279.36-66.63a17,17,0,0,1-2.44-8.52c0-29.71,87.9-55.67,218.68-69.6C1363,763.89,1384.06,762,1406,760.48Z"/><rect class="cls-12" x="1370.66" y="788.93" width="5" height="118.71"/><path class="cls-16" d="M1556.58,932.61,401.32,1653.55l-.63-648.3L400.48,799,915.16,683.85h564.08a36.38,36.38,0,0,1,1.23,72.74c-49.29,1.73-95.64,5-137.59,9.44-130.77,13.93-218.68,39.89-218.68,69.6a17,17,0,0,0,2.44,8.52c23.24,40.44,209.94,72,436.81,72h-11.6A8.93,8.93,0,0,1,1556.58,932.61Z"/><polygon class="cls-8" points="1305.26 1089.35 1202.11 1153.71 402.05 1151.64 402 1089.35 1305.26 1089.35"/><path class="cls-8" d="M1405.06,760.48c-21.94,1.54-43,3.41-63.12,5.55-130.78,13.93-218.68,39.89-218.68,69.6a15.3,15.3,0,0,0,.56,4.07l-723.3-2.23,0-38.5,172.39-38.49Z"/><polygon class="cls-8" points="1441.96 1004 1415.58 1020.46 400.94 1018.01 400.94 1004 1441.96 1004"/><rect class="cls-8" x="954.17" y="863.52" width="203.55" height="5"/><rect class="cls-8" x="915.49" y="863.52" width="12.83" height="5"/><line class="cls-14" x1="878.17" y1="1355.7" x2="1564.45" y2="927.45"/></g><g id="Water_splash" data-name="Water splash"><path class="cls-2" d="M1500.71,1698.7H1356.83a72.73,72.73,0,0,1,143.88,0Z"/><path class="cls-2" d="M1714.82,1611.34a120,120,0,0,1-37.57,87.36H1511.63a120.38,120.38,0,1,1,203.19-87.36Z"/><circle class="cls-11" cx="1803.71" cy="1606.01" r="17.79"/><circle class="cls-11" cx="2083.5" cy="1328.91" r="17.79"/><path class="cls-2" d="M2260,1529.74a30.22,30.22,0,1,1,0-60.43Z"/><circle class="cls-11" cx="1373.16" cy="1508.21" r="17.79"/><path class="cls-2" d="M1788.44,1698.7H1568c.53-57.79,49.68-104.49,110.24-104.49a112.05,112.05,0,0,1,84.09,37.27,104.92,104.92,0,0,1,14.08,20.16h0A101.27,101.27,0,0,1,1788.44,1698.7Z"/><path class="cls-11" d="M1978.27,1698.7H1804.78c6.47-40.26,42.84-71.1,86.74-71.1a89.21,89.21,0,0,1,67,29.67,83.28,83.28,0,0,1,11.21,16h0A80.87,80.87,0,0,1,1978.27,1698.7Z"/><circle class="cls-2" cx="2006.15" cy="1529.86" r="168.84"/><path class="cls-2" d="M2260,1578.7v120H2068.79a116.08,116.08,0,0,1,191.21-120Z"/></g><g id="Observation_deck" data-name="Observation deck"><path class="cls-17" d="M1423.92,1698.7H401.36l-.62-639.15,475.65,298.51L682.15,1479.24v23.08a28.56,28.56,0,0,0,28.55,28.55h416.71a93.52,93.52,0,0,1,49.42,14.12Z"/><path class="cls-18" d="M881.2,1353.93v175.81H710.7a28.55,28.55,0,0,1-28.55-28.55v-23.07Z"/><path class="cls-19" d="M971.82,1531.73H790.52c0-52.75,28.14-91.26,62.85-91.26,29.32,0,54,27.46,60.9,67.77a39.14,39.14,0,0,1,22.19-6.69C956,1501.55,971.82,1515.06,971.82,1531.73Z"/><path class="cls-18" d="M847.08,1375.1l-5,3.09L400.77,1082.07v-6.42l32.71,21.94,15.53-7.74,5.3,3.32L438.57,1101,506,1146.26l18.3-9.13,5.3,3.33-18.51,9.22,67.07,45,21.08-10.51,5.31,3.33-21.3,10.6,47.07,31.58,23.08-11.5,5.32,3.31-23.3,11.61,51,34.2,25.28-12.59L717,1258l-25.5,12.7,67.22,45.1,28.07-14,5.28,3.32-28.27,14.08Z"/><path class="cls-18" d="M1353.84,1697.57h11.63l-95.42-62.78h47.86l-9.68-6h-47.3l-113.15-74.44a165,165,0,0,0-84.71-27.09H996.26l0,4.51,17.23.17v.14q3.76,0,7.48.19c28.12,1.38,55,11.44,78.3,27.59l198.14,137.71h11.21l-90.34-62.78h40.08Zm-144.14-68.78L1103,1554.62a156.16,156.16,0,0,0-43.1-21c-1.37-.43-2.75-.83-4.14-1.22l2.81,0c.49,0,1,0,1.46,0,30.08.55,59.1,10.74,84.26,27.28l105,69.1Z"/><path class="cls-12" d="M1177.48,1474.59a107.68,107.68,0,0,0-50.33-12.54H703a18.32,18.32,0,0,1-14.13-6.65,18.29,18.29,0,0,1,4.82-4.13l93.77-57v18.1l5-3.12v-18l82.86-50.35.17-.11v16.65l5-3.08V1332.5h0a8.29,8.29,0,0,0,0-1,10.64,10.64,0,0,0-5.45-9.17l-5.62-3.34,5.9-3.66a10.78,10.78,0,0,0-.31-18.59L400.74,1024.49v5.81l48.93,28.08v11.2l-48.93-29.08v5.82l48.93,29.07v14.75l5,3.14v-14.92l69.95,41.57v17.25l5,3.13V1122.9l70,41.56v19.75l5,3.14v-19.92l48.95,29.08v21.76l5,3.27v-22.06L712,1231.25v23.51l5,3.13v-23.66l70.49,41.88v26l5,3.14v-26.19l67.32,40L698.08,1419.24a38.94,38.94,0,0,0-18.43,33.1v48.32a31.58,31.58,0,0,0,31.58,31.58h412.2a102.11,102.11,0,0,1,53.86,15.35l243.79,151.18H1430l.47-.06L1321.29,1631v-33.12l170.78,100.88h8.17l.47-.07-179.42-106.62v-35.37l267.22,142.06h10.91l.17-.07ZM524.62,1114.11l-69.95-41.56v-11.3l69.95,40.15Zm75,44.53-70-41.56v-12.81l70,40.15Zm53.95,32.06-48.95-29.09v-14.33l48.95,28.1ZM712,1225.44l-53.47-31.77v-15.42L712,1208.94Zm75.49,44.85L717,1228.41V1211.8l70.49,40.46Zm5,3v-18.13l80.08,46a5.77,5.77,0,0,1,.16,10l-8.13,5Zm0,93.4,72.16-44.7,7.92,4.7a5.77,5.77,0,0,1,.18,10l-80.26,48.77Zm-106.32,82.55a29.44,29.44,0,0,1,13.89-25l87.43-54.45v18.67L691.14,1447a23,23,0,0,0-5,4Zm150.53,78H711.23a26.61,26.61,0,0,1-26.58-26.58v-13.77a26.9,26.9,0,0,0,22,11.34H836.69Zm0-34H706.6a22,22,0,0,1-22-22v-4.17a18.26,18.26,0,0,1,1.51-7.26,23.35,23.35,0,0,0,16.86,7.2H836.69Zm157,34h-152v-29h152Zm0-34h-152v-26.18h152Zm150.36,36a107.08,107.08,0,0,0-20.65-2H998.72v-29h125.92a101.9,101.9,0,0,1,19.44,1.87Zm0-34.24a107.08,107.08,0,0,0-19.44-1.78H998.72v-26.18h128.43a103.24,103.24,0,0,1,16.93,1.41Zm172.21,132.89-136.37-84.56a107,107,0,0,0-30.84-13v-29.15a101.63,101.63,0,0,1,27.54,11.23l139.67,82.5Zm0-38.77-137.12-81a107.36,107.36,0,0,0-30.09-12.08v-26.61a102.3,102.3,0,0,1,26.05,9.57l141.16,75Z"/></g><g id="Trees_Bushes" data-name="Trees &amp; Bushes"><path class="cls-20" d="M2116,562.61v52H1457.2L1490.47,586a96.41,96.41,0,0,1,62.89-23.34h113.81L1691.54,533A96.47,96.47,0,0,1,1766,497.93h36.54a65.15,65.15,0,0,1,60.4,40.7c15.45-13.17,39.25-21.61,66-21.61,40.67,0,74.62,19.57,82.54,45.59Z"/><polygon class="cls-21" points="400.48 798.97 400.48 798.96 400.37 683.85 916.34 683.85 400.48 798.97"/><path class="cls-19" d="M1504.31,614.58H400.3l-.09-93.09H560.94c22.84-35.63,65.49-59.61,114.35-59.61,56.9,0,105.4,32.55,124,78.15H905.63a49.12,49.12,0,0,1,40.44,21.24l7.5,10.89h81.83c8.49-33.46,40.11-58.31,77.82-58.31a81.89,81.89,0,0,1,54.48,20.41c3.83-35.39,25.59-62.51,51.87-62.51,27.69,0,50.38,30.11,52.35,68.28h52.33a143,143,0,0,1,65.21,15.73Z"/><polygon class="cls-6" points="1628.91 614.27 1576.6 614.27 1602.76 521.01 1628.91 614.27"/><polygon class="cls-22" points="1496.45 564.71 1471.8 589.38 1471.8 597.93 1468.17 596.07 1468.17 589.37 1443.51 564.71 1444.78 560.86 1468.17 584.23 1468.17 577.19 1446.52 555.55 1447.79 551.68 1468.17 572.05 1468.17 565.01 1449.52 546.38 1450.79 542.51 1468.17 559.88 1468.17 552.84 1452.53 537.2 1453.8 533.34 1468.17 547.7 1468.17 540.66 1455.54 528.03 1456.8 524.17 1468.17 535.54 1468.17 528.5 1458.54 518.87 1459.81 515 1468.17 523.36 1468.17 516.32 1461.55 509.7 1462.82 505.83 1468.17 511.18 1468.17 504.14 1464.55 500.53 1465.82 496.66 1468.17 499.01 1468.17 488.55 1471.8 488.55 1471.8 499.02 1474.16 496.66 1475.42 500.53 1471.8 504.15 1471.8 511.19 1477.16 505.83 1478.43 509.7 1471.8 516.33 1471.8 523.37 1480.16 515 1481.43 518.87 1471.8 528.51 1471.8 535.55 1483.17 524.18 1484.44 528.03 1471.8 540.67 1471.8 547.71 1486.17 533.34 1487.44 537.2 1471.8 552.85 1471.8 559.89 1489.17 542.51 1490.45 546.38 1471.8 565.02 1471.8 572.06 1492.18 551.68 1493.45 555.55 1471.8 577.2 1471.8 584.24 1495.18 560.85 1496.45 564.71"/><polygon class="cls-22" points="610.7 605.34 583.28 632.77 583.28 642.61 579.91 642.61 579.91 632.76 552.49 605.34 553.67 601.76 579.91 627.99 579.91 619.2 555.83 595.14 557.02 591.54 579.91 614.43 579.91 605.63 559.18 584.92 560.36 581.33 579.91 600.86 579.91 592.07 562.54 574.7 563.72 571.11 579.91 587.3 579.91 578.51 565.89 564.49 567.05 560.9 579.91 573.75 579.91 564.96 569.23 554.28 570.41 550.69 579.91 560.18 579.91 551.39 572.58 544.06 573.76 540.47 579.91 546.62 579.91 537.83 575.93 533.85 577.11 530.26 579.91 533.06 579.91 520.93 583.28 520.93 583.28 533.07 586.09 530.26 587.27 533.85 583.28 537.84 583.28 546.63 589.44 540.47 590.62 544.06 583.28 551.4 583.28 560.19 592.78 550.69 593.96 554.28 583.28 564.97 583.28 573.76 596.13 560.91 597.31 564.49 583.28 578.52 583.28 587.31 599.48 571.11 600.66 574.7 583.28 592.08 583.28 600.87 602.82 581.33 604 584.92 583.28 605.64 583.28 614.44 606.17 591.54 607.35 595.14 583.28 619.21 583.28 628 609.51 601.76 610.7 605.34"/><polygon class="cls-22" points="1233.99 593.07 1215.37 611.69 1215.37 613.07 1213.99 613.07 1213.82 613.24 1213.65 613.07 1212.24 613.07 1212.24 611.66 1193.63 593.07 1194.73 589.73 1212.24 607.23 1212.24 599.48 1196.65 583.89 1197.74 580.56 1212.24 595.05 1212.24 587.31 1199.65 574.72 1200.74 571.4 1212.24 582.89 1212.24 575.14 1202.66 565.56 1203.75 562.23 1212.24 570.71 1212.24 562.96 1205.66 556.39 1206.76 553.06 1212.24 558.54 1212.24 550.79 1208.67 547.22 1209.76 543.88 1212.24 546.36 1212.24 535.56 1215.37 535.56 1215.37 546.39 1217.87 543.88 1218.97 547.22 1215.37 550.82 1215.37 558.57 1220.88 553.06 1221.97 556.39 1215.37 562.99 1215.37 570.74 1223.88 562.23 1224.98 565.56 1215.37 575.17 1215.37 582.92 1226.88 571.4 1227.98 574.72 1215.37 587.34 1215.37 595.08 1229.89 580.56 1230.98 583.89 1215.37 599.51 1215.37 607.26 1232.89 589.73 1233.99 593.07"/><path class="cls-21" d="M919.46,612.19H822.91c.86-18.76,11.81-33.6,25.2-33.6,6.64,0,12.68,3.64,17.18,9.6L889,503.61Z"/><rect class="cls-6" x="782.27" y="612.19" width="1477.73" height="13.62"/><path class="cls-6" d="M2260,584v30.58H1805.19a24.17,24.17,0,0,1,24.17-24.18H1883c6.35-23.6,29.64-41.08,57.41-41.08a61.65,61.65,0,0,1,42.78,16.74,76.33,76.33,0,0,1-1.13-13c0-34,22.4-61.58,50.06-61.58s50,27.59,50,61.58v.21a51.82,51.82,0,0,1,15.08-2.21c23,0,41.74,14.56,43.23,33Z"/><path class="cls-20" d="M914.22,683.85H400.37l-.07-69.27H596.87A63.09,63.09,0,0,1,720.39,613C729,602.56,741.45,596,755.33,596c25.94,0,47,22.85,47,51.05,0,1.61-.07,3.21-.22,4.78h80.14A32,32,0,0,1,914.22,683.85Z"/><polygon class="cls-22" points="2060.46 595.31 2038.85 616.92 2038.85 625.27 2035.72 625.27 2035.72 616.91 2014.1 595.31 2015.19 591.97 2035.72 612.48 2035.72 604.74 2017.1 586.13 2018.2 582.8 2035.72 600.31 2035.72 592.56 2020.12 576.96 2021.21 573.63 2035.72 588.13 2035.72 580.38 2023.12 567.79 2024.21 564.47 2035.72 575.97 2035.72 568.22 2026.13 558.63 2027.22 555.3 2035.72 563.79 2035.72 556.04 2029.13 549.46 2030.23 546.12 2035.72 551.61 2035.72 543.87 2032.13 540.29 2033.23 536.95 2035.72 539.44 2035.72 528.62 2038.85 528.62 2038.85 539.45 2041.34 536.95 2042.44 540.29 2038.85 543.88 2038.85 551.62 2044.35 546.12 2045.44 549.46 2038.85 556.05 2038.85 563.8 2047.35 555.3 2048.45 558.63 2038.85 568.23 2038.85 575.98 2050.35 564.47 2051.45 567.79 2038.85 580.39 2038.85 588.14 2053.36 573.63 2054.45 576.96 2038.85 592.57 2038.85 600.32 2056.36 582.8 2057.46 586.13 2038.85 604.75 2038.85 612.49 2059.37 591.97 2060.46 595.31"/></g><g id="Ship"><polygon class="cls-18" points="1953.66 1220.77 2010.88 1220.77 2027.58 1194.53 1936.96 1194.53 1953.66 1220.77"/><polygon class="cls-17" points="1807.45 1220.77 1953.66 1220.77 1936.96 1194.53 1769.89 1194.53 1807.45 1220.77"/><polygon class="cls-18" points="2027.58 1163.13 2027.58 1171.68 2017.88 1171.68 2017.88 1194.53 2014.88 1194.53 2014.88 1171.68 1950.92 1171.68 1950.92 1194.53 1947.92 1194.53 1947.92 1171.68 1937.85 1171.68 1937.85 1163.13 2027.58 1163.13"/><polygon class="cls-17" points="1937.85 1163.13 1937.85 1171.68 1883.96 1171.68 1883.96 1194.53 1880.96 1194.53 1880.96 1171.68 1817 1171.68 1817 1194.53 1814 1194.53 1814 1171.68 1813.95 1171.68 1813.95 1163.13 1937.85 1163.13"/><path class="cls-12" d="M2027.7,1187.19v-4H1768.83v4h22.85v7.34h-22.85v4.5h258.75v-4.5h-9.7v-7.34Zm-213.7,7.34h-19.32v-7.34H1814Zm22.32,0H1817v-7.34h19.32Zm22.32,0h-19.32v-7.34h19.32Zm22.32,0h-19.32v-7.34H1881Zm22.32,0H1884v-7.34h19.32Zm22.32,0h-19.32v-7.34h19.32Zm22.32,0H1928.6v-7.34h19.32Zm22.32,0h-19.32v-7.34h19.32Zm22.32,0h-19.32v-7.34h19.32Zm22.32,0h-19.32v-7.34h19.32Z"/><rect class="cls-12" x="1894.79" y="1232.14" width="115.8" height="4"/><rect class="cls-12" x="2059.62" y="1218.38" width="17.63" height="4"/><rect class="cls-12" x="1742.37" y="1218.38" width="294.25" height="4"/></g><g id="Trees_in_front" data-name="Trees in front"><path class="cls-6" d="M2137.77,1698.7h-6l-36.08-53-15.67-23h-53.35a2.5,2.5,0,0,1,0-5h49.95l-42.67-62.71h-33.79a2.5,2.5,0,0,1,0-5h30.39l-21.59-31.73a2.5,2.5,0,1,1,4.13-2.81l82.17,120.76V1477.42a2.5,2.5,0,0,1,5,0v166.09Z"/><path class="cls-6" d="M2198.19,1601.83v66.37l20.62,30.5h-6L1990.63,1370h-24.4a2.5,2.5,0,0,1,0-5h21l-16.47-24.37a2.5,2.5,0,0,1,4.14-2.8l66.75,98.76v-31.8a2.5,2.5,0,0,1,5,0v37.77a2.54,2.54,0,0,1-.24,1.07l146.76,217.13V1435.73a2.5,2.5,0,0,1,5,0v22.14h31.6a2.5,2.5,0,0,1,0,5h-31.6v134H2260v5Z"/><ellipse class="cls-20" cx="1963.57" cy="1547.44" rx="22.99" ry="10.7"/><ellipse class="cls-20" cx="1991.03" cy="1617.06" rx="22.99" ry="10.7"/><ellipse class="cls-20" cx="2011.08" cy="1645.78" rx="20.93" ry="10.7" transform="translate(-357.78 2714.22) rotate(-63.57)"/><ellipse class="cls-20" cx="2111.45" cy="1445.56" rx="20.73" ry="9.65" transform="translate(-446.5 1376.7) rotate(-32.85)"/><ellipse class="cls-20" cx="2229.58" cy="1429.69" rx="20.73" ry="9.65" transform="translate(-419 1438.25) rotate(-32.85)"/><ellipse class="cls-20" cx="2228.41" cy="1564.54" rx="20.73" ry="9.65" transform="translate(-492.34 1459.18) rotate(-32.85)"/><ellipse class="cls-20" cx="2134.38" cy="1519.89" rx="22.99" ry="10.7"/><ellipse class="cls-20" cx="2097.85" cy="1435.73" rx="10.7" ry="22.99"/><ellipse class="cls-20" cx="2044.17" cy="1369.17" rx="10.7" ry="22.99"/><ellipse class="cls-20" cx="2072.8" cy="1558.14" rx="10.7" ry="22.99"/><ellipse class="cls-20" cx="2001.46" cy="1481.67" rx="10.7" ry="22.99"/><ellipse class="cls-20" cx="1988.88" cy="1490.85" rx="9.36" ry="20.12" transform="translate(-362.32 2297.15) rotate(-55.78)"/><ellipse class="cls-20" cx="1946.94" cy="1344.04" rx="9.36" ry="20.12" transform="translate(-128.38 2479.86) rotate(-63.31)"/><ellipse class="cls-20" cx="2195.69" cy="1391.15" rx="10.7" ry="22.99"/><ellipse class="cls-20" cx="835.85" cy="1184.9" rx="21.58" ry="10.05"/><path class="cls-6" d="M583.71,822.48H472.79l40.36,35.12a2.5,2.5,0,1,1-3.29,3.77l-44.69-38.89H401v-5H514.64V783.16a2.6,2.6,0,0,1,2.24-2.63,2.5,2.5,0,0,1,2.76,2.49v34.46h64.07a2.5,2.5,0,0,1,2.5,2.5h0A2.5,2.5,0,0,1,583.71,822.48Z"/><ellipse class="cls-20" cx="516.87" cy="748.55" rx="10.05" ry="21.58"/><ellipse class="cls-20" cx="555.7" cy="789.32" rx="21.58" ry="10.05" transform="translate(-349.09 452.89) rotate(-34.46)"/><ellipse class="cls-20" cx="443.13" cy="844.78" rx="21.58" ry="10.05" transform="matrix(0.82, -0.57, 0.57, 0.82, -400.22, 398.94)"/><ellipse class="cls-20" cx="535.56" cy="879.65" rx="10.05" ry="21.58" transform="translate(-484.24 736.06) rotate(-50.65)"/><ellipse class="cls-20" cx="617.19" cy="819.98" rx="21.58" ry="10.05"/><ellipse class="cls-20" cx="497.03" cy="886.02" rx="21.58" ry="10.05" transform="translate(-516.93 823.07) rotate(-57.16)"/><ellipse class="cls-20" cx="631.19" cy="1279.09" rx="21.58" ry="10.05"/><ellipse class="cls-20" cx="751.7" cy="1041.37" rx="19.78" ry="9.2"/><ellipse class="cls-20" cx="773.61" cy="962.03" rx="19.45" ry="9.05"/><ellipse class="cls-20" cx="744.49" cy="912.45" rx="10.05" ry="21.58"/><ellipse class="cls-20" cx="580.53" cy="983.61" rx="10.05" ry="21.58"/><ellipse class="cls-20" cx="452.33" cy="1091.89" rx="10.05" ry="21.58"/><ellipse class="cls-20" cx="607.41" cy="1014.2" rx="21.58" ry="10.05" transform="translate(-539.24 726.56) rotate(-45)"/><ellipse class="cls-20" cx="482.12" cy="1141.71" rx="21.58" ry="10.05" transform="translate(-666.1 675.31) rotate(-45)"/><ellipse class="cls-20" cx="551.52" cy="1014.2" rx="10.05" ry="21.58" transform="translate(-555.61 687.03) rotate(-45)"/><ellipse class="cls-20" cx="715.4" cy="936.49" rx="10.05" ry="21.58" transform="translate(-445.99 1136.48) rotate(-62.39)"/><ellipse class="cls-20" cx="551.52" cy="1070.02" rx="10.05" ry="21.58" transform="translate(-595.08 703.38) rotate(-45)"/><ellipse class="cls-20" cx="789.11" cy="911.13" rx="21.58" ry="10.05" transform="translate(-403.31 735.09) rotate(-40.71)"/><ellipse class="cls-20" cx="720.83" cy="1019.35" rx="17.46" ry="8.13" transform="translate(-455.95 602.37) rotate(-35.22)"/><ellipse class="cls-20" cx="722.04" cy="1067.4" rx="8.84" ry="19" transform="matrix(0.87, -0.5, 0.5, 0.87, -436.97, 504.02)"/><ellipse class="cls-20" cx="806.94" cy="1155.13" rx="21.58" ry="10.05" transform="translate(-589.83 1340.94) rotate(-62.64)"/><ellipse class="cls-20" cx="806.19" cy="1209.62" rx="9.34" ry="20.07" transform="translate(-605.37 862.32) rotate(-42.49)"/><ellipse class="cls-20" cx="783.92" cy="1208.62" rx="19.33" ry="9" transform="translate(-625.01 908.31) rotate(-45)"/><ellipse class="cls-20" cx="774.04" cy="1120.51" rx="21.58" ry="10.05" transform="translate(-528.67 723.49) rotate(-38.41)"/><ellipse class="cls-20" cx="682.02" cy="1124.9" rx="18.47" ry="8.6" transform="translate(-566.51 710.5) rotate(-40.41)"/><ellipse class="cls-20" cx="634.36" cy="1126.34" rx="8.17" ry="17.55" transform="translate(-634.49 879.21) rotate(-49.59)"/><ellipse class="cls-20" cx="657.64" cy="1101.09" rx="8.61" ry="18.5" transform="translate(-38.53 23.94) rotate(-2.03)"/><ellipse class="cls-20" cx="603.52" cy="1305.04" rx="8.61" ry="18.5" transform="translate(-45.77 22.16) rotate(-2.03)"/><path class="cls-6" d="M799,1184.9a2.5,2.5,0,0,1-2.5,2.5H698.22L566.31,1296.09a2.42,2.42,0,0,1-1.58.57,2.5,2.5,0,0,1-1.6-4.43l20.72-17.07h-127L498.07,1311a2.5,2.5,0,1,1-3.28,3.77l-45.4-39.51-.14-.13H401v-5H589.91l64.37-53,.86-81.79a2.49,2.49,0,0,1,2.5-2.47h0a2.5,2.5,0,0,1,2.48,2.52l-.81,77.59,85.19-70.2a2.5,2.5,0,0,1,3.18,3.86l-43.41,35.77h92.2A2.5,2.5,0,0,1,799,1184.9Z"/><path class="cls-6" d="M768.39,935.19,645.19,1039.8h72.34a2.5,2.5,0,0,1,0,5H639.3L400.94,1247.19v-6.56l49.77-42.26a2.12,2.12,0,0,1,0-.44v-73a2.5,2.5,0,0,1,5,0v69.26L578,1090.26v-73a2.5,2.5,0,0,1,5,0V1086L765.15,931.38a2.5,2.5,0,1,1,3.24,3.81Z"/><ellipse class="cls-20" cx="522.87" cy="1335.54" rx="9.34" ry="20.07" transform="translate(-816.96 823.76) rotate(-47.71)"/></g></svg>