<?xml version="1.0" encoding="UTF-8" standalone="no"?>
<!-- Created with Inkscape (http://www.inkscape.org/) -->

<svg
   version="1.1"
   id="svg2"
   xml:space="preserve"
   width="1122.52"
   height="793.70135"
   viewBox="0 0 1122.52 793.70135"
   sodipodi:docname="Antame Logo.svg"
   inkscape:version="1.1.2 (1:1.1+202202050950+0a00cf5339)"
   xmlns:inkscape="http://www.inkscape.org/namespaces/inkscape"
   xmlns:sodipodi="http://sodipodi.sourceforge.net/DTD/sodipodi-0.dtd"
   xmlns="http://www.w3.org/2000/svg"
   xmlns:svg="http://www.w3.org/2000/svg"><defs
     id="defs6"><clipPath
       clipPathUnits="userSpaceOnUse"
       id="clipPath16"><path
         d="M 0,595.276 H 841.89 V 0 H 0 Z"
         id="path14" /></clipPath></defs><sodipodi:namedview
     id="namedview4"
     pagecolor="#ffffff"
     bordercolor="#666666"
     borderopacity="1.0"
     inkscape:pageshadow="2"
     inkscape:pageopacity="0.0"
     inkscape:pagecheckerboard="0"
     showgrid="false"
     inkscape:zoom="1.004156"
     inkscape:cx="561.16777"
     inkscape:cy="397.34861"
     inkscape:window-width="1920"
     inkscape:window-height="987"
     inkscape:window-x="0"
     inkscape:window-y="0"
     inkscape:window-maximized="1"
     inkscape:current-layer="g8" /><g
     id="g8"
     inkscape:groupmode="layer"
     inkscape:label="Antame Logo"
     transform="matrix(1.3333333,0,0,-1.3333333,0,793.70133)"><g
       id="g10"><g
         id="g12"
         clip-path="url(#clipPath16)"><g
           id="g18"
           transform="translate(501.3086,253.3459)"><path
             d="m 0,0 c -1.244,7.394 -2.303,16.018 0.233,30.597 2.538,14.579 2.158,24.607 -1.861,34.787 -4.015,10.18 -5.544,19.547 -2.867,26.156 2.678,6.613 -4.207,14.615 -2.868,22.214 1.339,7.602 3.824,22.797 -0.766,27.107 -4.589,4.314 -17.02,6.364 -23.713,9.445 -6.691,3.082 -30.215,6.777 -41.881,4.928 -11.663,-1.846 -47.172,1.525 -58.07,0.496 -10.902,-1.027 -28.98,-12.195 -28.023,-23.488 0.957,-11.295 -7.556,-26.903 -5.453,-32.449 2.104,-5.544 -1.53,-28.745 0.193,-42.298 1.72,-13.553 0.756,-25.461 5.351,-34.495 4.592,-9.036 -6.602,-12.73 -6.646,-28.748 -0.044,-16.017 3.206,-28.747 3.397,-34.907 0.191,-6.159 4.591,-14.244 9.945,-16.09 5.355,-1.849 23.467,-9.446 33.412,-9.446 9.944,0 33.274,-2.671 44.555,0 11.285,2.67 50.478,1.359 58.51,5.875 8.031,4.518 14.112,12.884 14.877,17.404 0.764,4.517 2.534,23.885 0.623,27.857 C -2.965,-11.086 1.246,-7.391 0,0"
             style="fill:#6f5a48;fill-opacity:1;fill-rule:nonzero;stroke:none"
             id="path20" /></g><g
           id="g22"
           transform="translate(427.6602,335.4211)"><path
             d="m 0,0 c 1.555,-1.535 1.378,-1.412 3.297,-1.209 3.046,0.322 5.709,-0.059 8.725,-0.328 0.897,-0.081 2.249,-0.253 3.519,-0.241 -2.591,-0.252 -5.116,-0.398 -7.983,-0.041 -0.854,0.107 -9.245,-0.205 -9.256,-1.169 -0.006,-0.436 4.004,0.025 3.852,0.002 l 0.002,-0.016 c 3.67,0.244 7.246,-0.478 10.864,-0.273 2.341,0.128 5.141,1.77 6.876,1.94 -0.979,-0.095 -1.915,-0.201 -2.837,-0.3 0.439,0.092 0.835,0.223 1.136,0.434 0.618,0.434 1.275,2.481 0.863,2.946 -0.594,0.669 -4.533,0.302 -5.563,0.393 -1.73,0.157 -3.471,0.267 -5.196,0.471 L 8.294,2.558 C 6.923,2.647 -1.606,4.278 -2.551,3.323 -3.09,2.78 -0.242,0.242 0,0"
             style="fill:#ffffff;fill-opacity:1;fill-rule:nonzero;stroke:none"
             id="path24" /></g><g
           id="g26"
           transform="translate(388.9321,342.6906)"><path
             d="M 0,0 C -0.039,-0.397 -0.103,-0.794 -0.218,-1.173 -0.271,-0.383 -0.379,0.379 -0.512,1.132 -0.653,1.881 -0.829,2.617 -1.045,3.337 -1.261,4.056 -1.521,4.76 -1.825,5.441 -2.117,6.156 -2.371,6.903 -2.51,7.703 -1.982,7.113 -1.574,6.471 -1.203,5.798 -0.827,5.1 -0.533,4.35 -0.322,3.578 -0.114,2.801 0.01,2 0.037,1.2 0.051,0.797 0.042,0.396 0,0 M -2.668,-1.173 -2.933,1.09 C -3.02,1.833 -3.124,2.569 -3.238,3.302 -3.289,3.668 -3.361,4.03 -3.418,4.397 l -0.106,0.547 c -0.033,0.181 -0.067,0.364 -0.11,0.544 -0.137,0.735 -0.335,1.449 -0.489,2.215 0.112,-0.153 0.216,-0.31 0.318,-0.471 0.052,-0.081 0.1,-0.163 0.149,-0.245 L -3.523,6.733 C -3.435,6.564 -3.351,6.392 -3.27,6.217 -3.195,6.041 -3.126,5.861 -3.059,5.681 l 0.102,-0.272 0.086,-0.275 c 0.058,-0.186 0.112,-0.368 0.16,-0.556 l 0.13,-0.569 C -2.539,3.821 -2.514,3.627 -2.48,3.439 -2.363,2.67 -2.308,1.895 -2.332,1.119 -2.359,0.348 -2.445,-0.43 -2.668,-1.173 M -4.882,1.04 c -0.074,-0.738 -0.17,-1.476 -0.337,-2.213 -0.148,0.742 -0.221,1.485 -0.265,2.227 -0.043,0.739 -0.055,1.482 -0.038,2.22 0.017,0.742 0.063,1.483 0.143,2.221 0.08,0.74 0.187,1.476 0.376,2.208 0.131,-0.747 0.188,-1.488 0.224,-2.228 0.035,-0.741 0.044,-1.483 0.027,-2.219 -0.02,-0.741 -0.061,-1.48 -0.13,-2.216 M -6.687,5.488 C -6.73,5.308 -6.766,5.125 -6.798,4.944 L -6.901,4.397 C -6.961,4.03 -7.033,3.668 -7.083,3.302 -7.197,2.569 -7.3,1.833 -7.389,1.09 l -0.264,-2.263 c -0.223,0.743 -0.31,1.521 -0.336,2.292 -0.022,0.776 0.031,1.551 0.149,2.32 0.033,0.188 0.057,0.382 0.101,0.57 l 0.127,0.569 c 0.05,0.188 0.107,0.37 0.162,0.556 l 0.085,0.275 0.101,0.272 c 0.07,0.18 0.138,0.36 0.215,0.536 0.08,0.175 0.165,0.347 0.251,0.516 l 0.134,0.254 c 0.049,0.082 0.097,0.164 0.15,0.245 0.102,0.161 0.206,0.318 0.316,0.471 -0.153,-0.766 -0.354,-1.48 -0.489,-2.215 m -2.59,-2.151 c -0.216,-0.72 -0.391,-1.456 -0.529,-2.205 -0.134,-0.753 -0.241,-1.515 -0.297,-2.305 -0.116,0.379 -0.178,0.776 -0.216,1.173 -0.042,0.396 -0.051,0.797 -0.038,1.2 0.027,0.8 0.15,1.601 0.358,2.378 0.212,0.772 0.504,1.522 0.881,2.22 0.371,0.673 0.783,1.315 1.308,1.905 C -7.95,6.903 -8.205,6.156 -8.497,5.441 -8.797,4.76 -9.059,4.056 -9.277,3.337 M 2.924,-1.284 c 0,0.106 -0.081,0.193 -0.18,0.193 H 2.45 c -0.098,0 -0.179,0.087 -0.179,0.195 v 2.219 c 0,0.103 -0.082,0.19 -0.178,0.19 H 1.961 C 1.86,1.513 1.78,1.602 1.783,1.71 1.807,2.556 1.5,5.882 -1.178,7.924 c -2.309,1.759 -2.158,1.73 -3.288,2.64 0.681,0.12 1.216,0.721 1.285,1.471 0.005,0.047 -0.052,0.064 -0.074,0.026 -0.233,-0.464 -0.727,-0.754 -1.268,-0.642 -0.462,0.098 -0.834,0.498 -0.923,0.993 -0.105,0.596 0.174,1.138 0.618,1.381 0.034,0.02 0.022,0.072 0.022,0.072 -0.919,-0.079 -1.595,-0.959 -1.43,-1.963 0.096,-0.581 0.481,-1.062 0.987,-1.261 -0.55,-0.836 -1.701,-1.068 -3.802,-2.57 -1,-0.718 -2.989,-3.704 -3.027,-5.026 -0.039,-1.324 -0.269,-1.737 -0.462,-1.82 -0.192,-0.082 -0.231,-0.661 -0.231,-1.117 0,-0.455 -0.039,-1.199 -0.27,-1.241 -0.207,-0.036 -0.476,-1.25 -0.115,-1.542 l -0.183,-0.069 c -0.346,-0.183 -2.006,-1.947 -2.549,-2.529 -0.113,-0.121 -0.173,-0.28 -0.173,-0.445 v -6.181 c 0,0 1.322,1.028 1.536,1.894 0.119,0.479 0.608,0.424 0.835,0.424 4.839,0 7.822,1.171 7.891,1.353 0.068,0.175 -5.851,-0.374 -7.223,-0.236 -0.291,0.031 -0.818,0.159 -0.818,0.699 0,0.541 0.798,0.827 1.444,0.706 1.241,-0.233 2.991,-0.105 4.689,0 6.767,0.416 9.336,0.878 -0.605,0.815 -4.861,-0.027 -4.372,1.655 -3.965,1.655 0.405,0 4.081,-0.49 8.424,-0.295 4.815,0.213 6.925,0.763 6.925,0.763 l -0.314,1.337 c 0.106,0.026 0.166,0.04 0.166,0.04 z"
             style="fill:#ffffff;fill-opacity:1;fill-rule:nonzero;stroke:none"
             id="path28" /></g><g
           id="g30"
           transform="translate(451.2598,328.5578)"><path
             d="m 0,0 c -0.544,0.84 -0.274,1.905 -0.595,2.492 -0.318,0.586 -1.1,1.13 -1.1,1.13 0,0 -0.682,0.536 -1.891,0.565 C -4.796,4.216 -5.122,3.789 -5.173,3.658 -5.223,3.527 -5.454,3.39 -5.454,3.39 c 0,0 -0.609,-0.181 -0.733,-0.66 -0.124,-0.477 0.102,-0.614 0.102,-0.614 -0.022,0.086 0.058,0.202 0.058,0.202 0.086,-0.145 0.573,-0.073 0.68,-0.094 C -5.238,2.202 -5.144,2.116 -5.144,2.116 -4.6,1.513 -4.594,0.724 -4.594,0.724 -5.34,0.419 -5.556,-0.275 -5.629,-0.45 -5.702,-0.624 -6.093,-0.819 -6.469,-1.022 -6.846,-1.225 -7.382,-1.638 -7.611,-1.783 -7.84,-1.927 -8.056,-2.195 -8.505,-2.623 -8.954,-3.05 -9.367,-4 -9.426,-4.108 -9.482,-4.217 -9.577,-4.456 -9.78,-4.76 c -0.202,-0.304 -0.369,-0.674 -0.369,-0.724 0,-0.052 -0.109,-0.385 -0.261,-0.537 -0.153,-0.152 -0.631,-0.949 -0.754,-1.078 -0.122,-0.132 -0.261,-0.674 -0.318,-0.769 -0.059,-0.093 -0.152,-0.174 -0.523,-0.412 -0.369,-0.24 -0.454,-0.428 -0.527,-0.515 -0.073,-0.086 -0.573,-0.514 -0.928,-0.819 -0.354,-0.304 -0.927,-1.021 -0.927,-1.021 -0.572,-0.224 -1.022,-0.899 -1.022,-0.899 -0.732,-0.521 -1.405,-1.129 -1.506,-1.549 -0.102,-0.421 0.317,-0.247 0.317,-0.247 0,0 1.697,0.84 2.233,1.144 0.536,0.304 0.97,0.356 0.97,0.356 -0.036,-0.152 -0.348,-0.761 -0.348,-0.761 -0.571,-0.753 -0.833,-1.579 -0.833,-1.579 0,0 -0.188,-0.239 -0.391,-0.537 -0.204,-0.296 -0.442,-0.767 -0.442,-0.767 l 0.196,0.109 c 0,0 -0.101,-0.356 -0.131,-0.558 -0.029,-0.203 0.16,-0.03 0.16,-0.03 -0.102,-0.137 0,-0.202 0,-0.202 0,0 0.327,0.124 0.406,0.137 0.08,0.015 0.231,0.037 0.231,0.037 -0.029,-0.196 0.318,-0.174 0.318,-0.174 h 0.529 c 0.333,0 0.928,0.427 0.928,0.427 0.558,-0.457 1.316,0.906 1.442,1.07 0.126,0.164 2.202,3.062 2.459,3.574 0.255,0.512 0.767,1.319 0.767,1.319 -0.064,-0.46 0.338,-0.692 0.338,-0.692 l -0.155,0.692 c 0,0 0.135,-0.141 0.147,-0.324 0.008,-0.184 0.216,-0.812 0.216,-0.812 0,0 0.25,0.295 0.303,0.434 0.054,0.141 0.179,0.335 0.223,0.485 0.043,0.149 0.28,0.067 0.28,0.067 l 0.617,-1.14 c 0,0 0.464,-0.768 0.364,-1.068 -0.101,-0.299 0.015,-0.96 -0.068,-1.24 -0.082,-0.281 -0.064,-0.525 -0.064,-0.525 -0.044,-0.116 0.078,-0.116 0.078,-0.116 -0.058,-0.354 0.493,-0.544 0.493,-0.544 -0.319,0.182 -0.289,0.544 -0.289,0.544 0,0 0.021,0.036 0.094,0.131 0.073,0.094 0,0.377 0,0.463 0,0.087 0.079,0.073 0.187,0.138 0.11,0.065 -0.014,0.247 -0.021,0.341 -0.008,0.094 0.145,0.173 0.268,0.18 0.122,0.008 0.615,-0.471 0.674,-0.506 0.058,-0.036 0,0.101 0.225,0.044 0.224,-0.059 0.26,-0.392 0.26,-0.392 0.165,0.166 -0.065,0.392 -0.167,0.601 -0.1,0.211 -0.29,0.312 -0.362,0.341 -0.072,0.028 -0.231,0.268 -0.231,0.268 l 0.115,0.029 c 0,0 0.182,0.108 0.262,0.108 0.08,0 0.413,0.08 0.449,0.08 0.035,0 0.094,-0.21 0.195,-0.225 0.102,-0.014 0.159,0.153 0.159,0.153 0.073,0 0.16,-0.501 0.16,-0.501 0.232,0.341 0,0.674 0,0.674 0,0 -0.095,0.182 -0.319,0.232 -0.225,0.051 -0.963,0.007 -0.963,0.007 -0.312,0.217 -0.189,0.899 -0.189,0.899 l 0.66,0.919 c 0,0 0.796,1.24 0.927,1.551 0.131,0.311 0.564,0.934 0.564,0.934 0.008,-0.434 0.197,-0.514 0.197,-0.514 l 0.039,0.008 c 0.819,0.194 1.615,1.06 1.778,1.246 0.167,0.188 1.471,2.108 1.624,2.984 0.152,0.876 -0.204,1.485 -0.479,1.732 -0.276,0.245 -0.449,0.159 -0.449,0.159 0,0 0.215,1.492 -0.036,1.92"
             style="fill:#ffffff;fill-opacity:1;fill-rule:nonzero;stroke:none"
             id="path32" /></g><g
           id="g34"
           transform="translate(400.4727,322.1848)"><path
             d="m 0,0 c 0.228,-1.523 0.482,-2.234 0.65,-3.766 0.127,-1.155 0.044,-3.758 -0.291,-4.93 2.111,-0.81 4.21,-2.518 6.325,-3.33 C 6.86,-7.885 7.647,-1.691 8.478,2.378 5.517,2.117 2.561,1.238 -0.448,0.973 -0.123,0.69 -0.049,0.343 0,0"
             style="fill:#ffffff;fill-opacity:1;fill-rule:nonzero;stroke:none"
             id="path36" /></g><g
           id="g38"
           transform="translate(447.1729,339.947)"><path
             d="m 0,0 c 0.263,0.705 -10.853,14.553 -11.045,14.485 -0.82,-0.294 0.721,-15.573 0.95,-15.565 C -8.985,-0.959 -0.326,-0.865 0,0"
             style="fill:#ffffff;fill-opacity:1;fill-rule:nonzero;stroke:none"
             id="path40" /></g><g
           id="g42"
           transform="translate(444.751,294.9377)"><path
             d="M 0,0 C 0.492,-1.738 1.391,-4.518 1.512,-5.589 1.646,-6.785 0.928,-7.491 0.015,-8.086 -0.254,-8.264 -0.62,-8.048 -0.599,-7.713 -0.454,-5.412 -0.178,-2.075 0,0 M 20.895,3.821 C 18.878,5.952 16.966,8.653 16.966,8.653 16.756,8.977 12.989,8.787 8.978,9.078 5.471,9.325 1.535,10.438 0.04,10.859 -0.961,9.579 -3.694,6.178 -6.482,3.816 c -2.926,-2.476 -5.845,-4.315 -5.824,-4.651 0,0 -0.766,-4.695 -0.995,-7.864 -0.262,-3.637 -0.955,-5.93 -0.955,-5.93 l 18.731,6.476 c 0,0 -2.259,7.313 -2.85,9.202 -0.09,0.286 -0.375,0.454 -0.66,0.389 l -9.438,-2.12 c 0,0 8.063,2.932 11.016,3.899 C 4.219,3.768 13.732,6.59 13.732,6.59 L 5.108,3.145 C 4.957,3.083 4.909,2.893 5.006,2.762 5.758,1.744 9.222,-5.096 9.222,-5.096 l 15.213,5.97 c 0,0 -1.522,0.816 -3.54,2.947"
             style="fill:#ffffff;fill-opacity:1;fill-rule:nonzero;stroke:none"
             id="path44" /></g><g
           id="g46"
           transform="translate(415.1504,336.5359)"><path
             d="m 0,0 c -0.622,-0.359 -1.244,-0.72 -1.877,-1.082 0.001,-0.006 0.003,-0.01 0.003,-0.01 l 7.445,3.601 -8.337,-4.327 c -1.327,0.603 -2.64,1.233 -3.955,1.857 -0.12,0.055 -0.239,0.106 -0.404,0.183 0.057,-0.077 0.083,-0.106 0.167,-0.217 -0.504,0.243 -0.925,0.449 -1.346,0.646 -0.195,0.094 -0.402,0.172 -0.586,0.285 -0.073,0.048 -0.107,0.171 -0.072,0.344 1.175,-0.549 2.35,-1.095 3.525,-1.643 l 0.015,0.025 c -0.571,0.323 -1.13,0.662 -1.711,0.961 -0.585,0.294 -1.19,0.542 -1.808,0.821 0.02,0.053 0.047,0.126 0.087,0.236 1.869,-1.018 5.692,-3.081 5.736,-3.12 0,0 2.322,1.049 3.118,1.44 M -9.592,2.24 -9.77,2.539 c 0,0 -0.073,1.477 -0.139,1.665 1.443,-0.695 5.09,-2.487 5.09,-2.487 0,0 -3.414,1.467 -4.694,1.992 l -0.013,-0.03 c 1.88,-0.841 3.756,-1.688 5.641,-2.532 0.013,0.049 0.729,-2.25 0.834,-2.407 -0.4,0.259 -1.492,0.83 -1.375,0.808 -0.157,0.101 -0.671,0.359 -0.831,0.426 C -6.005,0.375 -6.76,0.757 -7.501,1.172 -7.905,1.401 -9.484,2.211 -9.592,2.24 M 9.093,7.964 C 9.098,7.995 8.602,8.167 8.606,8.199 6.601,8.617 0.272,9.986 -0.096,10.019 L -0.738,9.742 c 0.054,-0.024 -1.381,-0.63 -1.381,-0.63 -0.795,-0.331 -3.289,-1.424 -3.78,-1.616 0,0 -3.472,-1.435 -5.208,-2.227 0.057,-0.05 0.446,-3.218 0.357,-3.261 0.16,-0.175 0.302,-0.383 0.489,-0.522 0.197,-0.147 0.438,-0.224 0.602,-0.309 0.062,-1.034 -0.345,-1.717 -1.259,-2.067 -0.285,-0.113 -0.55,-0.28 -0.826,-0.427 l 0.008,-0.033 0.755,0.148 c -0.076,-0.138 -0.15,-0.27 -0.306,-0.54 0.623,0.369 1.212,0.573 1.579,0.985 0.359,0.4 0.495,1.013 0.728,1.542 1.977,-0.912 6.331,-3.044 6.331,-3.044 1.709,0.899 3.461,1.807 5.065,2.67 C 4.012,1.269 5.593,2.148 7.173,3.029 7.981,3.479 8.797,3.922 9.6,4.384 9.715,4.45 9.776,4.623 9.858,4.745 L 9.851,4.799 C 9.438,4.986 8.349,6.163 8.281,6.236 8.156,6.883 9.11,7.696 9.17,7.835 8.834,7.634 8.562,7.44 8.263,7.294 7.387,6.87 1.847,4.035 1.201,3.703 0.706,3.45 -1.304,2.451 -1.764,2.222 -1.915,2.144 -2.065,2.063 -2.215,1.988 c 0,0 -0.185,-0.012 -0.491,-0.161 0.134,0.143 0.18,0.188 0.221,0.233 0.011,-0.024 2.442,1.269 3.499,1.806 C 1.655,4.192 8.99,7.854 9.048,7.857 9.007,7.899 1.282,9.501 1.11,9.512 1.098,9.557 1.084,9.596 1.063,9.663 1.433,9.594 2.246,9.395 2.246,9.395 4.358,8.965 6.978,8.394 9.093,7.964"
             style="fill:#ffffff;fill-opacity:1;fill-rule:nonzero;stroke:none"
             id="path48" /></g><g
           id="g50"
           transform="translate(393.6582,349.0119)"><path
             d="m 0,0 c -0.811,-0.499 -2.692,-0.922 -0.881,-1.617 0.826,-0.154 0.586,0.178 1.047,0.534 0.113,0.088 0.379,0.369 0.493,0.46 0.251,0.214 0.545,0.194 0.826,0.498 C 2.129,0.568 2.751,2.103 3.455,2.81 3.958,3.313 4.402,3.864 4.91,4.363 4.644,3.616 4.743,3.17 5.068,2.772 5.337,2.439 7.03,-0.135 7.742,-0.638 8.097,-0.887 7.988,-1.098 8.453,-0.926 8.848,-0.778 8.803,-0.033 8.678,0.235 8.384,0.861 7.89,0.786 7.437,0.995 7.081,1.161 6.246,2.798 6.103,3.138 5.742,3.997 6.791,5.166 7.418,5.667 8.106,6.213 7.749,6.164 8.728,6.03 9.399,5.939 10.046,5.601 10.721,5.486 11.914,5.288 13.059,5.751 14.233,5.546 14.173,4.527 14.215,3.197 13.736,2.29 13.298,1.452 11.427,-0.137 10.679,-0.735 10.387,-0.968 9.148,-1.726 9.298,-2.222 c 0.256,-0.846 1.315,-0.076 1.582,0.188 -0.025,0.197 0.03,0.377 0.164,0.537 0.203,0.066 0.411,0.117 0.626,0.149 0.303,0.247 1.252,1.231 1.523,1.506 0.725,0.736 1.82,1.255 2.488,2 0.671,0.743 0.321,1.73 0.716,2.583 0.354,0.768 1.097,0.835 1.73,1.329 0.27,-0.484 0.153,-1.044 0.475,-1.522 0.22,-0.327 0.784,-0.54 1.092,-0.803 0.721,-0.618 1.501,-1.432 1.847,-2.29 0.43,-1.072 -0.121,-1.474 0.291,-2.443 0.237,-0.566 1.345,-0.035 1.086,0.379 -0.487,0.777 -0.245,1.177 -0.187,2.013 0.03,0.416 0.159,0.974 10e-4,1.392 -0.183,0.494 -0.761,0.694 -0.98,1.182 -0.485,1.082 0.435,2.301 0.656,3.297 0.569,-0.906 1.328,-4.089 2.416,-4.986 1.09,-0.896 1.79,-1.253 2.589,-0.785 -0.057,0.098 -0.151,0.145 -0.281,0.145 0.391,0.038 0.781,0.062 1.172,0.071 0.025,0.147 -1.125,0.723 -1.322,0.969 0.106,-0.019 1.514,-0.277 1.437,-0.056 -1.783,0.334 -3.143,3.945 -3.983,5.576 -0.423,0.826 -1.147,0.804 -1.147,0.804 0,0 -0.168,2.35 -3.658,2.895 -3.298,0.515 -8.066,-0.73 -9.161,3.372 0.679,-0.337 0.101,0.248 0.089,0.545 -0.019,0.595 -1.017,-0.187 -0.128,0.631 -0.24,0.114 -0.512,0.133 -0.759,0.238 0.246,0.58 -1.181,0.908 -0.85,1.6 -0.287,-0.002 -0.649,-0.079 -0.843,0.194 0.163,-0.083 0.267,-0.077 0.311,0.017 -0.491,0.336 -1.259,0.3 -1.658,0.616 0.724,0.001 -0.928,0.51 -0.881,0.469 -0.389,0.32 -0.3,0.928 -0.331,1.403 C 4.772,20.722 4.932,20.059 4.083,20.107 3.333,20.151 3,21.368 2.5,21.349 2.576,20.96 2.891,19.882 2.788,19.544 2.643,19.074 1.884,18.795 1.618,18.362 1.219,17.714 0.958,17.128 0.466,16.487 0.064,15.961 -0.395,15.375 -0.067,14.693 c 0.65,-1.357 2.216,0.215 3.156,0.5 1.087,0.327 0.941,0.434 1.302,-0.405 0.227,-0.533 0.257,-1.383 0.388,-1.96 C 5.461,9.783 4.238,6.965 2.748,4.178 2.048,2.863 1.4,0.864 0,0"
             style="fill:#ffffff;fill-opacity:1;fill-rule:nonzero;stroke:none"
             id="path52" /></g><g
           id="g54"
           transform="translate(435.4355,357.6638)"><path
             d="m 0,0 c -1.477,0.749 -6.423,-6.259 -7.031,-7.423 -1.373,-2.606 -2.046,-5.482 -1.93,-8.398 h 0.013 c 0.139,-3.473 1.917,-2.75 5.151,-3.007 3.613,-0.285 4.371,-1.12 3.75,2.434 -0.483,2.752 -0.641,5.562 -0.561,8.35 C -0.58,-7.084 0.384,-0.195 0,0"
             style="fill:#ffffff;fill-opacity:1;fill-rule:nonzero;stroke:none"
             id="path56" /></g><g
           id="g58"
           transform="translate(383.6328,311.4558)"><path
             d="m 0,0 8.711,3.112 c 0.063,0.022 0.104,0.084 0.104,0.153 v 7.482 c 0,0.294 -0.271,0.499 -0.533,0.408 L 0.08,8.223 c -0.084,-0.028 -0.173,-0.028 -0.258,0 l -8.199,2.933 c -0.263,0.09 -0.534,-0.115 -0.534,-0.407 V 3.265 c 0,-0.069 0.042,-0.131 0.102,-0.153 L -0.097,0 -0.032,-0.01 c 0,0 0.017,0.004 0.032,0.01"
             style="fill:#ffffff;fill-opacity:1;fill-rule:nonzero;stroke:none"
             id="path60" /></g><g
           id="g62"
           transform="translate(415.6333,331.9411)"><path
             d="M 0,0 C -0.141,0.367 -0.426,0.618 -0.842,0.684 -1.271,0.75 -1.697,0.854 -2.127,0.888 -2.412,0.912 -2.696,0.93 -2.98,0.93 c -0.639,0 -1.269,-0.076 -1.887,-0.301 -0.712,-0.258 -1.258,-0.691 -1.457,-1.458 -0.342,-1.34 -0.527,-3.211 -0.223,-4.566 0.132,-0.575 0.855,-1.062 0.855,-1.062 0.578,0.432 0.828,0.587 1.478,0.686 2.374,0.357 4.117,-0.073 4.493,-0.413 0.027,-0.024 0.871,0.66 0.791,1.139 C 0.876,-3.861 0.678,-2.676 0.448,-1.5 0.347,-0.988 0.187,-0.485 0,0"
             style="fill:#ffffff;fill-opacity:1;fill-rule:nonzero;stroke:none"
             id="path64" /></g><g
           id="g66"
           transform="translate(401.2554,337.1008)"><path
             d="M 0,0 C 0,0.01 -0.011,0.026 -0.011,0.026 L -0.013,0.014 Z"
             style="fill:#ffffff;fill-opacity:1;fill-rule:nonzero;stroke:none"
             id="path68" /></g><g
           id="g70"
           transform="translate(415.6274,324.6931)"><path
             d="m 0,0 c -0.079,0.391 -0.305,0.592 -0.709,0.67 -0.596,0.112 -1.188,0.178 -1.786,0.178 -0.366,0 -0.729,-0.025 -1.097,-0.08 C -4.03,0.703 -4.461,0.555 -4.883,0.406 -5.152,0.311 -5.316,0.087 -5.375,-0.208 -5.513,-0.895 -5.69,-1.576 -5.793,-2.27 -6.091,-4.232 -6.4,-5.995 -6.622,-7.965 c -0.168,-1.496 -0.23,-3.822 -0.293,-5.328 -0.021,-0.524 0.089,-1.057 0.155,-1.582 0.021,-0.178 1.255,-0.63 4.197,-0.682 1.184,-0.019 2.705,0.202 3.283,0.488 0.335,0.165 0.583,0.401 0.622,0.8 0.018,0.176 0.047,0.352 0.057,0.527 0.109,1.569 -0.12,4.366 -0.255,5.927 -0.15,1.727 -0.341,4.078 -0.572,5.797 C 0.442,-1.063 0.196,-0.947 0,0"
             style="fill:#ffffff;fill-opacity:1;fill-rule:nonzero;stroke:none"
             id="path72" /></g><g
           id="g74"
           transform="translate(389.3687,369.9782)"><path
             d="m 0,0 c -0.081,-0.186 -0.108,-0.374 -0.086,-0.572 h -14.099 c 0.016,0.196 -0.008,0.391 -0.086,0.572 z M 0.052,4.16 C 0.021,4.083 0.005,3.971 -0.017,3.871 h -14.167 c -0.022,0.1 -0.036,0.212 -0.07,0.289 z M -13.206,8.6 H -1.042 V 7.809 H -2.159 V 7.026 H -3.35 V 6.203 H -4.528 V 5.434 H -5.706 V 4.939 h -2.839 v 0.495 h -1.174 v 0.769 h -1.177 v 0.823 h -1.192 v 0.783 h -1.118 z m 3.257,-7.787 h -3.098 v 0.449 h 3.098 z m 4.412,0 h -3.097 v 0.449 h 3.097 z m 4.235,0 H -4.22 v 0.449 h 2.918 z m 1.265,2.153 c -0.414,-0.042 -1.352,-0.138 -1.682,0.097 0,0 -0.281,0.09 0.25,-0.697 0,0 -0.181,-0.225 0.167,-0.296 v -0.1 h -2.919 v 0.1 c 0.351,0.071 0.167,0.296 0.167,0.296 0.532,0.787 0.25,0.697 0.25,0.697 -0.3,-0.216 -1.873,-0.199 -2.149,0 0,0 -0.284,0.09 0.25,-0.697 0,0 -0.184,-0.225 0.166,-0.296 v -0.1 h -3.096 v 0.1 c 0.351,0.071 0.166,0.296 0.166,0.296 0.533,0.787 0.25,0.697 0.25,0.697 -0.299,-0.216 -1.872,-0.197 -2.148,0 0,0 -0.284,0.09 0.249,-0.697 0,0 -0.183,-0.225 0.165,-0.296 h 0.002 v -0.1 h -3.098 v 0.1 h 0.003 c 0.348,0.071 0.167,0.296 0.167,0.296 0.531,0.787 0.247,0.697 0.247,0.697 -0.33,-0.237 -1.113,-0.143 -1.529,-0.112 -0.016,0.102 -0.039,0.19 -0.067,0.271 H 0.026 C -0.002,3.148 -0.021,3.063 -0.037,2.966 m -0.295,-4.839 c -0.453,-0.017 -1.245,-0.092 -1.586,0.148 0,0 -0.139,0.042 -0.058,-0.191 h -10.393 c 0.08,0.233 -0.059,0.191 -0.059,0.191 -0.356,-0.25 -1.065,-0.165 -1.512,-0.148 0.023,0.118 0.015,0.232 -0.023,0.341 h 13.662 c -0.041,-0.109 -0.051,-0.221 -0.031,-0.341 m -1.057,-9.295 h -2.507 v 3.296 h -0.097 c 0.176,0.036 0.083,0.146 0.083,0.146 0.266,0.397 0.124,0.351 0.124,0.351 l -0.006,-0.004 c 0.016,0.041 0.039,0.067 0.039,0.067 l 0.222,0.025 v 0.532 h -0.514 v 0.221 h -0.323 v 0.617 h 0.541 v 0.675 h -0.075 v 0.005 c -0.103,-0.029 -0.209,-0.031 -0.319,-0.005 v 1.814 h 0.041 c 0.207,0.04 0.099,0.176 0.099,0.176 0.315,0.464 0.146,0.41 0.146,0.41 -0.176,-0.125 -1.108,-0.117 -1.272,0 0,0 -0.168,0.054 0.148,-0.41 0,0 -0.109,-0.136 0.098,-0.176 h 0.064 v -1.109 l -1.831,0.598 c 0.129,0.055 0.053,0.154 0.053,0.154 0.317,0.47 0.149,0.413 0.149,0.413 -0.178,-0.125 -1.11,-0.114 -1.275,0 0,0 -0.166,0.057 0.149,-0.413 0,0 -0.058,-0.072 -0.006,-0.124 l -1.66,-0.649 v 1.13 h 0.04 c 0.206,0.04 0.096,0.176 0.096,0.176 0.316,0.464 0.15,0.41 0.15,0.41 -0.178,-0.125 -1.114,-0.117 -1.275,0 0,0 -0.169,0.054 0.149,-0.41 0,0 -0.111,-0.136 0.097,-0.176 h 0.066 v -1.814 c -0.141,-0.001 -0.316,-0.016 -0.457,0.005 v -0.005 h -0.046 v -0.675 h 0.565 v -0.617 h -0.348 v -0.221 h -0.38 v -0.532 h 0.195 c 0.028,-0.03 0.055,-0.07 0.075,-0.12 -0.051,0.006 -0.092,0.018 -0.11,0.032 0,0 -0.145,0.046 0.124,-0.351 0,0 -0.093,-0.11 0.082,-0.146 h -0.092 v -3.296 h -2.573 v 8.271 h 0.039 c 0.415,0.08 0.197,0.35 0.197,0.35 l 0.002,0.005 h 11.097 l 0.003,-0.005 c 0,0 -0.217,-0.27 0.197,-0.35 h 0.036 z M -5.9,-5.917 h 0.576 V -6.535 H -5.9 Z m -1.536,0 h 0.576 v -0.618 h -0.576 z m -1.539,0 h 0.577 v -0.618 h -0.577 z m 4.87,-1.515 c -0.203,-0.013 -0.602,-0.054 -0.757,0.057 0,0 -0.142,0.046 0.124,-0.351 0,0 -0.091,-0.11 0.083,-0.146 h -0.09 v -3.296 h -0.466 v 2.625 h -3.821 v -2.625 h -0.505 v 3.296 h -0.098 c 0.176,0.036 0.083,0.146 0.083,0.146 0.267,0.397 0.127,0.351 0.127,0.351 -0.156,-0.111 -0.468,-0.072 -0.661,-0.062 -0.014,0.054 -0.024,0.107 -0.044,0.15 h 6.065 c -0.018,-0.04 -0.028,-0.094 -0.04,-0.145 m -1.539,-3.736 h -0.699 v 1.804 H -7.91 v -1.804 h -0.692 v 2.239 h 2.958 z M -15.068,0.813 V 0 h 0.229 c 0.17,-0.161 0.234,-0.353 0.191,-0.572 h -0.089 v -0.96 h 0.302 c 0.043,-0.099 0.053,-0.203 0.032,-0.312 -0.249,0.025 -0.492,0.058 -0.576,0.119 0,0 -0.333,0.108 0.296,-0.822 0,0 -0.217,-0.27 0.197,-0.35 h 0.036 v -8.271 c 0,0 -0.196,-1.006 1.046,-1.006 H 1.924 v 1.006 H 0.103 v 8.271 H 0.14 c 0.414,0.08 0.194,0.35 0.194,0.35 0.632,0.93 0.295,0.822 0.295,0.822 C 0.556,-1.78 0.353,-1.812 0.131,-1.836 0.114,-1.731 0.125,-1.629 0.165,-1.532 h 0.379 v 0.96 H 0.377 C 0.337,-0.354 0.403,-0.164 0.574,0 h 0.3 V 0.813 H 0.015 V 1.262 H 0.391 V 1.97 H 0.015 v 0.1 h 0.001 c 0.35,0.071 0.166,0.296 0.166,0.296 0.483,0.711 0.303,0.705 0.263,0.697 0.02,0.067 0.043,0.114 0.068,0.159 H 0.874 V 3.871 H 0.443 C 0.488,4.022 0.545,4.111 0.6,4.16 H 0.874 V 4.939 H 0.202 c 0,1.356 0.551,3.848 -0.617,4.548 -1.249,0.75 -5.243,0 -6.662,0 -1.4,0 -5.309,0.711 -6.574,0 -1.374,-0.771 -0.799,-2.941 -0.799,-4.548 h -0.618 V 4.16 h 0.266 c 0.057,-0.049 0.115,-0.138 0.16,-0.289 h -0.426 V 3.222 h 0.353 c 0.032,-0.051 0.057,-0.119 0.078,-0.202 -0.051,0.013 -0.117,0.023 -0.117,0.023 0,0 -0.307,0.11 0.224,-0.677 0,0 -0.183,-0.225 0.168,-0.296 h 10e-4 v -0.1 h -0.376 V 1.262 h 0.376 V 0.813 Z"
             style="fill:#ffffff;fill-opacity:1;fill-rule:nonzero;stroke:none"
             id="path76" /></g><g
           id="g78"
           transform="translate(399.519,322.4074)"><path
             d="M 0,0 C -0.053,0.337 -0.235,0.514 -0.543,0.599 -0.628,0.624 -0.715,0.658 -0.8,0.66 -1.379,0.677 -1.957,0.686 -2.534,0.696 h -0.024 c -0.471,0 -0.644,-0.295 -0.741,-0.716 -0.503,-2.162 -0.803,-3.979 -0.817,-6.198 -0.006,-0.904 0.215,-1.216 1.054,-1.621 0.839,-0.408 2.055,-0.735 3.205,-0.645 0.261,0.017 0.337,0.122 0.372,0.355 0.323,2.115 0.092,4.996 -0.066,6.238 C 0.333,-0.982 0.142,-0.907 0,0"
             style="fill:#ffffff;fill-opacity:1;fill-rule:nonzero;stroke:none"
             id="path80" /></g><path
           d="m 461.521,265.723 h -2.995 v -3.009 h 2.995 z"
           style="fill:#ffffff;fill-opacity:1;fill-rule:nonzero;stroke:none"
           id="path82" /><g
           id="g84"
           transform="translate(438.8945,266.7317)"><path
             d="m 0,0 -1.172,-2.772 3.793,-1.601 3.6,1.377 3.034,-1.162 1.076,2.807 -4.11,1.574 -3.544,-1.356 z"
             style="fill:#ffffff;fill-opacity:1;fill-rule:nonzero;stroke:none"
             id="path86" /></g><g
           id="g88"
           transform="translate(433.0381,302.5739)"><path
             d="m 0,0 c -2.012,0.718 -2.432,4.081 -6.476,4.068 -2.228,-0.006 -3.625,-3.125 -3.625,-3.125 0,0 0.465,1.47 -0.301,2.58 -2.381,3.447 -8.846,-0.516 -8.846,-0.516 0,0 6.425,0.696 6.923,-2.477 -1.495,1.466 -4.742,1.991 -6.864,0.062 -1.328,-1.202 -1.896,-2.999 -1.748,-4.787 2.785,2.593 7.292,3.844 8.38,1.782 -2.795,0.305 -4.434,-0.783 -4.58,-3.039 -0.188,-2.822 1.511,-5.273 4.052,-5.448 -0.495,0.525 -0.845,0.848 -1.14,1.219 -1.24,1.546 -1.249,4.081 0.069,5.201 0.428,0.361 1.134,0.556 1.671,0.483 0.281,-0.037 0.616,-0.795 0.682,-1.266 1.872,-11.17 2.66,-20.207 2.666,-21.318 0.007,-1.105 0.957,-1.208 3.088,-0.664 1.397,0.358 2.506,0.657 2.553,1.852 0.018,0.554 -0.624,1.699 -1.174,3.128 -1.107,2.873 -3.98,15.272 -4.559,17.493 -0.246,0.942 -0.573,1.935 0.5,2.388 1.059,0.445 1.934,-0.056 2.272,-1.189 0.428,-1.44 -0.43,-3.247 -0.081,-4.389 0.73,1.422 3.84,3.421 2.969,5.909 -0.318,0.892 -2.376,3.282 -6.202,0.691 C -7.265,3.051 -2.313,-0.565 0,0"
             style="fill:#ffffff;fill-opacity:1;fill-rule:nonzero;stroke:none"
             id="path90" /></g><g
           id="g92"
           transform="translate(385.8926,298.5256)"><path
             d="m 0,0 c 0.658,-0.657 2.48,0.313 3.053,0.397 0.573,0.079 3.617,0.132 3.617,0.132 0,0 2.284,-0.421 3.333,-0.485 1.048,-0.062 4.424,0.081 5.131,0.018 C 15.841,0 18.38,0.537 18.6,0.557 c 0.218,0.02 -1.135,1.708 -1.599,1.732 -0.463,0.018 -2.894,1.209 -3.556,1.431 -0.66,0.22 -0.604,0.507 -0.253,0.382 0.352,-0.124 1.414,-0.343 1.793,-0.56 0.38,-0.215 1.275,-0.355 2.01,-0.726 0.735,-0.37 1.092,-0.558 1.395,-1.031 0.302,-0.471 1.756,-1.03 2.627,-0.888 0.868,0.138 1.907,0.821 2.15,0.936 0.242,0.116 1.717,-0.003 1.312,0.71 -0.403,0.714 -1.379,1.77 -1.902,1.776 0,0 -1.953,0.616 -2.387,0.996 -0.434,0.376 -1.255,0.886 -1.255,0.886 0,0 -0.462,0.083 -0.733,0.433 C 17.93,6.986 17.08,7.97 17.08,7.97 c 0,0 -0.332,0.813 -0.56,1.105 -0.225,0.29 -0.529,0.545 -0.587,0.54 L 15.752,9.598 c 0,0 -0.139,-0.329 -0.438,-0.038 -0.439,0.433 -0.781,0.432 -0.781,0.432 0,0 -0.557,-0.706 -0.583,-0.864 C 13.923,8.968 13.692,8.854 13.617,8.817 13.54,8.779 13.188,8.686 13.095,8.803 13.006,8.919 12.886,9.292 12.274,9.521 11.861,9.674 11.113,9.733 10.695,9.961 10.413,10.118 9.655,11.429 9.523,11.573 9.39,11.716 9.499,11.853 8.954,12.334 8.41,12.816 8.166,13.075 8.098,13.163 8.03,13.25 7.573,14.116 6.988,13.689 6.405,13.263 5.981,13.288 6.012,12.729 6.04,12.169 5.785,11.65 5.418,11.491 5.052,11.333 4.895,11.29 4.684,11.178 4.473,11.066 4.229,10.669 4.218,10.542 4.21,10.416 3.551,8.363 3.538,8.268 3.526,8.175 3.493,8.094 3.025,7.731 2.555,7.37 2.216,6.901 2.091,6.735 1.965,6.569 1.32,6.137 1.32,6.137 L 0.715,5.522 c 0,0 -0.932,-0.113 -1.049,-0.155 -0.118,-0.041 -0.524,-0.888 -0.524,-0.888 0,0 -0.445,-1.546 -1.017,-2.327 C -2.448,1.375 -2.479,1.278 -2.342,0.635 -2.342,0.635 -0.66,0.66 0,0"
             style="fill:#ffffff;fill-opacity:1;fill-rule:nonzero;stroke:none"
             id="path94" /></g><g
           id="g96"
           transform="translate(419.9766,276.4045)"><path
             d="m 0,0 c -0.271,2.504 -2.096,6.675 -2.022,10.156 -0.142,2.83 -1.436,4.697 -4.13,5.729 -1.251,0.481 -1.493,1.568 -2.451,2.481 -1.605,1.531 -3.661,1.789 -4.922,0.397 -1.077,-1.18 -2.315,-1.254 -5.458,-2.491 -1.363,-0.536 -1.131,-2.335 -2.328,-3.121 -1.392,-0.914 -1.594,-0.031 -2.248,1.373 -0.331,0.714 -1.593,4.745 -1.656,4.911 -0.426,1.091 -0.784,-0.636 -1.296,-0.829 -0.824,-0.309 -1.741,-0.616 -1.88,-0.633 -0.594,-0.067 -3.324,-1.083 -2.114,-2.248 0.256,-0.248 2.26,-0.079 2.842,-0.383 1.056,-0.553 1.381,-2.421 1.976,-3.452 1.338,-2.309 1.75,-3.373 4.395,-3.019 -0.648,-1.217 -0.946,-3.58 -0.732,-5.022 0.129,-0.888 1.23,-2.046 1.691,-2.826 0.22,-0.374 0.895,-0.602 0.983,-1.031 0.055,-0.251 -0.147,-1.441 -0.088,-1.507 0.46,-0.493 0.729,-0.171 1.063,0.367 0.526,0.841 0.038,0.73 -0.165,1.306 -0.335,0.956 -1.379,1.38 -1.741,2.413 -0.81,2.32 1.204,3.704 2.669,5.21 0.647,-1.498 1.345,-2.986 1.927,-4.507 0.375,-0.985 1.08,-1.734 1.155,-2.809 0.05,-0.668 -0.56,-1.81 -0.394,-2.085 0.262,-0.432 1.172,-0.179 1.403,0.121 0.052,0.065 -0.218,0.877 -0.221,1 -0.006,1.065 -0.18,1.753 -0.351,2.818 -0.312,1.953 -0.418,3.963 -0.824,5.924 1.889,-0.022 4.406,-0.189 6.149,0.642 C -9.067,6.888 -7.584,4.797 -7.829,2.662 -7.935,1.74 -8.314,0.2 -9.262,-0.274 -10.21,-0.745 -10.36,-0.86 -10.063,-1.21 c 0.646,-0.766 1.6,-0.017 2.097,0.701 0.547,0.79 1.348,1.662 1.602,2.573 0.471,1.7 -0.568,4.356 0.88,5.85 0.066,-0.701 -0.074,-2.447 1.096,-3.878 0.611,-0.751 0.905,-3.142 0.325,-4.03 -0.328,-0.503 -1.381,-0.902 -0.704,-1.409 1.705,-1.28 1.81,3.143 1.902,3.562 C -2.46,4.002 -3.742,6.495 -3.418,8.322 -2.268,7.408 -1.178,0.878 0,0"
             style="fill:#ffffff;fill-opacity:1;fill-rule:nonzero;stroke:none"
             id="path98" /></g><g
           id="g100"
           transform="translate(460.9102,316.0432)"><path
             d="m 0,0 c -0.208,0.762 -0.873,1.983 -3.491,0.409 -1.268,-0.763 -2.341,-1.382 -3.123,-1.822 -0.084,0.15 -0.157,0.288 -0.26,0.445 -0.689,1.048 -1.715,1.025 -2.437,0.777 -0.659,-0.226 -1.062,-0.639 -0.708,-0.569 0.612,0.12 1.309,0.011 1.716,-1.213 -3.618,-1.672 -4.663,-2.047 -8.306,-3.062 -5.687,-1.579 -12.434,-0.601 -12.434,-0.601 0.036,-0.029 0.068,-0.052 0.103,-0.075 l 0.142,-0.101 c 4.199,-2.963 10.239,-6.033 20.969,1.776 0.168,-0.526 0.424,-0.878 0.718,-1.093 0.442,-0.321 0.982,-0.342 1.459,-0.224 1.087,0.265 1.596,0.791 1.525,0.844 -0.073,0.049 -0.922,-0.369 -1.303,0.526 -0.132,0.317 -0.268,0.7 -0.451,1.135 1.284,0.685 3.873,1.65 4.777,1.755 C 0.129,-0.948 0.206,-0.762 0,0"
             style="fill:#ffffff;fill-opacity:1;fill-rule:nonzero;stroke:none"
             id="path102" /></g><g
           id="g104"
           transform="translate(389.2666,329.1985)"><path
             d="M 0,0 -5.666,-2.025 -5.699,-2.023 -11.363,0 c -0.049,0.017 -0.049,0.088 -0.002,0.107 L -5.7,2.289 h 0.037 L 0,0.107 C 0.048,0.088 0.046,0.017 0,0 m -5.734,3.527 -8.717,-3.362 c -0.06,-0.023 -0.102,-0.085 -0.102,-0.154 l 0.007,-0.035 v -4.2 c 0,-0.267 0.162,-0.505 0.401,-0.591 l 8.277,-2.956 c 0.12,-0.042 0.251,-0.042 0.371,0 l 8.278,2.956 c 0.238,0.086 0.4,0.324 0.4,0.591 v 4.2 L 3.185,0.011 C 3.187,0.08 3.146,0.142 3.087,0.165 l -8.716,3.362 c -0.034,0.014 -0.071,0.014 -0.105,0"
             style="fill:#ffffff;fill-opacity:1;fill-rule:nonzero;stroke:none"
             id="path106" /></g><g
           id="g108"
           transform="translate(427.2939,324.4284)"><path
             d="M 0,0 C 0.536,-0.042 2.404,-0.084 2.805,0.123 3.115,0.285 3.6,0.687 3.539,1.028 3.51,1.188 3.475,1.344 3.435,1.501 3.229,2.327 3.022,3.156 2.818,3.984 2.753,4.25 2.577,4.379 2.317,4.441 1.976,4.526 1.632,4.566 1.291,4.566 0.798,4.566 0.311,4.481 -0.175,4.322 -0.379,4.258 -0.506,4.14 -0.564,3.937 -0.637,3.68 -0.731,3.432 -0.794,3.174 -0.975,2.42 -1.135,1.664 -1.013,0.878 -0.915,0.242 -0.361,0.029 0,0"
             style="fill:#ffffff;fill-opacity:1;fill-rule:nonzero;stroke:none"
             id="path110" /></g><g
           id="g112"
           transform="translate(421.8579,324.1731)"><path
             d="m 0,0 c -0.239,0.026 -0.479,0.049 -0.717,0.077 l -1.154,0.12 c -0.728,0.077 -1.458,0.155 -2.186,0.231 -0.332,0.036 -0.66,0.064 -0.98,0.096 0.805,-3.799 1.215,-9.908 1.296,-13.731 0,0 -0.077,-1.21 0.563,-0.885 0.399,0.204 2.128,0.643 2.536,0.83 0.198,0.091 -0.327,5.165 -0.347,6.335 -0.009,0.453 0.296,0.851 0.731,0.962 0.185,0.048 0.369,0.094 0.513,0.124 0.192,0.044 0.376,-0.095 0.385,-0.294 0.049,-0.928 0.216,-6.739 0.343,-6.682 0.405,0.188 2.038,0.747 2.407,0.916 0.14,0.065 0.223,0.213 0.209,0.363 -0.128,1.415 -0.303,6.079 -0.098,7.448 0.22,1.458 0.22,2.472 0.643,3.91 C 3.948,-0.114 3.755,-0.014 3.555,0.016 2.926,0.099 0.631,-0.065 0,0"
             style="fill:#ffffff;fill-opacity:1;fill-rule:nonzero;stroke:none"
             id="path114" /></g><g
           id="g116"
           transform="translate(474.7656,261.2707)"><path
             d="m 0,0 -3,-0.224 0.695,-9.366 -1.083,-9.319 2.99,-0.347 1.118,9.602 z"
             style="fill:#ffffff;fill-opacity:1;fill-rule:nonzero;stroke:none"
             id="path118" /></g><g
           id="g120"
           transform="translate(372.71,351.7761)"><path
             d="M 0,0 C -0.692,0.518 -1.184,1.426 -0.556,2.314 -0.259,2.74 0.599,2.457 0.662,1.97 0.728,1.483 0.764,0.028 0,0 m -5.776,-1.034 c -0.244,0.75 -0.483,1.368 -0.629,2.007 -0.053,0.258 0.015,0.709 0.185,0.812 0.19,0.123 0.596,0.041 0.832,-0.092 0.85,-0.49 0.787,-1.493 -0.388,-2.727 m 5.07,4.056 C -0.853,4.053 -2.745,4.048 -5.558,3.009 -5.397,2.816 -5.235,2.621 -4.932,2.258 -6.88,2.335 -7.234,1.777 -6.607,0.076 c 0.288,-0.779 0.888,-1.758 0.649,-2.375 -1.131,-2.908 1.028,-4.632 2.011,-6.768 0.099,-0.213 0.553,-0.408 0.798,-0.361 1.243,0.232 2.477,0.524 3.7,0.849 0.225,0.058 0.487,0.317 0.569,0.545 0.322,0.896 0.725,1.808 0.819,2.74 0.093,0.987 0.097,2.106 -0.272,2.981 -0.504,1.191 -0.824,2.284 -0.594,3.615 0.281,1.639 -0.163,1.993 -1.779,1.72"
             style="fill:#ffffff;fill-opacity:1;fill-rule:nonzero;stroke:none"
             id="path122" /></g><g
           id="g124"
           transform="translate(374.855,237.3576)"><path
             d="M 0,0 3.032,-1.161 4.109,1.646 0,3.22 -3.543,1.866 l -2.68,1.13 -1.172,-2.769 3.794,-1.604 z"
             style="fill:#ffffff;fill-opacity:1;fill-rule:nonzero;stroke:none"
             id="path126" /></g><g
           id="g128"
           transform="translate(476.1621,267.0705)"><path
             d="M 0,0 H -3.167 L -3.1,0.548 -0.15,2.342 -1.718,4.911 -5.905,2.358 -6.566,-3.009 H 0 Z"
             style="fill:#ffffff;fill-opacity:1;fill-rule:nonzero;stroke:none"
             id="path130" /></g><g
           id="g132"
           transform="translate(462.5752,219.4201)"><path
             d="M 0,0 1.569,3.06 4.679,4.231 8.041,2.934 9.721,0 Z m 10.231,4.46 -5.629,2.222 -5.616,-2.277 -2.43,-5.847 2.493,-5.95 6.044,-2.189 4.362,0.963 3.38,3.003 -2.667,1.189 -2.103,-1.886 -2.91,-0.673 -3.575,1.332 -1.693,3.455 12.959,-0.016 z"
             style="fill:#ffffff;fill-opacity:1;fill-rule:nonzero;stroke:none"
             id="path134" /></g><g
           id="g136"
           transform="translate(475.4756,306.4782)"><path
             d="m 0,0 c -1.21,1.001 -1.984,3.57 -1.984,3.57 0,0 1.295,0.587 2.048,0.681 C 1.616,4.448 1.71,1.911 1.464,0.746 1.219,-0.398 1.326,-1.275 1.569,-1.806 1.254,-1.113 0,0 0,0 m -2.895,4.508 c -0.194,0.908 -0.206,0.956 -0.414,1.908 0,0 0.928,-0.416 1.385,-0.853 C -2.239,5.214 -2.561,4.868 -2.895,4.508 M 2.669,-5.079 C 2.679,-4.876 2.667,-4.671 2.652,-4.468 2.635,-4.256 1.801,-1.28 2.435,0.885 2.777,2.042 2.684,2.85 2.249,4.047 1.936,4.904 1.058,5.529 0.229,5.417 -0.477,5.324 -0.615,5.286 -0.615,5.286 c 0,0 -1.395,3.428 -4.897,2.425 C -5.618,8.149 -5.695,8.5 -5.781,8.859 -5.872,8.85 -5.962,8.841 -6.052,8.834 -6.059,8.312 -6.069,8.094 -6.076,7.574 -6.147,7.539 -6.214,7.501 -6.289,7.469 -6.924,8.341 -6.831,7.253 -7.467,8.125 c -0.181,0.563 -0.416,1.125 -0.72,1.646 -0.211,0.355 -0.495,0.68 -0.796,0.97 -0.19,0.184 -0.469,0.278 -0.71,0.411 0.004,-0.289 -0.03,-0.586 0.024,-0.865 0.043,-0.239 0.302,-0.483 0.268,-0.689 -0.166,-0.919 0.229,-1.519 0.703,-1.799 0.26,-0.851 0.26,-1.647 -0.21,-2.258 -0.53,-0.695 -1.151,-1.416 -0.63,-2.455 -3.761,0.772 -6.92,-1.135 -6.605,-3.884 0.485,0.433 0.938,0.962 1.502,1.319 3.284,2.07 7.067,-0.272 7.675,-4.307 0.127,-0.841 -0.208,-1.799 0.03,-2.605 0.598,-2.04 3.243,-2.91 5.229,-2.666 2.308,0.289 4.299,2.094 4.376,3.978"
             style="fill:#ffffff;fill-opacity:1;fill-rule:nonzero;stroke:none"
             id="path138" /></g><g
           id="g140"
           transform="translate(450.1465,223.2248)"><path
             d="m 0,0 1.166,-0.377 0.62,-0.896 0.099,-1.888 0.019,-9.782 4.342,-0.015 -0.017,2.694 -1.3,0.008 L 4.905,-2.619 4.596,0.367 3.279,2.024 0.831,2.707 -4.774,0.28 l -3.638,2.427 -5.356,-2.202 0.008,1.962 -4.215,-0.022 -0.019,-2.683 1.218,0.007 -0.026,-10.025 -1.361,-0.008 -0.017,-2.694 5.751,0.023 0.012,2.681 -1.359,-0.006 0.025,8.257 4.399,2.003 1.473,-0.693 0.46,-2.182 -0.022,-10.076 4.302,0.014 0.017,2.683 -1.297,-0.006 0.023,8.257 z"
             style="fill:#ffffff;fill-opacity:1;fill-rule:nonzero;stroke:none"
             id="path142" /></g><g
           id="g144"
           transform="translate(426.4238,313.0578)"><path
             d="M 0,0 C 0,-0.968 4.208,-0.651 4.956,-0.184 5.707,0.285 5.37,2.902 5.359,3.516 5.326,5.622 4.324,10.494 3.635,10.813 3.273,10.978 1.42,10.909 1.043,10.818 0.707,10.733 0.528,10.55 0.433,10.195 -0.704,6.021 0,0.492 0,0"
             style="fill:#ffffff;fill-opacity:1;fill-rule:nonzero;stroke:none"
             id="path146" /></g><g
           id="g148"
           transform="translate(405.6157,228.9719)"><path
             d="m 0,0 -0.017,-3.283 -1.988,-0.015 -0.017,-2.688 2.003,0.004 0.021,-7.635 0.203,-3.186 1.095,-1.526 2.24,-0.633 2.314,0.431 0.02,2.751 -1.666,-0.331 -0.985,0.436 -0.22,2.215 0.022,7.478 2.831,0.011 0.014,2.688 -2.867,-0.014 0.018,3.264 z"
             style="fill:#ffffff;fill-opacity:1;fill-rule:nonzero;stroke:none"
             id="path150" /></g><g
           id="g152"
           transform="translate(396.3657,222.6389)"><path
             d="m 0,0 0.512,-2.289 0.015,-10.068 4.25,-0.01 -0.012,2.691 -1.213,0.005 -0.014,7.51 -0.289,3.001 -1.292,1.727 -2.47,0.722 -5.318,-2.115 0.005,1.874 h -4.369 l 0.011,-2.692 1.324,-0.004 0.017,-10.026 -1.352,0.004 0.007,-2.683 5.653,-0.014 -0.01,2.691 -1.275,0.005 -0.017,8.242 4.546,1.95 z"
             style="fill:#ffffff;fill-opacity:1;fill-rule:nonzero;stroke:none"
             id="path154" /></g><g
           id="g156"
           transform="translate(369.4634,220.6477)"><path
             d="M 0,0 3.086,9.264 3.389,9.27 6.314,0.01 Z m 7.423,-10.36 5.939,-0.022 -0.014,2.778 -1.091,0.007 -6.214,16.861 1.421,-0.002 -0.012,2.491 -8.58,0.022 0.012,-2.505 1.288,-0.003 -6.023,-16.871 -1.332,0.007 0.015,-2.763 5.984,-0.022 -0.012,2.778 -1.303,0.002 1.678,5.023 7.974,-0.019 1.664,-5.004 -1.408,0.005 z"
             style="fill:#ffffff;fill-opacity:1;fill-rule:nonzero;stroke:none"
             id="path158" /></g><g
           id="g160"
           transform="translate(423.7402,214.2121)"><path
             d="m 0,0 -2.144,-1.788 -2.002,-0.07 -2.007,0.747 -0.753,1.807 0.857,1.887 L -3.955,3.33 0,1.791 Z m 4.221,-3.929 0.013,2.686 -1.243,-0.004 0.016,7.131 -0.23,2.735 -0.82,1.607 -1.895,1.196 -2.998,0.483 -3.267,-0.867 -3.378,-2.733 2.89,-0.774 1.399,1.402 L -3.399,9.36 -1.262,8.836 -0.208,7.699 0,5.884 0.012,4.348 -4.178,5.667 -8.143,4.238 -9.803,0.68 l 1.565,-3.495 3.648,-1.381 2.874,0.508 2.028,1.637 -0.003,-1.889 z"
             style="fill:#ffffff;fill-opacity:1;fill-rule:nonzero;stroke:none"
             id="path162" /></g><g
           id="g164"
           transform="translate(398.5254,334.8108)"><path
             d="m 0,0 c -0.337,-0.049 -0.903,-0.06 -1.112,-0.061 0.065,-0.277 -0.14,-0.33 -0.246,-0.287 0.038,0.074 0.023,0.181 0.003,0.315 -0.122,0.005 -0.482,0.011 -0.578,-0.033 -0.116,-0.053 -0.121,-0.079 -0.146,0.015 -0.024,0.097 -0.035,0.268 0.284,0.245 0.18,-0.015 0.323,-0.022 0.417,-0.026 -0.005,0.048 -0.01,0.099 -0.01,0.155 0.002,0.314 0.38,0.311 0.304,0.283 C -1.151,0.583 -1.223,0.427 -1.174,0.179 0.067,0.253 3.04,1.021 3.04,1.021 2.838,0.391 0.562,0.079 0,0 m -2.405,1.843 c 0.037,-0.287 0.081,-0.58 0.436,-0.445 0.303,0.116 0.398,0.358 0.281,0.666 C -1.701,1.837 -1.766,1.553 -2.024,1.494 -2.308,1.429 -2.398,1.751 -2.312,1.966 -2.293,1.824 -2.29,1.621 -2.105,1.629 -1.951,1.632 -1.793,1.837 -1.777,1.984 -1.851,1.992 -1.92,1.907 -1.991,1.939 -2.058,1.97 -2.068,2.072 -2.064,2.135 c 0.019,0.239 0.206,0.115 0.349,0.068 0.022,0.139 -0.245,0.957 -0.111,0.99 0.036,0.01 0.125,-0.177 0.135,-0.219 0.024,-0.087 0.001,-0.099 -0.002,-0.19 -0.011,-0.166 0.092,-0.32 0.065,-0.485 0.125,0.066 0.117,0.013 0.196,-0.102 0.049,0.053 0.097,0.108 0.146,0.16 0.12,-0.188 0.119,-0.107 0.138,0.081 L -1.086,2.429 C -1.103,2.3 -1.083,2.205 -1.192,2.161 -1.279,2.125 -1.406,2.158 -1.493,2.106 -1.573,2.061 -1.542,2.112 -1.555,2.015 -1.562,1.952 -1.531,1.866 -1.527,1.8 -1.519,1.682 -1.526,1.576 -1.596,1.479 -1.7,1.337 -2.031,1.168 -2.207,1.208 -2.458,1.263 -2.473,1.649 -2.405,1.843 M -2.568,1.292 c 0,0 0.072,0.051 0.107,0.078 C -2.458,1.209 -2.52,1.221 -2.568,1.292 m -0.054,0.115 c -0.003,0.043 -0.049,0.287 0.031,0.248 0.023,-0.012 0.017,-0.308 0.019,-0.356 -0.02,0.033 -0.047,0.046 -0.05,0.108 m 0.289,0.747 C -2.451,2.07 -2.569,1.989 -2.687,1.906 c 0.032,0.079 0.263,0.366 0.354,0.248 m -0.523,0.654 c 0.029,-0.09 0.052,-0.202 0.094,-0.288 0.064,-0.13 0.064,-0.124 0.097,0.01 0.044,0.173 0.01,0.296 0.143,0.426 C -2.458,2.762 -2.491,2.607 -2.351,2.455 -2.353,2.683 -2.47,2.895 -2.455,3.122 -2.292,3 -2.3,2.695 -2.263,2.5 c 0.124,0.18 -0.074,0.365 0.009,0.552 0.068,-0.156 0.1,-0.573 0.334,-0.477 -0.031,0.079 -0.182,0.33 -0.14,0.42 0.091,0.184 0.135,-0.09 0.143,-0.124 C -1.892,2.768 -1.836,2.652 -1.856,2.542 -1.892,2.357 -2.049,2.36 -2.148,2.505 -2.34,2.29 -2.039,2.019 -2.179,1.798 -2.207,1.916 -2.218,2.099 -2.275,2.203 -2.322,2.291 -2.33,2.273 -2.405,2.328 -2.569,2.451 -2.497,2.575 -2.581,2.745 -2.593,2.575 -2.622,2.452 -2.682,2.293 c -0.042,0.055 -0.3,0.506 -0.174,0.515 m 0.628,0.345 C -2.191,3.082 -2.129,3.115 -2.056,3.12 -2.063,2.969 -2.215,3.076 -2.264,3.125 Z m 1.025,0.114 C -0.964,3.134 -1.48,2.654 -1.531,2.724 c 0.077,0.086 0.226,0.195 0.246,0.316 0.007,0.043 -0.082,0.318 0.082,0.227 M -1.136,2.669 C -1.195,2.618 -1.225,2.556 -1.297,2.602 -1.332,2.625 -1.31,2.813 -1.257,2.803 -1.261,2.738 -1.267,2.674 -1.273,2.607 c 0.042,0.032 0.099,0.107 0.137,0.062 M -1.31,1.999 C -1.229,2.057 -1.233,1.78 -1.233,1.78 -1.269,1.83 -1.381,1.947 -1.31,1.999 M 0.602,1.691 C 0.562,1.654 0.473,1.529 0.402,1.56 c 0,0 -0.061,0.107 -0.092,0.148 l 0.095,0.07 0.02,-0.149 c 0.023,0.009 0.149,0.093 0.177,0.062 m -1.625,0.103 c 0.122,0.067 0.222,0.171 0.188,0.323 -0.038,0.161 -0.211,0.198 -0.113,0.382 0.149,-0.103 0.232,-0.32 0.205,-0.502 -0.022,-0.141 -0.341,-0.43 -0.212,-0.497 0.156,-0.079 0.379,0.25 0.405,0.375 0.052,0.255 -0.221,0.449 -0.175,0.727 0.146,-0.164 0.229,-0.363 0.293,-0.574 0.044,-0.139 0.088,-0.329 0.273,-0.345 0,0 0.134,0.292 0.148,0.316 -0.087,0 -0.343,-0.037 -0.373,0.031 -0.032,0.069 0.044,0.158 0.089,0.197 0.058,0.052 0.15,0.059 0.207,0.11 0.094,0.087 0.035,0.051 0.059,0.179 C 0,2.681 0.207,2.781 0.318,2.608 0.462,2.387 0.002,2.221 -0.11,2.125 L 0.551,2.213 C 0.582,2.04 0.391,2.01 0.272,1.958 0.205,1.929 0.024,1.879 -0.008,1.805 -0.051,1.706 0.015,1.715 0.079,1.66 0.208,1.548 0.168,1.484 -0.017,1.49 -0.187,1.498 -0.334,1.6 -0.434,1.737 -0.546,1.604 -0.75,1.27 -0.967,1.334 -1.044,1.359 -1.065,1.479 -1.121,1.499 -1.18,1.52 -1.483,1.315 -1.55,1.281 c 0.178,0.218 0.481,0.314 0.467,0.653 0.052,-0.021 0.047,-0.085 0.06,-0.14 m 0.802,0.638 c -0.069,-0.033 -0.191,0.043 -0.124,0.1 0,0 0.04,-0.044 0.059,-0.068 0.009,0.035 0.018,0.068 0.027,0.099 0.025,-0.022 0.048,-0.048 0.074,-0.071 0.001,0.033 0.005,0.068 0.005,0.068 0.091,0.028 0.004,-0.109 -0.041,-0.128 m -0.838,0.707 c 0.036,-0.152 0.041,-0.271 0.155,-0.381 0.041,0.079 0.125,0.487 0.187,0.509 0.126,0.046 0.069,-0.422 0.138,-0.482 0.116,-0.1 0.233,0.065 0.243,0.179 0.009,0.102 -0.171,0.46 -0.031,0.48 0.026,-0.077 0.164,-0.646 0.296,-0.59 C 0.011,2.889 -0.076,3.101 -0.076,3.101 -0.14,3.27 -0.202,3.346 -0.098,3.46 -0.04,3.395 0.019,3.327 0.076,3.26 0.076,3.26 0.022,3.252 -0.006,3.248 0.019,3.125 0.113,2.913 0.029,2.795 -0.072,2.652 -0.187,2.823 -0.279,2.79 -0.404,2.745 -0.385,2.544 -0.576,2.64 -0.707,2.708 -0.679,2.869 -0.724,2.989 -0.75,2.875 -0.754,2.612 -0.913,2.656 -1.086,2.702 -1.096,3.011 -1.059,3.139 M -0.488,3.083 C -0.519,3.17 -0.55,3.258 -0.582,3.348 -0.473,3.282 -0.469,3.185 -0.488,3.083 m 0.57,0.414 C 0.104,3.505 0.318,3.332 0.318,3.332 0.34,3.275 0.337,3.244 0.337,3.244 0.361,3.176 0.392,3.142 0.423,3.107 0.444,3.248 0.308,3.366 0.415,3.5 0.464,3.394 0.551,3.318 0.567,3.194 0.587,3.048 0.567,2.975 0.648,2.836 0.782,2.611 1.101,2.346 1.116,2.074 0.965,2.278 0.814,2.48 0.663,2.685 0.676,2.383 0.825,2.084 0.717,1.787 0.717,2.197 0.595,2.776 0.308,3.069 0.273,3.104 -0.069,3.45 0.082,3.497 M 0.754,3.248 C 0.725,3.318 0.6,3.473 0.667,3.541 0.761,3.46 0.791,3.37 0.754,3.248 M 0.72,3.019 c 0.235,0.283 0.162,-0.144 0,0 M 0.961,3.564 C 0.999,3.476 1.065,3.424 1.08,3.321 1.091,3.237 1.066,3.157 1.086,3.058 1.13,2.836 1.173,2.613 1.212,2.39 1.272,2.054 1.288,1.571 0.822,1.564 0.933,1.68 1.083,1.783 1.145,1.939 1.219,2.121 1.142,2.319 1.102,2.5 1.059,2.689 1.015,2.88 0.97,3.069 0.929,3.249 0.854,3.403 0.961,3.564 M 1.203,3.652 C 1.27,3.534 1.336,3.416 1.402,3.295 1.28,3.249 1.331,3.196 1.363,3.074 1.4,2.932 1.438,2.791 1.475,2.648 1.532,2.423 1.614,2.161 1.525,1.937 1.459,2.23 1.391,2.523 1.312,2.813 1.245,3.06 1.05,3.417 1.203,3.652 M 1.698,3 C 1.685,3.094 1.685,3.134 1.719,3.221 1.837,3.167 1.744,3.176 1.75,3.116 1.755,3.058 1.745,2.956 1.755,2.882 1.689,2.927 1.542,2.986 1.55,3.083 1.558,3.188 1.666,3.034 1.698,3 M 1.988,2.437 1.957,2.429 C 1.805,2.63 1.891,2.683 1.988,2.437 M 1.654,2.57 C 1.737,2.665 1.821,2.757 1.905,2.851 1.916,2.839 1.927,2.827 1.927,2.827 1.914,2.753 1.7,2.53 1.654,2.57 M 2.294,1.869 2.275,1.841 C 2.229,1.816 2.182,1.794 2.135,1.77 2.135,1.873 2.092,1.992 2.213,1.989 2.249,1.988 2.17,1.863 2.294,1.869 m -0.4,1.55 c 0.015,0.117 -0.1,0.198 0.019,0.3 C 1.97,3.578 2.006,3.499 2.031,3.35 2.053,3.203 2.105,3.104 2.231,3.02 2.213,3.271 2.045,3.506 2.15,3.759 2.289,3.495 2.25,3.226 2.35,2.953 2.434,2.716 2.697,2.577 2.719,2.316 2.739,2.415 2.759,2.511 2.727,2.65 2.693,2.799 2.405,3.791 2.551,3.812 2.612,3.716 2.674,3.642 2.691,3.528 2.701,3.463 2.687,3.388 2.698,3.317 2.739,3.086 2.81,2.864 2.841,2.629 2.891,2.258 2.871,1.913 2.447,1.847 2.604,2.003 2.682,2.144 2.717,2.304 2.627,2.405 2.536,2.506 2.447,2.611 2.454,2.496 2.462,2.379 2.469,2.264 c 0,0 -0.084,0.269 -0.1,0.323 C 2.319,2.739 2.247,2.837 2.118,2.927 2.156,2.72 2.274,2.408 2.229,2.195 2.177,1.939 1.936,2.011 1.801,2.154 1.772,2.07 1.698,1.715 1.575,1.708 1.35,1.692 1.368,2.069 1.379,2.194 1.449,2.07 1.428,1.919 1.56,1.832 1.621,1.944 1.66,2.063 1.711,2.179 1.772,2.313 1.766,2.305 1.877,2.264 1.965,2.235 2.034,2.129 2.103,2.245 2.149,2.322 2.075,2.544 2.063,2.621 2.009,2.917 1.99,3.111 1.773,3.317 1.737,3.352 1.532,3.575 1.614,3.651 1.67,3.702 1.84,3.473 1.894,3.419 m 0.501,0.24 C 2.417,3.577 2.52,3.348 2.433,3.325 2.445,3.422 2.254,3.62 2.395,3.659 M 2.723,4.827 C 1.31,3.944 -0.13,4.054 -1.678,4.466 -2.544,4.697 -3.243,4.526 -3.646,4.097 -3.67,4.184 -3.694,4.278 -3.718,4.363 l -0.045,0.072 c -0.17,0.175 -0.514,0.091 -0.594,-0.142 0,0 -0.015,-0.061 -0.009,-0.089 0.085,-0.355 0.228,-0.944 0.408,-1.671 l 0.003,-0.009 0.019,-0.08 c 0.417,-1.682 1.87,-6.551 2.734,-9.6 -0.248,-0.039 -0.496,-0.096 -0.74,-0.191 -0.106,-0.042 -0.225,-0.156 -0.257,-0.263 -0.15,-0.534 -0.3,-1.072 -0.404,-1.614 -0.085,-0.431 -0.089,-0.875 0.044,-1.305 0.107,-0.351 0.307,-0.509 0.667,-0.521 0.305,-0.01 0.612,-10e-4 0.914,-10e-4 v 0.01 c 0.293,0 0.592,-0.034 0.875,0.009 0.388,0.06 0.774,0.152 1.14,0.286 0.272,0.098 0.334,0.292 0.28,0.58 -0.052,0.266 -0.111,0.531 -0.177,0.793 -0.145,0.587 -0.297,1.174 -0.446,1.759 -0.053,0.215 -0.184,0.338 -0.406,0.393 -0.273,0.068 -0.541,0.094 -0.81,0.101 -0.629,2.077 -1.568,5.069 -1.792,5.965 0.847,0.525 1.784,0.445 2.745,0.262 1.423,-0.271 2.68,0.129 3.798,1.018 0.105,0.081 0.2,0.265 0.174,0.371 C 4.072,1.873 3.723,3.244 3.369,4.614 3.341,4.726 3.353,5.218 2.723,4.827"
             style="fill:#ffffff;fill-opacity:1;fill-rule:nonzero;stroke:none"
             id="path166" /></g><g
           id="g168"
           transform="translate(423.7871,245.2609)"><path
             d="M 0,0 -5.289,0.305 -7.354,2.437 -2.75,9.861 0.049,9.106 2.338,7.492 2.731,1.669 Z M 43.406,11.557 40.398,11.655 40.048,1.164 H 29.773 L 25.129,2.162 25.166,12.047 22.157,12.06 22.117,1.865 20.688,1.123 5.78,1.155 5.243,9.126 1.345,11.869 -4.127,13.348 -10.293,3.404 -13.362,1.969 h -14.562 l -4.786,11.912 h -5.371 L -41.922,9.37 -39.19,1.969 h -18.188 l -1.324,3.784 1.944,6.292 -2.874,0.887 -2.237,-7.239 2.355,-6.732 h 24.643 l -3.619,9.8 1.799,2.11 h 1.946 l 4.784,-11.91 h 17.267 l 3.109,1.454 2.953,-3.046 7.398,-0.426 1.98,1.21 18.672,-0.038 2.416,1.25 5.466,-1.177 13.658,-0.035 z"
             style="fill:#ffffff;fill-opacity:1;fill-rule:nonzero;stroke:none"
             id="path170" /></g><g
           id="g172"
           transform="translate(371.7319,365.8532)"><path
             d="M 0,0 C 0.658,0.011 1.738,0.645 0.746,1.731 -0.246,2.814 -1.523,2.151 -1.471,1.268 -1.417,0.384 -0.661,-0.011 0,0"
             style="fill:#ffffff;fill-opacity:1;fill-rule:nonzero;stroke:none"
             id="path174" /></g><g
           id="g176"
           transform="translate(368.4546,361.7214)"><path
             d="M 0,0 C 1.125,0.425 2.175,0.604 3.159,-1.014 3.275,-1.205 3.141,-1.386 2.944,-1.483 0.979,-2.461 -0.796,-3.2 -3.508,-2.787 -3.667,-2.522 -0.972,-0.368 0,0 m -3.452,2.323 c 0.581,0.551 0.043,1.681 -0.83,1.184 -1.385,-0.792 -9.603,-3.89 -8.843,-8.717 0.38,-2.415 1.916,-3.255 3.776,-3.136 4.666,0.302 5.176,3.761 5.176,3.761 0,0 1.625,-0.379 3.338,-0.092 2.436,0.411 3.829,1.23 4.652,1.702 0.908,0.519 1.805,1.482 1.194,2.903 C 4.747,0.541 3.939,1.418 3.51,1.657 2.623,2.155 1.175,2.247 0.258,1.874 -0.749,1.46 -2.279,0.721 -4.009,-1.255 c -0.207,-0.239 -0.635,-0.771 -0.635,-0.771 0,0 -0.527,1.047 -0.577,1.141 -0.174,0.333 -0.394,0.617 -1.193,0.366 -1.028,-0.324 0.251,-1.345 0.484,-2.82 0.179,-1.144 -0.533,-2.783 -2.629,-3.113 -2.195,-0.346 -3.186,1.348 -2.786,2.77 0.689,2.46 7.21,5.357 7.893,6.005"
             style="fill:#ffffff;fill-opacity:1;fill-rule:nonzero;stroke:none"
             id="path178" /></g><path
           d="m 383.584,362.288 h -2.855 v -0.514 h 2.855 z"
           style="fill:#ffffff;fill-opacity:1;fill-rule:nonzero;stroke:none"
           id="path180" /></g></g></g></svg>
